#N canvas 1280 -209 1920 1035 10;
#X obj -68 -626 cnv 15 820 48 empty empty SignalProcessing 20 12 0
14 -233017 -66577 0;
#X text -65 481 ________________________________________________________________________________________________________________________________
, f 128;
#X text -59 1668 ________________________________________________________________________________________________________________________________
, f 128;
#X text -60 2308 ________________________________________________________________________________________________________________________________
, f 128;
#X text -61 2785 ________________________________________________________________________________________________________________________________
, f 128;
#X text -63 3275 ________________________________________________________________________________________________________________________________
, f 128;
#X obj -68 -603 cnv 15 820 28 empty empty Sound_Art 20 12 0 14 -233017
-66577 0;
#X obj -66 504 cnv 15 775 31 empty empty Reverb 20 12 0 14 -233017
-66577 0;
#X obj -60 1691 cnv 15 775 31 empty empty Filtering 20 12 0 14 -233017
-66577 0;
#X obj -60 2332 cnv 15 775 31 empty empty ELSELibrary 20 12 0 14 -233017
-66577 0;
#N canvas 1280 48 450 300 init 0;
#X obj 61 63 loadbang;
#X restore 660 -601 pd init;
#X obj -59 2812 cnv 15 775 31 empty empty TOPIC 20 12 0 14 -233017
-66577 0;
#X obj -60 3292 cnv 15 775 31 empty empty Soundhack 20 12 0 14 -233017
-66577 0;
#X text 810 4310 _;
#X floatatom 137 3240 5 0 0 0 - - -;
#X obj 140 3214 hsl 128 15 0.25 1 0 0 empty \$0-damping empty -2 -8
0 10 -228856 -1 -1 23706 1;
#X floatatom 63 3213 5 0 0 0 - - -;
#X obj 66 3190 hsl 128 15 0.5 1.25 0 0 empty \$0-threshold empty -2
-8 0 10 -228856 -1 -1 8466 1;
#X text 201 3186 threshold factor for all bins, f 19;
#X text 187 3234 damping factor for all bins, f 14;
#X obj -10 3165 r bthresher~_msgs;
#X obj -10 3258 fftease/bthresher~ 1024 8;
#X obj -18 2857 tdh.satk.audiofile~;
#N canvas 1280 222 309 224 init 0;
#X obj 24 55 f \$0;
#X obj 24 27 loadbang;
#X msg 24 82 \; \$1-threshold 0.75 \; \$1-damping 0.95 \; \$1-maxhold
5000 \; \$1-transpose-slider 1;
#X connect 0 0 2 0;
#X connect 1 0 0 0;
#X restore 330 3207 pd init;
#N canvas 705 264 390 253 random_control 0;
#X obj 37 49 bng 15 250 50 0 empty empty empty 17 7 0 10 -262144 -1
-1;
#X obj 37 79 t b b;
#X msg 172 144 rthreshold 0.06 0.2;
#X msg 37 143 rdamper 0.6 1.1;
#X text 34 25 randomize parameters for each individual bin;
#X obj 37 196 s bthresher~_msgs;
#X text 155 106 args: min and max values;
#X connect 0 0 1 0;
#X connect 1 0 3 0;
#X connect 1 1 2 0;
#X connect 2 0 5 0;
#X connect 3 0 5 0;
#X restore 330 3259 pd random_control;
#N canvas 1280 234 587 327 global_control 0;
#X obj 37 245 s bthresher~_msgs;
#X floatatom 37 67 5 1 200000 0 - #0-maxhold -;
#X msg 37 95 max_hold \$1;
#X msg 131 151 inf_hold \$1;
#X obj 131 118 tgl 15 0 empty empty empty 17 7 0 10 -262144 -1 -1 0
1;
#X text 151 115 sets the maximum hold time to infinity;
#X text 92 64 set the maximum hold time in milliseconds;
#X msg 109 214 dump;
#X text 149 209 sends all current parameters to the right outlet. Format:
[bin # \, dampfactor \, threshold];
#X connect 1 0 2 0;
#X connect 2 0 0 0;
#X connect 3 0 0 0;
#X connect 4 0 3 0;
#X connect 7 0 0 0;
#X restore 330 3232 pd global_control;
#N canvas 543 274 709 407 single-bin-control 0;
#X obj 37 349 s bthresher~_msgs;
#X obj 37 187 pack f f f;
#X floatatom 37 61 5 0 511 0 - - -;
#X floatatom 70 140 5 0 0 0 - - -;
#X floatatom 152 158 5 0 0 0 - - -;
#X obj 73 99 hsl 128 15 0.5 0.999 0 0 empty empty damping-factor -2
-8 0 10 -262144 -1 -1 0 1;
#X obj 155 138 hsl 128 15 0.01 0.5 0 0 empty empty threshold -2 -8
0 10 -262144 -1 -1 0 1;
#X msg 37 216 bin \$1 \$2 \$3;
#X text 77 59 bin number;
#X text 33 26 Use this patch to individually set the parameters for
each bin, f 80;
#X text 195 179 send bin data in a list of triplets: [bin # \, damp
factor \, threshold], f 73;
#X msg 200 203 3 0.99 0.01 11 0.99 0.01 15 0.99 0.01 23 0.99 0.01 52
0.99 0.01 56 0.99 0.01 ;
#N canvas 0 23 987 961 big-data 0;
#X obj 21 40 inlet;
#X msg 75 -12 0 0.624338 0.0864722 1 0.71734 0.084353 2 0.875696 0.188823
3 0.945581 0.133623 4 0.999185 0.126851 5 0.877267 0.181513 6 0.777124
0.170093 7 0.717798 0.181026 8 0.659799 0.0966663 9 0.863901 0.176416
10 0.674844 0.088399 11 1.06915 0.174058 12 0.805078 0.189037 13 0.915048
0.184961 14 0.711572 0.188088 15 0.871866 0.0963672 16 1.04043 0.0841992
17 0.656107 0.140587 18 0.779596 0.159565 19 0.678995 0.0856219 20
0.92933 0.0626703 21 0.77572 0.174122 22 0.955927 0.12304 23 0.703546
0.123997 24 0.621423 0.198351 25 0.791147 0.13085 26 0.943857 0.173891
27 1.03173 0.155011 28 0.797372 0.138682 29 0.999872 0.0838831 30 0.99592
0.0981445 31 0.963586 0.0956366 32 0.610086 0.140468 33 0.630457 0.0813794
34 1.03173 0.07242 35 0.972818 0.109731 36 0.748239 0.137575 37 0.778238
0.1941 38 0.752924 0.163449 39 0.919626 0.12818 40 0.648004 0.096145
41 0.654428 0.136439 42 0.922617 0.159792 43 0.875421 0.0997638 44
0.75622 0.158583 45 0.910745 0.105352 46 0.936151 0.182 47 0.813654
0.0959827 48 0.674707 0.188434 49 0.898813 0.16588 50 0.929514 0.106971
51 0.747537 0.066366 52 0.984842 0.101665 53 0.656488 0.0966064 54
0.749521 0.191062 55 0.666544 0.0736761 56 0.626093 0.0959528 57 0.813394
0.0796362 58 0.807657 0.113705 59 0.9311 0.110641 60 1.08236 0.157263
61 0.872461 0.168051 62 0.894876 0.177018 63 0.791681 0.116644 64 0.753549
0.12225 65 0.924875 0.0968628 66 1.00565 0.124245 67 0.622354 0.166606
68 0.908197 0.0866687 69 1.01052 0.156921 70 0.982446 0.155695 71 0.928644
0.107869 72 0.756952 0.0720953 73 1.08625 0.107928 74 0.601999 0.198287
75 0.902414 0.136686 76 0.831567 0.138583 77 0.721979 0.110671 78 0.783075
0.130863 79 0.6746 0.136033 80 1.02203 0.182103 81 0.773294 0.13843
82 0.824472 0.137908 83 0.807245 0.0835327 84 0.974664 0.0795892 85
0.679758 0.087959 86 0.726434 0.180518 87 0.830392 0.0877112 88 0.997385
0.173647 89 0.647134 0.143398 90 0.982416 0.11306 91 0.978098 0.189584
92 0.889566 0.165081 93 0.899057 0.061709 94 1.03121 0.149632 95 1.05808
0.111932 96 0.789133 0.136255 97 0.957513 0.150427 98 0.899057 0.0773932
99 0.939111 0.0858099 100 0.621393 0.142963 101 0.825693 0.173481 102
1.06275 0.139724 103 0.794199 0.198244 104 0.727411 0.153892 105 1.00034
0.0710101 106 0.945718 0.071557 107 0.602655 0.159963 108 0.82821 0.159835
109 0.674951 0.145223 110 1.00849 0.0734454 111 0.645517 0.0856091
112 0.758051 0.169469 113 0.69169 0.0755176 114 0.66308 0.185243 115
0.92254 0.171464 116 1.05326 0.107591 117 0.722681 0.165231 118 1.09223
0.0995972 119 0.688135 0.174438 120 0.981256 0.124677 121 0.976129
0.133606 122 0.846002 0.139109 123 0.900262 0.0643323 124 0.790277
0.138207 125 0.738428 0.0881299 126 0.657785 0.0871899 127 0.865579
0.13376 128 0.789346 0.100088 129 0.634744 0.0704675 130 0.691888 0.15707
131 0.610956 0.125399 132 0.803186 0.141237 133 1.07774 0.149077 134
0.974374 0.174656 135 0.801218 0.125176 136 0.672357 0.160676 137 0.775232
0.141809 138 0.772256 0.145859 139 0.820764 0.153934 140 0.649454 0.0929065
141 0.904764 0.165598 142 0.783762 0.0992767 143 0.701669 0.109355
144 0.953302 0.102434 145 1.07209 0.10983 146 0.671274 0.133965 147
1.03288 0.172088 148 1.01225 0.136695 149 0.842752 0.103271 150 0.624673
0.0795892 151 1.04173 0.174335 152 0.929178 0.0977899 153 0.68197 0.0765002
154 0.886011 0.0621918 155 0.78811 0.12081 156 0.922556 0.101644 157
0.868234 0.132106 158 0.960962 0.120545 159 0.92843 0.139357 160 1.06269
0.176929 161 0.698724 0.115405 162 0.98858 0.170323 163 0.656595 0.111927
164 0.8108 0.0782776 165 1.07414 0.160587 166 0.954019 0.13496 167
0.698892 0.0723987 168 0.777475 0.173754 169 0.989709 0.0938934 170
0.989328 0.108262 171 0.755396 0.185662 172 0.895227 0.163492 173 0.710138
0.145137 174 0.891229 0.0908899 175 1.03724 0.109693 176 0.867075 0.15446
177 0.895395 0.106091 178 0.943033 0.106758 179 0.637247 0.156083 180
0.737497 0.189601 181 0.635965 0.169815 182 0.653406 0.144796 183 0.910791
0.0655585 184 0.670313 0.105087 185 0.847406 0.0927441 186 0.987558
0.109099 187 1.03309 0.138626 188 0.692972 0.0711255 189 0.932977 0.153836
190 1.0521 0.132623 191 0.740121 0.181915 192 0.828165 0.0880914 193
0.968347 0.172588 194 0.921976 0.10178 195 0.685602 0.0745862 196 0.84292
0.112299 197 1.0025 0.148538 198 0.604501 0.078017 199 0.928796 0.191288
200 0.734003 0.11717 201 0.927728 0.122245 202 0.942087 0.0668359 203
0.627817 0.153212 204 0.694971 0.115666 205 1.0234 0.183705 206 0.951151
0.0888605 207 1.03636 0.0749835 208 1.01377 0.071792 209 1.00956 0.171836
210 0.615488 0.0914069 211 0.608423 0.162052 212 0.837671 0.154268
213 0.787317 0.193792 214 0.887399 0.165927 215 0.971292 0.0680493
216 0.948602 0.119776 217 0.630777 0.12137 218 0.91929 0.159587 219
0.613107 0.142279 220 0.61796 0.152704 221 0.649301 0.10598 222 0.727655
0.199521 223 0.639108 0.17965 224 0.95614 0.101024 225 0.942545 0.0879462
226 0.878946 0.114893 227 0.944589 0.185418 228 0.833841 0.147889 229
0.850031 0.0741974 230 1.01592 0.136977 231 0.735956 0.131675 232 0.862344
0.063999 233 1.0664 0.131034 234 1.09826 0.0770258 235 1.06346 0.110291
236 1.06758 0.180441 237 0.850168 0.106707 238 0.83204 0.109086 239
0.700143 0.0796106 240 0.812387 0.145107 241 0.839822 0.139015 242
0.902582 0.19692 243 0.797662 0.100875 244 0.833688 0.0888007 245 0.877313
0.199504 246 0.612146 0.163906 247 0.879037 0.0795166 248 0.958444
0.0926886 249 0.62243 0.113628 250 0.709695 0.129184 251 0.981622 0.0656055
252 0.636316 0.0609485 253 1.02828 0.074129 254 0.883005 0.136063 255
1.06101 0.124523 256 1.0276 0.0824902 257 0.747095 0.106501 258 0.965265
0.132363 259 0.781183 0.101234 260 0.911554 0.0856091 261 1.07844 0.171054
262 0.89715 0.0856091 263 1.04614 0.164201 264 0.887445 0.136383 265
0.890009 0.0864038 266 0.774942 0.0806744 267 0.872736 0.0967218 268
0.982324 0.168768 269 1.06082 0.0663403 270 1.07997 0.0819775 271 1.07566
0.161578 272 0.620172 0.142266 273 0.706293 0.102498 274 0.751123 0.0820673
275 0.600916 0.12248 276 0.608606 0.192109 277 0.973673 0.0736121 278
0.650171 0.0878094 279 1.05099 0.162056 280 0.93252 0.0675836 281 0.948709
0.178651 282 1.02934 0.0631958 283 1.0794 0.184628 284 1.008 0.19248
285 0.989542 0.120237 286 0.75596 0.1995 287 1.05134 0.130355 288 0.980844
0.141741 289 0.692911 0.109578 290 0.900797 0.196454 291 0.822458 0.157181
292 0.987817 0.162018 293 0.714166 0.136674 294 0.993997 0.191904 295
0.708643 0.0833319 296 0.753427 0.0738727 297 0.948602 0.159476 298
0.675317 0.105113 299 1.06661 0.0864508 300 0.640802 0.162347 301 1.02519
0.0937567 302 0.894022 0.186422 303 0.933862 0.0963928 304 0.893533
0.0646954 305 0.714685 0.163851 306 0.658044 0.13646 307 0.683557 0.0802472
308 0.646661 0.195608 309 1.09213 0.186153 310 0.789301 0.0614355 311
0.78309 0.112214 312 1.01286 0.157062 313 0.650995 0.160048 314 0.913126
0.194241 315 0.912485 0.154263 316 0.77363 0.156805 317 1.00018 0.176219
318 0.971597 0.109761 319 1.09893 0.081059 320 0.860712 0.117823 321
0.891702 0.194813 322 0.798685 0.150119 323 0.917719 0.0967517 324
0.715845 0.110056 325 0.613458 0.112162 326 1.03765 0.0775726 327 0.938409
0.187794 328 0.970041 0.171349 329 1.00858 0.12231 330 0.873636 0.109253
331 0.853983 0.0778418 332 0.891672 0.0775128 333 0.781412 0.158737
334 0.690698 0.158015 335 0.99328 0.176997 336 1.0503 0.156015 337
0.85264 0.17137 338 0.768915 0.0658276 339 0.650217 0.18696 340 0.80285
0.174297 341 0.636285 0.115533 342 0.696405 0.194001 343 1.08886 0.091817
344 0.995126 0.189092 345 0.698068 0.198693 346 1.01878 0.105168 347
0.610452 0.196236 348 0.877756 0.0821356 349 0.99267 0.1475 350 0.853998
0.120404 351 0.712244 0.0621576 352 0.832285 0.102118 353 0.795908
0.146052 354 0.71998 0.138976 355 0.761881 0.111141 356 0.85882 0.137054
357 0.81048 0.135729 358 0.806757 0.169439 359 0.642236 0.11429 360
1.0267 0.196381 361 0.708505 0.0708606 362 0.922296 0.0734753 363 0.997644
0.16899 364 0.84086 0.163744 365 0.91427 0.137327 366 0.689767 0.127137
367 0.998834 0.0862628 368 0.825769 0.109052 369 0.825891 0.191908
370 0.703989 0.148508 371 0.89277 0.129005 372 0.879739 0.0792517 373
0.88122 0.153336 374 0.801569 0.104139 375 1.04699 0.101904 376 0.867075
0.150029 377 0.872614 0.128855 378 0.970773 0.133828 379 0.692346 0.102806
380 0.877634 0.197112 381 0.984155 0.131346 382 0.653741 0.100217 383
0.940393 0.123848 384 0.655679 0.0618201 385 1.07592 0.157515 386 0.629205
0.0632086 387 0.966791 0.14571 388 0.91221 0.173566 389 1.07737 0.0603503
390 0.89541 0.117264 391 1.08657 0.155131 392 0.606058 0.132346 393
0.91691 0.121583 394 1.00871 0.135845 395 0.870935 0.0942224 396 0.731744
0.116354 397 0.99209 0.1103 398 1.06576 0.139557 399 0.6233 0.197039
400 0.768152 0.185559 401 0.81283 0.15992 402 0.78895 0.153336 403
0.872034 0.0844257 404 0.809915 0.135584 405 0.841287 0.0651141 406
0.934732 0.06 407 0.637262 0.122502 408 0.874185 0.140237 409 0.877664
0.130782 410 0.922556 0.157545 411 1.00602 0.158984 412 0.683725 0.133747
413 0.860117 0.152418 414 1.09826 0.177288 415 1.06594 0.124886 416
0.765054 0.137874 417 0.877054 0.182641 418 0.72413 0.0749707 419 1.08735
0.118541 420 0.722452 0.0832422 421 0.752969 0.160655 422 0.602701
0.164654 423 0.634622 0.160326 424 0.631342 0.0800207 425 0.947473
0.192408 426 0.76713 0.0621576 427 0.795053 0.128235 428 0.91781 0.192912
429 1.06977 0.0841608 430 0.624658 0.164974 431 0.735971 0.142634 432
1.07664 0.151294 433 1.07104 0.0792047 434 1.07198 0.173007 435 0.904077
0.15566 436 0.734537 0.118443 437 0.952692 0.0952478 438 0.913629 0.142202
439 1.01609 0.148342 440 0.947977 0.145842 441 0.731317 0.170751 442
0.689462 0.0770001 443 0.917932 0.181393 444 0.664865 0.121062 445
0.96171 0.161868 446 0.891718 0.164222 447 1.07032 0.106651 448 1.02859
0.141348 449 0.898767 0.0827551 450 0.630212 0.0857031 451 0.622079
0.182791 452 0.902292 0.111265 453 0.865152 0.144347 454 1.06349 0.0765387
455 0.912241 0.163607 456 1.07705 0.0724072 457 1.05703 0.157241 458
0.963983 0.0891937 459 1.08238 0.177958 460 0.973947 0.0684979 461
0.67692 0.097901 462 0.9815 0.116452 463 1.02847 0.113773 464 0.850412
0.1724 465 0.968393 0.168662 466 0.696939 0.184888 467 0.925836 0.190989
468 0.626321 0.131192 469 1.07992 0.182509 470 0.683588 0.092774 471
1.04846 0.199897 472 1.04485 0.185999 473 0.93313 0.0898773 474 0.692896
0.180116 475 0.983682 0.0896252 476 0.687189 0.0622388 477 0.613153
0.17707 478 0.808756 0.114435 479 0.832162 0.0783801 480 0.731409 0.160236
481 0.892999 0.121609 482 0.656351 0.10369 483 0.875131 0.0882025 484
0.771997 0.0657165 485 0.938837 0.141352 486 0.9311 0.10457 487 1.01849
0.177305 488 0.826791 0.125497 489 1.02204 0.0842206 490 1.01862 0.190571
491 1.07374 0.0820673 492 0.889475 0.102596 493 1.05102 0.189836 494
1.06797 0.0778418 495 0.830576 0.070459 496 1.01446 0.144266 497 1.03024
0.144257 498 0.711923 0.0780383 499 0.833276 0.153071 500 0.925974
0.157767 501 0.774866 0.0704034 502 0.754282 0.0625293 503 0.745874
0.0806573 504 0.893228 0.19642 505 1.03625 0.0885272 506 0.641672 0.086015
507 0.710245 0.130739 508 0.677805 0.10848 509 0.891595 0.0641614 510
1.0498 0.15854 511 0.983591 0.193852;
#X obj 46 2576 outlet;
#X connect 0 0 1 0;
#X connect 1 0 2 0;
#X restore 225 289 pd big-data;
#X obj 225 256 bng 15 250 50 0 empty empty empty 17 7 0 10 -262144
-1 -1;
#X text 308 291 captured using the "dump" method;
#X text 247 255 load parameter set;
#X connect 1 0 7 0;
#X connect 2 0 1 0;
#X connect 3 0 1 1;
#X connect 4 0 1 2;
#X connect 5 0 3 0;
#X connect 6 0 4 0;
#X connect 7 0 0 0;
#X connect 11 0 0 0;
#X connect 12 0 0 0;
#X connect 13 0 12 0;
#X restore 448 3206 pd single-bin-control;
#N canvas 539 348 632 212 utilities 0;
#X obj 27 158 s bthresher~_msgs;
#X msg 27 65 mute \$1;
#X obj 27 31 tgl 15 0 empty empty empty 17 7 0 10 -262144 -1 -1 0 1
;
#X text 91 65 toggle object computation to lower CPU load when muted
;
#X msg 39 119 fftinfo;
#X text 104 121 print FFT size \, hop size \, signal vector size \,
and sample rate, f 61;
#X connect 1 0 0 0;
#X connect 2 0 1 0;
#X connect 4 0 0 0;
#X restore 448 3260 pd utilities;
#N canvas 492 223 750 484 oscbank 0;
#X obj 38 392 s bthresher~_msgs;
#X msg 38 72 oscbank \$1;
#X obj 38 38 tgl 17 0 empty empty empty 17 7 0 10 -228856 -1 -1 0 1
;
#X msg 69 292 transpose \$1;
#X floatatom 69 252 5 0 0 0 - - -;
#X obj 72 218 hsl 128 15 0.25 1.5 0 0 empty \$0-transpose-slider transposition-factor
-2 -8 0 10 -228856 -1 -1 7620 1;
#X text 64 35 oscbank mode (careful - louder!);
#X msg 271 350 synthresh \$1;
#X obj 274 295 hsl 128 15 0 1 0 0 empty empty synthesis-threshold -2
-8 0 10 -228856 -1 -1 0 1;
#X floatatom 271 318 5 0 0 0 - - -;
#X text 81 138 the following controllers only work when oscbank mode
is turned on, f 70;
#X text 270 215 with a synthesis threshold of 0 \, all bins are synthsized
\; at higher thresholds \, bins with amplitudes below the threshold
are suppressed \, thinning the texture and also lowering the CPU load
of the object;
#X connect 1 0 0 0;
#X connect 2 0 1 0;
#X connect 3 0 0 0;
#X connect 4 0 3 0;
#X connect 5 0 4 0;
#X connect 7 0 0 0;
#X connect 8 0 9 0;
#X connect 9 0 7 0;
#X restore 448 3233 pd oscbank;
#X obj 124 778 rev1~;
#X text -64 541 • Pd comes with 3 built in reverb objects - [rev1~]
\, [rev2~] \, [rev3~], f 128;
#X obj 256 743 rev2~, f 14;
#X obj 377 742 rev3~, f 14;
#X obj -64 1109 cnv 15 775 31 empty empty Time-BasedSignalProcessing
20 12 0 14 -233017 -66577 0;
#X obj 527 1154 tdh.util.lilaudiofile~;
#X text -60 1150 • The DELAY LINE is the core element of nearly every
signal processor at their core, f 85;
#X obj 24 1320 delread~;
#X text -60 1180 • Delay is conducted with TWO objects (for some
reason): delwrite~ and delread~, f 85;
#X obj 20 1279 delwrite~;
#X text -60 1211 • Think of it as one object writing the data into
memory \, the other reading back the data after a delay of x ms, f
85;
#X obj 4 2094 vcf~;
#X obj 55 2093 hip~;
#X obj 106 2093 lop~;
#X obj 162 2094 bp~, f 7;
#X obj -26 1738 noise~;
#X obj -26 1759 tdh.satk.channelstrip~;
#X obj -7 2424 else/drive~;
#X obj 295 2440 tdh.util.lilaudiofile~;
#X obj -22 3407 soundhack/+bubbler~;
#X obj 129 3402 soundhack/+morphfilter~;
#X obj 307 3406 soundhack/+pitchdelay~;
#X obj 472 3380 tdh.util.lilaudiofile~;
#X obj 228 1966 tdh.satk.spectrograph~;
#X obj -54 -406 tdh.satk.3oscil~;
#X text 99 102 Synthesizer;
#X text 553 -82 Audio File Playback;
#X obj 398 -406 tdh.satk.audiofile~;
#X obj -56 -496 cnv 15 1000 60 empty empty INPUTS 20 12 0 14 -233017
-66577 0;
#X text 435 -93 Mic;
#X obj 507 -25 env~;
#X obj 506 -4 - 100;
#X text 450 -49 <-- scale from 0 to 100;
#X text 544 -1 <--- -100 to 0;
#X obj 507 19 vu 15 120 empty empty -1 -8 0 10 -66577 -1 1 0;
#X obj -14 849 tdh.satk.audioout~;
#X floatatom 141 745 5 0 0 0 - - -;
#X connect 14 0 21 2;
#X connect 15 0 14 0;
#X connect 16 0 21 1;
#X connect 17 0 16 0;
#X connect 20 0 21 0;
#X connect 44 0 45 0;
#X connect 59 0 60 0;
#X connect 60 0 63 0;
#X connect 65 0 29 1;
