#N canvas 30 23 1414 855 12;
#N canvas 2226 59 1277 715 basic_synth 1;
#X obj 238 270 phasor~;
#X obj 238 292 *~ 2;
#X obj 238 314 -~ 1;
#X obj 238 516 *~;
#X obj 240 29 inlet;
#X text 289 30 frequency;
#X obj 685 36 inlet;
#X text 730 35 note duration;
#X obj 627 215 float 250;
#X text 704 216 <-- store note duration;
#X obj 569 366 delay 250;
#X obj 450 288 trigger bang bang;
#X text 650 365 we delay this bang by the note duration \, because
this bang triggers the decay portion of the amplitude envelope;
#X text 264 407 starts the note envelope;
#X obj 1119 36 inlet;
#X text 33 265 set oscillator frequency-->;
#X obj 315 477 line~;
#X obj 238 562 *~;
#X text 275 560 volume;
#X text 272 518 envelope;
#X obj 238 623 outlet~;
#X obj 161 30 inlet;
#X text 16 29 trigger (anything);
#X obj 161 54 bng 15 250 50 0 empty empty empty 17 7 0 10 -262144 -1
-1;
#X obj 451 122 trigger bang bang bang;
#X text 393 215 trigger to set note duration-->;
#X text 60 291 builds a bipolar -----> sawtooth wave from unipolar
[phasor~], f 23;
#X text 582 288 <-- create note based on duration;
#X text 620 122 <-- first triggered bang silences the oscillator;
#X msg 581 148 0 5;
#X msg 448 409 0 \, 0.8 \$1;
#X msg 569 448 0 \$1;
#X obj 995 36 inlet;
#X obj 569 407 float 500;
#X obj 864 36 inlet;
#X obj 448 365 float 500;
#X text 912 35 attack;
#X text 1039 35 release;
#X text 1165 35 Volume;
#X obj 519 563 outlet;
#X obj 486 508 line;
#X connect 0 0 1 0;
#X connect 1 0 2 0;
#X connect 2 0 3 0;
#X connect 3 0 17 0;
#X connect 4 0 0 0;
#X connect 6 0 8 1;
#X connect 8 0 10 1;
#X connect 10 0 33 0;
#X connect 11 0 35 0;
#X connect 11 1 10 0;
#X connect 14 0 17 1;
#X connect 16 0 3 1;
#X connect 17 0 20 0;
#X connect 21 0 23 0;
#X connect 23 0 24 0;
#X connect 24 0 11 0;
#X connect 24 1 8 0;
#X connect 24 2 29 0;
#X connect 29 0 16 0;
#X connect 30 0 16 0;
#X connect 30 0 40 0;
#X connect 31 0 16 0;
#X connect 31 0 40 0;
#X connect 32 0 33 1;
#X connect 33 0 31 0;
#X connect 34 0 35 1;
#X connect 35 0 30 0;
#X connect 40 0 39 0;
#X restore 298 534 pd basic_synth;
#X obj 291 326 bng 15 250 50 0 empty empty empty 17 7 0 10 -262144
-1 -1;
#X floatatom 317 358 5 0 0 0 - - -;
#X floatatom 446 378 5 0 0 0 - - -;
#X floatatom 536 388 5 0 0 0 - - -;
#X floatatom 644 393 5 0 0 0 - - -;
#X floatatom 830 464 5 0 0 0 - - -;
#X obj 172 51 metro;
#X obj 298 240 t b b b b b b;
#X obj 174 27 tgl 15 0 empty empty empty 17 7 0 10 -262144 -1 -1 0
1;
#N canvas 118 116 1054 542 cmaj-note 0;
#X obj 146 347 mtof;
#X obj 153 186 sel 0 1 2 3 4;
#X obj 161 153 random 8;
#X obj 168 97 t b b;
#X obj 147 313 +;
#X obj 169 55 inlet;
#X msg 144 228 0;
#X msg 180 228 2;
#X msg 220 228 4;
#X msg 257 227 5;
#X msg 297 224 7;
#X msg 336 225 9;
#X msg 374 225 11;
#X msg 418 226 12;
#X msg 524 220 4;
#X obj 501 184 sel 0 1 2 3;
#X obj 501 160 random 4;
#X msg 489 220 3;
#X msg 561 220 5;
#X msg 601 220 6;
#X obj 490 270 * 12;
#X obj 146 371 outlet;
#X connect 0 0 21 0;
#X connect 1 0 6 0;
#X connect 1 1 7 0;
#X connect 1 2 8 0;
#X connect 1 3 9 0;
#X connect 1 4 10 0;
#X connect 2 0 1 0;
#X connect 3 0 2 0;
#X connect 3 1 16 0;
#X connect 4 0 0 0;
#X connect 5 0 3 0;
#X connect 6 0 4 0;
#X connect 7 0 4 0;
#X connect 8 0 4 0;
#X connect 9 0 4 0;
#X connect 10 0 4 0;
#X connect 11 0 4 0;
#X connect 12 0 4 0;
#X connect 13 0 4 0;
#X connect 14 0 20 0;
#X connect 15 0 17 0;
#X connect 15 1 14 0;
#X connect 15 2 18 0;
#X connect 15 3 19 0;
#X connect 16 0 15 0;
#X connect 17 0 20 0;
#X connect 18 0 20 0;
#X connect 19 0 20 0;
#X connect 20 0 4 1;
#X restore 325 312 pd cmaj-note;
#X obj 297 619 dac~ 1 2;
#X obj 311 771 soundhack/+binaural~;
#X obj 310 808 dac~ 1 2;
#X obj 343 718 hsl 128 15 -180 180 0 0 empty empty empty -2 -8 0 10
-262144 -1 -1 0 1;
#X msg 340 738 angle \$1;
#X text 792 1051 _;
#X text 839 303 vol;
#X text 649 287 rel;
#X text 568 283 att;
#X text 448 309 dur;
#X text 493 238 comment;
#X obj 300 112 t b b;
#X obj 332 143 random 1000;
#X obj 296 173 delay;
#X obj 302 87 bng 15 250 50 0 empty empty empty 17 7 0 10 -262144 -1
-1;
#X obj 829 333 random 100;
#X obj 829 357 / 100;
#X obj 643 343 + 200;
#X obj 537 357 + 200;
#X obj 446 339 random 5000;
#X obj 533 327 random 300;
#X obj 643 319 random 300;
#X floatatom 447 557 5 0 0 0 - - -;
#X obj 432 609 == 0;
#X obj 432 633 sel 1;
#X obj 298 60 spigot;
#X obj 337 24 tgl 15 0 empty empty empty 17 7 0 10 -262144 -1 -1 0
1;
#X obj 435 579 change;
#X obj 441 670 bng 15 250 50 0 empty empty empty 17 7 0 10 -262144
-1 -1;
#X obj 828 381 moses 0.5;
#X obj 822 421 + 0.2;
#X obj 892 420 - 0.2;
#X obj 829 241 bng 15 250 50 0 empty empty empty 17 7 0 10 -262144
-1 -1;
#X obj 672 571 random;
#X connect 0 0 11 0;
#X connect 0 0 11 1;
#X connect 0 1 33 0;
#X connect 1 0 0 0;
#X connect 2 0 0 1;
#X connect 3 0 0 2;
#X connect 4 0 0 3;
#X connect 5 0 0 4;
#X connect 6 0 0 5;
#X connect 8 0 1 0;
#X connect 8 1 10 0;
#X connect 8 2 30 0;
#X connect 8 3 31 0;
#X connect 8 4 32 0;
#X connect 8 5 26 0;
#X connect 10 0 2 0;
#X connect 12 0 13 0;
#X connect 12 1 13 1;
#X connect 14 0 15 0;
#X connect 15 0 12 0;
#X connect 22 0 24 0;
#X connect 22 1 23 0;
#X connect 23 0 24 1;
#X connect 24 0 8 0;
#X connect 25 0 22 0;
#X connect 26 0 27 0;
#X connect 27 0 40 0;
#X connect 28 0 5 0;
#X connect 29 0 4 0;
#X connect 30 0 3 0;
#X connect 31 0 29 0;
#X connect 32 0 28 0;
#X connect 33 0 38 0;
#X connect 34 0 35 0;
#X connect 35 0 39 0;
#X connect 36 0 25 0;
#X connect 37 0 36 1;
#X connect 38 0 34 0;
#X connect 39 0 36 0;
#X connect 40 0 41 0;
#X connect 40 1 42 0;
#X connect 41 0 6 0;
#X connect 42 0 6 0;
#X connect 43 0 26 0;
