#N canvas 0 22 1406 856 10;
#X obj -1092 377 inlet~;
#X obj -1080 881 outlet~;
#X obj -940 882 outlet~;
#X obj 140 114 tgl 15 0 empty empty empty 17 7 0 10 -262144 -1 -1 0
1;
#X obj 160 114 tgl 15 0 empty empty empty 17 7 0 10 -262144 -1 -1 0
1;
#X obj 183 115 tgl 15 0 empty empty empty 17 7 0 10 -262144 -1 -1 0
1;
#X obj 208 114 tgl 15 0 empty empty empty 17 7 0 10 -262144 -1 -1 0
1;
#X obj 233 114 tgl 15 0 empty empty empty 17 7 0 10 -262144 -1 -1 0
1;
#X obj 119 134 tgl 15 0 empty empty empty 17 7 0 10 -262144 -1 -1 0
1;
#X obj 162 134 tgl 15 0 empty empty empty 17 7 0 10 -262144 -1 -1 0
1;
#X obj 185 134 tgl 15 0 empty empty empty 17 7 0 10 -262144 -1 -1 0
1;
#X obj 209 133 tgl 15 0 empty empty empty 17 7 0 10 -262144 -1 -1 1
1;
#X obj 232 133 tgl 15 0 empty empty empty 17 7 0 10 -262144 -1 -1 0
1;
#X obj 117 158 tgl 15 0 empty empty empty 17 7 0 10 -262144 -1 -1 0
1;
#X obj 142 158 tgl 15 0 empty empty empty 17 7 0 10 -262144 -1 -1 0
1;
#X obj 184 158 tgl 15 0 empty empty empty 17 7 0 10 -262144 -1 -1 0
1;
#X obj 209 158 tgl 15 0 empty empty empty 17 7 0 10 -262144 -1 -1 0
1;
#X obj 235 156 tgl 15 0 empty empty empty 17 7 0 10 -262144 -1 -1 0
1;
#X obj -791 881 outlet~;
#X obj 118 182 tgl 15 0 empty empty empty 17 7 0 10 -262144 -1 -1 0
1;
#X obj 143 183 tgl 15 0 empty empty empty 17 7 0 10 -262144 -1 -1 0
1;
#X obj 167 183 tgl 15 0 empty empty empty 17 7 0 10 -262144 -1 -1 0
1;
#X obj 210 183 tgl 15 0 empty empty empty 17 7 0 10 -262144 -1 -1 0
1;
#X obj 235 183 tgl 15 0 empty empty empty 17 7 0 10 -262144 -1 -1 0
1;
#X obj 116 211 tgl 15 0 empty empty empty 17 7 0 10 -262144 -1 -1 0
1;
#X obj 141 213 tgl 15 0 empty empty empty 17 7 0 10 -262144 -1 -1 0
1;
#X obj 165 211 tgl 15 0 empty empty empty 17 7 0 10 -262144 -1 -1 0
1;
#X obj 187 210 tgl 15 0 empty empty empty 17 7 0 10 -262144 -1 -1 0
1;
#X obj 238 210 tgl 15 0 empty empty empty 17 7 0 10 -262144 -1 -1 0
1;
#X obj 115 234 tgl 15 0 empty empty empty 17 7 0 10 -262144 -1 -1 0
1;
#X obj 140 234 tgl 15 0 empty empty empty 17 7 0 10 -262144 -1 -1 0
1;
#X obj 164 233 tgl 15 0 empty empty empty 17 7 0 10 -262144 -1 -1 0
1;
#X obj 188 234 tgl 15 0 empty empty empty 17 7 0 10 -262144 -1 -1 0
1;
#X obj 210 233 tgl 15 0 empty empty empty 17 7 0 10 -262144 -1 -1 0
1;
#X obj -659 879 outlet~;
#X obj -559 879 outlet~;
#X obj -433 879 outlet~;
#X text -1083 123 A 6 input/6 output matrix audio router.;
#X obj 278 114 tgl 15 0 empty empty empty 17 7 0 10 -262144 -1 -1 0
1;
#X obj 299 114 tgl 15 0 empty empty empty 17 7 0 10 -262144 -1 -1 0
1;
#X obj 321 114 tgl 15 0 empty empty empty 17 7 0 10 -262144 -1 -1 0
1;
#X obj 257 114 tgl 15 0 empty empty empty 17 7 0 10 -262144 -1 -1 0
1;
#X obj 278 133 tgl 15 0 empty empty empty 17 7 0 10 -262144 -1 -1 0
1;
#X obj 300 133 tgl 15 0 empty empty empty 17 7 0 10 -262144 -1 -1 0
1;
#X obj 322 133 tgl 15 0 empty empty empty 17 7 0 10 -262144 -1 -1 0
1;
#X obj 258 133 tgl 15 0 empty empty empty 17 7 0 10 -262144 -1 -1 0
1;
#X obj 279 153 tgl 15 0 empty empty empty 17 7 0 10 -262144 -1 -1 0
1;
#X obj 301 152 tgl 15 0 empty empty empty 17 7 0 10 -262144 -1 -1 0
1;
#X obj 323 152 tgl 15 0 empty empty empty 17 7 0 10 -262144 -1 -1 0
1;
#X obj 259 154 tgl 15 0 empty empty empty 17 7 0 10 -262144 -1 -1 0
1;
#X obj 281 180 tgl 15 0 empty empty empty 17 7 0 10 -262144 -1 -1 0
1;
#X obj 303 179 tgl 15 0 empty empty empty 17 7 0 10 -262144 -1 -1 0
1;
#X obj 325 179 tgl 15 0 empty empty empty 17 7 0 10 -262144 -1 -1 0
1;
#X obj 261 181 tgl 15 0 empty empty empty 17 7 0 10 -262144 -1 -1 0
1;
#X obj 279 208 tgl 15 0 empty empty empty 17 7 0 10 -262144 -1 -1 0
1;
#X obj 301 207 tgl 15 0 empty empty empty 17 7 0 10 -262144 -1 -1 0
1;
#X obj 323 207 tgl 15 0 empty empty empty 17 7 0 10 -262144 -1 -1 0
1;
#X obj 259 209 tgl 15 0 empty empty empty 17 7 0 10 -262144 -1 -1 0
1;
#X obj 281 180 tgl 15 0 empty empty empty 17 7 0 10 -262144 -1 -1 0
1;
#X obj 303 179 tgl 15 0 empty empty empty 17 7 0 10 -262144 -1 -1 0
1;
#X obj 325 179 tgl 15 0 empty empty empty 17 7 0 10 -262144 -1 -1 0
1;
#X obj 261 181 tgl 15 0 empty empty empty 17 7 0 10 -262144 -1 -1 0
1;
#X obj 279 233 tgl 15 0 empty empty empty 17 7 0 10 -262144 -1 -1 0
1;
#X obj 301 232 tgl 15 0 empty empty empty 17 7 0 10 -262144 -1 -1 0
1;
#X obj 323 232 tgl 15 0 empty empty empty 17 7 0 10 -262144 -1 -1 0
1;
#X obj 259 234 tgl 15 0 empty empty empty 17 7 0 10 -262144 -1 -1 0
1;
#X obj 278 258 tgl 15 0 empty empty empty 17 7 0 10 -262144 -1 -1 0
1;
#X obj 300 257 tgl 15 0 empty empty empty 17 7 0 10 -262144 -1 -1 0
1;
#X obj 322 257 tgl 15 0 empty empty empty 17 7 0 10 -262144 -1 -1 0
1;
#X obj 300 281 tgl 15 0 empty empty empty 17 7 0 10 -262144 -1 -1 0
1;
#X obj 322 281 tgl 15 0 empty empty empty 17 7 0 10 -262144 -1 -1 0
1;
#X obj 258 283 tgl 15 0 empty empty empty 17 7 0 10 -262144 -1 -1 0
1;
#X obj 278 258 tgl 15 0 empty empty empty 17 7 0 10 -262144 -1 -1 0
1;
#X obj 300 257 tgl 15 0 empty empty empty 17 7 0 10 -262144 -1 -1 0
1;
#X obj 322 257 tgl 15 0 empty empty empty 17 7 0 10 -262144 -1 -1 0
1;
#X obj 277 304 tgl 15 0 empty empty empty 17 7 0 10 -262144 -1 -1 0
1;
#X obj 322 303 tgl 15 0 empty empty empty 17 7 0 10 -262144 -1 -1 0
1;
#X obj 257 305 tgl 15 0 empty empty empty 17 7 0 10 -262144 -1 -1 0
1;
#X obj 280 325 tgl 15 0 empty empty empty 17 7 0 10 -262144 -1 -1 0
1;
#X obj 303 324 tgl 15 0 empty empty empty 17 7 0 10 -262144 -1 -1 0
1;
#X obj 259 326 tgl 15 0 empty empty empty 17 7 0 10 -262144 -1 -1 0
1;
#X obj 187 258 tgl 15 0 empty empty empty 17 7 0 10 -262144 -1 -1 0
1;
#X obj 209 259 tgl 15 0 empty empty empty 17 7 0 10 -262144 -1 -1 0
1;
#X obj 233 259 tgl 15 0 empty empty empty 17 7 0 10 -262144 -1 -1 0
1;
#X obj 162 258 tgl 15 0 empty empty empty 17 7 0 10 -262144 -1 -1 0
1;
#X obj 187 282 tgl 15 0 empty empty empty 17 7 0 10 -262144 -1 -1 0
1;
#X obj 209 283 tgl 15 0 empty empty empty 17 7 0 10 -262144 -1 -1 0
1;
#X obj 233 283 tgl 15 0 empty empty empty 17 7 0 10 -262144 -1 -1 0
1;
#X obj 161 280 tgl 15 0 empty empty empty 17 7 0 10 -262144 -1 -1 0
1;
#X obj 187 305 tgl 15 0 empty empty empty 17 7 0 10 -262144 -1 -1 0
1;
#X obj 209 306 tgl 15 0 empty empty empty 17 7 0 10 -262144 -1 -1 0
1;
#X obj 233 306 tgl 15 0 empty empty empty 17 7 0 10 -262144 -1 -1 0
1;
#X obj 162 304 tgl 15 0 empty empty empty 17 7 0 10 -262144 -1 -1 0
1;
#X obj 188 326 tgl 15 0 empty empty empty 17 7 0 10 -262144 -1 -1 0
1;
#X obj 210 327 tgl 15 0 empty empty empty 17 7 0 10 -262144 -1 -1 0
1;
#X obj 234 327 tgl 15 0 empty empty empty 17 7 0 10 -262144 -1 -1 0
1;
#X obj 165 328 tgl 15 0 empty empty empty 17 7 0 10 -262144 -1 -1 0
1;
#X obj 139 258 tgl 15 0 empty empty empty 17 7 0 10 -262144 -1 -1 0
1;
#X obj 114 257 tgl 15 0 empty empty empty 17 7 0 10 -262144 -1 -1 0
1;
#X obj 137 279 tgl 15 0 empty empty empty 17 7 0 10 -262144 -1 -1 0
1;
#X obj 115 279 tgl 15 0 empty empty empty 17 7 0 10 -262144 -1 -1 0
1;
#X obj 138 303 tgl 15 0 empty empty empty 17 7 0 10 -262144 -1 -1 0
1;
#X obj 113 302 tgl 15 0 empty empty empty 17 7 0 10 -262144 -1 -1 0
1;
#X obj 138 326 tgl 15 0 empty empty empty 17 7 0 10 -262144 -1 -1 0
1;
#X obj 112 327 tgl 15 0 empty empty empty 17 7 0 10 -262144 -1 -1 0
1;
#X obj -310 878 outlet~;
#X obj -167 877 outlet~;
#X obj -43 877 outlet~;
#X obj 70 875 outlet~;
#X text -1084 67 10x10 Audio Router;
#X text -1085 86 tdh.util.10x10.audio.routing.matrix~;
#N canvas 426 73 622 303 gate~ 0;
#X obj 155 222 *~;
#X obj 230 227 *~;
#X obj 43 59 sel 0 1 2;
#X msg 44 93 0 0;
#X msg 78 93 1 0;
#X msg 113 93 0 1;
#X obj 68 125 unpack;
#X obj 170 197 line~;
#X obj 245 201 line~;
#X obj 157 19 inlet~;
#X obj 43 24 inlet;
#X obj 155 258 outlet~;
#X obj 170 166 pack f 20;
#X obj 248 164 pack f 20;
#X obj 230 256 outlet~;
#X text 227 23 This code is based (read: copied) entirely from Christopher
Ariza's abstration "mgGate2~" \, a part of the Martingale Library (https://code.google.com/p/martingale/).
;
#X connect 0 0 11 0;
#X connect 1 0 14 0;
#X connect 2 0 3 0;
#X connect 2 1 4 0;
#X connect 2 2 5 0;
#X connect 3 0 6 0;
#X connect 4 0 6 0;
#X connect 5 0 6 0;
#X connect 6 0 12 0;
#X connect 6 1 13 0;
#X connect 7 0 0 1;
#X connect 8 0 1 1;
#X connect 9 0 0 0;
#X connect 9 0 1 0;
#X connect 10 0 2 0;
#X connect 12 0 7 0;
#X connect 13 0 8 0;
#X restore -1117 491 pd gate~;
#N canvas 426 73 622 303 gate~ 0;
#X obj 155 222 *~;
#X obj 230 227 *~;
#X obj 43 59 sel 0 1 2;
#X msg 44 93 0 0;
#X msg 78 93 1 0;
#X msg 113 93 0 1;
#X obj 68 125 unpack;
#X obj 170 197 line~;
#X obj 245 201 line~;
#X obj 157 19 inlet~;
#X obj 43 24 inlet;
#X obj 155 258 outlet~;
#X obj 170 166 pack f 20;
#X obj 248 164 pack f 20;
#X obj 230 256 outlet~;
#X text 227 23 This code is based (read: copied) entirely from Christopher
Ariza's abstration "mgGate2~" \, a part of the Martingale Library (https://code.google.com/p/martingale/).
;
#X connect 0 0 11 0;
#X connect 1 0 14 0;
#X connect 2 0 3 0;
#X connect 2 1 4 0;
#X connect 2 2 5 0;
#X connect 3 0 6 0;
#X connect 4 0 6 0;
#X connect 5 0 6 0;
#X connect 6 0 12 0;
#X connect 6 1 13 0;
#X connect 7 0 0 1;
#X connect 8 0 1 1;
#X connect 9 0 0 0;
#X connect 9 0 1 0;
#X connect 10 0 2 0;
#X connect 12 0 7 0;
#X connect 13 0 8 0;
#X restore -1106 512 pd gate~;
#N canvas 426 73 622 303 gate~ 0;
#X obj 155 222 *~;
#X obj 230 227 *~;
#X obj 43 59 sel 0 1 2;
#X msg 44 93 0 0;
#X msg 78 93 1 0;
#X msg 113 93 0 1;
#X obj 68 125 unpack;
#X obj 170 197 line~;
#X obj 245 201 line~;
#X obj 157 19 inlet~;
#X obj 43 24 inlet;
#X obj 155 258 outlet~;
#X obj 170 166 pack f 20;
#X obj 248 164 pack f 20;
#X obj 230 256 outlet~;
#X text 227 23 This code is based (read: copied) entirely from Christopher
Ariza's abstration "mgGate2~" \, a part of the Martingale Library (https://code.google.com/p/martingale/).
;
#X connect 0 0 11 0;
#X connect 1 0 14 0;
#X connect 2 0 3 0;
#X connect 2 1 4 0;
#X connect 2 2 5 0;
#X connect 3 0 6 0;
#X connect 4 0 6 0;
#X connect 5 0 6 0;
#X connect 6 0 12 0;
#X connect 6 1 13 0;
#X connect 7 0 0 1;
#X connect 8 0 1 1;
#X connect 9 0 0 0;
#X connect 9 0 1 0;
#X connect 10 0 2 0;
#X connect 12 0 7 0;
#X connect 13 0 8 0;
#X restore -1095 532 pd gate~;
#N canvas 426 73 622 303 gate~ 0;
#X obj 155 222 *~;
#X obj 230 227 *~;
#X obj 43 59 sel 0 1 2;
#X msg 44 93 0 0;
#X msg 78 93 1 0;
#X msg 113 93 0 1;
#X obj 68 125 unpack;
#X obj 170 197 line~;
#X obj 245 201 line~;
#X obj 157 19 inlet~;
#X obj 43 24 inlet;
#X obj 155 258 outlet~;
#X obj 170 166 pack f 20;
#X obj 248 164 pack f 20;
#X obj 230 256 outlet~;
#X text 227 23 This code is based (read: copied) entirely from Christopher
Ariza's abstration "mgGate2~" \, a part of the Martingale Library (https://code.google.com/p/martingale/).
;
#X connect 0 0 11 0;
#X connect 1 0 14 0;
#X connect 2 0 3 0;
#X connect 2 1 4 0;
#X connect 2 2 5 0;
#X connect 3 0 6 0;
#X connect 4 0 6 0;
#X connect 5 0 6 0;
#X connect 6 0 12 0;
#X connect 6 1 13 0;
#X connect 7 0 0 1;
#X connect 8 0 1 1;
#X connect 9 0 0 0;
#X connect 9 0 1 0;
#X connect 10 0 2 0;
#X connect 12 0 7 0;
#X connect 13 0 8 0;
#X restore -1082 552 pd gate~;
#N canvas 426 73 622 303 gate~ 0;
#X obj 155 222 *~;
#X obj 230 227 *~;
#X obj 43 59 sel 0 1 2;
#X msg 44 93 0 0;
#X msg 78 93 1 0;
#X msg 113 93 0 1;
#X obj 68 125 unpack;
#X obj 170 197 line~;
#X obj 245 201 line~;
#X obj 157 19 inlet~;
#X obj 43 24 inlet;
#X obj 155 258 outlet~;
#X obj 170 166 pack f 20;
#X obj 248 164 pack f 20;
#X obj 230 256 outlet~;
#X text 227 23 This code is based (read: copied) entirely from Christopher
Ariza's abstration "mgGate2~" \, a part of the Martingale Library (https://code.google.com/p/martingale/).
;
#X connect 0 0 11 0;
#X connect 1 0 14 0;
#X connect 2 0 3 0;
#X connect 2 1 4 0;
#X connect 2 2 5 0;
#X connect 3 0 6 0;
#X connect 4 0 6 0;
#X connect 5 0 6 0;
#X connect 6 0 12 0;
#X connect 6 1 13 0;
#X connect 7 0 0 1;
#X connect 8 0 1 1;
#X connect 9 0 0 0;
#X connect 9 0 1 0;
#X connect 10 0 2 0;
#X connect 12 0 7 0;
#X connect 13 0 8 0;
#X restore -1058 592 pd gate~;
#N canvas 426 73 622 303 gate~ 0;
#X obj 155 222 *~;
#X obj 230 227 *~;
#X obj 43 59 sel 0 1 2;
#X msg 44 93 0 0;
#X msg 78 93 1 0;
#X msg 113 93 0 1;
#X obj 68 125 unpack;
#X obj 170 197 line~;
#X obj 245 201 line~;
#X obj 157 19 inlet~;
#X obj 43 24 inlet;
#X obj 155 258 outlet~;
#X obj 170 166 pack f 20;
#X obj 248 164 pack f 20;
#X obj 230 256 outlet~;
#X text 227 23 This code is based (read: copied) entirely from Christopher
Ariza's abstration "mgGate2~" \, a part of the Martingale Library (https://code.google.com/p/martingale/).
;
#X connect 0 0 11 0;
#X connect 1 0 14 0;
#X connect 2 0 3 0;
#X connect 2 1 4 0;
#X connect 2 2 5 0;
#X connect 3 0 6 0;
#X connect 4 0 6 0;
#X connect 5 0 6 0;
#X connect 6 0 12 0;
#X connect 6 1 13 0;
#X connect 7 0 0 1;
#X connect 8 0 1 1;
#X connect 9 0 0 0;
#X connect 9 0 1 0;
#X connect 10 0 2 0;
#X connect 12 0 7 0;
#X connect 13 0 8 0;
#X restore -1070 572 pd gate~;
#N canvas 426 73 622 303 gate~ 0;
#X obj 155 222 *~;
#X obj 230 227 *~;
#X obj 43 59 sel 0 1 2;
#X msg 44 93 0 0;
#X msg 78 93 1 0;
#X msg 113 93 0 1;
#X obj 68 125 unpack;
#X obj 170 197 line~;
#X obj 245 201 line~;
#X obj 157 19 inlet~;
#X obj 43 24 inlet;
#X obj 155 258 outlet~;
#X obj 170 166 pack f 20;
#X obj 248 164 pack f 20;
#X obj 230 256 outlet~;
#X text 227 23 This code is based (read: copied) entirely from Christopher
Ariza's abstration "mgGate2~" \, a part of the Martingale Library (https://code.google.com/p/martingale/).
;
#X connect 0 0 11 0;
#X connect 1 0 14 0;
#X connect 2 0 3 0;
#X connect 2 1 4 0;
#X connect 2 2 5 0;
#X connect 3 0 6 0;
#X connect 4 0 6 0;
#X connect 5 0 6 0;
#X connect 6 0 12 0;
#X connect 6 1 13 0;
#X connect 7 0 0 1;
#X connect 8 0 1 1;
#X connect 9 0 0 0;
#X connect 9 0 1 0;
#X connect 10 0 2 0;
#X connect 12 0 7 0;
#X connect 13 0 8 0;
#X restore -1047 613 pd gate~;
#N canvas 426 73 622 303 gate~ 0;
#X obj 155 222 *~;
#X obj 230 227 *~;
#X obj 43 59 sel 0 1 2;
#X msg 44 93 0 0;
#X msg 78 93 1 0;
#X msg 113 93 0 1;
#X obj 68 125 unpack;
#X obj 170 197 line~;
#X obj 245 201 line~;
#X obj 157 19 inlet~;
#X obj 43 24 inlet;
#X obj 155 258 outlet~;
#X obj 170 166 pack f 20;
#X obj 248 164 pack f 20;
#X obj 230 256 outlet~;
#X text 227 23 This code is based (read: copied) entirely from Christopher
Ariza's abstration "mgGate2~" \, a part of the Martingale Library (https://code.google.com/p/martingale/).
;
#X connect 0 0 11 0;
#X connect 1 0 14 0;
#X connect 2 0 3 0;
#X connect 2 1 4 0;
#X connect 2 2 5 0;
#X connect 3 0 6 0;
#X connect 4 0 6 0;
#X connect 5 0 6 0;
#X connect 6 0 12 0;
#X connect 6 1 13 0;
#X connect 7 0 0 1;
#X connect 8 0 1 1;
#X connect 9 0 0 0;
#X connect 9 0 1 0;
#X connect 10 0 2 0;
#X connect 12 0 7 0;
#X connect 13 0 8 0;
#X restore -1036 633 pd gate~;
#X text -1084 157 Based on "switch-matrix-6x6" by Thomas Mayer (ix.residuum.org)
and "mgGate2~" by Christopher Ariza (https://code.google.com/p/martingale/)
;
#N canvas 426 73 622 303 gate~ 0;
#X obj 155 222 *~;
#X obj 230 227 *~;
#X obj 43 59 sel 0 1 2;
#X msg 44 93 0 0;
#X msg 78 93 1 0;
#X msg 113 93 0 1;
#X obj 68 125 unpack;
#X obj 170 197 line~;
#X obj 245 201 line~;
#X obj 157 19 inlet~;
#X obj 43 24 inlet;
#X obj 155 258 outlet~;
#X obj 170 166 pack f 20;
#X obj 248 164 pack f 20;
#X obj 230 256 outlet~;
#X text 227 23 This code is based (read: copied) entirely from Christopher
Ariza's abstration "mgGate2~" \, a part of the Martingale Library (https://code.google.com/p/martingale/).
;
#X connect 0 0 11 0;
#X connect 1 0 14 0;
#X connect 2 0 3 0;
#X connect 2 1 4 0;
#X connect 2 2 5 0;
#X connect 3 0 6 0;
#X connect 4 0 6 0;
#X connect 5 0 6 0;
#X connect 6 0 12 0;
#X connect 6 1 13 0;
#X connect 7 0 0 1;
#X connect 8 0 1 1;
#X connect 9 0 0 0;
#X connect 9 0 1 0;
#X connect 10 0 2 0;
#X connect 12 0 7 0;
#X connect 13 0 8 0;
#X restore -1129 471 pd gate~;
#X obj -956 378 inlet~;
#N canvas 426 73 622 303 gate~ 0;
#X obj 155 222 *~;
#X obj 230 227 *~;
#X obj 43 59 sel 0 1 2;
#X msg 44 93 0 0;
#X msg 78 93 1 0;
#X msg 113 93 0 1;
#X obj 68 125 unpack;
#X obj 170 197 line~;
#X obj 245 201 line~;
#X obj 157 19 inlet~;
#X obj 43 24 inlet;
#X obj 155 258 outlet~;
#X obj 170 166 pack f 20;
#X obj 248 164 pack f 20;
#X obj 230 256 outlet~;
#X text 227 23 This code is based (read: copied) entirely from Christopher
Ariza's abstration "mgGate2~" \, a part of the Martingale Library (https://code.google.com/p/martingale/).
;
#X connect 0 0 11 0;
#X connect 1 0 14 0;
#X connect 2 0 3 0;
#X connect 2 1 4 0;
#X connect 2 2 5 0;
#X connect 3 0 6 0;
#X connect 4 0 6 0;
#X connect 5 0 6 0;
#X connect 6 0 12 0;
#X connect 6 1 13 0;
#X connect 7 0 0 1;
#X connect 8 0 1 1;
#X connect 9 0 0 0;
#X connect 9 0 1 0;
#X connect 10 0 2 0;
#X connect 12 0 7 0;
#X connect 13 0 8 0;
#X restore -981 492 pd gate~;
#N canvas 426 73 622 303 gate~ 0;
#X obj 155 222 *~;
#X obj 230 227 *~;
#X obj 43 59 sel 0 1 2;
#X msg 44 93 0 0;
#X msg 78 93 1 0;
#X msg 113 93 0 1;
#X obj 68 125 unpack;
#X obj 170 197 line~;
#X obj 245 201 line~;
#X obj 157 19 inlet~;
#X obj 43 24 inlet;
#X obj 155 258 outlet~;
#X obj 170 166 pack f 20;
#X obj 248 164 pack f 20;
#X obj 230 256 outlet~;
#X text 227 23 This code is based (read: copied) entirely from Christopher
Ariza's abstration "mgGate2~" \, a part of the Martingale Library (https://code.google.com/p/martingale/).
;
#X connect 0 0 11 0;
#X connect 1 0 14 0;
#X connect 2 0 3 0;
#X connect 2 1 4 0;
#X connect 2 2 5 0;
#X connect 3 0 6 0;
#X connect 4 0 6 0;
#X connect 5 0 6 0;
#X connect 6 0 12 0;
#X connect 6 1 13 0;
#X connect 7 0 0 1;
#X connect 8 0 1 1;
#X connect 9 0 0 0;
#X connect 9 0 1 0;
#X connect 10 0 2 0;
#X connect 12 0 7 0;
#X connect 13 0 8 0;
#X restore -1002 454 pd gate~;
#N canvas 426 73 622 303 gate~ 0;
#X obj 155 222 *~;
#X obj 230 227 *~;
#X obj 43 59 sel 0 1 2;
#X msg 44 93 0 0;
#X msg 78 93 1 0;
#X msg 113 93 0 1;
#X obj 68 125 unpack;
#X obj 170 197 line~;
#X obj 245 201 line~;
#X obj 157 19 inlet~;
#X obj 43 24 inlet;
#X obj 155 258 outlet~;
#X obj 170 166 pack f 20;
#X obj 248 164 pack f 20;
#X obj 230 256 outlet~;
#X text 227 23 This code is based (read: copied) entirely from Christopher
Ariza's abstration "mgGate2~" \, a part of the Martingale Library (https://code.google.com/p/martingale/).
;
#X connect 0 0 11 0;
#X connect 1 0 14 0;
#X connect 2 0 3 0;
#X connect 2 1 4 0;
#X connect 2 2 5 0;
#X connect 3 0 6 0;
#X connect 4 0 6 0;
#X connect 5 0 6 0;
#X connect 6 0 12 0;
#X connect 6 1 13 0;
#X connect 7 0 0 1;
#X connect 8 0 1 1;
#X connect 9 0 0 0;
#X connect 9 0 1 0;
#X connect 10 0 2 0;
#X connect 12 0 7 0;
#X connect 13 0 8 0;
#X restore -970 513 pd gate~;
#N canvas 426 73 622 303 gate~ 0;
#X obj 155 222 *~;
#X obj 230 227 *~;
#X obj 43 59 sel 0 1 2;
#X msg 44 93 0 0;
#X msg 78 93 1 0;
#X msg 113 93 0 1;
#X obj 68 125 unpack;
#X obj 170 197 line~;
#X obj 245 201 line~;
#X obj 157 19 inlet~;
#X obj 43 24 inlet;
#X obj 155 258 outlet~;
#X obj 170 166 pack f 20;
#X obj 248 164 pack f 20;
#X obj 230 256 outlet~;
#X text 227 23 This code is based (read: copied) entirely from Christopher
Ariza's abstration "mgGate2~" \, a part of the Martingale Library (https://code.google.com/p/martingale/).
;
#X connect 0 0 11 0;
#X connect 1 0 14 0;
#X connect 2 0 3 0;
#X connect 2 1 4 0;
#X connect 2 2 5 0;
#X connect 3 0 6 0;
#X connect 4 0 6 0;
#X connect 5 0 6 0;
#X connect 6 0 12 0;
#X connect 6 1 13 0;
#X connect 7 0 0 1;
#X connect 8 0 1 1;
#X connect 9 0 0 0;
#X connect 9 0 1 0;
#X connect 10 0 2 0;
#X connect 12 0 7 0;
#X connect 13 0 8 0;
#X restore -959 533 pd gate~;
#N canvas 426 73 622 303 gate~ 0;
#X obj 155 222 *~;
#X obj 230 227 *~;
#X obj 43 59 sel 0 1 2;
#X msg 44 93 0 0;
#X msg 78 93 1 0;
#X msg 113 93 0 1;
#X obj 68 125 unpack;
#X obj 170 197 line~;
#X obj 245 201 line~;
#X obj 157 19 inlet~;
#X obj 43 24 inlet;
#X obj 155 258 outlet~;
#X obj 170 166 pack f 20;
#X obj 248 164 pack f 20;
#X obj 230 256 outlet~;
#X text 227 23 This code is based (read: copied) entirely from Christopher
Ariza's abstration "mgGate2~" \, a part of the Martingale Library (https://code.google.com/p/martingale/).
;
#X connect 0 0 11 0;
#X connect 1 0 14 0;
#X connect 2 0 3 0;
#X connect 2 1 4 0;
#X connect 2 2 5 0;
#X connect 3 0 6 0;
#X connect 4 0 6 0;
#X connect 5 0 6 0;
#X connect 6 0 12 0;
#X connect 6 1 13 0;
#X connect 7 0 0 1;
#X connect 8 0 1 1;
#X connect 9 0 0 0;
#X connect 9 0 1 0;
#X connect 10 0 2 0;
#X connect 12 0 7 0;
#X connect 13 0 8 0;
#X restore -946 553 pd gate~;
#N canvas 426 73 622 303 gate~ 0;
#X obj 155 222 *~;
#X obj 230 227 *~;
#X obj 43 59 sel 0 1 2;
#X msg 44 93 0 0;
#X msg 78 93 1 0;
#X msg 113 93 0 1;
#X obj 68 125 unpack;
#X obj 170 197 line~;
#X obj 245 201 line~;
#X obj 157 19 inlet~;
#X obj 43 24 inlet;
#X obj 155 258 outlet~;
#X obj 170 166 pack f 20;
#X obj 248 164 pack f 20;
#X obj 230 256 outlet~;
#X text 227 23 This code is based (read: copied) entirely from Christopher
Ariza's abstration "mgGate2~" \, a part of the Martingale Library (https://code.google.com/p/martingale/).
;
#X connect 0 0 11 0;
#X connect 1 0 14 0;
#X connect 2 0 3 0;
#X connect 2 1 4 0;
#X connect 2 2 5 0;
#X connect 3 0 6 0;
#X connect 4 0 6 0;
#X connect 5 0 6 0;
#X connect 6 0 12 0;
#X connect 6 1 13 0;
#X connect 7 0 0 1;
#X connect 8 0 1 1;
#X connect 9 0 0 0;
#X connect 9 0 1 0;
#X connect 10 0 2 0;
#X connect 12 0 7 0;
#X connect 13 0 8 0;
#X restore -922 593 pd gate~;
#N canvas 426 73 622 303 gate~ 0;
#X obj 155 222 *~;
#X obj 230 227 *~;
#X obj 43 59 sel 0 1 2;
#X msg 44 93 0 0;
#X msg 78 93 1 0;
#X msg 113 93 0 1;
#X obj 68 125 unpack;
#X obj 170 197 line~;
#X obj 245 201 line~;
#X obj 157 19 inlet~;
#X obj 43 24 inlet;
#X obj 155 258 outlet~;
#X obj 170 166 pack f 20;
#X obj 248 164 pack f 20;
#X obj 230 256 outlet~;
#X text 227 23 This code is based (read: copied) entirely from Christopher
Ariza's abstration "mgGate2~" \, a part of the Martingale Library (https://code.google.com/p/martingale/).
;
#X connect 0 0 11 0;
#X connect 1 0 14 0;
#X connect 2 0 3 0;
#X connect 2 1 4 0;
#X connect 2 2 5 0;
#X connect 3 0 6 0;
#X connect 4 0 6 0;
#X connect 5 0 6 0;
#X connect 6 0 12 0;
#X connect 6 1 13 0;
#X connect 7 0 0 1;
#X connect 8 0 1 1;
#X connect 9 0 0 0;
#X connect 9 0 1 0;
#X connect 10 0 2 0;
#X connect 12 0 7 0;
#X connect 13 0 8 0;
#X restore -934 573 pd gate~;
#N canvas 426 73 622 303 gate~ 0;
#X obj 155 222 *~;
#X obj 230 227 *~;
#X obj 43 59 sel 0 1 2;
#X msg 44 93 0 0;
#X msg 78 93 1 0;
#X msg 113 93 0 1;
#X obj 68 125 unpack;
#X obj 170 197 line~;
#X obj 245 201 line~;
#X obj 157 19 inlet~;
#X obj 43 24 inlet;
#X obj 155 258 outlet~;
#X obj 170 166 pack f 20;
#X obj 248 164 pack f 20;
#X obj 230 256 outlet~;
#X text 227 23 This code is based (read: copied) entirely from Christopher
Ariza's abstration "mgGate2~" \, a part of the Martingale Library (https://code.google.com/p/martingale/).
;
#X connect 0 0 11 0;
#X connect 1 0 14 0;
#X connect 2 0 3 0;
#X connect 2 1 4 0;
#X connect 2 2 5 0;
#X connect 3 0 6 0;
#X connect 4 0 6 0;
#X connect 5 0 6 0;
#X connect 6 0 12 0;
#X connect 6 1 13 0;
#X connect 7 0 0 1;
#X connect 8 0 1 1;
#X connect 9 0 0 0;
#X connect 9 0 1 0;
#X connect 10 0 2 0;
#X connect 12 0 7 0;
#X connect 13 0 8 0;
#X restore -911 614 pd gate~;
#N canvas 426 73 622 303 gate~ 0;
#X obj 155 222 *~;
#X obj 230 227 *~;
#X obj 43 59 sel 0 1 2;
#X msg 44 93 0 0;
#X msg 78 93 1 0;
#X msg 113 93 0 1;
#X obj 68 125 unpack;
#X obj 170 197 line~;
#X obj 245 201 line~;
#X obj 157 19 inlet~;
#X obj 43 24 inlet;
#X obj 155 258 outlet~;
#X obj 170 166 pack f 20;
#X obj 248 164 pack f 20;
#X obj 230 256 outlet~;
#X text 227 23 This code is based (read: copied) entirely from Christopher
Ariza's abstration "mgGate2~" \, a part of the Martingale Library (https://code.google.com/p/martingale/).
;
#X connect 0 0 11 0;
#X connect 1 0 14 0;
#X connect 2 0 3 0;
#X connect 2 1 4 0;
#X connect 2 2 5 0;
#X connect 3 0 6 0;
#X connect 4 0 6 0;
#X connect 5 0 6 0;
#X connect 6 0 12 0;
#X connect 6 1 13 0;
#X connect 7 0 0 1;
#X connect 8 0 1 1;
#X connect 9 0 0 0;
#X connect 9 0 1 0;
#X connect 10 0 2 0;
#X connect 12 0 7 0;
#X connect 13 0 8 0;
#X restore -900 634 pd gate~;
#X obj -828 377 inlet~;
#N canvas 426 73 622 303 gate~ 0;
#X obj 155 222 *~;
#X obj 230 227 *~;
#X obj 43 59 sel 0 1 2;
#X msg 44 93 0 0;
#X msg 78 93 1 0;
#X msg 113 93 0 1;
#X obj 68 125 unpack;
#X obj 170 197 line~;
#X obj 245 201 line~;
#X obj 157 19 inlet~;
#X obj 43 24 inlet;
#X obj 155 258 outlet~;
#X obj 170 166 pack f 20;
#X obj 248 164 pack f 20;
#X obj 230 256 outlet~;
#X text 227 23 This code is based (read: copied) entirely from Christopher
Ariza's abstration "mgGate2~" \, a part of the Martingale Library (https://code.google.com/p/martingale/).
;
#X connect 0 0 11 0;
#X connect 1 0 14 0;
#X connect 2 0 3 0;
#X connect 2 1 4 0;
#X connect 2 2 5 0;
#X connect 3 0 6 0;
#X connect 4 0 6 0;
#X connect 5 0 6 0;
#X connect 6 0 12 0;
#X connect 6 1 13 0;
#X connect 7 0 0 1;
#X connect 8 0 1 1;
#X connect 9 0 0 0;
#X connect 9 0 1 0;
#X connect 10 0 2 0;
#X connect 12 0 7 0;
#X connect 13 0 8 0;
#X restore -873 450 pd gate~;
#N canvas 426 73 622 303 gate~ 0;
#X obj 155 222 *~;
#X obj 230 227 *~;
#X obj 43 59 sel 0 1 2;
#X msg 44 93 0 0;
#X msg 78 93 1 0;
#X msg 113 93 0 1;
#X obj 68 125 unpack;
#X obj 170 197 line~;
#X obj 245 201 line~;
#X obj 157 19 inlet~;
#X obj 43 24 inlet;
#X obj 155 258 outlet~;
#X obj 170 166 pack f 20;
#X obj 248 164 pack f 20;
#X obj 230 256 outlet~;
#X text 227 23 This code is based (read: copied) entirely from Christopher
Ariza's abstration "mgGate2~" \, a part of the Martingale Library (https://code.google.com/p/martingale/).
;
#X connect 0 0 11 0;
#X connect 1 0 14 0;
#X connect 2 0 3 0;
#X connect 2 1 4 0;
#X connect 2 2 5 0;
#X connect 3 0 6 0;
#X connect 4 0 6 0;
#X connect 5 0 6 0;
#X connect 6 0 12 0;
#X connect 6 1 13 0;
#X connect 7 0 0 1;
#X connect 8 0 1 1;
#X connect 9 0 0 0;
#X connect 9 0 1 0;
#X connect 10 0 2 0;
#X connect 12 0 7 0;
#X connect 13 0 8 0;
#X restore -842 512 pd gate~;
#N canvas 426 73 622 303 gate~ 0;
#X obj 155 222 *~;
#X obj 230 227 *~;
#X obj 43 59 sel 0 1 2;
#X msg 44 93 0 0;
#X msg 78 93 1 0;
#X msg 113 93 0 1;
#X obj 68 125 unpack;
#X obj 170 197 line~;
#X obj 245 201 line~;
#X obj 157 19 inlet~;
#X obj 43 24 inlet;
#X obj 155 258 outlet~;
#X obj 170 166 pack f 20;
#X obj 248 164 pack f 20;
#X obj 230 256 outlet~;
#X text 227 23 This code is based (read: copied) entirely from Christopher
Ariza's abstration "mgGate2~" \, a part of the Martingale Library (https://code.google.com/p/martingale/).
;
#X connect 0 0 11 0;
#X connect 1 0 14 0;
#X connect 2 0 3 0;
#X connect 2 1 4 0;
#X connect 2 2 5 0;
#X connect 3 0 6 0;
#X connect 4 0 6 0;
#X connect 5 0 6 0;
#X connect 6 0 12 0;
#X connect 6 1 13 0;
#X connect 7 0 0 1;
#X connect 8 0 1 1;
#X connect 9 0 0 0;
#X connect 9 0 1 0;
#X connect 10 0 2 0;
#X connect 12 0 7 0;
#X connect 13 0 8 0;
#X restore -831 532 pd gate~;
#N canvas 426 73 622 303 gate~ 0;
#X obj 155 222 *~;
#X obj 230 227 *~;
#X obj 43 59 sel 0 1 2;
#X msg 44 93 0 0;
#X msg 78 93 1 0;
#X msg 113 93 0 1;
#X obj 68 125 unpack;
#X obj 170 197 line~;
#X obj 245 201 line~;
#X obj 157 19 inlet~;
#X obj 43 24 inlet;
#X obj 155 258 outlet~;
#X obj 170 166 pack f 20;
#X obj 248 164 pack f 20;
#X obj 230 256 outlet~;
#X text 227 23 This code is based (read: copied) entirely from Christopher
Ariza's abstration "mgGate2~" \, a part of the Martingale Library (https://code.google.com/p/martingale/).
;
#X connect 0 0 11 0;
#X connect 1 0 14 0;
#X connect 2 0 3 0;
#X connect 2 1 4 0;
#X connect 2 2 5 0;
#X connect 3 0 6 0;
#X connect 4 0 6 0;
#X connect 5 0 6 0;
#X connect 6 0 12 0;
#X connect 6 1 13 0;
#X connect 7 0 0 1;
#X connect 8 0 1 1;
#X connect 9 0 0 0;
#X connect 9 0 1 0;
#X connect 10 0 2 0;
#X connect 12 0 7 0;
#X connect 13 0 8 0;
#X restore -812 552 pd gate~;
#N canvas 426 73 622 303 gate~ 0;
#X obj 155 222 *~;
#X obj 230 227 *~;
#X obj 43 59 sel 0 1 2;
#X msg 44 93 0 0;
#X msg 78 93 1 0;
#X msg 113 93 0 1;
#X obj 68 125 unpack;
#X obj 170 197 line~;
#X obj 245 201 line~;
#X obj 157 19 inlet~;
#X obj 43 24 inlet;
#X obj 155 258 outlet~;
#X obj 170 166 pack f 20;
#X obj 248 164 pack f 20;
#X obj 230 256 outlet~;
#X text 227 23 This code is based (read: copied) entirely from Christopher
Ariza's abstration "mgGate2~" \, a part of the Martingale Library (https://code.google.com/p/martingale/).
;
#X connect 0 0 11 0;
#X connect 1 0 14 0;
#X connect 2 0 3 0;
#X connect 2 1 4 0;
#X connect 2 2 5 0;
#X connect 3 0 6 0;
#X connect 4 0 6 0;
#X connect 5 0 6 0;
#X connect 6 0 12 0;
#X connect 6 1 13 0;
#X connect 7 0 0 1;
#X connect 8 0 1 1;
#X connect 9 0 0 0;
#X connect 9 0 1 0;
#X connect 10 0 2 0;
#X connect 12 0 7 0;
#X connect 13 0 8 0;
#X restore -794 592 pd gate~;
#N canvas 426 73 622 303 gate~ 0;
#X obj 155 222 *~;
#X obj 230 227 *~;
#X obj 43 59 sel 0 1 2;
#X msg 44 93 0 0;
#X msg 78 93 1 0;
#X msg 113 93 0 1;
#X obj 68 125 unpack;
#X obj 170 197 line~;
#X obj 245 201 line~;
#X obj 157 19 inlet~;
#X obj 43 24 inlet;
#X obj 155 258 outlet~;
#X obj 170 166 pack f 20;
#X obj 248 164 pack f 20;
#X obj 230 256 outlet~;
#X text 227 23 This code is based (read: copied) entirely from Christopher
Ariza's abstration "mgGate2~" \, a part of the Martingale Library (https://code.google.com/p/martingale/).
;
#X connect 0 0 11 0;
#X connect 1 0 14 0;
#X connect 2 0 3 0;
#X connect 2 1 4 0;
#X connect 2 2 5 0;
#X connect 3 0 6 0;
#X connect 4 0 6 0;
#X connect 5 0 6 0;
#X connect 6 0 12 0;
#X connect 6 1 13 0;
#X connect 7 0 0 1;
#X connect 8 0 1 1;
#X connect 9 0 0 0;
#X connect 9 0 1 0;
#X connect 10 0 2 0;
#X connect 12 0 7 0;
#X connect 13 0 8 0;
#X restore -806 572 pd gate~;
#N canvas 426 73 622 303 gate~ 0;
#X obj 155 222 *~;
#X obj 230 227 *~;
#X obj 43 59 sel 0 1 2;
#X msg 44 93 0 0;
#X msg 78 93 1 0;
#X msg 113 93 0 1;
#X obj 68 125 unpack;
#X obj 170 197 line~;
#X obj 245 201 line~;
#X obj 157 19 inlet~;
#X obj 43 24 inlet;
#X obj 155 258 outlet~;
#X obj 170 166 pack f 20;
#X obj 248 164 pack f 20;
#X obj 230 256 outlet~;
#X text 227 23 This code is based (read: copied) entirely from Christopher
Ariza's abstration "mgGate2~" \, a part of the Martingale Library (https://code.google.com/p/martingale/).
;
#X connect 0 0 11 0;
#X connect 1 0 14 0;
#X connect 2 0 3 0;
#X connect 2 1 4 0;
#X connect 2 2 5 0;
#X connect 3 0 6 0;
#X connect 4 0 6 0;
#X connect 5 0 6 0;
#X connect 6 0 12 0;
#X connect 6 1 13 0;
#X connect 7 0 0 1;
#X connect 8 0 1 1;
#X connect 9 0 0 0;
#X connect 9 0 1 0;
#X connect 10 0 2 0;
#X connect 12 0 7 0;
#X connect 13 0 8 0;
#X restore -783 613 pd gate~;
#N canvas 426 73 622 303 gate~ 0;
#X obj 155 222 *~;
#X obj 230 227 *~;
#X obj 43 59 sel 0 1 2;
#X msg 44 93 0 0;
#X msg 78 93 1 0;
#X msg 113 93 0 1;
#X obj 68 125 unpack;
#X obj 170 197 line~;
#X obj 245 201 line~;
#X obj 157 19 inlet~;
#X obj 43 24 inlet;
#X obj 155 258 outlet~;
#X obj 170 166 pack f 20;
#X obj 248 164 pack f 20;
#X obj 230 256 outlet~;
#X text 227 23 This code is based (read: copied) entirely from Christopher
Ariza's abstration "mgGate2~" \, a part of the Martingale Library (https://code.google.com/p/martingale/).
;
#X connect 0 0 11 0;
#X connect 1 0 14 0;
#X connect 2 0 3 0;
#X connect 2 1 4 0;
#X connect 2 2 5 0;
#X connect 3 0 6 0;
#X connect 4 0 6 0;
#X connect 5 0 6 0;
#X connect 6 0 12 0;
#X connect 6 1 13 0;
#X connect 7 0 0 1;
#X connect 8 0 1 1;
#X connect 9 0 0 0;
#X connect 9 0 1 0;
#X connect 10 0 2 0;
#X connect 12 0 7 0;
#X connect 13 0 8 0;
#X restore -772 633 pd gate~;
#N canvas 426 73 622 303 gate~ 0;
#X obj 155 222 *~;
#X obj 230 227 *~;
#X obj 43 59 sel 0 1 2;
#X msg 44 93 0 0;
#X msg 78 93 1 0;
#X msg 113 93 0 1;
#X obj 68 125 unpack;
#X obj 170 197 line~;
#X obj 245 201 line~;
#X obj 157 19 inlet~;
#X obj 43 24 inlet;
#X obj 155 258 outlet~;
#X obj 170 166 pack f 20;
#X obj 248 164 pack f 20;
#X obj 230 256 outlet~;
#X text 227 23 This code is based (read: copied) entirely from Christopher
Ariza's abstration "mgGate2~" \, a part of the Martingale Library (https://code.google.com/p/martingale/).
;
#X connect 0 0 11 0;
#X connect 1 0 14 0;
#X connect 2 0 3 0;
#X connect 2 1 4 0;
#X connect 2 2 5 0;
#X connect 3 0 6 0;
#X connect 4 0 6 0;
#X connect 5 0 6 0;
#X connect 6 0 12 0;
#X connect 6 1 13 0;
#X connect 7 0 0 1;
#X connect 8 0 1 1;
#X connect 9 0 0 0;
#X connect 9 0 1 0;
#X connect 10 0 2 0;
#X connect 12 0 7 0;
#X connect 13 0 8 0;
#X restore -865 471 pd gate~;
#X obj -698 375 inlet~;
#N canvas 426 73 622 303 gate~ 0;
#X obj 155 222 *~;
#X obj 230 227 *~;
#X obj 43 59 sel 0 1 2;
#X msg 44 93 0 0;
#X msg 78 93 1 0;
#X msg 113 93 0 1;
#X obj 68 125 unpack;
#X obj 170 197 line~;
#X obj 245 201 line~;
#X obj 157 19 inlet~;
#X obj 43 24 inlet;
#X obj 155 258 outlet~;
#X obj 170 166 pack f 20;
#X obj 248 164 pack f 20;
#X obj 230 256 outlet~;
#X text 227 23 This code is based (read: copied) entirely from Christopher
Ariza's abstration "mgGate2~" \, a part of the Martingale Library (https://code.google.com/p/martingale/).
;
#X connect 0 0 11 0;
#X connect 1 0 14 0;
#X connect 2 0 3 0;
#X connect 2 1 4 0;
#X connect 2 2 5 0;
#X connect 3 0 6 0;
#X connect 4 0 6 0;
#X connect 5 0 6 0;
#X connect 6 0 12 0;
#X connect 6 1 13 0;
#X connect 7 0 0 1;
#X connect 8 0 1 1;
#X connect 9 0 0 0;
#X connect 9 0 1 0;
#X connect 10 0 2 0;
#X connect 12 0 7 0;
#X connect 13 0 8 0;
#X restore -723 489 pd gate~;
#N canvas 426 73 622 303 gate~ 0;
#X obj 155 222 *~;
#X obj 230 227 *~;
#X obj 43 59 sel 0 1 2;
#X msg 44 93 0 0;
#X msg 78 93 1 0;
#X msg 113 93 0 1;
#X obj 68 125 unpack;
#X obj 170 197 line~;
#X obj 245 201 line~;
#X obj 157 19 inlet~;
#X obj 43 24 inlet;
#X obj 155 258 outlet~;
#X obj 170 166 pack f 20;
#X obj 248 164 pack f 20;
#X obj 230 256 outlet~;
#X text 227 23 This code is based (read: copied) entirely from Christopher
Ariza's abstration "mgGate2~" \, a part of the Martingale Library (https://code.google.com/p/martingale/).
;
#X connect 0 0 11 0;
#X connect 1 0 14 0;
#X connect 2 0 3 0;
#X connect 2 1 4 0;
#X connect 2 2 5 0;
#X connect 3 0 6 0;
#X connect 4 0 6 0;
#X connect 5 0 6 0;
#X connect 6 0 12 0;
#X connect 6 1 13 0;
#X connect 7 0 0 1;
#X connect 8 0 1 1;
#X connect 9 0 0 0;
#X connect 9 0 1 0;
#X connect 10 0 2 0;
#X connect 12 0 7 0;
#X connect 13 0 8 0;
#X restore -743 448 pd gate~;
#N canvas 426 73 622 303 gate~ 0;
#X obj 155 222 *~;
#X obj 230 227 *~;
#X obj 43 59 sel 0 1 2;
#X msg 44 93 0 0;
#X msg 78 93 1 0;
#X msg 113 93 0 1;
#X obj 68 125 unpack;
#X obj 170 197 line~;
#X obj 245 201 line~;
#X obj 157 19 inlet~;
#X obj 43 24 inlet;
#X obj 155 258 outlet~;
#X obj 170 166 pack f 20;
#X obj 248 164 pack f 20;
#X obj 230 256 outlet~;
#X text 227 23 This code is based (read: copied) entirely from Christopher
Ariza's abstration "mgGate2~" \, a part of the Martingale Library (https://code.google.com/p/martingale/).
;
#X connect 0 0 11 0;
#X connect 1 0 14 0;
#X connect 2 0 3 0;
#X connect 2 1 4 0;
#X connect 2 2 5 0;
#X connect 3 0 6 0;
#X connect 4 0 6 0;
#X connect 5 0 6 0;
#X connect 6 0 12 0;
#X connect 6 1 13 0;
#X connect 7 0 0 1;
#X connect 8 0 1 1;
#X connect 9 0 0 0;
#X connect 9 0 1 0;
#X connect 10 0 2 0;
#X connect 12 0 7 0;
#X connect 13 0 8 0;
#X restore -701 530 pd gate~;
#N canvas 426 73 622 303 gate~ 0;
#X obj 155 222 *~;
#X obj 230 227 *~;
#X obj 43 59 sel 0 1 2;
#X msg 44 93 0 0;
#X msg 78 93 1 0;
#X msg 113 93 0 1;
#X obj 68 125 unpack;
#X obj 170 197 line~;
#X obj 245 201 line~;
#X obj 157 19 inlet~;
#X obj 43 24 inlet;
#X obj 155 258 outlet~;
#X obj 170 166 pack f 20;
#X obj 248 164 pack f 20;
#X obj 230 256 outlet~;
#X text 227 23 This code is based (read: copied) entirely from Christopher
Ariza's abstration "mgGate2~" \, a part of the Martingale Library (https://code.google.com/p/martingale/).
;
#X connect 0 0 11 0;
#X connect 1 0 14 0;
#X connect 2 0 3 0;
#X connect 2 1 4 0;
#X connect 2 2 5 0;
#X connect 3 0 6 0;
#X connect 4 0 6 0;
#X connect 5 0 6 0;
#X connect 6 0 12 0;
#X connect 6 1 13 0;
#X connect 7 0 0 1;
#X connect 8 0 1 1;
#X connect 9 0 0 0;
#X connect 9 0 1 0;
#X connect 10 0 2 0;
#X connect 12 0 7 0;
#X connect 13 0 8 0;
#X restore -688 550 pd gate~;
#N canvas 426 73 622 303 gate~ 0;
#X obj 155 222 *~;
#X obj 230 227 *~;
#X obj 43 59 sel 0 1 2;
#X msg 44 93 0 0;
#X msg 78 93 1 0;
#X msg 113 93 0 1;
#X obj 68 125 unpack;
#X obj 170 197 line~;
#X obj 245 201 line~;
#X obj 157 19 inlet~;
#X obj 43 24 inlet;
#X obj 155 258 outlet~;
#X obj 170 166 pack f 20;
#X obj 248 164 pack f 20;
#X obj 230 256 outlet~;
#X text 227 23 This code is based (read: copied) entirely from Christopher
Ariza's abstration "mgGate2~" \, a part of the Martingale Library (https://code.google.com/p/martingale/).
;
#X connect 0 0 11 0;
#X connect 1 0 14 0;
#X connect 2 0 3 0;
#X connect 2 1 4 0;
#X connect 2 2 5 0;
#X connect 3 0 6 0;
#X connect 4 0 6 0;
#X connect 5 0 6 0;
#X connect 6 0 12 0;
#X connect 6 1 13 0;
#X connect 7 0 0 1;
#X connect 8 0 1 1;
#X connect 9 0 0 0;
#X connect 9 0 1 0;
#X connect 10 0 2 0;
#X connect 12 0 7 0;
#X connect 13 0 8 0;
#X restore -664 590 pd gate~;
#N canvas 426 73 622 303 gate~ 0;
#X obj 155 222 *~;
#X obj 230 227 *~;
#X obj 43 59 sel 0 1 2;
#X msg 44 93 0 0;
#X msg 78 93 1 0;
#X msg 113 93 0 1;
#X obj 68 125 unpack;
#X obj 170 197 line~;
#X obj 245 201 line~;
#X obj 157 19 inlet~;
#X obj 43 24 inlet;
#X obj 155 258 outlet~;
#X obj 170 166 pack f 20;
#X obj 248 164 pack f 20;
#X obj 230 256 outlet~;
#X text 227 23 This code is based (read: copied) entirely from Christopher
Ariza's abstration "mgGate2~" \, a part of the Martingale Library (https://code.google.com/p/martingale/).
;
#X connect 0 0 11 0;
#X connect 1 0 14 0;
#X connect 2 0 3 0;
#X connect 2 1 4 0;
#X connect 2 2 5 0;
#X connect 3 0 6 0;
#X connect 4 0 6 0;
#X connect 5 0 6 0;
#X connect 6 0 12 0;
#X connect 6 1 13 0;
#X connect 7 0 0 1;
#X connect 8 0 1 1;
#X connect 9 0 0 0;
#X connect 9 0 1 0;
#X connect 10 0 2 0;
#X connect 12 0 7 0;
#X connect 13 0 8 0;
#X restore -676 570 pd gate~;
#N canvas 426 73 622 303 gate~ 0;
#X obj 155 222 *~;
#X obj 230 227 *~;
#X obj 43 59 sel 0 1 2;
#X msg 44 93 0 0;
#X msg 78 93 1 0;
#X msg 113 93 0 1;
#X obj 68 125 unpack;
#X obj 170 197 line~;
#X obj 245 201 line~;
#X obj 157 19 inlet~;
#X obj 43 24 inlet;
#X obj 155 258 outlet~;
#X obj 170 166 pack f 20;
#X obj 248 164 pack f 20;
#X obj 230 256 outlet~;
#X text 227 23 This code is based (read: copied) entirely from Christopher
Ariza's abstration "mgGate2~" \, a part of the Martingale Library (https://code.google.com/p/martingale/).
;
#X connect 0 0 11 0;
#X connect 1 0 14 0;
#X connect 2 0 3 0;
#X connect 2 1 4 0;
#X connect 2 2 5 0;
#X connect 3 0 6 0;
#X connect 4 0 6 0;
#X connect 5 0 6 0;
#X connect 6 0 12 0;
#X connect 6 1 13 0;
#X connect 7 0 0 1;
#X connect 8 0 1 1;
#X connect 9 0 0 0;
#X connect 9 0 1 0;
#X connect 10 0 2 0;
#X connect 12 0 7 0;
#X connect 13 0 8 0;
#X restore -653 611 pd gate~;
#N canvas 426 73 622 303 gate~ 0;
#X obj 155 222 *~;
#X obj 230 227 *~;
#X obj 43 59 sel 0 1 2;
#X msg 44 93 0 0;
#X msg 78 93 1 0;
#X msg 113 93 0 1;
#X obj 68 125 unpack;
#X obj 170 197 line~;
#X obj 245 201 line~;
#X obj 157 19 inlet~;
#X obj 43 24 inlet;
#X obj 155 258 outlet~;
#X obj 170 166 pack f 20;
#X obj 248 164 pack f 20;
#X obj 230 256 outlet~;
#X text 227 23 This code is based (read: copied) entirely from Christopher
Ariza's abstration "mgGate2~" \, a part of the Martingale Library (https://code.google.com/p/martingale/).
;
#X connect 0 0 11 0;
#X connect 1 0 14 0;
#X connect 2 0 3 0;
#X connect 2 1 4 0;
#X connect 2 2 5 0;
#X connect 3 0 6 0;
#X connect 4 0 6 0;
#X connect 5 0 6 0;
#X connect 6 0 12 0;
#X connect 6 1 13 0;
#X connect 7 0 0 1;
#X connect 8 0 1 1;
#X connect 9 0 0 0;
#X connect 9 0 1 0;
#X connect 10 0 2 0;
#X connect 12 0 7 0;
#X connect 13 0 8 0;
#X restore -642 631 pd gate~;
#N canvas 426 73 622 303 gate~ 0;
#X obj 155 222 *~;
#X obj 230 227 *~;
#X obj 43 59 sel 0 1 2;
#X msg 44 93 0 0;
#X msg 78 93 1 0;
#X msg 113 93 0 1;
#X obj 68 125 unpack;
#X obj 170 197 line~;
#X obj 245 201 line~;
#X obj 157 19 inlet~;
#X obj 43 24 inlet;
#X obj 155 258 outlet~;
#X obj 170 166 pack f 20;
#X obj 248 164 pack f 20;
#X obj 230 256 outlet~;
#X text 227 23 This code is based (read: copied) entirely from Christopher
Ariza's abstration "mgGate2~" \, a part of the Martingale Library (https://code.google.com/p/martingale/).
;
#X connect 0 0 11 0;
#X connect 1 0 14 0;
#X connect 2 0 3 0;
#X connect 2 1 4 0;
#X connect 2 2 5 0;
#X connect 3 0 6 0;
#X connect 4 0 6 0;
#X connect 5 0 6 0;
#X connect 6 0 12 0;
#X connect 6 1 13 0;
#X connect 7 0 0 1;
#X connect 8 0 1 1;
#X connect 9 0 0 0;
#X connect 9 0 1 0;
#X connect 10 0 2 0;
#X connect 12 0 7 0;
#X connect 13 0 8 0;
#X restore -735 469 pd gate~;
#X obj -584 373 inlet~;
#N canvas 426 73 622 303 gate~ 0;
#X obj 155 222 *~;
#X obj 230 227 *~;
#X obj 43 59 sel 0 1 2;
#X msg 44 93 0 0;
#X msg 78 93 1 0;
#X msg 113 93 0 1;
#X obj 68 125 unpack;
#X obj 170 197 line~;
#X obj 245 201 line~;
#X obj 157 19 inlet~;
#X obj 43 24 inlet;
#X obj 155 258 outlet~;
#X obj 170 166 pack f 20;
#X obj 248 164 pack f 20;
#X obj 230 256 outlet~;
#X text 227 23 This code is based (read: copied) entirely from Christopher
Ariza's abstration "mgGate2~" \, a part of the Martingale Library (https://code.google.com/p/martingale/).
;
#X connect 0 0 11 0;
#X connect 1 0 14 0;
#X connect 2 0 3 0;
#X connect 2 1 4 0;
#X connect 2 2 5 0;
#X connect 3 0 6 0;
#X connect 4 0 6 0;
#X connect 5 0 6 0;
#X connect 6 0 12 0;
#X connect 6 1 13 0;
#X connect 7 0 0 1;
#X connect 8 0 1 1;
#X connect 9 0 0 0;
#X connect 9 0 1 0;
#X connect 10 0 2 0;
#X connect 12 0 7 0;
#X connect 13 0 8 0;
#X restore -609 487 pd gate~;
#N canvas 426 73 622 303 gate~ 0;
#X obj 155 222 *~;
#X obj 230 227 *~;
#X obj 43 59 sel 0 1 2;
#X msg 44 93 0 0;
#X msg 78 93 1 0;
#X msg 113 93 0 1;
#X obj 68 125 unpack;
#X obj 170 197 line~;
#X obj 245 201 line~;
#X obj 157 19 inlet~;
#X obj 43 24 inlet;
#X obj 155 258 outlet~;
#X obj 170 166 pack f 20;
#X obj 248 164 pack f 20;
#X obj 230 256 outlet~;
#X text 227 23 This code is based (read: copied) entirely from Christopher
Ariza's abstration "mgGate2~" \, a part of the Martingale Library (https://code.google.com/p/martingale/).
;
#X connect 0 0 11 0;
#X connect 1 0 14 0;
#X connect 2 0 3 0;
#X connect 2 1 4 0;
#X connect 2 2 5 0;
#X connect 3 0 6 0;
#X connect 4 0 6 0;
#X connect 5 0 6 0;
#X connect 6 0 12 0;
#X connect 6 1 13 0;
#X connect 7 0 0 1;
#X connect 8 0 1 1;
#X connect 9 0 0 0;
#X connect 9 0 1 0;
#X connect 10 0 2 0;
#X connect 12 0 7 0;
#X connect 13 0 8 0;
#X restore -629 446 pd gate~;
#N canvas 426 73 622 303 gate~ 0;
#X obj 155 222 *~;
#X obj 230 227 *~;
#X obj 43 59 sel 0 1 2;
#X msg 44 93 0 0;
#X msg 78 93 1 0;
#X msg 113 93 0 1;
#X obj 68 125 unpack;
#X obj 170 197 line~;
#X obj 245 201 line~;
#X obj 157 19 inlet~;
#X obj 43 24 inlet;
#X obj 155 258 outlet~;
#X obj 170 166 pack f 20;
#X obj 248 164 pack f 20;
#X obj 230 256 outlet~;
#X text 227 23 This code is based (read: copied) entirely from Christopher
Ariza's abstration "mgGate2~" \, a part of the Martingale Library (https://code.google.com/p/martingale/).
;
#X connect 0 0 11 0;
#X connect 1 0 14 0;
#X connect 2 0 3 0;
#X connect 2 1 4 0;
#X connect 2 2 5 0;
#X connect 3 0 6 0;
#X connect 4 0 6 0;
#X connect 5 0 6 0;
#X connect 6 0 12 0;
#X connect 6 1 13 0;
#X connect 7 0 0 1;
#X connect 8 0 1 1;
#X connect 9 0 0 0;
#X connect 9 0 1 0;
#X connect 10 0 2 0;
#X connect 12 0 7 0;
#X connect 13 0 8 0;
#X restore -598 508 pd gate~;
#N canvas 426 73 622 303 gate~ 0;
#X obj 155 222 *~;
#X obj 230 227 *~;
#X obj 43 59 sel 0 1 2;
#X msg 44 93 0 0;
#X msg 78 93 1 0;
#X msg 113 93 0 1;
#X obj 68 125 unpack;
#X obj 170 197 line~;
#X obj 245 201 line~;
#X obj 157 19 inlet~;
#X obj 43 24 inlet;
#X obj 155 258 outlet~;
#X obj 170 166 pack f 20;
#X obj 248 164 pack f 20;
#X obj 230 256 outlet~;
#X text 227 23 This code is based (read: copied) entirely from Christopher
Ariza's abstration "mgGate2~" \, a part of the Martingale Library (https://code.google.com/p/martingale/).
;
#X connect 0 0 11 0;
#X connect 1 0 14 0;
#X connect 2 0 3 0;
#X connect 2 1 4 0;
#X connect 2 2 5 0;
#X connect 3 0 6 0;
#X connect 4 0 6 0;
#X connect 5 0 6 0;
#X connect 6 0 12 0;
#X connect 6 1 13 0;
#X connect 7 0 0 1;
#X connect 8 0 1 1;
#X connect 9 0 0 0;
#X connect 9 0 1 0;
#X connect 10 0 2 0;
#X connect 12 0 7 0;
#X connect 13 0 8 0;
#X restore -574 548 pd gate~;
#N canvas 426 73 622 303 gate~ 0;
#X obj 155 222 *~;
#X obj 230 227 *~;
#X obj 43 59 sel 0 1 2;
#X msg 44 93 0 0;
#X msg 78 93 1 0;
#X msg 113 93 0 1;
#X obj 68 125 unpack;
#X obj 170 197 line~;
#X obj 245 201 line~;
#X obj 157 19 inlet~;
#X obj 43 24 inlet;
#X obj 155 258 outlet~;
#X obj 170 166 pack f 20;
#X obj 248 164 pack f 20;
#X obj 230 256 outlet~;
#X text 227 23 This code is based (read: copied) entirely from Christopher
Ariza's abstration "mgGate2~" \, a part of the Martingale Library (https://code.google.com/p/martingale/).
;
#X connect 0 0 11 0;
#X connect 1 0 14 0;
#X connect 2 0 3 0;
#X connect 2 1 4 0;
#X connect 2 2 5 0;
#X connect 3 0 6 0;
#X connect 4 0 6 0;
#X connect 5 0 6 0;
#X connect 6 0 12 0;
#X connect 6 1 13 0;
#X connect 7 0 0 1;
#X connect 8 0 1 1;
#X connect 9 0 0 0;
#X connect 9 0 1 0;
#X connect 10 0 2 0;
#X connect 12 0 7 0;
#X connect 13 0 8 0;
#X restore -550 588 pd gate~;
#N canvas 426 73 622 303 gate~ 0;
#X obj 155 222 *~;
#X obj 230 227 *~;
#X obj 43 59 sel 0 1 2;
#X msg 44 93 0 0;
#X msg 78 93 1 0;
#X msg 113 93 0 1;
#X obj 68 125 unpack;
#X obj 170 197 line~;
#X obj 245 201 line~;
#X obj 157 19 inlet~;
#X obj 43 24 inlet;
#X obj 155 258 outlet~;
#X obj 170 166 pack f 20;
#X obj 248 164 pack f 20;
#X obj 230 256 outlet~;
#X text 227 23 This code is based (read: copied) entirely from Christopher
Ariza's abstration "mgGate2~" \, a part of the Martingale Library (https://code.google.com/p/martingale/).
;
#X connect 0 0 11 0;
#X connect 1 0 14 0;
#X connect 2 0 3 0;
#X connect 2 1 4 0;
#X connect 2 2 5 0;
#X connect 3 0 6 0;
#X connect 4 0 6 0;
#X connect 5 0 6 0;
#X connect 6 0 12 0;
#X connect 6 1 13 0;
#X connect 7 0 0 1;
#X connect 8 0 1 1;
#X connect 9 0 0 0;
#X connect 9 0 1 0;
#X connect 10 0 2 0;
#X connect 12 0 7 0;
#X connect 13 0 8 0;
#X restore -562 568 pd gate~;
#N canvas 426 73 622 303 gate~ 0;
#X obj 155 222 *~;
#X obj 230 227 *~;
#X obj 43 59 sel 0 1 2;
#X msg 44 93 0 0;
#X msg 78 93 1 0;
#X msg 113 93 0 1;
#X obj 68 125 unpack;
#X obj 170 197 line~;
#X obj 245 201 line~;
#X obj 157 19 inlet~;
#X obj 43 24 inlet;
#X obj 155 258 outlet~;
#X obj 170 166 pack f 20;
#X obj 248 164 pack f 20;
#X obj 230 256 outlet~;
#X text 227 23 This code is based (read: copied) entirely from Christopher
Ariza's abstration "mgGate2~" \, a part of the Martingale Library (https://code.google.com/p/martingale/).
;
#X connect 0 0 11 0;
#X connect 1 0 14 0;
#X connect 2 0 3 0;
#X connect 2 1 4 0;
#X connect 2 2 5 0;
#X connect 3 0 6 0;
#X connect 4 0 6 0;
#X connect 5 0 6 0;
#X connect 6 0 12 0;
#X connect 6 1 13 0;
#X connect 7 0 0 1;
#X connect 8 0 1 1;
#X connect 9 0 0 0;
#X connect 9 0 1 0;
#X connect 10 0 2 0;
#X connect 12 0 7 0;
#X connect 13 0 8 0;
#X restore -539 609 pd gate~;
#N canvas 426 73 622 303 gate~ 0;
#X obj 155 222 *~;
#X obj 230 227 *~;
#X obj 43 59 sel 0 1 2;
#X msg 44 93 0 0;
#X msg 78 93 1 0;
#X msg 113 93 0 1;
#X obj 68 125 unpack;
#X obj 170 197 line~;
#X obj 245 201 line~;
#X obj 157 19 inlet~;
#X obj 43 24 inlet;
#X obj 155 258 outlet~;
#X obj 170 166 pack f 20;
#X obj 248 164 pack f 20;
#X obj 230 256 outlet~;
#X text 227 23 This code is based (read: copied) entirely from Christopher
Ariza's abstration "mgGate2~" \, a part of the Martingale Library (https://code.google.com/p/martingale/).
;
#X connect 0 0 11 0;
#X connect 1 0 14 0;
#X connect 2 0 3 0;
#X connect 2 1 4 0;
#X connect 2 2 5 0;
#X connect 3 0 6 0;
#X connect 4 0 6 0;
#X connect 5 0 6 0;
#X connect 6 0 12 0;
#X connect 6 1 13 0;
#X connect 7 0 0 1;
#X connect 8 0 1 1;
#X connect 9 0 0 0;
#X connect 9 0 1 0;
#X connect 10 0 2 0;
#X connect 12 0 7 0;
#X connect 13 0 8 0;
#X restore -528 629 pd gate~;
#N canvas 426 73 622 303 gate~ 0;
#X obj 155 222 *~;
#X obj 230 227 *~;
#X obj 43 59 sel 0 1 2;
#X msg 44 93 0 0;
#X msg 78 93 1 0;
#X msg 113 93 0 1;
#X obj 68 125 unpack;
#X obj 170 197 line~;
#X obj 245 201 line~;
#X obj 157 19 inlet~;
#X obj 43 24 inlet;
#X obj 155 258 outlet~;
#X obj 170 166 pack f 20;
#X obj 248 164 pack f 20;
#X obj 230 256 outlet~;
#X text 227 23 This code is based (read: copied) entirely from Christopher
Ariza's abstration "mgGate2~" \, a part of the Martingale Library (https://code.google.com/p/martingale/).
;
#X connect 0 0 11 0;
#X connect 1 0 14 0;
#X connect 2 0 3 0;
#X connect 2 1 4 0;
#X connect 2 2 5 0;
#X connect 3 0 6 0;
#X connect 4 0 6 0;
#X connect 5 0 6 0;
#X connect 6 0 12 0;
#X connect 6 1 13 0;
#X connect 7 0 0 1;
#X connect 8 0 1 1;
#X connect 9 0 0 0;
#X connect 9 0 1 0;
#X connect 10 0 2 0;
#X connect 12 0 7 0;
#X connect 13 0 8 0;
#X restore -621 467 pd gate~;
#X obj -477 368 inlet~;
#N canvas 426 73 622 303 gate~ 0;
#X obj 155 222 *~;
#X obj 230 227 *~;
#X obj 43 59 sel 0 1 2;
#X msg 44 93 0 0;
#X msg 78 93 1 0;
#X msg 113 93 0 1;
#X obj 68 125 unpack;
#X obj 170 197 line~;
#X obj 245 201 line~;
#X obj 157 19 inlet~;
#X obj 43 24 inlet;
#X obj 155 258 outlet~;
#X obj 170 166 pack f 20;
#X obj 248 164 pack f 20;
#X obj 230 256 outlet~;
#X text 227 23 This code is based (read: copied) entirely from Christopher
Ariza's abstration "mgGate2~" \, a part of the Martingale Library (https://code.google.com/p/martingale/).
;
#X connect 0 0 11 0;
#X connect 1 0 14 0;
#X connect 2 0 3 0;
#X connect 2 1 4 0;
#X connect 2 2 5 0;
#X connect 3 0 6 0;
#X connect 4 0 6 0;
#X connect 5 0 6 0;
#X connect 6 0 12 0;
#X connect 6 1 13 0;
#X connect 7 0 0 1;
#X connect 8 0 1 1;
#X connect 9 0 0 0;
#X connect 9 0 1 0;
#X connect 10 0 2 0;
#X connect 12 0 7 0;
#X connect 13 0 8 0;
#X restore -502 485 pd gate~;
#N canvas 426 73 622 303 gate~ 0;
#X obj 155 222 *~;
#X obj 230 227 *~;
#X obj 43 59 sel 0 1 2;
#X msg 44 93 0 0;
#X msg 78 93 1 0;
#X msg 113 93 0 1;
#X obj 68 125 unpack;
#X obj 170 197 line~;
#X obj 245 201 line~;
#X obj 157 19 inlet~;
#X obj 43 24 inlet;
#X obj 155 258 outlet~;
#X obj 170 166 pack f 20;
#X obj 248 164 pack f 20;
#X obj 230 256 outlet~;
#X text 227 23 This code is based (read: copied) entirely from Christopher
Ariza's abstration "mgGate2~" \, a part of the Martingale Library (https://code.google.com/p/martingale/).
;
#X connect 0 0 11 0;
#X connect 1 0 14 0;
#X connect 2 0 3 0;
#X connect 2 1 4 0;
#X connect 2 2 5 0;
#X connect 3 0 6 0;
#X connect 4 0 6 0;
#X connect 5 0 6 0;
#X connect 6 0 12 0;
#X connect 6 1 13 0;
#X connect 7 0 0 1;
#X connect 8 0 1 1;
#X connect 9 0 0 0;
#X connect 9 0 1 0;
#X connect 10 0 2 0;
#X connect 12 0 7 0;
#X connect 13 0 8 0;
#X restore -522 444 pd gate~;
#N canvas 426 73 622 303 gate~ 0;
#X obj 155 222 *~;
#X obj 230 227 *~;
#X obj 43 59 sel 0 1 2;
#X msg 44 93 0 0;
#X msg 78 93 1 0;
#X msg 113 93 0 1;
#X obj 68 125 unpack;
#X obj 170 197 line~;
#X obj 245 201 line~;
#X obj 157 19 inlet~;
#X obj 43 24 inlet;
#X obj 155 258 outlet~;
#X obj 170 166 pack f 20;
#X obj 248 164 pack f 20;
#X obj 230 256 outlet~;
#X text 227 23 This code is based (read: copied) entirely from Christopher
Ariza's abstration "mgGate2~" \, a part of the Martingale Library (https://code.google.com/p/martingale/).
;
#X connect 0 0 11 0;
#X connect 1 0 14 0;
#X connect 2 0 3 0;
#X connect 2 1 4 0;
#X connect 2 2 5 0;
#X connect 3 0 6 0;
#X connect 4 0 6 0;
#X connect 5 0 6 0;
#X connect 6 0 12 0;
#X connect 6 1 13 0;
#X connect 7 0 0 1;
#X connect 8 0 1 1;
#X connect 9 0 0 0;
#X connect 9 0 1 0;
#X connect 10 0 2 0;
#X connect 12 0 7 0;
#X connect 13 0 8 0;
#X restore -491 506 pd gate~;
#N canvas 426 73 622 303 gate~ 0;
#X obj 155 222 *~;
#X obj 230 227 *~;
#X obj 43 59 sel 0 1 2;
#X msg 44 93 0 0;
#X msg 78 93 1 0;
#X msg 113 93 0 1;
#X obj 68 125 unpack;
#X obj 170 197 line~;
#X obj 245 201 line~;
#X obj 157 19 inlet~;
#X obj 43 24 inlet;
#X obj 155 258 outlet~;
#X obj 170 166 pack f 20;
#X obj 248 164 pack f 20;
#X obj 230 256 outlet~;
#X text 227 23 This code is based (read: copied) entirely from Christopher
Ariza's abstration "mgGate2~" \, a part of the Martingale Library (https://code.google.com/p/martingale/).
;
#X connect 0 0 11 0;
#X connect 1 0 14 0;
#X connect 2 0 3 0;
#X connect 2 1 4 0;
#X connect 2 2 5 0;
#X connect 3 0 6 0;
#X connect 4 0 6 0;
#X connect 5 0 6 0;
#X connect 6 0 12 0;
#X connect 6 1 13 0;
#X connect 7 0 0 1;
#X connect 8 0 1 1;
#X connect 9 0 0 0;
#X connect 9 0 1 0;
#X connect 10 0 2 0;
#X connect 12 0 7 0;
#X connect 13 0 8 0;
#X restore -480 526 pd gate~;
#N canvas 426 73 622 303 gate~ 0;
#X obj 155 222 *~;
#X obj 230 227 *~;
#X obj 43 59 sel 0 1 2;
#X msg 44 93 0 0;
#X msg 78 93 1 0;
#X msg 113 93 0 1;
#X obj 68 125 unpack;
#X obj 170 197 line~;
#X obj 245 201 line~;
#X obj 157 19 inlet~;
#X obj 43 24 inlet;
#X obj 155 258 outlet~;
#X obj 170 166 pack f 20;
#X obj 248 164 pack f 20;
#X obj 230 256 outlet~;
#X text 227 23 This code is based (read: copied) entirely from Christopher
Ariza's abstration "mgGate2~" \, a part of the Martingale Library (https://code.google.com/p/martingale/).
;
#X connect 0 0 11 0;
#X connect 1 0 14 0;
#X connect 2 0 3 0;
#X connect 2 1 4 0;
#X connect 2 2 5 0;
#X connect 3 0 6 0;
#X connect 4 0 6 0;
#X connect 5 0 6 0;
#X connect 6 0 12 0;
#X connect 6 1 13 0;
#X connect 7 0 0 1;
#X connect 8 0 1 1;
#X connect 9 0 0 0;
#X connect 9 0 1 0;
#X connect 10 0 2 0;
#X connect 12 0 7 0;
#X connect 13 0 8 0;
#X restore -443 586 pd gate~;
#N canvas 426 73 622 303 gate~ 0;
#X obj 155 222 *~;
#X obj 230 227 *~;
#X obj 43 59 sel 0 1 2;
#X msg 44 93 0 0;
#X msg 78 93 1 0;
#X msg 113 93 0 1;
#X obj 68 125 unpack;
#X obj 170 197 line~;
#X obj 245 201 line~;
#X obj 157 19 inlet~;
#X obj 43 24 inlet;
#X obj 155 258 outlet~;
#X obj 170 166 pack f 20;
#X obj 248 164 pack f 20;
#X obj 230 256 outlet~;
#X text 227 23 This code is based (read: copied) entirely from Christopher
Ariza's abstration "mgGate2~" \, a part of the Martingale Library (https://code.google.com/p/martingale/).
;
#X connect 0 0 11 0;
#X connect 1 0 14 0;
#X connect 2 0 3 0;
#X connect 2 1 4 0;
#X connect 2 2 5 0;
#X connect 3 0 6 0;
#X connect 4 0 6 0;
#X connect 5 0 6 0;
#X connect 6 0 12 0;
#X connect 6 1 13 0;
#X connect 7 0 0 1;
#X connect 8 0 1 1;
#X connect 9 0 0 0;
#X connect 9 0 1 0;
#X connect 10 0 2 0;
#X connect 12 0 7 0;
#X connect 13 0 8 0;
#X restore -455 566 pd gate~;
#N canvas 426 73 622 303 gate~ 0;
#X obj 155 222 *~;
#X obj 230 227 *~;
#X obj 43 59 sel 0 1 2;
#X msg 44 93 0 0;
#X msg 78 93 1 0;
#X msg 113 93 0 1;
#X obj 68 125 unpack;
#X obj 170 197 line~;
#X obj 245 201 line~;
#X obj 157 19 inlet~;
#X obj 43 24 inlet;
#X obj 155 258 outlet~;
#X obj 170 166 pack f 20;
#X obj 248 164 pack f 20;
#X obj 230 256 outlet~;
#X text 227 23 This code is based (read: copied) entirely from Christopher
Ariza's abstration "mgGate2~" \, a part of the Martingale Library (https://code.google.com/p/martingale/).
;
#X connect 0 0 11 0;
#X connect 1 0 14 0;
#X connect 2 0 3 0;
#X connect 2 1 4 0;
#X connect 2 2 5 0;
#X connect 3 0 6 0;
#X connect 4 0 6 0;
#X connect 5 0 6 0;
#X connect 6 0 12 0;
#X connect 6 1 13 0;
#X connect 7 0 0 1;
#X connect 8 0 1 1;
#X connect 9 0 0 0;
#X connect 9 0 1 0;
#X connect 10 0 2 0;
#X connect 12 0 7 0;
#X connect 13 0 8 0;
#X restore -432 607 pd gate~;
#N canvas 426 73 622 303 gate~ 0;
#X obj 155 222 *~;
#X obj 230 227 *~;
#X obj 43 59 sel 0 1 2;
#X msg 44 93 0 0;
#X msg 78 93 1 0;
#X msg 113 93 0 1;
#X obj 68 125 unpack;
#X obj 170 197 line~;
#X obj 245 201 line~;
#X obj 157 19 inlet~;
#X obj 43 24 inlet;
#X obj 155 258 outlet~;
#X obj 170 166 pack f 20;
#X obj 248 164 pack f 20;
#X obj 230 256 outlet~;
#X text 227 23 This code is based (read: copied) entirely from Christopher
Ariza's abstration "mgGate2~" \, a part of the Martingale Library (https://code.google.com/p/martingale/).
;
#X connect 0 0 11 0;
#X connect 1 0 14 0;
#X connect 2 0 3 0;
#X connect 2 1 4 0;
#X connect 2 2 5 0;
#X connect 3 0 6 0;
#X connect 4 0 6 0;
#X connect 5 0 6 0;
#X connect 6 0 12 0;
#X connect 6 1 13 0;
#X connect 7 0 0 1;
#X connect 8 0 1 1;
#X connect 9 0 0 0;
#X connect 9 0 1 0;
#X connect 10 0 2 0;
#X connect 12 0 7 0;
#X connect 13 0 8 0;
#X restore -421 627 pd gate~;
#N canvas 426 73 622 303 gate~ 0;
#X obj 155 222 *~;
#X obj 230 227 *~;
#X obj 43 59 sel 0 1 2;
#X msg 44 93 0 0;
#X msg 78 93 1 0;
#X msg 113 93 0 1;
#X obj 68 125 unpack;
#X obj 170 197 line~;
#X obj 245 201 line~;
#X obj 157 19 inlet~;
#X obj 43 24 inlet;
#X obj 155 258 outlet~;
#X obj 170 166 pack f 20;
#X obj 248 164 pack f 20;
#X obj 230 256 outlet~;
#X text 227 23 This code is based (read: copied) entirely from Christopher
Ariza's abstration "mgGate2~" \, a part of the Martingale Library (https://code.google.com/p/martingale/).
;
#X connect 0 0 11 0;
#X connect 1 0 14 0;
#X connect 2 0 3 0;
#X connect 2 1 4 0;
#X connect 2 2 5 0;
#X connect 3 0 6 0;
#X connect 4 0 6 0;
#X connect 5 0 6 0;
#X connect 6 0 12 0;
#X connect 6 1 13 0;
#X connect 7 0 0 1;
#X connect 8 0 1 1;
#X connect 9 0 0 0;
#X connect 9 0 1 0;
#X connect 10 0 2 0;
#X connect 12 0 7 0;
#X connect 13 0 8 0;
#X restore -514 465 pd gate~;
#X obj -354 364 inlet~;
#N canvas 426 73 622 303 gate~ 0;
#X obj 155 222 *~;
#X obj 230 227 *~;
#X obj 43 59 sel 0 1 2;
#X msg 44 93 0 0;
#X msg 78 93 1 0;
#X msg 113 93 0 1;
#X obj 68 125 unpack;
#X obj 170 197 line~;
#X obj 245 201 line~;
#X obj 157 19 inlet~;
#X obj 43 24 inlet;
#X obj 155 258 outlet~;
#X obj 170 166 pack f 20;
#X obj 248 164 pack f 20;
#X obj 230 256 outlet~;
#X text 227 23 This code is based (read: copied) entirely from Christopher
Ariza's abstration "mgGate2~" \, a part of the Martingale Library (https://code.google.com/p/martingale/).
;
#X connect 0 0 11 0;
#X connect 1 0 14 0;
#X connect 2 0 3 0;
#X connect 2 1 4 0;
#X connect 2 2 5 0;
#X connect 3 0 6 0;
#X connect 4 0 6 0;
#X connect 5 0 6 0;
#X connect 6 0 12 0;
#X connect 6 1 13 0;
#X connect 7 0 0 1;
#X connect 8 0 1 1;
#X connect 9 0 0 0;
#X connect 9 0 1 0;
#X connect 10 0 2 0;
#X connect 12 0 7 0;
#X connect 13 0 8 0;
#X restore -379 481 pd gate~;
#N canvas 426 73 622 303 gate~ 0;
#X obj 155 222 *~;
#X obj 230 227 *~;
#X obj 43 59 sel 0 1 2;
#X msg 44 93 0 0;
#X msg 78 93 1 0;
#X msg 113 93 0 1;
#X obj 68 125 unpack;
#X obj 170 197 line~;
#X obj 245 201 line~;
#X obj 157 19 inlet~;
#X obj 43 24 inlet;
#X obj 155 258 outlet~;
#X obj 170 166 pack f 20;
#X obj 248 164 pack f 20;
#X obj 230 256 outlet~;
#X text 227 23 This code is based (read: copied) entirely from Christopher
Ariza's abstration "mgGate2~" \, a part of the Martingale Library (https://code.google.com/p/martingale/).
;
#X connect 0 0 11 0;
#X connect 1 0 14 0;
#X connect 2 0 3 0;
#X connect 2 1 4 0;
#X connect 2 2 5 0;
#X connect 3 0 6 0;
#X connect 4 0 6 0;
#X connect 5 0 6 0;
#X connect 6 0 12 0;
#X connect 6 1 13 0;
#X connect 7 0 0 1;
#X connect 8 0 1 1;
#X connect 9 0 0 0;
#X connect 9 0 1 0;
#X connect 10 0 2 0;
#X connect 12 0 7 0;
#X connect 13 0 8 0;
#X restore -399 440 pd gate~;
#N canvas 426 73 622 303 gate~ 0;
#X obj 155 222 *~;
#X obj 230 227 *~;
#X obj 43 59 sel 0 1 2;
#X msg 44 93 0 0;
#X msg 78 93 1 0;
#X msg 113 93 0 1;
#X obj 68 125 unpack;
#X obj 170 197 line~;
#X obj 245 201 line~;
#X obj 157 19 inlet~;
#X obj 43 24 inlet;
#X obj 155 258 outlet~;
#X obj 170 166 pack f 20;
#X obj 248 164 pack f 20;
#X obj 230 256 outlet~;
#X text 227 23 This code is based (read: copied) entirely from Christopher
Ariza's abstration "mgGate2~" \, a part of the Martingale Library (https://code.google.com/p/martingale/).
;
#X connect 0 0 11 0;
#X connect 1 0 14 0;
#X connect 2 0 3 0;
#X connect 2 1 4 0;
#X connect 2 2 5 0;
#X connect 3 0 6 0;
#X connect 4 0 6 0;
#X connect 5 0 6 0;
#X connect 6 0 12 0;
#X connect 6 1 13 0;
#X connect 7 0 0 1;
#X connect 8 0 1 1;
#X connect 9 0 0 0;
#X connect 9 0 1 0;
#X connect 10 0 2 0;
#X connect 12 0 7 0;
#X connect 13 0 8 0;
#X restore -368 502 pd gate~;
#N canvas 426 73 622 303 gate~ 0;
#X obj 155 222 *~;
#X obj 230 227 *~;
#X obj 43 59 sel 0 1 2;
#X msg 44 93 0 0;
#X msg 78 93 1 0;
#X msg 113 93 0 1;
#X obj 68 125 unpack;
#X obj 170 197 line~;
#X obj 245 201 line~;
#X obj 157 19 inlet~;
#X obj 43 24 inlet;
#X obj 155 258 outlet~;
#X obj 170 166 pack f 20;
#X obj 248 164 pack f 20;
#X obj 230 256 outlet~;
#X text 227 23 This code is based (read: copied) entirely from Christopher
Ariza's abstration "mgGate2~" \, a part of the Martingale Library (https://code.google.com/p/martingale/).
;
#X connect 0 0 11 0;
#X connect 1 0 14 0;
#X connect 2 0 3 0;
#X connect 2 1 4 0;
#X connect 2 2 5 0;
#X connect 3 0 6 0;
#X connect 4 0 6 0;
#X connect 5 0 6 0;
#X connect 6 0 12 0;
#X connect 6 1 13 0;
#X connect 7 0 0 1;
#X connect 8 0 1 1;
#X connect 9 0 0 0;
#X connect 9 0 1 0;
#X connect 10 0 2 0;
#X connect 12 0 7 0;
#X connect 13 0 8 0;
#X restore -357 522 pd gate~;
#N canvas 426 73 622 303 gate~ 0;
#X obj 155 222 *~;
#X obj 230 227 *~;
#X obj 43 59 sel 0 1 2;
#X msg 44 93 0 0;
#X msg 78 93 1 0;
#X msg 113 93 0 1;
#X obj 68 125 unpack;
#X obj 170 197 line~;
#X obj 245 201 line~;
#X obj 157 19 inlet~;
#X obj 43 24 inlet;
#X obj 155 258 outlet~;
#X obj 170 166 pack f 20;
#X obj 248 164 pack f 20;
#X obj 230 256 outlet~;
#X text 227 23 This code is based (read: copied) entirely from Christopher
Ariza's abstration "mgGate2~" \, a part of the Martingale Library (https://code.google.com/p/martingale/).
;
#X connect 0 0 11 0;
#X connect 1 0 14 0;
#X connect 2 0 3 0;
#X connect 2 1 4 0;
#X connect 2 2 5 0;
#X connect 3 0 6 0;
#X connect 4 0 6 0;
#X connect 5 0 6 0;
#X connect 6 0 12 0;
#X connect 6 1 13 0;
#X connect 7 0 0 1;
#X connect 8 0 1 1;
#X connect 9 0 0 0;
#X connect 9 0 1 0;
#X connect 10 0 2 0;
#X connect 12 0 7 0;
#X connect 13 0 8 0;
#X restore -344 542 pd gate~;
#N canvas 426 73 622 303 gate~ 0;
#X obj 155 222 *~;
#X obj 230 227 *~;
#X obj 43 59 sel 0 1 2;
#X msg 44 93 0 0;
#X msg 78 93 1 0;
#X msg 113 93 0 1;
#X obj 68 125 unpack;
#X obj 170 197 line~;
#X obj 245 201 line~;
#X obj 157 19 inlet~;
#X obj 43 24 inlet;
#X obj 155 258 outlet~;
#X obj 170 166 pack f 20;
#X obj 248 164 pack f 20;
#X obj 230 256 outlet~;
#X text 227 23 This code is based (read: copied) entirely from Christopher
Ariza's abstration "mgGate2~" \, a part of the Martingale Library (https://code.google.com/p/martingale/).
;
#X connect 0 0 11 0;
#X connect 1 0 14 0;
#X connect 2 0 3 0;
#X connect 2 1 4 0;
#X connect 2 2 5 0;
#X connect 3 0 6 0;
#X connect 4 0 6 0;
#X connect 5 0 6 0;
#X connect 6 0 12 0;
#X connect 6 1 13 0;
#X connect 7 0 0 1;
#X connect 8 0 1 1;
#X connect 9 0 0 0;
#X connect 9 0 1 0;
#X connect 10 0 2 0;
#X connect 12 0 7 0;
#X connect 13 0 8 0;
#X restore -320 582 pd gate~;
#N canvas 426 73 622 303 gate~ 0;
#X obj 155 222 *~;
#X obj 230 227 *~;
#X obj 43 59 sel 0 1 2;
#X msg 44 93 0 0;
#X msg 78 93 1 0;
#X msg 113 93 0 1;
#X obj 68 125 unpack;
#X obj 170 197 line~;
#X obj 245 201 line~;
#X obj 157 19 inlet~;
#X obj 43 24 inlet;
#X obj 155 258 outlet~;
#X obj 170 166 pack f 20;
#X obj 248 164 pack f 20;
#X obj 230 256 outlet~;
#X text 227 23 This code is based (read: copied) entirely from Christopher
Ariza's abstration "mgGate2~" \, a part of the Martingale Library (https://code.google.com/p/martingale/).
;
#X connect 0 0 11 0;
#X connect 1 0 14 0;
#X connect 2 0 3 0;
#X connect 2 1 4 0;
#X connect 2 2 5 0;
#X connect 3 0 6 0;
#X connect 4 0 6 0;
#X connect 5 0 6 0;
#X connect 6 0 12 0;
#X connect 6 1 13 0;
#X connect 7 0 0 1;
#X connect 8 0 1 1;
#X connect 9 0 0 0;
#X connect 9 0 1 0;
#X connect 10 0 2 0;
#X connect 12 0 7 0;
#X connect 13 0 8 0;
#X restore -309 603 pd gate~;
#N canvas 426 73 622 303 gate~ 0;
#X obj 155 222 *~;
#X obj 230 227 *~;
#X obj 43 59 sel 0 1 2;
#X msg 44 93 0 0;
#X msg 78 93 1 0;
#X msg 113 93 0 1;
#X obj 68 125 unpack;
#X obj 170 197 line~;
#X obj 245 201 line~;
#X obj 157 19 inlet~;
#X obj 43 24 inlet;
#X obj 155 258 outlet~;
#X obj 170 166 pack f 20;
#X obj 248 164 pack f 20;
#X obj 230 256 outlet~;
#X text 227 23 This code is based (read: copied) entirely from Christopher
Ariza's abstration "mgGate2~" \, a part of the Martingale Library (https://code.google.com/p/martingale/).
;
#X connect 0 0 11 0;
#X connect 1 0 14 0;
#X connect 2 0 3 0;
#X connect 2 1 4 0;
#X connect 2 2 5 0;
#X connect 3 0 6 0;
#X connect 4 0 6 0;
#X connect 5 0 6 0;
#X connect 6 0 12 0;
#X connect 6 1 13 0;
#X connect 7 0 0 1;
#X connect 8 0 1 1;
#X connect 9 0 0 0;
#X connect 9 0 1 0;
#X connect 10 0 2 0;
#X connect 12 0 7 0;
#X connect 13 0 8 0;
#X restore -298 623 pd gate~;
#N canvas 426 73 622 303 gate~ 0;
#X obj 155 222 *~;
#X obj 230 227 *~;
#X obj 43 59 sel 0 1 2;
#X msg 44 93 0 0;
#X msg 78 93 1 0;
#X msg 113 93 0 1;
#X obj 68 125 unpack;
#X obj 170 197 line~;
#X obj 245 201 line~;
#X obj 157 19 inlet~;
#X obj 43 24 inlet;
#X obj 155 258 outlet~;
#X obj 170 166 pack f 20;
#X obj 248 164 pack f 20;
#X obj 230 256 outlet~;
#X text 227 23 This code is based (read: copied) entirely from Christopher
Ariza's abstration "mgGate2~" \, a part of the Martingale Library (https://code.google.com/p/martingale/).
;
#X connect 0 0 11 0;
#X connect 1 0 14 0;
#X connect 2 0 3 0;
#X connect 2 1 4 0;
#X connect 2 2 5 0;
#X connect 3 0 6 0;
#X connect 4 0 6 0;
#X connect 5 0 6 0;
#X connect 6 0 12 0;
#X connect 6 1 13 0;
#X connect 7 0 0 1;
#X connect 8 0 1 1;
#X connect 9 0 0 0;
#X connect 9 0 1 0;
#X connect 10 0 2 0;
#X connect 12 0 7 0;
#X connect 13 0 8 0;
#X restore -391 461 pd gate~;
#X obj -224 364 inlet~;
#N canvas 426 73 622 303 gate~ 0;
#X obj 155 222 *~;
#X obj 230 227 *~;
#X obj 43 59 sel 0 1 2;
#X msg 44 93 0 0;
#X msg 78 93 1 0;
#X msg 113 93 0 1;
#X obj 68 125 unpack;
#X obj 170 197 line~;
#X obj 245 201 line~;
#X obj 157 19 inlet~;
#X obj 43 24 inlet;
#X obj 155 258 outlet~;
#X obj 170 166 pack f 20;
#X obj 248 164 pack f 20;
#X obj 230 256 outlet~;
#X text 227 23 This code is based (read: copied) entirely from Christopher
Ariza's abstration "mgGate2~" \, a part of the Martingale Library (https://code.google.com/p/martingale/).
;
#X connect 0 0 11 0;
#X connect 1 0 14 0;
#X connect 2 0 3 0;
#X connect 2 1 4 0;
#X connect 2 2 5 0;
#X connect 3 0 6 0;
#X connect 4 0 6 0;
#X connect 5 0 6 0;
#X connect 6 0 12 0;
#X connect 6 1 13 0;
#X connect 7 0 0 1;
#X connect 8 0 1 1;
#X connect 9 0 0 0;
#X connect 9 0 1 0;
#X connect 10 0 2 0;
#X connect 12 0 7 0;
#X connect 13 0 8 0;
#X restore -249 481 pd gate~;
#N canvas 426 73 622 303 gate~ 0;
#X obj 155 222 *~;
#X obj 230 227 *~;
#X obj 43 59 sel 0 1 2;
#X msg 44 93 0 0;
#X msg 78 93 1 0;
#X msg 113 93 0 1;
#X obj 68 125 unpack;
#X obj 170 197 line~;
#X obj 245 201 line~;
#X obj 157 19 inlet~;
#X obj 43 24 inlet;
#X obj 155 258 outlet~;
#X obj 170 166 pack f 20;
#X obj 248 164 pack f 20;
#X obj 230 256 outlet~;
#X text 227 23 This code is based (read: copied) entirely from Christopher
Ariza's abstration "mgGate2~" \, a part of the Martingale Library (https://code.google.com/p/martingale/).
;
#X connect 0 0 11 0;
#X connect 1 0 14 0;
#X connect 2 0 3 0;
#X connect 2 1 4 0;
#X connect 2 2 5 0;
#X connect 3 0 6 0;
#X connect 4 0 6 0;
#X connect 5 0 6 0;
#X connect 6 0 12 0;
#X connect 6 1 13 0;
#X connect 7 0 0 1;
#X connect 8 0 1 1;
#X connect 9 0 0 0;
#X connect 9 0 1 0;
#X connect 10 0 2 0;
#X connect 12 0 7 0;
#X connect 13 0 8 0;
#X restore -269 440 pd gate~;
#N canvas 426 73 622 303 gate~ 0;
#X obj 155 222 *~;
#X obj 230 227 *~;
#X obj 43 59 sel 0 1 2;
#X msg 44 93 0 0;
#X msg 78 93 1 0;
#X msg 113 93 0 1;
#X obj 68 125 unpack;
#X obj 170 197 line~;
#X obj 245 201 line~;
#X obj 157 19 inlet~;
#X obj 43 24 inlet;
#X obj 155 258 outlet~;
#X obj 170 166 pack f 20;
#X obj 248 164 pack f 20;
#X obj 230 256 outlet~;
#X text 227 23 This code is based (read: copied) entirely from Christopher
Ariza's abstration "mgGate2~" \, a part of the Martingale Library (https://code.google.com/p/martingale/).
;
#X connect 0 0 11 0;
#X connect 1 0 14 0;
#X connect 2 0 3 0;
#X connect 2 1 4 0;
#X connect 2 2 5 0;
#X connect 3 0 6 0;
#X connect 4 0 6 0;
#X connect 5 0 6 0;
#X connect 6 0 12 0;
#X connect 6 1 13 0;
#X connect 7 0 0 1;
#X connect 8 0 1 1;
#X connect 9 0 0 0;
#X connect 9 0 1 0;
#X connect 10 0 2 0;
#X connect 12 0 7 0;
#X connect 13 0 8 0;
#X restore -238 502 pd gate~;
#N canvas 426 73 622 303 gate~ 0;
#X obj 155 222 *~;
#X obj 230 227 *~;
#X obj 43 59 sel 0 1 2;
#X msg 44 93 0 0;
#X msg 78 93 1 0;
#X msg 113 93 0 1;
#X obj 68 125 unpack;
#X obj 170 197 line~;
#X obj 245 201 line~;
#X obj 157 19 inlet~;
#X obj 43 24 inlet;
#X obj 155 258 outlet~;
#X obj 170 166 pack f 20;
#X obj 248 164 pack f 20;
#X obj 230 256 outlet~;
#X text 227 23 This code is based (read: copied) entirely from Christopher
Ariza's abstration "mgGate2~" \, a part of the Martingale Library (https://code.google.com/p/martingale/).
;
#X connect 0 0 11 0;
#X connect 1 0 14 0;
#X connect 2 0 3 0;
#X connect 2 1 4 0;
#X connect 2 2 5 0;
#X connect 3 0 6 0;
#X connect 4 0 6 0;
#X connect 5 0 6 0;
#X connect 6 0 12 0;
#X connect 6 1 13 0;
#X connect 7 0 0 1;
#X connect 8 0 1 1;
#X connect 9 0 0 0;
#X connect 9 0 1 0;
#X connect 10 0 2 0;
#X connect 12 0 7 0;
#X connect 13 0 8 0;
#X restore -227 522 pd gate~;
#N canvas 426 73 622 303 gate~ 0;
#X obj 155 222 *~;
#X obj 230 227 *~;
#X obj 43 59 sel 0 1 2;
#X msg 44 93 0 0;
#X msg 78 93 1 0;
#X msg 113 93 0 1;
#X obj 68 125 unpack;
#X obj 170 197 line~;
#X obj 245 201 line~;
#X obj 157 19 inlet~;
#X obj 43 24 inlet;
#X obj 155 258 outlet~;
#X obj 170 166 pack f 20;
#X obj 248 164 pack f 20;
#X obj 230 256 outlet~;
#X text 227 23 This code is based (read: copied) entirely from Christopher
Ariza's abstration "mgGate2~" \, a part of the Martingale Library (https://code.google.com/p/martingale/).
;
#X connect 0 0 11 0;
#X connect 1 0 14 0;
#X connect 2 0 3 0;
#X connect 2 1 4 0;
#X connect 2 2 5 0;
#X connect 3 0 6 0;
#X connect 4 0 6 0;
#X connect 5 0 6 0;
#X connect 6 0 12 0;
#X connect 6 1 13 0;
#X connect 7 0 0 1;
#X connect 8 0 1 1;
#X connect 9 0 0 0;
#X connect 9 0 1 0;
#X connect 10 0 2 0;
#X connect 12 0 7 0;
#X connect 13 0 8 0;
#X restore -214 542 pd gate~;
#N canvas 426 73 622 303 gate~ 0;
#X obj 155 222 *~;
#X obj 230 227 *~;
#X obj 43 59 sel 0 1 2;
#X msg 44 93 0 0;
#X msg 78 93 1 0;
#X msg 113 93 0 1;
#X obj 68 125 unpack;
#X obj 170 197 line~;
#X obj 245 201 line~;
#X obj 157 19 inlet~;
#X obj 43 24 inlet;
#X obj 155 258 outlet~;
#X obj 170 166 pack f 20;
#X obj 248 164 pack f 20;
#X obj 230 256 outlet~;
#X text 227 23 This code is based (read: copied) entirely from Christopher
Ariza's abstration "mgGate2~" \, a part of the Martingale Library (https://code.google.com/p/martingale/).
;
#X connect 0 0 11 0;
#X connect 1 0 14 0;
#X connect 2 0 3 0;
#X connect 2 1 4 0;
#X connect 2 2 5 0;
#X connect 3 0 6 0;
#X connect 4 0 6 0;
#X connect 5 0 6 0;
#X connect 6 0 12 0;
#X connect 6 1 13 0;
#X connect 7 0 0 1;
#X connect 8 0 1 1;
#X connect 9 0 0 0;
#X connect 9 0 1 0;
#X connect 10 0 2 0;
#X connect 12 0 7 0;
#X connect 13 0 8 0;
#X restore -202 562 pd gate~;
#N canvas 426 73 622 303 gate~ 0;
#X obj 155 222 *~;
#X obj 230 227 *~;
#X obj 43 59 sel 0 1 2;
#X msg 44 93 0 0;
#X msg 78 93 1 0;
#X msg 113 93 0 1;
#X obj 68 125 unpack;
#X obj 170 197 line~;
#X obj 245 201 line~;
#X obj 157 19 inlet~;
#X obj 43 24 inlet;
#X obj 155 258 outlet~;
#X obj 170 166 pack f 20;
#X obj 248 164 pack f 20;
#X obj 230 256 outlet~;
#X text 227 23 This code is based (read: copied) entirely from Christopher
Ariza's abstration "mgGate2~" \, a part of the Martingale Library (https://code.google.com/p/martingale/).
;
#X connect 0 0 11 0;
#X connect 1 0 14 0;
#X connect 2 0 3 0;
#X connect 2 1 4 0;
#X connect 2 2 5 0;
#X connect 3 0 6 0;
#X connect 4 0 6 0;
#X connect 5 0 6 0;
#X connect 6 0 12 0;
#X connect 6 1 13 0;
#X connect 7 0 0 1;
#X connect 8 0 1 1;
#X connect 9 0 0 0;
#X connect 9 0 1 0;
#X connect 10 0 2 0;
#X connect 12 0 7 0;
#X connect 13 0 8 0;
#X restore -179 603 pd gate~;
#N canvas 426 73 622 303 gate~ 0;
#X obj 155 222 *~;
#X obj 230 227 *~;
#X obj 43 59 sel 0 1 2;
#X msg 44 93 0 0;
#X msg 78 93 1 0;
#X msg 113 93 0 1;
#X obj 68 125 unpack;
#X obj 170 197 line~;
#X obj 245 201 line~;
#X obj 157 19 inlet~;
#X obj 43 24 inlet;
#X obj 155 258 outlet~;
#X obj 170 166 pack f 20;
#X obj 248 164 pack f 20;
#X obj 230 256 outlet~;
#X text 227 23 This code is based (read: copied) entirely from Christopher
Ariza's abstration "mgGate2~" \, a part of the Martingale Library (https://code.google.com/p/martingale/).
;
#X connect 0 0 11 0;
#X connect 1 0 14 0;
#X connect 2 0 3 0;
#X connect 2 1 4 0;
#X connect 2 2 5 0;
#X connect 3 0 6 0;
#X connect 4 0 6 0;
#X connect 5 0 6 0;
#X connect 6 0 12 0;
#X connect 6 1 13 0;
#X connect 7 0 0 1;
#X connect 8 0 1 1;
#X connect 9 0 0 0;
#X connect 9 0 1 0;
#X connect 10 0 2 0;
#X connect 12 0 7 0;
#X connect 13 0 8 0;
#X restore -168 623 pd gate~;
#N canvas 426 73 622 303 gate~ 0;
#X obj 155 222 *~;
#X obj 230 227 *~;
#X obj 43 59 sel 0 1 2;
#X msg 44 93 0 0;
#X msg 78 93 1 0;
#X msg 113 93 0 1;
#X obj 68 125 unpack;
#X obj 170 197 line~;
#X obj 245 201 line~;
#X obj 157 19 inlet~;
#X obj 43 24 inlet;
#X obj 155 258 outlet~;
#X obj 170 166 pack f 20;
#X obj 248 164 pack f 20;
#X obj 230 256 outlet~;
#X text 227 23 This code is based (read: copied) entirely from Christopher
Ariza's abstration "mgGate2~" \, a part of the Martingale Library (https://code.google.com/p/martingale/).
;
#X connect 0 0 11 0;
#X connect 1 0 14 0;
#X connect 2 0 3 0;
#X connect 2 1 4 0;
#X connect 2 2 5 0;
#X connect 3 0 6 0;
#X connect 4 0 6 0;
#X connect 5 0 6 0;
#X connect 6 0 12 0;
#X connect 6 1 13 0;
#X connect 7 0 0 1;
#X connect 8 0 1 1;
#X connect 9 0 0 0;
#X connect 9 0 1 0;
#X connect 10 0 2 0;
#X connect 12 0 7 0;
#X connect 13 0 8 0;
#X restore -261 461 pd gate~;
#X obj -94 366 inlet~;
#N canvas 426 73 622 303 gate~ 0;
#X obj 155 222 *~;
#X obj 230 227 *~;
#X obj 43 59 sel 0 1 2;
#X msg 44 93 0 0;
#X msg 78 93 1 0;
#X msg 113 93 0 1;
#X obj 68 125 unpack;
#X obj 170 197 line~;
#X obj 245 201 line~;
#X obj 157 19 inlet~;
#X obj 43 24 inlet;
#X obj 155 258 outlet~;
#X obj 170 166 pack f 20;
#X obj 248 164 pack f 20;
#X obj 230 256 outlet~;
#X text 227 23 This code is based (read: copied) entirely from Christopher
Ariza's abstration "mgGate2~" \, a part of the Martingale Library (https://code.google.com/p/martingale/).
;
#X connect 0 0 11 0;
#X connect 1 0 14 0;
#X connect 2 0 3 0;
#X connect 2 1 4 0;
#X connect 2 2 5 0;
#X connect 3 0 6 0;
#X connect 4 0 6 0;
#X connect 5 0 6 0;
#X connect 6 0 12 0;
#X connect 6 1 13 0;
#X connect 7 0 0 1;
#X connect 8 0 1 1;
#X connect 9 0 0 0;
#X connect 9 0 1 0;
#X connect 10 0 2 0;
#X connect 12 0 7 0;
#X connect 13 0 8 0;
#X restore -119 483 pd gate~;
#N canvas 426 73 622 303 gate~ 0;
#X obj 155 222 *~;
#X obj 230 227 *~;
#X obj 43 59 sel 0 1 2;
#X msg 44 93 0 0;
#X msg 78 93 1 0;
#X msg 113 93 0 1;
#X obj 68 125 unpack;
#X obj 170 197 line~;
#X obj 245 201 line~;
#X obj 157 19 inlet~;
#X obj 43 24 inlet;
#X obj 155 258 outlet~;
#X obj 170 166 pack f 20;
#X obj 248 164 pack f 20;
#X obj 230 256 outlet~;
#X text 227 23 This code is based (read: copied) entirely from Christopher
Ariza's abstration "mgGate2~" \, a part of the Martingale Library (https://code.google.com/p/martingale/).
;
#X connect 0 0 11 0;
#X connect 1 0 14 0;
#X connect 2 0 3 0;
#X connect 2 1 4 0;
#X connect 2 2 5 0;
#X connect 3 0 6 0;
#X connect 4 0 6 0;
#X connect 5 0 6 0;
#X connect 6 0 12 0;
#X connect 6 1 13 0;
#X connect 7 0 0 1;
#X connect 8 0 1 1;
#X connect 9 0 0 0;
#X connect 9 0 1 0;
#X connect 10 0 2 0;
#X connect 12 0 7 0;
#X connect 13 0 8 0;
#X restore -139 442 pd gate~;
#N canvas 426 73 622 303 gate~ 0;
#X obj 155 222 *~;
#X obj 230 227 *~;
#X obj 43 59 sel 0 1 2;
#X msg 44 93 0 0;
#X msg 78 93 1 0;
#X msg 113 93 0 1;
#X obj 68 125 unpack;
#X obj 170 197 line~;
#X obj 245 201 line~;
#X obj 157 19 inlet~;
#X obj 43 24 inlet;
#X obj 155 258 outlet~;
#X obj 170 166 pack f 20;
#X obj 248 164 pack f 20;
#X obj 230 256 outlet~;
#X text 227 23 This code is based (read: copied) entirely from Christopher
Ariza's abstration "mgGate2~" \, a part of the Martingale Library (https://code.google.com/p/martingale/).
;
#X connect 0 0 11 0;
#X connect 1 0 14 0;
#X connect 2 0 3 0;
#X connect 2 1 4 0;
#X connect 2 2 5 0;
#X connect 3 0 6 0;
#X connect 4 0 6 0;
#X connect 5 0 6 0;
#X connect 6 0 12 0;
#X connect 6 1 13 0;
#X connect 7 0 0 1;
#X connect 8 0 1 1;
#X connect 9 0 0 0;
#X connect 9 0 1 0;
#X connect 10 0 2 0;
#X connect 12 0 7 0;
#X connect 13 0 8 0;
#X restore -108 504 pd gate~;
#N canvas 426 73 622 303 gate~ 0;
#X obj 155 222 *~;
#X obj 230 227 *~;
#X obj 43 59 sel 0 1 2;
#X msg 44 93 0 0;
#X msg 78 93 1 0;
#X msg 113 93 0 1;
#X obj 68 125 unpack;
#X obj 170 197 line~;
#X obj 245 201 line~;
#X obj 157 19 inlet~;
#X obj 43 24 inlet;
#X obj 155 258 outlet~;
#X obj 170 166 pack f 20;
#X obj 248 164 pack f 20;
#X obj 230 256 outlet~;
#X text 227 23 This code is based (read: copied) entirely from Christopher
Ariza's abstration "mgGate2~" \, a part of the Martingale Library (https://code.google.com/p/martingale/).
;
#X connect 0 0 11 0;
#X connect 1 0 14 0;
#X connect 2 0 3 0;
#X connect 2 1 4 0;
#X connect 2 2 5 0;
#X connect 3 0 6 0;
#X connect 4 0 6 0;
#X connect 5 0 6 0;
#X connect 6 0 12 0;
#X connect 6 1 13 0;
#X connect 7 0 0 1;
#X connect 8 0 1 1;
#X connect 9 0 0 0;
#X connect 9 0 1 0;
#X connect 10 0 2 0;
#X connect 12 0 7 0;
#X connect 13 0 8 0;
#X restore -97 524 pd gate~;
#N canvas 426 73 622 303 gate~ 0;
#X obj 155 222 *~;
#X obj 230 227 *~;
#X obj 43 59 sel 0 1 2;
#X msg 44 93 0 0;
#X msg 78 93 1 0;
#X msg 113 93 0 1;
#X obj 68 125 unpack;
#X obj 170 197 line~;
#X obj 245 201 line~;
#X obj 157 19 inlet~;
#X obj 43 24 inlet;
#X obj 155 258 outlet~;
#X obj 170 166 pack f 20;
#X obj 248 164 pack f 20;
#X obj 230 256 outlet~;
#X text 227 23 This code is based (read: copied) entirely from Christopher
Ariza's abstration "mgGate2~" \, a part of the Martingale Library (https://code.google.com/p/martingale/).
;
#X connect 0 0 11 0;
#X connect 1 0 14 0;
#X connect 2 0 3 0;
#X connect 2 1 4 0;
#X connect 2 2 5 0;
#X connect 3 0 6 0;
#X connect 4 0 6 0;
#X connect 5 0 6 0;
#X connect 6 0 12 0;
#X connect 6 1 13 0;
#X connect 7 0 0 1;
#X connect 8 0 1 1;
#X connect 9 0 0 0;
#X connect 9 0 1 0;
#X connect 10 0 2 0;
#X connect 12 0 7 0;
#X connect 13 0 8 0;
#X restore -84 544 pd gate~;
#N canvas 426 73 622 303 gate~ 0;
#X obj 155 222 *~;
#X obj 230 227 *~;
#X obj 43 59 sel 0 1 2;
#X msg 44 93 0 0;
#X msg 78 93 1 0;
#X msg 113 93 0 1;
#X obj 68 125 unpack;
#X obj 170 197 line~;
#X obj 245 201 line~;
#X obj 157 19 inlet~;
#X obj 43 24 inlet;
#X obj 155 258 outlet~;
#X obj 170 166 pack f 20;
#X obj 248 164 pack f 20;
#X obj 230 256 outlet~;
#X text 227 23 This code is based (read: copied) entirely from Christopher
Ariza's abstration "mgGate2~" \, a part of the Martingale Library (https://code.google.com/p/martingale/).
;
#X connect 0 0 11 0;
#X connect 1 0 14 0;
#X connect 2 0 3 0;
#X connect 2 1 4 0;
#X connect 2 2 5 0;
#X connect 3 0 6 0;
#X connect 4 0 6 0;
#X connect 5 0 6 0;
#X connect 6 0 12 0;
#X connect 6 1 13 0;
#X connect 7 0 0 1;
#X connect 8 0 1 1;
#X connect 9 0 0 0;
#X connect 9 0 1 0;
#X connect 10 0 2 0;
#X connect 12 0 7 0;
#X connect 13 0 8 0;
#X restore -60 584 pd gate~;
#N canvas 426 73 622 303 gate~ 0;
#X obj 155 222 *~;
#X obj 230 227 *~;
#X obj 43 59 sel 0 1 2;
#X msg 44 93 0 0;
#X msg 78 93 1 0;
#X msg 113 93 0 1;
#X obj 68 125 unpack;
#X obj 170 197 line~;
#X obj 245 201 line~;
#X obj 157 19 inlet~;
#X obj 43 24 inlet;
#X obj 155 258 outlet~;
#X obj 170 166 pack f 20;
#X obj 248 164 pack f 20;
#X obj 230 256 outlet~;
#X text 227 23 This code is based (read: copied) entirely from Christopher
Ariza's abstration "mgGate2~" \, a part of the Martingale Library (https://code.google.com/p/martingale/).
;
#X connect 0 0 11 0;
#X connect 1 0 14 0;
#X connect 2 0 3 0;
#X connect 2 1 4 0;
#X connect 2 2 5 0;
#X connect 3 0 6 0;
#X connect 4 0 6 0;
#X connect 5 0 6 0;
#X connect 6 0 12 0;
#X connect 6 1 13 0;
#X connect 7 0 0 1;
#X connect 8 0 1 1;
#X connect 9 0 0 0;
#X connect 9 0 1 0;
#X connect 10 0 2 0;
#X connect 12 0 7 0;
#X connect 13 0 8 0;
#X restore -72 564 pd gate~;
#N canvas 426 73 622 303 gate~ 0;
#X obj 155 222 *~;
#X obj 230 227 *~;
#X obj 43 59 sel 0 1 2;
#X msg 44 93 0 0;
#X msg 78 93 1 0;
#X msg 113 93 0 1;
#X obj 68 125 unpack;
#X obj 170 197 line~;
#X obj 245 201 line~;
#X obj 157 19 inlet~;
#X obj 43 24 inlet;
#X obj 155 258 outlet~;
#X obj 170 166 pack f 20;
#X obj 248 164 pack f 20;
#X obj 230 256 outlet~;
#X text 227 23 This code is based (read: copied) entirely from Christopher
Ariza's abstration "mgGate2~" \, a part of the Martingale Library (https://code.google.com/p/martingale/).
;
#X connect 0 0 11 0;
#X connect 1 0 14 0;
#X connect 2 0 3 0;
#X connect 2 1 4 0;
#X connect 2 2 5 0;
#X connect 3 0 6 0;
#X connect 4 0 6 0;
#X connect 5 0 6 0;
#X connect 6 0 12 0;
#X connect 6 1 13 0;
#X connect 7 0 0 1;
#X connect 8 0 1 1;
#X connect 9 0 0 0;
#X connect 9 0 1 0;
#X connect 10 0 2 0;
#X connect 12 0 7 0;
#X connect 13 0 8 0;
#X restore -38 625 pd gate~;
#N canvas 426 73 622 303 gate~ 0;
#X obj 155 222 *~;
#X obj 230 227 *~;
#X obj 43 59 sel 0 1 2;
#X msg 44 93 0 0;
#X msg 78 93 1 0;
#X msg 113 93 0 1;
#X obj 68 125 unpack;
#X obj 170 197 line~;
#X obj 245 201 line~;
#X obj 157 19 inlet~;
#X obj 43 24 inlet;
#X obj 155 258 outlet~;
#X obj 170 166 pack f 20;
#X obj 248 164 pack f 20;
#X obj 230 256 outlet~;
#X text 227 23 This code is based (read: copied) entirely from Christopher
Ariza's abstration "mgGate2~" \, a part of the Martingale Library (https://code.google.com/p/martingale/).
;
#X connect 0 0 11 0;
#X connect 1 0 14 0;
#X connect 2 0 3 0;
#X connect 2 1 4 0;
#X connect 2 2 5 0;
#X connect 3 0 6 0;
#X connect 4 0 6 0;
#X connect 5 0 6 0;
#X connect 6 0 12 0;
#X connect 6 1 13 0;
#X connect 7 0 0 1;
#X connect 8 0 1 1;
#X connect 9 0 0 0;
#X connect 9 0 1 0;
#X connect 10 0 2 0;
#X connect 12 0 7 0;
#X connect 13 0 8 0;
#X restore -131 463 pd gate~;
#X obj 20 364 inlet~;
#N canvas 426 73 622 303 gate~ 0;
#X obj 155 222 *~;
#X obj 230 227 *~;
#X obj 43 59 sel 0 1 2;
#X msg 44 93 0 0;
#X msg 78 93 1 0;
#X msg 113 93 0 1;
#X obj 68 125 unpack;
#X obj 170 197 line~;
#X obj 245 201 line~;
#X obj 157 19 inlet~;
#X obj 43 24 inlet;
#X obj 155 258 outlet~;
#X obj 170 166 pack f 20;
#X obj 248 164 pack f 20;
#X obj 230 256 outlet~;
#X text 227 23 This code is based (read: copied) entirely from Christopher
Ariza's abstration "mgGate2~" \, a part of the Martingale Library (https://code.google.com/p/martingale/).
;
#X connect 0 0 11 0;
#X connect 1 0 14 0;
#X connect 2 0 3 0;
#X connect 2 1 4 0;
#X connect 2 2 5 0;
#X connect 3 0 6 0;
#X connect 4 0 6 0;
#X connect 5 0 6 0;
#X connect 6 0 12 0;
#X connect 6 1 13 0;
#X connect 7 0 0 1;
#X connect 8 0 1 1;
#X connect 9 0 0 0;
#X connect 9 0 1 0;
#X connect 10 0 2 0;
#X connect 12 0 7 0;
#X connect 13 0 8 0;
#X restore -5 481 pd gate~;
#N canvas 426 73 622 303 gate~ 0;
#X obj 155 222 *~;
#X obj 230 227 *~;
#X obj 43 59 sel 0 1 2;
#X msg 44 93 0 0;
#X msg 78 93 1 0;
#X msg 113 93 0 1;
#X obj 68 125 unpack;
#X obj 170 197 line~;
#X obj 245 201 line~;
#X obj 157 19 inlet~;
#X obj 43 24 inlet;
#X obj 155 258 outlet~;
#X obj 170 166 pack f 20;
#X obj 248 164 pack f 20;
#X obj 230 256 outlet~;
#X text 227 23 This code is based (read: copied) entirely from Christopher
Ariza's abstration "mgGate2~" \, a part of the Martingale Library (https://code.google.com/p/martingale/).
;
#X connect 0 0 11 0;
#X connect 1 0 14 0;
#X connect 2 0 3 0;
#X connect 2 1 4 0;
#X connect 2 2 5 0;
#X connect 3 0 6 0;
#X connect 4 0 6 0;
#X connect 5 0 6 0;
#X connect 6 0 12 0;
#X connect 6 1 13 0;
#X connect 7 0 0 1;
#X connect 8 0 1 1;
#X connect 9 0 0 0;
#X connect 9 0 1 0;
#X connect 10 0 2 0;
#X connect 12 0 7 0;
#X connect 13 0 8 0;
#X restore -25 440 pd gate~;
#N canvas 426 73 622 303 gate~ 0;
#X obj 155 222 *~;
#X obj 230 227 *~;
#X obj 43 59 sel 0 1 2;
#X msg 44 93 0 0;
#X msg 78 93 1 0;
#X msg 113 93 0 1;
#X obj 68 125 unpack;
#X obj 170 197 line~;
#X obj 245 201 line~;
#X obj 157 19 inlet~;
#X obj 43 24 inlet;
#X obj 155 258 outlet~;
#X obj 170 166 pack f 20;
#X obj 248 164 pack f 20;
#X obj 230 256 outlet~;
#X text 227 23 This code is based (read: copied) entirely from Christopher
Ariza's abstration "mgGate2~" \, a part of the Martingale Library (https://code.google.com/p/martingale/).
;
#X connect 0 0 11 0;
#X connect 1 0 14 0;
#X connect 2 0 3 0;
#X connect 2 1 4 0;
#X connect 2 2 5 0;
#X connect 3 0 6 0;
#X connect 4 0 6 0;
#X connect 5 0 6 0;
#X connect 6 0 12 0;
#X connect 6 1 13 0;
#X connect 7 0 0 1;
#X connect 8 0 1 1;
#X connect 9 0 0 0;
#X connect 9 0 1 0;
#X connect 10 0 2 0;
#X connect 12 0 7 0;
#X connect 13 0 8 0;
#X restore 6 502 pd gate~;
#N canvas 426 73 622 303 gate~ 0;
#X obj 155 222 *~;
#X obj 230 227 *~;
#X obj 43 59 sel 0 1 2;
#X msg 44 93 0 0;
#X msg 78 93 1 0;
#X msg 113 93 0 1;
#X obj 68 125 unpack;
#X obj 170 197 line~;
#X obj 245 201 line~;
#X obj 157 19 inlet~;
#X obj 43 24 inlet;
#X obj 155 258 outlet~;
#X obj 170 166 pack f 20;
#X obj 248 164 pack f 20;
#X obj 230 256 outlet~;
#X text 227 23 This code is based (read: copied) entirely from Christopher
Ariza's abstration "mgGate2~" \, a part of the Martingale Library (https://code.google.com/p/martingale/).
;
#X connect 0 0 11 0;
#X connect 1 0 14 0;
#X connect 2 0 3 0;
#X connect 2 1 4 0;
#X connect 2 2 5 0;
#X connect 3 0 6 0;
#X connect 4 0 6 0;
#X connect 5 0 6 0;
#X connect 6 0 12 0;
#X connect 6 1 13 0;
#X connect 7 0 0 1;
#X connect 8 0 1 1;
#X connect 9 0 0 0;
#X connect 9 0 1 0;
#X connect 10 0 2 0;
#X connect 12 0 7 0;
#X connect 13 0 8 0;
#X restore 17 522 pd gate~;
#N canvas 426 73 622 303 gate~ 0;
#X obj 155 222 *~;
#X obj 230 227 *~;
#X obj 43 59 sel 0 1 2;
#X msg 44 93 0 0;
#X msg 78 93 1 0;
#X msg 113 93 0 1;
#X obj 68 125 unpack;
#X obj 170 197 line~;
#X obj 245 201 line~;
#X obj 157 19 inlet~;
#X obj 43 24 inlet;
#X obj 155 258 outlet~;
#X obj 170 166 pack f 20;
#X obj 248 164 pack f 20;
#X obj 230 256 outlet~;
#X text 227 23 This code is based (read: copied) entirely from Christopher
Ariza's abstration "mgGate2~" \, a part of the Martingale Library (https://code.google.com/p/martingale/).
;
#X connect 0 0 11 0;
#X connect 1 0 14 0;
#X connect 2 0 3 0;
#X connect 2 1 4 0;
#X connect 2 2 5 0;
#X connect 3 0 6 0;
#X connect 4 0 6 0;
#X connect 5 0 6 0;
#X connect 6 0 12 0;
#X connect 6 1 13 0;
#X connect 7 0 0 1;
#X connect 8 0 1 1;
#X connect 9 0 0 0;
#X connect 9 0 1 0;
#X connect 10 0 2 0;
#X connect 12 0 7 0;
#X connect 13 0 8 0;
#X restore 30 542 pd gate~;
#N canvas 426 73 622 303 gate~ 0;
#X obj 155 222 *~;
#X obj 230 227 *~;
#X obj 43 59 sel 0 1 2;
#X msg 44 93 0 0;
#X msg 78 93 1 0;
#X msg 113 93 0 1;
#X obj 68 125 unpack;
#X obj 170 197 line~;
#X obj 245 201 line~;
#X obj 157 19 inlet~;
#X obj 43 24 inlet;
#X obj 155 258 outlet~;
#X obj 170 166 pack f 20;
#X obj 248 164 pack f 20;
#X obj 230 256 outlet~;
#X text 227 23 This code is based (read: copied) entirely from Christopher
Ariza's abstration "mgGate2~" \, a part of the Martingale Library (https://code.google.com/p/martingale/).
;
#X connect 0 0 11 0;
#X connect 1 0 14 0;
#X connect 2 0 3 0;
#X connect 2 1 4 0;
#X connect 2 2 5 0;
#X connect 3 0 6 0;
#X connect 4 0 6 0;
#X connect 5 0 6 0;
#X connect 6 0 12 0;
#X connect 6 1 13 0;
#X connect 7 0 0 1;
#X connect 8 0 1 1;
#X connect 9 0 0 0;
#X connect 9 0 1 0;
#X connect 10 0 2 0;
#X connect 12 0 7 0;
#X connect 13 0 8 0;
#X restore 54 582 pd gate~;
#N canvas 426 73 622 303 gate~ 0;
#X obj 155 222 *~;
#X obj 230 227 *~;
#X obj 43 59 sel 0 1 2;
#X msg 44 93 0 0;
#X msg 78 93 1 0;
#X msg 113 93 0 1;
#X obj 68 125 unpack;
#X obj 170 197 line~;
#X obj 245 201 line~;
#X obj 157 19 inlet~;
#X obj 43 24 inlet;
#X obj 155 258 outlet~;
#X obj 170 166 pack f 20;
#X obj 248 164 pack f 20;
#X obj 230 256 outlet~;
#X text 227 23 This code is based (read: copied) entirely from Christopher
Ariza's abstration "mgGate2~" \, a part of the Martingale Library (https://code.google.com/p/martingale/).
;
#X connect 0 0 11 0;
#X connect 1 0 14 0;
#X connect 2 0 3 0;
#X connect 2 1 4 0;
#X connect 2 2 5 0;
#X connect 3 0 6 0;
#X connect 4 0 6 0;
#X connect 5 0 6 0;
#X connect 6 0 12 0;
#X connect 6 1 13 0;
#X connect 7 0 0 1;
#X connect 8 0 1 1;
#X connect 9 0 0 0;
#X connect 9 0 1 0;
#X connect 10 0 2 0;
#X connect 12 0 7 0;
#X connect 13 0 8 0;
#X restore 42 562 pd gate~;
#N canvas 426 73 622 303 gate~ 0;
#X obj 155 222 *~;
#X obj 230 227 *~;
#X obj 43 59 sel 0 1 2;
#X msg 44 93 0 0;
#X msg 78 93 1 0;
#X msg 113 93 0 1;
#X obj 68 125 unpack;
#X obj 170 197 line~;
#X obj 245 201 line~;
#X obj 157 19 inlet~;
#X obj 43 24 inlet;
#X obj 155 258 outlet~;
#X obj 170 166 pack f 20;
#X obj 248 164 pack f 20;
#X obj 230 256 outlet~;
#X text 227 23 This code is based (read: copied) entirely from Christopher
Ariza's abstration "mgGate2~" \, a part of the Martingale Library (https://code.google.com/p/martingale/).
;
#X connect 0 0 11 0;
#X connect 1 0 14 0;
#X connect 2 0 3 0;
#X connect 2 1 4 0;
#X connect 2 2 5 0;
#X connect 3 0 6 0;
#X connect 4 0 6 0;
#X connect 5 0 6 0;
#X connect 6 0 12 0;
#X connect 6 1 13 0;
#X connect 7 0 0 1;
#X connect 8 0 1 1;
#X connect 9 0 0 0;
#X connect 9 0 1 0;
#X connect 10 0 2 0;
#X connect 12 0 7 0;
#X connect 13 0 8 0;
#X restore 65 603 pd gate~;
#N canvas 426 73 622 303 gate~ 0;
#X obj 155 222 *~;
#X obj 230 227 *~;
#X obj 43 59 sel 0 1 2;
#X msg 44 93 0 0;
#X msg 78 93 1 0;
#X msg 113 93 0 1;
#X obj 68 125 unpack;
#X obj 170 197 line~;
#X obj 245 201 line~;
#X obj 157 19 inlet~;
#X obj 43 24 inlet;
#X obj 155 258 outlet~;
#X obj 170 166 pack f 20;
#X obj 248 164 pack f 20;
#X obj 230 256 outlet~;
#X text 227 23 This code is based (read: copied) entirely from Christopher
Ariza's abstration "mgGate2~" \, a part of the Martingale Library (https://code.google.com/p/martingale/).
;
#X connect 0 0 11 0;
#X connect 1 0 14 0;
#X connect 2 0 3 0;
#X connect 2 1 4 0;
#X connect 2 2 5 0;
#X connect 3 0 6 0;
#X connect 4 0 6 0;
#X connect 5 0 6 0;
#X connect 6 0 12 0;
#X connect 6 1 13 0;
#X connect 7 0 0 1;
#X connect 8 0 1 1;
#X connect 9 0 0 0;
#X connect 9 0 1 0;
#X connect 10 0 2 0;
#X connect 12 0 7 0;
#X connect 13 0 8 0;
#X restore -17 461 pd gate~;
#X connect 0 0 111 1;
#X connect 0 0 112 1;
#X connect 0 0 113 1;
#X connect 0 0 114 1;
#X connect 0 0 116 1;
#X connect 0 0 115 1;
#X connect 0 0 117 1;
#X connect 0 0 118 1;
#X connect 0 0 120 1;
#X connect 3 0 120 0;
#X connect 4 0 111 0;
#X connect 5 0 112 0;
#X connect 6 0 113 0;
#X connect 7 0 114 0;
#X connect 8 0 123 0;
#X connect 9 0 122 0;
#X connect 10 0 124 0;
#X connect 11 0 125 0;
#X connect 12 0 126 0;
#X connect 13 0 132 0;
#X connect 14 0 140 0;
#X connect 15 0 133 0;
#X connect 16 0 134 0;
#X connect 17 0 135 0;
#X connect 19 0 143 0;
#X connect 20 0 150 0;
#X connect 21 0 142 0;
#X connect 22 0 144 0;
#X connect 23 0 145 0;
#X connect 24 0 153 0;
#X connect 25 0 160 0;
#X connect 26 0 152 0;
#X connect 27 0 154 0;
#X connect 28 0 155 0;
#X connect 29 0 163 0;
#X connect 30 0 170 0;
#X connect 31 0 162 0;
#X connect 32 0 164 0;
#X connect 33 0 165 0;
#X connect 38 0 115 0;
#X connect 39 0 117 0;
#X connect 40 0 118 0;
#X connect 41 0 116 0;
#X connect 42 0 127 0;
#X connect 43 0 129 0;
#X connect 44 0 130 0;
#X connect 45 0 128 0;
#X connect 46 0 136 0;
#X connect 47 0 138 0;
#X connect 48 0 139 0;
#X connect 49 0 137 0;
#X connect 50 0 146 0;
#X connect 51 0 148 0;
#X connect 52 0 149 0;
#X connect 53 0 147 0;
#X connect 54 0 156 0;
#X connect 55 0 158 0;
#X connect 56 0 159 0;
#X connect 57 0 157 0;
#X connect 62 0 166 0;
#X connect 63 0 168 0;
#X connect 64 0 169 0;
#X connect 65 0 167 0;
#X connect 66 0 177 0;
#X connect 67 0 178 0;
#X connect 68 0 179 0;
#X connect 69 0 188 0;
#X connect 70 0 189 0;
#X connect 71 0 187 0;
#X connect 75 0 197 0;
#X connect 76 0 199 0;
#X connect 77 0 198 0;
#X connect 78 0 207 0;
#X connect 79 0 209 0;
#X connect 80 0 208 0;
#X connect 81 0 174 0;
#X connect 82 0 175 0;
#X connect 83 0 176 0;
#X connect 84 0 172 0;
#X connect 85 0 184 0;
#X connect 86 0 185 0;
#X connect 87 0 186 0;
#X connect 88 0 182 0;
#X connect 89 0 194 0;
#X connect 90 0 195 0;
#X connect 91 0 196 0;
#X connect 92 0 192 0;
#X connect 93 0 204 0;
#X connect 94 0 205 0;
#X connect 95 0 206 0;
#X connect 96 0 202 0;
#X connect 97 0 180 0;
#X connect 98 0 173 0;
#X connect 99 0 190 0;
#X connect 100 0 183 0;
#X connect 101 0 200 0;
#X connect 102 0 193 0;
#X connect 103 0 210 0;
#X connect 104 0 203 0;
#X connect 111 0 18 0;
#X connect 112 0 34 0;
#X connect 113 0 35 0;
#X connect 114 0 36 0;
#X connect 115 0 106 0;
#X connect 116 0 105 0;
#X connect 117 0 107 0;
#X connect 118 0 108 0;
#X connect 120 0 2 0;
#X connect 121 0 122 1;
#X connect 121 0 123 1;
#X connect 121 0 124 1;
#X connect 121 0 125 1;
#X connect 121 0 126 1;
#X connect 121 0 128 1;
#X connect 121 0 127 1;
#X connect 121 0 129 1;
#X connect 121 0 130 1;
#X connect 122 0 18 0;
#X connect 123 0 1 0;
#X connect 124 0 34 0;
#X connect 125 0 35 0;
#X connect 126 0 36 0;
#X connect 127 0 106 0;
#X connect 128 0 105 0;
#X connect 129 0 107 0;
#X connect 130 0 108 0;
#X connect 131 0 132 1;
#X connect 131 0 133 1;
#X connect 131 0 134 1;
#X connect 131 0 135 1;
#X connect 131 0 137 1;
#X connect 131 0 136 1;
#X connect 131 0 138 1;
#X connect 131 0 139 1;
#X connect 131 0 140 1;
#X connect 132 0 1 0;
#X connect 133 0 34 0;
#X connect 134 0 35 0;
#X connect 135 0 36 0;
#X connect 136 0 106 0;
#X connect 137 0 105 0;
#X connect 138 0 107 0;
#X connect 139 0 108 0;
#X connect 140 0 2 0;
#X connect 141 0 142 1;
#X connect 141 0 143 1;
#X connect 141 0 144 1;
#X connect 141 0 145 1;
#X connect 141 0 147 1;
#X connect 141 0 146 1;
#X connect 141 0 148 1;
#X connect 141 0 149 1;
#X connect 141 0 150 1;
#X connect 142 0 18 0;
#X connect 143 0 1 0;
#X connect 144 0 35 0;
#X connect 145 0 36 0;
#X connect 146 0 106 0;
#X connect 147 0 105 0;
#X connect 148 0 107 0;
#X connect 149 0 108 0;
#X connect 150 0 2 0;
#X connect 151 0 152 1;
#X connect 151 0 153 1;
#X connect 151 0 154 1;
#X connect 151 0 155 1;
#X connect 151 0 157 1;
#X connect 151 0 156 1;
#X connect 151 0 158 1;
#X connect 151 0 159 1;
#X connect 151 0 160 1;
#X connect 152 0 18 0;
#X connect 153 0 1 0;
#X connect 154 0 34 0;
#X connect 155 0 36 0;
#X connect 156 0 106 0;
#X connect 157 0 105 0;
#X connect 158 0 107 0;
#X connect 159 0 108 0;
#X connect 160 0 2 0;
#X connect 161 0 162 1;
#X connect 161 0 163 1;
#X connect 161 0 164 1;
#X connect 161 0 165 1;
#X connect 161 0 167 1;
#X connect 161 0 166 1;
#X connect 161 0 168 1;
#X connect 161 0 169 1;
#X connect 161 0 170 1;
#X connect 162 0 18 0;
#X connect 163 0 1 0;
#X connect 164 0 34 0;
#X connect 165 0 35 0;
#X connect 166 0 106 0;
#X connect 167 0 105 0;
#X connect 168 0 107 0;
#X connect 169 0 108 0;
#X connect 170 0 2 0;
#X connect 171 0 172 1;
#X connect 171 0 173 1;
#X connect 171 0 174 1;
#X connect 171 0 175 1;
#X connect 171 0 176 1;
#X connect 171 0 177 1;
#X connect 171 0 178 1;
#X connect 171 0 179 1;
#X connect 171 0 180 1;
#X connect 172 0 18 0;
#X connect 173 0 1 0;
#X connect 174 0 34 0;
#X connect 175 0 35 0;
#X connect 176 0 36 0;
#X connect 177 0 106 0;
#X connect 178 0 107 0;
#X connect 179 0 108 0;
#X connect 180 0 2 0;
#X connect 181 0 182 1;
#X connect 181 0 183 1;
#X connect 181 0 184 1;
#X connect 181 0 185 1;
#X connect 181 0 186 1;
#X connect 181 0 187 1;
#X connect 181 0 188 1;
#X connect 181 0 189 1;
#X connect 181 0 190 1;
#X connect 182 0 18 0;
#X connect 183 0 1 0;
#X connect 184 0 34 0;
#X connect 185 0 35 0;
#X connect 186 0 36 0;
#X connect 187 0 105 0;
#X connect 188 0 107 0;
#X connect 189 0 108 0;
#X connect 190 0 2 0;
#X connect 191 0 192 1;
#X connect 191 0 193 1;
#X connect 191 0 194 1;
#X connect 191 0 195 1;
#X connect 191 0 196 1;
#X connect 191 0 198 1;
#X connect 191 0 197 1;
#X connect 191 0 199 1;
#X connect 191 0 200 1;
#X connect 192 0 18 0;
#X connect 193 0 1 0;
#X connect 194 0 34 0;
#X connect 195 0 35 0;
#X connect 196 0 36 0;
#X connect 197 0 106 0;
#X connect 198 0 105 0;
#X connect 199 0 108 0;
#X connect 200 0 2 0;
#X connect 201 0 202 1;
#X connect 201 0 203 1;
#X connect 201 0 204 1;
#X connect 201 0 205 1;
#X connect 201 0 206 1;
#X connect 201 0 208 1;
#X connect 201 0 207 1;
#X connect 201 0 209 1;
#X connect 201 0 210 1;
#X connect 202 0 18 0;
#X connect 203 0 1 0;
#X connect 204 0 34 0;
#X connect 205 0 35 0;
#X connect 206 0 36 0;
#X connect 207 0 106 0;
#X connect 208 0 105 0;
#X connect 209 0 107 0;
#X connect 210 0 2 0;
#X coords 0 -1 1 1 250 250 2 100 100;
