#N canvas 844 222 687 543 10;
#X obj 94 133 hsl 64 15 0 1 0 0 empty empty empty -2 -8 0 10 -262144
-1 -1 0 1;
#X floatatom 107 162 5 0 0 0 - - -, f 5;
#X obj -359 253 *~;
#X obj 92 181 - 1;
#X floatatom 109 228 5 0 0 0 - - -, f 5;
#X obj 92 203 * -1;
#X obj -161 253 *~;
#X text -411 252 Dry Sig;
#X text -212 252 Wet Sig;
#X obj 91 46 inlet dry_wet_ctrl;
#X obj -278 253 *~;
#X obj -359 39 inlet~ dry1;
#X obj -279 39 inlet~ dry2;
#X obj -81 253 *~;
#X obj -161 39 inlet~ wet1;
#X obj -81 39 inlet~ wet2;
#X obj -358 384 outlet~ out1;
#X obj -278 384 outlet~ out2;
#X connect 0 0 1 0;
#X connect 0 0 3 0;
#X connect 0 0 6 1;
#X connect 0 0 13 1;
#X connect 2 0 16 0;
#X connect 3 0 5 0;
#X connect 5 0 4 0;
#X connect 5 0 2 1;
#X connect 5 0 10 1;
#X connect 6 0 16 0;
#X connect 9 0 0 0;
#X connect 10 0 17 0;
#X connect 11 0 2 0;
#X connect 12 0 10 0;
#X connect 13 0 17 0;
#X connect 14 0 6 0;
#X connect 15 0 13 0;
