#N canvas 1913 98 1406 855 10;
#X obj -626 266 inlet~;
#X obj -662 520 outlet~;
#X obj -522 521 outlet~;
#X obj 133 108 tgl 15 0 empty empty empty 17 7 0 10 -262144 -1 -1 0
1;
#X obj 153 108 tgl 15 0 empty empty empty 17 7 0 10 -262144 -1 -1 0
1;
#X obj 176 109 tgl 15 0 empty empty empty 17 7 0 10 -262144 -1 -1 0
1;
#X obj 201 108 tgl 15 0 empty empty empty 17 7 0 10 -262144 -1 -1 0
1;
#X obj 226 108 tgl 15 0 empty empty empty 17 7 0 10 -262144 -1 -1 0
1;
#X obj 112 128 tgl 15 0 empty empty empty 17 7 0 10 -262144 -1 -1 0
1;
#X obj 155 128 tgl 15 0 empty empty empty 17 7 0 10 -262144 -1 -1 0
1;
#X obj 178 128 tgl 15 0 empty empty empty 17 7 0 10 -262144 -1 -1 0
1;
#X obj 202 127 tgl 15 0 empty empty empty 17 7 0 10 -262144 -1 -1 0
1;
#X obj 225 127 tgl 15 0 empty empty empty 17 7 0 10 -262144 -1 -1 0
1;
#X obj 110 152 tgl 15 0 empty empty empty 17 7 0 10 -262144 -1 -1 0
1;
#X obj 135 152 tgl 15 0 empty empty empty 17 7 0 10 -262144 -1 -1 0
1;
#X obj 177 152 tgl 15 0 empty empty empty 17 7 0 10 -262144 -1 -1 0
1;
#X obj 202 152 tgl 15 0 empty empty empty 17 7 0 10 -262144 -1 -1 0
1;
#X obj 228 150 tgl 15 0 empty empty empty 17 7 0 10 -262144 -1 -1 0
1;
#X obj -373 520 outlet~;
#X obj 111 176 tgl 15 0 empty empty empty 17 7 0 10 -262144 -1 -1 0
1;
#X obj 136 177 tgl 15 0 empty empty empty 17 7 0 10 -262144 -1 -1 0
1;
#X obj 160 177 tgl 15 0 empty empty empty 17 7 0 10 -262144 -1 -1 0
1;
#X obj 203 177 tgl 15 0 empty empty empty 17 7 0 10 -262144 -1 -1 0
1;
#X obj 228 177 tgl 15 0 empty empty empty 17 7 0 10 -262144 -1 -1 0
1;
#X obj 109 205 tgl 15 0 empty empty empty 17 7 0 10 -262144 -1 -1 0
1;
#X obj 134 207 tgl 15 0 empty empty empty 17 7 0 10 -262144 -1 -1 0
1;
#X obj 158 205 tgl 15 0 empty empty empty 17 7 0 10 -262144 -1 -1 0
1;
#X obj 180 204 tgl 15 0 empty empty empty 17 7 0 10 -262144 -1 -1 0
1;
#X obj 231 204 tgl 15 0 empty empty empty 17 7 0 10 -262144 -1 -1 0
1;
#X obj 108 228 tgl 15 0 empty empty empty 17 7 0 10 -262144 -1 -1 0
1;
#X obj 133 228 tgl 15 0 empty empty empty 17 7 0 10 -262144 -1 -1 0
1;
#X obj 157 227 tgl 15 0 empty empty empty 17 7 0 10 -262144 -1 -1 0
1;
#X obj 181 228 tgl 15 0 empty empty empty 17 7 0 10 -262144 -1 -1 0
1;
#X obj 203 227 tgl 15 0 empty empty empty 17 7 0 10 -262144 -1 -1 0
1;
#X obj -241 518 outlet~;
#X obj -141 518 outlet~;
#X text -668 84 A 6 input/6 output matrix audio router.;
#X text -670 47 tdh.util.10x10.audio.routing.matrix~;
#N canvas 426 73 622 303 gate~ 0;
#X obj 155 222 *~;
#X obj 230 227 *~;
#X obj 43 59 sel 0 1 2;
#X msg 44 93 0 0;
#X msg 78 93 1 0;
#X msg 113 93 0 1;
#X obj 68 125 unpack;
#X obj 170 197 line~;
#X obj 245 201 line~;
#X obj 157 19 inlet~;
#X obj 43 24 inlet;
#X obj 155 258 outlet~;
#X obj 170 166 pack f 20;
#X obj 248 164 pack f 20;
#X obj 230 256 outlet~;
#X text 227 23 This code is based (read: copied) entirely from Christopher
Ariza's abstration "mgGate2~" \, a part of the Martingale Library (https://code.google.com/p/martingale/).
;
#X connect 0 0 11 0;
#X connect 1 0 14 0;
#X connect 2 0 3 0;
#X connect 2 1 4 0;
#X connect 2 2 5 0;
#X connect 3 0 6 0;
#X connect 4 0 6 0;
#X connect 5 0 6 0;
#X connect 6 0 12 0;
#X connect 6 1 13 0;
#X connect 7 0 0 1;
#X connect 8 0 1 1;
#X connect 9 0 0 0;
#X connect 9 0 1 0;
#X connect 10 0 2 0;
#X connect 12 0 7 0;
#X connect 13 0 8 0;
#X restore -651 380 pd gate~;
#N canvas 426 73 622 303 gate~ 0;
#X obj 155 222 *~;
#X obj 230 227 *~;
#X obj 43 59 sel 0 1 2;
#X msg 44 93 0 0;
#X msg 78 93 1 0;
#X msg 113 93 0 1;
#X obj 68 125 unpack;
#X obj 170 197 line~;
#X obj 245 201 line~;
#X obj 157 19 inlet~;
#X obj 43 24 inlet;
#X obj 155 258 outlet~;
#X obj 170 166 pack f 20;
#X obj 248 164 pack f 20;
#X obj 230 256 outlet~;
#X text 227 23 This code is based (read: copied) entirely from Christopher
Ariza's abstration "mgGate2~" \, a part of the Martingale Library (https://code.google.com/p/martingale/).
;
#X connect 0 0 11 0;
#X connect 1 0 14 0;
#X connect 2 0 3 0;
#X connect 2 1 4 0;
#X connect 2 2 5 0;
#X connect 3 0 6 0;
#X connect 4 0 6 0;
#X connect 5 0 6 0;
#X connect 6 0 12 0;
#X connect 6 1 13 0;
#X connect 7 0 0 1;
#X connect 8 0 1 1;
#X connect 9 0 0 0;
#X connect 9 0 1 0;
#X connect 10 0 2 0;
#X connect 12 0 7 0;
#X connect 13 0 8 0;
#X restore -640 401 pd gate~;
#N canvas 426 73 622 303 gate~ 0;
#X obj 155 222 *~;
#X obj 230 227 *~;
#X obj 43 59 sel 0 1 2;
#X msg 44 93 0 0;
#X msg 78 93 1 0;
#X msg 113 93 0 1;
#X obj 68 125 unpack;
#X obj 170 197 line~;
#X obj 245 201 line~;
#X obj 157 19 inlet~;
#X obj 43 24 inlet;
#X obj 155 258 outlet~;
#X obj 170 166 pack f 20;
#X obj 248 164 pack f 20;
#X obj 230 256 outlet~;
#X text 227 23 This code is based (read: copied) entirely from Christopher
Ariza's abstration "mgGate2~" \, a part of the Martingale Library (https://code.google.com/p/martingale/).
;
#X connect 0 0 11 0;
#X connect 1 0 14 0;
#X connect 2 0 3 0;
#X connect 2 1 4 0;
#X connect 2 2 5 0;
#X connect 3 0 6 0;
#X connect 4 0 6 0;
#X connect 5 0 6 0;
#X connect 6 0 12 0;
#X connect 6 1 13 0;
#X connect 7 0 0 1;
#X connect 8 0 1 1;
#X connect 9 0 0 0;
#X connect 9 0 1 0;
#X connect 10 0 2 0;
#X connect 12 0 7 0;
#X connect 13 0 8 0;
#X restore -629 421 pd gate~;
#N canvas 426 73 622 303 gate~ 0;
#X obj 155 222 *~;
#X obj 230 227 *~;
#X obj 43 59 sel 0 1 2;
#X msg 44 93 0 0;
#X msg 78 93 1 0;
#X msg 113 93 0 1;
#X obj 68 125 unpack;
#X obj 170 197 line~;
#X obj 245 201 line~;
#X obj 157 19 inlet~;
#X obj 43 24 inlet;
#X obj 155 258 outlet~;
#X obj 170 166 pack f 20;
#X obj 248 164 pack f 20;
#X obj 230 256 outlet~;
#X text 227 23 This code is based (read: copied) entirely from Christopher
Ariza's abstration "mgGate2~" \, a part of the Martingale Library (https://code.google.com/p/martingale/).
;
#X connect 0 0 11 0;
#X connect 1 0 14 0;
#X connect 2 0 3 0;
#X connect 2 1 4 0;
#X connect 2 2 5 0;
#X connect 3 0 6 0;
#X connect 4 0 6 0;
#X connect 5 0 6 0;
#X connect 6 0 12 0;
#X connect 6 1 13 0;
#X connect 7 0 0 1;
#X connect 8 0 1 1;
#X connect 9 0 0 0;
#X connect 9 0 1 0;
#X connect 10 0 2 0;
#X connect 12 0 7 0;
#X connect 13 0 8 0;
#X restore -616 441 pd gate~;
#N canvas 426 73 622 303 gate~ 0;
#X obj 155 222 *~;
#X obj 230 227 *~;
#X obj 43 59 sel 0 1 2;
#X msg 44 93 0 0;
#X msg 78 93 1 0;
#X msg 113 93 0 1;
#X obj 68 125 unpack;
#X obj 170 197 line~;
#X obj 245 201 line~;
#X obj 157 19 inlet~;
#X obj 43 24 inlet;
#X obj 155 258 outlet~;
#X obj 170 166 pack f 20;
#X obj 248 164 pack f 20;
#X obj 230 256 outlet~;
#X text 227 23 This code is based (read: copied) entirely from Christopher
Ariza's abstration "mgGate2~" \, a part of the Martingale Library (https://code.google.com/p/martingale/).
;
#X connect 0 0 11 0;
#X connect 1 0 14 0;
#X connect 2 0 3 0;
#X connect 2 1 4 0;
#X connect 2 2 5 0;
#X connect 3 0 6 0;
#X connect 4 0 6 0;
#X connect 5 0 6 0;
#X connect 6 0 12 0;
#X connect 6 1 13 0;
#X connect 7 0 0 1;
#X connect 8 0 1 1;
#X connect 9 0 0 0;
#X connect 9 0 1 0;
#X connect 10 0 2 0;
#X connect 12 0 7 0;
#X connect 13 0 8 0;
#X restore -663 360 pd gate~;
#X obj -490 267 inlet~;
#N canvas 426 73 622 303 gate~ 0;
#X obj 155 222 *~;
#X obj 230 227 *~;
#X obj 43 59 sel 0 1 2;
#X msg 44 93 0 0;
#X msg 78 93 1 0;
#X msg 113 93 0 1;
#X obj 68 125 unpack;
#X obj 170 197 line~;
#X obj 245 201 line~;
#X obj 157 19 inlet~;
#X obj 43 24 inlet;
#X obj 155 258 outlet~;
#X obj 170 166 pack f 20;
#X obj 248 164 pack f 20;
#X obj 230 256 outlet~;
#X text 227 23 This code is based (read: copied) entirely from Christopher
Ariza's abstration "mgGate2~" \, a part of the Martingale Library (https://code.google.com/p/martingale/).
;
#X connect 0 0 11 0;
#X connect 1 0 14 0;
#X connect 2 0 3 0;
#X connect 2 1 4 0;
#X connect 2 2 5 0;
#X connect 3 0 6 0;
#X connect 4 0 6 0;
#X connect 5 0 6 0;
#X connect 6 0 12 0;
#X connect 6 1 13 0;
#X connect 7 0 0 1;
#X connect 8 0 1 1;
#X connect 9 0 0 0;
#X connect 9 0 1 0;
#X connect 10 0 2 0;
#X connect 12 0 7 0;
#X connect 13 0 8 0;
#X restore -515 381 pd gate~;
#N canvas 426 73 622 303 gate~ 0;
#X obj 155 222 *~;
#X obj 230 227 *~;
#X obj 43 59 sel 0 1 2;
#X msg 44 93 0 0;
#X msg 78 93 1 0;
#X msg 113 93 0 1;
#X obj 68 125 unpack;
#X obj 170 197 line~;
#X obj 245 201 line~;
#X obj 157 19 inlet~;
#X obj 43 24 inlet;
#X obj 155 258 outlet~;
#X obj 170 166 pack f 20;
#X obj 248 164 pack f 20;
#X obj 230 256 outlet~;
#X text 227 23 This code is based (read: copied) entirely from Christopher
Ariza's abstration "mgGate2~" \, a part of the Martingale Library (https://code.google.com/p/martingale/).
;
#X connect 0 0 11 0;
#X connect 1 0 14 0;
#X connect 2 0 3 0;
#X connect 2 1 4 0;
#X connect 2 2 5 0;
#X connect 3 0 6 0;
#X connect 4 0 6 0;
#X connect 5 0 6 0;
#X connect 6 0 12 0;
#X connect 6 1 13 0;
#X connect 7 0 0 1;
#X connect 8 0 1 1;
#X connect 9 0 0 0;
#X connect 9 0 1 0;
#X connect 10 0 2 0;
#X connect 12 0 7 0;
#X connect 13 0 8 0;
#X restore -536 343 pd gate~;
#N canvas 426 73 622 303 gate~ 0;
#X obj 155 222 *~;
#X obj 230 227 *~;
#X obj 43 59 sel 0 1 2;
#X msg 44 93 0 0;
#X msg 78 93 1 0;
#X msg 113 93 0 1;
#X obj 68 125 unpack;
#X obj 170 197 line~;
#X obj 245 201 line~;
#X obj 157 19 inlet~;
#X obj 43 24 inlet;
#X obj 155 258 outlet~;
#X obj 170 166 pack f 20;
#X obj 248 164 pack f 20;
#X obj 230 256 outlet~;
#X text 227 23 This code is based (read: copied) entirely from Christopher
Ariza's abstration "mgGate2~" \, a part of the Martingale Library (https://code.google.com/p/martingale/).
;
#X connect 0 0 11 0;
#X connect 1 0 14 0;
#X connect 2 0 3 0;
#X connect 2 1 4 0;
#X connect 2 2 5 0;
#X connect 3 0 6 0;
#X connect 4 0 6 0;
#X connect 5 0 6 0;
#X connect 6 0 12 0;
#X connect 6 1 13 0;
#X connect 7 0 0 1;
#X connect 8 0 1 1;
#X connect 9 0 0 0;
#X connect 9 0 1 0;
#X connect 10 0 2 0;
#X connect 12 0 7 0;
#X connect 13 0 8 0;
#X restore -504 402 pd gate~;
#N canvas 426 73 622 303 gate~ 0;
#X obj 155 222 *~;
#X obj 230 227 *~;
#X obj 43 59 sel 0 1 2;
#X msg 44 93 0 0;
#X msg 78 93 1 0;
#X msg 113 93 0 1;
#X obj 68 125 unpack;
#X obj 170 197 line~;
#X obj 245 201 line~;
#X obj 157 19 inlet~;
#X obj 43 24 inlet;
#X obj 155 258 outlet~;
#X obj 170 166 pack f 20;
#X obj 248 164 pack f 20;
#X obj 230 256 outlet~;
#X text 227 23 This code is based (read: copied) entirely from Christopher
Ariza's abstration "mgGate2~" \, a part of the Martingale Library (https://code.google.com/p/martingale/).
;
#X connect 0 0 11 0;
#X connect 1 0 14 0;
#X connect 2 0 3 0;
#X connect 2 1 4 0;
#X connect 2 2 5 0;
#X connect 3 0 6 0;
#X connect 4 0 6 0;
#X connect 5 0 6 0;
#X connect 6 0 12 0;
#X connect 6 1 13 0;
#X connect 7 0 0 1;
#X connect 8 0 1 1;
#X connect 9 0 0 0;
#X connect 9 0 1 0;
#X connect 10 0 2 0;
#X connect 12 0 7 0;
#X connect 13 0 8 0;
#X restore -493 422 pd gate~;
#N canvas 426 73 622 303 gate~ 0;
#X obj 155 222 *~;
#X obj 230 227 *~;
#X obj 43 59 sel 0 1 2;
#X msg 44 93 0 0;
#X msg 78 93 1 0;
#X msg 113 93 0 1;
#X obj 68 125 unpack;
#X obj 170 197 line~;
#X obj 245 201 line~;
#X obj 157 19 inlet~;
#X obj 43 24 inlet;
#X obj 155 258 outlet~;
#X obj 170 166 pack f 20;
#X obj 248 164 pack f 20;
#X obj 230 256 outlet~;
#X text 227 23 This code is based (read: copied) entirely from Christopher
Ariza's abstration "mgGate2~" \, a part of the Martingale Library (https://code.google.com/p/martingale/).
;
#X connect 0 0 11 0;
#X connect 1 0 14 0;
#X connect 2 0 3 0;
#X connect 2 1 4 0;
#X connect 2 2 5 0;
#X connect 3 0 6 0;
#X connect 4 0 6 0;
#X connect 5 0 6 0;
#X connect 6 0 12 0;
#X connect 6 1 13 0;
#X connect 7 0 0 1;
#X connect 8 0 1 1;
#X connect 9 0 0 0;
#X connect 9 0 1 0;
#X connect 10 0 2 0;
#X connect 12 0 7 0;
#X connect 13 0 8 0;
#X restore -480 442 pd gate~;
#X obj -362 266 inlet~;
#N canvas 426 73 622 303 gate~ 0;
#X obj 155 222 *~;
#X obj 230 227 *~;
#X obj 43 59 sel 0 1 2;
#X msg 44 93 0 0;
#X msg 78 93 1 0;
#X msg 113 93 0 1;
#X obj 68 125 unpack;
#X obj 170 197 line~;
#X obj 245 201 line~;
#X obj 157 19 inlet~;
#X obj 43 24 inlet;
#X obj 155 258 outlet~;
#X obj 170 166 pack f 20;
#X obj 248 164 pack f 20;
#X obj 230 256 outlet~;
#X text 227 23 This code is based (read: copied) entirely from Christopher
Ariza's abstration "mgGate2~" \, a part of the Martingale Library (https://code.google.com/p/martingale/).
;
#X connect 0 0 11 0;
#X connect 1 0 14 0;
#X connect 2 0 3 0;
#X connect 2 1 4 0;
#X connect 2 2 5 0;
#X connect 3 0 6 0;
#X connect 4 0 6 0;
#X connect 5 0 6 0;
#X connect 6 0 12 0;
#X connect 6 1 13 0;
#X connect 7 0 0 1;
#X connect 8 0 1 1;
#X connect 9 0 0 0;
#X connect 9 0 1 0;
#X connect 10 0 2 0;
#X connect 12 0 7 0;
#X connect 13 0 8 0;
#X restore -407 339 pd gate~;
#N canvas 426 73 622 303 gate~ 0;
#X obj 155 222 *~;
#X obj 230 227 *~;
#X obj 43 59 sel 0 1 2;
#X msg 44 93 0 0;
#X msg 78 93 1 0;
#X msg 113 93 0 1;
#X obj 68 125 unpack;
#X obj 170 197 line~;
#X obj 245 201 line~;
#X obj 157 19 inlet~;
#X obj 43 24 inlet;
#X obj 155 258 outlet~;
#X obj 170 166 pack f 20;
#X obj 248 164 pack f 20;
#X obj 230 256 outlet~;
#X text 227 23 This code is based (read: copied) entirely from Christopher
Ariza's abstration "mgGate2~" \, a part of the Martingale Library (https://code.google.com/p/martingale/).
;
#X connect 0 0 11 0;
#X connect 1 0 14 0;
#X connect 2 0 3 0;
#X connect 2 1 4 0;
#X connect 2 2 5 0;
#X connect 3 0 6 0;
#X connect 4 0 6 0;
#X connect 5 0 6 0;
#X connect 6 0 12 0;
#X connect 6 1 13 0;
#X connect 7 0 0 1;
#X connect 8 0 1 1;
#X connect 9 0 0 0;
#X connect 9 0 1 0;
#X connect 10 0 2 0;
#X connect 12 0 7 0;
#X connect 13 0 8 0;
#X restore -376 401 pd gate~;
#N canvas 426 73 622 303 gate~ 0;
#X obj 155 222 *~;
#X obj 230 227 *~;
#X obj 43 59 sel 0 1 2;
#X msg 44 93 0 0;
#X msg 78 93 1 0;
#X msg 113 93 0 1;
#X obj 68 125 unpack;
#X obj 170 197 line~;
#X obj 245 201 line~;
#X obj 157 19 inlet~;
#X obj 43 24 inlet;
#X obj 155 258 outlet~;
#X obj 170 166 pack f 20;
#X obj 248 164 pack f 20;
#X obj 230 256 outlet~;
#X text 227 23 This code is based (read: copied) entirely from Christopher
Ariza's abstration "mgGate2~" \, a part of the Martingale Library (https://code.google.com/p/martingale/).
;
#X connect 0 0 11 0;
#X connect 1 0 14 0;
#X connect 2 0 3 0;
#X connect 2 1 4 0;
#X connect 2 2 5 0;
#X connect 3 0 6 0;
#X connect 4 0 6 0;
#X connect 5 0 6 0;
#X connect 6 0 12 0;
#X connect 6 1 13 0;
#X connect 7 0 0 1;
#X connect 8 0 1 1;
#X connect 9 0 0 0;
#X connect 9 0 1 0;
#X connect 10 0 2 0;
#X connect 12 0 7 0;
#X connect 13 0 8 0;
#X restore -365 421 pd gate~;
#N canvas 426 73 622 303 gate~ 0;
#X obj 155 222 *~;
#X obj 230 227 *~;
#X obj 43 59 sel 0 1 2;
#X msg 44 93 0 0;
#X msg 78 93 1 0;
#X msg 113 93 0 1;
#X obj 68 125 unpack;
#X obj 170 197 line~;
#X obj 245 201 line~;
#X obj 157 19 inlet~;
#X obj 43 24 inlet;
#X obj 155 258 outlet~;
#X obj 170 166 pack f 20;
#X obj 248 164 pack f 20;
#X obj 230 256 outlet~;
#X text 227 23 This code is based (read: copied) entirely from Christopher
Ariza's abstration "mgGate2~" \, a part of the Martingale Library (https://code.google.com/p/martingale/).
;
#X connect 0 0 11 0;
#X connect 1 0 14 0;
#X connect 2 0 3 0;
#X connect 2 1 4 0;
#X connect 2 2 5 0;
#X connect 3 0 6 0;
#X connect 4 0 6 0;
#X connect 5 0 6 0;
#X connect 6 0 12 0;
#X connect 6 1 13 0;
#X connect 7 0 0 1;
#X connect 8 0 1 1;
#X connect 9 0 0 0;
#X connect 9 0 1 0;
#X connect 10 0 2 0;
#X connect 12 0 7 0;
#X connect 13 0 8 0;
#X restore -346 441 pd gate~;
#N canvas 426 73 622 303 gate~ 0;
#X obj 155 222 *~;
#X obj 230 227 *~;
#X obj 43 59 sel 0 1 2;
#X msg 44 93 0 0;
#X msg 78 93 1 0;
#X msg 113 93 0 1;
#X obj 68 125 unpack;
#X obj 170 197 line~;
#X obj 245 201 line~;
#X obj 157 19 inlet~;
#X obj 43 24 inlet;
#X obj 155 258 outlet~;
#X obj 170 166 pack f 20;
#X obj 248 164 pack f 20;
#X obj 230 256 outlet~;
#X text 227 23 This code is based (read: copied) entirely from Christopher
Ariza's abstration "mgGate2~" \, a part of the Martingale Library (https://code.google.com/p/martingale/).
;
#X connect 0 0 11 0;
#X connect 1 0 14 0;
#X connect 2 0 3 0;
#X connect 2 1 4 0;
#X connect 2 2 5 0;
#X connect 3 0 6 0;
#X connect 4 0 6 0;
#X connect 5 0 6 0;
#X connect 6 0 12 0;
#X connect 6 1 13 0;
#X connect 7 0 0 1;
#X connect 8 0 1 1;
#X connect 9 0 0 0;
#X connect 9 0 1 0;
#X connect 10 0 2 0;
#X connect 12 0 7 0;
#X connect 13 0 8 0;
#X restore -399 360 pd gate~;
#X obj -232 264 inlet~;
#N canvas 426 73 622 303 gate~ 0;
#X obj 155 222 *~;
#X obj 230 227 *~;
#X obj 43 59 sel 0 1 2;
#X msg 44 93 0 0;
#X msg 78 93 1 0;
#X msg 113 93 0 1;
#X obj 68 125 unpack;
#X obj 170 197 line~;
#X obj 245 201 line~;
#X obj 157 19 inlet~;
#X obj 43 24 inlet;
#X obj 155 258 outlet~;
#X obj 170 166 pack f 20;
#X obj 248 164 pack f 20;
#X obj 230 256 outlet~;
#X text 227 23 This code is based (read: copied) entirely from Christopher
Ariza's abstration "mgGate2~" \, a part of the Martingale Library (https://code.google.com/p/martingale/).
;
#X connect 0 0 11 0;
#X connect 1 0 14 0;
#X connect 2 0 3 0;
#X connect 2 1 4 0;
#X connect 2 2 5 0;
#X connect 3 0 6 0;
#X connect 4 0 6 0;
#X connect 5 0 6 0;
#X connect 6 0 12 0;
#X connect 6 1 13 0;
#X connect 7 0 0 1;
#X connect 8 0 1 1;
#X connect 9 0 0 0;
#X connect 9 0 1 0;
#X connect 10 0 2 0;
#X connect 12 0 7 0;
#X connect 13 0 8 0;
#X restore -257 378 pd gate~;
#N canvas 426 73 622 303 gate~ 0;
#X obj 155 222 *~;
#X obj 230 227 *~;
#X obj 43 59 sel 0 1 2;
#X msg 44 93 0 0;
#X msg 78 93 1 0;
#X msg 113 93 0 1;
#X obj 68 125 unpack;
#X obj 170 197 line~;
#X obj 245 201 line~;
#X obj 157 19 inlet~;
#X obj 43 24 inlet;
#X obj 155 258 outlet~;
#X obj 170 166 pack f 20;
#X obj 248 164 pack f 20;
#X obj 230 256 outlet~;
#X text 227 23 This code is based (read: copied) entirely from Christopher
Ariza's abstration "mgGate2~" \, a part of the Martingale Library (https://code.google.com/p/martingale/).
;
#X connect 0 0 11 0;
#X connect 1 0 14 0;
#X connect 2 0 3 0;
#X connect 2 1 4 0;
#X connect 2 2 5 0;
#X connect 3 0 6 0;
#X connect 4 0 6 0;
#X connect 5 0 6 0;
#X connect 6 0 12 0;
#X connect 6 1 13 0;
#X connect 7 0 0 1;
#X connect 8 0 1 1;
#X connect 9 0 0 0;
#X connect 9 0 1 0;
#X connect 10 0 2 0;
#X connect 12 0 7 0;
#X connect 13 0 8 0;
#X restore -277 337 pd gate~;
#N canvas 426 73 622 303 gate~ 0;
#X obj 155 222 *~;
#X obj 230 227 *~;
#X obj 43 59 sel 0 1 2;
#X msg 44 93 0 0;
#X msg 78 93 1 0;
#X msg 113 93 0 1;
#X obj 68 125 unpack;
#X obj 170 197 line~;
#X obj 245 201 line~;
#X obj 157 19 inlet~;
#X obj 43 24 inlet;
#X obj 155 258 outlet~;
#X obj 170 166 pack f 20;
#X obj 248 164 pack f 20;
#X obj 230 256 outlet~;
#X text 227 23 This code is based (read: copied) entirely from Christopher
Ariza's abstration "mgGate2~" \, a part of the Martingale Library (https://code.google.com/p/martingale/).
;
#X connect 0 0 11 0;
#X connect 1 0 14 0;
#X connect 2 0 3 0;
#X connect 2 1 4 0;
#X connect 2 2 5 0;
#X connect 3 0 6 0;
#X connect 4 0 6 0;
#X connect 5 0 6 0;
#X connect 6 0 12 0;
#X connect 6 1 13 0;
#X connect 7 0 0 1;
#X connect 8 0 1 1;
#X connect 9 0 0 0;
#X connect 9 0 1 0;
#X connect 10 0 2 0;
#X connect 12 0 7 0;
#X connect 13 0 8 0;
#X restore -235 419 pd gate~;
#N canvas 426 73 622 303 gate~ 0;
#X obj 155 222 *~;
#X obj 230 227 *~;
#X obj 43 59 sel 0 1 2;
#X msg 44 93 0 0;
#X msg 78 93 1 0;
#X msg 113 93 0 1;
#X obj 68 125 unpack;
#X obj 170 197 line~;
#X obj 245 201 line~;
#X obj 157 19 inlet~;
#X obj 43 24 inlet;
#X obj 155 258 outlet~;
#X obj 170 166 pack f 20;
#X obj 248 164 pack f 20;
#X obj 230 256 outlet~;
#X text 227 23 This code is based (read: copied) entirely from Christopher
Ariza's abstration "mgGate2~" \, a part of the Martingale Library (https://code.google.com/p/martingale/).
;
#X connect 0 0 11 0;
#X connect 1 0 14 0;
#X connect 2 0 3 0;
#X connect 2 1 4 0;
#X connect 2 2 5 0;
#X connect 3 0 6 0;
#X connect 4 0 6 0;
#X connect 5 0 6 0;
#X connect 6 0 12 0;
#X connect 6 1 13 0;
#X connect 7 0 0 1;
#X connect 8 0 1 1;
#X connect 9 0 0 0;
#X connect 9 0 1 0;
#X connect 10 0 2 0;
#X connect 12 0 7 0;
#X connect 13 0 8 0;
#X restore -222 439 pd gate~;
#N canvas 426 73 622 303 gate~ 0;
#X obj 155 222 *~;
#X obj 230 227 *~;
#X obj 43 59 sel 0 1 2;
#X msg 44 93 0 0;
#X msg 78 93 1 0;
#X msg 113 93 0 1;
#X obj 68 125 unpack;
#X obj 170 197 line~;
#X obj 245 201 line~;
#X obj 157 19 inlet~;
#X obj 43 24 inlet;
#X obj 155 258 outlet~;
#X obj 170 166 pack f 20;
#X obj 248 164 pack f 20;
#X obj 230 256 outlet~;
#X text 227 23 This code is based (read: copied) entirely from Christopher
Ariza's abstration "mgGate2~" \, a part of the Martingale Library (https://code.google.com/p/martingale/).
;
#X connect 0 0 11 0;
#X connect 1 0 14 0;
#X connect 2 0 3 0;
#X connect 2 1 4 0;
#X connect 2 2 5 0;
#X connect 3 0 6 0;
#X connect 4 0 6 0;
#X connect 5 0 6 0;
#X connect 6 0 12 0;
#X connect 6 1 13 0;
#X connect 7 0 0 1;
#X connect 8 0 1 1;
#X connect 9 0 0 0;
#X connect 9 0 1 0;
#X connect 10 0 2 0;
#X connect 12 0 7 0;
#X connect 13 0 8 0;
#X restore -269 358 pd gate~;
#X obj -118 262 inlet~;
#N canvas 426 73 622 303 gate~ 0;
#X obj 155 222 *~;
#X obj 230 227 *~;
#X obj 43 59 sel 0 1 2;
#X msg 44 93 0 0;
#X msg 78 93 1 0;
#X msg 113 93 0 1;
#X obj 68 125 unpack;
#X obj 170 197 line~;
#X obj 245 201 line~;
#X obj 157 19 inlet~;
#X obj 43 24 inlet;
#X obj 155 258 outlet~;
#X obj 170 166 pack f 20;
#X obj 248 164 pack f 20;
#X obj 230 256 outlet~;
#X text 227 23 This code is based (read: copied) entirely from Christopher
Ariza's abstration "mgGate2~" \, a part of the Martingale Library (https://code.google.com/p/martingale/).
;
#X connect 0 0 11 0;
#X connect 1 0 14 0;
#X connect 2 0 3 0;
#X connect 2 1 4 0;
#X connect 2 2 5 0;
#X connect 3 0 6 0;
#X connect 4 0 6 0;
#X connect 5 0 6 0;
#X connect 6 0 12 0;
#X connect 6 1 13 0;
#X connect 7 0 0 1;
#X connect 8 0 1 1;
#X connect 9 0 0 0;
#X connect 9 0 1 0;
#X connect 10 0 2 0;
#X connect 12 0 7 0;
#X connect 13 0 8 0;
#X restore -143 376 pd gate~;
#N canvas 426 73 622 303 gate~ 0;
#X obj 155 222 *~;
#X obj 230 227 *~;
#X obj 43 59 sel 0 1 2;
#X msg 44 93 0 0;
#X msg 78 93 1 0;
#X msg 113 93 0 1;
#X obj 68 125 unpack;
#X obj 170 197 line~;
#X obj 245 201 line~;
#X obj 157 19 inlet~;
#X obj 43 24 inlet;
#X obj 155 258 outlet~;
#X obj 170 166 pack f 20;
#X obj 248 164 pack f 20;
#X obj 230 256 outlet~;
#X text 227 23 This code is based (read: copied) entirely from Christopher
Ariza's abstration "mgGate2~" \, a part of the Martingale Library (https://code.google.com/p/martingale/).
;
#X connect 0 0 11 0;
#X connect 1 0 14 0;
#X connect 2 0 3 0;
#X connect 2 1 4 0;
#X connect 2 2 5 0;
#X connect 3 0 6 0;
#X connect 4 0 6 0;
#X connect 5 0 6 0;
#X connect 6 0 12 0;
#X connect 6 1 13 0;
#X connect 7 0 0 1;
#X connect 8 0 1 1;
#X connect 9 0 0 0;
#X connect 9 0 1 0;
#X connect 10 0 2 0;
#X connect 12 0 7 0;
#X connect 13 0 8 0;
#X restore -163 335 pd gate~;
#N canvas 426 73 622 303 gate~ 0;
#X obj 155 222 *~;
#X obj 230 227 *~;
#X obj 43 59 sel 0 1 2;
#X msg 44 93 0 0;
#X msg 78 93 1 0;
#X msg 113 93 0 1;
#X obj 68 125 unpack;
#X obj 170 197 line~;
#X obj 245 201 line~;
#X obj 157 19 inlet~;
#X obj 43 24 inlet;
#X obj 155 258 outlet~;
#X obj 170 166 pack f 20;
#X obj 248 164 pack f 20;
#X obj 230 256 outlet~;
#X text 227 23 This code is based (read: copied) entirely from Christopher
Ariza's abstration "mgGate2~" \, a part of the Martingale Library (https://code.google.com/p/martingale/).
;
#X connect 0 0 11 0;
#X connect 1 0 14 0;
#X connect 2 0 3 0;
#X connect 2 1 4 0;
#X connect 2 2 5 0;
#X connect 3 0 6 0;
#X connect 4 0 6 0;
#X connect 5 0 6 0;
#X connect 6 0 12 0;
#X connect 6 1 13 0;
#X connect 7 0 0 1;
#X connect 8 0 1 1;
#X connect 9 0 0 0;
#X connect 9 0 1 0;
#X connect 10 0 2 0;
#X connect 12 0 7 0;
#X connect 13 0 8 0;
#X restore -132 397 pd gate~;
#N canvas 426 73 622 303 gate~ 0;
#X obj 155 222 *~;
#X obj 230 227 *~;
#X obj 43 59 sel 0 1 2;
#X msg 44 93 0 0;
#X msg 78 93 1 0;
#X msg 113 93 0 1;
#X obj 68 125 unpack;
#X obj 170 197 line~;
#X obj 245 201 line~;
#X obj 157 19 inlet~;
#X obj 43 24 inlet;
#X obj 155 258 outlet~;
#X obj 170 166 pack f 20;
#X obj 248 164 pack f 20;
#X obj 230 256 outlet~;
#X text 227 23 This code is based (read: copied) entirely from Christopher
Ariza's abstration "mgGate2~" \, a part of the Martingale Library (https://code.google.com/p/martingale/).
;
#X connect 0 0 11 0;
#X connect 1 0 14 0;
#X connect 2 0 3 0;
#X connect 2 1 4 0;
#X connect 2 2 5 0;
#X connect 3 0 6 0;
#X connect 4 0 6 0;
#X connect 5 0 6 0;
#X connect 6 0 12 0;
#X connect 6 1 13 0;
#X connect 7 0 0 1;
#X connect 8 0 1 1;
#X connect 9 0 0 0;
#X connect 9 0 1 0;
#X connect 10 0 2 0;
#X connect 12 0 7 0;
#X connect 13 0 8 0;
#X restore -108 437 pd gate~;
#N canvas 426 73 622 303 gate~ 0;
#X obj 155 222 *~;
#X obj 230 227 *~;
#X obj 43 59 sel 0 1 2;
#X msg 44 93 0 0;
#X msg 78 93 1 0;
#X msg 113 93 0 1;
#X obj 68 125 unpack;
#X obj 170 197 line~;
#X obj 245 201 line~;
#X obj 157 19 inlet~;
#X obj 43 24 inlet;
#X obj 155 258 outlet~;
#X obj 170 166 pack f 20;
#X obj 248 164 pack f 20;
#X obj 230 256 outlet~;
#X text 227 23 This code is based (read: copied) entirely from Christopher
Ariza's abstration "mgGate2~" \, a part of the Martingale Library (https://code.google.com/p/martingale/).
;
#X connect 0 0 11 0;
#X connect 1 0 14 0;
#X connect 2 0 3 0;
#X connect 2 1 4 0;
#X connect 2 2 5 0;
#X connect 3 0 6 0;
#X connect 4 0 6 0;
#X connect 5 0 6 0;
#X connect 6 0 12 0;
#X connect 6 1 13 0;
#X connect 7 0 0 1;
#X connect 8 0 1 1;
#X connect 9 0 0 0;
#X connect 9 0 1 0;
#X connect 10 0 2 0;
#X connect 12 0 7 0;
#X connect 13 0 8 0;
#X restore -155 356 pd gate~;
#X obj -11 257 inlet~;
#N canvas 426 73 622 303 gate~ 0;
#X obj 155 222 *~;
#X obj 230 227 *~;
#X obj 43 59 sel 0 1 2;
#X msg 44 93 0 0;
#X msg 78 93 1 0;
#X msg 113 93 0 1;
#X obj 68 125 unpack;
#X obj 170 197 line~;
#X obj 245 201 line~;
#X obj 157 19 inlet~;
#X obj 43 24 inlet;
#X obj 155 258 outlet~;
#X obj 170 166 pack f 20;
#X obj 248 164 pack f 20;
#X obj 230 256 outlet~;
#X text 227 23 This code is based (read: copied) entirely from Christopher
Ariza's abstration "mgGate2~" \, a part of the Martingale Library (https://code.google.com/p/martingale/).
;
#X connect 0 0 11 0;
#X connect 1 0 14 0;
#X connect 2 0 3 0;
#X connect 2 1 4 0;
#X connect 2 2 5 0;
#X connect 3 0 6 0;
#X connect 4 0 6 0;
#X connect 5 0 6 0;
#X connect 6 0 12 0;
#X connect 6 1 13 0;
#X connect 7 0 0 1;
#X connect 8 0 1 1;
#X connect 9 0 0 0;
#X connect 9 0 1 0;
#X connect 10 0 2 0;
#X connect 12 0 7 0;
#X connect 13 0 8 0;
#X restore -36 374 pd gate~;
#N canvas 426 73 622 303 gate~ 0;
#X obj 155 222 *~;
#X obj 230 227 *~;
#X obj 43 59 sel 0 1 2;
#X msg 44 93 0 0;
#X msg 78 93 1 0;
#X msg 113 93 0 1;
#X obj 68 125 unpack;
#X obj 170 197 line~;
#X obj 245 201 line~;
#X obj 157 19 inlet~;
#X obj 43 24 inlet;
#X obj 155 258 outlet~;
#X obj 170 166 pack f 20;
#X obj 248 164 pack f 20;
#X obj 230 256 outlet~;
#X text 227 23 This code is based (read: copied) entirely from Christopher
Ariza's abstration "mgGate2~" \, a part of the Martingale Library (https://code.google.com/p/martingale/).
;
#X connect 0 0 11 0;
#X connect 1 0 14 0;
#X connect 2 0 3 0;
#X connect 2 1 4 0;
#X connect 2 2 5 0;
#X connect 3 0 6 0;
#X connect 4 0 6 0;
#X connect 5 0 6 0;
#X connect 6 0 12 0;
#X connect 6 1 13 0;
#X connect 7 0 0 1;
#X connect 8 0 1 1;
#X connect 9 0 0 0;
#X connect 9 0 1 0;
#X connect 10 0 2 0;
#X connect 12 0 7 0;
#X connect 13 0 8 0;
#X restore -56 333 pd gate~;
#N canvas 426 73 622 303 gate~ 0;
#X obj 155 222 *~;
#X obj 230 227 *~;
#X obj 43 59 sel 0 1 2;
#X msg 44 93 0 0;
#X msg 78 93 1 0;
#X msg 113 93 0 1;
#X obj 68 125 unpack;
#X obj 170 197 line~;
#X obj 245 201 line~;
#X obj 157 19 inlet~;
#X obj 43 24 inlet;
#X obj 155 258 outlet~;
#X obj 170 166 pack f 20;
#X obj 248 164 pack f 20;
#X obj 230 256 outlet~;
#X text 227 23 This code is based (read: copied) entirely from Christopher
Ariza's abstration "mgGate2~" \, a part of the Martingale Library (https://code.google.com/p/martingale/).
;
#X connect 0 0 11 0;
#X connect 1 0 14 0;
#X connect 2 0 3 0;
#X connect 2 1 4 0;
#X connect 2 2 5 0;
#X connect 3 0 6 0;
#X connect 4 0 6 0;
#X connect 5 0 6 0;
#X connect 6 0 12 0;
#X connect 6 1 13 0;
#X connect 7 0 0 1;
#X connect 8 0 1 1;
#X connect 9 0 0 0;
#X connect 9 0 1 0;
#X connect 10 0 2 0;
#X connect 12 0 7 0;
#X connect 13 0 8 0;
#X restore -25 395 pd gate~;
#N canvas 426 73 622 303 gate~ 0;
#X obj 155 222 *~;
#X obj 230 227 *~;
#X obj 43 59 sel 0 1 2;
#X msg 44 93 0 0;
#X msg 78 93 1 0;
#X msg 113 93 0 1;
#X obj 68 125 unpack;
#X obj 170 197 line~;
#X obj 245 201 line~;
#X obj 157 19 inlet~;
#X obj 43 24 inlet;
#X obj 155 258 outlet~;
#X obj 170 166 pack f 20;
#X obj 248 164 pack f 20;
#X obj 230 256 outlet~;
#X text 227 23 This code is based (read: copied) entirely from Christopher
Ariza's abstration "mgGate2~" \, a part of the Martingale Library (https://code.google.com/p/martingale/).
;
#X connect 0 0 11 0;
#X connect 1 0 14 0;
#X connect 2 0 3 0;
#X connect 2 1 4 0;
#X connect 2 2 5 0;
#X connect 3 0 6 0;
#X connect 4 0 6 0;
#X connect 5 0 6 0;
#X connect 6 0 12 0;
#X connect 6 1 13 0;
#X connect 7 0 0 1;
#X connect 8 0 1 1;
#X connect 9 0 0 0;
#X connect 9 0 1 0;
#X connect 10 0 2 0;
#X connect 12 0 7 0;
#X connect 13 0 8 0;
#X restore -14 415 pd gate~;
#N canvas 426 73 622 303 gate~ 0;
#X obj 155 222 *~;
#X obj 230 227 *~;
#X obj 43 59 sel 0 1 2;
#X msg 44 93 0 0;
#X msg 78 93 1 0;
#X msg 113 93 0 1;
#X obj 68 125 unpack;
#X obj 170 197 line~;
#X obj 245 201 line~;
#X obj 157 19 inlet~;
#X obj 43 24 inlet;
#X obj 155 258 outlet~;
#X obj 170 166 pack f 20;
#X obj 248 164 pack f 20;
#X obj 230 256 outlet~;
#X text 227 23 This code is based (read: copied) entirely from Christopher
Ariza's abstration "mgGate2~" \, a part of the Martingale Library (https://code.google.com/p/martingale/).
;
#X connect 0 0 11 0;
#X connect 1 0 14 0;
#X connect 2 0 3 0;
#X connect 2 1 4 0;
#X connect 2 2 5 0;
#X connect 3 0 6 0;
#X connect 4 0 6 0;
#X connect 5 0 6 0;
#X connect 6 0 12 0;
#X connect 6 1 13 0;
#X connect 7 0 0 1;
#X connect 8 0 1 1;
#X connect 9 0 0 0;
#X connect 9 0 1 0;
#X connect 10 0 2 0;
#X connect 12 0 7 0;
#X connect 13 0 8 0;
#X restore -48 354 pd gate~;
#X text -669 28 6x6 Audio Router;
#X obj -15 518 outlet~;
#X text -669 118 Configuration is based on "switch-matrix-6x6" by Thomas
Mayer (ix.residuum.org) and [pd gate] subpatch is based on "mgGate2~"
by Christopher Ariza (https://code.google.com/p/martingale/)., f 64
;
#X text -669 158 Thomas and Christopher's code was apologetically stolen
in order to make this subpatch non-dependent on outside files for a
mobile application... I hope to someday reincorporate their original
work to give them full credit. -TDH June 2018;
#X connect 0 0 38 1;
#X connect 0 0 39 1;
#X connect 0 0 40 1;
#X connect 0 0 41 1;
#X connect 0 0 42 1;
#X connect 3 0 42 0;
#X connect 4 0 38 0;
#X connect 5 0 39 0;
#X connect 6 0 40 0;
#X connect 7 0 41 0;
#X connect 8 0 45 0;
#X connect 9 0 44 0;
#X connect 10 0 46 0;
#X connect 11 0 47 0;
#X connect 12 0 48 0;
#X connect 13 0 50 0;
#X connect 14 0 54 0;
#X connect 15 0 51 0;
#X connect 16 0 52 0;
#X connect 17 0 53 0;
#X connect 19 0 57 0;
#X connect 20 0 60 0;
#X connect 21 0 56 0;
#X connect 22 0 58 0;
#X connect 23 0 59 0;
#X connect 24 0 63 0;
#X connect 25 0 66 0;
#X connect 26 0 62 0;
#X connect 27 0 64 0;
#X connect 28 0 65 0;
#X connect 29 0 69 0;
#X connect 30 0 72 0;
#X connect 31 0 68 0;
#X connect 32 0 70 0;
#X connect 33 0 71 0;
#X connect 38 0 18 0;
#X connect 39 0 34 0;
#X connect 40 0 35 0;
#X connect 41 0 74 0;
#X connect 42 0 2 0;
#X connect 43 0 44 1;
#X connect 43 0 45 1;
#X connect 43 0 46 1;
#X connect 43 0 47 1;
#X connect 43 0 48 1;
#X connect 44 0 18 0;
#X connect 45 0 1 0;
#X connect 46 0 34 0;
#X connect 47 0 35 0;
#X connect 48 0 74 0;
#X connect 49 0 50 1;
#X connect 49 0 51 1;
#X connect 49 0 52 1;
#X connect 49 0 53 1;
#X connect 49 0 54 1;
#X connect 50 0 1 0;
#X connect 51 0 34 0;
#X connect 52 0 35 0;
#X connect 53 0 74 0;
#X connect 54 0 2 0;
#X connect 55 0 56 1;
#X connect 55 0 57 1;
#X connect 55 0 58 1;
#X connect 55 0 59 1;
#X connect 55 0 60 1;
#X connect 56 0 18 0;
#X connect 57 0 1 0;
#X connect 58 0 35 0;
#X connect 59 0 74 0;
#X connect 60 0 2 0;
#X connect 61 0 62 1;
#X connect 61 0 63 1;
#X connect 61 0 64 1;
#X connect 61 0 65 1;
#X connect 61 0 66 1;
#X connect 62 0 18 0;
#X connect 63 0 1 0;
#X connect 64 0 34 0;
#X connect 65 0 74 0;
#X connect 66 0 2 0;
#X connect 67 0 68 1;
#X connect 67 0 69 1;
#X connect 67 0 70 1;
#X connect 67 0 71 1;
#X connect 67 0 72 1;
#X connect 68 0 18 0;
#X connect 69 0 1 0;
#X connect 70 0 34 0;
#X connect 71 0 35 0;
#X connect 72 0 2 0;
#X coords 0 -1 1 1 150 150 2 100 100;
