#N canvas 229 23 1211 747 10;
#X declare -path dependencies;
#X obj -326 417 *~;
#X obj -196 267 - 1;
#X obj -196 289 * -1;
#X obj -181 414 *~;
#X obj -326 525 outlet~ L;
#X obj -181 525 outlet~ R;
#X obj -326 -1 inlet~ signal;
#X obj 133 312 hsl 64 15 0 1 0 0 empty empty empty -2 -8 0 10 -262144
-1 -1 0 1;
#X text 100 100 In;
#X text 154 298 Pan;
#X text 119 311 L;
#X text 199 311 R;
#X obj -116 -1 inlet pan;
#X text -303 416 L;
#X text -155 413 R;
#X floatatom 150 330 5 0 0 0 - - -, f 5;
#X obj -326 224 *~;
#X obj -236 -1 inlet gain;
#X text 203 100 Pan;
#X text 150 100 Gain;
#X obj 176 148 vsl 14 118 0 2 0 0 empty empty empty 0 -9 0 10 -262144
-1 -1 7000 1;
#X obj 118 148 vu 15 120 empty empty -1 -8 0 10 -66577 -1 1 0;
#X text 102 376 Out L;
#X text 191 376 Out R;
#X obj 291 139 loadbang;
#X msg 292 194 0.5;
#X obj -311 392 sig~;
#X obj -166 385 sig~;
#X obj -311 202 line~;
#X obj -311 179 \$1 20;
#X floatatom -166 241 5 0 0 0 - - -, f 5;
#X obj -166 179 \$1 20;
#X obj -166 202 line;
#X obj -116 81 change;
#X obj -116 105 f;
#X obj 292 169 t b b;
#X msg -122 130 set \$1;
#X floatatom 106 38 5 0 0 0 - - -, f 5;
#X obj -115 36 expr if($f1 > 0 \, $f1 \, 0);
#X obj -258 251 env~;
#X obj -258 273 - 100;
#X text 191 200 0dB;
#X obj 476 54 declare -path dependencies;
#X obj 239 265 tdh.math.linamptodbfs;
#X floatatom 170 275 5 0 0 0 - - -, f 5;
#X text 191 185 +2dB;
#X text 191 145 +6dB;
#X text 191 214 -2dB;
#X text 191 230 -6dB;
#X text 191 255 -20dB;
#X text 170 128 Gain;
#X text 107 355 // CHANNEL STRIP //;
#X connect 0 0 4 0;
#X connect 1 0 2 0;
#X connect 2 0 26 0;
#X connect 3 0 5 0;
#X connect 6 0 16 0;
#X connect 7 0 15 0;
#X connect 7 0 31 0;
#X connect 12 0 37 0;
#X connect 12 0 38 0;
#X connect 16 0 0 0;
#X connect 16 0 3 0;
#X connect 16 0 39 0;
#X connect 17 0 20 0;
#X connect 20 0 29 0;
#X connect 20 0 43 0;
#X connect 24 0 35 0;
#X connect 25 0 7 0;
#X connect 26 0 0 1;
#X connect 27 0 3 1;
#X connect 28 0 16 1;
#X connect 29 0 28 0;
#X connect 30 0 1 0;
#X connect 30 0 27 0;
#X connect 31 0 32 0;
#X connect 32 0 30 0;
#X connect 33 0 34 0;
#X connect 34 0 36 0;
#X connect 35 0 25 0;
#X connect 35 1 34 0;
#X connect 36 0 7 0;
#X connect 38 0 33 0;
#X connect 39 0 40 0;
#X connect 40 0 21 0;
#X connect 43 0 44 0;
#X coords 0 -1 1 1 126 296 2 100 100;
