#N canvas 26 23 1414 855 10;
#X obj 533 202 tdh.util.scope~;
#X text 110 123 Additive Synthesis;
#X obj 31 765 osc~ 440;
#X floatatom 46 735 5 0 0 0 - - -, f 5;
#X floatatom 31 712 5 0 0 0 - - -, f 5;
#X text 66 709 f;
#X text 82 735 a;
#X obj 393 1204 send~ sig4;
#X obj 31 789 *~;
#X obj 101 765 osc~ 440;
#X floatatom 116 735 5 0 0 0 - - -, f 5;
#X floatatom 101 712 5 0 0 0 - - -, f 5;
#X text 136 709 f;
#X text 152 735 a;
#X obj 101 789 *~;
#X obj 171 765 osc~ 440;
#X floatatom 186 735 5 0 0 0 - - -, f 5;
#X floatatom 171 712 5 0 0 0 - - -, f 5;
#X text 206 709 f;
#X text 222 735 a;
#X obj 172 789 *~;
#X floatatom 256 735 5 0 0 0 - - -, f 5;
#X floatatom 241 712 5 0 0 0 - - -, f 5;
#X text 276 709 f;
#X text 292 735 a;
#X obj 241 789 *~;
#X obj 242 767 osc~ 440;
#X floatatom 326 735 5 0 0 0 - - -, f 5;
#X floatatom 311 712 5 0 0 0 - - -, f 5;
#X text 346 709 f;
#X text 362 735 a;
#X obj 311 789 *~;
#X obj 312 767 osc~ 440;
#X floatatom 396 735 5 0 0 0 - - -, f 5;
#X floatatom 381 712 5 0 0 0 - - -, f 5;
#X text 416 709 f;
#X text 432 735 a;
#X obj 381 789 *~;
#X obj 382 767 osc~ 440;
#X obj 452 765 osc~ 440;
#X floatatom 467 735 5 0 0 0 - - -, f 5;
#X floatatom 452 712 5 0 0 0 - - -, f 5;
#X text 487 709 f;
#X text 503 735 a;
#X obj 452 789 *~;
#X obj 522 765 osc~ 440;
#X floatatom 537 735 5 0 0 0 - - -, f 5;
#X floatatom 522 712 5 0 0 0 - - -, f 5;
#X text 557 709 f;
#X text 573 735 a;
#X obj 522 789 *~;
#X obj 592 765 osc~ 440;
#X floatatom 607 735 5 0 0 0 - - -, f 5;
#X floatatom 592 712 5 0 0 0 - - -, f 5;
#X text 627 709 f;
#X text 643 735 a;
#X obj 593 789 *~;
#X floatatom 677 735 5 0 0 0 - - -, f 5;
#X floatatom 662 712 5 0 0 0 - - -, f 5;
#X text 697 709 f;
#X text 713 735 a;
#X obj 662 789 *~;
#X obj 663 767 osc~ 440;
#X floatatom 747 735 5 0 0 0 - - -, f 5;
#X floatatom 732 712 5 0 0 0 - - -, f 5;
#X text 767 709 f;
#X text 783 735 a;
#X obj 732 789 *~;
#X obj 733 767 osc~ 440;
#X floatatom 817 735 5 0 0 0 - - -, f 5;
#X floatatom 802 712 5 0 0 0 - - -, f 5;
#X text 837 709 f;
#X text 853 735 a;
#X obj 802 789 *~;
#X obj 803 767 osc~ 440;
#X obj 534 74 receive~ sig4;
#X text 34 684 1;
#X text 104 684 2;
#X text 174 684 3;
#X text 244 684 4;
#X text 315 684 5;
#X text 384 684 6;
#X text 454 684 7;
#X text 524 684 8;
#X text 604 684 9;
#X text 674 684 10;
#X text 744 684 11;
#X text 814 684 12;
#X obj 871 765 osc~ 440;
#X floatatom 886 735 5 0 0 0 - - -, f 5;
#X floatatom 871 712 5 0 0 0 - - -, f 5;
#X text 906 709 f;
#X text 922 735 a;
#X obj 871 789 *~;
#X obj 941 765 osc~ 440;
#X floatatom 956 735 5 0 0 0 - - -, f 5;
#X floatatom 941 712 5 0 0 0 - - -, f 5;
#X text 976 709 f;
#X text 992 735 a;
#X obj 941 789 *~;
#X obj 1011 765 osc~ 440;
#X floatatom 1026 735 5 0 0 0 - - -, f 5;
#X floatatom 1011 712 5 0 0 0 - - -, f 5;
#X text 1046 709 f;
#X text 1062 735 a;
#X obj 1012 789 *~;
#X floatatom 1096 735 5 0 0 0 - - -, f 5;
#X floatatom 1081 712 5 0 0 0 - - -, f 5;
#X text 1116 709 f;
#X text 1132 735 a;
#X obj 1081 789 *~;
#X obj 1082 767 osc~ 440;
#X floatatom 1166 735 5 0 0 0 - - -, f 5;
#X floatatom 1151 712 5 0 0 0 - - -, f 5;
#X text 1186 709 f;
#X text 1202 735 a;
#X obj 1151 789 *~;
#X obj 1152 767 osc~ 440;
#X floatatom 1236 735 5 0 0 0 - - -, f 5;
#X floatatom 1221 712 5 0 0 0 - - -, f 5;
#X text 1256 709 f;
#X text 1272 735 a;
#X obj 1221 789 *~;
#X obj 1222 767 osc~ 440;
#X obj 1292 765 osc~ 440;
#X floatatom 1307 735 5 0 0 0 - - -, f 5;
#X floatatom 1292 712 5 0 0 0 - - -, f 5;
#X text 1327 709 f;
#X text 1343 735 a;
#X obj 1292 789 *~;
#X obj 1362 765 osc~ 440;
#X floatatom 1377 735 5 0 0 0 - - -, f 5;
#X floatatom 1362 712 5 0 0 0 - - -, f 5;
#X text 1397 709 f;
#X text 1413 735 a;
#X obj 1362 789 *~;
#X obj 1432 765 osc~ 440;
#X floatatom 1447 735 5 0 0 0 - - -, f 5;
#X floatatom 1432 712 5 0 0 0 - - -, f 5;
#X text 1467 709 f;
#X text 1483 735 a;
#X obj 1433 789 *~;
#X floatatom 1517 735 5 0 0 0 - - -, f 5;
#X floatatom 1502 712 5 0 0 0 - - -, f 5;
#X text 1537 709 f;
#X text 1553 735 a;
#X obj 1502 789 *~;
#X obj 1503 767 osc~ 440;
#X floatatom 1587 735 5 0 0 0 - - -, f 5;
#X floatatom 1572 712 5 0 0 0 - - -, f 5;
#X text 1607 709 f;
#X text 1623 735 a;
#X obj 1572 789 *~;
#X obj 1573 767 osc~ 440;
#X floatatom 1657 735 5 0 0 0 - - -, f 5;
#X floatatom 1642 712 5 0 0 0 - - -, f 5;
#X text 1677 709 f;
#X text 1693 735 a;
#X obj 1642 789 *~;
#X obj 1643 767 osc~ 440;
#X text 874 684 13;
#X text 944 684 14;
#X text 1014 684 15;
#X text 1084 684 16;
#X text 1155 684 17;
#X text 1224 684 18;
#X text 1294 684 19;
#X text 1364 684 20;
#X text 1444 684 21;
#X text 1514 684 22;
#X text 1584 684 23;
#X text 1654 684 24;
#X floatatom 129 225 5 0 0 0 - - -, f 5;
#X floatatom 114 202 5 0 0 0 - - -, f 5;
#X text 149 199 f;
#X text 165 225 a;
#X floatatom 194 225 5 0 0 0 - - -, f 5;
#X floatatom 179 202 5 0 0 0 - - -, f 5;
#X text 214 199 f;
#X text 230 225 a;
#X floatatom 258 225 5 0 0 0 - - -, f 5;
#X floatatom 243 202 5 0 0 0 - - -, f 5;
#X text 278 199 f;
#X text 294 225 a;
#X floatatom 321 225 5 0 0 0 - - -, f 5;
#X floatatom 306 202 5 0 0 0 - - -, f 5;
#X text 341 199 f;
#X text 357 225 a;
#X floatatom 385 225 5 0 0 0 - - -, f 5;
#X floatatom 370 202 5 0 0 0 - - -, f 5;
#X text 405 199 f;
#X text 421 225 a;
#X floatatom 449 225 5 0 0 0 - - -, f 5;
#X floatatom 434 202 5 0 0 0 - - -, f 5;
#X text 469 199 f;
#X text 485 225 a;
#X floatatom 129 301 5 0 0 0 - - -, f 5;
#X floatatom 114 278 5 0 0 0 - - -, f 5;
#X text 149 275 f;
#X text 165 301 a;
#X floatatom 194 301 5 0 0 0 - - -, f 5;
#X floatatom 179 278 5 0 0 0 - - -, f 5;
#X text 214 275 f;
#X text 230 301 a;
#X floatatom 258 301 5 0 0 0 - - -, f 5;
#X floatatom 243 278 5 0 0 0 - - -, f 5;
#X text 278 275 f;
#X text 294 301 a;
#X floatatom 321 301 5 0 0 0 - - -, f 5;
#X floatatom 306 278 5 0 0 0 - - -, f 5;
#X text 341 275 f;
#X text 357 301 a;
#X floatatom 385 301 5 0 0 0 - - -, f 5;
#X floatatom 370 278 5 0 0 0 - - -, f 5;
#X text 405 275 f;
#X text 421 301 a;
#X floatatom 449 301 5 0 0 0 - - -, f 5;
#X floatatom 434 278 5 0 0 0 - - -, f 5;
#X text 469 275 f;
#X text 485 301 a;
#X text 117 174 1;
#X text 182 174 2;
#X text 246 174 3;
#X text 309 174 4;
#X text 374 174 5;
#X text 437 174 6;
#X text 116 250 7;
#X text 181 250 8;
#X text 255 250 9;
#X text 318 250 10;
#X text 382 250 11;
#X text 446 250 12;
#X floatatom 135 380 5 0 0 0 - - -, f 5;
#X floatatom 120 357 5 0 0 0 - - -, f 5;
#X text 155 354 f;
#X text 171 380 a;
#X floatatom 200 380 5 0 0 0 - - -, f 5;
#X floatatom 185 357 5 0 0 0 - - -, f 5;
#X text 220 354 f;
#X text 236 380 a;
#X floatatom 264 380 5 0 0 0 - - -, f 5;
#X floatatom 249 357 5 0 0 0 - - -, f 5;
#X text 284 354 f;
#X text 300 380 a;
#X floatatom 327 380 5 0 0 0 - - -, f 5;
#X floatatom 312 357 5 0 0 0 - - -, f 5;
#X text 347 354 f;
#X text 363 380 a;
#X floatatom 391 380 5 0 0 0 - - -, f 5;
#X floatatom 376 357 5 0 0 0 - - -, f 5;
#X text 411 354 f;
#X text 427 380 a;
#X floatatom 455 380 5 0 0 0 - - -, f 5;
#X floatatom 440 357 5 0 0 0 - - -, f 5;
#X text 475 354 f;
#X text 491 380 a;
#X floatatom 131 455 5 0 0 0 - - -, f 5;
#X floatatom 116 432 5 0 0 0 - - -, f 5;
#X text 151 429 f;
#X text 167 455 a;
#X floatatom 196 455 5 0 0 0 - - -, f 5;
#X floatatom 181 432 5 0 0 0 - - -, f 5;
#X text 216 429 f;
#X text 232 455 a;
#X floatatom 260 455 5 0 0 0 - - -, f 5;
#X floatatom 245 432 5 0 0 0 - - -, f 5;
#X text 280 429 f;
#X text 296 455 a;
#X floatatom 323 455 5 0 0 0 - - -, f 5;
#X floatatom 308 432 5 0 0 0 - - -, f 5;
#X text 343 429 f;
#X text 359 455 a;
#X floatatom 387 455 5 0 0 0 - - -, f 5;
#X floatatom 372 432 5 0 0 0 - - -, f 5;
#X text 407 429 f;
#X text 423 455 a;
#X floatatom 451 455 5 0 0 0 - - -, f 5;
#X floatatom 436 432 5 0 0 0 - - -, f 5;
#X text 471 429 f;
#X text 487 455 a;
#X text 123 329 13;
#X text 188 329 14;
#X text 252 329 15;
#X text 315 329 16;
#X text 380 329 17;
#X text 443 329 18;
#X text 118 404 19;
#X text 183 404 20;
#X text 257 404 21;
#X text 320 404 22;
#X text 384 404 23;
#X text 448 404 24;
#X obj 30 1202 outlet~;
#X obj 543 131 bng 15 250 50 0 empty empty empty 17 7 0 10 -262144
-1 -1;
#X msg 1510 98 440;
#X msg 1510 118 880;
#X msg 1510 138 1320;
#X msg 1510 158 1760;
#X msg 1510 178 2200;
#X msg 1510 198 2640;
#X msg 1510 218 3080;
#X msg 1510 238 3520;
#X msg 1510 258 3960;
#X msg 1510 278 4400;
#X msg 1510 298 4840;
#X msg 1510 338 5720;
#X msg 1510 318 5280;
#X msg 1510 358 6160;
#X msg 1510 378 6600;
#X msg 1510 398 7040;
#X msg 1510 418 7480;
#X msg 1510 438 7920;
#X msg 1510 458 8360;
#X msg 1510 478 8800;
#X msg 1510 498 9240;
#X msg 1510 518 9680;
#X msg 1510 538 10120;
#X msg 1510 558 10560;
#X msg 1640 102 1;
#X msg 1640 122 0.5;
#X msg 1640 142 0.3333;
#X msg 1640 162 0.25;
#X msg 1640 182 0.2;
#X msg 1640 202 0.166667;
#X msg 1640 222 0.142857;
#X msg 1640 242 0.125;
#X msg 1640 262 0.1111;
#X msg 1640 282 0.1;
#X msg 1640 302 0.0909091;
#X msg 1640 322 0.833333;
#X msg 1640 342 0.0769231;
#X msg 1640 362 0.0714286;
#X msg 1640 382 0.0666667;
#X msg 1640 402 0.0625;
#X msg 1640 422 0.0588235;
#X msg 1640 442 0.0555556;
#X msg 1640 463 0.0526316;
#X msg 1640 484 0.05;
#X msg 1640 504 0.047619;
#X msg 1640 524 0.0454546;
#X msg 1640 544 0.0434783;
#X msg 1640 564 0.0416667;
#X obj 1641 83 bng 15 250 50 0 empty empty empty 17 7 0 10 -262144
-1 -1;
#X obj 1509 84 bng 15 250 50 0 empty empty empty 17 7 0 10 -262144
-1 -1;
#X obj 1574 55 bng 15 250 50 0 empty empty empty 17 7 0 10 -262144
-1 -1;
#X text 565 132 Harmonic Spectrum A;
#X obj 543 111 bng 15 250 50 0 \$0-sine empty empty 17 7 0 10 -262144
-1 -1;
#X msg 1235 91 1;
#X obj 1236 72 bng 15 250 50 0 empty empty empty 17 7 0 10 -262144
-1 -1;
#X obj 1104 73 bng 15 250 50 0 empty empty empty 17 7 0 10 -262144
-1 -1;
#X obj 1169 44 bng 15 250 50 0 empty \$0-sine empty 17 7 0 10 -262144
-1 -1;
#X msg 1104 107 0;
#X msg 1105 127 0;
#X msg 1105 147 0;
#X msg 1105 167 0;
#X msg 1105 187 0;
#X msg 1105 207 0;
#X msg 1105 227 0;
#X msg 1105 247 0;
#X msg 1105 267 0;
#X msg 1105 287 0;
#X msg 1105 307 0;
#X msg 1105 327 0;
#X msg 1105 347 0;
#X msg 1105 367 0;
#X msg 1105 387 0;
#X msg 1105 407 0;
#X msg 1105 427 0;
#X msg 1105 447 0;
#X msg 1105 467 0;
#X msg 1105 487 0;
#X msg 1105 507 0;
#X msg 1105 527 0;
#X msg 1105 547 0;
#X msg 1235 553 0;
#X msg 1235 533 0;
#X msg 1235 513 0;
#X msg 1235 493 0;
#X msg 1235 473 0;
#X msg 1235 452 0;
#X msg 1235 431 0;
#X msg 1235 411 0;
#X msg 1235 391 0;
#X msg 1235 371 0;
#X msg 1235 351 0;
#X msg 1235 331 0;
#X msg 1235 311 0;
#X msg 1235 291 0;
#X msg 1235 271 0;
#X msg 1235 251 0;
#X msg 1235 231 0;
#X msg 1235 211 0;
#X msg 1235 191 0;
#X msg 1235 171 0;
#X msg 1235 151 0;
#X msg 1235 131 0;
#X msg 1235 111 0;
#X msg 1105 87 440;
#X text 565 112 Sine;
#X text 1084 84 1;
#X text 1084 108 2;
#X text 1085 127 3;
#X text 1086 145 4;
#X text 1088 165 5;
#X text 1088 186 6;
#X text 1088 210 7;
#X text 1089 229 8;
#X text 1090 247 9;
#X text 1092 267 10;
#X text 1090 286 11;
#X text 1090 306 12;
#X text 1091 329 13;
#X text 1089 347 14;
#X text 1084 367 15;
#X text 1085 388 16;
#X text 1085 412 17;
#X text 1086 431 18;
#X text 1087 449 19;
#X text 1082 469 20;
#X text 1082 485 21;
#X text 1083 502 22;
#X text 1083 524 23;
#X text 1084 545 24;
#X text 1204 84 1;
#X text 1204 108 2;
#X text 1205 127 3;
#X text 1206 145 4;
#X text 1208 165 5;
#X text 1208 186 6;
#X text 1208 210 7;
#X text 1209 229 8;
#X text 1210 247 9;
#X text 1212 267 10;
#X text 1210 286 11;
#X text 1210 306 12;
#X text 1211 329 13;
#X text 1209 347 14;
#X text 1204 367 15;
#X text 1205 388 16;
#X text 1205 412 17;
#X text 1206 431 18;
#X text 1207 449 19;
#X text 1202 469 20;
#X text 1202 485 21;
#X text 1203 502 22;
#X text 1203 524 23;
#X text 1204 545 24;
#X text 1470 85 1;
#X text 1470 109 2;
#X text 1471 128 3;
#X text 1472 146 4;
#X text 1474 166 5;
#X text 1474 187 6;
#X text 1474 211 7;
#X text 1475 230 8;
#X text 1476 248 9;
#X text 1478 268 10;
#X text 1476 287 11;
#X text 1476 307 12;
#X text 1477 330 13;
#X text 1475 348 14;
#X text 1470 368 15;
#X text 1471 389 16;
#X text 1471 413 17;
#X text 1472 432 18;
#X text 1473 450 19;
#X text 1468 470 20;
#X text 1468 486 21;
#X text 1469 503 22;
#X text 1469 525 23;
#X text 1470 546 24;
#X text 1610 85 1;
#X text 1610 109 2;
#X text 1611 128 3;
#X text 1612 146 4;
#X text 1614 166 5;
#X text 1614 187 6;
#X text 1614 211 7;
#X text 1615 230 8;
#X text 1616 248 9;
#X text 1618 268 10;
#X text 1616 287 11;
#X text 1616 307 12;
#X text 1617 330 13;
#X text 1615 348 14;
#X text 1610 368 15;
#X text 1611 389 16;
#X text 1611 413 17;
#X text 1612 432 18;
#X text 1613 450 19;
#X text 1608 470 20;
#X text 1608 486 21;
#X text 1609 503 22;
#X text 1609 525 23;
#X text 1610 546 24;
#X msg 2291 70 440;
#X msg 2291 190 3080;
#X msg 2291 230 3960;
#X msg 2291 270 4840;
#X msg 2291 310 5720;
#X msg 2291 350 6600;
#X msg 2291 390 7480;
#X msg 2291 430 8360;
#X msg 2291 470 9240;
#X msg 2291 510 10120;
#X msg 2401 74 1;
#X obj 2402 55 bng 15 250 50 0 empty empty empty 17 7 0 10 -262144
-1 -1;
#X obj 2290 56 bng 15 250 50 0 empty empty empty 17 7 0 10 -262144
-1 -1;
#X obj 2335 27 bng 15 250 50 0 empty empty empty 17 7 0 10 -262144
-1 -1;
#X text 2263 68 1;
#X text 2263 92 2;
#X text 2264 111 3;
#X text 2265 129 4;
#X text 2267 149 5;
#X text 2267 170 6;
#X text 2267 194 7;
#X text 2268 213 8;
#X text 2269 231 9;
#X text 2271 251 10;
#X text 2269 270 11;
#X text 2269 290 12;
#X text 2270 313 13;
#X text 2268 331 14;
#X text 2263 351 15;
#X text 2264 372 16;
#X text 2264 396 17;
#X text 2265 415 18;
#X text 2266 433 19;
#X text 2261 453 20;
#X text 2261 469 21;
#X text 2262 486 22;
#X text 2262 508 23;
#X text 2263 529 24;
#X text 2371 77 1;
#X text 2371 101 2;
#X text 2372 120 3;
#X text 2373 138 4;
#X text 2375 158 5;
#X text 2375 179 6;
#X text 2375 197 7;
#X text 2376 216 8;
#X text 2377 234 9;
#X text 2379 254 10;
#X text 2377 273 11;
#X text 2377 293 12;
#X text 2378 316 13;
#X text 2376 334 14;
#X text 2371 354 15;
#X text 2372 375 16;
#X text 2372 399 17;
#X text 2373 418 18;
#X text 2374 436 19;
#X text 2369 456 20;
#X text 2369 472 21;
#X text 2370 489 22;
#X text 2370 511 23;
#X text 2371 532 24;
#X msg 2291 90 0;
#X msg 2291 130 0;
#X msg 2291 170 0;
#X msg 2291 210 0;
#X msg 2291 250 0;
#X msg 2291 290 0;
#X msg 2291 330 0;
#X msg 2291 370 0;
#X msg 2291 410 0;
#X msg 2291 450 0;
#X msg 2291 490 0;
#X msg 2291 530 0;
#X msg 2291 150 2200;
#X msg 2291 110 1320;
#X msg 2401 94 0;
#X msg 2401 134 0;
#X msg 2401 174 0;
#X msg 2401 214 0;
#X msg 2401 254 0;
#X msg 2401 294 0;
#X msg 2401 334 0;
#X msg 2401 374 0;
#X msg 2401 414 0;
#X msg 2401 456 0;
#X msg 2401 496 0;
#X msg 2401 536 0;
#X msg 2401 114 0.111111;
#X msg 2401 154 0.04;
#X msg 2401 194 0.0204082;
#X msg 2401 234 0.0123457;
#X msg 2401 274 0.00826446;
#X msg 2401 314 0.00591716;
#X msg 2401 354 0.0044444;
#X msg 2401 394 0.00346021;
#X msg 2401 435 0.00277008;
#X msg 2401 476 0.00226757;
#X msg 2401 516 0.00189036;
#X obj 543 151 bng 15 250 50 0 empty empty empty 17 7 0 10 -262144
-1 -1;
#X text 565 152 Harmonic Spectrum C;
#X msg 2402 702 440;
#X obj 2513 687 bng 15 250 50 0 empty empty empty 17 7 0 10 -262144
-1 -1;
#X obj 2401 688 bng 15 250 50 0 empty empty empty 17 7 0 10 -262144
-1 -1;
#X obj 2446 659 bng 15 250 50 0 empty empty empty 17 7 0 10 -262144
-1 -1;
#X text 2374 700 1;
#X text 2374 724 2;
#X text 2375 743 3;
#X text 2376 761 4;
#X text 2378 781 5;
#X text 2378 802 6;
#X text 2378 826 7;
#X text 2379 845 8;
#X text 2380 863 9;
#X text 2382 883 10;
#X text 2380 902 11;
#X text 2380 922 12;
#X text 2381 945 13;
#X text 2379 963 14;
#X text 2374 983 15;
#X text 2375 1004 16;
#X text 2375 1028 17;
#X text 2376 1047 18;
#X text 2377 1065 19;
#X text 2372 1085 20;
#X text 2372 1101 21;
#X text 2373 1118 22;
#X text 2373 1140 23;
#X text 2374 1161 24;
#X text 2482 709 1;
#X text 2482 733 2;
#X text 2483 752 3;
#X text 2484 770 4;
#X text 2486 790 5;
#X text 2486 811 6;
#X text 2486 829 7;
#X text 2487 848 8;
#X text 2488 866 9;
#X text 2490 886 10;
#X text 2488 905 11;
#X text 2488 925 12;
#X text 2489 948 13;
#X text 2487 966 14;
#X text 2482 986 15;
#X text 2483 1007 16;
#X text 2483 1031 17;
#X text 2484 1050 18;
#X text 2485 1068 19;
#X text 2480 1088 20;
#X text 2480 1104 21;
#X text 2481 1121 22;
#X text 2481 1143 23;
#X text 2482 1164 24;
#X msg 2512 706 1;
#X msg 2512 726 0.74;
#X msg 2512 746 0.56;
#X msg 2512 766 0.76;
#X msg 2512 786 0.48;
#X msg 2512 806 0.55;
#X msg 2512 825 0.72;
#X msg 2512 846 0.19;
#X msg 2512 866 0.71;
#X msg 2512 886 0.9;
#X msg 2512 906 0.08;
#X msg 2512 926 0.88;
#X msg 2512 946 0.41;
#X msg 2512 966 0.83;
#X msg 2512 986 0.57;
#X msg 2512 1006 0.49;
#X msg 2512 1026 0.19;
#X msg 2512 1046 0.37;
#X msg 2511 1067 0.06;
#X msg 2512 1088 0.32;
#X msg 2512 1108 0.27;
#X msg 2512 1128 0.76;
#X msg 2512 1148 0.31;
#X msg 2512 1168 0.3;
#X msg 2402 722 11980;
#X msg 2402 742 9633;
#X msg 2402 762 11393;
#X msg 2402 782 12958;
#X msg 2402 802 5721;
#X msg 2402 822 8459;
#X msg 2402 842 19413;
#X msg 2402 862 9242;
#X msg 2402 882 14523;
#X msg 2402 902 19217;
#X msg 2402 922 5525;
#X msg 2402 942 16283;
#X msg 2402 962 7872;
#X msg 2402 982 3178;
#X msg 2402 1002 11589;
#X msg 2402 1022 16479;
#X msg 2402 1042 4156;
#X msg 2402 1062 6699;
#X msg 2402 1082 17848;
#X msg 2402 1102 9633;
#X msg 2402 1122 11589;
#X msg 2402 1142 11198;
#X msg 2402 1162 11393;
#X obj 29 1107 *~;
#X obj 732 136 hsl 128 15 0 127 0 0 empty empty empty -2 -8 0 10 -262144
-1 -1 0 1;
#X obj 376 1056 / 127;
#X text 724 155 With this many sine waves \, volume can get;
#X text 722 168 unruly. Use this slider to tame the volume.;
#X obj 543 173 bng 15 250 50 0 empty empty empty 17 7 0 10 -262144
-1 -1;
#X text 562 176 Inharmonic Spectrum;
#X text 996 -31 This is one way to do presets in Pd... its a LOT easier
in Max ------------------------------------------------------------------------------------------------------------------------------
, f 199;
#X text 1097 10 "sine wave" preset (silences all partials other than
the first);
#X connect 2 0 8 0;
#X connect 3 0 8 1;
#X connect 4 0 2 0;
#X connect 8 0 695 0;
#X connect 9 0 14 0;
#X connect 10 0 14 1;
#X connect 11 0 9 0;
#X connect 14 0 695 0;
#X connect 15 0 20 0;
#X connect 16 0 20 1;
#X connect 17 0 15 0;
#X connect 20 0 695 0;
#X connect 21 0 25 1;
#X connect 22 0 26 0;
#X connect 25 0 695 0;
#X connect 26 0 25 0;
#X connect 27 0 31 1;
#X connect 28 0 32 0;
#X connect 31 0 695 0;
#X connect 32 0 31 0;
#X connect 33 0 37 1;
#X connect 34 0 38 0;
#X connect 37 0 695 0;
#X connect 38 0 37 0;
#X connect 39 0 44 0;
#X connect 40 0 44 1;
#X connect 41 0 39 0;
#X connect 44 0 695 0;
#X connect 45 0 50 0;
#X connect 46 0 50 1;
#X connect 47 0 45 0;
#X connect 50 0 695 0;
#X connect 51 0 56 0;
#X connect 52 0 56 1;
#X connect 53 0 51 0;
#X connect 56 0 695 0;
#X connect 57 0 61 1;
#X connect 58 0 62 0;
#X connect 61 0 695 0;
#X connect 62 0 61 0;
#X connect 63 0 67 1;
#X connect 64 0 68 0;
#X connect 67 0 695 0;
#X connect 68 0 67 0;
#X connect 69 0 73 1;
#X connect 70 0 74 0;
#X connect 73 0 695 0;
#X connect 74 0 73 0;
#X connect 75 0 0 0;
#X connect 88 0 93 0;
#X connect 89 0 93 1;
#X connect 90 0 88 0;
#X connect 93 0 695 0;
#X connect 94 0 99 0;
#X connect 95 0 99 1;
#X connect 96 0 94 0;
#X connect 99 0 695 0;
#X connect 100 0 105 0;
#X connect 101 0 105 1;
#X connect 102 0 100 0;
#X connect 105 0 695 0;
#X connect 106 0 110 1;
#X connect 107 0 111 0;
#X connect 110 0 695 0;
#X connect 111 0 110 0;
#X connect 112 0 116 1;
#X connect 113 0 117 0;
#X connect 116 0 695 0;
#X connect 117 0 116 0;
#X connect 118 0 122 1;
#X connect 119 0 123 0;
#X connect 122 0 695 0;
#X connect 123 0 122 0;
#X connect 124 0 129 0;
#X connect 125 0 129 1;
#X connect 126 0 124 0;
#X connect 129 0 695 0;
#X connect 130 0 135 0;
#X connect 131 0 135 1;
#X connect 132 0 130 0;
#X connect 135 0 695 0;
#X connect 136 0 141 0;
#X connect 137 0 141 1;
#X connect 138 0 136 0;
#X connect 141 0 695 0;
#X connect 142 0 146 1;
#X connect 143 0 147 0;
#X connect 146 0 695 0;
#X connect 147 0 146 0;
#X connect 148 0 152 1;
#X connect 149 0 153 0;
#X connect 152 0 695 0;
#X connect 153 0 152 0;
#X connect 154 0 158 1;
#X connect 155 0 159 0;
#X connect 158 0 695 0;
#X connect 159 0 158 0;
#X connect 172 0 3 0;
#X connect 173 0 4 0;
#X connect 176 0 10 0;
#X connect 177 0 11 0;
#X connect 180 0 16 0;
#X connect 181 0 17 0;
#X connect 184 0 21 0;
#X connect 185 0 22 0;
#X connect 188 0 27 0;
#X connect 189 0 28 0;
#X connect 192 0 33 0;
#X connect 193 0 34 0;
#X connect 196 0 40 0;
#X connect 197 0 41 0;
#X connect 200 0 46 0;
#X connect 201 0 47 0;
#X connect 204 0 52 0;
#X connect 205 0 53 0;
#X connect 208 0 57 0;
#X connect 209 0 58 0;
#X connect 212 0 63 0;
#X connect 213 0 64 0;
#X connect 216 0 69 0;
#X connect 217 0 70 0;
#X connect 232 0 89 0;
#X connect 233 0 90 0;
#X connect 236 0 95 0;
#X connect 237 0 96 0;
#X connect 240 0 101 0;
#X connect 241 0 102 0;
#X connect 244 0 106 0;
#X connect 245 0 107 0;
#X connect 248 0 112 0;
#X connect 249 0 113 0;
#X connect 252 0 118 0;
#X connect 253 0 119 0;
#X connect 256 0 125 0;
#X connect 257 0 126 0;
#X connect 260 0 131 0;
#X connect 261 0 132 0;
#X connect 264 0 137 0;
#X connect 265 0 138 0;
#X connect 268 0 142 0;
#X connect 269 0 143 0;
#X connect 272 0 148 0;
#X connect 273 0 149 0;
#X connect 276 0 154 0;
#X connect 277 0 155 0;
#X connect 293 0 344 0;
#X connect 294 0 173 0;
#X connect 295 0 177 0;
#X connect 296 0 181 0;
#X connect 297 0 185 0;
#X connect 298 0 189 0;
#X connect 299 0 193 0;
#X connect 300 0 197 0;
#X connect 301 0 201 0;
#X connect 302 0 205 0;
#X connect 303 0 209 0;
#X connect 304 0 213 0;
#X connect 305 0 233 0;
#X connect 306 0 217 0;
#X connect 307 0 237 0;
#X connect 308 0 241 0;
#X connect 309 0 245 0;
#X connect 310 0 249 0;
#X connect 311 0 253 0;
#X connect 312 0 257 0;
#X connect 313 0 261 0;
#X connect 314 0 265 0;
#X connect 315 0 269 0;
#X connect 316 0 273 0;
#X connect 317 0 277 0;
#X connect 318 0 172 0;
#X connect 319 0 176 0;
#X connect 320 0 180 0;
#X connect 321 0 184 0;
#X connect 322 0 188 0;
#X connect 323 0 192 0;
#X connect 324 0 196 0;
#X connect 325 0 200 0;
#X connect 326 0 204 0;
#X connect 327 0 208 0;
#X connect 328 0 212 0;
#X connect 329 0 216 0;
#X connect 330 0 232 0;
#X connect 331 0 236 0;
#X connect 332 0 240 0;
#X connect 333 0 244 0;
#X connect 334 0 248 0;
#X connect 335 0 252 0;
#X connect 336 0 256 0;
#X connect 337 0 260 0;
#X connect 338 0 264 0;
#X connect 339 0 268 0;
#X connect 340 0 272 0;
#X connect 341 0 276 0;
#X connect 342 0 318 0;
#X connect 342 0 319 0;
#X connect 342 0 320 0;
#X connect 342 0 321 0;
#X connect 342 0 322 0;
#X connect 342 0 323 0;
#X connect 342 0 324 0;
#X connect 342 0 325 0;
#X connect 342 0 326 0;
#X connect 342 0 327 0;
#X connect 342 0 328 0;
#X connect 342 0 329 0;
#X connect 342 0 330 0;
#X connect 342 0 331 0;
#X connect 342 0 332 0;
#X connect 342 0 333 0;
#X connect 342 0 334 0;
#X connect 342 0 335 0;
#X connect 342 0 336 0;
#X connect 342 0 337 0;
#X connect 342 0 338 0;
#X connect 342 0 339 0;
#X connect 342 0 340 0;
#X connect 342 0 341 0;
#X connect 343 0 294 0;
#X connect 343 0 295 0;
#X connect 343 0 296 0;
#X connect 343 0 297 0;
#X connect 343 0 298 0;
#X connect 343 0 299 0;
#X connect 343 0 300 0;
#X connect 343 0 301 0;
#X connect 343 0 302 0;
#X connect 343 0 303 0;
#X connect 343 0 304 0;
#X connect 343 0 306 0;
#X connect 343 0 305 0;
#X connect 343 0 307 0;
#X connect 343 0 308 0;
#X connect 343 0 309 0;
#X connect 343 0 310 0;
#X connect 343 0 311 0;
#X connect 343 0 312 0;
#X connect 343 0 313 0;
#X connect 343 0 314 0;
#X connect 343 0 315 0;
#X connect 343 0 316 0;
#X connect 343 0 317 0;
#X connect 344 0 342 0;
#X connect 344 0 343 0;
#X connect 347 0 172 0;
#X connect 348 0 347 0;
#X connect 348 0 396 0;
#X connect 348 0 395 0;
#X connect 348 0 394 0;
#X connect 348 0 393 0;
#X connect 348 0 392 0;
#X connect 348 0 391 0;
#X connect 348 0 390 0;
#X connect 348 0 389 0;
#X connect 348 0 388 0;
#X connect 348 0 387 0;
#X connect 348 0 386 0;
#X connect 348 0 385 0;
#X connect 348 0 384 0;
#X connect 348 0 383 0;
#X connect 348 0 382 0;
#X connect 348 0 381 0;
#X connect 348 0 380 0;
#X connect 348 0 379 0;
#X connect 348 0 378 0;
#X connect 348 0 377 0;
#X connect 348 0 376 0;
#X connect 348 0 375 0;
#X connect 348 0 374 0;
#X connect 349 0 397 0;
#X connect 349 0 351 0;
#X connect 349 0 352 0;
#X connect 349 0 353 0;
#X connect 349 0 354 0;
#X connect 349 0 355 0;
#X connect 349 0 356 0;
#X connect 349 0 357 0;
#X connect 349 0 358 0;
#X connect 349 0 359 0;
#X connect 349 0 360 0;
#X connect 349 0 361 0;
#X connect 349 0 362 0;
#X connect 349 0 363 0;
#X connect 349 0 364 0;
#X connect 349 0 365 0;
#X connect 349 0 366 0;
#X connect 349 0 367 0;
#X connect 349 0 368 0;
#X connect 349 0 369 0;
#X connect 349 0 370 0;
#X connect 349 0 371 0;
#X connect 349 0 372 0;
#X connect 349 0 373 0;
#X connect 350 0 348 0;
#X connect 350 0 349 0;
#X connect 351 0 177 0;
#X connect 352 0 181 0;
#X connect 354 0 185 0;
#X connect 354 0 189 0;
#X connect 355 0 193 0;
#X connect 356 0 197 0;
#X connect 357 0 201 0;
#X connect 358 0 205 0;
#X connect 359 0 209 0;
#X connect 360 0 213 0;
#X connect 361 0 217 0;
#X connect 362 0 233 0;
#X connect 363 0 237 0;
#X connect 364 0 241 0;
#X connect 365 0 245 0;
#X connect 366 0 249 0;
#X connect 367 0 253 0;
#X connect 368 0 257 0;
#X connect 369 0 261 0;
#X connect 370 0 265 0;
#X connect 371 0 269 0;
#X connect 372 0 273 0;
#X connect 373 0 277 0;
#X connect 374 0 276 0;
#X connect 375 0 272 0;
#X connect 376 0 268 0;
#X connect 377 0 264 0;
#X connect 378 0 260 0;
#X connect 379 0 256 0;
#X connect 380 0 252 0;
#X connect 381 0 248 0;
#X connect 382 0 244 0;
#X connect 383 0 240 0;
#X connect 384 0 236 0;
#X connect 385 0 232 0;
#X connect 386 0 216 0;
#X connect 387 0 212 0;
#X connect 388 0 208 0;
#X connect 389 0 204 0;
#X connect 390 0 200 0;
#X connect 391 0 196 0;
#X connect 392 0 192 0;
#X connect 393 0 188 0;
#X connect 394 0 184 0;
#X connect 395 0 180 0;
#X connect 396 0 176 0;
#X connect 397 0 173 0;
#X connect 495 0 173 0;
#X connect 496 0 197 0;
#X connect 497 0 205 0;
#X connect 498 0 213 0;
#X connect 499 0 233 0;
#X connect 500 0 241 0;
#X connect 501 0 249 0;
#X connect 502 0 257 0;
#X connect 503 0 265 0;
#X connect 504 0 273 0;
#X connect 505 0 172 0;
#X connect 506 0 505 0;
#X connect 506 0 571 0;
#X connect 506 0 583 0;
#X connect 506 0 572 0;
#X connect 506 0 584 0;
#X connect 506 0 573 0;
#X connect 506 0 585 0;
#X connect 506 0 574 0;
#X connect 506 0 586 0;
#X connect 506 0 575 0;
#X connect 506 0 587 0;
#X connect 506 0 576 0;
#X connect 506 0 588 0;
#X connect 506 0 577 0;
#X connect 506 0 589 0;
#X connect 506 0 578 0;
#X connect 506 0 590 0;
#X connect 506 0 579 0;
#X connect 506 0 591 0;
#X connect 506 0 580 0;
#X connect 506 0 592 0;
#X connect 506 0 581 0;
#X connect 506 0 593 0;
#X connect 506 0 582 0;
#X connect 507 0 495 0;
#X connect 507 0 557 0;
#X connect 507 0 570 0;
#X connect 507 0 558 0;
#X connect 507 0 559 0;
#X connect 507 0 496 0;
#X connect 507 0 560 0;
#X connect 507 0 497 0;
#X connect 507 0 561 0;
#X connect 507 0 498 0;
#X connect 507 0 562 0;
#X connect 507 0 499 0;
#X connect 507 0 563 0;
#X connect 507 0 500 0;
#X connect 507 0 564 0;
#X connect 507 0 501 0;
#X connect 507 0 565 0;
#X connect 507 0 502 0;
#X connect 507 0 566 0;
#X connect 507 0 503 0;
#X connect 507 0 567 0;
#X connect 507 0 504 0;
#X connect 507 0 568 0;
#X connect 507 0 569 0;
#X connect 508 0 506 0;
#X connect 508 0 507 0;
#X connect 557 0 177 0;
#X connect 558 0 185 0;
#X connect 559 0 193 0;
#X connect 560 0 201 0;
#X connect 561 0 209 0;
#X connect 562 0 217 0;
#X connect 563 0 237 0;
#X connect 564 0 245 0;
#X connect 565 0 253 0;
#X connect 566 0 261 0;
#X connect 567 0 269 0;
#X connect 568 0 277 0;
#X connect 569 0 189 0;
#X connect 570 0 181 0;
#X connect 571 0 176 0;
#X connect 572 0 184 0;
#X connect 573 0 192 0;
#X connect 574 0 200 0;
#X connect 575 0 208 0;
#X connect 576 0 216 0;
#X connect 577 0 236 0;
#X connect 578 0 244 0;
#X connect 579 0 252 0;
#X connect 580 0 260 0;
#X connect 581 0 268 0;
#X connect 582 0 276 0;
#X connect 583 0 180 0;
#X connect 584 0 188 0;
#X connect 585 0 196 0;
#X connect 586 0 204 0;
#X connect 587 0 212 0;
#X connect 588 0 232 0;
#X connect 589 0 240 0;
#X connect 590 0 248 0;
#X connect 591 0 256 0;
#X connect 592 0 264 0;
#X connect 593 0 272 0;
#X connect 594 0 508 0;
#X connect 596 0 173 0;
#X connect 597 0 648 0;
#X connect 597 0 649 0;
#X connect 597 0 650 0;
#X connect 597 0 651 0;
#X connect 597 0 652 0;
#X connect 597 0 653 0;
#X connect 597 0 654 0;
#X connect 597 0 655 0;
#X connect 597 0 656 0;
#X connect 597 0 657 0;
#X connect 597 0 658 0;
#X connect 597 0 659 0;
#X connect 597 0 660 0;
#X connect 597 0 661 0;
#X connect 597 0 662 0;
#X connect 597 0 663 0;
#X connect 597 0 664 0;
#X connect 597 0 665 0;
#X connect 597 0 666 0;
#X connect 597 0 667 0;
#X connect 597 0 668 0;
#X connect 597 0 669 0;
#X connect 597 0 670 0;
#X connect 597 0 671 0;
#X connect 598 0 596 0;
#X connect 598 0 672 0;
#X connect 598 0 673 0;
#X connect 598 0 674 0;
#X connect 598 0 676 0;
#X connect 598 0 677 0;
#X connect 598 0 678 0;
#X connect 598 0 679 0;
#X connect 598 0 680 0;
#X connect 598 0 681 0;
#X connect 598 0 682 0;
#X connect 598 0 683 0;
#X connect 598 0 684 0;
#X connect 598 0 685 0;
#X connect 598 0 686 0;
#X connect 598 0 687 0;
#X connect 598 0 688 0;
#X connect 598 0 689 0;
#X connect 598 0 690 0;
#X connect 598 0 691 0;
#X connect 598 0 692 0;
#X connect 598 0 693 0;
#X connect 598 0 694 0;
#X connect 598 0 675 0;
#X connect 599 0 597 0;
#X connect 599 0 598 0;
#X connect 648 0 172 0;
#X connect 649 0 176 0;
#X connect 650 0 180 0;
#X connect 651 0 184 0;
#X connect 652 0 188 0;
#X connect 653 0 192 0;
#X connect 654 0 196 0;
#X connect 655 0 200 0;
#X connect 656 0 204 0;
#X connect 657 0 208 0;
#X connect 658 0 212 0;
#X connect 659 0 216 0;
#X connect 660 0 232 0;
#X connect 661 0 236 0;
#X connect 662 0 240 0;
#X connect 663 0 244 0;
#X connect 664 0 248 0;
#X connect 665 0 252 0;
#X connect 666 0 256 0;
#X connect 667 0 260 0;
#X connect 668 0 264 0;
#X connect 669 0 268 0;
#X connect 670 0 272 0;
#X connect 671 0 276 0;
#X connect 672 0 177 0;
#X connect 673 0 181 0;
#X connect 674 0 185 0;
#X connect 675 0 189 0;
#X connect 676 0 193 0;
#X connect 677 0 197 0;
#X connect 678 0 201 0;
#X connect 679 0 205 0;
#X connect 680 0 209 0;
#X connect 681 0 213 0;
#X connect 682 0 217 0;
#X connect 683 0 233 0;
#X connect 684 0 237 0;
#X connect 685 0 241 0;
#X connect 686 0 245 0;
#X connect 687 0 249 0;
#X connect 688 0 253 0;
#X connect 689 0 257 0;
#X connect 690 0 261 0;
#X connect 691 0 265 0;
#X connect 692 0 269 0;
#X connect 693 0 273 0;
#X connect 694 0 277 0;
#X connect 695 0 7 0;
#X connect 695 0 292 0;
#X connect 696 0 697 0;
#X connect 697 0 695 1;
#X connect 700 0 599 0;
#X coords 0 -1 1 1 900 450 2 100 100;
