#N canvas 25 23 1415 855 10;
#X obj 533 222 tdh.util.scope~;
#X text 110 123 Additive Synthesis;
#X obj 31 765 osc~ 440;
#X floatatom 46 735 5 0 0 0 - #0-amp1b -, f 5;
#X floatatom 31 712 5 0 0 0 - #0-freq1b -, f 5;
#X text 66 709 f;
#X text 82 735 a;
#X obj 393 1204 send~ sig4;
#X obj 31 789 *~;
#X obj 101 765 osc~ 440;
#X floatatom 116 735 5 0 0 0 - #0-amp2b -, f 5;
#X floatatom 101 712 5 0 0 0 - #0-freq2b -, f 5;
#X text 136 709 f;
#X text 152 735 a;
#X obj 101 789 *~;
#X obj 171 765 osc~ 440;
#X floatatom 186 735 5 0 0 0 - #0-amp3b -, f 5;
#X floatatom 171 712 5 0 0 0 - #0-freq3b -, f 5;
#X text 206 709 f;
#X text 222 735 a;
#X obj 172 789 *~;
#X floatatom 256 735 5 0 0 0 - #0-amp4b -, f 5;
#X floatatom 241 712 5 0 0 0 - #0-freq4b -, f 5;
#X text 276 709 f;
#X text 292 735 a;
#X obj 241 789 *~;
#X obj 242 767 osc~ 440;
#X floatatom 326 735 5 0 0 0 - #0-amp5b -, f 5;
#X floatatom 311 712 5 0 0 0 - #0-freq5b -, f 5;
#X text 346 709 f;
#X text 362 735 a;
#X obj 311 789 *~;
#X obj 312 767 osc~ 440;
#X floatatom 396 735 5 0 0 0 - #0-amp6b -, f 5;
#X floatatom 381 712 5 0 0 0 - #0-freq6b -, f 5;
#X text 416 709 f;
#X text 432 735 a;
#X obj 381 789 *~;
#X obj 382 767 osc~ 440;
#X obj 452 765 osc~ 440;
#X floatatom 467 735 5 0 0 0 - #0-amp7b -, f 5;
#X floatatom 452 712 5 0 0 0 - #0-freq7b -, f 5;
#X text 487 709 f;
#X text 503 735 a;
#X obj 452 789 *~;
#X obj 522 765 osc~ 440;
#X floatatom 537 735 5 0 0 0 - #0-amp8b -, f 5;
#X floatatom 522 712 5 0 0 0 - #0-freq8b -, f 5;
#X text 557 709 f;
#X text 573 735 a;
#X obj 522 789 *~;
#X obj 592 765 osc~ 440;
#X floatatom 607 735 5 0 0 0 - #0-amp9b -, f 5;
#X floatatom 592 712 5 0 0 0 - #0-freq9b -, f 5;
#X text 627 709 f;
#X text 643 735 a;
#X obj 593 789 *~;
#X floatatom 677 735 5 0 0 0 - #0-amp10b -, f 5;
#X floatatom 662 712 5 0 0 0 - #0-freq10b -, f 5;
#X text 697 709 f;
#X text 713 735 a;
#X obj 662 789 *~;
#X obj 663 767 osc~ 440;
#X floatatom 747 735 5 0 0 0 - #0-amp11b -, f 5;
#X floatatom 732 712 5 0 0 0 - #0-freq11b -, f 5;
#X text 767 709 f;
#X text 783 735 a;
#X obj 732 789 *~;
#X obj 733 767 osc~ 440;
#X floatatom 817 735 5 0 0 0 - #0-amp12b -, f 5;
#X floatatom 802 712 5 0 0 0 - #0-freq12b -, f 5;
#X text 837 709 f;
#X text 853 735 a;
#X obj 802 789 *~;
#X obj 803 767 osc~ 440;
#X obj 397 53 receive~ sig4;
#X text 34 684 1;
#X text 104 684 2;
#X text 174 684 3;
#X text 244 684 4;
#X text 315 684 5;
#X text 384 684 6;
#X text 454 684 7;
#X text 524 684 8;
#X text 604 684 9;
#X text 674 684 10;
#X text 744 684 11;
#X text 814 684 12;
#X obj 871 765 osc~ 440;
#X floatatom 886 735 5 0 0 0 - #0-amp13b -, f 5;
#X floatatom 871 712 5 0 0 0 - #0-freq13b -, f 5;
#X text 906 709 f;
#X text 922 735 a;
#X obj 871 789 *~;
#X obj 941 765 osc~ 440;
#X floatatom 956 735 5 0 0 0 - #0-amp14b -, f 5;
#X floatatom 941 712 5 0 0 0 - #0-freq14b -, f 5;
#X text 976 709 f;
#X text 992 735 a;
#X obj 941 789 *~;
#X obj 1011 765 osc~ 440;
#X floatatom 1026 735 5 0 0 0 - #0-amp15b -, f 5;
#X floatatom 1011 712 5 0 0 0 - #0-freq15b -, f 5;
#X text 1046 709 f;
#X text 1062 735 a;
#X obj 1012 789 *~;
#X floatatom 1096 735 5 0 0 0 - #0-amp16b -, f 5;
#X floatatom 1081 712 5 0 0 0 - #0-freq16b -, f 5;
#X text 1116 709 f;
#X text 1132 735 a;
#X obj 1081 789 *~;
#X obj 1082 767 osc~ 440;
#X floatatom 1166 735 5 0 0 0 - #0-amp17b -, f 5;
#X floatatom 1151 712 5 0 0 0 - #0-freq17b -, f 5;
#X text 1186 709 f;
#X text 1202 735 a;
#X obj 1151 789 *~;
#X obj 1152 767 osc~ 440;
#X floatatom 1236 735 5 0 0 0 - #0-amp18b -, f 5;
#X floatatom 1221 712 5 0 0 0 - #0-freq18b -, f 5;
#X text 1256 709 f;
#X text 1272 735 a;
#X obj 1221 789 *~;
#X obj 1222 767 osc~ 440;
#X obj 1292 765 osc~ 440;
#X floatatom 1307 735 5 0 0 0 - #0-amp19b -, f 5;
#X floatatom 1292 712 5 0 0 0 - #0-freq19b -, f 5;
#X text 1327 709 f;
#X text 1343 735 a;
#X obj 1292 789 *~;
#X obj 1362 765 osc~ 440;
#X floatatom 1377 735 5 0 0 0 - #0-amp20b -, f 5;
#X floatatom 1362 712 5 0 0 0 - #0-freq20b -, f 5;
#X text 1397 709 f;
#X text 1413 735 a;
#X obj 1362 789 *~;
#X obj 1432 765 osc~ 440;
#X floatatom 1447 735 5 0 0 0 - #0-amp21b -, f 5;
#X floatatom 1432 712 5 0 0 0 - #0-freq21b -, f 5;
#X text 1467 709 f;
#X text 1483 735 a;
#X obj 1433 789 *~;
#X floatatom 1517 735 5 0 0 0 - #0-amp22b -, f 5;
#X floatatom 1502 712 5 0 0 0 - #0-freq22b -, f 5;
#X text 1537 709 f;
#X text 1553 735 a;
#X obj 1502 789 *~;
#X obj 1503 767 osc~ 440;
#X floatatom 1587 735 5 0 0 0 - #0-amp23b -, f 5;
#X floatatom 1572 712 5 0 0 0 - #0-freq23b -, f 5;
#X text 1607 709 f;
#X text 1623 735 a;
#X obj 1572 789 *~;
#X obj 1573 767 osc~ 440;
#X floatatom 1657 735 5 0 0 0 - #0-amp24b -, f 5;
#X floatatom 1642 712 5 0 0 0 - #0-freq24b -, f 5;
#X text 1677 709 f;
#X text 1693 735 a;
#X obj 1642 789 *~;
#X obj 1643 767 osc~ 440;
#X text 874 684 13;
#X text 944 684 14;
#X text 1014 684 15;
#X text 1084 684 16;
#X text 1155 684 17;
#X text 1224 684 18;
#X text 1294 684 19;
#X text 1364 684 20;
#X text 1444 684 21;
#X text 1514 684 22;
#X text 1584 684 23;
#X text 1654 684 24;
#X floatatom 129 275 5 0 0 0 - #0-amp1a #0-amp1b, f 5;
#X floatatom 114 252 5 0 0 0 - #0-freq1a #0-freq1b, f 5;
#X text 149 249 f;
#X text 165 275 a;
#X floatatom 194 275 5 0 0 0 - #0-amp2a #0-amp2b, f 5;
#X floatatom 179 252 5 0 0 0 - #0-freq2a #0-freq2b, f 5;
#X text 214 249 f;
#X text 230 275 a;
#X floatatom 258 275 5 0 0 0 - #0-amp3a #0-amp3b, f 5;
#X floatatom 243 252 5 0 0 0 - #0-freq3a #0-freq3b, f 5;
#X text 278 249 f;
#X text 294 275 a;
#X floatatom 321 275 5 0 0 0 - #0-amp4a #0-amp4b, f 5;
#X floatatom 306 252 5 0 0 0 - #0-freq4a #0-freq4b, f 5;
#X text 341 249 f;
#X text 357 275 a;
#X floatatom 385 275 5 0 0 0 - #0-amp5a #0-amp5b, f 5;
#X floatatom 370 252 5 0 0 0 - #0-freq5a #0-freq5b, f 5;
#X text 405 249 f;
#X text 421 275 a;
#X floatatom 449 275 5 0 0 0 - #0-amp6a #0-amp6b, f 5;
#X floatatom 434 252 5 0 0 0 - #0-freq6a #0-freq6b, f 5;
#X text 469 249 f;
#X text 485 275 a;
#X floatatom 129 351 5 0 0 0 - #0-amp7a #0-amp7b, f 5;
#X floatatom 114 328 5 0 0 0 - #0-freq7a #0-freq7b, f 5;
#X text 149 325 f;
#X text 165 351 a;
#X floatatom 194 351 5 0 0 0 - #0-amp8a #0-amp8b, f 5;
#X floatatom 179 328 5 0 0 0 - #0-freq8a #0-freq8b, f 5;
#X text 214 325 f;
#X text 230 351 a;
#X floatatom 258 351 5 0 0 0 - #0-amp9a #0-amp9b, f 5;
#X floatatom 243 328 5 0 0 0 - #0-freq9a #0-freq9b, f 5;
#X text 278 325 f;
#X text 294 351 a;
#X floatatom 321 351 5 0 0 0 - #0-amp10a #0-amp10b, f 5;
#X floatatom 306 328 5 0 0 0 - #0-freq10a #0-freq10b, f 5;
#X text 341 325 f;
#X text 357 351 a;
#X floatatom 385 351 5 0 0 0 - #0-amp11a #0-amp11b, f 5;
#X floatatom 370 328 5 0 0 0 - #0-freq11a #0-freq11b, f 5;
#X text 405 325 f;
#X text 421 351 a;
#X floatatom 449 351 5 0 0 0 - #0-amp12a #0-amp12b, f 5;
#X floatatom 434 328 5 0 0 0 - #0-freq12a #0-freq12b, f 5;
#X text 469 325 f;
#X text 485 351 a;
#X text 117 224 1;
#X text 182 224 2;
#X text 246 224 3;
#X text 309 224 4;
#X text 374 224 5;
#X text 437 224 6;
#X text 116 300 7;
#X text 181 300 8;
#X text 255 300 9;
#X text 318 300 10;
#X text 382 300 11;
#X text 446 300 12;
#X floatatom 135 430 5 0 0 0 - #0-amp13a #0-amp13b, f 5;
#X floatatom 120 407 5 0 0 0 - #0-freq13a #0-freq13b, f 5;
#X text 155 404 f;
#X text 171 430 a;
#X floatatom 200 430 5 0 0 0 - #0-amp14a #0-amp14b, f 5;
#X floatatom 185 407 5 0 0 0 - #0-freq14a #0-freq14b, f 5;
#X text 220 404 f;
#X text 236 430 a;
#X floatatom 264 430 5 0 0 0 - #0-amp15a #0-amp15b, f 5;
#X floatatom 249 407 5 0 0 0 - #0-freq15a #0-freq15b, f 5;
#X text 284 404 f;
#X text 300 430 a;
#X floatatom 327 430 5 0 0 0 - #0-amp16a #0-amp16b, f 5;
#X floatatom 312 407 5 0 0 0 - #0-freq16a #0-freq16b, f 5;
#X text 347 404 f;
#X text 363 430 a;
#X floatatom 391 430 5 0 0 0 - #0-amp17a #0-amp17b, f 5;
#X floatatom 376 407 5 0 0 0 - #0-freq17a #0-freq17b, f 5;
#X text 411 404 f;
#X text 427 430 a;
#X floatatom 455 430 5 0 0 0 - #0-amp18a #0-amp18b, f 5;
#X floatatom 440 407 5 0 0 0 - #0-freq18a #0-freq18b, f 5;
#X text 475 404 f;
#X text 491 430 a;
#X floatatom 131 505 5 0 0 0 - #0-amp19a #0-amp19b, f 5;
#X floatatom 116 482 5 0 0 0 - #0-freq19a #0-freq19b, f 5;
#X text 151 479 f;
#X text 167 505 a;
#X floatatom 196 505 5 0 0 0 - #0-amp20a #0-amp20b, f 5;
#X floatatom 181 482 5 0 0 0 - #0-freq20a #0-freq20b, f 5;
#X text 216 479 f;
#X text 232 505 a;
#X floatatom 260 505 5 0 0 0 - #0-amp21a #0-amp21b, f 5;
#X floatatom 245 482 5 0 0 0 - #0-freq21a #0-freq21b, f 5;
#X text 280 479 f;
#X text 296 505 a;
#X floatatom 323 505 5 0 0 0 - #0-amp22a #0-amp22b, f 5;
#X floatatom 308 482 5 0 0 0 - #0-freq22a #0-freq22b, f 5;
#X text 343 479 f;
#X text 359 505 a;
#X floatatom 387 505 5 0 0 0 - #0-amp23a #0-amp23b, f 5;
#X floatatom 372 482 5 0 0 0 - #0-freq23a #0-freq23b, f 5;
#X text 407 479 f;
#X text 423 505 a;
#X floatatom 451 505 5 0 0 0 - #0-amp24a #0-amp24b, f 5;
#X floatatom 436 482 5 0 0 0 - #0-freq24a #0-freq24b, f 5;
#X text 471 479 f;
#X text 487 505 a;
#X text 123 379 13;
#X text 188 379 14;
#X text 252 379 15;
#X text 315 379 16;
#X text 380 379 17;
#X text 443 379 18;
#X text 118 454 19;
#X text 183 454 20;
#X text 257 454 21;
#X text 320 454 22;
#X text 384 454 23;
#X text 448 454 24;
#X obj 30 1202 outlet~;
#X obj 533 151 bng 15 250 50 0 \$0-harmonicspec_a empty empty 17 7
0 10 -262144 -1 -1;
#X msg 1410 88 440;
#X msg 1410 108 880;
#X msg 1410 128 1320;
#X msg 1410 148 1760;
#X msg 1410 168 2200;
#X msg 1410 188 2640;
#X msg 1410 208 3080;
#X msg 1410 228 3520;
#X msg 1410 248 3960;
#X msg 1410 268 4400;
#X msg 1410 288 4840;
#X msg 1410 328 5720;
#X msg 1410 308 5280;
#X msg 1410 348 6160;
#X msg 1410 368 6600;
#X msg 1410 388 7040;
#X msg 1410 408 7480;
#X msg 1410 428 7920;
#X msg 1410 448 8360;
#X msg 1410 468 8800;
#X msg 1410 488 9240;
#X msg 1410 508 9680;
#X msg 1410 528 10120;
#X msg 1410 548 10560;
#X msg 1590 85 1;
#X msg 1590 105 0.5;
#X msg 1590 125 0.3333;
#X msg 1590 145 0.25;
#X msg 1590 165 0.2;
#X msg 1590 185 0.166667;
#X msg 1590 205 0.142857;
#X msg 1590 225 0.125;
#X msg 1590 245 0.1111;
#X msg 1590 265 0.1;
#X msg 1590 285 0.0909091;
#X msg 1590 305 0.833333;
#X msg 1590 325 0.0769231;
#X msg 1590 345 0.0714286;
#X msg 1590 365 0.0666667;
#X msg 1590 385 0.0625;
#X msg 1590 405 0.0588235;
#X msg 1590 425 0.0555556;
#X msg 1590 446 0.0526316;
#X msg 1590 467 0.05;
#X msg 1590 487 0.047619;
#X msg 1590 507 0.0454546;
#X msg 1590 527 0.0434783;
#X msg 1590 547 0.0416667;
#X obj 1591 63 bng 15 250 50 0 empty empty empty 17 7 0 10 -262144
-1 -1;
#X obj 1410 63 bng 15 250 50 0 empty empty empty 17 7 0 10 -262144
-1 -1;
#X obj 1410 31 bng 15 250 50 0 empty \$0-harmonicspec_a empty 17 7
0 10 -262144 -1 -1;
#X obj 533 131 bng 15 250 50 0 \$0-sine empty empty 17 7 0 10 -262144
-1 -1;
#X msg 1185 86 1;
#X obj 1186 62 bng 15 250 50 0 empty empty empty 17 7 0 10 -262144
-1 -1;
#X obj 1035 61 bng 15 250 50 0 empty empty empty 17 7 0 10 -262144
-1 -1;
#X obj 1099 44 bng 15 250 50 0 empty \$0-sine empty 17 7 0 10 -262144
-1 -1;
#X msg 1034 107 0;
#X msg 1035 127 0;
#X msg 1035 147 0;
#X msg 1035 167 0;
#X msg 1035 187 0;
#X msg 1035 207 0;
#X msg 1035 227 0;
#X msg 1035 247 0;
#X msg 1035 267 0;
#X msg 1035 287 0;
#X msg 1035 307 0;
#X msg 1035 327 0;
#X msg 1035 347 0;
#X msg 1035 367 0;
#X msg 1035 387 0;
#X msg 1035 407 0;
#X msg 1035 427 0;
#X msg 1035 447 0;
#X msg 1035 467 0;
#X msg 1035 487 0;
#X msg 1035 507 0;
#X msg 1035 527 0;
#X msg 1035 547 0;
#X msg 1185 548 0;
#X msg 1185 528 0;
#X msg 1185 508 0;
#X msg 1185 488 0;
#X msg 1185 468 0;
#X msg 1185 447 0;
#X msg 1185 426 0;
#X msg 1185 406 0;
#X msg 1185 386 0;
#X msg 1185 366 0;
#X msg 1185 346 0;
#X msg 1185 326 0;
#X msg 1185 306 0;
#X msg 1185 286 0;
#X msg 1185 266 0;
#X msg 1185 246 0;
#X msg 1186 225 0;
#X msg 1185 206 0;
#X msg 1185 186 0;
#X msg 1185 166 0;
#X msg 1185 146 0;
#X msg 1185 126 0;
#X msg 1185 106 0;
#X msg 1035 87 440;
#X text 555 132 Sine;
#X text 1015 89 1;
#X text 1015 109 2;
#X text 1015 129 3;
#X text 1015 149 4;
#X text 1015 169 5;
#X text 1015 189 6;
#X text 1015 209 7;
#X text 1015 229 8;
#X text 1015 249 9;
#X text 1015 269 10;
#X text 1015 289 11;
#X text 1015 309 12;
#X text 1015 329 13;
#X text 1015 349 14;
#X text 1015 369 15;
#X text 1015 389 16;
#X text 1015 409 17;
#X text 1015 429 18;
#X text 1015 449 19;
#X text 1015 469 20;
#X text 1015 489 21;
#X text 1015 509 22;
#X text 1015 529 23;
#X text 1015 549 24;
#X text 1166 86 1;
#X text 1166 106 2;
#X text 1166 126 3;
#X text 1166 146 4;
#X text 1166 166 5;
#X text 1166 186 6;
#X text 1166 206 7;
#X text 1166 226 8;
#X text 1166 246 9;
#X text 1166 266 10;
#X text 1166 286 11;
#X text 1166 306 12;
#X text 1166 326 13;
#X text 1166 346 14;
#X text 1166 366 15;
#X text 1166 386 16;
#X text 1166 406 17;
#X text 1166 426 18;
#X text 1166 446 19;
#X text 1166 466 20;
#X text 1166 486 21;
#X text 1166 506 22;
#X text 1166 526 23;
#X text 1166 546 24;
#X text 1388 87 1;
#X text 1388 107 2;
#X text 1388 127 3;
#X text 1388 147 4;
#X text 1388 167 5;
#X text 1388 187 6;
#X text 1388 207 7;
#X text 1388 227 8;
#X text 1388 247 9;
#X text 1388 267 10;
#X text 1388 287 11;
#X text 1388 307 12;
#X text 1388 327 13;
#X text 1388 347 14;
#X text 1388 367 15;
#X text 1388 387 16;
#X text 1388 407 17;
#X text 1388 427 18;
#X text 1388 447 19;
#X text 1388 467 20;
#X text 1388 487 21;
#X text 1388 507 22;
#X text 1388 527 23;
#X text 1388 547 24;
#X text 1571 86 1;
#X text 1571 106 2;
#X text 1571 126 3;
#X text 1571 146 4;
#X text 1571 166 5;
#X text 1571 186 6;
#X text 1571 206 7;
#X text 1571 226 8;
#X text 1571 246 9;
#X text 1571 266 10;
#X text 1571 286 11;
#X text 1571 306 12;
#X text 1571 326 13;
#X text 1571 346 14;
#X text 1571 366 15;
#X text 1571 386 16;
#X text 1571 406 17;
#X text 1571 426 18;
#X text 1571 446 19;
#X text 1571 466 20;
#X text 1571 486 21;
#X text 1571 506 22;
#X text 1571 526 23;
#X text 1571 546 24;
#X msg 1871 89 440;
#X msg 1871 209 3080;
#X msg 1871 249 3960;
#X msg 1871 289 4840;
#X msg 1871 329 5720;
#X msg 1871 369 6600;
#X msg 1871 409 7480;
#X msg 1871 449 8360;
#X msg 1871 489 9240;
#X msg 1871 529 10120;
#X msg 2061 87 1;
#X obj 2062 55 bng 15 250 50 0 empty empty empty 17 7 0 10 -262144
-1 -1;
#X obj 1870 56 bng 15 250 50 0 empty empty empty 17 7 0 10 -262144
-1 -1;
#X obj 1870 18 bng 15 250 50 0 empty \$0-harmonicspec_b empty 17 7
0 10 -262144 -1 -1;
#X text 1847 87 1;
#X text 1847 107 2;
#X text 1847 127 3;
#X text 1847 147 4;
#X text 1847 167 5;
#X text 1847 187 6;
#X text 1847 207 7;
#X text 1847 227 8;
#X text 1847 247 9;
#X text 1847 267 10;
#X text 1847 287 11;
#X text 1847 307 12;
#X text 1847 327 13;
#X text 1847 347 14;
#X text 1847 367 15;
#X text 1847 387 16;
#X text 1847 407 17;
#X text 1847 427 18;
#X text 1847 447 19;
#X text 1847 467 20;
#X text 1847 487 21;
#X text 1847 507 22;
#X text 1847 527 23;
#X text 1847 547 24;
#X text 2039 90 1;
#X text 2039 110 2;
#X text 2039 130 3;
#X text 2039 150 4;
#X text 2039 170 5;
#X text 2039 190 6;
#X text 2039 210 7;
#X text 2039 230 8;
#X text 2039 250 9;
#X text 2039 270 10;
#X text 2039 290 11;
#X text 2039 310 12;
#X text 2039 330 13;
#X text 2039 350 14;
#X text 2039 370 15;
#X text 2039 390 16;
#X text 2039 410 17;
#X text 2039 430 18;
#X text 2039 450 19;
#X text 2039 470 20;
#X text 2039 490 21;
#X text 2039 510 22;
#X text 2039 530 23;
#X text 2039 550 24;
#X msg 1871 109 0;
#X msg 1871 149 0;
#X msg 1871 189 0;
#X msg 1871 229 0;
#X msg 1871 269 0;
#X msg 1871 309 0;
#X msg 1871 349 0;
#X msg 1871 389 0;
#X msg 1871 429 0;
#X msg 1871 469 0;
#X msg 1871 509 0;
#X msg 1871 549 0;
#X msg 1871 169 2200;
#X msg 1871 129 1320;
#X msg 2061 107 0;
#X msg 2061 147 0;
#X msg 2061 187 0;
#X msg 2061 227 0;
#X msg 2061 267 0;
#X msg 2061 307 0;
#X msg 2061 347 0;
#X msg 2061 387 0;
#X msg 2061 427 0;
#X msg 2061 467 0;
#X msg 2061 507 0;
#X msg 2061 547 0;
#X msg 2061 128 0.111111;
#X msg 2061 167 0.04;
#X msg 2061 207 0.0204082;
#X msg 2061 247 0.0123457;
#X msg 2061 287 0.00826446;
#X msg 2061 327 0.00591716;
#X msg 2061 367 0.0044444;
#X msg 2061 407 0.00346021;
#X msg 2061 447 0.00277008;
#X msg 2061 487 0.00226757;
#X msg 2061 527 0.00189036;
#X obj 533 171 bng 15 250 50 0 \$0-harmonicspec_b empty empty 17 7
0 10 -262144 -1 -1;
#X msg 2582 89 440;
#X obj 2783 47 bng 15 250 50 0 empty empty empty 17 7 0 10 -262144
-1 -1;
#X obj 2581 48 bng 15 250 50 0 empty empty empty 17 7 0 10 -262144
-1 -1;
#X obj 2581 11 bng 15 250 50 0 empty \$0-inharmonicspec empty 17 7
0 10 -262144 -1 -1;
#X text 2554 87 1;
#X text 2554 107 2;
#X text 2554 127 3;
#X text 2554 147 4;
#X text 2554 167 5;
#X text 2554 187 6;
#X text 2554 207 7;
#X text 2554 227 8;
#X text 2554 247 9;
#X text 2554 267 10;
#X text 2554 287 11;
#X text 2554 307 12;
#X text 2554 327 13;
#X text 2554 347 14;
#X text 2554 367 15;
#X text 2554 387 16;
#X text 2554 407 17;
#X text 2554 427 18;
#X text 2554 447 19;
#X text 2554 467 20;
#X text 2554 487 21;
#X text 2554 507 22;
#X text 2554 527 23;
#X text 2554 547 24;
#X text 2752 88 1;
#X text 2752 108 2;
#X text 2752 128 3;
#X text 2752 148 4;
#X text 2752 168 5;
#X text 2752 188 6;
#X text 2752 208 7;
#X text 2752 228 8;
#X text 2752 248 9;
#X text 2752 268 10;
#X text 2752 288 11;
#X text 2752 308 12;
#X text 2752 328 13;
#X text 2752 348 14;
#X text 2752 368 15;
#X text 2752 388 16;
#X text 2752 408 17;
#X text 2752 428 18;
#X text 2752 448 19;
#X text 2751 487 20;
#X text 2750 467 21;
#X text 2752 508 22;
#X text 2752 528 23;
#X text 2752 548 24;
#X msg 2782 85 1;
#X msg 2782 105 0.74;
#X msg 2782 125 0.56;
#X msg 2782 145 0.76;
#X msg 2782 165 0.48;
#X msg 2782 185 0.55;
#X msg 2782 204 0.72;
#X msg 2782 225 0.19;
#X msg 2782 245 0.71;
#X msg 2782 265 0.9;
#X msg 2782 285 0.08;
#X msg 2782 305 0.88;
#X msg 2782 325 0.41;
#X msg 2782 345 0.83;
#X msg 2782 365 0.57;
#X msg 2782 385 0.49;
#X msg 2782 405 0.19;
#X msg 2782 425 0.37;
#X msg 2781 446 0.06;
#X msg 2782 467 0.32;
#X msg 2782 487 0.27;
#X msg 2782 507 0.76;
#X msg 2782 527 0.31;
#X msg 2782 547 0.3;
#X msg 2582 109 11980;
#X msg 2582 129 9633;
#X msg 2582 149 11393;
#X msg 2582 169 12958;
#X msg 2582 189 5721;
#X msg 2582 209 8459;
#X msg 2582 229 19413;
#X msg 2582 249 9242;
#X msg 2582 269 14523;
#X msg 2582 289 19217;
#X msg 2582 309 5525;
#X msg 2582 329 16283;
#X msg 2582 349 7872;
#X msg 2582 369 3178;
#X msg 2582 389 11589;
#X msg 2582 409 16479;
#X msg 2582 429 4156;
#X msg 2582 449 6699;
#X msg 2582 469 17848;
#X msg 2582 489 9633;
#X msg 2582 509 11589;
#X msg 2582 529 11198;
#X msg 2582 549 11393;
#X obj 29 1107 *~;
#X obj 745 167 hsl 128 15 0 127 0 0 \$0-gainslider empty Gain/Volume
-2 -8 0 10 -262144 -1 -1 4800 1;
#X obj 375 1123 / 127;
#X obj 533 193 bng 15 250 50 0 \$0-inharmonicspec empty empty 17 7
0 10 -262144 -1 -1;
#X text 552 196 Inharmonic Spectrum;
#X text 996 -31 This is one way to do presets in Pd... its a LOT easier
in Max ------------------------------------------------------------------------------------------------------------------------------
, f 199;
#X text 1097 -9 "sine wave" preset (silences all partials other than
the first);
#X obj 378 1100 hsl 128 15 0 127 0 0 empty \$0-gainslider empty -2
-8 0 10 -262144 -1 -1 4800 1;
#X text 515 1098 gain;
#X text 555 152 Harmonic Spectrum A;
#X text 555 172 Harmonic Spectrum B;
#X text -75 196 All frequency and amplitude controls in the user interface
remotely receive from the preset freq and amp values to the right using
the receive symbol "\$0-freq#a" and "\$0-amp#a". All freq and amp controls
also remotely send to the number boxes below \, which actually set
the oscillators to develop the various timbre. These use the remote
send symbol "\$0-freq#b" and "\$0-amp#b". All remote send and receive
symbols can be seen in each object's properties., f 24;
#X obj 1065 87 send \$0-freq1a;
#X obj 1065 107 send \$0-freq2a;
#X obj 1065 127 send \$0-freq3a;
#X obj 1065 147 send \$0-freq4a;
#X obj 1065 167 send \$0-freq5a;
#X obj 1065 187 send \$0-freq6a;
#X obj 1065 207 send \$0-freq7a;
#X obj 1065 227 send \$0-freq8a;
#X obj 1065 247 send \$0-freq9a;
#X obj 1065 267 send \$0-freq10a;
#X obj 1065 287 send \$0-freq11a;
#X obj 1065 307 send \$0-freq12a;
#X obj 1065 327 send \$0-freq13a;
#X obj 1065 348 send \$0-freq14a;
#X obj 1065 367 send \$0-freq15a;
#X obj 1065 387 send \$0-freq16a;
#X obj 1065 407 send \$0-freq17a;
#X obj 1065 427 send \$0-freq18a;
#X obj 1065 447 send \$0-freq19a;
#X obj 1065 467 send \$0-freq20a;
#X obj 1065 487 send \$0-freq21a;
#X obj 1065 507 send \$0-freq22a;
#X obj 1065 527 send \$0-freq23a;
#X obj 1065 547 send \$0-freq24a;
#X obj 1215 87 send \$0-amp1a;
#X obj 1215 107 send \$0-amp2a;
#X obj 1215 127 send \$0-amp3a;
#X obj 1215 147 send \$0-amp4a;
#X obj 1215 167 send \$0-amp5a;
#X obj 1215 187 send \$0-amp6a;
#X obj 1216 207 send \$0-amp7a;
#X obj 1215 227 send \$0-amp8a;
#X obj 1215 247 send \$0-amp9a;
#X obj 1215 267 send \$0-amp10a;
#X obj 1215 287 send \$0-amp11a;
#X obj 1215 307 send \$0-amp12a;
#X obj 1215 327 send \$0-amp13a;
#X obj 1215 347 send \$0-amp14a;
#X obj 1215 367 send \$0-amp15a;
#X obj 1215 387 send \$0-amp16a;
#X obj 1215 407 send \$0-amp17a;
#X obj 1215 427 send \$0-amp18a;
#X obj 1215 448 send \$0-amp19a;
#X obj 1215 467 send \$0-amp20a;
#X obj 1215 487 send \$0-amp21a;
#X obj 1215 507 send \$0-amp22a;
#X obj 1215 527 send \$0-amp23a;
#X obj 1215 547 send \$0-amp24a;
#X obj 1455 87 send \$0-freq1a;
#X obj 1455 107 send \$0-freq2a;
#X obj 1455 127 send \$0-freq3a;
#X obj 1455 147 send \$0-freq4a;
#X obj 1455 167 send \$0-freq5a;
#X obj 1455 187 send \$0-freq6a;
#X obj 1455 207 send \$0-freq7a;
#X obj 1455 227 send \$0-freq8a;
#X obj 1455 247 send \$0-freq9a;
#X obj 1455 267 send \$0-freq10a;
#X obj 1455 287 send \$0-freq11a;
#X obj 1455 307 send \$0-freq12a;
#X obj 1455 327 send \$0-freq13a;
#X obj 1455 348 send \$0-freq14a;
#X obj 1455 367 send \$0-freq15a;
#X obj 1455 387 send \$0-freq16a;
#X obj 1455 407 send \$0-freq17a;
#X obj 1455 427 send \$0-freq18a;
#X obj 1455 447 send \$0-freq19a;
#X obj 1455 467 send \$0-freq20a;
#X obj 1455 487 send \$0-freq21a;
#X obj 1455 507 send \$0-freq22a;
#X obj 1455 527 send \$0-freq23a;
#X obj 1455 547 send \$0-freq24a;
#X obj 1655 87 send \$0-amp1a;
#X obj 1655 107 send \$0-amp2a;
#X obj 1655 127 send \$0-amp3a;
#X obj 1655 147 send \$0-amp4a;
#X obj 1655 167 send \$0-amp5a;
#X obj 1655 187 send \$0-amp6a;
#X obj 1656 207 send \$0-amp7a;
#X obj 1655 227 send \$0-amp8a;
#X obj 1655 247 send \$0-amp9a;
#X obj 1655 267 send \$0-amp10a;
#X obj 1655 287 send \$0-amp11a;
#X obj 1655 307 send \$0-amp12a;
#X obj 1655 327 send \$0-amp13a;
#X obj 1655 347 send \$0-amp14a;
#X obj 1655 367 send \$0-amp15a;
#X obj 1655 387 send \$0-amp16a;
#X obj 1655 407 send \$0-amp17a;
#X obj 1655 427 send \$0-amp18a;
#X obj 1655 448 send \$0-amp19a;
#X obj 1655 467 send \$0-amp20a;
#X obj 1655 487 send \$0-amp21a;
#X obj 1655 507 send \$0-amp22a;
#X obj 1655 527 send \$0-amp23a;
#X obj 1655 547 send \$0-amp24a;
#X obj 1917 87 send \$0-freq1a;
#X obj 1917 107 send \$0-freq2a;
#X obj 1917 127 send \$0-freq3a;
#X obj 1917 147 send \$0-freq4a;
#X obj 1917 167 send \$0-freq5a;
#X obj 1917 187 send \$0-freq6a;
#X obj 1917 207 send \$0-freq7a;
#X obj 1917 227 send \$0-freq8a;
#X obj 1917 247 send \$0-freq9a;
#X obj 1917 267 send \$0-freq10a;
#X obj 1917 287 send \$0-freq11a;
#X obj 1917 307 send \$0-freq12a;
#X obj 1917 327 send \$0-freq13a;
#X obj 1917 348 send \$0-freq14a;
#X obj 1917 367 send \$0-freq15a;
#X obj 1917 387 send \$0-freq16a;
#X obj 1917 407 send \$0-freq17a;
#X obj 1917 427 send \$0-freq18a;
#X obj 1917 447 send \$0-freq19a;
#X obj 1917 467 send \$0-freq20a;
#X obj 1917 487 send \$0-freq21a;
#X obj 1917 507 send \$0-freq22a;
#X obj 1917 527 send \$0-freq23a;
#X obj 1917 547 send \$0-freq24a;
#X obj 2135 87 send \$0-amp1a;
#X obj 2135 107 send \$0-amp2a;
#X obj 2135 127 send \$0-amp3a;
#X obj 2135 147 send \$0-amp4a;
#X obj 2135 167 send \$0-amp5a;
#X obj 2135 187 send \$0-amp6a;
#X obj 2136 207 send \$0-amp7a;
#X obj 2135 227 send \$0-amp8a;
#X obj 2135 247 send \$0-amp9a;
#X obj 2135 267 send \$0-amp10a;
#X obj 2135 287 send \$0-amp11a;
#X obj 2135 307 send \$0-amp12a;
#X obj 2135 327 send \$0-amp13a;
#X obj 2135 347 send \$0-amp14a;
#X obj 2135 367 send \$0-amp15a;
#X obj 2135 387 send \$0-amp16a;
#X obj 2135 407 send \$0-amp17a;
#X obj 2135 427 send \$0-amp18a;
#X obj 2135 448 send \$0-amp19a;
#X obj 2135 467 send \$0-amp20a;
#X obj 2135 487 send \$0-amp21a;
#X obj 2135 507 send \$0-amp22a;
#X obj 2135 527 send \$0-amp23a;
#X obj 2135 547 send \$0-amp24a;
#X obj 2637 87 send \$0-freq1a;
#X obj 2637 107 send \$0-freq2a;
#X obj 2637 127 send \$0-freq3a;
#X obj 2637 147 send \$0-freq4a;
#X obj 2637 167 send \$0-freq5a;
#X obj 2637 187 send \$0-freq6a;
#X obj 2637 207 send \$0-freq7a;
#X obj 2637 227 send \$0-freq8a;
#X obj 2637 247 send \$0-freq9a;
#X obj 2637 267 send \$0-freq10a;
#X obj 2637 287 send \$0-freq11a;
#X obj 2637 307 send \$0-freq12a;
#X obj 2637 327 send \$0-freq13a;
#X obj 2637 348 send \$0-freq14a;
#X obj 2637 367 send \$0-freq15a;
#X obj 2637 387 send \$0-freq16a;
#X obj 2637 407 send \$0-freq17a;
#X obj 2637 427 send \$0-freq18a;
#X obj 2637 447 send \$0-freq19a;
#X obj 2637 467 send \$0-freq20a;
#X obj 2637 487 send \$0-freq21a;
#X obj 2637 507 send \$0-freq22a;
#X obj 2637 527 send \$0-freq23a;
#X obj 2637 547 send \$0-freq24a;
#X obj 2825 87 send \$0-amp1a;
#X obj 2825 107 send \$0-amp2a;
#X obj 2825 127 send \$0-amp3a;
#X obj 2825 147 send \$0-amp4a;
#X obj 2825 167 send \$0-amp5a;
#X obj 2825 187 send \$0-amp6a;
#X obj 2826 207 send \$0-amp7a;
#X obj 2825 227 send \$0-amp8a;
#X obj 2825 247 send \$0-amp9a;
#X obj 2825 267 send \$0-amp10a;
#X obj 2825 287 send \$0-amp11a;
#X obj 2825 307 send \$0-amp12a;
#X obj 2825 327 send \$0-amp13a;
#X obj 2825 347 send \$0-amp14a;
#X obj 2825 367 send \$0-amp15a;
#X obj 2825 387 send \$0-amp16a;
#X obj 2825 407 send \$0-amp17a;
#X obj 2825 427 send \$0-amp18a;
#X obj 2825 448 send \$0-amp19a;
#X obj 2825 467 send \$0-amp20a;
#X obj 2825 487 send \$0-amp21a;
#X obj 2825 507 send \$0-amp22a;
#X obj 2825 527 send \$0-amp23a;
#X obj 2825 547 send \$0-amp24a;
#X obj 28 1140 clip~ -0.9 0.9;
#X text 197 202 Individual Partials/Harmonics:;
#X text 528 107 Preset Timbres;
#X msg 2191 89 440;
#X msg 2191 209 3080;
#X msg 2191 249 3960;
#X msg 2191 289 4840;
#X msg 2191 329 5720;
#X msg 2191 369 6600;
#X msg 2191 409 7480;
#X msg 2191 449 8360;
#X msg 2191 489 9240;
#X msg 2191 529 10120;
#X msg 2381 87 1;
#X obj 2382 55 bng 15 250 50 0 empty empty empty 17 7 0 10 -262144
-1 -1;
#X obj 2190 56 bng 15 250 50 0 empty empty empty 17 7 0 10 -262144
-1 -1;
#X obj 2190 18 bng 15 250 50 0 empty \$0-harmonicspec_b empty 17 7
0 10 -262144 -1 -1;
#X text 2167 87 1;
#X text 2167 107 2;
#X text 2167 127 3;
#X text 2167 147 4;
#X text 2167 167 5;
#X text 2167 187 6;
#X text 2167 207 7;
#X text 2167 227 8;
#X text 2167 247 9;
#X text 2167 267 10;
#X text 2167 287 11;
#X text 2167 307 12;
#X text 2167 327 13;
#X text 2167 347 14;
#X text 2167 367 15;
#X text 2167 387 16;
#X text 2167 407 17;
#X text 2167 427 18;
#X text 2167 447 19;
#X text 2167 467 20;
#X text 2167 487 21;
#X text 2167 507 22;
#X text 2167 527 23;
#X text 2167 547 24;
#X text 2359 90 1;
#X text 2359 110 2;
#X text 2359 130 3;
#X text 2359 150 4;
#X text 2359 170 5;
#X text 2359 190 6;
#X text 2359 210 7;
#X text 2359 230 8;
#X text 2359 250 9;
#X text 2359 270 10;
#X text 2359 290 11;
#X text 2359 310 12;
#X text 2359 330 13;
#X text 2359 350 14;
#X text 2359 370 15;
#X text 2359 390 16;
#X text 2359 410 17;
#X text 2359 430 18;
#X text 2359 450 19;
#X text 2359 470 20;
#X text 2359 490 21;
#X text 2359 510 22;
#X text 2359 530 23;
#X text 2359 550 24;
#X msg 2191 109 0;
#X msg 2191 149 0;
#X msg 2191 189 0;
#X msg 2191 229 0;
#X msg 2191 269 0;
#X msg 2191 309 0;
#X msg 2191 349 0;
#X msg 2191 389 0;
#X msg 2191 429 0;
#X msg 2191 469 0;
#X msg 2191 509 0;
#X msg 2191 549 0;
#X msg 2191 169 2200;
#X msg 2191 129 1320;
#X msg 2381 107 0;
#X msg 2381 147 0;
#X msg 2381 187 0;
#X msg 2381 227 0;
#X msg 2381 267 0;
#X msg 2381 307 0;
#X msg 2381 347 0;
#X msg 2381 387 0;
#X msg 2381 427 0;
#X msg 2381 467 0;
#X msg 2381 507 0;
#X msg 2381 547 0;
#X msg 2381 128 0.111111;
#X msg 2381 167 0.04;
#X msg 2381 207 0.0204082;
#X msg 2381 247 0.0123457;
#X msg 2381 287 0.00826446;
#X msg 2381 327 0.00591716;
#X msg 2381 367 0.0044444;
#X msg 2381 407 0.00346021;
#X msg 2381 447 0.00277008;
#X msg 2381 487 0.00226757;
#X msg 2381 527 0.00189036;
#X obj 2237 87 send \$0-freq1a;
#X obj 2237 107 send \$0-freq2a;
#X obj 2237 127 send \$0-freq3a;
#X obj 2237 147 send \$0-freq4a;
#X obj 2237 167 send \$0-freq5a;
#X obj 2237 187 send \$0-freq6a;
#X obj 2237 207 send \$0-freq7a;
#X obj 2237 227 send \$0-freq8a;
#X obj 2237 247 send \$0-freq9a;
#X obj 2237 267 send \$0-freq10a;
#X obj 2237 287 send \$0-freq11a;
#X obj 2237 307 send \$0-freq12a;
#X obj 2237 327 send \$0-freq13a;
#X obj 2237 348 send \$0-freq14a;
#X obj 2237 367 send \$0-freq15a;
#X obj 2237 387 send \$0-freq16a;
#X obj 2237 407 send \$0-freq17a;
#X obj 2237 427 send \$0-freq18a;
#X obj 2237 447 send \$0-freq19a;
#X obj 2237 467 send \$0-freq20a;
#X obj 2237 487 send \$0-freq21a;
#X obj 2237 507 send \$0-freq22a;
#X obj 2237 527 send \$0-freq23a;
#X obj 2237 547 send \$0-freq24a;
#X obj 2455 87 send \$0-amp1a;
#X obj 2455 107 send \$0-amp2a;
#X obj 2455 127 send \$0-amp3a;
#X obj 2455 147 send \$0-amp4a;
#X obj 2455 167 send \$0-amp5a;
#X obj 2455 187 send \$0-amp6a;
#X obj 2456 207 send \$0-amp7a;
#X obj 2455 227 send \$0-amp8a;
#X obj 2455 247 send \$0-amp9a;
#X obj 2455 267 send \$0-amp10a;
#X obj 2455 287 send \$0-amp11a;
#X obj 2455 307 send \$0-amp12a;
#X obj 2455 327 send \$0-amp13a;
#X obj 2455 347 send \$0-amp14a;
#X obj 2455 367 send \$0-amp15a;
#X obj 2455 387 send \$0-amp16a;
#X obj 2455 407 send \$0-amp17a;
#X obj 2455 427 send \$0-amp18a;
#X obj 2455 448 send \$0-amp19a;
#X obj 2455 467 send \$0-amp20a;
#X obj 2455 487 send \$0-amp21a;
#X obj 2455 507 send \$0-amp22a;
#X obj 2455 527 send \$0-amp23a;
#X obj 2455 547 send \$0-amp24a;
#X connect 2 0 8 0;
#X connect 3 0 8 1;
#X connect 4 0 2 0;
#X connect 8 0 693 0;
#X connect 9 0 14 0;
#X connect 10 0 14 1;
#X connect 11 0 9 0;
#X connect 14 0 693 0;
#X connect 15 0 20 0;
#X connect 16 0 20 1;
#X connect 17 0 15 0;
#X connect 20 0 693 0;
#X connect 21 0 25 1;
#X connect 22 0 26 0;
#X connect 25 0 693 0;
#X connect 26 0 25 0;
#X connect 27 0 31 1;
#X connect 28 0 32 0;
#X connect 31 0 693 0;
#X connect 32 0 31 0;
#X connect 33 0 37 1;
#X connect 34 0 38 0;
#X connect 37 0 693 0;
#X connect 38 0 37 0;
#X connect 39 0 44 0;
#X connect 40 0 44 1;
#X connect 41 0 39 0;
#X connect 44 0 693 0;
#X connect 45 0 50 0;
#X connect 46 0 50 1;
#X connect 47 0 45 0;
#X connect 50 0 693 0;
#X connect 51 0 56 0;
#X connect 52 0 56 1;
#X connect 53 0 51 0;
#X connect 56 0 693 0;
#X connect 57 0 61 1;
#X connect 58 0 62 0;
#X connect 61 0 693 0;
#X connect 62 0 61 0;
#X connect 63 0 67 1;
#X connect 64 0 68 0;
#X connect 67 0 693 0;
#X connect 68 0 67 0;
#X connect 69 0 73 1;
#X connect 70 0 74 0;
#X connect 73 0 693 0;
#X connect 74 0 73 0;
#X connect 75 0 0 0;
#X connect 88 0 93 0;
#X connect 89 0 93 1;
#X connect 90 0 88 0;
#X connect 93 0 693 0;
#X connect 94 0 99 0;
#X connect 95 0 99 1;
#X connect 96 0 94 0;
#X connect 99 0 693 0;
#X connect 100 0 105 0;
#X connect 101 0 105 1;
#X connect 102 0 100 0;
#X connect 105 0 693 0;
#X connect 106 0 110 1;
#X connect 107 0 111 0;
#X connect 110 0 693 0;
#X connect 111 0 110 0;
#X connect 112 0 116 1;
#X connect 113 0 117 0;
#X connect 116 0 693 0;
#X connect 117 0 116 0;
#X connect 118 0 122 1;
#X connect 119 0 123 0;
#X connect 122 0 693 0;
#X connect 123 0 122 0;
#X connect 124 0 129 0;
#X connect 125 0 129 1;
#X connect 126 0 124 0;
#X connect 129 0 693 0;
#X connect 130 0 135 0;
#X connect 131 0 135 1;
#X connect 132 0 130 0;
#X connect 135 0 693 0;
#X connect 136 0 141 0;
#X connect 137 0 141 1;
#X connect 138 0 136 0;
#X connect 141 0 693 0;
#X connect 142 0 146 1;
#X connect 143 0 147 0;
#X connect 146 0 693 0;
#X connect 147 0 146 0;
#X connect 148 0 152 1;
#X connect 149 0 153 0;
#X connect 152 0 693 0;
#X connect 153 0 152 0;
#X connect 154 0 158 1;
#X connect 155 0 159 0;
#X connect 158 0 693 0;
#X connect 159 0 158 0;
#X connect 294 0 753 0;
#X connect 295 0 754 0;
#X connect 296 0 755 0;
#X connect 297 0 756 0;
#X connect 298 0 757 0;
#X connect 299 0 758 0;
#X connect 300 0 759 0;
#X connect 301 0 760 0;
#X connect 302 0 761 0;
#X connect 303 0 762 0;
#X connect 304 0 763 0;
#X connect 305 0 765 0;
#X connect 306 0 764 0;
#X connect 307 0 766 0;
#X connect 308 0 767 0;
#X connect 309 0 768 0;
#X connect 310 0 769 0;
#X connect 311 0 770 0;
#X connect 312 0 771 0;
#X connect 313 0 772 0;
#X connect 314 0 773 0;
#X connect 315 0 774 0;
#X connect 316 0 775 0;
#X connect 317 0 776 0;
#X connect 318 0 777 0;
#X connect 319 0 778 0;
#X connect 320 0 779 0;
#X connect 321 0 780 0;
#X connect 322 0 781 0;
#X connect 323 0 782 0;
#X connect 324 0 783 0;
#X connect 325 0 784 0;
#X connect 326 0 785 0;
#X connect 327 0 786 0;
#X connect 328 0 787 0;
#X connect 329 0 788 0;
#X connect 330 0 789 0;
#X connect 331 0 790 0;
#X connect 332 0 791 0;
#X connect 333 0 792 0;
#X connect 334 0 793 0;
#X connect 335 0 794 0;
#X connect 336 0 795 0;
#X connect 337 0 796 0;
#X connect 338 0 797 0;
#X connect 339 0 798 0;
#X connect 340 0 799 0;
#X connect 341 0 800 0;
#X connect 342 0 318 0;
#X connect 342 0 319 0;
#X connect 342 0 320 0;
#X connect 342 0 321 0;
#X connect 342 0 322 0;
#X connect 342 0 323 0;
#X connect 342 0 324 0;
#X connect 342 0 325 0;
#X connect 342 0 326 0;
#X connect 342 0 327 0;
#X connect 342 0 328 0;
#X connect 342 0 329 0;
#X connect 342 0 330 0;
#X connect 342 0 331 0;
#X connect 342 0 332 0;
#X connect 342 0 333 0;
#X connect 342 0 334 0;
#X connect 342 0 335 0;
#X connect 342 0 336 0;
#X connect 342 0 337 0;
#X connect 342 0 338 0;
#X connect 342 0 339 0;
#X connect 342 0 340 0;
#X connect 342 0 341 0;
#X connect 343 0 294 0;
#X connect 343 0 295 0;
#X connect 343 0 296 0;
#X connect 343 0 297 0;
#X connect 343 0 298 0;
#X connect 343 0 299 0;
#X connect 343 0 300 0;
#X connect 343 0 301 0;
#X connect 343 0 302 0;
#X connect 343 0 303 0;
#X connect 343 0 304 0;
#X connect 343 0 306 0;
#X connect 343 0 305 0;
#X connect 343 0 307 0;
#X connect 343 0 308 0;
#X connect 343 0 309 0;
#X connect 343 0 310 0;
#X connect 343 0 311 0;
#X connect 343 0 312 0;
#X connect 343 0 313 0;
#X connect 343 0 314 0;
#X connect 343 0 315 0;
#X connect 343 0 316 0;
#X connect 343 0 317 0;
#X connect 344 0 342 0;
#X connect 344 0 343 0;
#X connect 346 0 729 0;
#X connect 347 0 346 0;
#X connect 347 0 395 0;
#X connect 347 0 394 0;
#X connect 347 0 393 0;
#X connect 347 0 392 0;
#X connect 347 0 391 0;
#X connect 347 0 390 0;
#X connect 347 0 389 0;
#X connect 347 0 388 0;
#X connect 347 0 387 0;
#X connect 347 0 386 0;
#X connect 347 0 385 0;
#X connect 347 0 384 0;
#X connect 347 0 383 0;
#X connect 347 0 382 0;
#X connect 347 0 381 0;
#X connect 347 0 380 0;
#X connect 347 0 379 0;
#X connect 347 0 378 0;
#X connect 347 0 377 0;
#X connect 347 0 376 0;
#X connect 347 0 375 0;
#X connect 347 0 374 0;
#X connect 347 0 373 0;
#X connect 348 0 396 0;
#X connect 348 0 350 0;
#X connect 348 0 351 0;
#X connect 348 0 352 0;
#X connect 348 0 353 0;
#X connect 348 0 354 0;
#X connect 348 0 355 0;
#X connect 348 0 356 0;
#X connect 348 0 357 0;
#X connect 348 0 358 0;
#X connect 348 0 359 0;
#X connect 348 0 360 0;
#X connect 348 0 361 0;
#X connect 348 0 362 0;
#X connect 348 0 363 0;
#X connect 348 0 364 0;
#X connect 348 0 365 0;
#X connect 348 0 366 0;
#X connect 348 0 367 0;
#X connect 348 0 368 0;
#X connect 348 0 369 0;
#X connect 348 0 370 0;
#X connect 348 0 371 0;
#X connect 348 0 372 0;
#X connect 349 0 347 0;
#X connect 349 0 348 0;
#X connect 350 0 706 0;
#X connect 351 0 707 0;
#X connect 352 0 708 0;
#X connect 353 0 709 0;
#X connect 354 0 710 0;
#X connect 355 0 711 0;
#X connect 356 0 712 0;
#X connect 357 0 713 0;
#X connect 358 0 714 0;
#X connect 359 0 715 0;
#X connect 360 0 716 0;
#X connect 361 0 717 0;
#X connect 362 0 718 0;
#X connect 363 0 719 0;
#X connect 364 0 720 0;
#X connect 365 0 721 0;
#X connect 366 0 722 0;
#X connect 367 0 723 0;
#X connect 368 0 724 0;
#X connect 369 0 725 0;
#X connect 370 0 726 0;
#X connect 371 0 727 0;
#X connect 372 0 728 0;
#X connect 373 0 752 0;
#X connect 374 0 751 0;
#X connect 375 0 750 0;
#X connect 376 0 749 0;
#X connect 377 0 748 0;
#X connect 378 0 747 0;
#X connect 379 0 746 0;
#X connect 380 0 745 0;
#X connect 381 0 744 0;
#X connect 382 0 743 0;
#X connect 383 0 742 0;
#X connect 384 0 741 0;
#X connect 385 0 740 0;
#X connect 386 0 739 0;
#X connect 387 0 738 0;
#X connect 388 0 737 0;
#X connect 389 0 736 0;
#X connect 390 0 735 0;
#X connect 391 0 734 0;
#X connect 392 0 733 0;
#X connect 393 0 732 0;
#X connect 394 0 731 0;
#X connect 395 0 730 0;
#X connect 396 0 705 0;
#X connect 494 0 801 0;
#X connect 495 0 807 0;
#X connect 496 0 809 0;
#X connect 497 0 811 0;
#X connect 498 0 813 0;
#X connect 499 0 815 0;
#X connect 500 0 817 0;
#X connect 501 0 819 0;
#X connect 502 0 821 0;
#X connect 503 0 823 0;
#X connect 504 0 825 0;
#X connect 505 0 504 0;
#X connect 505 0 570 0;
#X connect 505 0 582 0;
#X connect 505 0 571 0;
#X connect 505 0 583 0;
#X connect 505 0 572 0;
#X connect 505 0 584 0;
#X connect 505 0 573 0;
#X connect 505 0 585 0;
#X connect 505 0 574 0;
#X connect 505 0 586 0;
#X connect 505 0 575 0;
#X connect 505 0 587 0;
#X connect 505 0 576 0;
#X connect 505 0 588 0;
#X connect 505 0 577 0;
#X connect 505 0 589 0;
#X connect 505 0 578 0;
#X connect 505 0 590 0;
#X connect 505 0 579 0;
#X connect 505 0 591 0;
#X connect 505 0 580 0;
#X connect 505 0 592 0;
#X connect 505 0 581 0;
#X connect 506 0 494 0;
#X connect 506 0 556 0;
#X connect 506 0 569 0;
#X connect 506 0 557 0;
#X connect 506 0 558 0;
#X connect 506 0 495 0;
#X connect 506 0 559 0;
#X connect 506 0 496 0;
#X connect 506 0 560 0;
#X connect 506 0 497 0;
#X connect 506 0 561 0;
#X connect 506 0 498 0;
#X connect 506 0 562 0;
#X connect 506 0 499 0;
#X connect 506 0 563 0;
#X connect 506 0 500 0;
#X connect 506 0 564 0;
#X connect 506 0 501 0;
#X connect 506 0 565 0;
#X connect 506 0 502 0;
#X connect 506 0 566 0;
#X connect 506 0 503 0;
#X connect 506 0 567 0;
#X connect 506 0 568 0;
#X connect 507 0 505 0;
#X connect 507 0 506 0;
#X connect 556 0 802 0;
#X connect 557 0 804 0;
#X connect 558 0 806 0;
#X connect 559 0 808 0;
#X connect 560 0 810 0;
#X connect 561 0 812 0;
#X connect 562 0 814 0;
#X connect 563 0 816 0;
#X connect 564 0 818 0;
#X connect 565 0 820 0;
#X connect 566 0 822 0;
#X connect 567 0 824 0;
#X connect 568 0 805 0;
#X connect 569 0 803 0;
#X connect 570 0 826 0;
#X connect 571 0 828 0;
#X connect 572 0 830 0;
#X connect 573 0 832 0;
#X connect 574 0 834 0;
#X connect 575 0 836 0;
#X connect 576 0 838 0;
#X connect 577 0 840 0;
#X connect 578 0 842 0;
#X connect 579 0 844 0;
#X connect 580 0 846 0;
#X connect 581 0 848 0;
#X connect 582 0 827 0;
#X connect 583 0 829 0;
#X connect 584 0 831 0;
#X connect 585 0 833 0;
#X connect 586 0 835 0;
#X connect 587 0 837 0;
#X connect 588 0 839 0;
#X connect 589 0 841 0;
#X connect 590 0 843 0;
#X connect 591 0 845 0;
#X connect 592 0 847 0;
#X connect 594 0 849 0;
#X connect 595 0 646 0;
#X connect 595 0 647 0;
#X connect 595 0 648 0;
#X connect 595 0 649 0;
#X connect 595 0 650 0;
#X connect 595 0 651 0;
#X connect 595 0 652 0;
#X connect 595 0 653 0;
#X connect 595 0 654 0;
#X connect 595 0 655 0;
#X connect 595 0 656 0;
#X connect 595 0 657 0;
#X connect 595 0 658 0;
#X connect 595 0 659 0;
#X connect 595 0 660 0;
#X connect 595 0 661 0;
#X connect 595 0 662 0;
#X connect 595 0 663 0;
#X connect 595 0 664 0;
#X connect 595 0 665 0;
#X connect 595 0 666 0;
#X connect 595 0 667 0;
#X connect 595 0 668 0;
#X connect 595 0 669 0;
#X connect 596 0 594 0;
#X connect 596 0 670 0;
#X connect 596 0 671 0;
#X connect 596 0 672 0;
#X connect 596 0 674 0;
#X connect 596 0 675 0;
#X connect 596 0 676 0;
#X connect 596 0 677 0;
#X connect 596 0 678 0;
#X connect 596 0 679 0;
#X connect 596 0 680 0;
#X connect 596 0 681 0;
#X connect 596 0 682 0;
#X connect 596 0 683 0;
#X connect 596 0 684 0;
#X connect 596 0 685 0;
#X connect 596 0 686 0;
#X connect 596 0 687 0;
#X connect 596 0 688 0;
#X connect 596 0 689 0;
#X connect 596 0 690 0;
#X connect 596 0 691 0;
#X connect 596 0 692 0;
#X connect 596 0 673 0;
#X connect 597 0 595 0;
#X connect 597 0 596 0;
#X connect 646 0 873 0;
#X connect 647 0 874 0;
#X connect 648 0 875 0;
#X connect 649 0 876 0;
#X connect 650 0 877 0;
#X connect 651 0 878 0;
#X connect 652 0 879 0;
#X connect 653 0 880 0;
#X connect 654 0 881 0;
#X connect 655 0 882 0;
#X connect 656 0 883 0;
#X connect 657 0 884 0;
#X connect 658 0 885 0;
#X connect 659 0 886 0;
#X connect 660 0 887 0;
#X connect 661 0 888 0;
#X connect 662 0 889 0;
#X connect 663 0 890 0;
#X connect 664 0 891 0;
#X connect 665 0 892 0;
#X connect 666 0 893 0;
#X connect 667 0 894 0;
#X connect 668 0 895 0;
#X connect 669 0 896 0;
#X connect 670 0 850 0;
#X connect 671 0 851 0;
#X connect 672 0 852 0;
#X connect 673 0 853 0;
#X connect 674 0 854 0;
#X connect 675 0 855 0;
#X connect 676 0 856 0;
#X connect 677 0 857 0;
#X connect 678 0 858 0;
#X connect 679 0 859 0;
#X connect 680 0 860 0;
#X connect 681 0 861 0;
#X connect 682 0 862 0;
#X connect 683 0 863 0;
#X connect 684 0 864 0;
#X connect 685 0 865 0;
#X connect 686 0 866 0;
#X connect 687 0 867 0;
#X connect 688 0 868 0;
#X connect 689 0 869 0;
#X connect 690 0 870 0;
#X connect 691 0 871 0;
#X connect 692 0 872 0;
#X connect 693 0 897 0;
#X connect 695 0 693 1;
#X connect 700 0 695 0;
#X connect 897 0 292 0;
#X connect 897 0 7 0;
#X connect 900 0 999 0;
#X connect 901 0 1005 0;
#X connect 902 0 1007 0;
#X connect 903 0 1009 0;
#X connect 904 0 1011 0;
#X connect 905 0 1013 0;
#X connect 906 0 1015 0;
#X connect 907 0 1017 0;
#X connect 908 0 1019 0;
#X connect 909 0 1021 0;
#X connect 910 0 1023 0;
#X connect 911 0 910 0;
#X connect 911 0 976 0;
#X connect 911 0 988 0;
#X connect 911 0 977 0;
#X connect 911 0 989 0;
#X connect 911 0 978 0;
#X connect 911 0 990 0;
#X connect 911 0 979 0;
#X connect 911 0 991 0;
#X connect 911 0 980 0;
#X connect 911 0 992 0;
#X connect 911 0 981 0;
#X connect 911 0 993 0;
#X connect 911 0 982 0;
#X connect 911 0 994 0;
#X connect 911 0 983 0;
#X connect 911 0 995 0;
#X connect 911 0 984 0;
#X connect 911 0 996 0;
#X connect 911 0 985 0;
#X connect 911 0 997 0;
#X connect 911 0 986 0;
#X connect 911 0 998 0;
#X connect 911 0 987 0;
#X connect 912 0 900 0;
#X connect 912 0 962 0;
#X connect 912 0 975 0;
#X connect 912 0 963 0;
#X connect 912 0 964 0;
#X connect 912 0 901 0;
#X connect 912 0 965 0;
#X connect 912 0 902 0;
#X connect 912 0 966 0;
#X connect 912 0 903 0;
#X connect 912 0 967 0;
#X connect 912 0 904 0;
#X connect 912 0 968 0;
#X connect 912 0 905 0;
#X connect 912 0 969 0;
#X connect 912 0 906 0;
#X connect 912 0 970 0;
#X connect 912 0 907 0;
#X connect 912 0 971 0;
#X connect 912 0 908 0;
#X connect 912 0 972 0;
#X connect 912 0 909 0;
#X connect 912 0 973 0;
#X connect 912 0 974 0;
#X connect 913 0 911 0;
#X connect 913 0 912 0;
#X connect 962 0 1000 0;
#X connect 963 0 1002 0;
#X connect 964 0 1004 0;
#X connect 965 0 1006 0;
#X connect 966 0 1008 0;
#X connect 967 0 1010 0;
#X connect 968 0 1012 0;
#X connect 969 0 1014 0;
#X connect 970 0 1016 0;
#X connect 971 0 1018 0;
#X connect 972 0 1020 0;
#X connect 973 0 1022 0;
#X connect 974 0 1003 0;
#X connect 975 0 1001 0;
#X connect 976 0 1024 0;
#X connect 977 0 1026 0;
#X connect 978 0 1028 0;
#X connect 979 0 1030 0;
#X connect 980 0 1032 0;
#X connect 981 0 1034 0;
#X connect 982 0 1036 0;
#X connect 983 0 1038 0;
#X connect 984 0 1040 0;
#X connect 985 0 1042 0;
#X connect 986 0 1044 0;
#X connect 987 0 1046 0;
#X connect 988 0 1025 0;
#X connect 989 0 1027 0;
#X connect 990 0 1029 0;
#X connect 991 0 1031 0;
#X connect 992 0 1033 0;
#X connect 993 0 1035 0;
#X connect 994 0 1037 0;
#X connect 995 0 1039 0;
#X connect 996 0 1041 0;
#X connect 997 0 1043 0;
#X connect 998 0 1045 0;
#X coords 0 -1 1 1 900 450 2 100 100;
