#N canvas 730 23 642 790 10;
#X obj 459 -390 tdh.util.scope~;
#X text 110 103 Additive Synthesis;
#X obj 34 758 osc~ 440;
#X floatatom 34 733 5 0 0 0 - #0-amp1b -, f 5;
#X floatatom 34 708 5 0 0 0 - #0-freq1b -, f 5;
#X text 66 711 f;
#X text 66 734 a;
#X obj 393 1202 send~ sig4;
#X obj 34 784 *~;
#X obj 104 758 osc~ 440;
#X floatatom 104 733 5 0 0 0 - #0-amp2b -, f 5;
#X floatatom 104 708 5 0 0 0 - #0-freq2b -, f 5;
#X text 136 711 f;
#X text 136 734 a;
#X obj 104 784 *~;
#X obj 174 758 osc~ 440;
#X floatatom 174 733 5 0 0 0 - #0-amp3b -, f 5;
#X floatatom 174 708 5 0 0 0 - #0-freq3b -, f 5;
#X text 206 711 f;
#X text 206 734 a;
#X obj 174 784 *~;
#X floatatom 244 733 5 0 0 0 - #0-amp4b -, f 5;
#X floatatom 244 708 5 0 0 0 - #0-freq4b -, f 5;
#X text 276 711 f;
#X text 276 734 a;
#X obj 244 784 *~;
#X obj 244 758 osc~ 440;
#X floatatom 315 733 5 0 0 0 - #0-amp5b -, f 5;
#X floatatom 315 708 5 0 0 0 - #0-freq5b -, f 5;
#X text 346 711 f;
#X text 346 734 a;
#X obj 315 784 *~;
#X obj 315 758 osc~ 440;
#X floatatom 384 733 5 0 0 0 - #0-amp6b -, f 5;
#X floatatom 384 708 5 0 0 0 - #0-freq6b -, f 5;
#X text 416 711 f;
#X text 416 734 a;
#X obj 384 784 *~;
#X obj 384 758 osc~ 440;
#X obj 454 758 osc~ 440;
#X floatatom 454 733 5 0 0 0 - #0-amp7b -, f 5;
#X floatatom 454 708 5 0 0 0 - #0-freq7b -, f 5;
#X text 487 711 f;
#X text 487 734 a;
#X obj 454 784 *~;
#X obj 524 758 osc~ 440;
#X floatatom 524 733 5 0 0 0 - #0-amp8b -, f 5;
#X floatatom 524 708 5 0 0 0 - #0-freq8b -, f 5;
#X text 557 711 f;
#X text 557 734 a;
#X obj 524 784 *~;
#X obj 604 758 osc~ 440;
#X floatatom 604 733 5 0 0 0 - #0-amp9b -, f 5;
#X floatatom 604 708 5 0 0 0 - #0-freq9b -, f 5;
#X text 627 711 f;
#X text 627 734 a;
#X obj 604 784 *~;
#X floatatom 674 733 5 0 0 0 - #0-amp10b -, f 5;
#X floatatom 674 708 5 0 0 0 - #0-freq10b -, f 5;
#X text 697 711 f;
#X text 697 734 a;
#X obj 674 784 *~;
#X obj 674 758 osc~ 440;
#X floatatom 744 733 5 0 0 0 - #0-amp11b -, f 5;
#X floatatom 744 708 5 0 0 0 - #0-freq11b -, f 5;
#X text 767 711 f;
#X text 767 734 a;
#X obj 744 784 *~;
#X obj 744 758 osc~ 440;
#X floatatom 814 733 5 0 0 0 - #0-amp12b -, f 5;
#X floatatom 814 708 5 0 0 0 - #0-freq12b -, f 5;
#X text 837 711 f;
#X text 837 734 a;
#X obj 814 784 *~;
#X obj 814 758 osc~ 440;
#X obj 397 53 receive~ sig4;
#X text 34 684 1;
#X text 104 684 2;
#X text 174 684 3;
#X text 244 684 4;
#X text 315 684 5;
#X text 384 684 6;
#X text 454 684 7;
#X text 524 684 8;
#X text 604 684 9;
#X text 674 684 10;
#X text 744 684 11;
#X text 814 684 12;
#X obj 874 758 osc~ 440;
#X floatatom 874 733 5 0 0 0 - #0-amp13b -, f 5;
#X floatatom 874 708 5 0 0 0 - #0-freq13b -, f 5;
#X text 906 711 f;
#X text 906 734 a;
#X obj 874 784 *~;
#X obj 944 758 osc~ 440;
#X floatatom 944 733 5 0 0 0 - #0-amp14b -, f 5;
#X floatatom 944 708 5 0 0 0 - #0-freq14b -, f 5;
#X text 976 711 f;
#X text 976 734 a;
#X obj 944 784 *~;
#X obj 1014 758 osc~ 440;
#X floatatom 1014 733 5 0 0 0 - #0-amp15b -, f 5;
#X floatatom 1014 708 5 0 0 0 - #0-freq15b -, f 5;
#X text 1046 711 f;
#X text 1046 734 a;
#X obj 1014 784 *~;
#X floatatom 1084 733 5 0 0 0 - #0-amp16b -, f 5;
#X floatatom 1084 708 5 0 0 0 - #0-freq16b -, f 5;
#X text 1116 711 f;
#X text 1116 734 a;
#X obj 1084 784 *~;
#X obj 1084 758 osc~ 440;
#X floatatom 1155 733 5 0 0 0 - #0-amp17b -, f 5;
#X floatatom 1155 708 5 0 0 0 - #0-freq17b -, f 5;
#X text 1186 711 f;
#X text 1186 734 a;
#X obj 1155 784 *~;
#X obj 1155 758 osc~ 440;
#X floatatom 1224 733 5 0 0 0 - #0-amp18b -, f 5;
#X floatatom 1224 708 5 0 0 0 - #0-freq18b -, f 5;
#X text 1256 711 f;
#X text 1256 734 a;
#X obj 1224 784 *~;
#X obj 1224 758 osc~ 440;
#X obj 1294 758 osc~ 440;
#X floatatom 1294 733 5 0 0 0 - #0-amp19b -, f 5;
#X floatatom 1294 708 5 0 0 0 - #0-freq19b -, f 5;
#X text 1327 711 f;
#X text 1327 734 a;
#X obj 1294 784 *~;
#X obj 1362 741 osc~ 440;
#X floatatom 1362 716 5 0 0 0 - #0-amp20b -, f 5;
#X floatatom 1362 691 5 0 0 0 - #0-freq20b -, f 5;
#X text 1397 711 f;
#X text 1397 734 a;
#X obj 1362 767 *~;
#X obj 1444 758 osc~ 440;
#X floatatom 1444 733 5 0 0 0 - #0-amp21b -, f 5;
#X floatatom 1444 708 5 0 0 0 - #0-freq21b -, f 5;
#X text 1467 711 f;
#X text 1467 734 a;
#X obj 1444 784 *~;
#X floatatom 1514 733 5 0 0 0 - #0-amp22b -, f 5;
#X floatatom 1514 708 5 0 0 0 - #0-freq22b -, f 5;
#X text 1537 711 f;
#X text 1537 734 a;
#X obj 1514 784 *~;
#X obj 1514 758 osc~ 440;
#X floatatom 1584 733 5 0 0 0 - #0-amp23b -, f 5;
#X floatatom 1584 708 5 0 0 0 - #0-freq23b -, f 5;
#X text 1607 711 f;
#X text 1607 734 a;
#X obj 1584 784 *~;
#X obj 1584 758 osc~ 440;
#X floatatom 1654 733 5 0 0 0 - #0-amp24b -, f 5;
#X floatatom 1654 708 5 0 0 0 - #0-freq24b -, f 5;
#X text 1677 711 f;
#X text 1677 734 a;
#X obj 1654 784 *~;
#X obj 1654 758 osc~ 440;
#X text 874 684 13;
#X text 944 684 14;
#X text 1014 684 15;
#X text 1084 684 16;
#X text 1155 684 17;
#X text 1224 684 18;
#X text 1294 684 19;
#X text 1362 667 20;
#X text 1444 684 21;
#X text 1514 684 22;
#X text 1584 684 23;
#X text 1654 684 24;
#X floatatom 116 282 5 0 0 0 - #0-amp1a #0-amp1b, f 5;
#X floatatom 116 257 5 0 0 0 - #0-freq1a #0-freq1b, f 5;
#X text 148 260 f;
#X text 148 283 a;
#X floatatom 196 268 5 0 0 0 - #0-amp2a #0-amp2b, f 5;
#X floatatom 196 243 5 0 0 0 - #0-freq2a #0-freq2b, f 5;
#X text 213 260 f;
#X text 196 292 a;
#X floatatom 245 282 5 0 0 0 - #0-amp3a #0-amp3b, f 5;
#X floatatom 245 257 5 0 0 0 - #0-freq3a #0-freq3b, f 5;
#X text 277 260 f;
#X text 277 283 a;
#X floatatom 308 282 5 0 0 0 - #0-amp4a #0-amp4b, f 5;
#X floatatom 308 257 5 0 0 0 - #0-freq4a #0-freq4b, f 5;
#X text 340 260 f;
#X text 340 283 a;
#X floatatom 373 282 5 0 0 0 - #0-amp5a #0-amp5b, f 5;
#X floatatom 373 257 5 0 0 0 - #0-freq5a #0-freq5b, f 5;
#X text 404 260 f;
#X text 404 283 a;
#X floatatom 436 282 5 0 0 0 - #0-amp6a #0-amp6b, f 5;
#X floatatom 436 257 5 0 0 0 - #0-freq6a #0-freq6b, f 5;
#X text 468 260 f;
#X text 468 283 a;
#X floatatom 505 282 5 0 0 0 - #0-amp7a #0-amp7b, f 5;
#X floatatom 505 257 5 0 0 0 - #0-freq7a #0-freq7b, f 5;
#X text 538 260 f;
#X text 538 283 a;
#X floatatom 583 284 5 0 0 0 - #0-amp8a #0-amp8b, f 5;
#X floatatom 558 242 5 0 0 0 - #0-freq8a #0-freq8b, f 5;
#X text 603 260 f;
#X text 603 283 a;
#X floatatom 644 282 5 0 0 0 - #0-amp9a #0-amp9b, f 5;
#X floatatom 644 257 5 0 0 0 - #0-freq9a #0-freq9b, f 5;
#X text 667 260 f;
#X text 667 283 a;
#X floatatom 707 282 5 0 0 0 - #0-amp10a #0-amp10b, f 5;
#X floatatom 707 257 5 0 0 0 - #0-freq10a #0-freq10b, f 5;
#X text 730 260 f;
#X text 730 283 a;
#X floatatom 771 282 5 0 0 0 - #0-amp11a #0-amp11b, f 5;
#X floatatom 771 257 5 0 0 0 - #0-freq11a #0-freq11b, f 5;
#X text 794 260 f;
#X text 794 283 a;
#X floatatom 835 282 5 0 0 0 - #0-amp12a #0-amp12b, f 5;
#X floatatom 835 257 5 0 0 0 - #0-freq12a #0-freq12b, f 5;
#X text 858 260 f;
#X text 858 283 a;
#X text 116 233 1;
#X text 196 219 2;
#X text 245 233 3;
#X text 308 233 4;
#X text 373 233 5;
#X text 436 233 6;
#X text 505 233 7;
#X text 558 218 8;
#X text 644 233 9;
#X text 707 233 10;
#X text 771 233 11;
#X text 835 233 12;
#X floatatom 116 355 5 0 0 0 - #0-amp13a #0-amp13b, f 5;
#X floatatom 116 330 5 0 0 0 - #0-freq13a #0-freq13b, f 5;
#X text 145 336 f;
#X text 145 359 a;
#X floatatom 196 339 5 0 0 0 - #0-amp14a #0-amp14b, f 5;
#X floatatom 175 337 5 0 0 0 - #0-freq14a #0-freq14b, f 5;
#X text 196 315 f;
#X text 196 363 a;
#X floatatom 245 355 5 0 0 0 - #0-amp15a #0-amp15b, f 5;
#X floatatom 245 330 5 0 0 0 - #0-freq15a #0-freq15b, f 5;
#X text 274 336 f;
#X text 308 354 a;
#X floatatom 308 378 5 0 0 0 - #0-amp16a #0-amp16b, f 5;
#X floatatom 308 330 5 0 0 0 - #0-freq16a #0-freq16b, f 5;
#X text 337 336 f;
#X text 337 359 a;
#X floatatom 373 355 5 0 0 0 - #0-amp17a #0-amp17b, f 5;
#X floatatom 373 330 5 0 0 0 - #0-freq17a #0-freq17b, f 5;
#X text 401 336 f;
#X text 401 359 a;
#X floatatom 436 355 5 0 0 0 - #0-amp18a #0-amp18b, f 5;
#X floatatom 436 330 5 0 0 0 - #0-freq18a #0-freq18b, f 5;
#X text 465 336 f;
#X text 465 359 a;
#X floatatom 505 355 5 0 0 0 - #0-amp19a #0-amp19b, f 5;
#X floatatom 505 330 5 0 0 0 - #0-freq19a #0-freq19b, f 5;
#X text 534 336 f;
#X text 534 359 a;
#X floatatom 579 360 5 0 0 0 - #0-amp20a #0-amp20b, f 5;
#X floatatom 564 337 5 0 0 0 - #0-freq20a #0-freq20b, f 5;
#X text 599 336 f;
#X text 599 359 a;
#X floatatom 644 355 5 0 0 0 - #0-amp21a #0-amp21b, f 5;
#X floatatom 644 330 5 0 0 0 - #0-freq21a #0-freq21b, f 5;
#X text 663 336 f;
#X text 663 359 a;
#X floatatom 707 355 5 0 0 0 - #0-amp22a #0-amp22b, f 5;
#X floatatom 707 330 5 0 0 0 - #0-freq22a #0-freq22b, f 5;
#X text 726 336 f;
#X text 726 359 a;
#X floatatom 771 355 5 0 0 0 - #0-amp23a #0-amp23b, f 5;
#X floatatom 771 330 5 0 0 0 - #0-freq23a #0-freq23b, f 5;
#X text 790 336 f;
#X text 790 359 a;
#X floatatom 835 355 5 0 0 0 - #0-amp24a #0-amp24b, f 5;
#X floatatom 835 330 5 0 0 0 - #0-freq24a #0-freq24b, f 5;
#X text 854 336 f;
#X text 854 359 a;
#X text 116 306 13;
#X text 178 309 14;
#X text 245 306 15;
#X text 308 306 16;
#X text 373 306 17;
#X text 436 306 18;
#X text 505 306 19;
#X text 566 309 20;
#X text 644 306 21;
#X text 707 306 22;
#X text 771 306 23;
#X text 835 306 24;
#X obj 30 1202 outlet~;
#X obj 533 129 bng 15 250 50 0 \$0-harmonicspec_a empty empty 17 7
0 10 -262144 -1 -1;
#X obj 1399 1 bng 15 250 50 0 empty \$0-harmonicspec_a empty 17 7 0
10 -262144 -1 -1;
#X obj 533 104 bng 15 250 50 0 \$0-sine empty empty 17 7 0 10 -262144
-1 -1;
#X obj 1031 21 bng 15 250 50 0 empty \$0-sine empty 17 7 0 10 -262144
-1 -1;
#X text 558 126 Sine;
#X obj 1805 1 bng 15 250 50 0 empty \$0-harmonicspec_b empty 17 7 0
10 -262144 -1 -1;
#X obj 533 154 bng 15 250 50 0 \$0-harmonicspec_b empty empty 17 7
0 10 -262144 -1 -1;
#X msg 2732 104 440;
#X obj 2933 53 bng 15 250 50 0 empty empty empty 17 7 0 10 -262144
-1 -1;
#X obj 2721 37 bng 15 250 50 0 empty empty empty 17 7 0 10 -262144
-1 -1;
#X obj 2721 12 bng 15 250 50 0 empty \$0-inharmonicspec empty 17 7
0 10 -262144 -1 -1;
#X text 2704 103 1;
#X text 2704 103 2;
#X text 2704 126 3;
#X text 2704 149 4;
#X text 2704 172 5;
#X text 2704 195 6;
#X text 2704 218 7;
#X text 2704 241 8;
#X text 2704 264 9;
#X text 2704 287 10;
#X text 2704 283 11;
#X text 2704 310 12;
#X text 2704 333 13;
#X text 2704 356 14;
#X text 2704 379 15;
#X text 2704 402 16;
#X text 2704 425 17;
#X text 2704 448 18;
#X text 2704 436 19;
#X text 2704 471 20;
#X text 2704 494 21;
#X text 2704 517 22;
#X text 2704 512 23;
#X text 2704 540 24;
#X text 2902 103 1;
#X text 2902 103 2;
#X text 2902 126 3;
#X text 2902 149 4;
#X text 2902 172 5;
#X text 2902 195 6;
#X text 2902 218 7;
#X text 2902 241 8;
#X text 2902 264 9;
#X text 2902 287 10;
#X text 2902 283 11;
#X text 2902 310 12;
#X text 2902 333 13;
#X text 2902 356 14;
#X text 2902 379 15;
#X text 2902 402 16;
#X text 2902 425 17;
#X text 2902 448 18;
#X text 2902 436 19;
#X text 2902 471 20;
#X text 2900 462 21;
#X text 2902 494 22;
#X text 2902 517 23;
#X text 2902 540 24;
#X msg 2933 78 1;
#X msg 2933 104 0.74;
#X msg 2933 130 0.56;
#X msg 2933 156 0.76;
#X msg 2933 182 0.48;
#X msg 2933 208 0.55;
#X msg 2932 197 0.72;
#X msg 2933 234 0.19;
#X msg 2933 260 0.71;
#X msg 2933 286 0.9;
#X msg 2932 284 0.08;
#X msg 2933 312 0.88;
#X msg 2933 338 0.41;
#X msg 2933 364 0.83;
#X msg 2932 360 0.57;
#X msg 2933 390 0.49;
#X msg 2933 416 0.19;
#X msg 2933 442 0.37;
#X msg 2931 437 0.06;
#X msg 2933 468 0.32;
#X msg 2933 494 0.27;
#X msg 2933 520 0.76;
#X msg 2932 513 0.31;
#X msg 2933 546 0.3;
#X msg 2732 104 11980;
#X msg 2732 130 9633;
#X msg 2732 156 11393;
#X msg 2732 182 12958;
#X msg 2732 208 5721;
#X msg 2732 197 8459;
#X msg 2732 234 19413;
#X msg 2732 260 9242;
#X msg 2732 286 14523;
#X msg 2732 284 19217;
#X msg 2732 312 5525;
#X msg 2732 338 16283;
#X msg 2732 364 7872;
#X msg 2732 360 3178;
#X msg 2732 390 11589;
#X msg 2732 416 16479;
#X msg 2732 442 4156;
#X msg 2732 437 6699;
#X msg 2732 468 17848;
#X msg 2732 494 9633;
#X msg 2732 520 11589;
#X msg 2732 513 11198;
#X msg 2732 546 11393;
#X obj 29 1107 *~;
#X obj 745 161 hsl 128 15 0 127 0 0 \$0-gainslider empty Gain/Volume
-2 -8 0 10 -262144 -1 -1 0 1;
#X obj 375 1107 / 127;
#X obj 533 179 bng 15 250 50 0 \$0-inharmonicspec empty empty 17 7
0 10 -262144 -1 -1;
#X text 558 172 Inharmonic Spectrum;
#X text 1001 -85 This is one way to do presets in Pd... its a LOT easier
in Max ------------------------------------------------------------------------------------------------------------------------------
, f 199;
#X obj 378 1107 hsl 128 15 0 127 0 0 empty \$0-gainslider empty -2
-8 0 10 -262144 -1 -1 0 1;
#X text 515 1106 gain;
#X text 558 149 Harmonic Spectrum A;
#X text 555 160 Harmonic Spectrum B;
#X text -75 196 All frequency and amplitude controls in the user interface
remotely receive from the preset freq and amp values to the right using
the receive symbol "\$0-freq#a" and "\$0-amp#a". All freq and amp controls
also remotely send to the number boxes below \, which actually set
the oscillators to develop the various timbre. These use the remote
send symbol "\$0-freq#b" and "\$0-amp#b". All remote send and receive
symbols can be seen in each object's properties., f 24;
#X obj 2787 104 send \$0-freq1a;
#X obj 2787 104 send \$0-freq2a;
#X obj 2787 130 send \$0-freq3a;
#X obj 2787 156 send \$0-freq4a;
#X obj 2787 182 send \$0-freq5a;
#X obj 2787 208 send \$0-freq6a;
#X obj 2787 197 send \$0-freq7a;
#X obj 2787 234 send \$0-freq8a;
#X obj 2787 260 send \$0-freq9a;
#X obj 2787 286 send \$0-freq10a;
#X obj 2787 284 send \$0-freq11a;
#X obj 2787 312 send \$0-freq12a;
#X obj 2787 338 send \$0-freq13a;
#X obj 2787 364 send \$0-freq14a;
#X obj 2787 360 send \$0-freq15a;
#X obj 2787 390 send \$0-freq16a;
#X obj 2787 416 send \$0-freq17a;
#X obj 2787 442 send \$0-freq18a;
#X obj 2787 437 send \$0-freq19a;
#X obj 2787 468 send \$0-freq20a;
#X obj 2787 494 send \$0-freq21a;
#X obj 2787 520 send \$0-freq22a;
#X obj 2787 513 send \$0-freq23a;
#X obj 2787 546 send \$0-freq24a;
#X obj 2975 104 send \$0-amp1a;
#X obj 2975 104 send \$0-amp2a;
#X obj 2975 130 send \$0-amp3a;
#X obj 2975 156 send \$0-amp4a;
#X obj 2975 182 send \$0-amp5a;
#X obj 2975 208 send \$0-amp6a;
#X obj 2976 197 send \$0-amp7a;
#X obj 2975 234 send \$0-amp8a;
#X obj 2975 260 send \$0-amp9a;
#X obj 2975 286 send \$0-amp10a;
#X obj 2975 284 send \$0-amp11a;
#X obj 2975 312 send \$0-amp12a;
#X obj 2975 338 send \$0-amp13a;
#X obj 2975 364 send \$0-amp14a;
#X obj 2975 360 send \$0-amp15a;
#X obj 2975 390 send \$0-amp16a;
#X obj 2975 416 send \$0-amp17a;
#X obj 2975 442 send \$0-amp18a;
#X obj 2975 437 send \$0-amp19a;
#X obj 2975 468 send \$0-amp20a;
#X obj 2975 494 send \$0-amp21a;
#X obj 2975 520 send \$0-amp22a;
#X obj 2975 513 send \$0-amp23a;
#X obj 2975 546 send \$0-amp24a;
#X obj 29 1133 clip~ -0.9 0.9;
#X text 196 196 Individual Partials/Harmonics:;
#X text 558 103 Preset Timbres;
#X msg 2251 104 440;
#X msg 2251 182 3080;
#X msg 2251 260 3960;
#X msg 2251 286 4840;
#X msg 2251 338 5720;
#X msg 2251 364 6600;
#X msg 2251 390 7480;
#X msg 2251 416 8360;
#X msg 2251 468 9240;
#X msg 2251 494 10120;
#X msg 2441 104 1;
#X obj 2442 53 bng 15 250 50 0 empty empty empty 17 7 0 10 -262144
-1 -1;
#X obj 2250 53 bng 15 250 50 0 empty empty empty 17 7 0 10 -262144
-1 -1;
#X obj 2248 1 bng 15 250 50 0 empty \$0-harmonicspec_c empty 17 7 0
10 -262144 -1 -1;
#X text 2227 103 1;
#X text 2227 103 2;
#X text 2227 126 3;
#X text 2227 149 4;
#X text 2227 172 5;
#X text 2227 195 6;
#X text 2227 218 7;
#X text 2227 241 8;
#X text 2227 264 9;
#X text 2227 287 10;
#X text 2227 283 11;
#X text 2227 310 12;
#X text 2227 333 13;
#X text 2227 356 14;
#X text 2227 379 15;
#X text 2227 402 16;
#X text 2227 425 17;
#X text 2227 448 18;
#X text 2227 436 19;
#X text 2227 471 20;
#X text 2227 494 21;
#X text 2227 517 22;
#X text 2227 512 23;
#X text 2227 540 24;
#X text 2419 103 1;
#X text 2419 103 2;
#X text 2419 126 3;
#X text 2419 149 4;
#X text 2419 172 5;
#X text 2419 195 6;
#X text 2419 218 7;
#X text 2419 241 8;
#X text 2419 264 9;
#X text 2419 287 10;
#X text 2419 283 11;
#X text 2419 310 12;
#X text 2419 333 13;
#X text 2419 356 14;
#X text 2419 379 15;
#X text 2419 402 16;
#X text 2419 425 17;
#X text 2419 448 18;
#X text 2419 436 19;
#X text 2419 471 20;
#X text 2419 494 21;
#X text 2419 517 22;
#X text 2419 540 23;
#X text 2419 563 24;
#X msg 2251 104 0;
#X msg 2251 130 0;
#X msg 2251 208 0;
#X msg 2251 234 0;
#X msg 2251 284 0;
#X msg 2251 312 0;
#X msg 2251 360 0;
#X msg 2251 387 0;
#X msg 2251 442 0;
#X msg 2251 463 0;
#X msg 2251 520 0;
#X msg 2251 546 0;
#X msg 2251 156 2200;
#X msg 2251 141 1320;
#X msg 2441 104 0;
#X msg 2441 130 0;
#X msg 2441 182 0;
#X msg 2441 234 0;
#X msg 2441 260 0;
#X msg 2441 286 0;
#X msg 2441 363 0;
#X msg 2441 389 0;
#X msg 2441 415 0;
#X msg 2441 441 0;
#X msg 2441 493 0;
#X msg 2441 545 0;
#X obj 2297 104 send \$0-freq1a;
#X obj 2297 104 send \$0-freq2a;
#X obj 2297 130 send \$0-freq3a;
#X obj 2297 156 send \$0-freq4a;
#X obj 2297 182 send \$0-freq5a;
#X obj 2297 208 send \$0-freq6a;
#X obj 2297 197 send \$0-freq7a;
#X obj 2297 234 send \$0-freq8a;
#X obj 2297 260 send \$0-freq9a;
#X obj 2297 286 send \$0-freq10a;
#X obj 2297 284 send \$0-freq11a;
#X obj 2297 312 send \$0-freq12a;
#X obj 2297 338 send \$0-freq13a;
#X obj 2297 364 send \$0-freq14a;
#X obj 2297 360 send \$0-freq15a;
#X obj 2297 390 send \$0-freq16a;
#X obj 2297 416 send \$0-freq17a;
#X obj 2297 442 send \$0-freq18a;
#X obj 2297 437 send \$0-freq19a;
#X obj 2297 468 send \$0-freq20a;
#X obj 2297 494 send \$0-freq21a;
#X obj 2297 520 send \$0-freq22a;
#X obj 2297 513 send \$0-freq23a;
#X obj 2297 546 send \$0-freq24a;
#X obj 2515 104 send \$0-amp1a;
#X obj 2515 104 send \$0-amp2a;
#X obj 2515 130 send \$0-amp3a;
#X obj 2515 156 send \$0-amp4a;
#X obj 2515 182 send \$0-amp5a;
#X obj 2515 208 send \$0-amp6a;
#X obj 2516 197 send \$0-amp7a;
#X obj 2515 234 send \$0-amp8a;
#X obj 2515 260 send \$0-amp9a;
#X obj 2515 286 send \$0-amp10a;
#X obj 2515 284 send \$0-amp11a;
#X obj 2515 312 send \$0-amp12a;
#X obj 2515 338 send \$0-amp13a;
#X obj 2515 364 send \$0-amp14a;
#X obj 2515 360 send \$0-amp15a;
#X obj 2515 390 send \$0-amp16a;
#X obj 2515 416 send \$0-amp17a;
#X obj 2515 442 send \$0-amp18a;
#X obj 2515 437 send \$0-amp19a;
#X obj 2515 468 send \$0-amp20a;
#X obj 2515 494 send \$0-amp21a;
#X obj 2515 520 send \$0-amp22a;
#X obj 2515 513 send \$0-amp23a;
#X obj 2515 546 send \$0-amp24a;
#X text 1056 -23 Sine Wave preset (silences all partials other than
the first), f 22;
#X text 1399 -23 Harmonic Spectrum A (Sawtooth Wave) Preset;
#X text 1805 -23 Harmonic Spectrum B (Triangle Wave) Preset;
#X msg 2441 156 0.3333;
#X msg 2441 161 0.2;
#X msg 2441 208 0.142857;
#X msg 2441 261 0.1111;
#X msg 2441 284 0.0909091;
#X msg 2441 337 0.0769231;
#X msg 2441 360 0.0666667;
#X msg 2441 414 0.0588235;
#X msg 2441 437 0.0526316;
#X msg 2441 467 0.047619;
#X msg 2441 519 0.0434783;
#X obj 533 204 bng 15 250 50 0 \$0-harmonicspec_c empty empty 17 7
0 10 -262144 -1 -1;
#X text 558 195 Harmonic Spectrum C;
#X text 2248 -23 Harmonic Spectrum C (Square/Rectangle Wave) Preset
;
#X text 2721 -23 Inharmonic Spectrum Preset (all frequencies and amplitudes
are random);
#X floatatom 116 428 5 0 0 0 - #0-amp25a #0-amp25b, f 5;
#X floatatom 116 403 5 0 0 0 - #0-freq25a #0-freq25b, f 5;
#X text 148 413 f;
#X text 148 436 a;
#X floatatom 196 435 5 0 0 0 - #0-amp26a #0-amp26b, f 5;
#X floatatom 196 410 5 0 0 0 - #0-freq26a #0-freq26b, f 5;
#X text 213 413 f;
#X text 245 427 a;
#X floatatom 245 451 5 0 0 0 - #0-amp27a #0-amp27b, f 5;
#X floatatom 245 403 5 0 0 0 - #0-freq27a #0-freq27b, f 5;
#X text 277 413 f;
#X text 308 427 a;
#X floatatom 308 451 5 0 0 0 - #0-amp28a #0-amp28b, f 5;
#X floatatom 308 403 5 0 0 0 - #0-freq28a #0-freq28b, f 5;
#X text 340 413 f;
#X text 373 427 a;
#X floatatom 373 451 5 0 0 0 - #0-amp29a #0-amp29b, f 5;
#X floatatom 373 403 5 0 0 0 - #0-freq29a #0-freq29b, f 5;
#X text 404 413 f;
#X text 436 427 a;
#X floatatom 436 451 5 0 0 0 - #0-amp30a #0-amp30b, f 5;
#X floatatom 436 403 5 0 0 0 - #0-freq30a #0-freq30b, f 5;
#X text 468 413 f;
#X text 468 436 a;
#X floatatom 505 428 5 0 0 0 - #0-amp31a #0-amp31b, f 5;
#X floatatom 505 403 5 0 0 0 - #0-freq31a #0-freq31b, f 5;
#X text 538 413 f;
#X text 538 436 a;
#X floatatom 583 437 5 0 0 0 - #0-amp32a #0-amp32b, f 5;
#X floatatom 568 414 5 0 0 0 - #0-freq32a #0-freq32b, f 5;
#X text 603 413 f;
#X text 603 436 a;
#X floatatom 644 428 5 0 0 0 - #0-amp33a #0-amp33b, f 5;
#X floatatom 644 403 5 0 0 0 - #0-freq33a #0-freq33b, f 5;
#X text 667 413 f;
#X text 667 436 a;
#X floatatom 707 428 5 0 0 0 - #0-amp34a #0-amp34b, f 5;
#X floatatom 707 403 5 0 0 0 - #0-freq34a #0-freq34b, f 5;
#X text 730 413 f;
#X text 730 436 a;
#X floatatom 771 428 5 0 0 0 - #0-amp35a #0-amp35b, f 5;
#X floatatom 771 403 5 0 0 0 - #0-freq35a #0-freq35b, f 5;
#X text 794 413 f;
#X text 794 436 a;
#X floatatom 835 428 5 0 0 0 - #0-amp36a #0-amp36b, f 5;
#X floatatom 835 403 5 0 0 0 - #0-freq36a #0-freq36b, f 5;
#X text 858 413 f;
#X text 858 436 a;
#X floatatom 116 501 5 0 0 0 - #0-amp37a #0-amp37b, f 5;
#X floatatom 116 476 5 0 0 0 - #0-freq37a #0-freq37b, f 5;
#X text 145 489 f;
#X text 145 512 a;
#X floatatom 196 506 5 0 0 0 - #0-amp38a #0-amp38b, f 5;
#X floatatom 175 490 5 0 0 0 - #0-freq38a #0-freq38b, f 5;
#X text 196 482 f;
#X text 226 512 a;
#X floatatom 245 501 5 0 0 0 - #0-amp39a #0-amp39b, f 5;
#X floatatom 245 476 5 0 0 0 - #0-freq39a #0-freq39b, f 5;
#X text 274 489 f;
#X text 308 500 a;
#X floatatom 308 524 5 0 0 0 - #0-amp40a #0-amp40b, f 5;
#X floatatom 308 476 5 0 0 0 - #0-freq40a #0-freq40b, f 5;
#X text 337 489 f;
#X text 337 512 a;
#X floatatom 373 501 5 0 0 0 - #0-amp41a #0-amp41b, f 5;
#X floatatom 373 476 5 0 0 0 - #0-freq41a #0-freq41b, f 5;
#X text 401 489 f;
#X text 401 512 a;
#X floatatom 436 501 5 0 0 0 - #0-amp42a #0-amp42b, f 5;
#X floatatom 436 476 5 0 0 0 - #0-freq42a #0-freq42b, f 5;
#X text 465 489 f;
#X text 465 512 a;
#X floatatom 505 501 5 0 0 0 - #0-amp43a #0-amp43b, f 5;
#X floatatom 505 476 5 0 0 0 - #0-freq43a #0-freq43b, f 5;
#X text 534 489 f;
#X text 534 512 a;
#X floatatom 579 513 5 0 0 0 - #0-amp44a #0-amp44b, f 5;
#X floatatom 564 490 5 0 0 0 - #0-freq44a #0-freq44b, f 5;
#X text 599 489 f;
#X text 599 512 a;
#X floatatom 644 501 5 0 0 0 - #0-amp45a #0-amp45b, f 5;
#X floatatom 644 476 5 0 0 0 - #0-freq45a #0-freq45b, f 5;
#X text 663 489 f;
#X text 663 512 a;
#X floatatom 707 501 5 0 0 0 - #0-amp46a #0-amp46b, f 5;
#X floatatom 707 476 5 0 0 0 - #0-freq46a #0-freq46b, f 5;
#X text 726 489 f;
#X text 726 512 a;
#X floatatom 771 501 5 0 0 0 - #0-amp47a #0-amp47b, f 5;
#X floatatom 771 476 5 0 0 0 - #0-freq47a #0-freq47b, f 5;
#X text 790 489 f;
#X text 790 512 a;
#X floatatom 835 501 5 0 0 0 - #0-amp48a #0-amp48b, f 5;
#X floatatom 835 476 5 0 0 0 - #0-freq48a #0-freq48b, f 5;
#X text 854 489 f;
#X text 854 512 a;
#X text 116 379 25;
#X text 196 386 26;
#X text 245 379 27;
#X text 308 386 28;
#X text 373 379 29;
#X text 436 379 30;
#X text 505 379 31;
#X text 570 386 32;
#X text 644 379 33;
#X text 707 379 34;
#X text 771 379 35;
#X text 835 379 36;
#X text 116 452 37;
#X text 196 459 38;
#X text 242 462 39;
#X text 305 462 40;
#X text 370 462 41;
#X text 433 462 42;
#X text 505 452 43;
#X text 566 462 44;
#X text 644 452 45;
#X text 707 452 46;
#X text 771 452 47;
#X text 835 452 48;
#X text 843 1000 a;
#X obj 866 1026 osc~ 440;
#X floatatom 866 1001 5 0 0 0 - #0-amp25b -, f 5;
#X floatatom 866 976 5 0 0 0 - #0-freq25b -, f 5;
#X text 896 976 f;
#X text 896 999 a;
#X obj 866 1052 *~;
#X obj 931 1026 osc~ 440;
#X floatatom 931 1001 5 0 0 0 - #0-amp26b -, f 5;
#X floatatom 931 976 5 0 0 0 - #0-freq26b -, f 5;
#X text 966 976 f;
#X text 966 999 a;
#X obj 931 1052 *~;
#X obj 1005 1026 osc~ 440;
#X floatatom 1005 1001 5 0 0 0 - #0-amp27b -, f 5;
#X floatatom 1005 976 5 0 0 0 - #0-freq27b -, f 5;
#X text 1036 976 f;
#X text 1036 999 a;
#X obj 1005 1052 *~;
#X floatatom 1068 1001 5 0 0 0 - #0-amp28b -, f 5;
#X floatatom 1068 976 5 0 0 0 - #0-freq28b -, f 5;
#X text 1106 976 f;
#X text 1106 999 a;
#X obj 1068 1052 *~;
#X obj 1068 1026 osc~ 440;
#X floatatom 1143 1001 5 0 0 0 - #0-amp29b -, f 5;
#X floatatom 1143 976 5 0 0 0 - #0-freq29b -, f 5;
#X text 1176 976 f;
#X text 1176 999 a;
#X obj 1143 1052 *~;
#X obj 1143 1026 osc~ 440;
#X floatatom 1216 1001 5 0 0 0 - #0-amp30b -, f 5;
#X floatatom 1216 976 5 0 0 0 - #0-freq30b -, f 5;
#X text 1246 976 f;
#X text 1246 999 a;
#X obj 1216 1052 *~;
#X obj 1216 1026 osc~ 440;
#X obj 1285 1026 osc~ 440;
#X floatatom 1285 1001 5 0 0 0 - #0-amp31b -, f 5;
#X floatatom 1285 976 5 0 0 0 - #0-freq31b -, f 5;
#X text 1317 976 f;
#X text 1317 999 a;
#X obj 1285 1052 *~;
#X obj 1350 1026 osc~ 440;
#X floatatom 1350 1001 5 0 0 0 - #0-amp32b -, f 5;
#X floatatom 1350 976 5 0 0 0 - #0-freq32b -, f 5;
#X text 1387 976 f;
#X text 1387 999 a;
#X obj 1350 1052 *~;
#X obj 1424 1026 osc~ 440;
#X floatatom 1424 1001 5 0 0 0 - #0-amp33b -, f 5;
#X floatatom 1424 976 5 0 0 0 - #0-freq33b -, f 5;
#X text 1457 976 f;
#X text 1457 999 a;
#X obj 1424 1052 *~;
#X floatatom 1507 1001 5 0 0 0 - #0-amp34b -, f 5;
#X floatatom 1487 976 5 0 0 0 - #0-freq34b -, f 5;
#X text 1527 976 f;
#X text 1527 999 a;
#X obj 1492 1054 *~;
#X obj 1493 1030 osc~ 440;
#X floatatom 1561 1001 5 0 0 0 - #0-amp35b -, f 5;
#X floatatom 1561 976 5 0 0 0 - #0-freq35b -, f 5;
#X text 1597 976 f;
#X text 1597 999 a;
#X obj 1561 1052 *~;
#X obj 1561 1026 osc~ 440;
#X floatatom 1635 1001 5 0 0 0 - #0-amp36b -, f 5;
#X floatatom 1635 976 5 0 0 0 - #0-freq36b -, f 5;
#X text 1667 976 f;
#X text 1667 999 a;
#X obj 1635 1052 *~;
#X obj 1635 1026 osc~ 440;
#X text 1693 1000 a;
#X obj 1715 1026 osc~ 440;
#X floatatom 1715 1001 5 0 0 0 - #0-amp37b -, f 5;
#X floatatom 1715 976 5 0 0 0 - #0-freq37b -, f 5;
#X text 1746 976 f;
#X text 1746 999 a;
#X obj 1715 1052 *~;
#X obj 1790 1026 osc~ 440;
#X floatatom 1790 1001 5 0 0 0 - #0-amp38b -, f 5;
#X floatatom 1790 976 5 0 0 0 - #0-freq38b -, f 5;
#X text 1816 976 f;
#X text 1816 999 a;
#X obj 1790 1052 *~;
#X obj 1854 1026 osc~ 440;
#X floatatom 1854 1001 5 0 0 0 - #0-amp39b -, f 5;
#X floatatom 1854 976 5 0 0 0 - #0-freq39b -, f 5;
#X text 1886 976 f;
#X text 1886 999 a;
#X obj 1854 1052 *~;
#X floatatom 1927 1001 5 0 0 0 - #0-amp40b -, f 5;
#X floatatom 1927 976 5 0 0 0 - #0-freq40b -, f 5;
#X text 1956 976 f;
#X text 1956 999 a;
#X obj 1927 1052 *~;
#X obj 1927 1026 osc~ 440;
#X floatatom 1992 1001 5 0 0 0 - #0-amp41b -, f 5;
#X floatatom 1992 976 5 0 0 0 - #0-freq41b -, f 5;
#X text 2026 976 f;
#X text 2026 999 a;
#X obj 1992 1052 *~;
#X obj 1992 1026 osc~ 440;
#X floatatom 2065 1001 5 0 0 0 - #0-amp42b -, f 5;
#X floatatom 2065 976 5 0 0 0 - #0-freq42b -, f 5;
#X text 2096 976 f;
#X text 2096 999 a;
#X obj 2065 1052 *~;
#X obj 2065 1026 osc~ 440;
#X obj 2133 1026 osc~ 440;
#X floatatom 2133 1001 5 0 0 0 - #0-amp43b -, f 5;
#X floatatom 2133 976 5 0 0 0 - #0-freq43b -, f 5;
#X text 2167 976 f;
#X text 2167 999 a;
#X obj 2133 1052 *~;
#X obj 2208 1026 osc~ 440;
#X floatatom 2208 1001 5 0 0 0 - #0-amp44b -, f 5;
#X floatatom 2208 976 5 0 0 0 - #0-freq44b -, f 5;
#X text 2237 976 f;
#X text 2237 999 a;
#X obj 2208 1052 *~;
#X obj 2272 1026 osc~ 440;
#X floatatom 2272 1001 5 0 0 0 - #0-amp45b -, f 5;
#X floatatom 2272 976 5 0 0 0 - #0-freq45b -, f 5;
#X text 2307 976 f;
#X text 2307 999 a;
#X obj 2272 1052 *~;
#X floatatom 2345 1001 5 0 0 0 - #0-amp46b -, f 5;
#X floatatom 2345 976 5 0 0 0 - #0-freq46b -, f 5;
#X text 2377 976 f;
#X text 2377 999 a;
#X obj 2345 1052 *~;
#X obj 2345 1026 osc~ 440;
#X floatatom 2419 1001 5 0 0 0 - #0-amp47b -, f 5;
#X floatatom 2419 976 5 0 0 0 - #0-freq47b -, f 5;
#X text 2447 976 f;
#X text 2447 999 a;
#X obj 2419 1052 *~;
#X obj 2419 1026 osc~ 440;
#X floatatom 2483 1001 5 0 0 0 - #0-amp48b -, f 5;
#X floatatom 2483 976 5 0 0 0 - #0-freq48b -, f 5;
#X text 2517 976 f;
#X text 2517 999 a;
#X obj 2483 1052 *~;
#X obj 2483 1026 osc~ 440;
#X text 866 952 25;
#X text 931 952 26;
#X text 1005 952 27;
#X text 1068 952 28;
#X text 1143 952 29;
#X text 1216 952 30;
#X text 1285 952 31;
#X text 1350 952 32;
#X text 1424 952 33;
#X text 1487 952 34;
#X text 1561 952 35;
#X text 1635 952 36;
#X text 1715 952 37;
#X text 1790 952 38;
#X text 1854 952 39;
#X text 1927 952 40;
#X text 1992 952 41;
#X text 2065 952 42;
#X text 2133 952 43;
#X text 2208 952 44;
#X text 2272 952 45;
#X text 2345 952 46;
#X text 2419 952 47;
#X text 2483 952 48;
#X obj 1399 26 bng 15 250 50 0 empty empty empty 17 7 0 10 -262144
-1 -1;
#N canvas 25 23 1415 855 freq.calc.sawtooth 0;
#X obj 54 111 until;
#X obj 115 133 + 1;
#X obj 54 133 float 1;
#X obj 189 386 f;
#X text 226 386 the iterator is stored here as an index to be used
by the [route] object, f 72;
#X text 142 133 iterator \, increase by 1 each time [until] sends a
"bang";
#X obj 117 351 trigger b f;
#X obj 135 427 pack f f;
#X text 196 425 combine the iterator/partial number with the calculated
partial amplitude value as a pair for [route];
#X msg 295 233 1;
#X obj 295 211 sel 48;
#X text 341 207 this mechanism resets the iterator to "1" when the
max iterations have occured, f 40;
#X obj 328 233 loadbang;
#X obj 54 160 trigger f f;
#X text 131 157 send the iterator first to the loop mechanism \, then
to the [sel] object to test if the loop is over (and reset the iterator
back to 1);
#X obj 117 268 t f f, f 15;
#X obj 24 468 route 1 2 3 4 5 6 7 8 9 10 11 12 13 14 15 16 17 18 19
20 21 22 23 24 25 26 27 28 29 30 31 32 33 34 35 36 37 38 39 40 41 42
43 44 45 46 47 48, f 227;
#X obj 54 88 t f f;
#X msg 54 67 48;
#X obj 138 19 inlet;
#X text 179 18 Fundamental Frequency;
#X obj 54 20 inlet;
#X obj 24 524 send \$0-freq1a;
#X obj 123 524 send \$0-freq2a;
#X obj 220 524 send \$0-freq3a;
#X obj 317 524 send \$0-freq4a;
#X obj 414 524 send \$0-freq5a;
#X obj 511 524 send \$0-freq6a;
#X obj 610 524 send \$0-freq7a;
#X obj 707 524 send \$0-freq8a;
#X obj 804 524 send \$0-freq9a;
#X obj 901 524 send \$0-freq10a;
#X obj 997 524 send \$0-freq11a;
#X obj 1095 524 send \$0-freq12a;
#X obj 1191 524 send \$0-freq13a;
#X obj 1288 524 send \$0-freq14a;
#X obj 1386 524 send \$0-freq15a;
#X obj 1484 523 send \$0-freq16a;
#X obj 24 551 send \$0-freq17a;
#X obj 123 551 send \$0-freq18a;
#X obj 220 551 send \$0-freq19a;
#X obj 317 551 send \$0-freq20a;
#X obj 414 551 send \$0-freq21a;
#X obj 511 551 send \$0-freq22a;
#X obj 611 551 send \$0-freq23a;
#X obj 708 551 send \$0-freq24a;
#X obj 805 551 send \$0-freq25a;
#X obj 902 551 send \$0-freq26a;
#X obj 998 551 send \$0-freq27a;
#X obj 1095 551 send \$0-freq28a;
#X obj 1191 551 send \$0-freq29a;
#X obj 1288 551 send \$0-freq30a;
#X obj 1386 551 send \$0-freq31a;
#X obj 1483 551 send \$0-freq32a;
#X obj 24 578 send \$0-freq33a;
#X obj 123 578 send \$0-freq34a;
#X obj 220 578 send \$0-freq35a;
#X obj 319 578 send \$0-freq36a;
#X obj 415 578 send \$0-freq37a;
#X obj 511 578 send \$0-freq38a;
#X obj 611 578 send \$0-freq39a;
#X obj 710 578 send \$0-freq40a;
#X obj 807 578 send \$0-freq41a;
#X obj 904 578 send \$0-freq42a;
#X obj 1001 578 send \$0-freq43a;
#X obj 1097 578 send \$0-freq44a;
#X obj 1194 578 send \$0-freq45a;
#X obj 1291 578 send \$0-freq46a;
#X obj 1388 578 send \$0-freq47a;
#X obj 1485 578 send \$0-freq48a;
#X obj 117 312 * 440;
#X connect 0 0 2 0;
#X connect 1 0 2 1;
#X connect 2 0 1 0;
#X connect 2 0 13 0;
#X connect 3 0 7 0;
#X connect 6 0 3 0;
#X connect 6 1 7 1;
#X connect 7 0 16 0;
#X connect 9 0 2 1;
#X connect 10 0 9 0;
#X connect 12 0 9 0;
#X connect 13 0 10 0;
#X connect 13 1 15 0;
#X connect 15 0 70 0;
#X connect 15 1 3 1;
#X connect 16 0 22 0;
#X connect 16 1 23 0;
#X connect 16 2 24 0;
#X connect 16 3 25 0;
#X connect 16 4 26 0;
#X connect 16 5 27 0;
#X connect 16 6 28 0;
#X connect 16 7 29 0;
#X connect 16 8 30 0;
#X connect 16 9 31 0;
#X connect 16 10 32 0;
#X connect 16 11 33 0;
#X connect 16 12 34 0;
#X connect 16 13 35 0;
#X connect 16 14 36 0;
#X connect 16 15 37 0;
#X connect 16 16 38 0;
#X connect 16 17 39 0;
#X connect 16 18 40 0;
#X connect 16 19 41 0;
#X connect 16 20 42 0;
#X connect 16 21 43 0;
#X connect 16 22 44 0;
#X connect 16 23 45 0;
#X connect 16 24 46 0;
#X connect 16 25 47 0;
#X connect 16 26 48 0;
#X connect 16 27 49 0;
#X connect 16 28 50 0;
#X connect 16 29 51 0;
#X connect 16 30 52 0;
#X connect 16 31 53 0;
#X connect 16 32 54 0;
#X connect 16 33 55 0;
#X connect 16 34 56 0;
#X connect 16 35 57 0;
#X connect 16 36 58 0;
#X connect 16 37 59 0;
#X connect 16 38 60 0;
#X connect 16 39 61 0;
#X connect 16 40 62 0;
#X connect 16 41 63 0;
#X connect 16 42 64 0;
#X connect 16 43 65 0;
#X connect 16 44 66 0;
#X connect 16 45 67 0;
#X connect 16 46 68 0;
#X connect 16 47 69 0;
#X connect 17 0 0 0;
#X connect 17 1 10 1;
#X connect 18 0 17 0;
#X connect 19 0 70 1;
#X connect 21 0 18 0;
#X connect 70 0 6 0;
#X restore 1399 51 pd freq.calc.sawtooth;
#X obj 1545 21 bng 15 250 50 0 empty empty empty 17 7 0 10 -262144
-1 -1;
#N canvas 274 104 1111 673 amp.calc.sawtooth 0;
#X obj 52 91 until;
#X obj 113 113 + 1;
#X obj 52 113 float 1;
#X obj 115 298 /;
#X obj 187 386 f;
#X text 145 298 divide 1/n \, where n is the interator (and the partial
number), f 61;
#X text 224 386 the iterator is stored here as an index to be used
by the [route] object, f 72;
#X text 140 113 iterator \, increase by 1 each time [until] sends a
"bang";
#X obj 115 351 trigger b f;
#X obj 133 427 pack f f;
#X text 194 425 combine the iterator/partial number with the calculated
partial amplitude value as a pair for [route];
#X msg 293 213 1;
#X obj 293 191 sel 48;
#X text 339 187 this mechanism resets the iterator to "1" when the
max iterations have occured, f 40;
#X obj 326 213 loadbang;
#X obj 52 140 trigger f f;
#X text 129 137 send the iterator first to the loop mechanism \, then
to the [sel] object to test if the loop is over (and reset the iterator
back to 1);
#X obj 115 271 swap 1;
#X floatatom 115 325 5 0 0 0 - - -, f 5;
#X obj 115 248 t f f, f 15;
#X obj 52 68 t f f;
#X msg 52 47 48;
#X obj 24 488 route 1 2 3 4 5 6 7 8 9 10 11 12 13 14 15 16 17 18 19
20 21 22 23 24 25 26 27 28 29 30 31 32 33 34 35 36 37 38 39 40 41 42
43 44 45 46 47 48, f 227;
#X obj 24 544 send \$0-amp1a;
#X obj 123 544 send \$0-amp2a;
#X obj 220 544 send \$0-amp3a;
#X obj 317 544 send \$0-amp4a;
#X obj 414 544 send \$0-amp5a;
#X obj 511 544 send \$0-amp6a;
#X obj 610 544 send \$0-amp7a;
#X obj 707 544 send \$0-amp8a;
#X obj 804 544 send \$0-amp9a;
#X obj 901 544 send \$0-amp10a;
#X obj 997 544 send \$0-amp11a;
#X obj 1095 544 send \$0-amp12a;
#X obj 1191 544 send \$0-amp13a;
#X obj 1288 544 send \$0-amp4a;
#X obj 1386 544 send \$0-amp15a;
#X obj 1484 543 send \$0-amp16a;
#X obj 24 571 send \$0-amp17a;
#X obj 123 571 send \$0-amp18a;
#X obj 220 571 send \$0-amp19a;
#X obj 317 571 send \$0-amp20a;
#X obj 414 571 send \$0-amp21a;
#X obj 511 571 send \$0-amp22a;
#X obj 611 571 send \$0-amp23a;
#X obj 708 571 send \$0-amp24a;
#X obj 805 571 send \$0-amp25a;
#X obj 902 571 send \$0-amp26a;
#X obj 998 571 send \$0-amp27a;
#X obj 1191 571 send \$0-amp29a;
#X obj 1288 571 send \$0-amp30a;
#X obj 1386 571 send \$0-amp31a;
#X obj 1483 571 send \$0-amp32a;
#X obj 24 598 send \$0-amp33a;
#X obj 123 598 send \$0-amp34a;
#X obj 220 598 send \$0-amp35a;
#X obj 319 598 send \$0-amp36a;
#X obj 415 598 send \$0-amp37a;
#X obj 511 598 send \$0-amp38a;
#X obj 611 598 send \$0-amp39a;
#X obj 709 598 send \$0-amp40a;
#X obj 807 598 send \$0-amp41a;
#X obj 904 598 send \$0-amp42a;
#X obj 1001 598 send \$0-amp43a;
#X obj 1291 598 send \$0-amp46a;
#X obj 1388 598 send \$0-amp47a;
#X obj 1485 598 send \$0-amp48a;
#X obj 52 20 inlet;
#X obj 1095 571 send \$0-amp28a;
#X obj 1097 598 send \$0-amp44a;
#X obj 1194 598 send \$0-amp45a;
#X connect 0 0 2 0;
#X connect 1 0 2 1;
#X connect 2 0 1 0;
#X connect 2 0 15 0;
#X connect 3 0 18 0;
#X connect 4 0 9 0;
#X connect 8 0 4 0;
#X connect 8 1 9 1;
#X connect 9 0 22 0;
#X connect 11 0 2 1;
#X connect 12 0 11 0;
#X connect 14 0 11 0;
#X connect 15 0 12 0;
#X connect 15 1 19 0;
#X connect 17 0 3 0;
#X connect 17 1 3 1;
#X connect 18 0 8 0;
#X connect 19 0 17 0;
#X connect 19 1 4 1;
#X connect 20 0 0 0;
#X connect 20 1 12 1;
#X connect 21 0 20 0;
#X connect 22 0 23 0;
#X connect 22 1 24 0;
#X connect 22 2 25 0;
#X connect 22 3 26 0;
#X connect 22 4 27 0;
#X connect 22 5 28 0;
#X connect 22 6 29 0;
#X connect 22 7 30 0;
#X connect 22 8 31 0;
#X connect 22 9 32 0;
#X connect 22 10 33 0;
#X connect 22 11 34 0;
#X connect 22 12 35 0;
#X connect 22 13 36 0;
#X connect 22 14 37 0;
#X connect 22 15 38 0;
#X connect 22 16 39 0;
#X connect 22 17 40 0;
#X connect 22 18 41 0;
#X connect 22 19 42 0;
#X connect 22 20 43 0;
#X connect 22 21 44 0;
#X connect 22 22 45 0;
#X connect 22 23 46 0;
#X connect 22 24 47 0;
#X connect 22 25 48 0;
#X connect 22 26 49 0;
#X connect 22 27 69 0;
#X connect 22 28 50 0;
#X connect 22 29 51 0;
#X connect 22 30 52 0;
#X connect 22 31 53 0;
#X connect 22 32 54 0;
#X connect 22 33 55 0;
#X connect 22 34 56 0;
#X connect 22 35 57 0;
#X connect 22 36 58 0;
#X connect 22 37 59 0;
#X connect 22 38 60 0;
#X connect 22 39 61 0;
#X connect 22 40 62 0;
#X connect 22 41 63 0;
#X connect 22 42 64 0;
#X connect 22 43 70 0;
#X connect 22 44 71 0;
#X connect 22 45 65 0;
#X connect 22 46 66 0;
#X connect 22 47 67 0;
#X connect 68 0 21 0;
#X restore 1545 46 pd amp.calc.sawtooth;
#X obj 1805 26 bng 15 250 50 0 empty empty empty 17 7 0 10 -262144
-1 -1;
#X obj 1965 21 bng 15 250 50 0 empty empty empty 17 7 0 10 -262144
-1 -1;
#N canvas 25 23 1415 855 freq.calc.triangle 0;
#X obj 54 111 until;
#X obj 115 133 + 1;
#X obj 54 133 float 1;
#X obj 189 386 f;
#X text 226 386 the iterator is stored here as an index to be used
by the [route] object, f 72;
#X text 142 133 iterator \, increase by 1 each time [until] sends a
"bang";
#X obj 117 351 trigger b f;
#X obj 135 427 pack f f;
#X text 196 425 combine the iterator/partial number with the calculated
partial amplitude value as a pair for [route];
#X msg 295 233 1;
#X obj 295 211 sel 48;
#X text 341 207 this mechanism resets the iterator to "1" when the
max iterations have occured, f 40;
#X obj 328 233 loadbang;
#X obj 54 160 trigger f f;
#X text 131 157 send the iterator first to the loop mechanism \, then
to the [sel] object to test if the loop is over (and reset the iterator
back to 1);
#X obj 117 268 t f f, f 15;
#X obj 24 468 route 1 2 3 4 5 6 7 8 9 10 11 12 13 14 15 16 17 18 19
20 21 22 23 24 25 26 27 28 29 30 31 32 33 34 35 36 37 38 39 40 41 42
43 44 45 46 47 48, f 227;
#X obj 54 88 t f f;
#X msg 54 67 48;
#X obj 143 19 inlet;
#X text 184 18 Fundamental Frequency;
#X obj 54 20 inlet;
#X obj 24 524 send \$0-freq1a;
#X obj 220 524 send \$0-freq3a;
#X obj 414 524 send \$0-freq5a;
#X obj 610 524 send \$0-freq7a;
#X obj 804 524 send \$0-freq9a;
#X obj 997 524 send \$0-freq11a;
#X obj 1191 524 send \$0-freq13a;
#X obj 1386 524 send \$0-freq15a;
#X obj 24 551 send \$0-freq17a;
#X obj 220 551 send \$0-freq19a;
#X obj 414 551 send \$0-freq21a;
#X obj 611 551 send \$0-freq23a;
#X obj 805 551 send \$0-freq25a;
#X obj 998 551 send \$0-freq27a;
#X obj 1191 551 send \$0-freq29a;
#X obj 1386 551 send \$0-freq31a;
#X obj 24 578 send \$0-freq33a;
#X obj 220 578 send \$0-freq35a;
#X obj 415 578 send \$0-freq37a;
#X obj 611 578 send \$0-freq39a;
#X obj 807 578 send \$0-freq41a;
#X obj 1001 578 send \$0-freq43a;
#X obj 1194 578 send \$0-freq45a;
#X obj 1388 578 send \$0-freq47a;
#X obj 117 312 * 440;
#X connect 0 0 2 0;
#X connect 1 0 2 1;
#X connect 2 0 1 0;
#X connect 2 0 13 0;
#X connect 3 0 7 0;
#X connect 6 0 3 0;
#X connect 6 1 7 1;
#X connect 7 0 16 0;
#X connect 9 0 2 1;
#X connect 10 0 9 0;
#X connect 12 0 9 0;
#X connect 13 0 10 0;
#X connect 13 1 15 0;
#X connect 15 0 46 0;
#X connect 15 1 3 1;
#X connect 16 0 22 0;
#X connect 16 2 23 0;
#X connect 16 4 24 0;
#X connect 16 6 25 0;
#X connect 16 8 26 0;
#X connect 16 10 27 0;
#X connect 16 12 28 0;
#X connect 16 14 29 0;
#X connect 16 16 30 0;
#X connect 16 18 31 0;
#X connect 16 20 32 0;
#X connect 16 22 33 0;
#X connect 16 24 34 0;
#X connect 16 26 35 0;
#X connect 16 28 36 0;
#X connect 16 30 37 0;
#X connect 16 32 38 0;
#X connect 16 34 39 0;
#X connect 16 36 40 0;
#X connect 16 38 41 0;
#X connect 16 40 42 0;
#X connect 16 42 43 0;
#X connect 16 44 44 0;
#X connect 16 46 45 0;
#X connect 17 0 0 0;
#X connect 17 1 10 1;
#X connect 18 0 17 0;
#X connect 19 0 46 1;
#X connect 21 0 18 0;
#X connect 46 0 6 0;
#X restore 1805 51 pd freq.calc.triangle;
#N canvas 25 23 1415 855 amp.calc.triangle 0;
#X obj 52 91 until;
#X obj 113 113 + 1;
#X obj 52 113 float 1;
#X obj 115 298 /;
#X obj 187 386 f;
#X text 224 386 the iterator is stored here as an index to be used
by the [route] object, f 72;
#X text 140 113 iterator \, increase by 1 each time [until] sends a
"bang";
#X obj 115 351 trigger b f;
#X obj 133 427 pack f f;
#X text 194 425 combine the iterator/partial number with the calculated
partial amplitude value as a pair for [route];
#X msg 293 213 1;
#X obj 293 191 sel 48;
#X text 339 187 this mechanism resets the iterator to "1" when the
max iterations have occured, f 40;
#X obj 326 213 loadbang;
#X obj 52 140 trigger f f;
#X text 129 137 send the iterator first to the loop mechanism \, then
to the [sel] object to test if the loop is over (and reset the iterator
back to 1);
#X obj 115 271 swap 1;
#X floatatom 115 325 5 0 0 0 - - -, f 5;
#X obj 52 68 t f f;
#X msg 52 47 48;
#X obj 24 538 route 1 2 3 4 5 6 7 8 9 10 11 12 13 14 15 16 17 18 19
20 21 22 23 24 25 26 27 28 29 30 31 32 33 34 35 36 37 38 39 40 41 42
43 44 45 46 47 48, f 227;
#X obj 24 674 send \$0-amp1a;
#X obj 123 674 send \$0-amp2a;
#X obj 220 674 send \$0-amp3a;
#X obj 317 674 send \$0-amp4a;
#X obj 414 674 send \$0-amp5a;
#X obj 511 674 send \$0-amp6a;
#X obj 610 674 send \$0-amp7a;
#X obj 707 674 send \$0-amp8a;
#X obj 804 674 send \$0-amp9a;
#X obj 901 674 send \$0-amp10a;
#X obj 997 674 send \$0-amp11a;
#X obj 1095 674 send \$0-amp12a;
#X obj 1191 674 send \$0-amp13a;
#X obj 1386 674 send \$0-amp15a;
#X obj 1484 673 send \$0-amp16a;
#X obj 24 781 send \$0-amp17a;
#X obj 123 781 send \$0-amp18a;
#X obj 220 781 send \$0-amp19a;
#X obj 317 781 send \$0-amp20a;
#X obj 414 781 send \$0-amp21a;
#X obj 511 781 send \$0-amp22a;
#X obj 611 781 send \$0-amp23a;
#X obj 708 781 send \$0-amp24a;
#X obj 805 781 send \$0-amp25a;
#X obj 902 781 send \$0-amp26a;
#X obj 998 781 send \$0-amp27a;
#X obj 1191 781 send \$0-amp29a;
#X obj 1288 781 send \$0-amp30a;
#X obj 1386 781 send \$0-amp31a;
#X obj 1483 781 send \$0-amp32a;
#X obj 24 908 send \$0-amp33a;
#X obj 123 908 send \$0-amp34a;
#X obj 220 908 send \$0-amp35a;
#X obj 319 908 send \$0-amp36a;
#X obj 415 908 send \$0-amp37a;
#X obj 511 908 send \$0-amp38a;
#X obj 611 908 send \$0-amp39a;
#X obj 709 908 send \$0-amp40a;
#X obj 807 908 send \$0-amp41a;
#X obj 904 908 send \$0-amp42a;
#X obj 1001 908 send \$0-amp43a;
#X obj 1291 908 send \$0-amp46a;
#X obj 1388 908 send \$0-amp47a;
#X obj 1485 908 send \$0-amp48a;
#X obj 52 20 inlet;
#X obj 1095 781 send \$0-amp28a;
#X obj 1097 908 send \$0-amp44a;
#X obj 1194 908 send \$0-amp45a;
#X obj 115 246 *;
#X obj 115 188 t f f f, f 15;
#X text 145 298 divide 1/n^2 \, where n is the interator (and the partial
number), f 61;
#X text 141 244 n^2;
#X obj 133 449 t l b;
#X msg 160 474 0;
#X obj 1288 674 send \$0-amp14a;
#X text 195 473 All even partials need to be zeroed;
#X connect 0 0 2 0;
#X connect 1 0 2 1;
#X connect 2 0 1 0;
#X connect 2 0 14 0;
#X connect 3 0 17 0;
#X connect 4 0 8 0;
#X connect 7 0 4 0;
#X connect 7 1 8 1;
#X connect 8 0 73 0;
#X connect 10 0 2 1;
#X connect 11 0 10 0;
#X connect 13 0 10 0;
#X connect 14 0 11 0;
#X connect 14 1 70 0;
#X connect 16 0 3 0;
#X connect 16 1 3 1;
#X connect 17 0 7 0;
#X connect 18 0 0 0;
#X connect 18 1 11 1;
#X connect 19 0 18 0;
#X connect 20 0 21 0;
#X connect 20 2 23 0;
#X connect 20 4 25 0;
#X connect 20 6 27 0;
#X connect 20 8 29 0;
#X connect 20 10 31 0;
#X connect 20 12 33 0;
#X connect 20 14 34 0;
#X connect 20 16 36 0;
#X connect 20 18 38 0;
#X connect 20 20 40 0;
#X connect 20 22 42 0;
#X connect 20 24 44 0;
#X connect 20 26 46 0;
#X connect 20 28 47 0;
#X connect 20 30 49 0;
#X connect 20 32 51 0;
#X connect 20 34 53 0;
#X connect 20 36 55 0;
#X connect 20 38 57 0;
#X connect 20 40 59 0;
#X connect 20 42 61 0;
#X connect 20 44 68 0;
#X connect 20 46 63 0;
#X connect 65 0 19 0;
#X connect 69 0 16 0;
#X connect 70 0 69 0;
#X connect 70 1 69 1;
#X connect 70 2 4 1;
#X connect 73 0 20 0;
#X connect 73 1 74 0;
#X connect 74 0 22 0;
#X connect 74 0 37 0;
#X connect 74 0 52 0;
#X connect 74 0 24 0;
#X connect 74 0 39 0;
#X connect 74 0 54 0;
#X connect 74 0 26 0;
#X connect 74 0 41 0;
#X connect 74 0 56 0;
#X connect 74 0 28 0;
#X connect 74 0 43 0;
#X connect 74 0 58 0;
#X connect 74 0 30 0;
#X connect 74 0 45 0;
#X connect 74 0 60 0;
#X connect 74 0 32 0;
#X connect 74 0 66 0;
#X connect 74 0 67 0;
#X connect 74 0 75 0;
#X connect 74 0 48 0;
#X connect 74 0 62 0;
#X connect 74 0 35 0;
#X connect 74 0 50 0;
#X connect 74 0 64 0;
#X restore 1965 46 pd amp.calc.triangle;
#N canvas 25 23 1415 855 freq.calc.sine 0;
#X obj 112 35 inlet;
#X msg 111 122 0;
#X msg 112 142 0;
#X msg 112 162 0;
#X msg 112 182 0;
#X msg 112 202 0;
#X msg 112 222 0;
#X msg 112 242 0;
#X msg 112 262 0;
#X msg 112 282 0;
#X msg 112 302 0;
#X msg 112 322 0;
#X msg 112 342 0;
#X msg 112 362 0;
#X msg 112 382 0;
#X msg 112 402 0;
#X msg 112 422 0;
#X msg 112 442 0;
#X msg 112 462 0;
#X msg 112 482 0;
#X msg 112 502 0;
#X msg 112 522 0;
#X msg 112 542 0;
#X msg 112 562 0;
#X msg 112 102 440;
#X text 92 104 1;
#X text 92 124 2;
#X text 92 144 3;
#X text 92 164 4;
#X text 92 184 5;
#X text 92 204 6;
#X text 92 224 7;
#X text 92 244 8;
#X text 92 264 9;
#X text 92 284 10;
#X text 92 304 11;
#X text 92 324 12;
#X text 92 344 13;
#X text 92 364 14;
#X text 92 384 15;
#X text 92 404 16;
#X text 92 424 17;
#X text 92 444 18;
#X text 92 464 19;
#X text 92 484 20;
#X text 92 504 21;
#X text 92 524 22;
#X text 92 544 23;
#X text 92 564 24;
#X obj 142 102 send \$0-freq1a;
#X obj 142 122 send \$0-freq2a;
#X obj 142 142 send \$0-freq3a;
#X obj 142 162 send \$0-freq4a;
#X obj 142 182 send \$0-freq5a;
#X obj 142 202 send \$0-freq6a;
#X obj 142 222 send \$0-freq7a;
#X obj 142 242 send \$0-freq8a;
#X obj 142 262 send \$0-freq9a;
#X obj 142 282 send \$0-freq10a;
#X obj 142 302 send \$0-freq11a;
#X obj 142 322 send \$0-freq12a;
#X obj 142 342 send \$0-freq13a;
#X obj 142 363 send \$0-freq14a;
#X obj 142 382 send \$0-freq15a;
#X obj 142 402 send \$0-freq16a;
#X obj 142 422 send \$0-freq17a;
#X obj 142 442 send \$0-freq18a;
#X obj 142 462 send \$0-freq19a;
#X obj 142 482 send \$0-freq20a;
#X obj 142 502 send \$0-freq21a;
#X obj 142 522 send \$0-freq22a;
#X obj 142 542 send \$0-freq23a;
#X obj 142 562 send \$0-freq24a;
#X obj 112 71 bng 15 250 50 0 empty empty empty 17 7 0 10 -262144 -1
-1;
#X msg 111 604 0;
#X msg 112 624 0;
#X msg 112 644 0;
#X msg 112 664 0;
#X msg 113 684 0;
#X msg 112 704 0;
#X msg 112 724 0;
#X msg 112 744 0;
#X msg 112 764 0;
#X msg 112 784 0;
#X msg 112 804 0;
#X msg 112 824 0;
#X msg 112 844 0;
#X msg 112 864 0;
#X msg 112 884 0;
#X msg 112 904 0;
#X msg 112 924 0;
#X msg 112 944 0;
#X msg 112 964 0;
#X msg 112 984 0;
#X msg 112 1004 0;
#X msg 112 1024 0;
#X msg 112 1044 0;
#X text 92 606 2;
#X text 92 626 3;
#X text 92 646 4;
#X text 92 666 5;
#X text 92 686 6;
#X text 92 706 7;
#X text 92 726 8;
#X text 92 746 9;
#X text 92 766 10;
#X text 92 786 11;
#X text 92 806 12;
#X text 92 826 13;
#X text 92 846 14;
#X text 92 866 15;
#X text 92 886 16;
#X text 92 906 17;
#X text 92 926 18;
#X text 92 946 19;
#X text 92 966 20;
#X text 92 986 21;
#X text 92 1006 22;
#X text 92 1026 23;
#X text 92 1046 24;
#X obj 142 782 send \$0-freq11a;
#X obj 142 804 send \$0-freq12a;
#X obj 142 824 send \$0-freq13a;
#X obj 142 845 send \$0-freq14a;
#X obj 142 864 send \$0-freq15a;
#X obj 142 884 send \$0-freq16a;
#X obj 142 904 send \$0-freq17a;
#X obj 142 924 send \$0-freq18a;
#X obj 142 944 send \$0-freq19a;
#X obj 142 964 send \$0-freq20a;
#X obj 142 984 send \$0-freq21a;
#X obj 142 1004 send \$0-freq22a;
#X obj 142 1024 send \$0-freq23a;
#X obj 142 1044 send \$0-freq24a;
#X msg 111 584 0;
#X text 92 586 2;
#X obj 142 584 send \$0-freq25a;
#X obj 142 604 send \$0-freq26a;
#X obj 142 624 send \$0-freq27a;
#X obj 142 644 send \$0-freq28a;
#X obj 142 664 send \$0-freq29a;
#X obj 142 704 send \$0-freq30a;
#X obj 142 724 send \$0-freq30a;
#X obj 142 744 send \$0-freq30a;
#X obj 142 764 send \$0-freq30a;
#X obj 141 684 send \$0-freq30a;
#X obj 739 507 send;
#N canvas 25 23 450 300 for.loop 0;
#X obj 54 111 until;
#X obj 115 133 + 1;
#X obj 54 133 float 1;
#X text 142 133 iterator \, increase by 1 each time [until] sends a
"bang";
#X msg 295 233 1;
#X obj 295 211 sel 48;
#X text 341 207 this mechanism resets the iterator to "1" when the
max iterations have occured, f 40;
#X obj 328 233 loadbang;
#X obj 54 160 trigger f f;
#X text 131 157 send the iterator first to the loop mechanism \, then
to the [sel] object to test if the loop is over (and reset the iterator
back to 1);
#X obj 54 88 t f f;
#X msg 54 67 48;
#X obj 54 20 inlet;
#X obj 117 244 outlet;
#X connect 0 0 2 0;
#X connect 1 0 2 1;
#X connect 2 0 1 0;
#X connect 2 0 8 0;
#X connect 4 0 2 1;
#X connect 5 0 4 0;
#X connect 7 0 4 0;
#X connect 8 0 5 0;
#X connect 8 1 13 0;
#X connect 10 0 0 0;
#X connect 10 1 5 1;
#X connect 11 0 10 0;
#X connect 12 0 11 0;
#X restore 762 371 pd for.loop;
#X msg 769 421 \$0-freq\$1a;
#X obj 770 312 bng 15 250 50 0 empty empty empty 17 7 0 10 -262144
-1 -1;
#X connect 0 0 73 0;
#X connect 1 0 50 0;
#X connect 2 0 51 0;
#X connect 3 0 52 0;
#X connect 4 0 53 0;
#X connect 5 0 54 0;
#X connect 6 0 55 0;
#X connect 7 0 56 0;
#X connect 8 0 57 0;
#X connect 9 0 58 0;
#X connect 10 0 59 0;
#X connect 11 0 60 0;
#X connect 12 0 61 0;
#X connect 13 0 62 0;
#X connect 14 0 63 0;
#X connect 15 0 64 0;
#X connect 16 0 65 0;
#X connect 17 0 66 0;
#X connect 18 0 67 0;
#X connect 19 0 68 0;
#X connect 20 0 69 0;
#X connect 21 0 70 0;
#X connect 22 0 71 0;
#X connect 23 0 72 0;
#X connect 24 0 49 0;
#X connect 73 0 24 0;
#X connect 73 0 1 0;
#X connect 73 0 2 0;
#X connect 73 0 3 0;
#X connect 73 0 4 0;
#X connect 73 0 5 0;
#X connect 73 0 6 0;
#X connect 73 0 7 0;
#X connect 73 0 8 0;
#X connect 73 0 9 0;
#X connect 73 0 10 0;
#X connect 73 0 11 0;
#X connect 73 0 12 0;
#X connect 73 0 13 0;
#X connect 73 0 14 0;
#X connect 73 0 15 0;
#X connect 73 0 16 0;
#X connect 73 0 17 0;
#X connect 73 0 18 0;
#X connect 73 0 19 0;
#X connect 73 0 20 0;
#X connect 73 0 21 0;
#X connect 73 0 22 0;
#X connect 73 0 23 0;
#X connect 74 0 137 0;
#X connect 75 0 138 0;
#X connect 76 0 139 0;
#X connect 77 0 140 0;
#X connect 78 0 145 0;
#X connect 79 0 141 0;
#X connect 80 0 142 0;
#X connect 81 0 143 0;
#X connect 82 0 144 0;
#X connect 83 0 120 0;
#X connect 84 0 121 0;
#X connect 85 0 122 0;
#X connect 86 0 123 0;
#X connect 87 0 124 0;
#X connect 88 0 125 0;
#X connect 89 0 126 0;
#X connect 90 0 127 0;
#X connect 91 0 128 0;
#X connect 92 0 129 0;
#X connect 93 0 130 0;
#X connect 94 0 131 0;
#X connect 95 0 132 0;
#X connect 96 0 133 0;
#X connect 134 0 136 0;
#X connect 147 0 148 0;
#X connect 149 0 147 0;
#X restore 1031 46 pd freq.calc.sine;
#N canvas 25 23 450 300 amp.calc.sine 0;
#X msg 72 342 1;
#X obj 73 318 bng 15 250 50 0 empty empty empty 17 7 0 10 -262144 -1
-1;
#X msg 72 804 0;
#X msg 72 784 0;
#X msg 72 764 0;
#X msg 72 744 0;
#X msg 72 724 0;
#X msg 72 703 0;
#X msg 72 682 0;
#X msg 72 662 0;
#X msg 72 642 0;
#X msg 72 622 0;
#X msg 72 602 0;
#X msg 72 582 0;
#X msg 72 562 0;
#X msg 72 542 0;
#X msg 72 522 0;
#X msg 72 502 0;
#X msg 73 481 0;
#X msg 72 462 0;
#X msg 72 442 0;
#X msg 72 422 0;
#X msg 72 402 0;
#X msg 72 382 0;
#X msg 72 362 0;
#X text 53 342 1;
#X text 53 362 2;
#X text 53 382 3;
#X text 53 402 4;
#X text 53 422 5;
#X text 53 442 6;
#X text 53 462 7;
#X text 53 482 8;
#X text 53 502 9;
#X text 53 522 10;
#X text 53 542 11;
#X text 53 562 12;
#X text 53 582 13;
#X text 53 602 14;
#X text 53 622 15;
#X text 53 642 16;
#X text 53 662 17;
#X text 53 682 18;
#X text 53 702 19;
#X text 53 722 20;
#X text 53 742 21;
#X text 53 762 22;
#X text 53 782 23;
#X text 53 802 24;
#X obj 102 343 send \$0-amp1a;
#X obj 102 363 send \$0-amp2a;
#X obj 102 383 send \$0-amp3a;
#X obj 102 403 send \$0-amp4a;
#X obj 102 423 send \$0-amp5a;
#X obj 102 443 send \$0-amp6a;
#X obj 103 463 send \$0-amp7a;
#X obj 102 483 send \$0-amp8a;
#X obj 102 503 send \$0-amp9a;
#X obj 102 523 send \$0-amp10a;
#X obj 102 543 send \$0-amp11a;
#X obj 102 563 send \$0-amp12a;
#X obj 102 583 send \$0-amp13a;
#X obj 102 603 send \$0-amp14a;
#X obj 102 623 send \$0-amp15a;
#X obj 102 643 send \$0-amp16a;
#X obj 102 663 send \$0-amp17a;
#X obj 102 683 send \$0-amp18a;
#X obj 102 704 send \$0-amp19a;
#X obj 102 723 send \$0-amp20a;
#X obj 102 743 send \$0-amp21a;
#X obj 102 763 send \$0-amp22a;
#X obj 102 783 send \$0-amp23a;
#X obj 102 803 send \$0-amp24a;
#X obj 73 285 inlet;
#X connect 0 0 49 0;
#X connect 1 0 0 0;
#X connect 1 0 24 0;
#X connect 1 0 23 0;
#X connect 1 0 22 0;
#X connect 1 0 21 0;
#X connect 1 0 20 0;
#X connect 1 0 19 0;
#X connect 1 0 18 0;
#X connect 1 0 17 0;
#X connect 1 0 16 0;
#X connect 1 0 15 0;
#X connect 1 0 14 0;
#X connect 1 0 13 0;
#X connect 1 0 12 0;
#X connect 1 0 11 0;
#X connect 1 0 10 0;
#X connect 1 0 9 0;
#X connect 1 0 8 0;
#X connect 1 0 7 0;
#X connect 1 0 6 0;
#X connect 1 0 5 0;
#X connect 1 0 4 0;
#X connect 1 0 3 0;
#X connect 1 0 2 0;
#X connect 2 0 72 0;
#X connect 3 0 71 0;
#X connect 4 0 70 0;
#X connect 5 0 69 0;
#X connect 6 0 68 0;
#X connect 7 0 67 0;
#X connect 8 0 66 0;
#X connect 9 0 65 0;
#X connect 10 0 64 0;
#X connect 11 0 63 0;
#X connect 12 0 62 0;
#X connect 13 0 61 0;
#X connect 14 0 60 0;
#X connect 15 0 59 0;
#X connect 16 0 58 0;
#X connect 17 0 57 0;
#X connect 18 0 56 0;
#X connect 19 0 55 0;
#X connect 20 0 54 0;
#X connect 21 0 53 0;
#X connect 22 0 52 0;
#X connect 23 0 51 0;
#X connect 24 0 50 0;
#X connect 73 0 1 0;
#X restore 1148 53 pd amp.calc.sine;
#X obj 1434 601 send;
#X obj 1248 234 bng 15 250 50 0 empty empty empty 17 7 0 10 -262144
-1 -1;
#X obj 1247 363 send \$0-freq1a;
#X msg 1247 337 440;
#N canvas 25 23 869 484 for.loop.2-48 1;
#X obj 54 111 until;
#X obj 115 133 + 1;
#X text 142 133 iterator \, increase by 1 each time [until] sends a
"bang";
#X text 341 207 this mechanism resets the iterator to "1" when the
max iterations have occured, f 40;
#X obj 328 233 loadbang;
#X obj 54 160 trigger f f;
#X text 131 157 send the iterator first to the loop mechanism \, then
to the [sel] object to test if the loop is over (and reset the iterator
back to 1);
#X obj 54 88 t f f;
#X obj 54 20 inlet;
#X obj 117 244 outlet;
#X msg 295 233 2;
#X obj 54 133 float 2;
#X msg 54 67 47;
#X obj 295 211 sel 48;
#X connect 0 0 11 0;
#X connect 1 0 11 1;
#X connect 4 0 10 0;
#X connect 5 0 13 0;
#X connect 5 1 9 0;
#X connect 7 0 0 0;
#X connect 8 0 12 0;
#X connect 10 0 11 1;
#X connect 11 0 1 0;
#X connect 11 0 5 0;
#X connect 12 0 7 0;
#X connect 13 0 10 0;
#X restore 1399 310 pd for.loop.2-48;
#X msg 1432 560 0;
#X obj 1447 440 float \$0;
#X obj 1447 414 t b s;
#X obj 1362 642 print;
#X obj 1447 492 t b s;
#X obj 1317 234 `;
#X obj 1447 360 makefilename %%d-freq%da;
#X obj 1447 466 makefilename;
#X msg 1508 463 set \$1;
#X connect 2 0 8 0;
#X connect 3 0 8 1;
#X connect 4 0 2 0;
#X connect 8 0 399 0;
#X connect 9 0 14 0;
#X connect 10 0 14 1;
#X connect 11 0 9 0;
#X connect 14 0 399 0;
#X connect 15 0 20 0;
#X connect 16 0 20 1;
#X connect 17 0 15 0;
#X connect 20 0 399 0;
#X connect 21 0 25 1;
#X connect 22 0 26 0;
#X connect 25 0 399 0;
#X connect 26 0 25 0;
#X connect 27 0 31 1;
#X connect 28 0 32 0;
#X connect 31 0 399 0;
#X connect 32 0 31 0;
#X connect 33 0 37 1;
#X connect 34 0 38 0;
#X connect 37 0 399 0;
#X connect 38 0 37 0;
#X connect 39 0 44 0;
#X connect 40 0 44 1;
#X connect 41 0 39 0;
#X connect 44 0 399 0;
#X connect 45 0 50 0;
#X connect 46 0 50 1;
#X connect 47 0 45 0;
#X connect 50 0 399 0;
#X connect 51 0 56 0;
#X connect 52 0 56 1;
#X connect 53 0 51 0;
#X connect 56 0 399 0;
#X connect 57 0 61 1;
#X connect 58 0 62 0;
#X connect 61 0 399 0;
#X connect 62 0 61 0;
#X connect 63 0 67 1;
#X connect 64 0 68 0;
#X connect 67 0 399 0;
#X connect 68 0 67 0;
#X connect 69 0 73 1;
#X connect 70 0 74 0;
#X connect 73 0 399 0;
#X connect 74 0 73 0;
#X connect 75 0 0 0;
#X connect 88 0 93 0;
#X connect 89 0 93 1;
#X connect 90 0 88 0;
#X connect 93 0 399 0;
#X connect 94 0 99 0;
#X connect 95 0 99 1;
#X connect 96 0 94 0;
#X connect 99 0 399 0;
#X connect 100 0 105 0;
#X connect 101 0 105 1;
#X connect 102 0 100 0;
#X connect 105 0 399 0;
#X connect 106 0 110 1;
#X connect 107 0 111 0;
#X connect 110 0 399 0;
#X connect 111 0 110 0;
#X connect 112 0 116 1;
#X connect 113 0 117 0;
#X connect 116 0 399 0;
#X connect 117 0 116 0;
#X connect 118 0 122 1;
#X connect 119 0 123 0;
#X connect 122 0 399 0;
#X connect 123 0 122 0;
#X connect 124 0 129 0;
#X connect 125 0 129 1;
#X connect 126 0 124 0;
#X connect 129 0 399 0;
#X connect 130 0 135 0;
#X connect 131 0 135 1;
#X connect 132 0 130 0;
#X connect 135 0 399 0;
#X connect 136 0 141 0;
#X connect 137 0 141 1;
#X connect 138 0 136 0;
#X connect 141 0 399 0;
#X connect 142 0 146 1;
#X connect 143 0 147 0;
#X connect 146 0 399 0;
#X connect 147 0 146 0;
#X connect 148 0 152 1;
#X connect 149 0 153 0;
#X connect 152 0 399 0;
#X connect 153 0 152 0;
#X connect 154 0 158 1;
#X connect 155 0 159 0;
#X connect 158 0 399 0;
#X connect 159 0 158 0;
#X connect 294 0 905 0;
#X connect 294 0 907 0;
#X connect 296 0 913 0;
#X connect 296 0 914 0;
#X connect 300 0 410 0;
#X connect 301 0 352 0;
#X connect 301 0 353 0;
#X connect 301 0 354 0;
#X connect 301 0 355 0;
#X connect 301 0 356 0;
#X connect 301 0 357 0;
#X connect 301 0 358 0;
#X connect 301 0 359 0;
#X connect 301 0 360 0;
#X connect 301 0 361 0;
#X connect 301 0 362 0;
#X connect 301 0 363 0;
#X connect 301 0 364 0;
#X connect 301 0 365 0;
#X connect 301 0 366 0;
#X connect 301 0 367 0;
#X connect 301 0 368 0;
#X connect 301 0 369 0;
#X connect 301 0 370 0;
#X connect 301 0 371 0;
#X connect 301 0 372 0;
#X connect 301 0 373 0;
#X connect 301 0 374 0;
#X connect 301 0 375 0;
#X connect 302 0 300 0;
#X connect 302 0 376 0;
#X connect 302 0 377 0;
#X connect 302 0 378 0;
#X connect 302 0 380 0;
#X connect 302 0 381 0;
#X connect 302 0 382 0;
#X connect 302 0 383 0;
#X connect 302 0 384 0;
#X connect 302 0 385 0;
#X connect 302 0 386 0;
#X connect 302 0 387 0;
#X connect 302 0 388 0;
#X connect 302 0 389 0;
#X connect 302 0 390 0;
#X connect 302 0 391 0;
#X connect 302 0 392 0;
#X connect 302 0 393 0;
#X connect 302 0 394 0;
#X connect 302 0 395 0;
#X connect 302 0 396 0;
#X connect 302 0 397 0;
#X connect 302 0 398 0;
#X connect 302 0 379 0;
#X connect 303 0 301 0;
#X connect 303 0 302 0;
#X connect 352 0 434 0;
#X connect 353 0 435 0;
#X connect 354 0 436 0;
#X connect 355 0 437 0;
#X connect 356 0 438 0;
#X connect 357 0 439 0;
#X connect 358 0 440 0;
#X connect 359 0 441 0;
#X connect 360 0 442 0;
#X connect 361 0 443 0;
#X connect 362 0 444 0;
#X connect 363 0 445 0;
#X connect 364 0 446 0;
#X connect 365 0 447 0;
#X connect 366 0 448 0;
#X connect 367 0 449 0;
#X connect 368 0 450 0;
#X connect 369 0 451 0;
#X connect 370 0 452 0;
#X connect 371 0 453 0;
#X connect 372 0 454 0;
#X connect 373 0 455 0;
#X connect 374 0 456 0;
#X connect 375 0 457 0;
#X connect 376 0 411 0;
#X connect 377 0 412 0;
#X connect 378 0 413 0;
#X connect 379 0 414 0;
#X connect 380 0 415 0;
#X connect 381 0 416 0;
#X connect 382 0 417 0;
#X connect 383 0 418 0;
#X connect 384 0 419 0;
#X connect 385 0 420 0;
#X connect 386 0 421 0;
#X connect 387 0 422 0;
#X connect 388 0 423 0;
#X connect 389 0 424 0;
#X connect 390 0 425 0;
#X connect 391 0 426 0;
#X connect 392 0 427 0;
#X connect 393 0 428 0;
#X connect 394 0 429 0;
#X connect 395 0 430 0;
#X connect 396 0 431 0;
#X connect 397 0 432 0;
#X connect 398 0 433 0;
#X connect 399 0 458 0;
#X connect 401 0 399 1;
#X connect 405 0 401 0;
#X connect 458 0 292 0;
#X connect 458 0 7 0;
#X connect 461 0 549 0;
#X connect 462 0 555 0;
#X connect 463 0 557 0;
#X connect 464 0 559 0;
#X connect 465 0 561 0;
#X connect 466 0 563 0;
#X connect 467 0 565 0;
#X connect 468 0 567 0;
#X connect 469 0 569 0;
#X connect 470 0 571 0;
#X connect 471 0 573 0;
#X connect 472 0 471 0;
#X connect 472 0 537 0;
#X connect 472 0 600 0;
#X connect 472 0 538 0;
#X connect 472 0 601 0;
#X connect 472 0 539 0;
#X connect 472 0 602 0;
#X connect 472 0 540 0;
#X connect 472 0 603 0;
#X connect 472 0 541 0;
#X connect 472 0 604 0;
#X connect 472 0 542 0;
#X connect 472 0 605 0;
#X connect 472 0 543 0;
#X connect 472 0 606 0;
#X connect 472 0 544 0;
#X connect 472 0 607 0;
#X connect 472 0 545 0;
#X connect 472 0 608 0;
#X connect 472 0 546 0;
#X connect 472 0 609 0;
#X connect 472 0 547 0;
#X connect 472 0 610 0;
#X connect 472 0 548 0;
#X connect 473 0 461 0;
#X connect 473 0 523 0;
#X connect 473 0 536 0;
#X connect 473 0 524 0;
#X connect 473 0 525 0;
#X connect 473 0 462 0;
#X connect 473 0 526 0;
#X connect 473 0 463 0;
#X connect 473 0 527 0;
#X connect 473 0 464 0;
#X connect 473 0 528 0;
#X connect 473 0 465 0;
#X connect 473 0 529 0;
#X connect 473 0 466 0;
#X connect 473 0 530 0;
#X connect 473 0 467 0;
#X connect 473 0 531 0;
#X connect 473 0 468 0;
#X connect 473 0 532 0;
#X connect 473 0 469 0;
#X connect 473 0 533 0;
#X connect 473 0 470 0;
#X connect 473 0 534 0;
#X connect 473 0 535 0;
#X connect 474 0 472 0;
#X connect 474 0 473 0;
#X connect 523 0 550 0;
#X connect 524 0 552 0;
#X connect 525 0 554 0;
#X connect 526 0 556 0;
#X connect 527 0 558 0;
#X connect 528 0 560 0;
#X connect 529 0 562 0;
#X connect 530 0 564 0;
#X connect 531 0 566 0;
#X connect 532 0 568 0;
#X connect 533 0 570 0;
#X connect 534 0 572 0;
#X connect 535 0 553 0;
#X connect 536 0 551 0;
#X connect 537 0 574 0;
#X connect 538 0 576 0;
#X connect 539 0 578 0;
#X connect 540 0 580 0;
#X connect 541 0 582 0;
#X connect 542 0 584 0;
#X connect 543 0 586 0;
#X connect 544 0 588 0;
#X connect 545 0 590 0;
#X connect 546 0 592 0;
#X connect 547 0 594 0;
#X connect 548 0 596 0;
#X connect 600 0 575 0;
#X connect 601 0 577 0;
#X connect 602 0 579 0;
#X connect 603 0 581 0;
#X connect 604 0 583 0;
#X connect 605 0 585 0;
#X connect 606 0 587 0;
#X connect 607 0 589 0;
#X connect 608 0 591 0;
#X connect 609 0 593 0;
#X connect 610 0 595 0;
#X connect 736 0 741 0;
#X connect 737 0 741 1;
#X connect 738 0 736 0;
#X connect 742 0 747 0;
#X connect 743 0 747 1;
#X connect 744 0 742 0;
#X connect 748 0 753 0;
#X connect 749 0 753 1;
#X connect 750 0 748 0;
#X connect 754 0 758 1;
#X connect 755 0 759 0;
#X connect 759 0 758 0;
#X connect 760 0 764 1;
#X connect 761 0 765 0;
#X connect 765 0 764 0;
#X connect 766 0 770 1;
#X connect 767 0 771 0;
#X connect 771 0 770 0;
#X connect 772 0 777 0;
#X connect 773 0 777 1;
#X connect 774 0 772 0;
#X connect 778 0 783 0;
#X connect 779 0 783 1;
#X connect 780 0 778 0;
#X connect 784 0 789 0;
#X connect 785 0 789 1;
#X connect 786 0 784 0;
#X connect 790 0 794 1;
#X connect 791 0 795 0;
#X connect 795 0 794 0;
#X connect 796 0 800 1;
#X connect 797 0 801 0;
#X connect 801 0 800 0;
#X connect 802 0 806 1;
#X connect 803 0 807 0;
#X connect 807 0 806 0;
#X connect 809 0 814 0;
#X connect 810 0 814 1;
#X connect 811 0 809 0;
#X connect 815 0 820 0;
#X connect 816 0 820 1;
#X connect 817 0 815 0;
#X connect 821 0 826 0;
#X connect 822 0 826 1;
#X connect 823 0 821 0;
#X connect 827 0 831 1;
#X connect 828 0 832 0;
#X connect 832 0 831 0;
#X connect 833 0 837 1;
#X connect 834 0 838 0;
#X connect 838 0 837 0;
#X connect 839 0 843 1;
#X connect 840 0 844 0;
#X connect 844 0 843 0;
#X connect 845 0 850 0;
#X connect 846 0 850 1;
#X connect 847 0 845 0;
#X connect 851 0 856 0;
#X connect 852 0 856 1;
#X connect 853 0 851 0;
#X connect 857 0 862 0;
#X connect 858 0 862 1;
#X connect 859 0 857 0;
#X connect 863 0 867 1;
#X connect 864 0 868 0;
#X connect 868 0 867 0;
#X connect 869 0 873 1;
#X connect 870 0 874 0;
#X connect 874 0 873 0;
#X connect 875 0 879 1;
#X connect 876 0 880 0;
#X connect 880 0 879 0;
#X connect 905 0 906 0;
#X connect 907 0 908 0;
#X connect 909 0 911 0;
#X connect 910 0 912 0;
#X connect 916 0 919 0;
#X connect 916 0 918 0;
#X connect 918 0 917 0;
#X connect 919 0 926 0;
#X connect 920 0 915 0;
#X connect 921 0 927 0;
#X connect 922 0 921 0;
#X connect 922 1 928 0;
#X connect 924 0 920 0;
#X connect 924 1 915 1;
#X connect 926 0 922 0;
#X connect 927 0 924 0;
#X connect 928 0 927 0;
#X coords 0 -1 1 1 900 450 2 100 100;
