#N canvas 381 95 503 643 10;
#X text 16 34 Travis Houldcroft || travishouldcroft.com;
#X obj 0 0 cnv 15 500 30 empty empty tdh.abstraction-name 20 12 0 14
#e0e0e0 #404040 0;
#X obj 0 98 cnv 8 500 8 empty empty Inlets 20 15 0 14 #e0e0e0 #404040
0;
#X text 20 127 0;
#X text 42 127 -;
#X obj 0 168 cnv 8 500 8 empty empty Outlets 20 15 0 14 #e0e0e0 #404040
0;
#X text 20 197 0;
#X text 42 197 -;
#X obj 0 348 cnv 8 500 8 empty empty Note 20 15 0 14 #e0e0e0 #404040
0;
#X text 18 380 Notes;
#X text 64 127 (type) inlet description;
#X text 64 197 (type) outlet description;
#X text 21 454 Code goes here...;
#X obj 0 410 cnv 4 499 4 empty empty empty 20 12 0 14 #e0e0e0 #404040
0;
#X obj 0 248 cnv 8 500 8 empty empty Arguments 20 15 0 14 #e0e0e0 #404040
0;
#X text 20 277 0;
#X text 42 277 -;
#X text 64 277 (type) Arg 1;
#X text 20 300 None;
#X obj 0 56 cnv 4 499 4 empty empty empty 20 12 0 14 #e0e0e0 #404040
0;
#X text 16 69 Description goes here...;
