#N canvas 1322 -57 1575 796 10;
#X obj -68 -5 cnv 15 775 48 empty empty TOPIC 20 12 0 14 -233017 -66577
0;
#X text -59 942 ________________________________________________________________________________________________________________________________
, f 128;
#X text -59 1434 ________________________________________________________________________________________________________________________________
, f 128;
#X text -60 1923 ________________________________________________________________________________________________________________________________
, f 128;
#X text -61 2400 ________________________________________________________________________________________________________________________________
, f 128;
#X text -60 2891 ________________________________________________________________________________________________________________________________
, f 128;
#X text -62 3378 ________________________________________________________________________________________________________________________________
, f 128;
#X text -60 3861 ________________________________________________________________________________________________________________________________
, f 128;
#X obj -68 18 cnv 15 775 28 empty empty CLASS 20 12 0 14 -233017 -66577
0;
#X obj -62 478 cnv 15 775 31 empty empty TOPIC 20 12 0 14 -233017 -66577
0;
#X obj -60 965 cnv 15 775 31 empty empty TOPIC 20 12 0 14 -233017 -66577
0;
#X obj -60 1460 cnv 15 775 31 empty empty TOPIC 20 12 0 14 -233017
-66577 0;
#X obj -60 1950 cnv 15 775 31 empty empty TOPIC 20 12 0 14 -233017
-66577 0;
#N canvas 1280 48 450 300 init 0;
#X obj 61 63 loadbang;
#X restore 660 20 pd init;
#X obj -59 2430 cnv 15 775 31 empty empty TOPIC 20 12 0 14 -233017
-66577 0;
#X obj -60 2910 cnv 15 775 31 empty empty TOPIC 20 12 0 14 -233017
-66577 0;
#X obj -60 3410 cnv 15 775 31 empty empty TOPIC 20 12 0 14 -233017
-66577 0;
#X obj -60 3880 cnv 15 775 31 empty empty TOPIC 20 12 0 14 -233017
-66577 0;
#X text -58 1002 • Text, f 128;
#X text -55 1500 •, f 128;
#X text -59 1985 • Text, f 128;
#X text -57 2467 • Text, f 128;
#X text -60 2948 • Text, f 109;
#X text -64 3444 • Text, f 128;
#X text 810 4310 _;
#X text -63 3916 • Text, f 128;
#X text -65 48 • Text, f 128;
#X text -15 78 • More Text, f 119;
