#N canvas 1561 16 503 643 12;
#X text 16 34 Travis Houldcroft || travishouldcroft.com;
#X obj 0 0 cnv 22 501 29 empty \$0-object_title tdh.abstraction-name
9 13 0 18 -166441 -1 0;
#X obj -1 98 cnv 5 501 4 empty \$0-inlet_sec_label Inlets 20 15 0 14
-166441 -1 0;
#X text 20 127 0;
#X text 42 127 -;
#X obj 0 168 cnv 5 501 4 empty \$0-outlet_sec_label Outlets 20 15 0
14 -166441 -1 0;
#X text 42 197 -;
#X obj 0 348 cnv 5 501 4 empty \$0-note_sec_label Notes 20 15 0 14
-166441 -1 0;
#X text 18 380 Notes;
#X text 64 127 (type) inlet description;
#X text 64 197 (type) outlet description;
#X text 21 454 Code goes here...;
#X obj 0 410 cnv 5 501 3 empty \$0-section_divider empty 20 12 0 14
-166441 -1 0;
#X obj 0 248 cnv 5 501 4 empty \$0-arg_sec_label Arguments 20 15 0
14 -166441 -1 0;
#X text 20 277 0;
#X text 42 277 -;
#X text 64 277 (type) Arg 1;
#X text 20 300 None;
#X obj 0 56 cnv 4 501 3 empty \$0-section_divider empty 20 12 0 14
-166441 -1 0;
#X text 16 69 Description goes here...;
#X obj 21 200 cnv 14 14 14 empty empty 0 4 8 0 12 -99865 -228856 0
;
#N canvas 2193 230 1181 819 init 1;
#X text -211 -70 _;
#N canvas 3415 219 450 300 cnv-set 1;
#N canvas 1770 -317 325 192 canvas-ctrl 1;
#N canvas 2804 -10 551 338 graph 0;
#X floatatom 180 243 5 0 0 0 Lbl-Sz - -;
#X floatatom 273 243 5 0 29 0 Lbl-Clr - -;
#N canvas 2005 235 1506 424 label-properties 0;
#X floatatom 124 -38 3 18 100 0 - - -;
#X msg 124 -11 size \$1;
#X obj 245 11 pack 100 60, f 18;
#X obj 336 -17 t b f;
#X floatatom 336 -42 4 18 100 0 - - -;
#X floatatom 245 -42 4 18 100 0 - - -;
#X msg 245 38 vis_size \$1 \$2;
#X text 287 -69 w/x;
#X text 377 -69 h/y;
#X floatatom 502 6 4 0 3 0 - - -;
#X obj 634 25 t b f;
#X floatatom 634 6 5 5 50 0 - - -;
#X msg 502 75 label_font \$1 \$2;
#X text 545 -69 type;
#X text 673 -70 size;
#X obj 502 -46 vradio 15 1 0 3 empty empty empty 0 -8 0 10 -262144
-1 -1 0;
#X text 518 -47 DejaVu Sans Mono;
#X text 518 -32 Helvetica;
#X text 519 -17 Times;
#X floatatom 730 -39 4 -100 250 0 - - -;
#X obj 802 -12 t b f;
#X floatatom 802 -39 5 -150 150 0 - - -;
#X msg 730 38 label_pos \$1 \$2;
#X text 769 -69 x;
#X text 842 -69 y;
#X obj 730 16 pack 17 20, f 17;
#X obj 502 54 pack 0 25, f 24;
#X msg 886 19 label \$1;
#X floatatom 1124 -40 3 0 29 0 - - -;
#X floatatom 1178 -40 3 0 29 0 - - -;
#X text 1205 -40 label;
#X obj 1178 -18 t b f;
#X msg 1124 35 color \$1 \$2 \$3;
#X obj 1124 14 pack 1 22 22, f 14;
#X text 1091 -41 bgr;
#X text 1103 -92 Color Presets (0-29):;
#X obj -196 -68 inlet;
#X obj -212 -68 cnv 14 14 14 empty empty 0 4 8 0 12 -99865 -228856
0;
#X symbolatom -196 100 10 0 0 0 - - -;
#X obj 501 220 send, f 13;
#X obj 245 -68 inlet;
#X obj 124 -68 inlet;
#X obj 336 -68 inlet;
#X obj -65 -68 cnv 14 14 14 empty empty 1 4 8 0 12 -99865 -228856 0
;
#X obj 107 -68 cnv 14 14 14 empty empty 2 4 8 0 12 -99865 -228856 0
;
#X obj 229 -68 cnv 14 14 14 empty empty 3 4 8 0 12 -99865 -228856 0
;
#X obj 634 -68 inlet;
#X obj 502 -68 inlet;
#X obj 730 -68 inlet;
#X obj 321 -68 cnv 14 14 14 empty empty 4 4 8 0 12 -99865 -228856 0
;
#X obj 486 -68 cnv 14 14 14 empty empty 5 4 8 0 12 -99865 -228856 0
;
#X obj 616 -68 cnv 14 14 14 empty empty 6 4 8 0 12 -99865 -228856 0
;
#X text 125 -92 Size;
#X text 266 -92 Visible Size;
#X text 548 -92 Label Font;
#X text 737 -92 Label Offset;
#X obj 802 -68 inlet;
#X obj 713 -68 cnv 14 14 14 empty empty 7 4 8 0 12 -99865 -228856 0
;
#X msg 965 -21 symbol my\ label;
#X symbolatom 886 -18 10 0 0 0 - - -;
#X obj 886 -68 inlet;
#X obj 785 -68 cnv 14 14 14 empty empty 8 4 8 0 12 -99865 -228856 0
;
#X msg 886 -40 symbol \$1;
#X text 920 -92 Label Text;
#X obj 1124 -68 inlet;
#X obj 871 -68 cnv 14 14 14 empty empty 9 4 8 0 12 -99865 -228856 0
;
#X obj 1178 -68 inlet;
#X obj 1107 -68 cnv 14 14 14 empty empty 10 0 8 0 12 -99865 -228856
0;
#X text -220 -92 Canvas Name;
#X obj 94 -108 cnv 5 1 260 empty empty empty 20 12 0 14 -128992 -66577
0;
#X obj 651 212 cnv 5 501 3 empty \$0-test_canvas Notes 9 13 0 18 -166441
-1 0;
#X obj 245 218 s \$0-test_canvas;
#X text -226 -112 _;
#X obj -196 137 print;
#X obj -10 77 spigot;
#X obj -50 -22 tgl 15 0 empty empty empty 17 7 0 10 -262144 -1 -1 1
1;
#X obj 29 24 == 1;
#X obj -119 25 == 0;
#X obj -76 24 list append \$0;
#X msg -76 47 symbol \$2-\$1;
#X msg -196 26 symbol \$1;
#X obj -196 57 spigot;
#X obj -50 -68 inlet;
#X obj 1162 -68 cnv 14 14 14 empty empty 11 0 8 0 12 -99865 -228856
0;
#X text -84 -92 Add "\$0" option;
#X obj 204 -108 cnv 5 1 260 empty empty empty 20 12 0 14 -128992 -66577
0;
#X obj 474 -108 cnv 5 1 260 empty empty empty 20 12 0 14 -128992 -66577
0;
#X obj 704 -108 cnv 5 1 260 empty empty empty 20 12 0 14 -128992 -66577
0;
#X obj 857 -108 cnv 5 1 260 empty empty empty 20 12 0 14 -128992 -66577
0;
#X obj 1087 -108 cnv 5 1 260 empty empty empty 20 12 0 14 -128992 -66577
0;
#X connect 0 0 1 0;
#X connect 1 0 39 0;
#X connect 1 0 71 0;
#X connect 2 0 6 0;
#X connect 3 0 2 0;
#X connect 3 1 2 1;
#X connect 4 0 3 0;
#X connect 5 0 2 0;
#X connect 6 0 39 0;
#X connect 6 0 71 0;
#X connect 9 0 26 0;
#X connect 10 0 26 0;
#X connect 10 1 26 1;
#X connect 11 0 10 0;
#X connect 12 0 39 0;
#X connect 12 0 71 0;
#X connect 15 0 9 0;
#X connect 19 0 25 0;
#X connect 20 0 25 0;
#X connect 20 1 25 1;
#X connect 21 0 20 0;
#X connect 22 0 39 0;
#X connect 22 0 71 0;
#X connect 25 0 22 0;
#X connect 26 0 12 0;
#X connect 27 0 39 0;
#X connect 27 0 71 0;
#X connect 28 0 33 0;
#X connect 29 0 31 0;
#X connect 31 0 33 0;
#X connect 31 1 33 2;
#X connect 32 0 39 0;
#X connect 32 0 71 0;
#X connect 33 0 32 0;
#X connect 36 0 78 0;
#X connect 36 0 80 0;
#X connect 38 0 39 1;
#X connect 38 0 73 0;
#X connect 40 0 5 0;
#X connect 41 0 0 0;
#X connect 42 0 4 0;
#X connect 46 0 11 0;
#X connect 47 0 15 0;
#X connect 48 0 19 0;
#X connect 56 0 21 0;
#X connect 58 0 27 0;
#X connect 59 0 27 0;
#X connect 60 0 62 0;
#X connect 62 0 59 0;
#X connect 64 0 28 0;
#X connect 66 0 29 0;
#X connect 74 0 38 0;
#X connect 75 0 76 0;
#X connect 75 0 77 0;
#X connect 76 0 74 1;
#X connect 77 0 81 1;
#X connect 78 0 79 0;
#X connect 79 0 74 0;
#X connect 80 0 81 0;
#X connect 81 0 38 0;
#X connect 82 0 75 0;
#X restore 100 281 pd label-properties;
#X f 26;
#X floatatom 273 221 5 0 29 0 BG-Clr - -;
#X floatatom 180 176 5 0 0 0 Vis-Sz-W - -;
#X floatatom 181 200 5 0 0 0 Vis-Sz-H - -;
#X floatatom 271 152 5 0 0 0 Lbl-X - -;
#X floatatom 272 176 5 0 0 0 Lbl-Y - -;
#X floatatom 180 152 5 0 0 0 Size - -;
#X symbolatom 212 128 10 0 0 0 Canvas-Receive - -;
#X floatatom 181 221 5 0 2 0 Lbl-Fon - -;
#X symbolatom 272 200 10 0 0 0 Lbl-Txt - -;
#X obj 296 130 tgl 15 0 empty empty empty -90 7 0 10 -262144 -260097
-1 1 1;
#X text 315 127 Append \$0;
#X text 194 105 Label Properties;
#X connect 0 0 2 6;
#X connect 1 0 2 11;
#X connect 3 0 2 10;
#X connect 4 0 2 3;
#X connect 5 0 2 4;
#X connect 6 0 2 7;
#X connect 7 0 2 8;
#X connect 8 0 2 2;
#X connect 9 0 2 0;
#X connect 10 0 2 5;
#X connect 11 0 2 9;
#X connect 12 0 2 1;
#X coords 0 -1 1 1 300 170 2 100 100;
#X restore 9 7 pd graph;
#X restore 124 36 pd canvas-ctrl;
#X text 12 16 [cnv] names:;
#X text 12 36 \$0-object_title;
#X text 15 148 \$0-section_divider;
#X text 12 56 \$0-inlet_sec_label;
#X text 12 79 \$0-outlet_sec_label;
#X text 20 98 \$0-arg_sec_label;
#X text 13 121 \$0-note_sec_label;
#N canvas 2106 -318 325 192 canvas-ctrl 1;
#N canvas 2804 -10 551 338 graph 0;
#X floatatom 180 243 5 0 0 0 Lbl-Sz - -;
#X floatatom 273 243 5 0 29 0 Lbl-Clr - -;
#N canvas 2005 235 1506 424 label-properties 0;
#X floatatom 124 -38 3 18 100 0 - - -;
#X msg 124 -11 size \$1;
#X obj 245 11 pack 100 60, f 18;
#X obj 336 -17 t b f;
#X floatatom 336 -42 4 18 100 0 - - -;
#X floatatom 245 -42 4 18 100 0 - - -;
#X msg 245 38 vis_size \$1 \$2;
#X text 287 -69 w/x;
#X text 377 -69 h/y;
#X floatatom 502 6 4 0 3 0 - - -;
#X obj 634 25 t b f;
#X floatatom 634 6 5 5 50 0 - - -;
#X msg 502 75 label_font \$1 \$2;
#X text 545 -69 type;
#X text 673 -70 size;
#X obj 502 -46 vradio 15 1 0 3 empty empty empty 0 -8 0 10 -262144
-1 -1 0;
#X text 518 -47 DejaVu Sans Mono;
#X text 518 -32 Helvetica;
#X text 519 -17 Times;
#X floatatom 730 -39 4 -100 250 0 - - -;
#X obj 802 -12 t b f;
#X floatatom 802 -39 5 -150 150 0 - - -;
#X msg 730 38 label_pos \$1 \$2;
#X text 769 -69 x;
#X text 842 -69 y;
#X obj 730 16 pack 17 20, f 17;
#X obj 502 54 pack 0 25, f 24;
#X msg 886 19 label \$1;
#X floatatom 1124 -40 3 0 29 0 - - -;
#X floatatom 1178 -40 3 0 29 0 - - -;
#X text 1205 -40 label;
#X obj 1178 -18 t b f;
#X msg 1124 35 color \$1 \$2 \$3;
#X obj 1124 14 pack 1 22 22, f 14;
#X text 1091 -41 bgr;
#X text 1103 -92 Color Presets (0-29):;
#X obj -196 -68 inlet;
#X obj -212 -68 cnv 14 14 14 empty empty 0 4 8 0 12 -99865 -228856
0;
#X symbolatom -196 100 10 0 0 0 - - -;
#X obj 501 220 send, f 13;
#X obj 245 -68 inlet;
#X obj 124 -68 inlet;
#X obj 336 -68 inlet;
#X obj -65 -68 cnv 14 14 14 empty empty 1 4 8 0 12 -99865 -228856 0
;
#X obj 107 -68 cnv 14 14 14 empty empty 2 4 8 0 12 -99865 -228856 0
;
#X obj 229 -68 cnv 14 14 14 empty empty 3 4 8 0 12 -99865 -228856 0
;
#X obj 634 -68 inlet;
#X obj 502 -68 inlet;
#X obj 730 -68 inlet;
#X obj 321 -68 cnv 14 14 14 empty empty 4 4 8 0 12 -99865 -228856 0
;
#X obj 486 -68 cnv 14 14 14 empty empty 5 4 8 0 12 -99865 -228856 0
;
#X obj 616 -68 cnv 14 14 14 empty empty 6 4 8 0 12 -99865 -228856 0
;
#X text 125 -92 Size;
#X text 266 -92 Visible Size;
#X text 548 -92 Label Font;
#X text 737 -92 Label Offset;
#X obj 802 -68 inlet;
#X obj 713 -68 cnv 14 14 14 empty empty 7 4 8 0 12 -99865 -228856 0
;
#X msg 965 -21 symbol my\ label;
#X symbolatom 886 -18 10 0 0 0 - - -;
#X obj 886 -68 inlet;
#X obj 785 -68 cnv 14 14 14 empty empty 8 4 8 0 12 -99865 -228856 0
;
#X msg 886 -40 symbol \$1;
#X text 920 -92 Label Text;
#X obj 1124 -68 inlet;
#X obj 871 -68 cnv 14 14 14 empty empty 9 4 8 0 12 -99865 -228856 0
;
#X obj 1178 -68 inlet;
#X obj 1107 -68 cnv 14 14 14 empty empty 10 0 8 0 12 -99865 -228856
0;
#X text -220 -92 Canvas Name;
#X obj 94 -108 cnv 5 1 260 empty empty empty 20 12 0 14 -128992 -66577
0;
#X obj 651 212 cnv 5 501 3 empty \$0-test_canvas Notes 9 13 0 18 -166441
-1 0;
#X obj 245 218 s \$0-test_canvas;
#X text -226 -112 _;
#X obj -196 137 print;
#X obj -10 77 spigot;
#X obj -50 -22 tgl 15 0 empty empty empty 17 7 0 10 -262144 -1 -1 1
1;
#X obj 29 24 == 1;
#X obj -119 25 == 0;
#X obj -76 24 list append \$0;
#X msg -76 47 symbol \$2-\$1;
#X msg -196 26 symbol \$1;
#X obj -196 57 spigot;
#X obj -50 -68 inlet;
#X obj 1162 -68 cnv 14 14 14 empty empty 11 0 8 0 12 -99865 -228856
0;
#X text -84 -92 Add "\$0" option;
#X obj 204 -108 cnv 5 1 260 empty empty empty 20 12 0 14 -128992 -66577
0;
#X obj 474 -108 cnv 5 1 260 empty empty empty 20 12 0 14 -128992 -66577
0;
#X obj 704 -108 cnv 5 1 260 empty empty empty 20 12 0 14 -128992 -66577
0;
#X obj 857 -108 cnv 5 1 260 empty empty empty 20 12 0 14 -128992 -66577
0;
#X obj 1087 -108 cnv 5 1 260 empty empty empty 20 12 0 14 -128992 -66577
0;
#X connect 0 0 1 0;
#X connect 1 0 39 0;
#X connect 1 0 71 0;
#X connect 2 0 6 0;
#X connect 3 0 2 0;
#X connect 3 1 2 1;
#X connect 4 0 3 0;
#X connect 5 0 2 0;
#X connect 6 0 39 0;
#X connect 6 0 71 0;
#X connect 9 0 26 0;
#X connect 10 0 26 0;
#X connect 10 1 26 1;
#X connect 11 0 10 0;
#X connect 12 0 39 0;
#X connect 12 0 71 0;
#X connect 15 0 9 0;
#X connect 19 0 25 0;
#X connect 20 0 25 0;
#X connect 20 1 25 1;
#X connect 21 0 20 0;
#X connect 22 0 39 0;
#X connect 22 0 71 0;
#X connect 25 0 22 0;
#X connect 26 0 12 0;
#X connect 27 0 39 0;
#X connect 27 0 71 0;
#X connect 28 0 33 0;
#X connect 29 0 31 0;
#X connect 31 0 33 0;
#X connect 31 1 33 2;
#X connect 32 0 39 0;
#X connect 32 0 71 0;
#X connect 33 0 32 0;
#X connect 36 0 78 0;
#X connect 36 0 80 0;
#X connect 38 0 39 1;
#X connect 38 0 73 0;
#X connect 40 0 5 0;
#X connect 41 0 0 0;
#X connect 42 0 4 0;
#X connect 46 0 11 0;
#X connect 47 0 15 0;
#X connect 48 0 19 0;
#X connect 56 0 21 0;
#X connect 58 0 27 0;
#X connect 59 0 27 0;
#X connect 60 0 62 0;
#X connect 62 0 59 0;
#X connect 64 0 28 0;
#X connect 66 0 29 0;
#X connect 74 0 38 0;
#X connect 75 0 76 0;
#X connect 75 0 77 0;
#X connect 76 0 74 1;
#X connect 77 0 81 1;
#X connect 78 0 79 0;
#X connect 79 0 74 0;
#X connect 80 0 81 0;
#X connect 81 0 38 0;
#X connect 82 0 75 0;
#X restore 100 281 pd label-properties;
#X f 26;
#X floatatom 273 221 5 0 29 0 BG-Clr - -;
#X floatatom 180 176 5 0 0 0 Vis-Sz-W - -;
#X floatatom 181 200 5 0 0 0 Vis-Sz-H - -;
#X floatatom 271 152 5 0 0 0 Lbl-X - -;
#X floatatom 272 176 5 0 0 0 Lbl-Y - -;
#X floatatom 180 152 5 0 0 0 Size - -;
#X symbolatom 212 128 10 0 0 0 Canvas-Receive - -;
#X floatatom 181 221 5 0 2 0 Lbl-Fon - -;
#X symbolatom 272 200 10 0 0 0 Lbl-Txt - -;
#X obj 296 130 tgl 15 0 empty empty empty -90 7 0 10 -262144 -260097
-1 1 1;
#X text 315 127 Append \$0;
#X text 194 105 Label Properties;
#X connect 0 0 2 6;
#X connect 1 0 2 11;
#X connect 3 0 2 10;
#X connect 4 0 2 3;
#X connect 5 0 2 4;
#X connect 6 0 2 7;
#X connect 7 0 2 8;
#X connect 8 0 2 2;
#X connect 9 0 2 0;
#X connect 10 0 2 5;
#X connect 11 0 2 9;
#X connect 12 0 2 1;
#X coords 0 -1 1 1 300 170 2 100 100;
#X restore 9 7 pd graph;
#X restore 148 55 pd canvas-ctrl;
#N canvas 2436 -319 325 192 canvas-ctrl 1;
#N canvas 2804 -10 551 338 graph 0;
#X floatatom 180 243 5 0 0 0 Lbl-Sz - -;
#X floatatom 273 243 5 0 29 0 Lbl-Clr - -;
#N canvas 2005 235 1506 424 label-properties 0;
#X floatatom 124 -38 3 18 100 0 - - -;
#X msg 124 -11 size \$1;
#X obj 245 11 pack 100 60, f 18;
#X obj 336 -17 t b f;
#X floatatom 336 -42 4 18 100 0 - - -;
#X floatatom 245 -42 4 18 100 0 - - -;
#X msg 245 38 vis_size \$1 \$2;
#X text 287 -69 w/x;
#X text 377 -69 h/y;
#X floatatom 502 6 4 0 3 0 - - -;
#X obj 634 25 t b f;
#X floatatom 634 6 5 5 50 0 - - -;
#X msg 502 75 label_font \$1 \$2;
#X text 545 -69 type;
#X text 673 -70 size;
#X obj 502 -46 vradio 15 1 0 3 empty empty empty 0 -8 0 10 -262144
-1 -1 0;
#X text 518 -47 DejaVu Sans Mono;
#X text 518 -32 Helvetica;
#X text 519 -17 Times;
#X floatatom 730 -39 4 -100 250 0 - - -;
#X obj 802 -12 t b f;
#X floatatom 802 -39 5 -150 150 0 - - -;
#X msg 730 38 label_pos \$1 \$2;
#X text 769 -69 x;
#X text 842 -69 y;
#X obj 730 16 pack 17 20, f 17;
#X obj 502 54 pack 0 25, f 24;
#X msg 886 19 label \$1;
#X floatatom 1124 -40 3 0 29 0 - - -;
#X floatatom 1178 -40 3 0 29 0 - - -;
#X text 1205 -40 label;
#X obj 1178 -18 t b f;
#X msg 1124 35 color \$1 \$2 \$3;
#X obj 1124 14 pack 1 22 22, f 14;
#X text 1091 -41 bgr;
#X text 1103 -92 Color Presets (0-29):;
#X obj -196 -68 inlet;
#X obj -212 -68 cnv 14 14 14 empty empty 0 4 8 0 12 -99865 -228856
0;
#X symbolatom -196 100 10 0 0 0 - - -;
#X obj 501 220 send, f 13;
#X obj 245 -68 inlet;
#X obj 124 -68 inlet;
#X obj 336 -68 inlet;
#X obj -65 -68 cnv 14 14 14 empty empty 1 4 8 0 12 -99865 -228856 0
;
#X obj 107 -68 cnv 14 14 14 empty empty 2 4 8 0 12 -99865 -228856 0
;
#X obj 229 -68 cnv 14 14 14 empty empty 3 4 8 0 12 -99865 -228856 0
;
#X obj 634 -68 inlet;
#X obj 502 -68 inlet;
#X obj 730 -68 inlet;
#X obj 321 -68 cnv 14 14 14 empty empty 4 4 8 0 12 -99865 -228856 0
;
#X obj 486 -68 cnv 14 14 14 empty empty 5 4 8 0 12 -99865 -228856 0
;
#X obj 616 -68 cnv 14 14 14 empty empty 6 4 8 0 12 -99865 -228856 0
;
#X text 125 -92 Size;
#X text 266 -92 Visible Size;
#X text 548 -92 Label Font;
#X text 737 -92 Label Offset;
#X obj 802 -68 inlet;
#X obj 713 -68 cnv 14 14 14 empty empty 7 4 8 0 12 -99865 -228856 0
;
#X msg 965 -21 symbol my\ label;
#X symbolatom 886 -18 10 0 0 0 - - -;
#X obj 886 -68 inlet;
#X obj 785 -68 cnv 14 14 14 empty empty 8 4 8 0 12 -99865 -228856 0
;
#X msg 886 -40 symbol \$1;
#X text 920 -92 Label Text;
#X obj 1124 -68 inlet;
#X obj 871 -68 cnv 14 14 14 empty empty 9 4 8 0 12 -99865 -228856 0
;
#X obj 1178 -68 inlet;
#X obj 1107 -68 cnv 14 14 14 empty empty 10 0 8 0 12 -99865 -228856
0;
#X text -220 -92 Canvas Name;
#X obj 94 -108 cnv 5 1 260 empty empty empty 20 12 0 14 -128992 -66577
0;
#X obj 651 212 cnv 5 501 3 empty \$0-test_canvas Notes 9 13 0 18 -166441
-1 0;
#X obj 245 218 s \$0-test_canvas;
#X text -226 -112 _;
#X obj -196 137 print;
#X obj -10 77 spigot;
#X obj -50 -22 tgl 15 0 empty empty empty 17 7 0 10 -262144 -1 -1 1
1;
#X obj 29 24 == 1;
#X obj -119 25 == 0;
#X obj -76 24 list append \$0;
#X msg -76 47 symbol \$2-\$1;
#X msg -196 26 symbol \$1;
#X obj -196 57 spigot;
#X obj -50 -68 inlet;
#X obj 1162 -68 cnv 14 14 14 empty empty 11 0 8 0 12 -99865 -228856
0;
#X text -84 -92 Add "\$0" option;
#X obj 204 -108 cnv 5 1 260 empty empty empty 20 12 0 14 -128992 -66577
0;
#X obj 474 -108 cnv 5 1 260 empty empty empty 20 12 0 14 -128992 -66577
0;
#X obj 704 -108 cnv 5 1 260 empty empty empty 20 12 0 14 -128992 -66577
0;
#X obj 857 -108 cnv 5 1 260 empty empty empty 20 12 0 14 -128992 -66577
0;
#X obj 1087 -108 cnv 5 1 260 empty empty empty 20 12 0 14 -128992 -66577
0;
#X connect 0 0 1 0;
#X connect 1 0 39 0;
#X connect 1 0 71 0;
#X connect 2 0 6 0;
#X connect 3 0 2 0;
#X connect 3 1 2 1;
#X connect 4 0 3 0;
#X connect 5 0 2 0;
#X connect 6 0 39 0;
#X connect 6 0 71 0;
#X connect 9 0 26 0;
#X connect 10 0 26 0;
#X connect 10 1 26 1;
#X connect 11 0 10 0;
#X connect 12 0 39 0;
#X connect 12 0 71 0;
#X connect 15 0 9 0;
#X connect 19 0 25 0;
#X connect 20 0 25 0;
#X connect 20 1 25 1;
#X connect 21 0 20 0;
#X connect 22 0 39 0;
#X connect 22 0 71 0;
#X connect 25 0 22 0;
#X connect 26 0 12 0;
#X connect 27 0 39 0;
#X connect 27 0 71 0;
#X connect 28 0 33 0;
#X connect 29 0 31 0;
#X connect 31 0 33 0;
#X connect 31 1 33 2;
#X connect 32 0 39 0;
#X connect 32 0 71 0;
#X connect 33 0 32 0;
#X connect 36 0 78 0;
#X connect 36 0 80 0;
#X connect 38 0 39 1;
#X connect 38 0 73 0;
#X connect 40 0 5 0;
#X connect 41 0 0 0;
#X connect 42 0 4 0;
#X connect 46 0 11 0;
#X connect 47 0 15 0;
#X connect 48 0 19 0;
#X connect 56 0 21 0;
#X connect 58 0 27 0;
#X connect 59 0 27 0;
#X connect 60 0 62 0;
#X connect 62 0 59 0;
#X connect 64 0 28 0;
#X connect 66 0 29 0;
#X connect 74 0 38 0;
#X connect 75 0 76 0;
#X connect 75 0 77 0;
#X connect 76 0 74 1;
#X connect 77 0 81 1;
#X connect 78 0 79 0;
#X connect 79 0 74 0;
#X connect 80 0 81 0;
#X connect 81 0 38 0;
#X connect 82 0 75 0;
#X restore 100 281 pd label-properties;
#X f 26;
#X floatatom 273 221 5 0 29 0 BG-Clr - -;
#X floatatom 180 176 5 0 0 0 Vis-Sz-W - -;
#X floatatom 181 200 5 0 0 0 Vis-Sz-H - -;
#X floatatom 271 152 5 0 0 0 Lbl-X - -;
#X floatatom 272 176 5 0 0 0 Lbl-Y - -;
#X floatatom 180 152 5 0 0 0 Size - -;
#X symbolatom 212 128 10 0 0 0 Canvas-Receive - -;
#X floatatom 181 221 5 0 2 0 Lbl-Fon - -;
#X symbolatom 272 200 10 0 0 0 Lbl-Txt - -;
#X obj 296 130 tgl 15 0 empty empty empty -90 7 0 10 -262144 -260097
-1 1 1;
#X text 315 127 Append \$0;
#X text 194 105 Label Properties;
#X connect 0 0 2 6;
#X connect 1 0 2 11;
#X connect 3 0 2 10;
#X connect 4 0 2 3;
#X connect 5 0 2 4;
#X connect 6 0 2 7;
#X connect 7 0 2 8;
#X connect 8 0 2 2;
#X connect 9 0 2 0;
#X connect 10 0 2 5;
#X connect 11 0 2 9;
#X connect 12 0 2 1;
#X coords 0 -1 1 1 300 170 2 100 100;
#X restore 9 7 pd graph;
#X restore 155 78 pd canvas-ctrl;
#N canvas 2765 -320 325 192 canvas-ctrl 1;
#N canvas 2804 -10 551 338 graph 0;
#X floatatom 180 243 5 0 0 0 Lbl-Sz - -;
#X floatatom 273 243 5 0 29 0 Lbl-Clr - -;
#N canvas 2005 235 1506 424 label-properties 0;
#X floatatom 124 -38 3 18 100 0 - - -;
#X msg 124 -11 size \$1;
#X obj 245 11 pack 100 60, f 18;
#X obj 336 -17 t b f;
#X floatatom 336 -42 4 18 100 0 - - -;
#X floatatom 245 -42 4 18 100 0 - - -;
#X msg 245 38 vis_size \$1 \$2;
#X text 287 -69 w/x;
#X text 377 -69 h/y;
#X floatatom 502 6 4 0 3 0 - - -;
#X obj 634 25 t b f;
#X floatatom 634 6 5 5 50 0 - - -;
#X msg 502 75 label_font \$1 \$2;
#X text 545 -69 type;
#X text 673 -70 size;
#X obj 502 -46 vradio 15 1 0 3 empty empty empty 0 -8 0 10 -262144
-1 -1 0;
#X text 518 -47 DejaVu Sans Mono;
#X text 518 -32 Helvetica;
#X text 519 -17 Times;
#X floatatom 730 -39 4 -100 250 0 - - -;
#X obj 802 -12 t b f;
#X floatatom 802 -39 5 -150 150 0 - - -;
#X msg 730 38 label_pos \$1 \$2;
#X text 769 -69 x;
#X text 842 -69 y;
#X obj 730 16 pack 17 20, f 17;
#X obj 502 54 pack 0 25, f 24;
#X msg 886 19 label \$1;
#X floatatom 1124 -40 3 0 29 0 - - -;
#X floatatom 1178 -40 3 0 29 0 - - -;
#X text 1205 -40 label;
#X obj 1178 -18 t b f;
#X msg 1124 35 color \$1 \$2 \$3;
#X obj 1124 14 pack 1 22 22, f 14;
#X text 1091 -41 bgr;
#X text 1103 -92 Color Presets (0-29):;
#X obj -196 -68 inlet;
#X obj -212 -68 cnv 14 14 14 empty empty 0 4 8 0 12 -99865 -228856
0;
#X symbolatom -196 100 10 0 0 0 - - -;
#X obj 501 220 send, f 13;
#X obj 245 -68 inlet;
#X obj 124 -68 inlet;
#X obj 336 -68 inlet;
#X obj -65 -68 cnv 14 14 14 empty empty 1 4 8 0 12 -99865 -228856 0
;
#X obj 107 -68 cnv 14 14 14 empty empty 2 4 8 0 12 -99865 -228856 0
;
#X obj 229 -68 cnv 14 14 14 empty empty 3 4 8 0 12 -99865 -228856 0
;
#X obj 634 -68 inlet;
#X obj 502 -68 inlet;
#X obj 730 -68 inlet;
#X obj 321 -68 cnv 14 14 14 empty empty 4 4 8 0 12 -99865 -228856 0
;
#X obj 486 -68 cnv 14 14 14 empty empty 5 4 8 0 12 -99865 -228856 0
;
#X obj 616 -68 cnv 14 14 14 empty empty 6 4 8 0 12 -99865 -228856 0
;
#X text 125 -92 Size;
#X text 266 -92 Visible Size;
#X text 548 -92 Label Font;
#X text 737 -92 Label Offset;
#X obj 802 -68 inlet;
#X obj 713 -68 cnv 14 14 14 empty empty 7 4 8 0 12 -99865 -228856 0
;
#X msg 965 -21 symbol my\ label;
#X symbolatom 886 -18 10 0 0 0 - - -;
#X obj 886 -68 inlet;
#X obj 785 -68 cnv 14 14 14 empty empty 8 4 8 0 12 -99865 -228856 0
;
#X msg 886 -40 symbol \$1;
#X text 920 -92 Label Text;
#X obj 1124 -68 inlet;
#X obj 871 -68 cnv 14 14 14 empty empty 9 4 8 0 12 -99865 -228856 0
;
#X obj 1178 -68 inlet;
#X obj 1107 -68 cnv 14 14 14 empty empty 10 0 8 0 12 -99865 -228856
0;
#X text -220 -92 Canvas Name;
#X obj 94 -108 cnv 5 1 260 empty empty empty 20 12 0 14 -128992 -66577
0;
#X obj 651 212 cnv 5 501 3 empty \$0-test_canvas Notes 9 13 0 18 -166441
-1 0;
#X obj 245 218 s \$0-test_canvas;
#X text -226 -112 _;
#X obj -196 137 print;
#X obj -10 77 spigot;
#X obj -50 -22 tgl 15 0 empty empty empty 17 7 0 10 -262144 -1 -1 1
1;
#X obj 29 24 == 1;
#X obj -119 25 == 0;
#X obj -76 24 list append \$0;
#X msg -76 47 symbol \$2-\$1;
#X msg -196 26 symbol \$1;
#X obj -196 57 spigot;
#X obj -50 -68 inlet;
#X obj 1162 -68 cnv 14 14 14 empty empty 11 0 8 0 12 -99865 -228856
0;
#X text -84 -92 Add "\$0" option;
#X obj 204 -108 cnv 5 1 260 empty empty empty 20 12 0 14 -128992 -66577
0;
#X obj 474 -108 cnv 5 1 260 empty empty empty 20 12 0 14 -128992 -66577
0;
#X obj 704 -108 cnv 5 1 260 empty empty empty 20 12 0 14 -128992 -66577
0;
#X obj 857 -108 cnv 5 1 260 empty empty empty 20 12 0 14 -128992 -66577
0;
#X obj 1087 -108 cnv 5 1 260 empty empty empty 20 12 0 14 -128992 -66577
0;
#X connect 0 0 1 0;
#X connect 1 0 39 0;
#X connect 1 0 71 0;
#X connect 2 0 6 0;
#X connect 3 0 2 0;
#X connect 3 1 2 1;
#X connect 4 0 3 0;
#X connect 5 0 2 0;
#X connect 6 0 39 0;
#X connect 6 0 71 0;
#X connect 9 0 26 0;
#X connect 10 0 26 0;
#X connect 10 1 26 1;
#X connect 11 0 10 0;
#X connect 12 0 39 0;
#X connect 12 0 71 0;
#X connect 15 0 9 0;
#X connect 19 0 25 0;
#X connect 20 0 25 0;
#X connect 20 1 25 1;
#X connect 21 0 20 0;
#X connect 22 0 39 0;
#X connect 22 0 71 0;
#X connect 25 0 22 0;
#X connect 26 0 12 0;
#X connect 27 0 39 0;
#X connect 27 0 71 0;
#X connect 28 0 33 0;
#X connect 29 0 31 0;
#X connect 31 0 33 0;
#X connect 31 1 33 2;
#X connect 32 0 39 0;
#X connect 32 0 71 0;
#X connect 33 0 32 0;
#X connect 36 0 78 0;
#X connect 36 0 80 0;
#X connect 38 0 39 1;
#X connect 38 0 73 0;
#X connect 40 0 5 0;
#X connect 41 0 0 0;
#X connect 42 0 4 0;
#X connect 46 0 11 0;
#X connect 47 0 15 0;
#X connect 48 0 19 0;
#X connect 56 0 21 0;
#X connect 58 0 27 0;
#X connect 59 0 27 0;
#X connect 60 0 62 0;
#X connect 62 0 59 0;
#X connect 64 0 28 0;
#X connect 66 0 29 0;
#X connect 74 0 38 0;
#X connect 75 0 76 0;
#X connect 75 0 77 0;
#X connect 76 0 74 1;
#X connect 77 0 81 1;
#X connect 78 0 79 0;
#X connect 79 0 74 0;
#X connect 80 0 81 0;
#X connect 81 0 38 0;
#X connect 82 0 75 0;
#X restore 100 281 pd label-properties;
#X f 26;
#X floatatom 273 221 5 0 29 0 BG-Clr - -;
#X floatatom 180 176 5 0 0 0 Vis-Sz-W - -;
#X floatatom 181 200 5 0 0 0 Vis-Sz-H - -;
#X floatatom 271 152 5 0 0 0 Lbl-X - -;
#X floatatom 272 176 5 0 0 0 Lbl-Y - -;
#X floatatom 180 152 5 0 0 0 Size - -;
#X symbolatom 212 128 10 0 0 0 Canvas-Receive - -;
#X floatatom 181 221 5 0 2 0 Lbl-Fon - -;
#X symbolatom 272 200 10 0 0 0 Lbl-Txt - -;
#X obj 296 130 tgl 15 0 empty empty empty -90 7 0 10 -262144 -260097
-1 1 1;
#X text 315 127 Append \$0;
#X text 194 105 Label Properties;
#X connect 0 0 2 6;
#X connect 1 0 2 11;
#X connect 3 0 2 10;
#X connect 4 0 2 3;
#X connect 5 0 2 4;
#X connect 6 0 2 7;
#X connect 7 0 2 8;
#X connect 8 0 2 2;
#X connect 9 0 2 0;
#X connect 10 0 2 5;
#X connect 11 0 2 9;
#X connect 12 0 2 1;
#X coords 0 -1 1 1 300 170 2 100 100;
#X restore 9 7 pd graph;
#X restore 149 100 pd canvas-ctrl;
#N canvas 3091 -317 325 192 canvas-ctrl 1;
#N canvas 2804 -10 551 338 graph 0;
#X floatatom 180 243 5 0 0 0 Lbl-Sz - -;
#X floatatom 273 243 5 0 29 0 Lbl-Clr - -;
#N canvas 2005 235 1506 424 label-properties 0;
#X floatatom 124 -38 3 18 100 0 - - -;
#X msg 124 -11 size \$1;
#X obj 245 11 pack 100 60, f 18;
#X obj 336 -17 t b f;
#X floatatom 336 -42 4 18 100 0 - - -;
#X floatatom 245 -42 4 18 100 0 - - -;
#X msg 245 38 vis_size \$1 \$2;
#X text 287 -69 w/x;
#X text 377 -69 h/y;
#X floatatom 502 6 4 0 3 0 - - -;
#X obj 634 25 t b f;
#X floatatom 634 6 5 5 50 0 - - -;
#X msg 502 75 label_font \$1 \$2;
#X text 545 -69 type;
#X text 673 -70 size;
#X obj 502 -46 vradio 15 1 0 3 empty empty empty 0 -8 0 10 -262144
-1 -1 0;
#X text 518 -47 DejaVu Sans Mono;
#X text 518 -32 Helvetica;
#X text 519 -17 Times;
#X floatatom 730 -39 4 -100 250 0 - - -;
#X obj 802 -12 t b f;
#X floatatom 802 -39 5 -150 150 0 - - -;
#X msg 730 38 label_pos \$1 \$2;
#X text 769 -69 x;
#X text 842 -69 y;
#X obj 730 16 pack 17 20, f 17;
#X obj 502 54 pack 0 25, f 24;
#X msg 886 19 label \$1;
#X floatatom 1124 -40 3 0 29 0 - - -;
#X floatatom 1178 -40 3 0 29 0 - - -;
#X text 1205 -40 label;
#X obj 1178 -18 t b f;
#X msg 1124 35 color \$1 \$2 \$3;
#X obj 1124 14 pack 1 22 22, f 14;
#X text 1091 -41 bgr;
#X text 1103 -92 Color Presets (0-29):;
#X obj -196 -68 inlet;
#X obj -212 -68 cnv 14 14 14 empty empty 0 4 8 0 12 -99865 -228856
0;
#X symbolatom -196 100 10 0 0 0 - - -;
#X obj 501 220 send, f 13;
#X obj 245 -68 inlet;
#X obj 124 -68 inlet;
#X obj 336 -68 inlet;
#X obj -65 -68 cnv 14 14 14 empty empty 1 4 8 0 12 -99865 -228856 0
;
#X obj 107 -68 cnv 14 14 14 empty empty 2 4 8 0 12 -99865 -228856 0
;
#X obj 229 -68 cnv 14 14 14 empty empty 3 4 8 0 12 -99865 -228856 0
;
#X obj 634 -68 inlet;
#X obj 502 -68 inlet;
#X obj 730 -68 inlet;
#X obj 321 -68 cnv 14 14 14 empty empty 4 4 8 0 12 -99865 -228856 0
;
#X obj 486 -68 cnv 14 14 14 empty empty 5 4 8 0 12 -99865 -228856 0
;
#X obj 616 -68 cnv 14 14 14 empty empty 6 4 8 0 12 -99865 -228856 0
;
#X text 125 -92 Size;
#X text 266 -92 Visible Size;
#X text 548 -92 Label Font;
#X text 737 -92 Label Offset;
#X obj 802 -68 inlet;
#X obj 713 -68 cnv 14 14 14 empty empty 7 4 8 0 12 -99865 -228856 0
;
#X msg 965 -21 symbol my\ label;
#X symbolatom 886 -18 10 0 0 0 - - -;
#X obj 886 -68 inlet;
#X obj 785 -68 cnv 14 14 14 empty empty 8 4 8 0 12 -99865 -228856 0
;
#X msg 886 -40 symbol \$1;
#X text 920 -92 Label Text;
#X obj 1124 -68 inlet;
#X obj 871 -68 cnv 14 14 14 empty empty 9 4 8 0 12 -99865 -228856 0
;
#X obj 1178 -68 inlet;
#X obj 1107 -68 cnv 14 14 14 empty empty 10 0 8 0 12 -99865 -228856
0;
#X text -220 -92 Canvas Name;
#X obj 94 -108 cnv 5 1 260 empty empty empty 20 12 0 14 -128992 -66577
0;
#X obj 651 212 cnv 5 501 3 empty \$0-test_canvas Notes 9 13 0 18 -166441
-1 0;
#X obj 245 218 s \$0-test_canvas;
#X text -226 -112 _;
#X obj -196 137 print;
#X obj -10 77 spigot;
#X obj -50 -22 tgl 15 0 empty empty empty 17 7 0 10 -262144 -1 -1 1
1;
#X obj 29 24 == 1;
#X obj -119 25 == 0;
#X obj -76 24 list append \$0;
#X msg -76 47 symbol \$2-\$1;
#X msg -196 26 symbol \$1;
#X obj -196 57 spigot;
#X obj -50 -68 inlet;
#X obj 1162 -68 cnv 14 14 14 empty empty 11 0 8 0 12 -99865 -228856
0;
#X text -84 -92 Add "\$0" option;
#X obj 204 -108 cnv 5 1 260 empty empty empty 20 12 0 14 -128992 -66577
0;
#X obj 474 -108 cnv 5 1 260 empty empty empty 20 12 0 14 -128992 -66577
0;
#X obj 704 -108 cnv 5 1 260 empty empty empty 20 12 0 14 -128992 -66577
0;
#X obj 857 -108 cnv 5 1 260 empty empty empty 20 12 0 14 -128992 -66577
0;
#X obj 1087 -108 cnv 5 1 260 empty empty empty 20 12 0 14 -128992 -66577
0;
#X connect 0 0 1 0;
#X connect 1 0 39 0;
#X connect 1 0 71 0;
#X connect 2 0 6 0;
#X connect 3 0 2 0;
#X connect 3 1 2 1;
#X connect 4 0 3 0;
#X connect 5 0 2 0;
#X connect 6 0 39 0;
#X connect 6 0 71 0;
#X connect 9 0 26 0;
#X connect 10 0 26 0;
#X connect 10 1 26 1;
#X connect 11 0 10 0;
#X connect 12 0 39 0;
#X connect 12 0 71 0;
#X connect 15 0 9 0;
#X connect 19 0 25 0;
#X connect 20 0 25 0;
#X connect 20 1 25 1;
#X connect 21 0 20 0;
#X connect 22 0 39 0;
#X connect 22 0 71 0;
#X connect 25 0 22 0;
#X connect 26 0 12 0;
#X connect 27 0 39 0;
#X connect 27 0 71 0;
#X connect 28 0 33 0;
#X connect 29 0 31 0;
#X connect 31 0 33 0;
#X connect 31 1 33 2;
#X connect 32 0 39 0;
#X connect 32 0 71 0;
#X connect 33 0 32 0;
#X connect 36 0 78 0;
#X connect 36 0 80 0;
#X connect 38 0 39 1;
#X connect 38 0 73 0;
#X connect 40 0 5 0;
#X connect 41 0 0 0;
#X connect 42 0 4 0;
#X connect 46 0 11 0;
#X connect 47 0 15 0;
#X connect 48 0 19 0;
#X connect 56 0 21 0;
#X connect 58 0 27 0;
#X connect 59 0 27 0;
#X connect 60 0 62 0;
#X connect 62 0 59 0;
#X connect 64 0 28 0;
#X connect 66 0 29 0;
#X connect 74 0 38 0;
#X connect 75 0 76 0;
#X connect 75 0 77 0;
#X connect 76 0 74 1;
#X connect 77 0 81 1;
#X connect 78 0 79 0;
#X connect 79 0 74 0;
#X connect 80 0 81 0;
#X connect 81 0 38 0;
#X connect 82 0 75 0;
#X restore 100 281 pd label-properties;
#X f 26;
#X floatatom 273 221 5 0 29 0 BG-Clr - -;
#X floatatom 180 176 5 0 0 0 Vis-Sz-W - -;
#X floatatom 181 200 5 0 0 0 Vis-Sz-H - -;
#X floatatom 271 152 5 0 0 0 Lbl-X - -;
#X floatatom 272 176 5 0 0 0 Lbl-Y - -;
#X floatatom 180 152 5 0 0 0 Size - -;
#X symbolatom 212 128 10 0 0 0 Canvas-Receive - -;
#X floatatom 181 221 5 0 2 0 Lbl-Fon - -;
#X symbolatom 272 200 10 0 0 0 Lbl-Txt - -;
#X obj 296 130 tgl 15 0 empty empty empty -90 7 0 10 -262144 -260097
-1 1 1;
#X text 315 127 Append \$0;
#X text 194 105 Label Properties;
#X connect 0 0 2 6;
#X connect 1 0 2 11;
#X connect 3 0 2 10;
#X connect 4 0 2 3;
#X connect 5 0 2 4;
#X connect 6 0 2 7;
#X connect 7 0 2 8;
#X connect 8 0 2 2;
#X connect 9 0 2 0;
#X connect 10 0 2 5;
#X connect 11 0 2 9;
#X connect 12 0 2 1;
#X coords 0 -1 1 1 300 170 2 100 100;
#X restore 9 7 pd graph;
#X restore 148 123 pd canvas-ctrl;
#N canvas 3426 -321 325 192 canvas-ctrl 1;
#N canvas 2804 -10 551 338 graph 0;
#X floatatom 180 243 5 0 0 0 Lbl-Sz - -;
#X floatatom 273 243 5 0 29 0 Lbl-Clr - -;
#N canvas 2005 235 1506 424 label-properties 0;
#X floatatom 124 -38 3 18 100 0 - - -;
#X msg 124 -11 size \$1;
#X obj 245 11 pack 100 60, f 18;
#X obj 336 -17 t b f;
#X floatatom 336 -42 4 18 100 0 - - -;
#X floatatom 245 -42 4 18 100 0 - - -;
#X msg 245 38 vis_size \$1 \$2;
#X text 287 -69 w/x;
#X text 377 -69 h/y;
#X floatatom 502 6 4 0 3 0 - - -;
#X obj 634 25 t b f;
#X floatatom 634 6 5 5 50 0 - - -;
#X msg 502 75 label_font \$1 \$2;
#X text 545 -69 type;
#X text 673 -70 size;
#X obj 502 -46 vradio 15 1 0 3 empty empty empty 0 -8 0 10 -262144
-1 -1 0;
#X text 518 -47 DejaVu Sans Mono;
#X text 518 -32 Helvetica;
#X text 519 -17 Times;
#X floatatom 730 -39 4 -100 250 0 - - -;
#X obj 802 -12 t b f;
#X floatatom 802 -39 5 -150 150 0 - - -;
#X msg 730 38 label_pos \$1 \$2;
#X text 769 -69 x;
#X text 842 -69 y;
#X obj 730 16 pack 17 20, f 17;
#X obj 502 54 pack 0 25, f 24;
#X msg 886 19 label \$1;
#X floatatom 1124 -40 3 0 29 0 - - -;
#X floatatom 1178 -40 3 0 29 0 - - -;
#X text 1205 -40 label;
#X obj 1178 -18 t b f;
#X msg 1124 35 color \$1 \$2 \$3;
#X obj 1124 14 pack 1 22 22, f 14;
#X text 1091 -41 bgr;
#X text 1103 -92 Color Presets (0-29):;
#X obj -196 -68 inlet;
#X obj -212 -68 cnv 14 14 14 empty empty 0 4 8 0 12 -99865 -228856
0;
#X symbolatom -196 100 10 0 0 0 - - -;
#X obj 501 220 send, f 13;
#X obj 245 -68 inlet;
#X obj 124 -68 inlet;
#X obj 336 -68 inlet;
#X obj -65 -68 cnv 14 14 14 empty empty 1 4 8 0 12 -99865 -228856 0
;
#X obj 107 -68 cnv 14 14 14 empty empty 2 4 8 0 12 -99865 -228856 0
;
#X obj 229 -68 cnv 14 14 14 empty empty 3 4 8 0 12 -99865 -228856 0
;
#X obj 634 -68 inlet;
#X obj 502 -68 inlet;
#X obj 730 -68 inlet;
#X obj 321 -68 cnv 14 14 14 empty empty 4 4 8 0 12 -99865 -228856 0
;
#X obj 486 -68 cnv 14 14 14 empty empty 5 4 8 0 12 -99865 -228856 0
;
#X obj 616 -68 cnv 14 14 14 empty empty 6 4 8 0 12 -99865 -228856 0
;
#X text 125 -92 Size;
#X text 266 -92 Visible Size;
#X text 548 -92 Label Font;
#X text 737 -92 Label Offset;
#X obj 802 -68 inlet;
#X obj 713 -68 cnv 14 14 14 empty empty 7 4 8 0 12 -99865 -228856 0
;
#X msg 965 -21 symbol my\ label;
#X symbolatom 886 -18 10 0 0 0 - - -;
#X obj 886 -68 inlet;
#X obj 785 -68 cnv 14 14 14 empty empty 8 4 8 0 12 -99865 -228856 0
;
#X msg 886 -40 symbol \$1;
#X text 920 -92 Label Text;
#X obj 1124 -68 inlet;
#X obj 871 -68 cnv 14 14 14 empty empty 9 4 8 0 12 -99865 -228856 0
;
#X obj 1178 -68 inlet;
#X obj 1107 -68 cnv 14 14 14 empty empty 10 0 8 0 12 -99865 -228856
0;
#X text -220 -92 Canvas Name;
#X obj 94 -108 cnv 5 1 260 empty empty empty 20 12 0 14 -128992 -66577
0;
#X obj 651 212 cnv 5 501 3 empty \$0-test_canvas Notes 9 13 0 18 -166441
-1 0;
#X obj 245 218 s \$0-test_canvas;
#X text -226 -112 _;
#X obj -196 137 print;
#X obj -10 77 spigot;
#X obj -50 -22 tgl 15 0 empty empty empty 17 7 0 10 -262144 -1 -1 1
1;
#X obj 29 24 == 1;
#X obj -119 25 == 0;
#X obj -76 24 list append \$0;
#X msg -76 47 symbol \$2-\$1;
#X msg -196 26 symbol \$1;
#X obj -196 57 spigot;
#X obj -50 -68 inlet;
#X obj 1162 -68 cnv 14 14 14 empty empty 11 0 8 0 12 -99865 -228856
0;
#X text -84 -92 Add "\$0" option;
#X obj 204 -108 cnv 5 1 260 empty empty empty 20 12 0 14 -128992 -66577
0;
#X obj 474 -108 cnv 5 1 260 empty empty empty 20 12 0 14 -128992 -66577
0;
#X obj 704 -108 cnv 5 1 260 empty empty empty 20 12 0 14 -128992 -66577
0;
#X obj 857 -108 cnv 5 1 260 empty empty empty 20 12 0 14 -128992 -66577
0;
#X obj 1087 -108 cnv 5 1 260 empty empty empty 20 12 0 14 -128992 -66577
0;
#X connect 0 0 1 0;
#X connect 1 0 39 0;
#X connect 1 0 71 0;
#X connect 2 0 6 0;
#X connect 3 0 2 0;
#X connect 3 1 2 1;
#X connect 4 0 3 0;
#X connect 5 0 2 0;
#X connect 6 0 39 0;
#X connect 6 0 71 0;
#X connect 9 0 26 0;
#X connect 10 0 26 0;
#X connect 10 1 26 1;
#X connect 11 0 10 0;
#X connect 12 0 39 0;
#X connect 12 0 71 0;
#X connect 15 0 9 0;
#X connect 19 0 25 0;
#X connect 20 0 25 0;
#X connect 20 1 25 1;
#X connect 21 0 20 0;
#X connect 22 0 39 0;
#X connect 22 0 71 0;
#X connect 25 0 22 0;
#X connect 26 0 12 0;
#X connect 27 0 39 0;
#X connect 27 0 71 0;
#X connect 28 0 33 0;
#X connect 29 0 31 0;
#X connect 31 0 33 0;
#X connect 31 1 33 2;
#X connect 32 0 39 0;
#X connect 32 0 71 0;
#X connect 33 0 32 0;
#X connect 36 0 78 0;
#X connect 36 0 80 0;
#X connect 38 0 39 1;
#X connect 38 0 73 0;
#X connect 40 0 5 0;
#X connect 41 0 0 0;
#X connect 42 0 4 0;
#X connect 46 0 11 0;
#X connect 47 0 15 0;
#X connect 48 0 19 0;
#X connect 56 0 21 0;
#X connect 58 0 27 0;
#X connect 59 0 27 0;
#X connect 60 0 62 0;
#X connect 62 0 59 0;
#X connect 64 0 28 0;
#X connect 66 0 29 0;
#X connect 74 0 38 0;
#X connect 75 0 76 0;
#X connect 75 0 77 0;
#X connect 76 0 74 1;
#X connect 77 0 81 1;
#X connect 78 0 79 0;
#X connect 79 0 74 0;
#X connect 80 0 81 0;
#X connect 81 0 38 0;
#X connect 82 0 75 0;
#X restore 100 281 pd label-properties;
#X f 26;
#X floatatom 273 221 5 0 29 0 BG-Clr - -;
#X floatatom 180 176 5 0 0 0 Vis-Sz-W - -;
#X floatatom 181 200 5 0 0 0 Vis-Sz-H - -;
#X floatatom 271 152 5 0 0 0 Lbl-X - -;
#X floatatom 272 176 5 0 0 0 Lbl-Y - -;
#X floatatom 180 152 5 0 0 0 Size - -;
#X symbolatom 212 128 10 0 0 0 Canvas-Receive - -;
#X floatatom 181 221 5 0 2 0 Lbl-Fon - -;
#X symbolatom 272 200 10 0 0 0 Lbl-Txt - -;
#X obj 296 130 tgl 15 0 empty empty empty -90 7 0 10 -262144 -260097
-1 1 1;
#X text 315 127 Append \$0;
#X text 194 105 Label Properties;
#X connect 0 0 2 6;
#X connect 1 0 2 11;
#X connect 3 0 2 10;
#X connect 4 0 2 3;
#X connect 5 0 2 4;
#X connect 6 0 2 7;
#X connect 7 0 2 8;
#X connect 8 0 2 2;
#X connect 9 0 2 0;
#X connect 10 0 2 5;
#X connect 11 0 2 9;
#X connect 12 0 2 1;
#X coords 0 -1 1 1 300 170 2 100 100;
#X restore 9 7 pd graph;
#X restore 155 148 pd canvas-ctrl;
#X restore -133 -35 pd cnv-set;
#X restore 377 33 pd init;
