#N canvas 615 146 825 563 10;
#X obj -1 341 makefilename sound%d.wav;
#X floatatom -1 316 5 0 0 0 - - -, f 5;
#X msg 157 398 start;
#X msg 261 398 stop;
#X msg -1 372 open \$1;
#X obj 338 465 timer;
#X obj 128 1 bng 15 250 50 0 \$0-rec-start empty Start 17 7 0 10 -262144
-1 -1;
#X obj 427 392 tgl 15 0 empty empty empty 17 7 0 10 -262144 -1 -1 0
1;
#X msg 427 364 1;
#X obj 128 24 bng 15 250 50 0 \$0-rec-stop empty Stop 17 7 0 10 -262144
-1 -1;
#X floatatom 338 520 5 0 0 0 msec - -, f 5;
#X obj 448 490 / 1000;
#X floatatom 448 520 5 0 0 0 sec - -, f 5;
#X msg 474 364 0;
#X obj 427 417 metro 30;
#X obj 157 219 r \$0-rec-start;
#X obj 311 315 t b b;
#X text 212 -21 Recording Time;
#X floatatom 212 1 5 0 0 1 sec - -, f 5;
#X obj 338 560 s \$0-rec-time-ms;
#X obj 448 560 s \$0-rec-time-s;
#X obj 346 -3 r \$0-rec-time-s;
#X obj 261 256 r \$0-rec-stop;
#X obj 346 42 r \$0-rec-filenumber;
#N canvas 0 22 450 300 counter 0;
#X obj 171 31 inlet;
#X obj 171 122 f 0;
#X obj 208 122 + 1;
#X obj 171 177 outlet;
#X obj 217 31 loadbang;
#X msg 217 60 0;
#X connect 0 0 1 0;
#X connect 1 0 2 0;
#X connect 1 0 3 0;
#X connect 2 0 1 1;
#X connect 4 0 5 0;
#X connect 5 0 1 1;
#X restore -1 289 pd counter;
#X floatatom 212 49 5 0 0 0 - - -, f 5;
#X text 212 24 Take #;
#X obj 36 316 s \$0-rec-filenumber;
#X text -105 -132 _;
#X obj -1 560 writesf~ 2;
#X text 143 69 // SOUND FILE RECORDER //;
#X text 128 -21 Controls;
#X obj -113 209 inlet~;
#X obj -62 209 inlet~;
#X obj -113 620 outlet~;
#X obj -62 620 outlet~;
#X text 106 -52 In Ch1;
#X text 172 -52 In Ch2;
#X text 244 -52 Start;
#X text 306 -52 Stop;
#X text 105 133 Thru Ch1;
#X text 283 133 Thru Ch2;
#X text 125 87 All audio files will be written to the folder that the
current patch resides., f 32;
#X obj 101 209 inlet;
#X obj 101 234 bng 15 250 50 0 empty empty empty 17 7 0 10 -262144
-1 -1;
#X obj 253 206 inlet;
#X obj 253 231 bng 15 250 50 0 empty empty empty 17 7 0 10 -262144
-1 -1;
#X text -113 192 In Ch1;
#X text -62 192 In Ch2;
#X text 101 191 Start;
#X text 257 188 Stop;
#X obj 157 244 t b b b;
#X connect 0 0 4 0;
#X connect 1 0 0 0;
#X connect 2 0 29 0;
#X connect 3 0 29 0;
#X connect 4 0 29 0;
#X connect 5 0 10 0;
#X connect 5 0 11 0;
#X connect 7 0 14 0;
#X connect 8 0 7 0;
#X connect 10 0 19 0;
#X connect 11 0 12 0;
#X connect 12 0 20 0;
#X connect 13 0 7 0;
#X connect 14 0 5 1;
#X connect 15 0 51 0;
#X connect 16 0 8 0;
#X connect 16 1 5 0;
#X connect 21 0 18 0;
#X connect 22 0 3 0;
#X connect 22 0 13 0;
#X connect 23 0 25 0;
#X connect 24 0 1 0;
#X connect 24 0 27 0;
#X connect 32 0 29 0;
#X connect 32 0 34 0;
#X connect 33 0 29 1;
#X connect 33 0 35 0;
#X connect 43 0 44 0;
#X connect 44 0 51 0;
#X connect 45 0 46 0;
#X connect 46 0 3 0;
#X connect 51 0 2 0;
#X connect 51 1 24 0;
#X connect 51 2 16 0;
#X coords 0 -1 1 1 233 205 2 103 -54;
