#N canvas 1580 369 839 447 12;
#X obj 132 189 pduino/arduino 1;
#X msg 96 95 version;
#X msg 444 143 pinMode 14 analog;
#X obj 445 255 route analog;
#X obj 445 279 route 0 1 2 3 4;
#X floatatom 445 308 5 0 0 0 - - -;
#X text 444 118 Analog INPUTS;
#X text 574 143 Pin 14 is A0 on Arduino *AND* Teensy LC;
#X msg 73 71 close;
#X msg 0 16 devices;
#X msg 46 43 open 1;
#X text 58 14 get available (numbered) serial devices;
#X text 102 41 open a specific numbered serial device;
#X obj 241 220 print pduino-info;
#X msg 455 167 pinMode 15 analog;
#X text 589 167 Pin 15 is A1 on Arduino *AND* Teensy LC;
#X msg 169 132 pinMode 4 input;
#X obj 132 247 route digital;
#X obj 132 271 route 0 1 2 3 4;
#X obj 213 301 tgl 15 0 empty empty empty 17 7 0 10 -262144 -1 -1 1
1;
#X msg 240 96 digital 4 1;
#X connect 0 0 3 0;
#X connect 0 0 17 0;
#X connect 0 1 13 0;
#X connect 1 0 0 0;
#X connect 2 0 0 0;
#X connect 3 0 4 0;
#X connect 4 0 5 0;
#X connect 8 0 0 0;
#X connect 9 0 0 0;
#X connect 10 0 0 0;
#X connect 14 0 0 0;
#X connect 16 0 0 0;
#X connect 17 0 18 0;
#X connect 18 4 19 0;
#X connect 20 0 0 0;
