#N canvas 326 29 809 677 10;
#X obj 140 18 tgl 15 0 empty empty empty 17 7 0 10 #fcfcfc #000000
#000000 0 1;
#X obj 140 48 metro 500;
#X obj 140 178 delay;
#X obj 140 208 random 7;
#X obj 140 238 sel 0 1 2 3 4 5 6;
#X msg 140 278 60;
#X msg 170 278 62;
#X msg 200 278 64;
#X msg 230 278 67;
#X msg 260 278 69;
#X msg 290 278 71;
#X msg 320 278 72;
#X text 500 50 dependencies:;
#X text 500 80 tdh.synth.oscil-saw~;
#X obj 140 581 tdh.util.channel.strip~;
#X obj 280 771 tdh.util.audioout~;
#X obj 80 80 bng 15 250 50 0 empty empty empty 17 7 0 10 #fcfcfc #000000
#000000;
#X floatatom 80 230 5 0 0 0 - - -, f 5;
#X obj 143 376 pack 0 0 0;
#X obj 140 318 makenote 64 500;
#X obj 140 88 t b b b;
#X obj 170 145 + 200;
#X obj 270 161 + 250;
#X obj 140 420 route 1 2 3 4;
#N canvas 1340 92 544 445 synth-voice-1 0;
#X obj 40 150 tdh.synth.oscil-saw~;
#X obj 40 20 inlet;
#X obj 40 290 *~;
#X obj 30 390 outlet~;
#X obj 40 100 mtof;
#X obj 220 110 > 0;
#X obj 220 70 t f f;
#X obj 220 180 f;
#X msg 290 210 0 150;
#X obj 250 110 / 127;
#X obj 40 50 unpack f f;
#X floatatom 90 100 5 0 0 0 - - -, f 5;
#X floatatom 210 40 5 0 0 0 - - -, f 5;
#X obj 159 253 vline~;
#X floatatom 308 149 5 0 0 0 - - -, f 5;
#X obj 220 140 sel 1 0;
#X msg 220 210 0 \, \$1 150;
#X obj 40 330 *~ 0.5;
#X obj 40 355 bob~;
#X msg 100 310 1200;
#X obj 146 308 loadbang;
#X connect 0 0 2 0;
#X connect 1 0 10 0;
#X connect 2 0 17 0;
#X connect 4 0 0 0;
#X connect 5 0 15 0;
#X connect 6 0 5 0;
#X connect 6 1 9 0;
#X connect 7 0 16 0;
#X connect 8 0 13 0;
#X connect 9 0 14 0;
#X connect 10 0 4 0;
#X connect 10 0 11 0;
#X connect 10 1 12 0;
#X connect 12 0 6 0;
#X connect 13 0 2 1;
#X connect 14 0 7 1;
#X connect 15 0 7 0;
#X connect 15 1 8 0;
#X connect 16 0 13 0;
#X connect 17 0 18 0;
#X connect 18 0 3 0;
#X connect 19 0 18 1;
#X connect 20 0 19 0;
#X restore 60 530 pd synth-voice-1;
#X obj 170 120 random 1000;
#X obj 140 348 poly 4 0;
#N canvas 1340 92 544 445 synth-voice-1 1;
#X obj 40 150 tdh.synth.oscil-saw~;
#X obj 40 20 inlet;
#X obj 40 290 *~;
#X obj 30 390 outlet~;
#X obj 40 100 mtof;
#X obj 220 110 > 0;
#X obj 220 70 t f f;
#X obj 220 180 f;
#X msg 290 210 0 150;
#X obj 250 110 / 127;
#X obj 40 50 unpack f f;
#X floatatom 90 100 5 0 0 0 - - -, f 5;
#X floatatom 210 40 5 0 0 0 - - -, f 5;
#X obj 159 253 vline~;
#X floatatom 308 149 5 0 0 0 - - -, f 5;
#X obj 220 140 sel 1 0;
#X msg 220 210 0 \, \$1 150;
#X obj 40 330 *~ 0.5;
#X obj 40 355 bob~;
#X msg 100 310 1200;
#X obj 146 308 loadbang;
#X connect 0 0 2 0;
#X connect 1 0 10 0;
#X connect 2 0 17 0;
#X connect 4 0 0 0;
#X connect 5 0 15 0;
#X connect 6 0 5 0;
#X connect 6 1 9 0;
#X connect 7 0 16 0;
#X connect 8 0 13 0;
#X connect 9 0 14 0;
#X connect 10 0 4 0;
#X connect 10 0 11 0;
#X connect 10 1 12 0;
#X connect 12 0 6 0;
#X connect 13 0 2 1;
#X connect 14 0 7 1;
#X connect 15 0 7 0;
#X connect 15 1 8 0;
#X connect 16 0 13 0;
#X connect 17 0 18 0;
#X connect 18 0 3 0;
#X connect 19 0 18 1;
#X connect 20 0 19 0;
#X restore 170 530 pd synth-voice-1;
#N canvas 1340 92 544 445 synth-voice-1 1;
#X obj 40 150 tdh.synth.oscil-saw~;
#X obj 40 20 inlet;
#X obj 40 290 *~;
#X obj 30 390 outlet~;
#X obj 40 100 mtof;
#X obj 220 110 > 0;
#X obj 220 70 t f f;
#X obj 220 180 f;
#X msg 290 210 0 150;
#X obj 250 110 / 127;
#X obj 40 50 unpack f f;
#X floatatom 90 100 5 0 0 0 - - -, f 5;
#X floatatom 210 40 5 0 0 0 - - -, f 5;
#X obj 159 253 vline~;
#X floatatom 308 149 5 0 0 0 - - -, f 5;
#X obj 220 140 sel 1 0;
#X msg 220 210 0 \, \$1 150;
#X obj 40 330 *~ 0.5;
#X obj 40 355 bob~;
#X msg 100 310 1200;
#X obj 146 308 loadbang;
#X connect 0 0 2 0;
#X connect 1 0 10 0;
#X connect 2 0 17 0;
#X connect 4 0 0 0;
#X connect 5 0 15 0;
#X connect 6 0 5 0;
#X connect 6 1 9 0;
#X connect 7 0 16 0;
#X connect 8 0 13 0;
#X connect 9 0 14 0;
#X connect 10 0 4 0;
#X connect 10 0 11 0;
#X connect 10 1 12 0;
#X connect 12 0 6 0;
#X connect 13 0 2 1;
#X connect 14 0 7 1;
#X connect 15 0 7 0;
#X connect 15 1 8 0;
#X connect 16 0 13 0;
#X connect 17 0 18 0;
#X connect 18 0 3 0;
#X connect 19 0 18 1;
#X connect 20 0 19 0;
#X restore 290 530 pd synth-voice-1;
#N canvas 1340 92 544 445 synth-voice-1 1;
#X obj 40 150 tdh.synth.oscil-saw~;
#X obj 40 20 inlet;
#X obj 40 290 *~;
#X obj 30 390 outlet~;
#X obj 40 100 mtof;
#X obj 220 110 > 0;
#X obj 220 70 t f f;
#X obj 220 180 f;
#X msg 290 210 0 150;
#X obj 250 110 / 127;
#X obj 40 50 unpack f f;
#X floatatom 90 100 5 0 0 0 - - -, f 5;
#X floatatom 210 40 5 0 0 0 - - -, f 5;
#X obj 159 253 vline~;
#X floatatom 308 149 5 0 0 0 - - -, f 5;
#X obj 220 140 sel 1 0;
#X msg 220 210 0 \, \$1 150;
#X obj 40 330 *~ 0.5;
#X obj 40 355 bob~;
#X msg 100 310 1200;
#X obj 146 308 loadbang;
#X connect 0 0 2 0;
#X connect 1 0 10 0;
#X connect 2 0 17 0;
#X connect 4 0 0 0;
#X connect 5 0 15 0;
#X connect 6 0 5 0;
#X connect 6 1 9 0;
#X connect 7 0 16 0;
#X connect 8 0 13 0;
#X connect 9 0 14 0;
#X connect 10 0 4 0;
#X connect 10 0 11 0;
#X connect 10 1 12 0;
#X connect 12 0 6 0;
#X connect 13 0 2 1;
#X connect 14 0 7 1;
#X connect 15 0 7 0;
#X connect 15 1 8 0;
#X connect 16 0 13 0;
#X connect 17 0 18 0;
#X connect 18 0 3 0;
#X connect 19 0 18 1;
#X connect 20 0 19 0;
#X restore 410 530 pd synth-voice-1;
#X obj 270 140 random 10000;
#X obj 260 20 loadbang;
#X msg 260 45 1;
#X obj 350 80 pipe 20000;
#X msg 350 50 0;
#X obj 330 620 loadbang;
#X msg 330 645 1;
#X msg 400 690 0.8;
#X connect 0 0 1 0;
#X connect 1 0 20 0;
#X connect 2 0 3 0;
#X connect 3 0 4 0;
#X connect 3 0 17 0;
#X connect 4 0 5 0;
#X connect 4 1 6 0;
#X connect 4 2 7 0;
#X connect 4 3 8 0;
#X connect 4 4 9 0;
#X connect 4 5 10 0;
#X connect 4 6 11 0;
#X connect 5 0 19 0;
#X connect 6 0 19 0;
#X connect 7 0 19 0;
#X connect 8 0 19 0;
#X connect 9 0 19 0;
#X connect 10 0 19 0;
#X connect 11 0 19 0;
#X connect 14 0 15 0;
#X connect 14 1 15 1;
#X connect 16 0 20 0;
#X connect 18 0 23 0;
#X connect 19 0 26 0;
#X connect 19 1 26 1;
#X connect 20 0 2 0;
#X connect 20 1 25 0;
#X connect 20 2 30 0;
#X connect 21 0 2 1;
#X connect 22 0 19 2;
#X connect 23 0 24 0;
#X connect 23 1 27 0;
#X connect 23 2 28 0;
#X connect 23 3 29 0;
#X connect 24 0 14 0;
#X connect 25 0 21 0;
#X connect 26 0 18 0;
#X connect 26 1 18 1;
#X connect 26 2 18 2;
#X connect 27 0 14 0;
#X connect 28 0 14 0;
#X connect 29 0 14 0;
#X connect 30 0 22 0;
#X connect 31 0 32 0;
#X connect 31 0 34 0;
#X connect 32 0 0 0;
#X connect 33 0 0 0;
#X connect 34 0 33 0;
#X connect 35 0 36 0;
#X connect 35 0 37 0;
#X connect 36 0 14 1;
#X connect 36 0 15 2;
#X connect 37 0 15 3;
