#N canvas 0 23 1397 855 10;
#X obj 356 471 osc~;
#X floatatom 356 403 5 0 0 0 - - -, f 5;
#X obj 356 422 sig~;
#X obj 356 654 dac~;
#X obj 356 513 *~;
#X floatatom 374 492 5 0 0 0 - - -, f 5;
#X obj 356 447 +~;
#X msg 1183 72 \; pd dsp \$1;
#X obj 1183 51 tgl 15 0 empty empty empty 17 7 0 10 -262144 -1 -1 0
1;
#X obj 426 381 osc~;
#X floatatom 426 313 5 0 0 0 - - -, f 5;
#X obj 426 332 sig~;
#X obj 426 423 *~;
#X floatatom 444 402 5 0 0 0 - - -, f 5;
#X obj 426 357 +~;
#X obj 566 291 osc~;
#X floatatom 604 291 5 0 0 0 - - -, f 5;
#X obj 566 242 sig~;
#X obj 566 333 *~;
#X obj 566 267 +~;
#X obj 356 613 *~;
#X obj 604 132 vsl 15 128 0 127 0 0 empty empty empty 0 -9 0 10 -262144
-1 -1 0 1;
#X obj 604 268 / 127;
#X obj 1145 53 key;
#X floatatom 1145 75 5 0 0 0 - - -, f 5;
#X obj 604 88 ctlin 12;
#X floatatom 604 110 5 0 0 0 - - -, f 5;
#X obj 674 363 vsl 15 128 0 127 0 0 empty empty empty 0 -9 0 10 -262144
-1 -1 0 1;
#X obj 674 499 / 127;
#X floatatom 674 521 5 0 0 0 - - -, f 5;
#X floatatom 566 223 5 0 0 0 - - -, f 5;
#X obj 566 64 vsl 15 128 0 127 0 0 empty empty empty 0 -9 0 10 -262144
-1 -1 0 1;
#X obj 566 200 / 127;
#X obj 566 20 ctlin 12;
#X floatatom 566 42 5 0 0 0 - - -, f 5;
#X floatatom 289 252 5 0 0 0 - - -, f 5;
#X obj 289 93 vsl 15 128 0 127 0 0 empty empty empty 0 -9 0 10 -262144
-1 -1 0 1;
#X obj 289 229 / 127;
#X obj 289 49 ctlin 12;
#X floatatom 289 71 5 0 0 0 - - -, f 5;
#X connect 0 0 4 0;
#X connect 1 0 2 0;
#X connect 2 0 6 0;
#X connect 4 0 20 0;
#X connect 5 0 4 1;
#X connect 6 0 0 0;
#X connect 8 0 7 0;
#X connect 9 0 12 0;
#X connect 10 0 11 0;
#X connect 11 0 14 0;
#X connect 12 0 6 1;
#X connect 13 0 12 1;
#X connect 14 0 9 0;
#X connect 15 0 18 0;
#X connect 16 0 18 1;
#X connect 17 0 19 0;
#X connect 18 0 14 1;
#X connect 19 0 15 0;
#X connect 21 0 22 0;
#X connect 22 0 16 0;
#X connect 23 0 24 0;
#X connect 25 0 26 0;
#X connect 26 0 21 0;
#X connect 27 0 28 0;
#X connect 28 0 29 0;
#X connect 31 0 32 0;
#X connect 32 0 30 0;
#X connect 33 0 34 0;
#X connect 34 0 31 0;
#X connect 36 0 37 0;
#X connect 37 0 35 0;
#X connect 38 0 39 0;
#X connect 39 0 36 0;
