#N canvas 633 364 711 303 10;
#X obj 161 107 s AA;
#X obj 210 107 s~ BB;
#X obj 161 51 tgl 15 0 empty empty empty 17 7 0 10 -262144 -1 -1 1
1;
#X obj 210 77 sig~;
#N canvas 0 22 450 300 snapshot~ 0;
#X obj 67 96 inlet~;
#X obj 67 232 outlet;
#X obj 67 201 snapshot~;
#X obj 95 126 loadbang;
#X obj 95 169 metro 5;
#X msg 95 147 1;
#X connect 0 0 2 0;
#X connect 2 0 1 0;
#X connect 3 0 5 0;
#X connect 4 0 2 0;
#X connect 5 0 4 0;
#X restore 222 218 pd snapshot~;
#X floatatom 165 241 5 0 0 0 - - -, f 5;
#X floatatom 222 240 5 0 0 0 - - -, f 5;
#X text 21 112 DOESN'T WORK------->;
#X text 21 242 DOESN'T WORK------->;
#X obj 321 51 tgl 15 0 empty empty empty 17 7 0 10 -262144 -1 -1 0
1;
#X obj 376 77 sig~;
#X obj 321 107 s AA-\$0;
#X obj 376 107 s~ BB-\$0;
#N canvas 0 22 450 300 snapshot~ 0;
#X obj 67 96 inlet~;
#X obj 67 232 outlet;
#X obj 67 201 snapshot~;
#X obj 95 126 loadbang;
#X obj 95 169 metro 5;
#X msg 95 147 1;
#X connect 0 0 2 0;
#X connect 2 0 1 0;
#X connect 3 0 5 0;
#X connect 4 0 2 0;
#X connect 5 0 4 0;
#X restore 388 218 pd snapshot~;
#X floatatom 331 241 5 0 0 0 - - -, f 5;
#X floatatom 388 240 5 0 0 0 - - -, f 5;
#X floatatom 516 231 5 0 0 0 - - -, f 5;
#N canvas 0 22 450 300 sendme 1;
#X obj 91 80 r \$1;
#X obj 151 80 r~ \$2;
#X obj 90 212 outlet;
#X obj 151 212 outlet~;
#X obj 230 212 outlet;
#X obj 291 212 outlet~;
#X obj 231 80 r \$1-\$0;
#X obj 291 80 r~ \$2-\$0;
#X obj 385 148 f \$3;
#X obj 380 83 inlet;
#X obj 388 216 outlet;
#X connect 0 0 2 0;
#X connect 1 0 3 0;
#X connect 6 0 4 0;
#X connect 7 0 5 0;
#X connect 8 0 10 0;
#X connect 9 0 8 0;
#X restore 165 189 pd sendme AA BB 5 ______________________________________
;
#X obj 171 153 bng 15 250 50 0 empty empty empty 17 7 0 10 -262144
-1 -1;
#X connect 2 0 0 0;
#X connect 2 0 3 0;
#X connect 3 0 1 0;
#X connect 4 0 6 0;
#X connect 9 0 10 0;
#X connect 9 0 11 0;
#X connect 10 0 12 0;
#X connect 13 0 15 0;
#X connect 17 0 5 0;
#X connect 17 1 4 0;
#X connect 17 2 14 0;
#X connect 17 3 13 0;
#X connect 17 4 16 0;
#X connect 18 0 17 0;
