#N canvas 548 228 567 532 10;
#X obj 137 53 metro 500;
#X obj 136 157 makenote 64 300;
#X obj 139 222 noteout;
#X obj 139 93 random 30;
#X obj 139 118 + 60;
#X obj 137 13 tgl 15 0 empty empty empty 17 7 0 10 -262144 -1 -1 1
1;
#X floatatom 216 11 5 0 0 0 - - -, f 5;
#X obj 214 113 - 50;
#X obj 301 328 ctlout 1;
#X obj 304 263 line;
#X obj 276 78 metro 500;
#X floatatom 369 283 5 0 0 0 - - -, f 5;
#X msg 283 224 \$1 1000;
#X obj 283 170 random 128;
#X obj 310 38 - 500;
#X connect 0 0 3 0;
#X connect 1 0 2 0;
#X connect 1 1 2 1;
#X connect 3 0 4 0;
#X connect 4 0 1 0;
#X connect 5 0 0 0;
#X connect 5 0 10 0;
#X connect 6 0 0 1;
#X connect 6 0 7 0;
#X connect 6 0 14 0;
#X connect 7 0 1 1;
#X connect 9 0 8 0;
#X connect 9 0 11 0;
#X connect 10 0 13 0;
#X connect 12 0 9 0;
#X connect 13 0 12 0;
#X connect 14 0 10 1;
