#N canvas 652 319 450 300 10;
#X obj 83 122 osc~;
#X obj 83 80 mtof;
#X floatatom 83 52 5 0 0 0 - - -, f 5;
#X obj 83 198 *~;
#X obj 211 122 osc~;
#X obj 211 80 mtof;
#X floatatom 211 52 5 0 0 0 - - -, f 5;
#X obj 210 191 *~;
#X obj 89 272 dac~;
#X obj 114 171 line~;
#X msg 258 141 0 \, 0.3 100;
#X msg 118 143 0 \, 0.3 100;
#X obj 258 162 line~;
#X connect 0 0 3 0;
#X connect 1 0 0 0;
#X connect 2 0 1 0;
#X connect 3 0 8 0;
#X connect 3 0 8 1;
#X connect 4 0 7 0;
#X connect 5 0 4 0;
#X connect 6 0 5 0;
#X connect 7 0 8 0;
#X connect 7 0 8 1;
#X connect 9 0 3 1;
#X connect 10 0 12 0;
#X connect 11 0 9 0;
#X connect 12 0 7 1;
