#N canvas 519 163 848 635 10;
#X obj 243 125 bng 15 250 50 0 empty empty empty 17 7 0 10 -262144
-1 -1;
#X obj 243 50 tgl 15 0 empty empty empty 17 7 0 10 -262144 -1 -1 0
1;
#X obj 243 100 metro;
#X floatatom 337 73 5 0 0 0 - - -;
#X floatatom 245 280 5 0 0 0 - - -;
#X floatatom 338 282 5 0 0 0 - - -;
#X obj 246 519 mtof;
#X obj 246 550 osc~;
#X obj 246 582 *~;
#X obj 246 627 dac~;
#X msg 516 58 \; pd dsp 1;
#X floatatom 339 545 5 0 0 0 - - -;
#X obj 245 245 makenote 127 250;
#X obj 450 412 mgScaleMap 0 127 0 0.2;
#X obj 244 162 random 61;
#X floatatom 245 220 5 0 0 0 - - -;
#X obj 245 191 + 40;
#X text 383 160 random velocity;
#X text 25 164 random MIDI pitch between 40 & 100;
#X obj 337 214 * 0.7;
#X obj 311 161 random 128;
#X text 378 212 note length must be shorter than note value generation
;
#X msg 517 93 \; pd dsp 0;
#X text 115 13 RANDOM PITCH & VELOCITY SINEWAVE SYNTH 05/10/14;
#X text 262 49 on/off;
#X msg 339 487 0 \$1;
#X obj 339 515 line 0 25;
#X obj 338 462 float;
#X obj 433 459 float;
#X msg 433 486 \$1 0;
#X text 473 455 If the velocity is 127 \, ramp to the scaled value
of the velocity from 0 If the velocity is 0 \, ramp from the scaled
velocity to 0;
#X msg 337 49 500;
#X obj 376 48 loadbang;
#X obj 342 388 > 0;
#X obj 387 388 <= 0;
#X obj 340 417 sel 1;
#X obj 389 419 sel 1;
#X connect 0 0 14 0;
#X connect 0 0 20 0;
#X connect 1 0 2 0;
#X connect 2 0 0 0;
#X connect 3 0 2 1;
#X connect 3 0 19 0;
#X connect 4 0 6 0;
#X connect 5 0 13 0;
#X connect 5 0 33 0;
#X connect 5 0 34 0;
#X connect 6 0 7 0;
#X connect 7 0 8 0;
#X connect 8 0 9 0;
#X connect 8 0 9 1;
#X connect 11 0 8 1;
#X connect 12 0 4 0;
#X connect 12 1 5 0;
#X connect 13 0 28 1;
#X connect 13 0 27 1;
#X connect 14 0 16 0;
#X connect 15 0 12 0;
#X connect 16 0 15 0;
#X connect 19 0 12 2;
#X connect 20 0 12 1;
#X connect 25 0 26 0;
#X connect 26 0 11 0;
#X connect 27 0 25 0;
#X connect 28 0 29 0;
#X connect 29 0 26 0;
#X connect 31 0 3 0;
#X connect 32 0 31 0;
#X connect 33 0 35 0;
#X connect 34 0 36 0;
#X connect 35 0 27 0;
#X connect 36 0 28 0;
