#N canvas 281 163 718 542 10;
#X obj 137 275 ctlout;
#X obj 180 123 bng 15 250 50 0 empty empty empty 17 7 0 10 -262144
-1 -1;
#X obj 297 218 noteout;
#X obj 294 93 random 20;
#X obj 294 118 + 60;
#X obj 294 153 makenote 64 250;
#X obj 180 89 metro 800;
#X obj 291 61 metro 500;
#X obj 287 16 tgl 15 0 empty empty empty 17 7 0 10 -262144 -1 -1 0
1;
#X floatatom 340 16 5 0 0 0 - - -, f 5;
#X obj 164 157 random 127;
#X obj 130 221 line;
#X floatatom 218 269 5 0 0 0 - - -, f 5;
#X obj 147 10 tgl 15 0 empty empty empty 17 7 0 10 -262144 -1 -1 0
1;
#X msg 180 191 \$1 600;
#X floatatom 216 56 5 0 0 0 - - -, f 5;
#X connect 1 0 10 0;
#X connect 3 0 4 0;
#X connect 4 0 5 0;
#X connect 5 0 2 0;
#X connect 5 1 2 1;
#X connect 6 0 1 0;
#X connect 7 0 3 0;
#X connect 8 0 7 0;
#X connect 9 0 7 1;
#X connect 10 0 14 0;
#X connect 11 0 12 0;
#X connect 11 0 0 0;
#X connect 13 0 6 0;
#X connect 13 0 8 0;
#X connect 14 0 11 0;
#X connect 15 0 6 1;
