#N canvas 1440 23 1920 1035 10;
#X obj 164 790 osc~ 440;
#X floatatom 147 261 5 0 0 0 - - -, f 5;
#X floatatom 132 238 5 0 0 0 - - -, f 5;
#X obj 364 186 tdh.util.scope~;
#X text 167 235 Freq;
#X text 183 261 Amp;
#X obj 329 762 osc~ 440;
#X obj 329 786 *~;
#X floatatom 138 367 5 0 0 0 - - -, f 5;
#X floatatom 123 344 5 0 0 0 - - -, f 5;
#X obj 164 842 *~;
#X text 147 122 Amplitude Modulation;
#X obj 164 891 *~;
#X text 131 216 Wave A (Carrier);
#X text 131 306 Wave B (Modulator);
#X text 158 341 Freq (Rate of Modulation);
#X text 174 367 Amp (Amount of Modulation);
#X obj 150 936 outlet~;
#X connect 0 0 10 0;
#X connect 1 0 10 1;
#X connect 2 0 0 0;
#X connect 6 0 7 0;
#X connect 7 0 12 1;
#X connect 8 0 7 1;
#X connect 9 0 6 0;
#X connect 10 0 12 0;
#X connect 12 0 17 0;
#X connect 12 0 3 0;
#X coords 0 -1 1 1 725 450 2 100 100;
