#N canvas 1968 396 1036 599 10;
#X obj -185 492 vline~;
#X floatatom -17 275 5 0 0 1 A - -, f 5;
#X floatatom -17 295 5 0 0 1 D - -, f 5;
#X floatatom -17 315 5 0 0 1 S - -, f 5;
#X floatatom -17 335 5 0 0 1 R - -, f 5;
#X obj -184 161 tgl 15 0 empty empty empty 17 7 0 10 -262144 -1 -1
0 1;
#X obj -184 186 sel 1;
#X obj -185 412 pack f f f;
#X obj -185 385 f;
#X obj -185 208 t b b b b;
#X floatatom 237 120 5 0 0 1 Attack_(ms) - -, f 5;
#X floatatom 237 137 5 0 0 1 Decay_(ms) - -, f 5;
#X floatatom 237 154 5 0 0 1 Sustain_(amp) - -, f 5;
#X floatatom 237 171 5 0 0 1 Release_(ms) - -, f 5;
#X obj 142 150 tgl 15 0 empty empty Gate 17 7 0 10 -262144 -1 -1 0
1;
#X obj -105 186 sel 0;
#X msg -64 447 \$1 10 \, 0 \$2;
#X obj -64 385 f;
#X obj -64 412 pack f f;
#X obj -106 208 t b b b;
#X obj -185 559 outlet~ envelope_sig;
#N canvas 164 190 450 300 snapshot 0;
#X obj 120 111 snapshot~;
#X obj 120 23 inlet~;
#X obj 120 153 outlet;
#X obj 186 82 metro 10;
#X obj 186 38 loadbang;
#X msg 186 60 1;
#X connect 0 0 2 0;
#X connect 1 0 0 0;
#X connect 3 0 0 0;
#X connect 4 0 5 0;
#X connect 5 0 3 0;
#X restore -38 513 pd snapshot;
#X obj -38 559 outlet envelope_data;
#X text -401 12 ADSR Envelope;
#X text -401 28 tdh.synth.adsr~.pd;
#X msg -185 447 1 \$1 \, \$3 \$2 \$1;
#X text -346 159 '1' triggers envelope A \, D & S stages \, '0' ramps
to S (if necessary) \, and proceeds with R stage., f 25;
#X text 112 121 ADSR Envelope;
#X connect 0 0 21 0;
#X connect 0 0 20 0;
#X connect 1 0 8 1;
#X connect 2 0 7 1;
#X connect 3 0 7 2;
#X connect 3 0 17 1;
#X connect 4 0 18 1;
#X connect 5 0 6 0;
#X connect 5 0 15 0;
#X connect 6 0 9 0;
#X connect 7 0 25 0;
#X connect 8 0 7 0;
#X connect 9 0 8 0;
#X connect 9 1 3 0;
#X connect 9 2 2 0;
#X connect 9 3 1 0;
#X connect 10 0 1 0;
#X connect 11 0 2 0;
#X connect 12 0 3 0;
#X connect 13 0 4 0;
#X connect 14 0 5 0;
#X connect 15 0 19 0;
#X connect 16 0 0 0;
#X connect 17 0 18 0;
#X connect 18 0 16 0;
#X connect 19 0 17 0;
#X connect 19 1 4 0;
#X connect 19 2 3 0;
#X connect 21 0 22 0;
#X connect 25 0 0 0;
#X coords 0 -1 1 1 250 100 2 100 100;
