#N canvas 460 146 1211 724 10;
#X obj -326 417 *~;
#X obj -196 267 - 1;
#X obj -196 289 * -1;
#X obj -181 414 *~;
#X obj -326 525 outlet~ L;
#X obj -181 525 outlet~ R;
#X obj -326 -1 inlet~ signal;
#X obj 137 298 hsl 64 15 0 1 0 0 empty empty empty -2 -8 0 10 -262144
-1 -1 3150 1;
#X text 100 100 In;
#X text 158 284 Pan;
#X text 123 297 L;
#X text 203 297 R;
#X obj -116 -1 inlet pan;
#X text -303 416 L;
#X text -155 413 R;
#X floatatom 154 316 5 0 0 0 - - -, f 5;
#X obj -326 224 *~;
#X obj -236 -1 inlet gain;
#X floatatom 197 262 5 0 0 0 - - -, f 5;
#X text 213 100 Pan;
#X text 155 100 Gain;
#X text 105 123 Channel Strip;
#X obj 202 164 vsl 15 90 0 1 0 0 empty empty empty 0 -9 0 10 -262144
-1 -1 0 1;
#X obj 149 154 vu 15 120 empty empty -1 -8 0 10 -66577 -1 1 0;
#X obj 104 154 vu 15 120 empty empty -1 -8 0 10 -66577 -1 1 0;
#X text 100 335 Out L;
#X text 201 335 Out R;
#X text 196 146 Gain;
#X obj 291 139 loadbang;
#X msg 292 194 0.5;
#X obj -311 392 sig~;
#X obj -166 385 sig~;
#X obj -311 202 line~;
#X obj -311 179 \$1 20;
#X obj -306 442 env~;
#X obj -159 440 env~;
#X obj -306 464 - 100;
#X obj -159 462 - 100;
#X floatatom -166 241 5 0 0 0 - - -, f 5;
#X obj 270 498 hsl 128 15 0 127 0 0 empty empty empty -2 -8 0 10 -262144
-1 -1 0 1;
#X msg 292 215 set \$1;
#X obj -166 179 \$1 20;
#X obj -166 202 line;
#X obj -116 81 change;
#X obj -116 105 f;
#X obj 292 169 t b b;
#X msg -122 130 set \$1;
#X floatatom 106 38 5 0 0 0 - - -, f 5;
#X obj -115 36 expr if($f1 > 0 \, $f1 \, 0);
#X connect 0 0 4 0;
#X connect 0 0 34 0;
#X connect 1 0 2 0;
#X connect 2 0 30 0;
#X connect 3 0 5 0;
#X connect 3 0 35 0;
#X connect 6 0 16 0;
#X connect 7 0 15 0;
#X connect 7 0 41 0;
#X connect 12 0 47 0;
#X connect 12 0 48 0;
#X connect 16 0 0 0;
#X connect 16 0 3 0;
#X connect 17 0 22 0;
#X connect 22 0 18 0;
#X connect 22 0 33 0;
#X connect 28 0 45 0;
#X connect 29 0 40 0;
#X connect 30 0 0 1;
#X connect 31 0 3 1;
#X connect 32 0 16 1;
#X connect 33 0 32 0;
#X connect 34 0 36 0;
#X connect 35 0 37 0;
#X connect 36 0 24 0;
#X connect 37 0 23 0;
#X connect 38 0 1 0;
#X connect 38 0 31 0;
#X connect 40 0 7 0;
#X connect 41 0 42 0;
#X connect 42 0 38 0;
#X connect 43 0 44 0;
#X connect 44 0 46 0;
#X connect 45 0 29 0;
#X connect 45 1 44 0;
#X connect 46 0 7 0;
#X connect 48 0 43 0;
#X coords 0 -1 1 1 135 250 2 100 100;
