#N canvas 665 461 888 476 10;
#X obj -24 221 osc~;
#X floatatom -24 196 5 0 0 0 - - -, f 5;
#X obj -24 267 *~;
#X text -331 178 Arguments:;
#X text -329 133 Travis Houldcroft;
#X text -330 146 thouldcroft@gmail.com;
#X text -330 158 travishouldcroft.com;
#X text -331 95 Low Frequency Oscillator;
#X text -322 192 1: LFO frequency (rate);
#X text -322 203 2: LFO amplitude (depth);
#X text -331 106 tdh.synth.lfo.pd;
#X floatatom 39 222 5 0 0 0 - - -, f 5;
#X obj 170 53 f \$1;
#X obj 209 53 f \$2;
#X obj -99 405 outlet~;
#X obj 170 30 loadbang;
#X floatatom 125 144 5 0 0 0 - - -, f 5;
#X floatatom 125 162 5 0 0 0 - - -, f 5;
#N canvas 0 22 868 859 selector8~ 0;
#X obj -306 463 *~;
#X obj -306 531 outlet~;
#X obj -291 363 unpack f f f f f f f f;
#X obj -291 433 line~;
#X msg -291 406 \$1 5;
#X obj -246 463 *~;
#X obj -246 531 outlet~;
#X obj -231 433 line~;
#X msg -231 406 \$1 5;
#X obj -186 463 *~;
#X obj -186 531 outlet~;
#X obj -171 433 line~;
#X msg -171 406 \$1 5;
#X obj -126 463 *~;
#X obj -126 531 outlet~;
#X obj -111 433 line~;
#X msg -111 406 \$1 5;
#X obj -66 463 *~;
#X obj -66 531 outlet~;
#X obj -51 433 line~;
#X msg -51 406 \$1 5;
#X obj -6 463 *~;
#X obj -6 531 outlet~;
#X obj 9 433 line~;
#X msg 9 406 \$1 5;
#X obj 54 463 *~;
#X obj 54 531 outlet~;
#X obj 69 433 line~;
#X msg 69 406 \$1 5;
#X obj 114 463 *~;
#X obj 114 531 outlet~;
#X obj 129 433 line~;
#X msg 129 406 \$1 5;
#X obj -291 94 sel 0 1 2 3 4 5 6 7 8;
#X obj -291 46 inlet outlet_choice;
#X msg -291 138 0 0 0 0 0 0 0 0;
#X msg -278 158 1 0 0 0 0 0 0 0;
#X msg -264 178 0 1 0 0 0 0 0 0;
#X msg -250 198 0 0 1 0 0 0 0 0;
#X msg -237 218 0 0 0 1 0 0 0 0;
#X msg -223 238 0 0 0 0 1 0 0 0;
#X msg -209 259 0 0 0 0 0 1 0 0;
#X msg -196 280 0 0 0 0 0 0 1 0;
#X msg -182 301 0 0 0 0 0 0 0 1;
#X obj 114 43 inlet~ signal;
#X connect 0 0 1 0;
#X connect 2 0 4 0;
#X connect 2 1 8 0;
#X connect 2 2 12 0;
#X connect 2 3 16 0;
#X connect 2 4 20 0;
#X connect 2 5 24 0;
#X connect 2 6 28 0;
#X connect 2 7 32 0;
#X connect 3 0 0 1;
#X connect 4 0 3 0;
#X connect 5 0 6 0;
#X connect 7 0 5 1;
#X connect 8 0 7 0;
#X connect 9 0 10 0;
#X connect 11 0 9 1;
#X connect 12 0 11 0;
#X connect 13 0 14 0;
#X connect 15 0 13 1;
#X connect 16 0 15 0;
#X connect 17 0 18 0;
#X connect 19 0 17 1;
#X connect 20 0 19 0;
#X connect 21 0 22 0;
#X connect 23 0 21 1;
#X connect 24 0 23 0;
#X connect 25 0 26 0;
#X connect 27 0 25 1;
#X connect 28 0 27 0;
#X connect 29 0 30 0;
#X connect 31 0 29 1;
#X connect 32 0 31 0;
#X connect 33 0 35 0;
#X connect 33 1 36 0;
#X connect 33 2 37 0;
#X connect 33 3 38 0;
#X connect 33 4 39 0;
#X connect 33 5 40 0;
#X connect 33 6 41 0;
#X connect 33 7 42 0;
#X connect 33 8 43 0;
#X connect 33 9 35 0;
#X connect 34 0 33 0;
#X connect 35 0 2 0;
#X connect 36 0 2 0;
#X connect 37 0 2 0;
#X connect 38 0 2 0;
#X connect 39 0 2 0;
#X connect 40 0 2 0;
#X connect 41 0 2 0;
#X connect 42 0 2 0;
#X connect 43 0 2 0;
#X connect 44 0 0 0;
#X connect 44 0 5 0;
#X connect 44 0 9 0;
#X connect 44 0 13 0;
#X connect 44 0 17 0;
#X connect 44 0 21 0;
#X connect 44 0 25 0;
#X connect 44 0 29 0;
#X restore -99 317 pd selector8~;
#X obj -99 242 tgl 15 0 empty empty empty 17 7 0 10 -262144 -1 -1 0
1;
#X text 79 361 <-- rectify for amplitude modulation etc.;
#X obj -99 273 + 1;
#X obj 258 146 tgl 15 0 empty empty Rectify 20 7 0 10 -262144 -1 -1
0 1;
#X text 244 57 arguments;
#X obj -124 30 inlet rate;
#X obj -52 30 inlet depth;
#X obj 36 30 inlet rectify_on_off;
#X obj -53 361 expr~ $v1 * 0.5 + 0.5;
#X text 100 185 Out;
#X text 111 117 Low Frequency Oscillator;
#X text 100 100 Rate;
#X text 164 143 Rate (Arg 1);
#X text 164 162 Depth (Arg 2);
#X text 207 100 Depth;
#X text 322 100 Rect;
#X obj -124 52 change;
#X obj -52 52 change;
#X obj 36 52 change;
#X connect 0 0 2 0;
#X connect 1 0 0 0;
#X connect 2 0 18 1;
#X connect 11 0 2 1;
#X connect 12 0 16 0;
#X connect 13 0 17 0;
#X connect 15 0 12 0;
#X connect 15 0 13 0;
#X connect 16 0 1 0;
#X connect 17 0 11 0;
#X connect 18 0 14 0;
#X connect 18 1 27 0;
#X connect 19 0 21 0;
#X connect 21 0 18 0;
#X connect 22 0 19 0;
#X connect 24 0 35 0;
#X connect 25 0 36 0;
#X connect 26 0 37 0;
#X connect 27 0 14 0;
#X connect 35 0 16 0;
#X connect 36 0 17 0;
#X connect 37 0 22 0;
#X coords 0 -1 1 1 250 100 2 100 100;
