#N canvas 46 72 1217 820 10;
#X text -1235 19 Multi-Tap Delay;
#X obj -361 73 inlet~;
#X obj -152 26 inlet line1_time;
#X obj -306 440 *~;
#X obj -364 586 outlet~ sum;
#X obj -115 440 *~;
#X obj -48 26 inlet line1_fb;
#X obj 95 440 *~;
#X obj 95 402 delread~ \$0-delayline3;
#X obj -115 402 delread~ \$0-delayline2;
#X obj 315 440 *~;
#X floatatom 105 149 5 0 0 1 Time - -, f 5;
#X floatatom 105 169 5 0 0 1 FB - -, f 5;
#X obj 49 26 inlet line2_time;
#X obj 153 26 inlet line2_fb;
#X obj 249 26 inlet line3_time;
#X obj 354 26 inlet line3_fb;
#X obj 456 26 inlet line4_time;
#X obj 561 26 inlet line4_fb;
#N canvas 0 22 450 300 dry_wet 0;
#X obj -328 292 outlet~;
#X obj -76 133 hsl 64 15 0 1 0 0 empty empty empty -2 -8 0 10 -262144
-1 -1 865 1;
#X floatatom -63 162 5 0 0 0 - - -, f 5;
#X obj -359 253 *~;
#X obj -78 181 - 1;
#X floatatom -61 228 5 0 0 0 - - -, f 5;
#X obj -78 203 * -1;
#X obj -281 253 *~;
#X text -411 252 Dry Sig;
#X text -332 252 Wet Sig;
#X obj -79 46 inlet dry_wet_ctrl;
#X obj -359 39 inlet~ dry;
#X obj -281 39 inlet~ wet;
#X connect 1 0 2 0;
#X connect 1 0 4 0;
#X connect 1 0 7 1;
#X connect 3 0 0 0;
#X connect 4 0 6 0;
#X connect 6 0 5 0;
#X connect 6 0 3 1;
#X connect 7 0 0 0;
#X connect 10 0 1 0;
#X connect 11 0 3 0;
#X connect 12 0 7 0;
#X restore -364 530 pd dry_wet;
#X floatatom 171 149 5 0 0 1 Time - -, f 5;
#X floatatom 171 169 5 0 0 1 FB - -, f 5;
#X floatatom 236 149 5 0 0 1 Time - -, f 5;
#X floatatom 236 169 5 0 0 1 FB - -, f 5;
#X floatatom 302 149 5 0 0 1 Time - -, f 5;
#X floatatom 302 169 5 0 0 1 FB - -, f 5;
#X text 107 131 1;
#X text 171 131 2;
#X text 235 131 3;
#X text 303 131 4;
#X text 166 100 1FB;
#X text 131 100 1Tm;
#X text 238 100 1FB;
#X text 203 100 1Tm;
#X text 309 100 1FB;
#X text 274 100 1Tm;
#X text 377 100 1FB;
#X text 343 100 1Tm;
#X obj 664 26 inlet dry_wet;
#X text 403 100 D/W;
#X text 365 131 Dry/Wet;
#X text 101 99 In;
#X text 101 185 Out;
#X text 109 116 Multi-Tap Delay;
#X obj 664 52 change;
#X obj 561 52 change;
#X obj 456 52 change;
#X obj 354 52 change;
#X obj 249 52 change;
#X obj 153 52 change;
#X obj 49 52 change;
#X obj -48 52 change;
#X obj -152 52 change;
#X obj 315 402 delread~ \$0-delayline4;
#X obj -306 402 delread~ #0-delayline1;
#X obj -345 360 delwrite~ #0-delayline1 5000;
#X obj -144 356 delwrite~ \$0-delayline2 5000;
#X obj 66 356 delwrite~ \$0-delayline3 5000;
#X obj 276 356 delwrite~ \$0-delayline4 5000;
#X obj 367 152 hsl 52 15 0 1 0 0 empty empty empty -2 -8 0 10 -262144
-1 -1 700 1;
#X connect 1 0 19 0;
#X connect 1 0 55 0;
#X connect 1 0 56 0;
#X connect 1 0 57 0;
#X connect 1 0 58 0;
#X connect 2 0 52 0;
#X connect 3 0 19 1;
#X connect 3 0 55 0;
#X connect 5 0 19 1;
#X connect 5 0 56 0;
#X connect 6 0 51 0;
#X connect 7 0 19 1;
#X connect 7 0 57 0;
#X connect 8 0 7 0;
#X connect 9 0 5 0;
#X connect 10 0 19 1;
#X connect 10 0 58 0;
#X connect 11 0 54 0;
#X connect 12 0 3 1;
#X connect 13 0 50 0;
#X connect 14 0 49 0;
#X connect 15 0 48 0;
#X connect 16 0 47 0;
#X connect 17 0 46 0;
#X connect 18 0 45 0;
#X connect 19 0 4 0;
#X connect 20 0 9 0;
#X connect 21 0 5 1;
#X connect 22 0 8 0;
#X connect 23 0 7 1;
#X connect 24 0 53 0;
#X connect 25 0 10 1;
#X connect 38 0 44 0;
#X connect 44 0 59 0;
#X connect 45 0 25 0;
#X connect 46 0 24 0;
#X connect 47 0 23 0;
#X connect 48 0 22 0;
#X connect 49 0 21 0;
#X connect 50 0 20 0;
#X connect 51 0 12 0;
#X connect 52 0 11 0;
#X connect 53 0 10 0;
#X connect 54 0 3 0;
#X connect 59 0 19 2;
#X coords 0 -1 1 1 325 100 2 100 100;
