#N canvas 354 22 848 756 10;
#X text -362 133 V1;
#X text -362 159 V2;
#X text -368 185 DLY;
#X text -368 211 DST;
#X text -368 237 FLT;
#X text -368 263 RMD;
#X text -331 110 V1;
#X text -309 110 V2;
#X text -289 111 DLY;
#X text -264 111 DST;
#X text -240 110 FLT;
#X text -215 110 RMD;
#X obj -344 60 receive~ from_v1;
#X obj -241 60 receive~ from_v2;
#X obj -137 60 receive~ from_dly;
#X obj -28 60 receive~ from_dst;
#X obj 82 60 receive~ from_flt;
#X obj 191 61 receive~ from_rmd;
#X obj -346 305 send~ to_dly;
#X obj -241 306 send~ to_dst;
#X obj -134 308 send~ to_flt;
#X obj -26 309 send~ to_rmd;
#X text -234 420 FLT;
#X text -213 420 RMD;
#X text -369 443 ENV1;
#X text -370 464 ENV2;
#X text -370 490 LFO1;
#X text -368 515 LFO2;
#X obj -344 39 send~ from_v1;
#X obj -241 39 send~ from_v2;
#X obj -137 39 send~ from_dly;
#X obj -28 39 send~ from_dst;
#X obj 82 39 send~ from_flt;
#X obj 191 40 send~ from_rmd;
#X obj -338 127 tdh.util.6x6.audio.routing.matrix~;
#X obj -346 328 receive~ to_dly;
#X obj -240 328 receive~ to_dst;
#X obj -134 328 receive~ to_flt;
#X obj -25 329 receive~ to_rmd;
#X text -326 420 Cf;
#X text -301 420 Cm;
#X text -281 421 Mf;
#X text -256 420 Ma;
#X connect 12 0 34 0;
#X connect 13 0 34 1;
#X connect 14 0 34 2;
#X connect 15 0 34 3;
#X connect 16 0 34 4;
#X connect 17 0 34 5;
#X connect 34 2 18 0;
#X connect 34 3 19 0;
#X connect 34 4 20 0;
#X connect 34 5 21 0;
