#N canvas 148 141 1509 506 10;
#X obj 20 33 tgl 15 0 empty empty empty 17 7 0 10 -262144 -1 -1 0 1
;
#X obj 19 211 readsf~ 2;
#X text 41 32 Play/Stop;
#X text 1111 184 <-- Replace everything after "open" with the path
of your files;
#N canvas 320 92 450 300 sig_lvl 0;
#X obj 139 153 snapshot~;
#X obj 139 103 tgl 15 0 empty empty empty 17 7 0 10 -262144 -1 -1 1
1;
#X obj 139 127 metro 20;
#X floatatom 139 179 5 0 0 0 - - -, f 5;
#X obj 139 48 loadbang;
#X msg 139 74 1;
#X obj 139 202 outlet;
#X obj 52 48 inlet~;
#X connect 0 0 3 0;
#X connect 1 0 2 0;
#X connect 2 0 0 0;
#X connect 3 0 6 0;
#X connect 4 0 5 0;
#X connect 5 0 1 0;
#X connect 7 0 0 0;
#X restore 69 347 pd sig_lvl;
#X floatatom 69 369 5 0 0 0 - - -, f 5;
#N canvas 320 92 450 300 sig_lvl 0;
#X obj 139 153 snapshot~;
#X obj 139 103 tgl 15 0 empty empty empty 17 7 0 10 -262144 -1 -1 1
1;
#X obj 139 127 metro 20;
#X floatatom 139 179 5 0 0 0 - - -, f 5;
#X obj 139 48 loadbang;
#X msg 139 74 1;
#X obj 139 202 outlet;
#X obj 52 48 inlet~;
#X connect 0 0 3 0;
#X connect 1 0 2 0;
#X connect 2 0 0 0;
#X connect 3 0 6 0;
#X connect 4 0 5 0;
#X connect 5 0 1 0;
#X connect 7 0 0 0;
#X restore 69 347 pd sig_lvl;
#X floatatom 69 369 5 0 0 0 - - -, f 5;
#X obj 120 212 tgl 15 0 empty empty empty 17 7 0 10 -262144 -1 -1 0
1;
#X obj 780 34 bng 15 250 50 0 empty empty empty 17 7 0 10 -262144 -1
-1;
#X text 795 32 Load All;
#X text 141 211 CLick Play Status;
#X obj 120 235 tgl 15 0 empty empty empty 17 7 0 10 -262144 -1 -1 0
1;
#N canvas 0 22 450 300 fader~ 0;
#X obj 187 41 inlet;
#X obj 199 191 outlet~;
#X obj 184 76 sel 0 1;
#X msg 184 121 0 100;
#X msg 234 121 1 100;
#X obj 192 154 line~;
#X connect 0 0 2 0;
#X connect 2 0 4 0;
#X connect 2 1 3 0;
#X connect 3 0 5 0;
#X connect 4 0 5 0;
#X connect 5 0 1 0;
#X restore 120 258 pd fader~;
#X text 141 235 Mute;
#X obj 349 211 readsf~ 2;
#X obj 450 212 tgl 15 0 empty empty empty 17 7 0 10 -262144 -1 -1 0
1;
#X obj 779 211 readsf~ 2;
#N canvas 320 92 450 300 sig_lvl 0;
#X obj 139 153 snapshot~;
#X obj 139 103 tgl 15 0 empty empty empty 17 7 0 10 -262144 -1 -1 1
1;
#X obj 139 127 metro 20;
#X floatatom 139 179 5 0 0 0 - - -, f 5;
#X obj 139 48 loadbang;
#X msg 139 74 1;
#X obj 139 202 outlet;
#X obj 52 48 inlet~;
#X connect 0 0 3 0;
#X connect 1 0 2 0;
#X connect 2 0 0 0;
#X connect 3 0 6 0;
#X connect 4 0 5 0;
#X connect 5 0 1 0;
#X connect 7 0 0 0;
#X restore 829 320 pd sig_lvl;
#X floatatom 829 342 5 0 0 0 - - -, f 5;
#N canvas 320 92 450 300 sig_lvl 0;
#X obj 139 153 snapshot~;
#X obj 139 103 tgl 15 0 empty empty empty 17 7 0 10 -262144 -1 -1 1
1;
#X obj 139 127 metro 20;
#X floatatom 139 179 5 0 0 0 - - -, f 5;
#X obj 139 48 loadbang;
#X msg 139 74 1;
#X obj 139 202 outlet;
#X obj 52 48 inlet~;
#X connect 0 0 3 0;
#X connect 1 0 2 0;
#X connect 2 0 0 0;
#X connect 3 0 6 0;
#X connect 4 0 5 0;
#X connect 5 0 1 0;
#X connect 7 0 0 0;
#X restore 896 320 pd sig_lvl;
#X floatatom 896 342 5 0 0 0 - - -, f 5;
#N canvas 320 92 450 300 sig_lvl 0;
#X obj 139 153 snapshot~;
#X obj 139 103 tgl 15 0 empty empty empty 17 7 0 10 -262144 -1 -1 1
1;
#X obj 139 127 metro 20;
#X floatatom 139 179 5 0 0 0 - - -, f 5;
#X obj 139 48 loadbang;
#X msg 139 74 1;
#X obj 139 202 outlet;
#X obj 52 48 inlet~;
#X connect 0 0 3 0;
#X connect 1 0 2 0;
#X connect 2 0 0 0;
#X connect 3 0 6 0;
#X connect 4 0 5 0;
#X connect 5 0 1 0;
#X connect 7 0 0 0;
#X restore 829 320 pd sig_lvl;
#X floatatom 829 342 5 0 0 0 - - -, f 5;
#N canvas 320 92 450 300 sig_lvl 0;
#X obj 139 153 snapshot~;
#X obj 139 103 tgl 15 0 empty empty empty 17 7 0 10 -262144 -1 -1 1
1;
#X obj 139 127 metro 20;
#X floatatom 139 179 5 0 0 0 - - -, f 5;
#X obj 139 48 loadbang;
#X msg 139 74 1;
#X obj 139 202 outlet;
#X obj 52 48 inlet~;
#X connect 0 0 3 0;
#X connect 1 0 2 0;
#X connect 2 0 0 0;
#X connect 3 0 6 0;
#X connect 4 0 5 0;
#X connect 5 0 1 0;
#X connect 7 0 0 0;
#X restore 896 320 pd sig_lvl;
#X floatatom 896 342 5 0 0 0 - - -, f 5;
#X obj 880 212 tgl 15 0 empty empty empty 17 7 0 10 -262144 -1 -1 0
1;
#X obj 880 235 tgl 15 0 empty empty empty 17 7 0 10 -262144 -1 -1 0
1;
#X obj 779 293 *~;
#X obj 809 293 *~;
#X text 901 235 Mute;
#N canvas 0 22 450 300 fader~ 0;
#X obj 187 41 inlet;
#X obj 199 191 outlet~;
#X obj 184 76 sel 0 1;
#X msg 184 121 0 100;
#X msg 234 121 1 100;
#X obj 192 154 line~;
#X connect 0 0 2 0;
#X connect 2 0 4 0;
#X connect 2 1 3 0;
#X connect 3 0 5 0;
#X connect 4 0 5 0;
#X connect 5 0 1 0;
#X restore 880 258 pd fader~;
#X msg 19 181 open /Volumes/SS-CDR200/alter_ego/Click_Only.wav;
#X msg 350 181 open /Volumes/SS-CDR200/alter_ego/Soundscape-wClick_MIX.wav
;
#X msg 780 183 open /Volumes/SS-CDR200/alter_ego/Soundscape_Only.wav
;
#X obj 19 300 *~ 0.5;
#X obj 69 300 *~ 0.5;
#X obj 19 328 +~;
#X obj 19 355 *~;
#N canvas 320 92 450 300 sig_lvl 0;
#X obj 139 153 snapshot~;
#X obj 139 103 tgl 15 0 empty empty empty 17 7 0 10 -262144 -1 -1 1
1;
#X obj 139 127 metro 20;
#X floatatom 139 179 5 0 0 0 - - -, f 5;
#X obj 139 48 loadbang;
#X msg 139 74 1;
#X obj 139 202 outlet;
#X obj 52 48 inlet~;
#X connect 0 0 3 0;
#X connect 1 0 2 0;
#X connect 2 0 0 0;
#X connect 3 0 6 0;
#X connect 4 0 5 0;
#X connect 5 0 1 0;
#X connect 7 0 0 0;
#X restore 399 345 pd sig_lvl;
#X floatatom 399 367 5 0 0 0 - - -, f 5;
#N canvas 320 92 450 300 sig_lvl 0;
#X obj 139 153 snapshot~;
#X obj 139 103 tgl 15 0 empty empty empty 17 7 0 10 -262144 -1 -1 1
1;
#X obj 139 127 metro 20;
#X floatatom 139 179 5 0 0 0 - - -, f 5;
#X obj 139 48 loadbang;
#X msg 139 74 1;
#X obj 139 202 outlet;
#X obj 52 48 inlet~;
#X connect 0 0 3 0;
#X connect 1 0 2 0;
#X connect 2 0 0 0;
#X connect 3 0 6 0;
#X connect 4 0 5 0;
#X connect 5 0 1 0;
#X connect 7 0 0 0;
#X restore 399 345 pd sig_lvl;
#X floatatom 399 367 5 0 0 0 - - -, f 5;
#X obj 450 230 tgl 15 0 empty empty empty 17 7 0 10 -262144 -1 -1 0
1;
#N canvas 0 22 450 300 fader~ 0;
#X obj 187 41 inlet;
#X obj 199 191 outlet~;
#X obj 184 76 sel 0 1;
#X msg 184 121 0 100;
#X msg 234 121 1 100;
#X obj 192 154 line~;
#X connect 0 0 2 0;
#X connect 2 0 4 0;
#X connect 2 1 3 0;
#X connect 3 0 5 0;
#X connect 4 0 5 0;
#X connect 5 0 1 0;
#X restore 450 253 pd fader~;
#X text 471 230 Mute;
#X obj 349 298 *~ 0.5;
#X obj 399 298 *~ 0.5;
#X obj 349 326 +~;
#X obj 349 353 *~;
#X text 471 211 Mix Play Status;
#X text 901 211 Soundscape Play Status;
#X obj 1185 280 osc~ 440;
#X obj 412 467 dac~ 1 4 5 8;
#X obj 1284 240 hsl 128 15 0 127 0 0 empty empty empty -2 -8 0 10 -262144
-1 -1 0 1;
#X floatatom 1273 293 5 0 0 0 - - -, f 5;
#X obj 1184 316 *~;
#X obj 1241 437 dac~ 1 4 5 8;
#X obj 972 432 dac~ 1 2 3 4 5 6 7 8;
#X msg 880 35 0;
#X msg 952 42 1;
#X connect 0 0 1 0;
#X connect 0 0 8 0;
#X connect 0 0 15 0;
#X connect 0 0 16 0;
#X connect 0 0 17 0;
#X connect 0 0 26 0;
#X connect 1 0 35 0;
#X connect 1 1 36 0;
#X connect 1 2 8 0;
#X connect 4 0 5 0;
#X connect 6 0 7 0;
#X connect 9 0 34 0;
#X connect 9 0 33 0;
#X connect 9 0 32 0;
#X connect 12 0 13 0;
#X connect 13 0 38 1;
#X connect 15 0 46 0;
#X connect 15 1 47 0;
#X connect 15 2 16 0;
#X connect 17 0 28 0;
#X connect 17 1 29 0;
#X connect 17 2 26 0;
#X connect 18 0 19 0;
#X connect 20 0 21 0;
#X connect 22 0 23 0;
#X connect 24 0 25 0;
#X connect 27 0 31 0;
#X connect 28 0 18 0;
#X connect 28 0 53 2;
#X connect 29 0 20 0;
#X connect 29 0 53 3;
#X connect 31 0 29 1;
#X connect 31 0 28 1;
#X connect 32 0 1 0;
#X connect 33 0 15 0;
#X connect 34 0 17 0;
#X connect 35 0 37 0;
#X connect 36 0 37 1;
#X connect 37 0 4 0;
#X connect 37 0 38 0;
#X connect 38 0 53 0;
#X connect 39 0 40 0;
#X connect 41 0 42 0;
#X connect 43 0 44 0;
#X connect 44 0 49 1;
#X connect 46 0 48 0;
#X connect 47 0 48 1;
#X connect 48 0 39 0;
#X connect 48 0 49 0;
#X connect 49 0 53 1;
#X connect 52 0 56 0;
#X connect 55 0 56 1;
#X connect 59 0 27 0;
#X connect 59 0 43 0;
#X connect 59 0 12 0;
#X connect 60 0 27 0;
#X connect 60 0 43 0;
#X connect 60 0 12 0;
