#N canvas 1783 172 1283 746 10;
#X obj 61 7 tgl 15 0 empty empty empty 17 7 0 10 -262144 -1 -1 0 1
;
#X obj 462 8 tgl 15 0 empty empty empty 17 7 0 10 -262144 -1 -1 0 1
;
#X text 80 5 Noise;
#X text 481 9 Tone;
#X obj 61 64 sel 1 0;
#X obj 462 64 sel 1 0;
#X obj 47 349 noise~;
#X obj 100 322 mtof;
#X obj 100 349 osc~;
#X msg 100 298 60;
#X obj 100 273 loadbang;
#X obj 47 433 *~;
#X obj 62 398 line~;
#X msg 62 94 0.8 500;
#X msg 121 94 0 500;
#X obj 819 771 snapshot~;
#X floatatom 821 803 5 0 0 0 - - -, f 5;
#X msg 1021 53 \; pd dsp \$1;
#X obj 1021 31 tgl 15 0 empty empty empty 17 7 0 10 -262144 -1 -1 0
1;
#X msg 464 94 0.8 500;
#X msg 522 94 0 500;
#X obj 850 749 metro 5;
#X obj 851 730 tgl 15 0 empty empty empty 17 7 0 10 -262144 -1 -1 0
1;
#X obj 100 433 *~;
#X obj 115 398 line~;
#X obj 909 771 snapshot~;
#X floatatom 911 803 5 0 0 0 - - -, f 5;
#X obj 940 749 metro 5;
#X obj 941 730 tgl 15 0 empty empty empty 17 7 0 10 -262144 -1 -1 0
1;
#X msg 568 94 0;
#X msg 167 93 0;
#X text 202 -58 When either choice is toggled \, the other choice is
muted and it's toggle is "zeroed".;
#X obj 197 349 noise~;
#X obj 250 322 mtof;
#X obj 250 349 osc~;
#X obj 250 273 loadbang;
#X obj 197 433 *~;
#X obj 212 398 line~;
#X obj 250 433 *~;
#X obj 265 398 line~;
#X msg 250 298 62;
#X obj 337 349 noise~;
#X obj 390 322 mtof;
#X obj 390 349 osc~;
#X obj 390 273 loadbang;
#X obj 337 433 *~;
#X obj 352 398 line~;
#X obj 390 433 *~;
#X obj 405 398 line~;
#X obj 467 349 noise~;
#X obj 520 322 mtof;
#X obj 520 349 osc~;
#X obj 520 273 loadbang;
#X obj 467 433 *~;
#X obj 482 398 line~;
#X obj 520 433 *~;
#X obj 535 398 line~;
#X obj 617 349 noise~;
#X obj 670 322 mtof;
#X obj 670 349 osc~;
#X obj 670 273 loadbang;
#X obj 617 433 *~;
#X obj 632 398 line~;
#X obj 670 433 *~;
#X obj 685 398 line~;
#X obj 757 349 noise~;
#X obj 810 322 mtof;
#X obj 810 349 osc~;
#X obj 810 273 loadbang;
#X obj 757 433 *~;
#X obj 772 398 line~;
#X obj 810 433 *~;
#X obj 825 398 line~;
#X msg 390 298 64;
#X msg 520 298 65;
#X msg 670 298 67;
#X msg 810 298 69;
#X obj 877 349 noise~;
#X obj 930 322 mtof;
#X obj 930 349 osc~;
#X obj 930 273 loadbang;
#X obj 877 433 *~;
#X obj 892 398 line~;
#X obj 930 433 *~;
#X obj 945 398 line~;
#X obj 1017 349 noise~;
#X obj 1070 322 mtof;
#X obj 1070 349 osc~;
#X obj 1070 273 loadbang;
#X obj 1017 433 *~;
#X obj 1032 398 line~;
#X obj 1070 433 *~;
#X obj 1085 398 line~;
#X msg 930 298 71;
#X obj 47 617 *~;
#X obj 100 461 tgl 15 0 empty empty empty 17 7 0 10 -262144 -1 -1 1
1;
#X obj 197 617 *~;
#X obj 337 617 *~;
#X obj 487 617 *~;
#X obj 627 617 *~;
#X obj 777 617 *~;
#X obj 917 617 *~;
#X obj 1067 617 *~;
#X obj 99 579 line~;
#X obj 240 461 tgl 15 0 empty empty empty 17 7 0 10 -262144 -1 -1 1
1;
#X obj 239 579 line~;
#X obj 360 461 tgl 15 0 empty empty empty 17 7 0 10 -262144 -1 -1 1
1;
#X obj 359 579 line~;
#X obj 520 461 tgl 15 0 empty empty empty 17 7 0 10 -262144 -1 -1 1
1;
#X obj 519 579 line~;
#X obj 670 461 tgl 15 0 empty empty empty 17 7 0 10 -262144 -1 -1 1
1;
#X obj 669 579 line~;
#X obj 810 461 tgl 15 0 empty empty empty 17 7 0 10 -262144 -1 -1 1
1;
#X obj 809 579 line~;
#X obj 960 461 tgl 15 0 empty empty empty 17 7 0 10 -262144 -1 -1 1
1;
#X obj 959 579 line~;
#X obj 1130 461 tgl 15 0 empty empty empty 17 7 0 10 -262144 -1 -1
1 1;
#X obj 1129 579 line~;
#X msg 1070 298 72;
#X obj 47 715 dac~ 1 2 3 4 5 6 7 8, f 115;
#X obj 1170 359 loadbang;
#X msg 1170 381 1;
#X obj 130 434 r one;
#X obj 280 434 r two;
#X obj 420 434 r three;
#X obj 550 434 r four;
#X obj 710 434 r five;
#X obj 840 434 r six;
#X obj 960 434 r seven;
#X obj 1150 434 r eight;
#X obj 929 132 qlist;
#X msg 929 95 read presonus_audiobox_output_test_seq.txt;
#X msg 913 66 bang;
#X obj 1000 124 bng 15 250 50 0 empty empty empty 17 7 0 10 -262144
-1 -1;
#X msg 1199 382 0;
#X msg 97 532 0.8 500;
#X msg 156 532 0 500;
#X obj 99 510 sel 1 0;
#X msg 247 532 0.8 500;
#X msg 306 532 0 500;
#X obj 249 510 sel 1 0;
#X msg 367 532 0.8 500;
#X msg 426 532 0 500;
#X obj 369 510 sel 1 0;
#X msg 517 532 0.8 500;
#X msg 576 532 0 500;
#X obj 519 510 sel 1 0;
#X msg 667 532 0.8 500;
#X msg 726 532 0 500;
#X obj 669 510 sel 1 0;
#X msg 817 532 0.8 500;
#X msg 876 532 0 500;
#X obj 819 510 sel 1 0;
#X msg 937 532 0.8 500;
#X msg 996 532 0 500;
#X obj 939 510 sel 1 0;
#X msg 1087 532 0.8 500;
#X msg 1146 532 0 500;
#X obj 1089 510 sel 1 0;
#X text 1030 122 Loops seq;
#X text 930 163 TODO this looping mechanism should be optional;
#X connect 0 0 4 0;
#X connect 1 0 5 0;
#X connect 4 0 13 0;
#X connect 4 0 20 0;
#X connect 4 0 30 0;
#X connect 4 1 14 0;
#X connect 5 0 19 0;
#X connect 5 0 14 0;
#X connect 5 0 29 0;
#X connect 5 1 20 0;
#X connect 6 0 11 0;
#X connect 7 0 8 0;
#X connect 8 0 23 0;
#X connect 9 0 7 0;
#X connect 10 0 9 0;
#X connect 11 0 94 0;
#X connect 12 0 11 1;
#X connect 13 0 12 0;
#X connect 13 0 37 0;
#X connect 13 0 46 0;
#X connect 13 0 54 0;
#X connect 13 0 62 0;
#X connect 13 0 70 0;
#X connect 13 0 82 0;
#X connect 13 0 90 0;
#X connect 14 0 12 0;
#X connect 14 0 37 0;
#X connect 14 0 46 0;
#X connect 14 0 54 0;
#X connect 14 0 62 0;
#X connect 14 0 70 0;
#X connect 14 0 82 0;
#X connect 14 0 90 0;
#X connect 15 0 16 0;
#X connect 18 0 17 0;
#X connect 19 0 24 0;
#X connect 19 0 39 0;
#X connect 19 0 48 0;
#X connect 19 0 56 0;
#X connect 19 0 64 0;
#X connect 19 0 72 0;
#X connect 19 0 84 0;
#X connect 19 0 92 0;
#X connect 20 0 24 0;
#X connect 20 0 39 0;
#X connect 20 0 48 0;
#X connect 20 0 56 0;
#X connect 20 0 64 0;
#X connect 20 0 72 0;
#X connect 20 0 84 0;
#X connect 20 0 92 0;
#X connect 21 0 15 0;
#X connect 22 0 21 0;
#X connect 23 0 94 0;
#X connect 24 0 23 1;
#X connect 25 0 26 0;
#X connect 27 0 25 0;
#X connect 28 0 27 0;
#X connect 29 0 0 0;
#X connect 30 0 1 0;
#X connect 32 0 36 0;
#X connect 33 0 34 0;
#X connect 34 0 38 0;
#X connect 35 0 40 0;
#X connect 36 0 96 0;
#X connect 37 0 36 1;
#X connect 38 0 96 0;
#X connect 39 0 38 1;
#X connect 40 0 33 0;
#X connect 41 0 45 0;
#X connect 42 0 43 0;
#X connect 43 0 47 0;
#X connect 44 0 73 0;
#X connect 45 0 97 0;
#X connect 46 0 45 1;
#X connect 47 0 97 0;
#X connect 48 0 47 1;
#X connect 49 0 53 0;
#X connect 50 0 51 0;
#X connect 51 0 55 0;
#X connect 52 0 74 0;
#X connect 53 0 98 0;
#X connect 54 0 53 1;
#X connect 55 0 98 0;
#X connect 56 0 55 1;
#X connect 57 0 61 0;
#X connect 58 0 59 0;
#X connect 59 0 63 0;
#X connect 60 0 75 0;
#X connect 61 0 99 0;
#X connect 62 0 61 1;
#X connect 63 0 99 0;
#X connect 64 0 63 1;
#X connect 65 0 69 0;
#X connect 66 0 67 0;
#X connect 67 0 71 0;
#X connect 68 0 76 0;
#X connect 69 0 100 0;
#X connect 70 0 69 1;
#X connect 71 0 100 0;
#X connect 72 0 71 1;
#X connect 73 0 42 0;
#X connect 74 0 50 0;
#X connect 75 0 58 0;
#X connect 76 0 66 0;
#X connect 77 0 81 0;
#X connect 78 0 79 0;
#X connect 79 0 83 0;
#X connect 80 0 93 0;
#X connect 81 0 101 0;
#X connect 82 0 81 1;
#X connect 83 0 101 0;
#X connect 84 0 83 1;
#X connect 85 0 89 0;
#X connect 86 0 87 0;
#X connect 87 0 91 0;
#X connect 88 0 118 0;
#X connect 89 0 102 0;
#X connect 90 0 89 1;
#X connect 91 0 102 0;
#X connect 92 0 91 1;
#X connect 93 0 78 0;
#X connect 94 0 119 0;
#X connect 95 0 137 0;
#X connect 96 0 119 1;
#X connect 97 0 119 2;
#X connect 98 0 119 3;
#X connect 99 0 119 4;
#X connect 100 0 119 5;
#X connect 101 0 119 6;
#X connect 102 0 119 7;
#X connect 103 0 94 1;
#X connect 104 0 140 0;
#X connect 105 0 96 1;
#X connect 106 0 143 0;
#X connect 107 0 97 1;
#X connect 108 0 146 0;
#X connect 109 0 98 1;
#X connect 110 0 149 0;
#X connect 111 0 99 1;
#X connect 112 0 152 0;
#X connect 113 0 100 1;
#X connect 114 0 155 0;
#X connect 115 0 101 1;
#X connect 116 0 158 0;
#X connect 117 0 102 1;
#X connect 118 0 86 0;
#X connect 120 0 121 0;
#X connect 121 0 95 0;
#X connect 121 0 104 0;
#X connect 121 0 106 0;
#X connect 121 0 108 0;
#X connect 121 0 110 0;
#X connect 121 0 112 0;
#X connect 121 0 114 0;
#X connect 121 0 116 0;
#X connect 122 0 95 0;
#X connect 123 0 104 0;
#X connect 124 0 106 0;
#X connect 125 0 108 0;
#X connect 126 0 110 0;
#X connect 127 0 112 0;
#X connect 128 0 114 0;
#X connect 129 0 116 0;
#X connect 130 1 133 0;
#X connect 131 0 130 0;
#X connect 132 0 130 0;
#X connect 133 0 132 0;
#X connect 134 0 116 0;
#X connect 134 0 114 0;
#X connect 134 0 112 0;
#X connect 134 0 110 0;
#X connect 134 0 108 0;
#X connect 134 0 106 0;
#X connect 134 0 104 0;
#X connect 134 0 95 0;
#X connect 135 0 103 0;
#X connect 136 0 103 0;
#X connect 137 0 135 0;
#X connect 137 1 136 0;
#X connect 138 0 105 0;
#X connect 139 0 105 0;
#X connect 140 0 138 0;
#X connect 140 1 139 0;
#X connect 141 0 107 0;
#X connect 142 0 107 0;
#X connect 143 0 141 0;
#X connect 143 1 142 0;
#X connect 144 0 109 0;
#X connect 145 0 109 0;
#X connect 146 0 144 0;
#X connect 146 1 145 0;
#X connect 147 0 111 0;
#X connect 148 0 111 0;
#X connect 149 0 147 0;
#X connect 149 1 148 0;
#X connect 150 0 113 0;
#X connect 151 0 113 0;
#X connect 152 0 150 0;
#X connect 152 1 151 0;
#X connect 153 0 115 0;
#X connect 154 0 115 0;
#X connect 155 0 153 0;
#X connect 155 1 154 0;
#X connect 156 0 117 0;
#X connect 157 0 117 0;
#X connect 158 0 156 0;
#X connect 158 1 157 0;
