#N canvas 40 280 623 408 10;
#X obj 122 268 +~;
#X obj 442 298 block~ 2 1 1;
#X obj 157 161 delread~ avg;
#X obj 278 110 samplerate~;
#X obj 278 84 r pd-dsp-started;
#X floatatom 278 131 7 0 0 0 - - -, f 7;
#X obj 388 84 bng 15 250 50 0 empty empty empty 17 7 0 10 -262144 -1
-1;
#X obj 278 151 / 1000;
#X floatatom 278 172 7 0 0 0 - - -, f 7;
#X obj 278 192 swap 1;
#X obj 278 213 /;
#X floatatom 278 234 7 0 0 0 - - -, f 7;
#X obj 157 133 delwrite~ avg 1;
#X obj 122 78 inlet~;
#X obj 122 289 *~ 0.5;
#X connect 0 0 14 0;
#X connect 2 0 0 1;
#X connect 3 0 5 0;
#X connect 4 0 3 0;
#X connect 5 0 7 0;
#X connect 6 0 3 0;
#X connect 7 0 8 0;
#X connect 8 0 9 0;
#X connect 9 0 10 0;
#X connect 9 1 10 1;
#X connect 10 0 11 0;
#X connect 13 0 12 0;
#X connect 13 0 0 0;
