#N canvas 562 24 1275 878 10;
#X obj 887 18 tdh.sigproc.overdrive~;
#X obj 887 -82 adc~;
#X obj 947 -84 r fromGUI;
#X obj 947 -62 route list;
#X obj 947 -20 route /od_drive /od_tone /od_drywet;
#X obj 887 193 tdh.sigproc.mmfilt~;
#X obj 947 130 route /lpf_freq /lpf_res /lpf_drywet;
#N canvas 0 22 450 300 scale_freq 0;
#X obj 226 36 inlet;
#X obj 226 58 * 19980;
#X obj 226 80 + 20;
#X obj 226 102 outlet;
#X connect 0 0 1 0;
#X connect 1 0 2 0;
#X connect 2 0 3 0;
#X restore 947 152 pd scale_freq;
#X obj 887 396 tdh.sigproc.ringmod~;
#N canvas 0 22 450 300 scale_freq 0;
#X obj 226 36 inlet;
#X obj 226 58 * 19980;
#X obj 226 80 + 20;
#X obj 226 102 outlet;
#X connect 0 0 1 0;
#X connect 1 0 2 0;
#X connect 2 0 3 0;
#X restore 947 332 pd scale_freq;
#X obj 947 310 route /rm_freq /rm_amp /rm_drywet;
#X obj 887 601 tdh.sigproc.reverb~;
#N canvas 0 22 450 300 scale_percent 0;
#X obj 226 36 inlet;
#X obj 226 102 outlet;
#X obj 226 58 * 100;
#X connect 0 0 2 0;
#X connect 2 0 1 0;
#X restore 1036 543 pd scale_percent;
#X obj 947 520 route /rvrb_level /rvrb_liveness /rvrb_drywet;
#X obj 160 15 tdh.sigproc.seq.filter~;
#X obj 196 -77 route /filt_seq_toggle /filt_seq_rate /s1_pitch /s2_pitch
/s3_pitch /s4_pitch /s5_pitch /s6_pitch /s7_pitch /s8_pitch /filt_seq_drywet
, f 80;
#N canvas 0 22 450 300 scale_rate 0;
#X obj 182 40 inlet;
#X obj 182 62 * 4050;
#X obj 182 84 + 50;
#X obj 182 106 outlet, f 10;
#X connect 0 0 1 0;
#X connect 1 0 2 0;
#X connect 2 0 3 0;
#X restore 202 -32 pd scale_rate;
#N canvas 0 22 450 300 to_midi 0;
#X obj 182 40 inlet;
#X obj 182 106 outlet, f 10;
#X obj 182 62 * 127, f 7;
#X connect 0 0 2 0;
#X connect 2 0 1 0;
#X restore 292 -32 pd to_midi;
#N canvas 0 22 450 300 to_midi 0;
#X obj 182 40 inlet;
#X obj 182 106 outlet, f 10;
#X obj 182 62 * 127, f 7;
#X connect 0 0 2 0;
#X connect 2 0 1 0;
#X restore 362 -32 pd to_midi;
#N canvas 0 22 450 300 to_midi 0;
#X obj 182 40 inlet;
#X obj 182 106 outlet, f 10;
#X obj 182 62 * 127, f 7;
#X connect 0 0 2 0;
#X connect 2 0 1 0;
#X restore 432 -32 pd to_midi;
#N canvas 0 22 450 300 to_midi 0;
#X obj 182 40 inlet;
#X obj 182 106 outlet, f 10;
#X obj 182 62 * 127, f 7;
#X connect 0 0 2 0;
#X connect 2 0 1 0;
#X restore 501 -32 pd to_midi;
#N canvas 0 22 450 300 to_midi 0;
#X obj 182 40 inlet;
#X obj 182 106 outlet, f 10;
#X obj 182 62 * 127, f 7;
#X connect 0 0 2 0;
#X connect 2 0 1 0;
#X restore 570 -32 pd to_midi;
#N canvas 0 22 450 300 to_midi 0;
#X obj 182 40 inlet;
#X obj 182 106 outlet, f 10;
#X obj 182 62 * 127, f 7;
#X connect 0 0 2 0;
#X connect 2 0 1 0;
#X restore 640 -32 pd to_midi;
#N canvas 0 22 450 300 to_midi 0;
#X obj 182 40 inlet;
#X obj 182 106 outlet, f 10;
#X obj 182 62 * 127, f 7;
#X connect 0 0 2 0;
#X connect 2 0 1 0;
#X restore 710 -32 pd to_midi;
#N canvas 0 22 450 300 to_midi 0;
#X obj 182 40 inlet;
#X obj 182 106 outlet, f 10;
#X obj 182 62 * 127, f 7;
#X connect 0 0 2 0;
#X connect 2 0 1 0;
#X restore 781 -32 pd to_midi;
#N canvas 43 192 1758 511 seq_gui_sends 0;
#X obj 5 36 inlet;
#X obj 45 36 inlet;
#X obj 85 36 inlet;
#X msg 85 88 list /s1_button \$1;
#X msg 5 58 C#;
#X obj 5 318 s toGUI;
#X obj 225 36 inlet;
#X obj 265 36 inlet;
#X obj 305 36 inlet;
#X obj 445 36 inlet;
#X obj 485 36 inlet;
#X obj 525 36 inlet;
#X obj 675 36 inlet;
#X obj 715 36 inlet;
#X obj 755 36 inlet;
#X obj 885 36 inlet;
#X obj 925 36 inlet;
#X obj 965 36 inlet;
#X obj 1095 36 inlet;
#X obj 1135 36 inlet;
#X obj 1175 36 inlet;
#X obj 1305 36 inlet;
#X obj 1345 36 inlet;
#X obj 1385 36 inlet;
#X obj 1515 36 inlet;
#X obj 1555 36 inlet;
#X obj 1595 36 inlet;
#X msg 225 58 list /s2_pitch_level \$1;
#X msg 305 88 list /s2_button \$1;
#X msg 445 58 list /s3_pitch_level \$1;
#X msg 525 88 list /s3_button \$1;
#X msg 675 58 list /s4_pitch_level \$1;
#X msg 755 88 list /s4_button \$1;
#X msg 885 58 list /s5_pitch_level \$1;
#X msg 965 88 list /s5_button \$1;
#X msg 1095 58 list /s6_pitch_level \$1;
#X msg 1175 88 list /s6_button \$1;
#X msg 1305 58 list /s7_pitch_level \$1;
#X msg 1385 88 list /s7_button \$1;
#X msg 1515 58 list /s8_pitch_level \$1;
#X msg 1595 88 list /s8_button \$1, f 71;
#X msg 85 58 1;
#X connect 0 0 4 0;
#X connect 2 0 41 0;
#X connect 3 0 5 0;
#X connect 4 0 5 0;
#X connect 6 0 27 0;
#X connect 8 0 28 0;
#X connect 9 0 29 0;
#X connect 11 0 30 0;
#X connect 12 0 31 0;
#X connect 14 0 32 0;
#X connect 15 0 33 0;
#X connect 17 0 34 0;
#X connect 18 0 35 0;
#X connect 20 0 36 0;
#X connect 21 0 37 0;
#X connect 23 0 38 0;
#X connect 24 0 39 0;
#X connect 26 0 40 0;
#X connect 27 0 5 0;
#X connect 28 0 5 0;
#X connect 29 0 5 0;
#X connect 30 0 5 0;
#X connect 31 0 5 0;
#X connect 32 0 5 0;
#X connect 33 0 5 0;
#X connect 34 0 5 0;
#X connect 35 0 5 0;
#X connect 36 0 5 0;
#X connect 37 0 5 0;
#X connect 38 0 5 0;
#X connect 39 0 5 0;
#X connect 40 0 5 0;
#X connect 41 0 3 0;
#X restore 179 322 pd seq_gui_sends;
#X obj 160 522 tdh.sigproc.multi.tap.delay~;
#X obj 160 627 dac~;
#N canvas 0 22 450 300 scaletme 0;
#X obj 231 116 inlet;
#X obj 231 138 * 5000;
#X obj 231 160 outlet;
#X connect 0 0 1 0;
#X connect 1 0 2 0;
#X restore 174 446 pd scaletme;
#N canvas 0 22 450 300 scaletme 0;
#X obj 231 116 inlet;
#X obj 231 138 * 5000;
#X obj 231 160 outlet;
#X connect 0 0 1 0;
#X connect 1 0 2 0;
#X restore 332 448 pd scaletme;
#N canvas 0 22 450 300 scaletme 0;
#X obj 231 116 inlet;
#X obj 231 138 * 5000;
#X obj 231 160 outlet;
#X connect 0 0 1 0;
#X connect 1 0 2 0;
#X restore 250 447 pd scaletme;
#N canvas 0 22 450 300 scaletme 0;
#X obj 231 116 inlet;
#X obj 231 138 * 5000;
#X obj 231 160 outlet;
#X connect 0 0 1 0;
#X connect 1 0 2 0;
#X restore 412 448 pd scaletme;
#X obj 174 426 route /t1_time /t1_fb /t2_time /t2_fb /t3_time /t3_fb
/t4_time /t4_fb /del_drywet, f 83;
#X text -37 -64 Dependencies:;
#X text -37 -44 tdh.sigproc.overdrive~;
#X text -37 36 tdh.sigproc.seq.filter~;
#X text -37 -24 tdh.sigproc.mmfilt~;
#X text -36 -4 tdh.sigproc.ringmod~;
#X text -37 16 tdh.sigproc.reverb~;
#X text -37 56 tdh.sigproc.multi.tap.delay~;
#X connect 0 0 5 0;
#X connect 1 0 0 0;
#X connect 2 0 3 0;
#X connect 3 0 4 0;
#X connect 3 0 6 0;
#X connect 3 0 10 0;
#X connect 3 0 13 0;
#X connect 3 0 15 0;
#X connect 3 0 32 0;
#X connect 4 0 0 1;
#X connect 4 1 0 2;
#X connect 4 2 0 4;
#X connect 5 0 8 0;
#X connect 6 0 7 0;
#X connect 6 1 5 3;
#X connect 6 2 5 4;
#X connect 7 0 5 2;
#X connect 8 0 11 0;
#X connect 9 0 8 1;
#X connect 10 0 9 0;
#X connect 10 1 8 2;
#X connect 10 2 8 3;
#X connect 11 0 14 0;
#X connect 12 0 11 3;
#X connect 13 0 11 2;
#X connect 13 1 12 0;
#X connect 13 2 11 6;
#X connect 14 0 26 0;
#X connect 14 1 25 0;
#X connect 14 2 25 1;
#X connect 14 3 25 2;
#X connect 14 4 25 3;
#X connect 14 5 25 4;
#X connect 14 6 25 5;
#X connect 14 7 25 6;
#X connect 14 8 25 7;
#X connect 14 9 25 8;
#X connect 14 10 25 9;
#X connect 14 11 25 10;
#X connect 14 12 25 11;
#X connect 14 13 25 12;
#X connect 14 14 25 13;
#X connect 14 15 25 14;
#X connect 14 16 25 15;
#X connect 14 17 25 16;
#X connect 14 18 25 17;
#X connect 14 19 25 18;
#X connect 14 20 25 19;
#X connect 14 21 25 20;
#X connect 14 22 25 21;
#X connect 14 23 25 22;
#X connect 14 24 25 23;
#X connect 15 0 14 1;
#X connect 15 1 16 0;
#X connect 15 2 17 0;
#X connect 15 3 18 0;
#X connect 15 4 19 0;
#X connect 15 5 20 0;
#X connect 15 6 21 0;
#X connect 15 7 22 0;
#X connect 15 8 23 0;
#X connect 15 9 24 0;
#X connect 15 10 14 12;
#X connect 16 0 14 2;
#X connect 17 0 14 4;
#X connect 18 0 14 5;
#X connect 19 0 14 6;
#X connect 20 0 14 7;
#X connect 21 0 14 8;
#X connect 22 0 14 9;
#X connect 23 0 14 10;
#X connect 24 0 14 11;
#X connect 26 0 27 0;
#X connect 26 0 27 1;
#X connect 28 0 26 1;
#X connect 29 0 26 5;
#X connect 30 0 26 3;
#X connect 31 0 26 7;
#X connect 32 0 28 0;
#X connect 32 1 26 2;
#X connect 32 2 30 0;
#X connect 32 3 26 4;
#X connect 32 4 29 0;
#X connect 32 5 26 6;
#X connect 32 6 31 0;
#X connect 32 7 26 8;
#X connect 32 8 26 9;
