#N canvas 27 23 1413 832 10;
#X declare -path dependencies;
#X obj 452 1225 *~;
#N canvas 0 22 450 300 tri~ 0;
#X obj 120 77 phasor~;
#X obj 158 111 *~ -1;
#X obj 158 136 +~ 1;
#X obj 120 177 min~;
#X obj 120 202 *~ 4;
#X obj 120 227 -~ 1;
#X obj 117 256 outlet~;
#X obj 124 41 inlet;
#X connect 0 0 1 0;
#X connect 0 0 3 0;
#X connect 1 0 2 0;
#X connect 2 0 3 1;
#X connect 3 0 4 0;
#X connect 4 0 5 0;
#X connect 5 0 6 0;
#X connect 7 0 0 0;
#X restore -247 1140 pd tri~;
#N canvas 1794 252 450 346 saw~ 0;
#X obj 95 66 phasor~;
#X obj 95 94 *~ 2;
#X obj 95 164 outlet~;
#X obj 95 16 inlet;
#X obj 95 124 +~ -1;
#X connect 0 0 1 0;
#X connect 1 0 4 0;
#X connect 3 0 0 0;
#X connect 4 0 2 0;
#X restore 70 1146 pd saw~;
#N canvas 0 22 450 300 square~ 0;
#X obj 120 45 inlet;
#X obj 127 81 phasor~;
#X obj 171 176 *~ 2;
#X obj 171 201 -~ 1;
#X obj 118 252 outlet~;
#X obj 235 52 inlet;
#X obj 126 124 >~;
#X msg 246 85 \$1 20;
#X obj 246 110 line~;
#X connect 0 0 1 0;
#X connect 1 0 6 0;
#X connect 2 0 3 0;
#X connect 3 0 4 0;
#X connect 5 0 7 0;
#X connect 6 0 2 0;
#X connect 7 0 8 0;
#X connect 8 0 6 1;
#X restore 366 1147 pd square~;
#X floatatom 294 263 5 0.01 0.99 0 - - -, f 5;
#X obj 294 116 vsl 15 128 0.01 1 1 0 empty empty empty 0 -9 0 10 -262144
-1 -1 0 1;
#X msg 294 367 set \$1;
#X msg 294 347 set \$1;
#X obj 499 1068 r \$0-pulse-width_r;
#X obj 163 1177 *~;
#X obj -144 1178 *~;
#X obj 70 1062 r \$0-saw_freq_r;
#X obj 366 1067 r \$0-square_freq_r;
#X obj -247 1061 r \$0-tri_freq_r;
#X floatatom 235 263 9 0.01 0.99 0 - - -, f 9;
#X obj 235 116 vsl 15 128 200 20000 1 0 empty empty empty 0 -9 0 10
-262144 -1 -1 0 1;
#X msg 235 374 set \$1;
#X msg 235 347 set \$1;
#X floatatom 344 263 5 0.01 0.99 0 - - -, f 5;
#X obj 344 116 vsl 15 128 0.01 0.99 0 0 empty empty empty 0 -9 0 10
-262144 -1 -1 0 1;
#X msg 344 374 set \$1;
#X msg 344 347 set \$1;
#X obj 344 485 s \$0-pulse-width_r;
#X obj 294 555 s \$0-square_amp_r;
#X obj 235 455 s \$0-square_freq_r;
#X obj 647 1067 r \$0-square_amp_r;
#X text 294 81 Square Amp, f 6;
#X floatatom 174 263 5 0.01 0.99 0 - - -, f 5;
#X obj 174 116 vsl 15 128 0.01 1 1 0 empty empty empty 0 -9 0 10 -262144
-1 -1 0 1;
#X msg 174 374 set \$1;
#X msg 174 347 set \$1;
#X floatatom 113 263 9 0.01 0.99 0 - - -, f 9;
#X obj 113 116 vsl 15 128 200 20000 1 0 empty empty empty 0 -9 0 10
-262144 -1 -1 0 1;
#X msg 113 374 set \$1;
#X msg 113 347 set \$1;
#X obj 174 555 s \$0-saw_amp_r;
#X obj 113 455 s \$0-saw_freq_r;
#X text 235 81 Square Freq, f 6;
#X text 174 81 Saw Amp, f 3;
#X text 113 81 Saw Freq, f 4;
#X floatatom 51 263 5 0.01 0.99 0 - - -, f 5;
#X obj 51 116 vsl 15 128 0.01 1 1 0 empty empty empty 0 -9 0 10 -262144
-1 -1 0 1;
#X msg 51 374 set \$1;
#X msg 51 347 set \$1;
#X floatatom -8 263 9 0.01 0.99 0 - - -, f 9;
#X obj -8 116 vsl 15 128 200 20000 1 0 empty empty empty 0 -9 0 10
-262144 -1 -1 0 1;
#X msg -8 374 set \$1;
#X msg -8 347 set \$1;
#X obj 51 555 s \$0-tri_amp_r;
#X obj -8 455 s \$0-tri_freq_r;
#X obj -123 1064 r \$0-tri_amp_r;
#X obj 201 1062 r \$0-saw_amp_r;
#X obj -312 1225 +~;
#X floatatom -524 1110 8 0 0 0 - - -, f 8;
#X obj -483 1184 *~;
#X obj -541 1060 r \$0-sin_freq_r;
#X obj -541 1139 osc~;
#X obj -44 1268 +~;
#X obj 233 1319 +~;
#X obj 902 1523 outlet~;
#X obj -417 1059 r \$0-sin_amp_r;
#X floatatom -80 263 5 0.01 0.99 0 - - -, f 5;
#X obj -80 116 vsl 15 128 0.01 1 1 0 empty empty empty 0 -9 0 10 -262144
-1 -1 0 1;
#X msg -80 374 set \$1;
#X msg -80 347 set \$1;
#X floatatom -144 263 9 0.01 0.99 0 - - -, f 9;
#X obj -144 116 vsl 15 128 200 20000 1 0 empty empty empty 0 -9 0 10
-262144 -1 -1 0 1;
#X msg -144 374 set \$1;
#X msg -144 347 set \$1;
#X text -144 81 Sin Freq, f 4;
#X text -80 81 Sin Amp, f 3;
#X text -280 1142 _;
#X text -8 81 Tri Freq, f 4;
#X text 51 81 Tri Amp, f 3;
#X obj -144 -2 inlet;
#X obj -80 -2 inlet;
#X obj -8 -2 inlet;
#X obj 51 -2 inlet;
#X obj 113 -2 inlet;
#X obj 174 -2 inlet;
#X obj 236 -19 inlet;
#X obj 294 -2 inlet;
#X obj 344 -2 inlet;
#X text -266 -59 _;
#X text -161 49 sin f;
#X text -93 49 sin a;
#X text -25 49 tri f;
#X text 43 49 tri a;
#X text 111 49 saw f;
#X text 179 49 saw a;
#X text 247 49 sqr f;
#X text 315 49 sqr a;
#X text 383 49 sqr pw;
#X text -341 378 The code here ("set"s) facillitate setting values
with the numberbox OR the slider -------------------------->, f 28
;
#X text -763 1057 The sliders above send data to the receive objects
here -------------------------->, f 28;
#X text -161 313 out-sig;
#X obj -144 455 s \$0-sin_freq_r;
#X obj -80 555 s \$0-sin_amp_r;
#X text -472 1111 DEBUG;
#X floatatom -397 1144 8 0 0 0 - - -, f 8;
#X text -343 1145 DEBUG;
#X floatatom -230 1114 8 0 0 0 - - -, f 8;
#X text -178 1114 DEBUG;
#X floatatom -116 1116 8 0 0 0 - - -, f 8;
#X text -54 1118 DEBUG;
#X floatatom 91 1112 8 0 0 0 - - -, f 8;
#X text 143 1113 DEBUG;
#X floatatom 216 1118 8 0 0 0 - - -, f 8;
#X text 268 1119 DEBUG;
#X floatatom 392 1118 8 0 0 0 - - -, f 8;
#X text 444 1119 DEBUG;
#X floatatom 543 1100 8 0 0 0 - - -, f 8;
#X text 595 1101 DEBUG;
#X floatatom 675 1121 8 0 0 0 - - -, f 8;
#X text 727 1122 DEBUG;
#X obj 526 -44 declare -path dependencies;
#X obj -541 1086 tdh.util.declick;
#X obj -417 1115 tdh.util.declick;
#X obj -247 1090 tdh.util.declick;
#X obj 70 1088 tdh.util.declick;
#X obj 366 1097 tdh.util.declick;
#X obj 647 1098 tdh.util.declick;
#X obj 499 1124 tdh.util.declick;
#X obj 204 1088 tdh.util.declick;
#X obj -123 1093 tdh.util.declick;
#X obj -239 41 loadbang;
#X msg -239 246 0;
#X msg -193 84 0.5;
#X msg -192 186 20;
#X floatatom 926 1122 8 0 0 0 - - -, f 8;
#X text 978 1123 DEBUG;
#X obj 898 1099 tdh.util.declick;
#X obj 836 1071 noise~;
#X obj 836 1119 *~;
#X obj 629 1394 +~;
#X obj 898 1068 r \$0-whtnoise_amp_r;
#X floatatom 1171 1119 8 0 0 0 - - -, f 8;
#X text 1223 1120 DEBUG;
#X obj 1143 1096 tdh.util.declick;
#X obj 1081 1116 *~;
#X obj 1081 1068 pink~;
#X obj 902 1466 +~;
#X floatatom 421 263 5 0.01 0.99 0 - - -, f 5;
#X obj 421 116 vsl 15 128 0.01 0.99 1 0 empty empty empty 0 -9 0 10
-262144 -1 -1 0 1;
#X msg 421 374 set \$1;
#X msg 421 347 set \$1;
#X obj 421 -2 inlet;
#X obj 421 555 s \$0-whtnoise_amp_r;
#X text 421 81 White Noise Amp, f 9;
#X floatatom 488 263 5 0.01 0.99 0 - - -, f 5;
#X obj 488 116 vsl 15 128 0.01 0.99 1 0 empty empty empty 0 -9 0 10
-262144 -1 -1 0 1;
#X msg 488 374 set \$1;
#X msg 488 347 set \$1;
#X obj 488 -2 inlet;
#X text 488 81 Pink Noise Amp, f 9;
#X obj 488 455 s \$0-pnknoise_amp_r;
#X obj 1143 1065 r \$0-pnknoise_amp_r;
#X obj -417 1086 / 127;
#X text 515 49 pnk a;
#X text 457 49 wht a;
#X text -47 80 |||||||||||||||, f 1;
#X text 88 80 |||||||||||||||, f 1;
#X text 208 80 |||||||||||||||, f 1;
#X text 401 80 |||||||||||||||, f 1;
#X text 344 81 Sqr Pulse Width, f 12;
#X text 123 293 //OSCILLATORS//;
#X obj -80 509 expr if($f1 <= 0.01 \, 0 \, $f1), f 11;
#X obj 51 509 expr if($f1 <= 0.01 \, 0 \, $f1), f 11;
#X obj 174 509 expr if($f1 <= 0.01 \, 0 \, $f1), f 11;
#X obj 294 509 expr if($f1 <= 0.01 \, 0 \, $f1), f 11;
#X obj 421 509 expr if($f1 <= 0.01 \, 0 \, $f1), f 11;
#X obj 488 409 expr if($f1 <= 0.01 \, 0 \, $f1), f 11;
#X connect 0 0 58 1;
#X connect 1 0 10 0;
#X connect 2 0 9 0;
#X connect 3 0 0 0;
#X connect 4 0 6 0;
#X connect 4 0 169 0;
#X connect 5 0 7 0;
#X connect 5 0 169 0;
#X connect 6 0 5 0;
#X connect 7 0 4 0;
#X connect 8 0 111 0;
#X connect 8 0 122 0;
#X connect 9 0 57 1;
#X connect 10 0 52 1;
#X connect 11 0 119 0;
#X connect 12 0 120 0;
#X connect 13 0 118 0;
#X connect 14 0 16 0;
#X connect 14 0 24 0;
#X connect 15 0 17 0;
#X connect 15 0 24 0;
#X connect 16 0 15 0;
#X connect 17 0 14 0;
#X connect 18 0 20 0;
#X connect 18 0 22 0;
#X connect 19 0 21 0;
#X connect 19 0 22 0;
#X connect 20 0 19 0;
#X connect 21 0 18 0;
#X connect 25 0 121 0;
#X connect 27 0 29 0;
#X connect 27 0 168 0;
#X connect 28 0 30 0;
#X connect 28 0 168 0;
#X connect 29 0 28 0;
#X connect 30 0 27 0;
#X connect 31 0 33 0;
#X connect 31 0 36 0;
#X connect 32 0 34 0;
#X connect 32 0 36 0;
#X connect 33 0 32 0;
#X connect 34 0 31 0;
#X connect 40 0 42 0;
#X connect 40 0 167 0;
#X connect 41 0 43 0;
#X connect 41 0 167 0;
#X connect 42 0 41 0;
#X connect 43 0 40 0;
#X connect 44 0 46 0;
#X connect 44 0 49 0;
#X connect 45 0 47 0;
#X connect 45 0 49 0;
#X connect 46 0 45 0;
#X connect 47 0 44 0;
#X connect 50 0 124 0;
#X connect 51 0 123 0;
#X connect 52 0 57 0;
#X connect 54 0 52 0;
#X connect 55 0 116 0;
#X connect 56 0 54 0;
#X connect 57 0 58 0;
#X connect 58 0 134 0;
#X connect 60 0 157 0;
#X connect 61 0 63 0;
#X connect 61 0 166 0;
#X connect 62 0 64 0;
#X connect 62 0 166 0;
#X connect 63 0 62 0;
#X connect 64 0 61 0;
#X connect 65 0 67 0;
#X connect 65 0 96 0;
#X connect 66 0 68 0;
#X connect 66 0 96 0;
#X connect 67 0 66 0;
#X connect 68 0 65 0;
#X connect 74 0 66 0;
#X connect 75 0 62 0;
#X connect 76 0 45 0;
#X connect 77 0 41 0;
#X connect 78 0 32 0;
#X connect 79 0 28 0;
#X connect 80 0 15 0;
#X connect 81 0 5 0;
#X connect 82 0 19 0;
#X connect 116 0 56 0;
#X connect 116 0 53 0;
#X connect 117 0 54 1;
#X connect 117 0 99 0;
#X connect 118 0 1 0;
#X connect 118 0 101 0;
#X connect 119 0 2 0;
#X connect 119 0 105 0;
#X connect 120 0 109 0;
#X connect 120 0 3 0;
#X connect 121 0 113 0;
#X connect 121 0 0 1;
#X connect 122 0 3 1;
#X connect 123 0 107 0;
#X connect 123 0 9 1;
#X connect 124 0 10 1;
#X connect 124 0 103 0;
#X connect 125 0 126 0;
#X connect 125 0 127 0;
#X connect 125 0 128 0;
#X connect 126 0 61 0;
#X connect 126 0 40 0;
#X connect 126 0 27 0;
#X connect 126 0 4 0;
#X connect 126 0 142 0;
#X connect 126 0 149 0;
#X connect 127 0 18 0;
#X connect 128 0 65 0;
#X connect 128 0 44 0;
#X connect 128 0 31 0;
#X connect 128 0 14 0;
#X connect 131 0 129 0;
#X connect 131 0 133 1;
#X connect 132 0 133 0;
#X connect 133 0 134 1;
#X connect 134 0 141 0;
#X connect 135 0 131 0;
#X connect 138 0 136 0;
#X connect 138 0 139 1;
#X connect 139 0 141 1;
#X connect 140 0 139 0;
#X connect 141 0 59 0;
#X connect 142 0 144 0;
#X connect 142 0 170 0;
#X connect 143 0 145 0;
#X connect 143 0 170 0;
#X connect 144 0 143 0;
#X connect 145 0 142 0;
#X connect 146 0 143 0;
#X connect 149 0 151 0;
#X connect 149 0 171 0;
#X connect 150 0 152 0;
#X connect 150 0 171 0;
#X connect 151 0 150 0;
#X connect 152 0 149 0;
#X connect 153 0 150 0;
#X connect 156 0 138 0;
#X connect 157 0 117 0;
#X connect 166 0 97 0;
#X connect 166 0 63 0;
#X connect 167 0 48 0;
#X connect 167 0 42 0;
#X connect 168 0 35 0;
#X connect 169 0 23 0;
#X connect 169 0 6 0;
#X connect 170 0 147 0;
#X connect 170 0 144 0;
#X connect 171 0 155 0;
#X connect 171 0 151 0;
#X coords 0 -1 1 1 714 284 2 -162 48;
