#N canvas 116 81 582 549 10;
#X obj 101 122 tgl 15 0 empty empty empty 17 7 0 10 -262144 -1 -1 1
1;
#X msg 101 190 \; pd dsp \$1;
#X text 119 122 DSP On/Off;
#X obj 279 104 inlet~;
#X text 11 -61 Travis Houldcroft / thouldcroft@gmail.com / travishouldcroft.com
, f 65;
#X text 11 -4 EXTERNAL DEVELOPER'S NOTE: You may edit and adapt this
code AS LONG AS any distribution of the modified code is done with
a new \, unique title AND some small attribution to the original author(s)
is made.;
#X text 11 66 TO DO: Comments \, help file;
#X text 100 100 Ch1 In;
#X text 208 100 Ch2 In;
#X obj 324 104 inlet~;
#X obj 279 178 dac~ 1 2;
#X text 11 -126 //// SOUND ART TOOLKIT /////////////////////////////////////////////////////////////////
, f 89;
#X text 11 -98 OUTPUT - A DAC output plus DSP toggle in a single module
;
#X text 11 -82 tdh.satk.output~.pd;
#X text 119 143 // AUDIO OUTPUT //;
#X connect 0 0 1 0;
#X connect 3 0 10 0;
#X connect 9 0 10 1;
#X coords 0 -1 1 1 158 60 2 100 100;
