#N canvas 27 23 1413 832 10;
#X declare -path dependencies;
#X obj 452 1225 *~;
#N canvas 0 22 450 300 tri~ 0;
#X obj 120 77 phasor~;
#X obj 158 111 *~ -1;
#X obj 158 136 +~ 1;
#X obj 120 177 min~;
#X obj 120 202 *~ 4;
#X obj 120 227 -~ 1;
#X obj 117 256 outlet~;
#X obj 124 41 inlet;
#X connect 0 0 1 0;
#X connect 0 0 3 0;
#X connect 1 0 2 0;
#X connect 2 0 3 1;
#X connect 3 0 4 0;
#X connect 4 0 5 0;
#X connect 5 0 6 0;
#X connect 7 0 0 0;
#X restore -439 1038 pd tri~;
#N canvas 1794 252 450 346 saw~ 0;
#X obj 95 66 phasor~;
#X obj 95 94 *~ 2;
#X obj 95 164 outlet~;
#X obj 95 16 inlet;
#X obj 95 124 +~ -1;
#X connect 0 0 1 0;
#X connect 1 0 4 0;
#X connect 3 0 0 0;
#X connect 4 0 2 0;
#X restore 70 1146 pd saw~;
#N canvas 0 22 450 300 square~ 0;
#X obj 120 45 inlet;
#X obj 127 81 phasor~;
#X obj 171 176 *~ 2;
#X obj 171 201 -~ 1;
#X obj 118 252 outlet~;
#X obj 235 52 inlet;
#X obj 126 124 >~;
#X msg 246 85 \$1 20;
#X obj 246 110 line~;
#X connect 0 0 1 0;
#X connect 1 0 6 0;
#X connect 2 0 3 0;
#X connect 3 0 4 0;
#X connect 5 0 7 0;
#X connect 6 0 2 0;
#X connect 7 0 8 0;
#X connect 8 0 6 1;
#X restore 366 1147 pd square~;
#X floatatom 434 263 5 0.01 0.99 0 - - -, f 5;
#X obj 434 116 vsl 15 128 0.01 1 1 0 empty empty empty 0 -9 0 10 -262144
-1 -1 0 1;
#X msg 434 367 set \$1;
#X msg 434 347 set \$1;
#X obj 499 1068 r \$0-pulse-width_r;
#X obj 163 1177 *~;
#X obj 387 945 *~;
#X obj 70 1062 r \$0-saw_freq_r;
#X obj 366 1067 r \$0-square_freq_r;
#X obj -439 959 r \$0-tri_freq_r;
#X floatatom 375 263 9 0.01 0.99 0 - - -, f 9;
#X obj 375 116 vsl 15 128 20 20000 1 0 empty empty empty 0 -9 0 10
-262144 -1 -1 0 1;
#X msg 375 374 set \$1;
#X msg 375 347 set \$1;
#X floatatom -36 263 5 0.01 0.99 0 - - -, f 5;
#X obj -36 116 vsl 15 128 0.01 0.99 0 0 empty empty empty 0 -9 0 10
-262144 -1 -1 6350 1;
#X msg -36 374 set \$1;
#X msg -36 347 set \$1;
#X obj 647 1067 r \$0-square_amp_r;
#X floatatom 254 263 5 0.01 0.99 0 - - -, f 5;
#X obj 254 116 vsl 15 128 0.01 1 1 0 empty empty empty 0 -9 0 10 -262144
-1 -1 0 1;
#X msg 254 374 set \$1;
#X msg 254 347 set \$1;
#X floatatom 193 263 9 0.01 0.99 0 - - -, f 9;
#X obj 193 116 vsl 15 128 20 20000 1 0 empty empty empty 0 -9 0 10
-262144 -1 -1 0 1;
#X msg 193 374 set \$1;
#X msg 193 347 set \$1;
#X floatatom 91 263 5 0.01 0.99 0 - - -, f 5;
#X obj 91 116 vsl 15 128 0.01 1 1 0 empty empty empty 0 -9 0 10 -262144
-1 -1 0 1;
#X msg 91 374 set \$1;
#X msg 91 347 set \$1;
#X floatatom 32 263 9 0.01 0.99 0 - - -, f 9;
#X obj 32 116 vsl 15 128 20 20000 1 0 empty empty empty 0 -9 0 10 -262144
-1 -1 0 1;
#X msg 32 374 set \$1;
#X msg 32 347 set \$1;
#X obj 408 831 r \$0-tri_amp_r;
#X obj 201 1062 r \$0-saw_amp_r;
#X obj -312 1225 +~;
#X floatatom -544 1010 8 0 0 1 DEBUG - -, f 8;
#X obj -565 1171 *~;
#X obj -561 960 r \$0-sin_freq_r;
#X obj -561 1039 osc~;
#X obj -44 1268 +~;
#X obj 233 1319 +~;
#X obj 902 1523 outlet~;
#X floatatom -80 263 5 0.01 0.99 0 - - -, f 5;
#X obj -80 116 vsl 15 128 0.01 1 1 0 empty empty empty 0 -9 0 10 -262144
-1 -1 0 1;
#X msg -80 374 set \$1;
#X msg -80 347 set \$1;
#X floatatom -144 263 9 0.01 0.99 0 - - -, f 9;
#X obj -144 116 vsl 15 128 20 20000 1 0 empty empty empty 0 -9 0 10
-262144 -1 -1 0 1;
#X msg -144 374 set \$1;
#X msg -144 347 set \$1;
#X obj -144 -2 inlet;
#X obj -80 -2 inlet;
#X obj 32 -2 inlet;
#X obj 91 -2 inlet;
#X obj 193 -2 inlet;
#X obj 254 -2 inlet;
#X obj 375 -2 inlet;
#X obj 434 -2 inlet;
#X obj 484 -2 inlet;
#X text -266 -59 _;
#X text -161 49 sin f;
#X text -93 49 sin a;
#X text 15 49 tri f;
#X text 83 49 tri a;
#X text 191 49 saw f;
#X text 259 49 saw a;
#X text 387 49 sqr f;
#X text 455 49 sqr a;
#X text 523 49 sqr pw;
#X text -721 393 The code here ("set"s) facillitate setting values
with the numberbox OR the slider -------------------------->, f 28
;
#X text -763 1057 The sliders above send data to the receive objects
here -------------------------->, f 28;
#X text -161 313 out-sig;
#X floatatom -422 1012 8 0 0 0 - - -, f 8;
#X text -370 1012 DEBUG;
#X floatatom 415 883 8 0 0 0 - - -, f 8;
#X text 477 885 DEBUG;
#X floatatom 91 1112 8 0 0 0 - - -, f 8;
#X text 143 1113 DEBUG;
#X floatatom 216 1118 8 0 0 0 - - -, f 8;
#X text 268 1119 DEBUG;
#X floatatom 392 1118 8 0 0 0 - - -, f 8;
#X text 444 1119 DEBUG;
#X floatatom 543 1100 8 0 0 0 - - -, f 8;
#X text 595 1101 DEBUG;
#X floatatom 675 1121 8 0 0 0 - - -, f 8;
#X text 727 1122 DEBUG;
#X obj 548 -2 declare -path dependencies;
#X obj -561 986 tdh.util.declick;
#X obj -439 988 tdh.util.declick;
#X obj 70 1088 tdh.util.declick;
#X obj 366 1097 tdh.util.declick;
#X obj 647 1098 tdh.util.declick;
#X obj 499 1124 tdh.util.declick;
#X obj 204 1088 tdh.util.declick;
#X obj 408 860 tdh.util.declick;
#X obj -239 41 loadbang;
#X msg -239 246 0;
#X msg -193 84 0.5;
#X msg -192 186 20;
#X floatatom 926 1122 8 0 0 0 - - -, f 8;
#X text 978 1123 DEBUG;
#X obj 898 1099 tdh.util.declick;
#X obj 836 1071 noise~;
#X obj 836 1119 *~;
#X obj 629 1394 +~;
#X obj 898 1068 r \$0-whtnoise_amp_r;
#X floatatom 1171 1119 8 0 0 0 - - -, f 8;
#X text 1223 1120 DEBUG;
#X obj 1143 1096 tdh.util.declick;
#X obj 1081 1116 *~;
#X obj 1081 1068 pink~;
#X obj 902 1466 +~;
#X floatatom 664 319 5 0.01 0.99 0 - - -, f 5;
#X obj 664 172 vsl 15 128 0.01 0.99 1 0 empty empty empty 0 -9 0 10
-262144 -1 -1 0 1;
#X msg 664 430 set \$1;
#X msg 664 403 set \$1;
#X obj 664 611 s \$0-whtnoise_amp_r;
#X text 664 137 White Noise Amp, f 9;
#X floatatom 731 319 5 0.01 0.99 0 - - -, f 5;
#X obj 731 172 vsl 15 128 0.01 0.99 1 0 empty empty empty 0 -9 0 10
-262144 -1 -1 0 1;
#X msg 731 430 set \$1;
#X msg 731 403 set \$1;
#X text 731 137 Pink Noise Amp, f 9;
#X obj 731 511 s \$0-pnknoise_amp_r;
#X obj 1143 1065 r \$0-pnknoise_amp_r;
#X text 635 49 pnk a;
#X text 577 49 wht a;
#X text 3 80 |||||||||||||||, f 1;
#X text 174 80 |||||||||||||||, f 1;
#X text 348 80 |||||||||||||||, f 1;
#X text -435 82 //OSCILLATORS//;
#X obj -80 509 expr if($f1 <= 0.02 \, 0 \, $f1), f 11;
#X obj 254 509 expr if($f1 <= 0.02 \, 0 \, $f1), f 11;
#X obj 434 509 expr if($f1 <= 0.02 \, 0 \, $f1), f 11;
#X obj 664 565 expr if($f1 <= 0.02 \, 0 \, $f1), f 11;
#X obj 731 465 expr if($f1 <= 0.02 \, 0 \, $f1), f 11;
#X obj 91 509 expr if($f1 <= 0.02 \, 0 \, $f1), f 11;
#X text -148 81 Osc1 Freq, f 4;
#X text -85 81 Osc1 Amp, f 4;
#X text 27 81 Osc2 Freq, f 4;
#X text 87 81 Osc2 Amp, f 4;
#X text 188 81 Osc3 Freq, f 4;
#X text 249 81 Osc3 Amp, f 4;
#X text 370 81 Osc4 Freq, f 6;
#X text 429 81 Osc4 Amp, f 6;
#X obj 375 455 s \$0-osc4-freq_r;
#X obj 434 555 s \$0-osc4-amp_r;
#X obj 254 555 s \$0-osc3-amp_r;
#X obj 91 555 s \$0-osc2-amp_r;
#X obj -80 555 s \$0-osc1-amp_r;
#X obj -145 455 s \$0-osc1-freq_r;
#X obj 32 455 s \$0-osc2-freq_r;
#X obj 193 455 s \$0-osc3-freq_r;
#X obj -36 485 s \$0-osc1-pw_r;
#X text -40 81 Osc1 PW, f 4;
#X floatatom 301 263 5 0.01 0.99 0 - - -, f 5;
#X obj 301 116 vsl 15 128 0.01 0.99 0 0 empty empty empty 0 -9 0 10
-262144 -1 -1 0 1;
#X msg 301 374 set \$1;
#X msg 301 347 set \$1;
#X floatatom 137 262 5 0.01 0.99 0 - - -, f 5;
#X obj 137 115 vsl 15 128 0.01 0.99 0 0 empty empty empty 0 -9 0 10
-262144 -1 -1 0 1;
#X msg 137 373 set \$1;
#X msg 137 346 set \$1;
#X floatatom 481 263 5 0.01 0.99 0 - - -, f 5;
#X obj 481 116 vsl 15 128 0.01 0.99 0 0 empty empty empty 0 -9 0 10
-262144 -1 -1 0 1;
#X msg 481 374 set \$1;
#X msg 481 347 set \$1;
#X text 133 81 Osc2 PW, f 4;
#X obj 137 484 s \$0-osc2-pw_r;
#X text 295 81 Osc3 PW, f 4;
#X obj 301 485 s \$0-osc3-pw_r;
#X text 475 81 Osc4 PW, f 4;
#X obj 481 485 s \$0-osc4-pw_r;
#N canvas 1794 252 450 346 saw~ 0;
#X obj 95 66 phasor~;
#X obj 95 94 *~ 2;
#X obj 95 164 outlet~;
#X obj 95 16 inlet;
#X obj 95 124 +~ -1;
#X connect 0 0 1 0;
#X connect 1 0 4 0;
#X connect 3 0 0 0;
#X connect 4 0 2 0;
#X restore -317 1041 pd saw~;
#X obj -317 957 r \$0-saw_freq_r;
#X floatatom -296 1007 8 0 0 0 - - -, f 8;
#X text -244 1008 DEBUG;
#X obj -317 983 tdh.util.declick;
#N canvas 0 22 450 300 square~ 0;
#X obj 120 45 inlet;
#X obj 127 81 phasor~;
#X obj 171 176 *~ 2;
#X obj 171 201 -~ 1;
#X obj 118 252 outlet~;
#X obj 235 52 inlet;
#X obj 126 124 >~;
#X msg 246 85 \$1 20;
#X obj 246 110 line~;
#X connect 0 0 1 0;
#X connect 1 0 6 0;
#X connect 2 0 3 0;
#X connect 3 0 4 0;
#X connect 5 0 7 0;
#X connect 6 0 2 0;
#X connect 7 0 8 0;
#X connect 8 0 6 1;
#X restore -186 1036 pd square~;
#X obj -186 956 r \$0-square_freq_r;
#X floatatom -160 1007 8 0 0 0 - - -, f 8;
#X text -108 1008 DEBUG;
#X obj -186 986 tdh.util.declick;
#X obj -51 954 noise~;
#X obj -51 1002 *~;
#X obj 1 1007 *~;
#X obj 1 959 pink~;
#X connect 0 0 47 1;
#X connect 2 0 9 0;
#X connect 3 0 0 0;
#X connect 4 0 6 0;
#X connect 4 0 140 0;
#X connect 5 0 7 0;
#X connect 5 0 140 0;
#X connect 6 0 5 0;
#X connect 7 0 4 0;
#X connect 8 0 89 0;
#X connect 8 0 99 0;
#X connect 9 0 46 1;
#X connect 11 0 96 0;
#X connect 12 0 97 0;
#X connect 13 0 95 0;
#X connect 14 0 16 0;
#X connect 14 0 152 0;
#X connect 15 0 17 0;
#X connect 15 0 152 0;
#X connect 16 0 15 0;
#X connect 17 0 14 0;
#X connect 18 0 20 0;
#X connect 18 0 160 0;
#X connect 19 0 21 0;
#X connect 19 0 160 0;
#X connect 20 0 19 0;
#X connect 21 0 18 0;
#X connect 22 0 98 0;
#X connect 23 0 25 0;
#X connect 23 0 139 0;
#X connect 24 0 26 0;
#X connect 24 0 139 0;
#X connect 25 0 24 0;
#X connect 26 0 23 0;
#X connect 27 0 29 0;
#X connect 27 0 159 0;
#X connect 28 0 30 0;
#X connect 28 0 159 0;
#X connect 29 0 28 0;
#X connect 30 0 27 0;
#X connect 31 0 33 0;
#X connect 31 0 143 0;
#X connect 32 0 34 0;
#X connect 32 0 143 0;
#X connect 33 0 32 0;
#X connect 34 0 31 0;
#X connect 35 0 37 0;
#X connect 35 0 158 0;
#X connect 36 0 38 0;
#X connect 36 0 158 0;
#X connect 37 0 36 0;
#X connect 38 0 35 0;
#X connect 39 0 101 0;
#X connect 40 0 100 0;
#X connect 41 0 46 0;
#X connect 43 0 41 0;
#X connect 44 0 94 0;
#X connect 46 0 47 0;
#X connect 47 0 111 0;
#X connect 49 0 51 0;
#X connect 49 0 138 0;
#X connect 50 0 52 0;
#X connect 50 0 138 0;
#X connect 51 0 50 0;
#X connect 52 0 49 0;
#X connect 53 0 55 0;
#X connect 53 0 157 0;
#X connect 54 0 56 0;
#X connect 54 0 157 0;
#X connect 55 0 54 0;
#X connect 56 0 53 0;
#X connect 57 0 54 0;
#X connect 58 0 50 0;
#X connect 59 0 36 0;
#X connect 60 0 32 0;
#X connect 61 0 28 0;
#X connect 62 0 24 0;
#X connect 63 0 15 0;
#X connect 64 0 5 0;
#X connect 94 0 45 0;
#X connect 94 0 42 0;
#X connect 95 0 1 0;
#X connect 95 0 79 0;
#X connect 96 0 2 0;
#X connect 96 0 83 0;
#X connect 97 0 87 0;
#X connect 97 0 3 0;
#X connect 98 0 91 0;
#X connect 98 0 0 1;
#X connect 99 0 3 1;
#X connect 100 0 85 0;
#X connect 100 0 9 1;
#X connect 101 0 10 1;
#X connect 101 0 81 0;
#X connect 102 0 103 0;
#X connect 102 0 104 0;
#X connect 102 0 105 0;
#X connect 103 0 49 0;
#X connect 103 0 31 0;
#X connect 103 0 23 0;
#X connect 103 0 4 0;
#X connect 104 0 18 0;
#X connect 105 0 53 0;
#X connect 105 0 35 0;
#X connect 105 0 27 0;
#X connect 105 0 14 0;
#X connect 108 0 106 0;
#X connect 108 0 110 1;
#X connect 109 0 110 0;
#X connect 110 0 111 1;
#X connect 111 0 118 0;
#X connect 112 0 108 0;
#X connect 115 0 113 0;
#X connect 115 0 116 1;
#X connect 116 0 118 1;
#X connect 117 0 116 0;
#X connect 118 0 48 0;
#X connect 119 0 121 0;
#X connect 119 0 141 0;
#X connect 120 0 122 0;
#X connect 120 0 141 0;
#X connect 121 0 120 0;
#X connect 122 0 119 0;
#X connect 125 0 127 0;
#X connect 125 0 142 0;
#X connect 126 0 128 0;
#X connect 126 0 142 0;
#X connect 127 0 126 0;
#X connect 128 0 125 0;
#X connect 131 0 115 0;
#X connect 138 0 51 0;
#X connect 138 0 156 0;
#X connect 139 0 154 0;
#X connect 140 0 6 0;
#X connect 140 0 153 0;
#X connect 141 0 123 0;
#X connect 141 0 121 0;
#X connect 142 0 130 0;
#X connect 142 0 127 0;
#X connect 143 0 33 0;
#X connect 143 0 155 0;
#X connect 162 0 164 0;
#X connect 162 0 177 0;
#X connect 163 0 165 0;
#X connect 163 0 177 0;
#X connect 164 0 163 0;
#X connect 165 0 162 0;
#X connect 166 0 168 0;
#X connect 166 0 175 0;
#X connect 167 0 169 0;
#X connect 167 0 175 0;
#X connect 168 0 167 0;
#X connect 169 0 166 0;
#X connect 170 0 172 0;
#X connect 170 0 179 0;
#X connect 171 0 173 0;
#X connect 171 0 179 0;
#X connect 172 0 171 0;
#X connect 173 0 170 0;
#X connect 181 0 184 0;
#X connect 184 0 180 0;
#X connect 184 0 182 0;
#X connect 186 0 189 0;
#X connect 189 0 187 0;
#X connect 189 0 185 0;
#X connect 190 0 191 0;
#X connect 193 0 192 0;
#X coords 0 -1 1 1 714 284 2 -162 48;
