#N canvas 223 180 963 505 10;
#X floatatom 497 279 5 0 0 0 - - -, f 5;
#X floatatom 580 279 5 0 0 0 - - -, f 5;
#X obj 43 99 key;
#X obj 42 161 keyup;
#X obj 40 219 keyname;
#X floatatom 43 129 5 0 0 0 - - -, f 5;
#X floatatom 42 191 5 0 0 0 - - -, f 5;
#X floatatom 40 249 5 0 0 0 - - -, f 5;
#X symbolatom 82 249 10 0 0 0 - - -, f 10;
#X text 554 1 Mouse Input;
#X text 530 278 x pos;
#X text 615 278 y pos;
#X obj 432 279 tgl 15 0 empty empty empty 17 7 0 10 -262144 -1 -1 0
1;
#X text 78 7 Keyboard Input;
#X text 102 95 ASCII code of key down;
#X text 99 158 ascii code of key press up;
#X text 113 216 key press status (0/1) and name (symbol);
#X obj 431 203 cyclone/mousestate;
#X text 450 278 click;
#X msg 432 108 poll;
#X msg 432 137 nopoll;
#X msg 634 162 mode \$1;
#X obj 634 106 vradio 15 1 0 3 empty empty empty 0 -8 0 10 -228856
-1 -1 1;
#X text 657 105 mode 0: screen relative;
#X text 657 120 mode 1: patch relative;
#X text 657 135 mode 2: front-most patch relative;
#X text 629 39 Polling Modes;
#X text 26 -161 by Travis Houldcroft / travishouldcroft.com;
#X text 26 -138 tdh.demo.kb.mouse.input.pd;
#X text 26 -115 v0.1.1 2018;
#X text 26 -92 This demonstration patch illustrates how to get input
data from the typing keyboard and the mouse.;
#X text 26 -184 Keyboard and Mouse Input Demostration;
#X text 26 -52 **NOTE** this patch requires the CYCLONE library \,
as there is no native Pd object for polling mouse movement. CYCLONE
can be installed using the Dekken tool (Help>Find Externals);
#X floatatom 677 279 5 0 0 0 - - -, f 5;
#X floatatom 810 279 5 0 0 0 - - -, f 5;
#X text 710 272 delta (change) in x pos, f 14;
#X text 845 272 delta (change) in y pos, f 14;
#X obj 524 107 tgl 15 0 empty empty empty 17 7 0 10 -262144 -1 -1 0
1;
#X obj 524 127 metro 250;
#X text 429 42 Polling On/Off;
#X text 427 57 (Using metro gives you control over how often the position
is polled), f 24;
#X connect 2 0 5 0;
#X connect 3 0 6 0;
#X connect 4 0 7 0;
#X connect 4 1 8 0;
#X connect 17 0 12 0;
#X connect 17 1 0 0;
#X connect 17 2 1 0;
#X connect 17 3 33 0;
#X connect 17 4 34 0;
#X connect 19 0 17 0;
#X connect 20 0 17 0;
#X connect 21 0 17 0;
#X connect 22 0 21 0;
#X connect 37 0 38 0;
#X connect 38 0 17 0;
