#N canvas 79 41 787 582 10;
#N canvas 25 23 1415 855 blip_synth 0;
#X obj 237 -519 phasor~;
#X obj 237 -497 *~ 2;
#X obj 237 -475 -~ 1;
#X obj 237 -273 *~;
#X text 295 -504 <-- builds a bipolar sawtooth wave from the unipolar
[phasor~], f 23;
#X obj 447 -686 inlet;
#X text 496 -685 frequency;
#X obj 650 -683 inlet;
#X text 695 -685 note duration;
#X obj 599 -574 float 250;
#X text 444 -582 trigger note duration-->;
#X text 662 -579 <-- store note duration;
#X obj 548 -423 delay 250;
#X obj 449 -501 trigger bang bang;
#X text 617 -423 we delay this bang by the note duration \, because
this bang triggers the decay portion of the amplitude envelope;
#X text 300 -379 starts the note envelope;
#X obj 1167 -670 inlet;
#X text 76 -537 set oscillator frequency-->;
#X obj 447 -639 trigger bang bang float bang;
#X obj 314 -312 line~;
#X text 633 -638 <-- first triggered bang silences the oscillator \,
otherwise if you sent a frequency before the note was done playing
\, you would get a change in frequency;
#X obj 237 -227 *~;
#X text 274 -229 volume;
#X text 271 -271 envelope;
#X obj 237 -166 outlet~;
#X msg 549 -379 0 50;
#X msg 450 -380 0 \, 0.8 50;
#X connect 0 0 1 0;
#X connect 1 0 2 0;
#X connect 2 0 3 0;
#X connect 3 0 21 0;
#X connect 5 0 18 0;
#X connect 7 0 9 1;
#X connect 9 0 12 1;
#X connect 12 0 25 0;
#X connect 13 0 26 0;
#X connect 13 1 12 0;
#X connect 16 0 21 1;
#X connect 18 0 13 0;
#X connect 18 1 9 0;
#X connect 18 2 0 0;
#X connect 18 3 25 0;
#X connect 19 0 3 1;
#X connect 21 0 24 0;
#X connect 25 0 19 0;
#X connect 26 0 19 0;
#X restore 158 216 pd blip_synth;
#X obj 158 262 dac~ 1 2;
#X text 374 220 Inlet;
#X text 445 220 Message;
#X text 374 242 0;
#X text 445 242 A frequency value for the note;
#X text 374 262 1;
#X text 374 282 2;
#X text 372 183 [blip_synth] inlets:;
#X text 445 262 Note duration in ms;
#X text 445 282 Volume (0.0-1.0);
#X connect 0 0 1 0;
#X connect 0 0 1 1;
