#N canvas 2178 57 1053 822 10;
#X obj 166 284 tgl 15 0 empty empty empty 17 7 0 10 -262144 -1 -1 0
1;
#X obj 166 306 metro;
#X obj 107 137 bng 15 250 50 0 empty empty empty 17 7 0 10 -262144
-1 -1;
#X obj 107 157 openpanel;
#X msg 107 178 read -resize \$1 sound1;
#X obj 101 520 tabplay~ sound1;
#X floatatom 193 282 5 0 0 0 - - -;
#N canvas 26 23 642 346 counter 0;
#X obj 28 276 outlet;
#X obj 28 200 % 8;
#X obj 84 151 + 1;
#X floatatom 28 240 5 0 0 0 - - -;
#X obj 28 150 float 0;
#X obj 178 24 inlet;
#X obj 178 61 t f b;
#X msg 204 85 0;
#X obj 31 23 inlet;
#X obj 28 90 bng 15 250 50 0 empty empty empty 17 7 0 10 -262144 -1
-1;
#X text 70 23 "bang" to count;
#X text 223 23 Set the count max (and also restart the count to 0)
;
#X text 119 152 store and increment number;
#X connect 1 0 3 0;
#X connect 2 0 4 1;
#X connect 3 0 0 0;
#X connect 4 0 2 0;
#X connect 4 0 1 0;
#X connect 5 0 6 0;
#X connect 6 0 1 1;
#X connect 6 1 7 0;
#X connect 7 0 4 1;
#X connect 8 0 9 0;
#X connect 9 0 4 0;
#X restore 161 344 pd counter;
#X floatatom 161 370 5 0 0 0 - - -;
#X obj 102 700 dac~ 1 2;
#X obj 172 397 select 0 1 2 3 4 5 6 7;
#X obj 107 201 soundfiler sound1;
#X obj 282 137 bng 15 250 50 0 empty empty empty 17 7 0 10 -262144
-1 -1;
#X obj 282 157 openpanel;
#X obj 447 137 bng 15 250 50 0 empty empty empty 17 7 0 10 -262144
-1 -1;
#X obj 447 157 openpanel;
#X obj 616 141 bng 15 250 50 0 empty empty empty 17 7 0 10 -262144
-1 -1;
#X obj 616 161 openpanel;
#N canvas 0 22 450 278 (subpatch) 0;
#X array sound1 2641 float 2;
#X coords 0 1 2641 -1 200 140 1;
#X restore 96 -24 graph;
#N canvas 0 22 450 278 (subpatch) 0;
#X array sound2 4393 float 2;
#X coords 0 1 4393 -1 200 140 1;
#X restore 325 -26 graph;
#N canvas 0 22 450 278 (subpatch) 0;
#X array sound3 718 float 2;
#X coords 0 1 718 -1 200 140 1;
#X restore 556 -26 graph;
#N canvas 0 22 450 278 (subpatch) 0;
#X array sound4 10197 float 2;
#X coords 0 1 10197 -1 200 140 1;
#X restore 784 -27 graph;
#X obj 245 522 tabplay~ sound2;
#X obj 377 527 tabplay~ sound3;
#X obj 496 527 tabplay~ sound4;
#X msg 282 178 read -resize \$1 sound2;
#X obj 282 202 soundfiler sound2;
#X msg 447 178 read -resize \$1 sound3;
#X obj 447 201 soundfiler sound3;
#X msg 616 182 read -resize \$1 sound4;
#X obj 616 205 soundfiler sound4;
#X connect 0 0 1 0;
#X connect 1 0 7 0;
#X connect 2 0 3 0;
#X connect 3 0 4 0;
#X connect 4 0 11 0;
#X connect 5 0 9 0;
#X connect 5 0 9 1;
#X connect 6 0 1 1;
#X connect 7 0 8 0;
#X connect 8 0 10 0;
#X connect 10 0 5 0;
#X connect 10 1 22 0;
#X connect 10 2 5 0;
#X connect 10 3 5 0;
#X connect 10 4 22 0;
#X connect 10 4 24 0;
#X connect 10 5 23 0;
#X connect 10 6 5 0;
#X connect 10 7 24 0;
#X connect 12 0 13 0;
#X connect 13 0 25 0;
#X connect 14 0 15 0;
#X connect 15 0 27 0;
#X connect 16 0 17 0;
#X connect 17 0 29 0;
#X connect 22 0 9 0;
#X connect 22 0 9 1;
#X connect 23 0 9 0;
#X connect 23 0 9 1;
#X connect 24 0 9 0;
#X connect 24 0 9 1;
#X connect 25 0 26 0;
#X connect 27 0 28 0;
#X connect 29 0 30 0;
