#N canvas 152 88 1148 511 10;
#X obj 69 190 pduino/arduino;
#N canvas 149 139 816 425 sensor_input 0;
#X obj 37 37 inlet;
#X obj 162 34 inlet;
#X obj 162 59 tgl 15 0 empty empty empty 17 7 0 10 -262144 -1 -1 0
1;
#X obj 37 97 spigot 0;
#X obj 37 139 route analog;
#X obj 37 181 route 0 1 2 3 4 5 6 7, f 107;
#N canvas 287 105 450 300 display 0;
#X obj 6 7 inlet;
#X obj 6 28 mapping/resample 100;
#X obj 6 50 outlet;
#X obj 54 50 inlet;
#X obj 54 71 mapping/resample 100;
#X obj 54 93 outlet;
#X obj 103 93 inlet;
#X obj 103 114 mapping/resample 100;
#X obj 103 136 outlet;
#X obj 151 136 inlet;
#X obj 151 157 mapping/resample 100;
#X obj 151 179 outlet;
#X obj 200 179 inlet;
#X obj 200 200 mapping/resample 100;
#X obj 200 222 outlet;
#X obj 247 222 inlet;
#X obj 247 243 mapping/resample 100;
#X obj 247 265 outlet;
#X obj 295 265 inlet;
#X obj 295 286 mapping/resample 100;
#X obj 295 308 outlet;
#X obj 345 308 inlet;
#X obj 345 329 mapping/resample 100;
#X obj 345 351 outlet, f 94;
#X connect 0 0 1 0;
#X connect 1 0 2 0;
#X connect 3 0 4 0;
#X connect 4 0 5 0;
#X connect 6 0 7 0;
#X connect 7 0 8 0;
#X connect 9 0 10 0;
#X connect 10 0 11 0;
#X connect 12 0 13 0;
#X connect 13 0 14 0;
#X connect 15 0 16 0;
#X connect 16 0 17 0;
#X connect 18 0 19 0;
#X connect 19 0 20 0;
#X connect 21 0 22 0;
#X connect 22 0 23 0;
#X restore 37 223 pd display;
#X text 213 34 <- Turn analog stream on/off;
#X text 450 373 Note: This subpatch is copied almost entirely from
the pduino/arduino help file \, with some very minor editing \, mainly
just the name of the display subpatch.;
#X floatatom 37 285 5 0 0 0 - - -, f 5;
#X text 71 286 a0;
#X floatatom 117 284 5 0 0 0 - - -, f 5;
#X floatatom 197 285 5 0 0 0 - - -, f 5;
#X floatatom 277 285 5 0 0 0 - - -, f 5;
#X floatatom 357 285 5 0 0 0 - - -, f 5;
#X floatatom 437 285 5 0 0 0 - - -, f 5;
#X floatatom 517 285 5 0 0 0 - - -, f 5;
#X floatatom 597 285 5 0 0 0 - - -, f 5;
#X text 151 286 a1;
#X text 231 286 a2;
#X text 311 286 a3;
#X text 391 286 a4;
#X text 471 286 a5;
#X text 551 286 a6;
#X text 631 286 a7;
#X obj 37 344 outlet;
#X obj 117 343 outlet;
#X obj 197 344 outlet;
#X obj 277 344 outlet;
#X obj 357 344 outlet;
#X obj 437 344 outlet;
#X obj 517 344 outlet;
#X obj 597 344 outlet, f 141;
#X connect 0 0 3 0;
#X connect 1 0 2 0;
#X connect 2 0 3 1;
#X connect 3 0 4 0;
#X connect 4 0 5 0;
#X connect 5 0 6 0;
#X connect 5 1 6 1;
#X connect 5 2 6 2;
#X connect 5 3 6 3;
#X connect 5 4 6 4;
#X connect 5 5 6 5;
#X connect 5 6 6 6;
#X connect 5 7 6 7;
#X connect 6 0 9 0;
#X connect 6 1 11 0;
#X connect 6 2 12 0;
#X connect 6 3 13 0;
#X connect 6 4 14 0;
#X connect 6 5 15 0;
#X connect 6 6 16 0;
#X connect 6 7 17 0;
#X connect 9 0 25 0;
#X connect 11 0 26 0;
#X connect 12 0 27 0;
#X connect 13 0 28 0;
#X connect 14 0 29 0;
#X connect 15 0 30 0;
#X connect 16 0 31 0;
#X connect 17 0 32 0;
#X restore 69 212 pd sensor_input;
#X obj 631 59 tgl 15 0 empty empty empty 17 7 0 10 -262144 -1 -1 0
1;
#X obj 631 109 tgl 15 0 empty empty empty 17 7 0 10 -262144 -1 -1 0
1;
#X text 649 58 Sensor Data Stream On/Off;
#X text 651 109 Audio On/Off;
#X msg 631 129 \; pd dsp \$1;
#X obj 631 9 tgl 15 0 empty empty empty 17 7 0 10 -262144 -1 -1 0 1
;
#X text 649 8 Arduino Communication On/Off;
#X obj 69 56 sel 1;
#X msg 69 128 open \$1;
#X obj 631 29 s \$0-comm;
#X obj 631 79 s \$0-stream;
#X floatatom 194 87 5 0 0 0 - - -, f 5;
#X text 231 86 Set Arduino device number here;
#X obj 128 53 loadbang;
#X msg 128 75 1;
#X msg 196 131 devices;
#X text 251 132 Get arduino device number here;
#X text 229 101 (1 if it is the only USB device connected);
#X obj 69 29 r \$0-comm;
#N canvas 603 229 480 420 sensor0_sound 0;
#X obj 66 23 inlet;
#X obj 66 45 < 30;
#X obj 66 67 sel 1;
#X obj 66 89 bng 15 250 50 0 empty empty empty 17 7 0 10 -262144 -1
-1;
#X obj 265 149 osc~ 440;
#X obj 265 171 *~;
#X obj 201 229 osc~;
#X obj 201 206 +~;
#X floatatom 201 176 5 0 0 0 - - -, f 5;
#X floatatom 265 123 5 0 0 0 - - -, f 5;
#X obj 328 23 loadbang;
#X obj 201 281 *~;
#X obj 302 95 mtof;
#X obj 233 149 mtof;
#X msg 233 123 60;
#X floatatom 328 151 5 0 0 0 - - -, f 5;
#X msg 302 68 60;
#X msg 328 128 300;
#X obj 245 249 line~;
#X obj 116 89 bng 15 250 50 0 empty empty empty 17 7 0 10 -262144 -1
-1;
#X obj 116 67 sel 0;
#X msg 245 223 1 1000;
#X msg 295 223 0 1000;
#X obj 201 304 outlet~;
#X obj 122 21 inlet;
#X text 160 25 for testing;
#X connect 0 0 1 0;
#X connect 1 0 2 0;
#X connect 1 0 20 0;
#X connect 2 0 3 0;
#X connect 3 0 21 0;
#X connect 4 0 5 0;
#X connect 5 0 7 1;
#X connect 6 0 11 0;
#X connect 7 0 6 0;
#X connect 8 0 7 0;
#X connect 9 0 4 0;
#X connect 10 0 16 0;
#X connect 10 0 14 0;
#X connect 10 0 17 0;
#X connect 11 0 23 0;
#X connect 12 0 9 0;
#X connect 13 0 8 0;
#X connect 14 0 13 0;
#X connect 15 0 5 1;
#X connect 16 0 12 0;
#X connect 17 0 15 0;
#X connect 18 0 11 1;
#X connect 19 0 22 0;
#X connect 20 0 19 0;
#X connect 21 0 18 0;
#X connect 22 0 18 0;
#X connect 24 0 20 0;
#X connect 24 0 2 0;
#X restore 69 290 pd sensor0_sound;
#N canvas 603 229 480 420 sensor1_sound 0;
#X obj 66 23 inlet;
#X obj 66 45 < 30;
#X obj 66 67 sel 1;
#X obj 66 89 bng 15 250 50 0 empty empty empty 17 7 0 10 -262144 -1
-1;
#X obj 265 149 osc~ 440;
#X obj 265 171 *~;
#X obj 201 229 osc~;
#X obj 201 206 +~;
#X floatatom 201 176 5 0 0 0 - - -, f 5;
#X floatatom 265 123 5 0 0 0 - - -, f 5;
#X obj 328 23 loadbang;
#X obj 201 281 *~;
#X obj 302 95 mtof;
#X obj 233 149 mtof;
#X floatatom 328 151 5 0 0 0 - - -, f 5;
#X msg 328 128 300;
#X obj 245 249 line~;
#X obj 116 89 bng 15 250 50 0 empty empty empty 17 7 0 10 -262144 -1
-1;
#X obj 116 67 sel 0;
#X msg 245 223 1 1000;
#X msg 295 223 0 1000;
#X obj 201 304 outlet~;
#X msg 233 123 62;
#X msg 302 68 62;
#X obj 122 21 inlet;
#X text 160 25 for testing;
#X connect 0 0 1 0;
#X connect 1 0 2 0;
#X connect 1 0 18 0;
#X connect 2 0 3 0;
#X connect 3 0 19 0;
#X connect 4 0 5 0;
#X connect 5 0 7 1;
#X connect 6 0 11 0;
#X connect 7 0 6 0;
#X connect 8 0 7 0;
#X connect 9 0 4 0;
#X connect 10 0 23 0;
#X connect 10 0 22 0;
#X connect 10 0 15 0;
#X connect 11 0 21 0;
#X connect 12 0 9 0;
#X connect 13 0 8 0;
#X connect 14 0 5 1;
#X connect 15 0 14 0;
#X connect 16 0 11 1;
#X connect 17 0 20 0;
#X connect 18 0 17 0;
#X connect 19 0 16 0;
#X connect 20 0 16 0;
#X connect 22 0 13 0;
#X connect 23 0 12 0;
#X connect 24 0 18 0;
#X connect 24 0 2 0;
#X restore 189 290 pd sensor1_sound;
#N canvas 603 229 480 420 sensor2_sound 0;
#X obj 66 23 inlet;
#X obj 66 45 < 30;
#X obj 66 67 sel 1;
#X obj 66 89 bng 15 250 50 0 empty empty empty 17 7 0 10 -262144 -1
-1;
#X obj 265 149 osc~ 440;
#X obj 265 171 *~;
#X obj 201 229 osc~;
#X obj 201 206 +~;
#X floatatom 201 176 5 0 0 0 - - -, f 5;
#X floatatom 265 123 5 0 0 0 - - -, f 5;
#X obj 328 23 loadbang;
#X obj 201 281 *~;
#X obj 302 95 mtof;
#X obj 233 149 mtof;
#X floatatom 328 151 5 0 0 0 - - -, f 5;
#X msg 328 128 300;
#X obj 245 249 line~;
#X obj 116 89 bng 15 250 50 0 empty empty empty 17 7 0 10 -262144 -1
-1;
#X obj 116 67 sel 0;
#X msg 245 223 1 1000;
#X msg 295 223 0 1000;
#X obj 201 304 outlet~;
#X msg 233 123 64;
#X msg 302 68 64;
#X obj 122 21 inlet;
#X text 160 25 for testing;
#X connect 0 0 1 0;
#X connect 1 0 2 0;
#X connect 1 0 18 0;
#X connect 2 0 3 0;
#X connect 3 0 19 0;
#X connect 4 0 5 0;
#X connect 5 0 7 1;
#X connect 6 0 11 0;
#X connect 7 0 6 0;
#X connect 8 0 7 0;
#X connect 9 0 4 0;
#X connect 10 0 23 0;
#X connect 10 0 22 0;
#X connect 10 0 15 0;
#X connect 11 0 21 0;
#X connect 12 0 9 0;
#X connect 13 0 8 0;
#X connect 14 0 5 1;
#X connect 15 0 14 0;
#X connect 16 0 11 1;
#X connect 17 0 20 0;
#X connect 18 0 17 0;
#X connect 19 0 16 0;
#X connect 20 0 16 0;
#X connect 22 0 13 0;
#X connect 23 0 12 0;
#X connect 24 0 2 0;
#X connect 24 0 18 0;
#X restore 309 290 pd sensor2_sound;
#N canvas 603 229 480 420 sensor3_sound 0;
#X obj 66 23 inlet;
#X obj 66 45 < 30;
#X obj 66 67 sel 1;
#X obj 66 89 bng 15 250 50 0 empty empty empty 17 7 0 10 -262144 -1
-1;
#X obj 265 149 osc~ 440;
#X obj 265 171 *~;
#X obj 201 229 osc~;
#X obj 201 206 +~;
#X floatatom 201 176 5 0 0 0 - - -, f 5;
#X floatatom 265 123 5 0 0 0 - - -, f 5;
#X obj 328 23 loadbang;
#X obj 201 281 *~;
#X obj 302 95 mtof;
#X obj 233 149 mtof;
#X floatatom 328 151 5 0 0 0 - - -, f 5;
#X msg 328 128 300;
#X obj 245 249 line~;
#X obj 116 89 bng 15 250 50 0 empty empty empty 17 7 0 10 -262144 -1
-1;
#X obj 116 67 sel 0;
#X msg 245 223 1 1000;
#X msg 295 223 0 1000;
#X obj 201 304 outlet~;
#X obj 122 21 inlet;
#X text 160 25 for testing;
#X msg 233 123 65;
#X msg 302 68 65;
#X connect 0 0 1 0;
#X connect 1 0 2 0;
#X connect 1 0 18 0;
#X connect 2 0 3 0;
#X connect 3 0 19 0;
#X connect 4 0 5 0;
#X connect 5 0 7 1;
#X connect 6 0 11 0;
#X connect 7 0 6 0;
#X connect 8 0 7 0;
#X connect 9 0 4 0;
#X connect 10 0 25 0;
#X connect 10 0 24 0;
#X connect 10 0 15 0;
#X connect 11 0 21 0;
#X connect 12 0 9 0;
#X connect 13 0 8 0;
#X connect 14 0 5 1;
#X connect 15 0 14 0;
#X connect 16 0 11 1;
#X connect 17 0 20 0;
#X connect 18 0 17 0;
#X connect 19 0 16 0;
#X connect 20 0 16 0;
#X connect 22 0 18 0;
#X connect 22 0 2 0;
#X connect 24 0 13 0;
#X connect 25 0 12 0;
#X restore 429 290 pd sensor3_sound;
#N canvas 603 229 480 420 sensor4_sound 0;
#X obj 66 23 inlet;
#X obj 66 45 < 30;
#X obj 66 67 sel 1;
#X obj 66 89 bng 15 250 50 0 empty empty empty 17 7 0 10 -262144 -1
-1;
#X obj 265 149 osc~ 440;
#X obj 265 171 *~;
#X obj 201 229 osc~;
#X obj 201 206 +~;
#X floatatom 201 176 5 0 0 0 - - -, f 5;
#X floatatom 265 123 5 0 0 0 - - -, f 5;
#X obj 328 23 loadbang;
#X obj 201 281 *~;
#X obj 302 95 mtof;
#X obj 233 149 mtof;
#X floatatom 328 151 5 0 0 0 - - -, f 5;
#X msg 328 128 300;
#X obj 245 249 line~;
#X obj 116 89 bng 15 250 50 0 empty empty empty 17 7 0 10 -262144 -1
-1;
#X obj 116 67 sel 0;
#X msg 245 223 1 1000;
#X msg 295 223 0 1000;
#X obj 201 304 outlet~;
#X obj 122 21 inlet;
#X text 160 25 for testing;
#X msg 233 123 67;
#X msg 302 68 67;
#X connect 0 0 1 0;
#X connect 1 0 2 0;
#X connect 1 0 18 0;
#X connect 2 0 3 0;
#X connect 3 0 19 0;
#X connect 4 0 5 0;
#X connect 5 0 7 1;
#X connect 6 0 11 0;
#X connect 7 0 6 0;
#X connect 8 0 7 0;
#X connect 9 0 4 0;
#X connect 10 0 25 0;
#X connect 10 0 24 0;
#X connect 10 0 15 0;
#X connect 11 0 21 0;
#X connect 12 0 9 0;
#X connect 13 0 8 0;
#X connect 14 0 5 1;
#X connect 15 0 14 0;
#X connect 16 0 11 1;
#X connect 17 0 20 0;
#X connect 18 0 17 0;
#X connect 19 0 16 0;
#X connect 20 0 16 0;
#X connect 22 0 18 0;
#X connect 22 0 2 0;
#X connect 24 0 13 0;
#X connect 25 0 12 0;
#X restore 549 290 pd sensor4_sound;
#N canvas 603 229 480 420 sensor5_sound 0;
#X obj 66 23 inlet;
#X obj 66 45 < 30;
#X obj 66 67 sel 1;
#X obj 66 89 bng 15 250 50 0 empty empty empty 17 7 0 10 -262144 -1
-1;
#X obj 265 149 osc~ 440;
#X obj 265 171 *~;
#X obj 201 229 osc~;
#X obj 201 206 +~;
#X floatatom 201 176 5 0 0 0 - - -, f 5;
#X floatatom 265 123 5 0 0 0 - - -, f 5;
#X obj 328 23 loadbang;
#X obj 201 281 *~;
#X obj 302 95 mtof;
#X obj 233 149 mtof;
#X floatatom 328 151 5 0 0 0 - - -, f 5;
#X msg 328 128 300;
#X obj 245 249 line~;
#X obj 116 89 bng 15 250 50 0 empty empty empty 17 7 0 10 -262144 -1
-1;
#X obj 116 67 sel 0;
#X msg 245 223 1 1000;
#X msg 295 223 0 1000;
#X obj 201 304 outlet~;
#X obj 122 21 inlet;
#X text 160 25 for testing;
#X msg 233 123 69;
#X msg 302 68 69;
#X connect 0 0 1 0;
#X connect 1 0 2 0;
#X connect 1 0 18 0;
#X connect 2 0 3 0;
#X connect 3 0 19 0;
#X connect 4 0 5 0;
#X connect 5 0 7 1;
#X connect 6 0 11 0;
#X connect 7 0 6 0;
#X connect 8 0 7 0;
#X connect 9 0 4 0;
#X connect 10 0 25 0;
#X connect 10 0 24 0;
#X connect 10 0 15 0;
#X connect 11 0 21 0;
#X connect 12 0 9 0;
#X connect 13 0 8 0;
#X connect 14 0 5 1;
#X connect 15 0 14 0;
#X connect 16 0 11 1;
#X connect 17 0 20 0;
#X connect 18 0 17 0;
#X connect 19 0 16 0;
#X connect 20 0 16 0;
#X connect 22 0 18 0;
#X connect 22 0 2 0;
#X connect 24 0 13 0;
#X connect 25 0 12 0;
#X restore 669 290 pd sensor5_sound;
#N canvas 603 229 480 420 sensor6_sound 0;
#X obj 66 23 inlet;
#X obj 66 45 < 30;
#X obj 66 67 sel 1;
#X obj 66 89 bng 15 250 50 0 empty empty empty 17 7 0 10 -262144 -1
-1;
#X obj 265 149 osc~ 440;
#X obj 265 171 *~;
#X obj 201 229 osc~;
#X obj 201 206 +~;
#X floatatom 201 176 5 0 0 0 - - -, f 5;
#X floatatom 265 123 5 0 0 0 - - -, f 5;
#X obj 328 23 loadbang;
#X obj 201 281 *~;
#X obj 302 95 mtof;
#X obj 233 149 mtof;
#X floatatom 328 151 5 0 0 0 - - -, f 5;
#X msg 328 128 300;
#X obj 245 249 line~;
#X obj 116 89 bng 15 250 50 0 empty empty empty 17 7 0 10 -262144 -1
-1;
#X obj 116 67 sel 0;
#X msg 245 223 1 1000;
#X msg 295 223 0 1000;
#X obj 201 304 outlet~;
#X msg 233 123 71;
#X msg 302 68 71;
#X obj 122 21 inlet;
#X text 160 25 for testing;
#X connect 0 0 1 0;
#X connect 1 0 2 0;
#X connect 1 0 18 0;
#X connect 2 0 3 0;
#X connect 3 0 19 0;
#X connect 4 0 5 0;
#X connect 5 0 7 1;
#X connect 6 0 11 0;
#X connect 7 0 6 0;
#X connect 8 0 7 0;
#X connect 9 0 4 0;
#X connect 10 0 23 0;
#X connect 10 0 22 0;
#X connect 10 0 15 0;
#X connect 11 0 21 0;
#X connect 12 0 9 0;
#X connect 13 0 8 0;
#X connect 14 0 5 1;
#X connect 15 0 14 0;
#X connect 16 0 11 1;
#X connect 17 0 20 0;
#X connect 18 0 17 0;
#X connect 19 0 16 0;
#X connect 20 0 16 0;
#X connect 22 0 13 0;
#X connect 23 0 12 0;
#X connect 24 0 18 0;
#X connect 24 0 2 0;
#X restore 789 290 pd sensor6_sound;
#N canvas 603 229 480 420 sensor7_sound 0;
#X obj 66 23 inlet;
#X obj 66 45 < 30;
#X obj 66 67 sel 1;
#X obj 66 89 bng 15 250 50 0 empty empty empty 17 7 0 10 -262144 -1
-1;
#X obj 265 149 osc~ 440;
#X obj 265 171 *~;
#X obj 201 229 osc~;
#X obj 201 206 +~;
#X floatatom 201 176 5 0 0 0 - - -, f 5;
#X floatatom 265 123 5 0 0 0 - - -, f 5;
#X obj 328 23 loadbang;
#X obj 201 281 *~;
#X obj 302 95 mtof;
#X obj 233 149 mtof;
#X floatatom 328 151 5 0 0 0 - - -, f 5;
#X msg 328 128 300;
#X obj 245 249 line~;
#X obj 116 89 bng 15 250 50 0 empty empty empty 17 7 0 10 -262144 -1
-1;
#X obj 116 67 sel 0;
#X msg 245 223 1 1000;
#X msg 295 223 0 1000;
#X obj 201 304 outlet~;
#X msg 233 123 72;
#X msg 302 68 72;
#X obj 122 21 inlet;
#X text 160 25 for testing;
#X connect 0 0 1 0;
#X connect 1 0 2 0;
#X connect 1 0 18 0;
#X connect 2 0 3 0;
#X connect 3 0 19 0;
#X connect 4 0 5 0;
#X connect 5 0 7 1;
#X connect 6 0 11 0;
#X connect 7 0 6 0;
#X connect 8 0 7 0;
#X connect 9 0 4 0;
#X connect 10 0 23 0;
#X connect 10 0 22 0;
#X connect 10 0 15 0;
#X connect 11 0 21 0;
#X connect 12 0 9 0;
#X connect 13 0 8 0;
#X connect 14 0 5 1;
#X connect 15 0 14 0;
#X connect 16 0 11 1;
#X connect 17 0 20 0;
#X connect 18 0 17 0;
#X connect 19 0 16 0;
#X connect 20 0 16 0;
#X connect 22 0 13 0;
#X connect 23 0 12 0;
#X connect 24 0 18 0;
#X connect 24 0 2 0;
#X restore 909 290 pd sensor7_sound;
#X floatatom 69 261 5 0 0 0 - - -, f 5;
#X floatatom 189 261 5 0 0 0 - - -, f 5;
#X floatatom 309 261 5 0 0 0 - - -, f 5;
#X floatatom 429 261 5 0 0 0 - - -, f 5;
#X floatatom 549 261 5 0 0 0 - - -, f 5;
#X floatatom 669 261 5 0 0 0 - - -, f 5;
#X floatatom 789 261 5 0 0 0 - - -, f 5;
#X floatatom 909 261 5 0 0 0 - - -, f 5;
#X obj 153 259 tgl 15 0 empty empty empty 17 7 0 10 -262144 -1 -1 0
1;
#X obj 273 259 tgl 15 0 empty empty empty 17 7 0 10 -262144 -1 -1 0
1;
#X obj 366 259 tgl 15 0 empty empty empty 17 7 0 10 -262144 -1 -1 0
1;
#X obj 486 259 tgl 15 0 empty empty empty 17 7 0 10 -262144 -1 -1 0
1;
#X obj 616 259 tgl 15 0 empty empty empty 17 7 0 10 -262144 -1 -1 0
1;
#X obj 753 259 tgl 15 0 empty empty empty 17 7 0 10 -262144 -1 -1 0
1;
#X obj 876 259 tgl 15 0 empty empty empty 17 7 0 10 -262144 -1 -1 0
1;
#X obj 994 259 tgl 15 0 empty empty empty 17 7 0 10 -262144 -1 -1 0
1;
#X obj 69 410 dac~, f 90;
#N canvas 341 123 450 300 delay 1;
#X obj 107 132 delwrite~ \$0-tone;
#X obj 107 94 inlet~;
#X connect 1 0 0 0;
#X restore 74 347 pd delay;
#X connect 0 0 1 0;
#X connect 1 0 29 0;
#X connect 1 1 30 0;
#X connect 1 2 31 0;
#X connect 1 3 32 0;
#X connect 1 4 33 0;
#X connect 1 5 34 0;
#X connect 1 6 35 0;
#X connect 1 7 36 0;
#X connect 2 0 12 0;
#X connect 3 0 6 0;
#X connect 7 0 11 0;
#X connect 9 0 10 0;
#X connect 10 0 0 0;
#X connect 13 0 10 0;
#X connect 15 0 16 0;
#X connect 16 0 10 0;
#X connect 17 0 0 0;
#X connect 20 0 9 0;
#X connect 21 0 45 0;
#X connect 21 0 45 1;
#X connect 37 0 21 1;
#X connect 38 0 22 1;
#X connect 39 0 23 1;
#X connect 40 0 24 1;
#X connect 41 0 25 1;
#X connect 42 0 26 1;
#X connect 43 0 27 1;
#X connect 44 0 28 1;
