#N canvas 2119 53 768 557 10;
#X declare -lib ggee;
#X obj 437 29 declare -lib ggee;
#N canvas 224 97 612 101 01_INTRODUCTION 0;
#X text 8 25 We have discussed amplitude and frequency for a sound
wave \, and the remaining component of a sound we left to discuss is
PHASE. Phase can be a tricky concept to discuss because \, for the
most part \, it is inaudible. It is only we COMBINE sounds does phase
become audible. Phase is also slightly confusing because it comes from
trigonometry. Fortunately we will keep the math to a minimum and focus
on how phase relates to sound., f 98;
#X text 8 5 1 INTRODUCTION, f 73;
#X restore 117 146 pd 01_INTRODUCTION;
#X obj 1279 308 osc~ 440;
#X obj 1279 332 *~;
#X floatatom 1294 208 5 0 0 0 - - -, f 5;
#X floatatom 1279 185 5 0 0 0 - - -, f 5;
#X obj 1839 80 tdh.util.scope~;
#X text 1314 182 Freq;
#X text 1330 208 Amp;
#X obj 1454 160 osc~ 440;
#X obj 1454 184 *~;
#X floatatom 1469 100 5 0 0 0 - - -, f 5;
#X floatatom 1454 77 5 0 0 0 - - -, f 5;
#X text 1489 74 Freq;
#X text 1505 100 Amp;
#X obj 1376 428 +~;
#X floatatom 1307 277 5 0 1 0 - - -, f 5;
#X text 1522 123 Phase;
#X floatatom 1486 125 5 0 0 0 - - -, f 5;
#X text 1339 275 Phase (0.0-1.0);
#X obj 1336 310 bng 15 250 50 0 empty empty empty 17 7 0 10 -262144
-1 -1;
#X obj 1427 499 send~ sig3;
#X text 1581 8 Sound Wave Addition + Working with Phase;
#X floatatom 1606 215 5 0 0 0 - - -, f 5;
#X floatatom 1606 192 5 0 0 0 - - -, f 5;
#X text 1641 189 Freq;
#X text 1643 215 Amp;
#X floatatom 1606 238 5 0 1 0 - - -, f 5;
#X text 1643 240 Phase (0.0-1.0);
#X floatatom 1606 95 5 0 0 0 - - -, f 5;
#X floatatom 1606 72 5 0 0 0 - - -, f 5;
#X text 1641 69 Freq;
#X text 1643 95 Amp;
#X floatatom 1606 118 5 0 1 0 - - -, f 5;
#X text 1643 120 Phase (0.0-1.0);
#X text 1603 51 Sine Wave 1;
#X text 1605 170 Sine Wave 2;
#X obj 1376 500 outlet~;
#X text 1351 310 <- When changing phase of osc2 \,;
#X text 1369 322 we need to immediately retrigger;
#X text 1368 335 the phase of osc1 so that we can;
#X text 1369 346 see the effect of phase on;
#X text 1369 358 signal addition. Without the;
#X text 1369 373 retriggering \, osc1 could be at;
#X text 1369 387 any phase in its cycle \, not;
#X text 1370 400 necessarily the one we specified;
#X text 1576 284 Elements to experiment with:;
#X text 1577 361 2 Set both waves to the same frequency;
#X text 1595 374 and amplitude. Set the phase of Wave 2;
#X text 1595 386 to 0.5 \, which is a 180 degrees phase;
#X text 1576 301 1 With phase set to 0 (in-phase addition) \,;
#X text 1594 316 set both waves to the same frequency.;
#X text 1594 330 Set both waves to 0.5 amplitude.;
#X text 1594 342 What do they sum to?;
#X text 1595 398 shift (anti-phase addition). What is;
#X text 1595 410 the resulting wave?;
#X text 1314 -10 For phase:;
#X text 1310 5 0.5 = 180 degree phase shift;
#X text 1316 18 1 = 360 degree phase shift;
#X obj 1314 240 bng 15 250 50 0 empty empty empty 17 7 0 10 -262144
-1 -1;
#X connect 2 0 3 0;
#X connect 3 0 15 0;
#X connect 4 0 3 1;
#X connect 4 0 59 0;
#X connect 5 0 2 0;
#X connect 9 0 10 0;
#X connect 10 0 15 1;
#X connect 11 0 10 1;
#X connect 12 0 9 0;
#X connect 15 0 21 0;
#X connect 15 0 37 0;
#X connect 16 0 2 1;
#X connect 16 0 20 0;
#X connect 18 0 9 1;
#X connect 20 0 18 0;
#X connect 23 0 4 0;
#X connect 24 0 5 0;
#X connect 27 0 16 0;
#X connect 29 0 11 0;
#X connect 30 0 12 0;
#X connect 33 0 18 0;
#X connect 59 0 11 0;
