#N canvas 1440 -209 1920 1035 10;
#X declare -lib ggee;
#X obj 437 29 declare -lib ggee;
#N canvas 224 97 612 101 01_INTRODUCTION 0;
#X text 8 25 We have discussed amplitude and frequency for a sound
wave \, and the remaining component of a sound we left to discuss is
PHASE. Phase can be a tricky concept to discuss because \, for the
most part \, it is inaudible. It is only we COMBINE sounds does phase
become audible. Phase is also slightly confusing because it comes from
trigonometry. Fortunately we will keep the math to a minimum and focus
on how phase relates to sound., f 98;
#X text 8 5 1 INTRODUCTION, f 73;
#X restore 117 146 pd 01_INTRODUCTION;
#X obj 1279 308 osc~ 440;
#X obj 1279 332 *~;
#X floatatom 1294 208 5 0 0 0 - - -, f 5;
#X floatatom 1279 185 5 0 0 0 - - -, f 5;
#X obj 1839 80 tdh.util.scope~;
#X text 1314 182 Freq;
#X text 1330 208 Amp;
#X obj 1454 160 osc~ 440;
#X obj 1454 184 *~;
#X floatatom 1469 100 5 0 0 0 - - -, f 5;
#X floatatom 1454 77 5 0 0 0 - - -, f 5;
#X text 1489 74 Freq;
#X text 1505 100 Amp;
#X obj 1376 428 +~;
#X floatatom 1307 277 5 0 1 0 - - -, f 5;
#X text 1522 123 Phase;
#X floatatom 1486 125 5 0 0 0 - - -, f 5;
#X text 1339 275 Phase (0.0-1.0);
#X obj 1336 310 bng 15 250 50 0 empty empty empty 17 7 0 10 -262144
-1 -1;
#X obj 1427 499 send~ sig3;
#X text 1581 8 Sound Wave Addition + Working with Phase;
#X floatatom 1606 215 5 0 0 0 - - -, f 5;
#X floatatom 1606 192 5 0 0 0 - - -, f 5;
#X text 1641 189 Freq;
#X text 1643 215 Amp;
#X floatatom 1606 238 5 0 1 0 - - -, f 5;
#X text 1643 240 Phase (0.0-1.0);
#X floatatom 1606 95 5 0 0 0 - - -, f 5;
#X floatatom 1606 72 5 0 0 0 - - -, f 5;
#X text 1641 69 Freq;
#X text 1643 95 Amp;
#X floatatom 1606 118 5 0 1 0 - - -, f 5;
#X text 1643 120 Phase (0.0-1.0);
#X text 1603 51 Sine Wave 1;
#X text 1605 170 Sine Wave 2;
#X obj 1376 500 outlet~;
#X text 1351 310 <- When changing phase of osc2 \,;
#X text 1369 322 we need to immediately retrigger;
#X text 1368 335 the phase of osc1 so that we can;
#X text 1369 346 see the effect of phase on;
#X text 1369 358 signal addition. Without the;
#X text 1369 373 retriggering \, osc1 could be at;
#X text 1369 387 any phase in its cycle \, not;
#X text 1370 400 necessarily the one we specified;
#X text 1576 284 Elements to experiment with:;
#X text 1577 361 2 Set both waves to the same frequency;
#X text 1595 374 and amplitude. Set the phase of Wave 2;
#X text 1595 386 to 0.5 \, which is a 180 degrees phase;
#X text 1576 301 1 With phase set to 0 (in-phase addition) \,;
#X text 1594 316 set both waves to the same frequency.;
#X text 1594 330 Set both waves to 0.5 amplitude.;
#X text 1594 342 What do they sum to?;
#X text 1595 398 shift (anti-phase addition). What is;
#X text 1595 410 the resulting wave?;
#X text 1314 -10 For phase:;
#X text 1310 5 0.5 = 180 degree phase shift;
#X text 1316 18 1 = 360 degree phase shift;
#X obj 1314 240 bng 15 250 50 0 empty empty empty 17 7 0 10 -262144
-1 -1;
#N canvas 224 97 1035 583 BLANK_MODULE 0;
#X text 7 24 If you have ever plucked a guitar string or hit a drum
\, you likely noticed that the harder you hit or plucked resulted in
a louder sound. While if you plucked or hit the objects with less intensity
\, it might have sounded softer. When a string is plucked harder \,
this means when it vibrates it moves farther from its resting point
(the point where it sits when not vibrating). This causes the string
to push the air molecules around it farther \, creating a greater pressure
build up. In our sound wave graph we map the amount of pressure above
the atmospheric pressure caused by the vibrating object in the y axis
\, depicting the wave’s compression and rarefaction. This aspect
of the wave is known as the wave’s AMPLITUDE. When we talk about
amplitude \, we often graph it abstractly between +1 and -1 \, at which
these points are the MAXIMUM points that some system can have. This
system can be our computer \, a recording studio \, or our ear \, it
all depends on the context!, f 98;
#X text 7 154 When mapping the sound pressure level to a scale of +1
to -1 \, we call it LINEAR AMPLITUDE. It makes using computers to calculate
it very easy \, and it also makes a lot of sense when we manipulate
it (as we will see). For example \, we can set the sound wave to half
its amplitude by setting the amplitude to 0.5 (or dividing all of the
amplitude points by 2). When we discuss the amplitude of a wave at
a certain point \, we talk about the absolute value max peak of a cycle.
For example if a wave goes from +0.7 to -0.9 \, we are going to take
the absolute value of those points and report the peak \, so this example
wave would have an amplitude of 0.9., f 98;
#X text 7 244 To the right is a small controllable sound generator.
Press the “On” button to turn the generator on and adjust the wave’s
amplitude with the fader labelled “AMP” by clicking and dragging
on the middle line. You will see the wave displayed next to the fader.
As the amplitude increases from 0 \, the sound will get louder. At
1 the wave is as loud as your computer can handle \, so going above
this level will create a very distorted sound., f 98;
#X text 7 4 SOUND PRESSURE LEVEL AND AMPLITUDE, f 73;
#N canvas 142 47 1920 855 demonstration.wave 0;
#X coords 0 -1 1 1 400 275 2 100 100;
#X restore 614 8 pd demonstration.wave;
#N canvas 53 102 860 714 sound_gen_amp_demo 0;
#X coords 0 -1 1 1 400 250 2 100 100;
#X restore 615 299 pd sound_gen_amp_demo;
#X text 7 314 Talking about amplitude as a linear system is a problem
\, because our ear unfortunately doesn’t hear linearly \, our ears
perceive sound LOGARITHMICALLY. This introduction to acoustics attempts
to keep as much math out of the discussion as possible \, so I will
(try) to convey this concept as succinctly as possible (my apologies
to anyone with a solid background in mathematics). In the next module
we will briefly introduce the concept of the logarithmic scale \, and
then we will see how it applies to amplitude., f 98;
#X text 7 394 Close this window to move on to the next module., f
98;
#X restore 892 28 pd BLANK_MODULE;
#N canvas 1784 159 726 528 02_WHAT_IS_PHASE 0;
#X text 69 366 Now something else occurs when a sound wave follows
this pattern. We create angles when we draw one line from the center
of the circle to the 3:00 position on the circle \, and another line
to the rotating point on the circle. When the point is at 12:00 \,
we get a 90deg angle. When the point is at 9:00 \, we get a 180deg
angle \, at 6:00 we get 270deg angle \, and once we complete the full
circle we get 360deg but we restart the calculation at 0deg., f 98
;
#X text 69 456 We use these angles to associate points on the sine
wave. These angles are known as the sound wave’s PHASE. So we say
that the phase of the sine wave at the top of its compression is 90deg
\, while at the bottom of its rarefaction is 270 deg., f 98;
#X text 59 6 2 WHAT IS PHASE?, f 73;
#X text 59 26 Depicted below is the most simple sound \, the sine wave
\, which we have been using as our test tone. The sine wave can be
mathematically generated through the movement of a point revolving
counterclockwise around a circle. As shown in the diagram \, as the
point revolves around the circle \, the smooth movement of the sound
wave’s compression and rarefaction are made – when the point is
at the 12:00 point of the circle \, we are at the apex of the compression
\, and when the point is at the 6:00 point of the circle \, we are
at the lowest point of the rarefaction., f 98;
#X obj 354 222 ggee/image unit_circle_sinewave.gif;
#X restore 116 174 pd 02_WHAT_IS_PHASE;
#X obj 1307 655 catch~ dac;
#X obj 1309 700 dac~ 1 2;
#N canvas 1800 106 1023 324 03_CHANGING_PHASE 0;
#N canvas 1703 -67 1413 855 demonstration.wave 0;
#N canvas 0 22 450 278 (subpatch) 0;
#X array \$0-phase_demo_mod3_scope 256 float 1;
#A 0 0 0 0 0 0 0 0 0 0 0 0 0 0 0 0 0 0 0 0 0 0 0 0 0 0 0 0 0 0 0 0
0 0 0 0 0 0 0 0 0 0 0 0 0 0 0 0 0 0 0 0 0 0 0 0 0 0 0 0 0 0 0 0 0 0
0 0 0 0 0 0 0 0 0 0 0 0 0 0 0 0 0 0 0 0 0 0 0 0 0 0 0 0 0 0 0 0 0 0
0 0 0 0 0 0 0 0 0 0 0 0 0 0 0 0 0 0 0 0 0 0 0 0 0 0 0 0 0 0 0 0 0 0
0 0 0 0 0 0 0 0 0 0 0 0 0 0 0 0 0 0 0 0 0 0 0 0 0 0 0 0 0 0 0 0 0 0
0 0 0 0 0 0 0 0 0 0 0 0 0 0 0 0 0 0 0 0 0 0 0 0 0 0 0 0 0 0 0 0 0 0
0 0 0 0 0 0 0 0 0 0 0 0 0 0 0 0 0 0 0 0 0 0 0 0 0 0 0 0 0 0 0 0 0 0
0 0 0 0 0 0 0 0 0 0 0 0 0 0 0 0 0 0 0 0 0;
#X coords 0 1 255 -1 200 140 1 0 0;
#X restore 278 127 graph;
#X obj 600 287 osc~ 440;
#X obj 599 363 *~;
#X floatatom 599 258 5 0 1 0 - - -, f 5;
#X obj 121 164 bng 15 250 50 0 \$0-phase_demo_mod3_180deg-r empty 180deg
17 7 0 10 -204800 -1 -1;
#X obj 120 110 tgl 15 0 \$0-phase_demo_mod3_onoff-r empty On/Off 17
7 0 10 -204800 -1 -1 0 1;
#X obj 948 198 r \$0-phase_demo_mod3_onoff-r;
#X obj 948 227 tgl 15 0 empty empty empty 17 7 0 10 -262144 -1 -1 0
1;
#X obj 948 247 sel 0 1;
#X msg 1034 271 0 \, 0.7 250;
#X msg 948 271 0.7 \, 0 250;
#X obj 599 488 throw~ dac;
#X obj 742 487 tabwrite~ \$0-phase_demo_mod3_scope;
#X obj 824 462 metro 10;
#X obj 823 438 tgl 15 0 empty empty empty 17 7 0 10 -262144 -1 -1 1
1;
#X obj 824 395 loadbang;
#X msg 824 416 1;
#X floatatom 869 438 5 0 0 0 - - -, f 5;
#X obj 948 300 line~;
#X obj 653 122 bng 15 250 50 0 empty empty empty 17 7 0 10 -262144
-1 -1;
#X msg 653 142 0.5;
#X obj 121 189 bng 15 250 50 0 \$0-phase_demo_mod3_90deg-r empty 90deg
17 7 0 10 -204800 -1 -1;
#X obj 653 98 r \$0-phase_demo_mod3_180deg-r;
#X obj 692 143 bng 15 250 50 0 empty empty empty 17 7 0 10 -262144
-1 -1;
#X msg 692 165 0.25;
#X obj 692 119 r \$0-phase_demo_mod3_90deg-r;
#X obj 731 167 bng 15 250 50 0 empty empty empty 17 7 0 10 -262144
-1 -1;
#X msg 731 187 0.75;
#X obj 121 214 bng 15 250 50 0 \$0-phase_demo_mod3_270deg-r empty 270deg
17 7 0 10 -204800 -1 -1;
#X obj 731 143 r \$0-phase_demo_mod3_270deg-r;
#X obj 121 139 bng 15 250 50 0 \$0-phase_demo_mod3_0deg-r empty 0deg
17 7 0 10 -204800 -1 -1;
#X obj 598 93 bng 15 250 50 0 empty empty empty 17 7 0 10 -262144 -1
-1;
#X msg 598 113 0;
#X obj 598 69 r \$0-phase_demo_mod3_0deg-r;
#X obj 535 95 loadbang;
#X text 156 245 Phase 0-360;
#X obj 116 246 nbx 3 14 0 360 0 0 \$0-phase_demo_mod3_deg-r empty empty
0 -8 0 10 -204800 -1 -1 270 256;
#X obj 772 179 r \$0-phase_demo_mod3_deg-r;
#X obj 772 200 / 360;
#X obj 21 126 loadbang;
#X msg 21 147 0;
#X connect 1 0 2 0;
#X connect 2 0 11 0;
#X connect 2 0 12 0;
#X connect 3 0 1 1;
#X connect 6 0 7 0;
#X connect 7 0 8 0;
#X connect 8 0 10 0;
#X connect 8 1 9 0;
#X connect 9 0 18 0;
#X connect 10 0 18 0;
#X connect 13 0 12 0;
#X connect 14 0 13 0;
#X connect 15 0 16 0;
#X connect 16 0 14 0;
#X connect 17 0 13 1;
#X connect 18 0 2 1;
#X connect 19 0 20 0;
#X connect 20 0 3 0;
#X connect 22 0 19 0;
#X connect 23 0 24 0;
#X connect 24 0 3 0;
#X connect 25 0 23 0;
#X connect 26 0 27 0;
#X connect 27 0 3 0;
#X connect 29 0 26 0;
#X connect 31 0 32 0;
#X connect 32 0 3 0;
#X connect 33 0 31 0;
#X connect 34 0 32 0;
#X connect 37 0 38 0;
#X connect 38 0 3 0;
#X connect 39 0 40 0;
#X connect 40 0 36 0;
#X connect 40 0 5 0;
#X coords 0 -1 1 1 400 200 2 100 100;
#X restore 614 48 pd demonstration.wave;
#X text 7 4 3 CHANGING A SOUND WAVE'S PHASE, f 73;
#X text 7 24 Sometimes \, particularly when mixing or recording \,
you may need to change the phase of a soundwave. Often we will simply
invert the phase \, so that anything that was a compression is now
a rarefaction \, and vice versa., f 98;
#X text 7 74 Click the “On” button to turn on the test tone generator.
Then click the button labelled “180deg”. This will invert the phase
of the test tone \, as described above. Do you hear a difference?,
f 98;
#X text 7 114 Changing the phase actually doesn’t affect how a sound
is heard. Why? Because changing the phase doesn’t change the frequency
of a sound – there are still the same number of cycles per second.
It also doesn’t change the overall amplitude of the sound \, as the
same displacement occurs \, the only difference is that what once was
a compression is now a rarefaction \, and vice versa., f 98;
#X text 7 174 We can also shift the phase to degrees other a perfect
180 Click the buttons for 90deg and 270deg. There still shouldn’t
be an audible difference (except maybe a click when you actually change
the phase). This is because what is happening is that we are simply
starting the playback of the tone at a different point in the phase.
At the most we are starting at compression of a single cycle. The change
in a single cycle is so small that this won’t be perceived by the
ear., f 98;
#X text 7 254 Finally \, you can choose any arbitrary phase shift with
the slider \, from 0 to 359 degrees. Do you notice any change with
any of these phases?, f 98;
#X restore 114 202 pd 03_CHANGING_PHASE;
#X connect 2 0 3 0;
#X connect 3 0 15 0;
#X connect 4 0 3 1;
#X connect 4 0 59 0;
#X connect 5 0 2 0;
#X connect 9 0 10 0;
#X connect 10 0 15 1;
#X connect 11 0 10 1;
#X connect 12 0 9 0;
#X connect 15 0 21 0;
#X connect 15 0 37 0;
#X connect 16 0 2 1;
#X connect 16 0 20 0;
#X connect 18 0 9 1;
#X connect 20 0 18 0;
#X connect 23 0 4 0;
#X connect 24 0 5 0;
#X connect 27 0 16 0;
#X connect 29 0 11 0;
#X connect 30 0 12 0;
#X connect 33 0 18 0;
#X connect 59 0 11 0;
#X connect 62 0 63 0;
#X connect 62 0 63 1;
