#N canvas 27 23 1413 855 10;
#X obj 463 19 tdh.util.ezdsp~;
#X obj 109 570 dac~;
#X text 141 571 <- Sends audio to your speakers;
#X obj 113 1145 dac~;
#X text 166 536 Amplitude Envelope;
#X text 21 1179 ==============================================================================================================================================================================================
, f 191;
#X text 16 614 ==============================================================================================================================================================================================
, f 191;
#X obj 112 1690 dac~;
#X text 21 1729 ==============================================================================================================================================================================================
, f 191;
#X obj 96 2241 dac~;
#X obj 70 2962 dac~;
#X text 23 3040 ==============================================================================================================================================================================================
, f 192;
#X obj 70 3551 dac~;
#X text 10 -48 Principles of Acoustics Demo;
#X text 10 -34 Travis Houldcroft / travishouldcroft.com / github.com/thouldcroft
, f 66;
#X text 10 -8 tdh.demo.acoustics.main.pd;
#X text 10 6 Ver 0.1 Aug 2017;
#X text 10 19 Description;
#X obj 109 107 tdh.demo.acoustics.freq.amp~;
#X obj 113 677 tdh.demo.acoustics.phase.sig.addition~;
#X obj 112 1221 tdh.demo.acoustics.amp.env~;
#X obj 95 1764 tdh.demo.acoustics.spectrum.additive.synthesis~;
#X obj 69 2466 tdh.demo.acoustics.amp.mod~;
#X obj 68 3060 tdh.demo.acoustics.freq.mod~;
#X text 21 2429 =========================================================================================================================================================================================
, f 187;
#X connect 18 0 1 0;
#X connect 18 0 1 1;
#X connect 19 0 3 0;
#X connect 19 0 3 1;
#X connect 20 0 7 0;
#X connect 20 0 7 1;
#X connect 21 0 9 0;
#X connect 21 0 9 1;
#X connect 22 0 10 0;
#X connect 22 0 10 1;
#X connect 23 0 12 0;
#X connect 23 0 12 1;
