#N canvas 0 22 1883 1036 10;
#X obj -2159 102 bng 15 250 50 0 empty empty empty 17 7 0 10 -262144
-1 -1;
#X msg -2659 174 1;
#X obj -2659 198 sig~;
#X obj -2617 198 sig~;
#X obj -2576 197 sig~;
#X obj -2534 197 sig~;
#X obj -2497 198 sig~;
#X obj -2455 198 sig~;
#X obj -2414 197 sig~;
#X obj -2372 197 sig~;
#X obj -2329 198 sig~;
#X obj -2287 198 sig~;
#X msg -2617 174 2;
#X msg -2576 173 3;
#X msg -2534 173 4;
#X msg -2497 174 5;
#X msg -2455 174 6;
#X msg -2414 173 7;
#X msg -2372 173 8;
#X msg -2329 174 9;
#X msg -2287 174 10;
#X obj -2159 76 loadbang;
#X text -2424 232 2;
#X text -2399 232 3;
#X text -2375 232 4;
#X text -2352 232 5;
#X text -2328 232 6;
#X text -2303 232 7;
#X text -2280 232 8, f 2;
#X text -2260 232 9;
#X text -2233 232 10;
#X text -2204 232 11;
#X text -2182 232 12;
#X text -2159 232 13;
#X text -2138 232 14;
#X text -2115 232 15;
#X text -2088 232 16;
#X text -2063 232 17;
#X text -2038 232 18;
#X text -2016 232 19;
#X text -1993 232 20;
#X text -2446 232 1;
#X obj -2245 197 sig~;
#X obj -2203 197 sig~;
#X obj -2162 196 sig~;
#X obj -2120 196 sig~;
#X obj -2083 197 sig~;
#X obj -2041 197 sig~;
#X obj -2000 196 sig~;
#X obj -1958 196 sig~;
#X obj -1915 197 sig~;
#X obj -1873 197 sig~;
#X msg -2245 173 11;
#X msg -2203 173 12;
#X msg -2162 172 13;
#X msg -2120 172 14;
#X msg -2083 173 15;
#X msg -2041 173 16;
#X msg -2000 172 17;
#X msg -1958 172 18;
#X msg -1915 173 19;
#X msg -1873 173 20;
#X text -2404 1070 L;
#X text -2320 1070 M;
#X text -2246 1070 N;
#X text -2170 1070 O;
#X text -2092 1070 P;
#N canvas 0 22 450 300 snapshot 0;
#X obj 139 48 inlet~;
#X obj 140 163 snapshot~;
#X obj 208 101 metro 5;
#X obj 208 44 loadbang;
#X msg 209 74 1;
#X obj 139 198 outlet;
#X connect 0 0 1 0;
#X connect 1 0 5 0;
#X connect 2 0 1 0;
#X connect 3 0 4 0;
#X connect 4 0 2 0;
#X restore -2489 957 pd snapshot;
#X floatatom -2489 978 5 0 0 0 - - -, f 5;
#N canvas 0 22 450 300 snapshot 0;
#X obj 139 48 inlet~;
#X obj 140 163 snapshot~;
#X obj 208 101 metro 5;
#X obj 208 44 loadbang;
#X msg 209 74 1;
#X obj 139 198 outlet;
#X connect 0 0 1 0;
#X connect 1 0 5 0;
#X connect 2 0 1 0;
#X connect 3 0 4 0;
#X connect 4 0 2 0;
#X restore -2409 958 pd snapshot;
#X floatatom -2409 979 5 0 0 0 - - -, f 5;
#N canvas 0 22 450 300 snapshot 0;
#X obj 139 48 inlet~;
#X obj 140 163 snapshot~;
#X obj 208 101 metro 5;
#X obj 208 44 loadbang;
#X msg 209 74 1;
#X obj 139 198 outlet;
#X connect 0 0 1 0;
#X connect 1 0 5 0;
#X connect 2 0 1 0;
#X connect 3 0 4 0;
#X connect 4 0 2 0;
#X restore -2330 957 pd snapshot;
#X floatatom -2330 978 5 0 0 0 - - -, f 5;
#N canvas 0 22 450 300 snapshot 0;
#X obj 139 48 inlet~;
#X obj 140 163 snapshot~;
#X obj 208 101 metro 5;
#X obj 208 44 loadbang;
#X msg 209 74 1;
#X obj 139 198 outlet;
#X connect 0 0 1 0;
#X connect 1 0 5 0;
#X connect 2 0 1 0;
#X connect 3 0 4 0;
#X connect 4 0 2 0;
#X restore -2250 958 pd snapshot;
#X floatatom -2250 979 5 0 0 0 - - -, f 5;
#N canvas 0 22 450 300 snapshot 0;
#X obj 139 48 inlet~;
#X obj 140 163 snapshot~;
#X obj 208 101 metro 5;
#X obj 208 44 loadbang;
#X msg 209 74 1;
#X obj 139 198 outlet;
#X connect 0 0 1 0;
#X connect 1 0 5 0;
#X connect 2 0 1 0;
#X connect 3 0 4 0;
#X connect 4 0 2 0;
#X restore -2169 957 pd snapshot;
#X floatatom -2169 978 5 0 0 0 - - -, f 5;
#N canvas 0 22 450 300 snapshot 0;
#X obj 139 48 inlet~;
#X obj 140 163 snapshot~;
#X obj 208 101 metro 5;
#X obj 208 44 loadbang;
#X msg 209 74 1;
#X obj 139 198 outlet;
#X connect 0 0 1 0;
#X connect 1 0 5 0;
#X connect 2 0 1 0;
#X connect 3 0 4 0;
#X connect 4 0 2 0;
#X restore -2089 958 pd snapshot;
#X floatatom -2089 979 5 0 0 0 - - -, f 5;
#N canvas 0 22 450 300 snapshot 0;
#X obj 139 48 inlet~;
#X obj 140 163 snapshot~;
#X obj 208 101 metro 5;
#X obj 208 44 loadbang;
#X msg 209 74 1;
#X obj 139 198 outlet;
#X connect 0 0 1 0;
#X connect 1 0 5 0;
#X connect 2 0 1 0;
#X connect 3 0 4 0;
#X connect 4 0 2 0;
#X restore -2010 958 pd snapshot;
#X floatatom -2010 979 5 0 0 0 - - -, f 5;
#N canvas 0 22 450 300 snapshot 0;
#X obj 139 48 inlet~;
#X obj 140 163 snapshot~;
#X obj 208 101 metro 5;
#X obj 208 44 loadbang;
#X msg 209 74 1;
#X obj 139 198 outlet;
#X connect 0 0 1 0;
#X connect 1 0 5 0;
#X connect 2 0 1 0;
#X connect 3 0 4 0;
#X connect 4 0 2 0;
#X restore -1933 958 pd snapshot;
#X floatatom -1933 979 5 0 0 0 - - -, f 5;
#N canvas 0 22 450 300 snapshot 0;
#X obj 139 48 inlet~;
#X obj 140 163 snapshot~;
#X obj 208 101 metro 5;
#X obj 208 44 loadbang;
#X msg 209 74 1;
#X obj 139 198 outlet;
#X connect 0 0 1 0;
#X connect 1 0 5 0;
#X connect 2 0 1 0;
#X connect 3 0 4 0;
#X connect 4 0 2 0;
#X restore -1849 956 pd snapshot;
#X floatatom -1849 977 5 0 0 0 - - -, f 5;
#N canvas 0 22 450 300 snapshot 0;
#X obj 139 48 inlet~;
#X obj 140 163 snapshot~;
#X obj 208 101 metro 5;
#X obj 208 44 loadbang;
#X msg 209 74 1;
#X obj 139 198 outlet;
#X connect 0 0 1 0;
#X connect 1 0 5 0;
#X connect 2 0 1 0;
#X connect 3 0 4 0;
#X connect 4 0 2 0;
#X restore -1765 956 pd snapshot;
#X floatatom -1765 977 5 0 0 0 - - -, f 5;
#N canvas 0 22 450 300 snapshot 0;
#X obj 139 48 inlet~;
#X obj 140 163 snapshot~;
#X obj 208 101 metro 5;
#X obj 208 44 loadbang;
#X msg 209 74 1;
#X obj 139 198 outlet;
#X connect 0 0 1 0;
#X connect 1 0 5 0;
#X connect 2 0 1 0;
#X connect 3 0 4 0;
#X connect 4 0 2 0;
#X restore -2494 1032 pd snapshot;
#X floatatom -2495 1053 5 0 0 0 - - -, f 5;
#N canvas 0 22 450 300 snapshot 0;
#X obj 139 48 inlet~;
#X obj 140 163 snapshot~;
#X obj 208 101 metro 5;
#X obj 208 44 loadbang;
#X msg 209 74 1;
#X obj 139 198 outlet;
#X connect 0 0 1 0;
#X connect 1 0 5 0;
#X connect 2 0 1 0;
#X connect 3 0 4 0;
#X connect 4 0 2 0;
#X restore -2413 1033 pd snapshot;
#X floatatom -2413 1054 5 0 0 0 - - -, f 5;
#N canvas 0 22 450 300 snapshot 0;
#X obj 139 48 inlet~;
#X obj 140 163 snapshot~;
#X obj 208 101 metro 5;
#X obj 208 44 loadbang;
#X msg 209 74 1;
#X obj 139 198 outlet;
#X connect 0 0 1 0;
#X connect 1 0 5 0;
#X connect 2 0 1 0;
#X connect 3 0 4 0;
#X connect 4 0 2 0;
#X restore -2332 1033 pd snapshot;
#X floatatom -2332 1054 5 0 0 0 - - -, f 5;
#N canvas 0 22 450 300 snapshot 0;
#X obj 139 48 inlet~;
#X obj 140 163 snapshot~;
#X obj 208 101 metro 5;
#X obj 208 44 loadbang;
#X msg 209 74 1;
#X obj 139 198 outlet;
#X connect 0 0 1 0;
#X connect 1 0 5 0;
#X connect 2 0 1 0;
#X connect 3 0 4 0;
#X connect 4 0 2 0;
#X restore -2256 1033 pd snapshot;
#X floatatom -2256 1054 5 0 0 0 - - -, f 5;
#N canvas 0 22 450 300 snapshot 0;
#X obj 139 48 inlet~;
#X obj 140 163 snapshot~;
#X obj 208 101 metro 5;
#X obj 208 44 loadbang;
#X msg 209 74 1;
#X obj 139 198 outlet;
#X connect 0 0 1 0;
#X connect 1 0 5 0;
#X connect 2 0 1 0;
#X connect 3 0 4 0;
#X connect 4 0 2 0;
#X restore -2182 1033 pd snapshot;
#X floatatom -2182 1054 5 0 0 0 - - -, f 5;
#N canvas 0 22 450 300 snapshot 0;
#X obj 139 48 inlet~;
#X obj 140 163 snapshot~;
#X obj 208 101 metro 5;
#X obj 208 44 loadbang;
#X msg 209 74 1;
#X obj 139 198 outlet;
#X connect 0 0 1 0;
#X connect 1 0 5 0;
#X connect 2 0 1 0;
#X connect 3 0 4 0;
#X connect 4 0 2 0;
#X restore -2099 1033 pd snapshot;
#X floatatom -2099 1054 5 0 0 0 - - -, f 5;
#X text -2484 993 A;
#X text -2397 993 B;
#X text -2324 993 C;
#X text -2242 993 D;
#X text -2158 993 E;
#X text -2083 993 F;
#X text -2000 994 G;
#X text -1929 993 H;
#X text -1840 993 I;
#X text -1758 993 J;
#X text -2488 1069 K;
#N canvas 0 22 450 300 snapshot 0;
#X obj 139 48 inlet~;
#X obj 140 163 snapshot~;
#X obj 208 101 metro 5;
#X obj 208 44 loadbang;
#X msg 209 74 1;
#X obj 139 198 outlet;
#X connect 0 0 1 0;
#X connect 1 0 5 0;
#X connect 2 0 1 0;
#X connect 3 0 4 0;
#X connect 4 0 2 0;
#X restore -2010 1033 pd snapshot;
#X floatatom -2010 1054 5 0 0 0 - - -, f 5;
#N canvas 0 22 450 300 snapshot 0;
#X obj 139 48 inlet~;
#X obj 140 163 snapshot~;
#X obj 208 101 metro 5;
#X obj 208 44 loadbang;
#X msg 209 74 1;
#X obj 139 198 outlet;
#X connect 0 0 1 0;
#X connect 1 0 5 0;
#X connect 2 0 1 0;
#X connect 3 0 4 0;
#X connect 4 0 2 0;
#X restore -1934 1033 pd snapshot;
#X floatatom -1934 1054 5 0 0 0 - - -, f 5;
#N canvas 0 22 450 300 snapshot 0;
#X obj 139 48 inlet~;
#X obj 140 163 snapshot~;
#X obj 208 101 metro 5;
#X obj 208 44 loadbang;
#X msg 209 74 1;
#X obj 139 198 outlet;
#X connect 0 0 1 0;
#X connect 1 0 5 0;
#X connect 2 0 1 0;
#X connect 3 0 4 0;
#X connect 4 0 2 0;
#X restore -1856 1033 pd snapshot;
#X floatatom -1856 1054 5 0 0 0 - - -, f 5;
#N canvas 0 22 450 300 snapshot 0;
#X obj 139 48 inlet~;
#X obj 140 163 snapshot~;
#X obj 208 101 metro 5;
#X obj 208 44 loadbang;
#X msg 209 74 1;
#X obj 139 198 outlet;
#X connect 0 0 1 0;
#X connect 1 0 5 0;
#X connect 2 0 1 0;
#X connect 3 0 4 0;
#X connect 4 0 2 0;
#X restore -1768 1033 pd snapshot;
#X floatatom -1768 1054 5 0 0 0 - - -, f 5;
#X text -1997 1070 Q;
#X text -1923 1070 R;
#X text -1844 1070 S;
#X text -1761 1070 T;
#N canvas 0 22 490 365 20x20 0;
#X obj 10 39 bng 15 250 50 0 empty empty empty 17 7 0 10 -262144 -1
-1;
#X msg 10 71 1;
#X obj 10 95 sig~;
#X obj 52 95 sig~;
#X obj 93 94 sig~;
#X obj 135 94 sig~;
#X obj 172 95 sig~;
#X obj 214 95 sig~;
#X obj 255 94 sig~;
#X obj 297 94 sig~;
#X obj 340 95 sig~;
#X obj 382 95 sig~;
#X msg 52 71 2;
#X msg 93 70 3;
#X msg 135 70 4;
#X msg 172 71 5;
#X msg 214 71 6;
#X msg 255 70 7;
#X msg 297 70 8;
#X msg 340 71 9;
#X msg 382 71 10;
#X obj 10 13 loadbang;
#X text 235 129 2;
#X text 260 129 3;
#X text 284 129 4;
#X text 307 129 5;
#X text 331 129 6;
#X text 356 129 7;
#X text 379 129 8, f 2;
#X text 399 129 9;
#X text 426 129 10;
#X text 455 129 11;
#X text 477 129 12;
#X text 500 129 13;
#X text 521 129 14;
#X text 544 129 15;
#X text 571 129 16;
#X text 596 129 17;
#X text 621 129 18;
#X text 643 129 19;
#X text 666 129 20;
#X text 213 129 1;
#X text 690 155 A;
#X text 691 178 B;
#X text 694 204 C;
#X text 694 229 D;
#X text 694 254 E;
#X text 694 279 F;
#X text 694 300 G;
#X text 694 325 H;
#X text 694 347 I;
#X text 694 373 J;
#X text 692 398 K;
#X text 173 787 L;
#X text 262 787 M;
#X text 336 787 N;
#X text 412 787 O;
#X text 490 787 P;
#X text 694 542 Q;
#X text 693 565 R;
#X text 694 588 S;
#X text 692 610 T;
#X obj 424 94 sig~;
#X obj 466 94 sig~;
#X obj 507 93 sig~;
#X obj 549 93 sig~;
#X obj 586 94 sig~;
#X obj 628 94 sig~;
#X obj 669 93 sig~;
#X obj 711 93 sig~;
#X obj 754 94 sig~;
#X obj 796 94 sig~;
#X msg 424 70 11;
#X msg 466 70 12;
#X msg 507 69 13;
#X msg 549 69 14;
#X msg 586 70 15;
#X msg 628 70 16;
#X msg 669 69 17;
#X msg 711 69 18;
#X msg 754 70 19;
#X msg 796 70 20;
#N canvas 0 22 450 300 snapshot 0;
#X obj 139 48 inlet~;
#X obj 140 163 snapshot~;
#X obj 208 101 metro 5;
#X obj 208 44 loadbang;
#X msg 209 74 1;
#X obj 139 198 outlet;
#X connect 0 0 1 0;
#X connect 1 0 5 0;
#X connect 2 0 1 0;
#X connect 3 0 4 0;
#X connect 4 0 2 0;
#X restore 88 674 pd snapshot;
#X floatatom 88 695 5 0 0 0 - - -, f 5;
#N canvas 0 22 450 300 snapshot 0;
#X obj 139 48 inlet~;
#X obj 140 163 snapshot~;
#X obj 208 101 metro 5;
#X obj 208 44 loadbang;
#X msg 209 74 1;
#X obj 139 198 outlet;
#X connect 0 0 1 0;
#X connect 1 0 5 0;
#X connect 2 0 1 0;
#X connect 3 0 4 0;
#X connect 4 0 2 0;
#X restore 168 675 pd snapshot;
#X floatatom 168 696 5 0 0 0 - - -, f 5;
#N canvas 0 22 450 300 snapshot 0;
#X obj 139 48 inlet~;
#X obj 140 163 snapshot~;
#X obj 208 101 metro 5;
#X obj 208 44 loadbang;
#X msg 209 74 1;
#X obj 139 198 outlet;
#X connect 0 0 1 0;
#X connect 1 0 5 0;
#X connect 2 0 1 0;
#X connect 3 0 4 0;
#X connect 4 0 2 0;
#X restore 244 674 pd snapshot;
#X floatatom 244 695 5 0 0 0 - - -, f 5;
#N canvas 0 22 450 300 snapshot 0;
#X obj 139 48 inlet~;
#X obj 140 163 snapshot~;
#X obj 208 101 metro 5;
#X obj 208 44 loadbang;
#X msg 209 74 1;
#X obj 139 198 outlet;
#X connect 0 0 1 0;
#X connect 1 0 5 0;
#X connect 2 0 1 0;
#X connect 3 0 4 0;
#X connect 4 0 2 0;
#X restore 324 675 pd snapshot;
#X floatatom 324 696 5 0 0 0 - - -, f 5;
#N canvas 0 22 450 300 snapshot 0;
#X obj 139 48 inlet~;
#X obj 140 163 snapshot~;
#X obj 208 101 metro 5;
#X obj 208 44 loadbang;
#X msg 209 74 1;
#X obj 139 198 outlet;
#X connect 0 0 1 0;
#X connect 1 0 5 0;
#X connect 2 0 1 0;
#X connect 3 0 4 0;
#X connect 4 0 2 0;
#X restore 405 674 pd snapshot;
#X floatatom 405 695 5 0 0 0 - - -, f 5;
#N canvas 0 22 450 300 snapshot 0;
#X obj 139 48 inlet~;
#X obj 140 163 snapshot~;
#X obj 208 101 metro 5;
#X obj 208 44 loadbang;
#X msg 209 74 1;
#X obj 139 198 outlet;
#X connect 0 0 1 0;
#X connect 1 0 5 0;
#X connect 2 0 1 0;
#X connect 3 0 4 0;
#X connect 4 0 2 0;
#X restore 485 675 pd snapshot;
#X floatatom 485 696 5 0 0 0 - - -, f 5;
#N canvas 0 22 450 300 snapshot 0;
#X obj 139 48 inlet~;
#X obj 140 163 snapshot~;
#X obj 208 101 metro 5;
#X obj 208 44 loadbang;
#X msg 209 74 1;
#X obj 139 198 outlet;
#X connect 0 0 1 0;
#X connect 1 0 5 0;
#X connect 2 0 1 0;
#X connect 3 0 4 0;
#X connect 4 0 2 0;
#X restore 561 674 pd snapshot;
#X floatatom 561 695 5 0 0 0 - - -, f 5;
#N canvas 0 22 450 300 snapshot 0;
#X obj 139 48 inlet~;
#X obj 140 163 snapshot~;
#X obj 208 101 metro 5;
#X obj 208 44 loadbang;
#X msg 209 74 1;
#X obj 139 198 outlet;
#X connect 0 0 1 0;
#X connect 1 0 5 0;
#X connect 2 0 1 0;
#X connect 3 0 4 0;
#X connect 4 0 2 0;
#X restore 641 675 pd snapshot;
#X floatatom 641 696 5 0 0 0 - - -, f 5;
#N canvas 0 22 450 300 snapshot 0;
#X obj 139 48 inlet~;
#X obj 140 163 snapshot~;
#X obj 208 101 metro 5;
#X obj 208 44 loadbang;
#X msg 209 74 1;
#X obj 139 198 outlet;
#X connect 0 0 1 0;
#X connect 1 0 5 0;
#X connect 2 0 1 0;
#X connect 3 0 4 0;
#X connect 4 0 2 0;
#X restore 725 673 pd snapshot;
#X floatatom 725 694 5 0 0 0 - - -, f 5;
#N canvas 0 22 450 300 snapshot 0;
#X obj 139 48 inlet~;
#X obj 140 163 snapshot~;
#X obj 208 101 metro 5;
#X obj 208 44 loadbang;
#X msg 209 74 1;
#X obj 139 198 outlet;
#X connect 0 0 1 0;
#X connect 1 0 5 0;
#X connect 2 0 1 0;
#X connect 3 0 4 0;
#X connect 4 0 2 0;
#X restore 803 673 pd snapshot;
#X floatatom 803 694 5 0 0 0 - - -, f 5;
#N canvas 0 22 450 300 snapshot 0;
#X obj 139 48 inlet~;
#X obj 140 163 snapshot~;
#X obj 208 101 metro 5;
#X obj 208 44 loadbang;
#X msg 209 74 1;
#X obj 139 198 outlet;
#X connect 0 0 1 0;
#X connect 1 0 5 0;
#X connect 2 0 1 0;
#X connect 3 0 4 0;
#X connect 4 0 2 0;
#X restore 88 749 pd snapshot;
#X floatatom 87 770 5 0 0 0 - - -, f 5;
#N canvas 0 22 450 300 snapshot 0;
#X obj 139 48 inlet~;
#X obj 140 163 snapshot~;
#X obj 208 101 metro 5;
#X obj 208 44 loadbang;
#X msg 209 74 1;
#X obj 139 198 outlet;
#X connect 0 0 1 0;
#X connect 1 0 5 0;
#X connect 2 0 1 0;
#X connect 3 0 4 0;
#X connect 4 0 2 0;
#X restore 167 750 pd snapshot;
#X floatatom 167 771 5 0 0 0 - - -, f 5;
#N canvas 0 22 450 300 snapshot 0;
#X obj 139 48 inlet~;
#X obj 140 163 snapshot~;
#X obj 208 101 metro 5;
#X obj 208 44 loadbang;
#X msg 209 74 1;
#X obj 139 198 outlet;
#X connect 0 0 1 0;
#X connect 1 0 5 0;
#X connect 2 0 1 0;
#X connect 3 0 4 0;
#X connect 4 0 2 0;
#X restore 250 750 pd snapshot;
#X floatatom 250 771 5 0 0 0 - - -, f 5;
#N canvas 0 22 450 300 snapshot 0;
#X obj 139 48 inlet~;
#X obj 140 163 snapshot~;
#X obj 208 101 metro 5;
#X obj 208 44 loadbang;
#X msg 209 74 1;
#X obj 139 198 outlet;
#X connect 0 0 1 0;
#X connect 1 0 5 0;
#X connect 2 0 1 0;
#X connect 3 0 4 0;
#X connect 4 0 2 0;
#X restore 326 750 pd snapshot;
#X floatatom 326 771 5 0 0 0 - - -, f 5;
#N canvas 0 22 450 300 snapshot 0;
#X obj 139 48 inlet~;
#X obj 140 163 snapshot~;
#X obj 208 101 metro 5;
#X obj 208 44 loadbang;
#X msg 209 74 1;
#X obj 139 198 outlet;
#X connect 0 0 1 0;
#X connect 1 0 5 0;
#X connect 2 0 1 0;
#X connect 3 0 4 0;
#X connect 4 0 2 0;
#X restore 400 750 pd snapshot;
#X floatatom 400 771 5 0 0 0 - - -, f 5;
#N canvas 0 22 450 300 snapshot 0;
#X obj 139 48 inlet~;
#X obj 140 163 snapshot~;
#X obj 208 101 metro 5;
#X obj 208 44 loadbang;
#X msg 209 74 1;
#X obj 139 198 outlet;
#X connect 0 0 1 0;
#X connect 1 0 5 0;
#X connect 2 0 1 0;
#X connect 3 0 4 0;
#X connect 4 0 2 0;
#X restore 483 750 pd snapshot;
#X floatatom 483 771 5 0 0 0 - - -, f 5;
#X text 93 710 A;
#X text 180 710 B;
#X text 250 710 C;
#X text 332 710 D;
#X text 416 710 E;
#X text 491 710 F;
#X text 571 710 G;
#X text 645 710 H;
#X text 734 710 I;
#X text 810 710 J;
#X text 94 786 K;
#N canvas 0 22 450 300 snapshot 0;
#X obj 139 48 inlet~;
#X obj 140 163 snapshot~;
#X obj 208 101 metro 5;
#X obj 208 44 loadbang;
#X msg 209 74 1;
#X obj 139 198 outlet;
#X connect 0 0 1 0;
#X connect 1 0 5 0;
#X connect 2 0 1 0;
#X connect 3 0 4 0;
#X connect 4 0 2 0;
#X restore 572 750 pd snapshot;
#X floatatom 572 771 5 0 0 0 - - -, f 5;
#N canvas 0 22 450 300 snapshot 0;
#X obj 139 48 inlet~;
#X obj 140 163 snapshot~;
#X obj 208 101 metro 5;
#X obj 208 44 loadbang;
#X msg 209 74 1;
#X obj 139 198 outlet;
#X connect 0 0 1 0;
#X connect 1 0 5 0;
#X connect 2 0 1 0;
#X connect 3 0 4 0;
#X connect 4 0 2 0;
#X restore 648 750 pd snapshot;
#X floatatom 648 771 5 0 0 0 - - -, f 5;
#N canvas 0 22 450 300 snapshot 0;
#X obj 139 48 inlet~;
#X obj 140 163 snapshot~;
#X obj 208 101 metro 5;
#X obj 208 44 loadbang;
#X msg 209 74 1;
#X obj 139 198 outlet;
#X connect 0 0 1 0;
#X connect 1 0 5 0;
#X connect 2 0 1 0;
#X connect 3 0 4 0;
#X connect 4 0 2 0;
#X restore 726 750 pd snapshot;
#X floatatom 726 771 5 0 0 0 - - -, f 5;
#N canvas 0 22 450 300 snapshot 0;
#X obj 139 48 inlet~;
#X obj 140 163 snapshot~;
#X obj 208 101 metro 5;
#X obj 208 44 loadbang;
#X msg 209 74 1;
#X obj 139 198 outlet;
#X connect 0 0 1 0;
#X connect 1 0 5 0;
#X connect 2 0 1 0;
#X connect 3 0 4 0;
#X connect 4 0 2 0;
#X restore 814 750 pd snapshot;
#X floatatom 814 771 5 0 0 0 - - -, f 5;
#X text 585 787 Q;
#X text 659 787 R;
#X text 738 787 S;
#X text 821 787 T;
#X text 693 422 L;
#X text 693 444 M;
#X text 693 470 N;
#X text 691 495 O;
#X text 692 518 P;
#X obj 204 150 tdh.util.20x20.audio.routing.matrix~v1.2;
#X connect 0 0 1 0;
#X connect 0 0 12 0;
#X connect 0 0 13 0;
#X connect 0 0 14 0;
#X connect 0 0 15 0;
#X connect 0 0 16 0;
#X connect 0 0 17 0;
#X connect 0 0 18 0;
#X connect 0 0 19 0;
#X connect 0 0 20 0;
#X connect 0 0 72 0;
#X connect 0 0 73 0;
#X connect 0 0 74 0;
#X connect 0 0 75 0;
#X connect 0 0 76 0;
#X connect 0 0 77 0;
#X connect 0 0 78 0;
#X connect 0 0 79 0;
#X connect 0 0 80 0;
#X connect 0 0 81 0;
#X connect 1 0 2 0;
#X connect 2 0 142 0;
#X connect 3 0 142 1;
#X connect 4 0 142 2;
#X connect 5 0 142 3;
#X connect 6 0 142 4;
#X connect 7 0 142 5;
#X connect 8 0 142 6;
#X connect 9 0 142 7;
#X connect 10 0 142 8;
#X connect 11 0 142 9;
#X connect 12 0 3 0;
#X connect 13 0 4 0;
#X connect 14 0 5 0;
#X connect 15 0 6 0;
#X connect 16 0 7 0;
#X connect 17 0 8 0;
#X connect 18 0 9 0;
#X connect 19 0 10 0;
#X connect 20 0 11 0;
#X connect 21 0 0 0;
#X connect 62 0 142 10;
#X connect 63 0 142 11;
#X connect 64 0 142 12;
#X connect 65 0 142 13;
#X connect 66 0 142 14;
#X connect 67 0 142 15;
#X connect 68 0 142 16;
#X connect 69 0 142 17;
#X connect 70 0 142 18;
#X connect 71 0 142 19;
#X connect 72 0 62 0;
#X connect 73 0 63 0;
#X connect 74 0 64 0;
#X connect 75 0 65 0;
#X connect 76 0 66 0;
#X connect 77 0 67 0;
#X connect 78 0 68 0;
#X connect 79 0 69 0;
#X connect 80 0 70 0;
#X connect 81 0 71 0;
#X connect 82 0 83 0;
#X connect 84 0 85 0;
#X connect 86 0 87 0;
#X connect 88 0 89 0;
#X connect 90 0 91 0;
#X connect 92 0 93 0;
#X connect 94 0 95 0;
#X connect 96 0 97 0;
#X connect 98 0 99 0;
#X connect 100 0 101 0;
#X connect 102 0 103 0;
#X connect 104 0 105 0;
#X connect 106 0 107 0;
#X connect 108 0 109 0;
#X connect 110 0 111 0;
#X connect 112 0 113 0;
#X connect 125 0 126 0;
#X connect 127 0 128 0;
#X connect 129 0 130 0;
#X connect 131 0 132 0;
#X connect 142 0 82 0;
#X connect 142 1 84 0;
#X connect 142 2 86 0;
#X connect 142 3 88 0;
#X connect 142 4 90 0;
#X connect 142 5 92 0;
#X connect 142 6 94 0;
#X connect 142 7 96 0;
#X connect 142 8 98 0;
#X connect 142 9 100 0;
#X connect 142 10 102 0;
#X connect 142 11 104 0;
#X connect 142 12 106 0;
#X connect 142 13 108 0;
#X connect 142 14 110 0;
#X connect 142 15 112 0;
#X connect 142 16 125 0;
#X connect 142 17 127 0;
#X connect 142 18 129 0;
#X connect 142 19 131 0;
#X restore -2572 21 pd 20x20;
#N canvas 0 22 450 300 10x10.old 0;
#X obj 30 147 tdh.util.10x10.audio.routing.matrix~;
#X obj 120 415 mgUiSnapshot;
#X obj 30 415 mgUiSnapshot;
#X obj 293 416 mgUiSnapshot;
#X obj 203 416 mgUiSnapshot;
#X obj 466 416 mgUiSnapshot;
#X obj 376 416 mgUiSnapshot;
#X obj 639 417 mgUiSnapshot;
#X obj 549 417 mgUiSnapshot;
#X obj 819 418 mgUiSnapshot;
#X obj 729 418 mgUiSnapshot;
#X obj 31 44 bng 15 250 50 0 empty empty empty 17 7 0 10 -262144 -1
-1;
#X msg 31 76 1;
#X obj 31 100 sig~;
#X obj 73 100 sig~;
#X obj 114 99 sig~;
#X obj 156 99 sig~;
#X obj 193 100 sig~;
#X obj 235 100 sig~;
#X obj 276 99 sig~;
#X obj 318 99 sig~;
#X obj 361 100 sig~;
#X obj 403 100 sig~;
#X msg 73 76 2;
#X msg 114 75 3;
#X msg 156 75 4;
#X msg 193 76 5;
#X msg 235 76 6;
#X msg 276 75 7;
#X msg 318 75 8;
#X msg 361 76 9;
#X msg 403 76 10;
#X text 12 154 1;
#X text 47 128 a;
#X text 68 128 b;
#X text 92 128 c;
#X text 113 128 d;
#X text 138 128 e;
#X text 159 128 f;
#X text 183 128 g;
#X text 204 128 h;
#X text 231 129 i;
#X text 252 129 j;
#X text 54 457 a;
#X text 153 457 b;
#X text 238 457 c;
#X text 326 456 d;
#X text 403 456 e;
#X text 493 456 f;
#X text 573 457 g;
#X text 669 459 h;
#X text 759 461 i;
#X text 842 459 j;
#X text 11 178 2;
#X text 12 205 3;
#X text 10 229 4;
#X text 12 254 5;
#X text 11 278 6;
#X text 11 305 7;
#X text 10 329 8;
#X text 10 352 9;
#X text 9 376 10;
#X obj 31 18 loadbang;
#X connect 0 0 2 0;
#X connect 0 1 1 0;
#X connect 0 2 4 0;
#X connect 0 3 3 0;
#X connect 0 4 6 0;
#X connect 0 5 5 0;
#X connect 0 6 8 0;
#X connect 0 7 7 0;
#X connect 0 8 10 0;
#X connect 0 9 9 0;
#X connect 11 0 12 0;
#X connect 11 0 23 0;
#X connect 11 0 24 0;
#X connect 11 0 25 0;
#X connect 11 0 26 0;
#X connect 11 0 27 0;
#X connect 11 0 28 0;
#X connect 11 0 29 0;
#X connect 11 0 30 0;
#X connect 11 0 31 0;
#X connect 12 0 13 0;
#X connect 13 0 0 0;
#X connect 14 0 0 1;
#X connect 15 0 0 2;
#X connect 16 0 0 3;
#X connect 17 0 0 4;
#X connect 18 0 0 5;
#X connect 19 0 0 6;
#X connect 20 0 0 7;
#X connect 21 0 0 8;
#X connect 22 0 0 9;
#X connect 23 0 14 0;
#X connect 24 0 15 0;
#X connect 25 0 16 0;
#X connect 26 0 17 0;
#X connect 27 0 18 0;
#X connect 28 0 19 0;
#X connect 29 0 20 0;
#X connect 30 0 21 0;
#X connect 31 0 22 0;
#X connect 62 0 11 0;
#X restore -2450 20 pd 10x10.old;
#N canvas 698 525 450 300 6x6.old 0;
#X obj 37 157 tdh.util.6x6.audio.routing.matrix~;
#X obj 40 35 bng 15 250 50 0 empty empty empty 17 7 0 10 -262144 -1
-1;
#X msg 40 67 1;
#X obj 40 91 sig~;
#X obj 82 91 sig~;
#X obj 123 90 sig~;
#X obj 165 90 sig~;
#X obj 202 91 sig~;
#X obj 244 91 sig~;
#X msg 82 67 2;
#X msg 123 66 3;
#X msg 165 66 4;
#X msg 202 67 5;
#X msg 244 67 6;
#X text 17 160 1;
#X text 16 184 2;
#X text 17 211 3;
#X text 15 235 4;
#X text 17 260 5;
#X text 16 284 6;
#X obj 125 357 mgUiSnapshot;
#X obj 35 357 mgUiSnapshot;
#X obj 298 358 mgUiSnapshot;
#X obj 208 358 mgUiSnapshot;
#X obj 471 358 mgUiSnapshot;
#X obj 381 358 mgUiSnapshot;
#X text 59 399 a;
#X text 158 399 b;
#X text 243 399 c;
#X text 331 398 d;
#X text 408 398 e;
#X text 498 398 f;
#X text 53 134 a;
#X text 74 134 b;
#X text 98 134 c;
#X text 119 134 d;
#X text 144 134 e;
#X text 165 134 f;
#X obj 40 12 loadbang;
#X connect 0 0 21 0;
#X connect 0 1 20 0;
#X connect 0 2 23 0;
#X connect 0 3 22 0;
#X connect 0 4 25 0;
#X connect 0 5 24 0;
#X connect 1 0 2 0;
#X connect 1 0 9 0;
#X connect 1 0 10 0;
#X connect 1 0 11 0;
#X connect 1 0 12 0;
#X connect 1 0 13 0;
#X connect 2 0 3 0;
#X connect 3 0 0 0;
#X connect 4 0 0 1;
#X connect 5 0 0 2;
#X connect 6 0 0 3;
#X connect 7 0 0 4;
#X connect 8 0 0 5;
#X connect 9 0 4 0;
#X connect 10 0 5 0;
#X connect 11 0 6 0;
#X connect 12 0 7 0;
#X connect 13 0 8 0;
#X connect 38 0 1 0;
#X restore -2517 20 pd 6x6.old;
#X obj -1833 197 sig~;
#X obj -1791 197 sig~;
#X obj -1750 196 sig~;
#X obj -1708 196 sig~;
#X obj -1665 197 sig~;
#X obj -1623 197 sig~;
#X msg -1833 173 21;
#X msg -1791 173 22;
#X msg -1750 172 23;
#X msg -1708 172 24;
#X msg -1665 173 25;
#X msg -1623 173 26;
#X text -1965 232 21;
#X text -1938 232 22;
#X text -1913 232 23;
#X text -1888 232 24;
#X text -1866 232 25;
#X text -1843 232 26;
#X text -1824 277 A;
#X text -1823 301 B;
#X text -1823 325 C;
#X text -1822 349 D;
#X text -1821 373 E;
#X text -1821 397 F;
#X text -1821 421 G;
#X text -1821 445 H;
#X text -1822 469 I;
#X text -1823 494 J;
#X text -1822 519 K;
#X text -1823 544 L;
#X text -1821 568 M;
#X text -1822 593 N;
#X text -1821 617 O;
#X text -1821 641 P;
#X text -1823 665 Q;
#X text -1824 689 R;
#X text -1823 713 S;
#X text -1823 737 T;
#X text -1823 761 U;
#X text -1823 785 V;
#X text -1823 809 W;
#X text -1823 833 X;
#X text -1823 857 Y;
#X text -1823 881 Z;
#N canvas 0 22 450 300 snapshot 0;
#X obj 139 48 inlet~;
#X obj 140 163 snapshot~;
#X obj 208 101 metro 5;
#X obj 208 44 loadbang;
#X msg 209 74 1;
#X obj 139 198 outlet;
#X connect 0 0 1 0;
#X connect 1 0 5 0;
#X connect 2 0 1 0;
#X connect 3 0 4 0;
#X connect 4 0 2 0;
#X restore -2492 1097 pd snapshot;
#X floatatom -2492 1118 5 0 0 0 - - -, f 5;
#N canvas 0 22 450 300 snapshot 0;
#X obj 139 48 inlet~;
#X obj 140 163 snapshot~;
#X obj 208 101 metro 5;
#X obj 208 44 loadbang;
#X msg 209 74 1;
#X obj 139 198 outlet;
#X connect 0 0 1 0;
#X connect 1 0 5 0;
#X connect 2 0 1 0;
#X connect 3 0 4 0;
#X connect 4 0 2 0;
#X restore -2410 1097 pd snapshot;
#X floatatom -2410 1118 5 0 0 0 - - -, f 5;
#N canvas 0 22 450 300 snapshot 0;
#X obj 139 48 inlet~;
#X obj 140 163 snapshot~;
#X obj 208 101 metro 5;
#X obj 208 44 loadbang;
#X msg 209 74 1;
#X obj 139 198 outlet;
#X connect 0 0 1 0;
#X connect 1 0 5 0;
#X connect 2 0 1 0;
#X connect 3 0 4 0;
#X connect 4 0 2 0;
#X restore -2333 1097 pd snapshot;
#X floatatom -2333 1118 5 0 0 0 - - -, f 5;
#N canvas 0 22 450 300 snapshot 0;
#X obj 139 48 inlet~;
#X obj 140 163 snapshot~;
#X obj 208 101 metro 5;
#X obj 208 44 loadbang;
#X msg 209 74 1;
#X obj 139 198 outlet;
#X connect 0 0 1 0;
#X connect 1 0 5 0;
#X connect 2 0 1 0;
#X connect 3 0 4 0;
#X connect 4 0 2 0;
#X restore -2257 1097 pd snapshot;
#X floatatom -2257 1118 5 0 0 0 - - -, f 5;
#N canvas 0 22 450 300 snapshot 0;
#X obj 139 48 inlet~;
#X obj 140 163 snapshot~;
#X obj 208 101 metro 5;
#X obj 208 44 loadbang;
#X msg 209 74 1;
#X obj 139 198 outlet;
#X connect 0 0 1 0;
#X connect 1 0 5 0;
#X connect 2 0 1 0;
#X connect 3 0 4 0;
#X connect 4 0 2 0;
#X restore -2179 1097 pd snapshot;
#X floatatom -2179 1118 5 0 0 0 - - -, f 5;
#N canvas 0 22 450 300 snapshot 0;
#X obj 139 48 inlet~;
#X obj 140 163 snapshot~;
#X obj 208 101 metro 5;
#X obj 208 44 loadbang;
#X msg 209 74 1;
#X obj 139 198 outlet;
#X connect 0 0 1 0;
#X connect 1 0 5 0;
#X connect 2 0 1 0;
#X connect 3 0 4 0;
#X connect 4 0 2 0;
#X restore -2098 1097 pd snapshot;
#X floatatom -2098 1118 5 0 0 0 - - -, f 5;
#X text -2481 1133 U;
#X text -2401 1133 V;
#X text -2323 1133 W;
#X text -2249 1133 X;
#X text -2170 1133 Y;
#X text -2087 1133 Z;
#X obj -2456 254 tdh.util.26x26.audio.routing.matrix~v1.3;
#X floatatom -2013 1118 5 0 0 0 - - -, f 5;
#X text -2003 1133 AA;
#X text -612 1210 L;
#X text -528 1210 M;
#X text -454 1210 N;
#X text -376 1210 O;
#X text -303 1210 P;
#N canvas 0 22 450 300 snapshot 0;
#X obj 139 48 inlet~;
#X obj 140 163 snapshot~;
#X obj 208 101 metro 5;
#X obj 208 44 loadbang;
#X msg 209 74 1;
#X obj 139 198 outlet;
#X connect 0 0 1 0;
#X connect 1 0 5 0;
#X connect 2 0 1 0;
#X connect 3 0 4 0;
#X connect 4 0 2 0;
#X restore -860 1148 pd snapshot;
#X floatatom -860 1169 5 0 0 0 - - -, f 5;
#N canvas 0 22 450 300 snapshot 0;
#X obj 139 48 inlet~;
#X obj 140 163 snapshot~;
#X obj 208 101 metro 5;
#X obj 208 44 loadbang;
#X msg 209 74 1;
#X obj 139 198 outlet;
#X connect 0 0 1 0;
#X connect 1 0 5 0;
#X connect 2 0 1 0;
#X connect 3 0 4 0;
#X connect 4 0 2 0;
#X restore -780 1149 pd snapshot;
#X floatatom -780 1170 5 0 0 0 - - -, f 5;
#N canvas 0 22 450 300 snapshot 0;
#X obj 139 48 inlet~;
#X obj 140 163 snapshot~;
#X obj 208 101 metro 5;
#X obj 208 44 loadbang;
#X msg 209 74 1;
#X obj 139 198 outlet;
#X connect 0 0 1 0;
#X connect 1 0 5 0;
#X connect 2 0 1 0;
#X connect 3 0 4 0;
#X connect 4 0 2 0;
#X restore -701 1148 pd snapshot;
#X floatatom -701 1169 5 0 0 0 - - -, f 5;
#N canvas 0 22 450 300 snapshot 0;
#X obj 139 48 inlet~;
#X obj 140 163 snapshot~;
#X obj 208 101 metro 5;
#X obj 208 44 loadbang;
#X msg 209 74 1;
#X obj 139 198 outlet;
#X connect 0 0 1 0;
#X connect 1 0 5 0;
#X connect 2 0 1 0;
#X connect 3 0 4 0;
#X connect 4 0 2 0;
#X restore -621 1149 pd snapshot;
#X floatatom -621 1170 5 0 0 0 - - -, f 5;
#N canvas 0 22 450 300 snapshot 0;
#X obj 139 48 inlet~;
#X obj 140 163 snapshot~;
#X obj 208 101 metro 5;
#X obj 208 44 loadbang;
#X msg 209 74 1;
#X obj 139 198 outlet;
#X connect 0 0 1 0;
#X connect 1 0 5 0;
#X connect 2 0 1 0;
#X connect 3 0 4 0;
#X connect 4 0 2 0;
#X restore -545 1148 pd snapshot;
#X floatatom -545 1169 5 0 0 0 - - -, f 5;
#N canvas 0 22 450 300 snapshot 0;
#X obj 139 48 inlet~;
#X obj 140 163 snapshot~;
#X obj 208 101 metro 5;
#X obj 208 44 loadbang;
#X msg 209 74 1;
#X obj 139 198 outlet;
#X connect 0 0 1 0;
#X connect 1 0 5 0;
#X connect 2 0 1 0;
#X connect 3 0 4 0;
#X connect 4 0 2 0;
#X restore -470 1149 pd snapshot;
#X floatatom -470 1170 5 0 0 0 - - -, f 5;
#N canvas 0 22 450 300 snapshot 0;
#X obj 139 48 inlet~;
#X obj 140 163 snapshot~;
#X obj 208 101 metro 5;
#X obj 208 44 loadbang;
#X msg 209 74 1;
#X obj 139 198 outlet;
#X connect 0 0 1 0;
#X connect 1 0 5 0;
#X connect 2 0 1 0;
#X connect 3 0 4 0;
#X connect 4 0 2 0;
#X restore -395 1149 pd snapshot;
#X floatatom -395 1170 5 0 0 0 - - -, f 5;
#N canvas 0 22 450 300 snapshot 0;
#X obj 139 48 inlet~;
#X obj 140 163 snapshot~;
#X obj 208 101 metro 5;
#X obj 208 44 loadbang;
#X msg 209 74 1;
#X obj 139 198 outlet;
#X connect 0 0 1 0;
#X connect 1 0 5 0;
#X connect 2 0 1 0;
#X connect 3 0 4 0;
#X connect 4 0 2 0;
#X restore -320 1149 pd snapshot;
#X floatatom -320 1170 5 0 0 0 - - -, f 5;
#N canvas 0 22 450 300 snapshot 0;
#X obj 139 48 inlet~;
#X obj 140 163 snapshot~;
#X obj 208 101 metro 5;
#X obj 208 44 loadbang;
#X msg 209 74 1;
#X obj 139 198 outlet;
#X connect 0 0 1 0;
#X connect 1 0 5 0;
#X connect 2 0 1 0;
#X connect 3 0 4 0;
#X connect 4 0 2 0;
#X restore -244 1147 pd snapshot;
#X floatatom -244 1168 5 0 0 0 - - -, f 5;
#N canvas 0 22 450 300 snapshot 0;
#X obj 139 48 inlet~;
#X obj 140 163 snapshot~;
#X obj 208 101 metro 5;
#X obj 208 44 loadbang;
#X msg 209 74 1;
#X obj 139 198 outlet;
#X connect 0 0 1 0;
#X connect 1 0 5 0;
#X connect 2 0 1 0;
#X connect 3 0 4 0;
#X connect 4 0 2 0;
#X restore -168 1147 pd snapshot;
#X floatatom -168 1168 5 0 0 0 - - -, f 5;
#N canvas 0 22 450 300 snapshot 0;
#X obj 139 48 inlet~;
#X obj 140 163 snapshot~;
#X obj 208 101 metro 5;
#X obj 208 44 loadbang;
#X msg 209 74 1;
#X obj 139 198 outlet;
#X connect 0 0 1 0;
#X connect 1 0 5 0;
#X connect 2 0 1 0;
#X connect 3 0 4 0;
#X connect 4 0 2 0;
#X restore -733 1188 pd snapshot;
#X floatatom -734 1209 5 0 0 0 - - -, f 5;
#N canvas 0 22 450 300 snapshot 0;
#X obj 139 48 inlet~;
#X obj 140 163 snapshot~;
#X obj 208 101 metro 5;
#X obj 208 44 loadbang;
#X msg 209 74 1;
#X obj 139 198 outlet;
#X connect 0 0 1 0;
#X connect 1 0 5 0;
#X connect 2 0 1 0;
#X connect 3 0 4 0;
#X connect 4 0 2 0;
#X restore -654 1189 pd snapshot;
#X floatatom -654 1210 5 0 0 0 - - -, f 5;
#N canvas 0 22 450 300 snapshot 0;
#X obj 139 48 inlet~;
#X obj 140 163 snapshot~;
#X obj 208 101 metro 5;
#X obj 208 44 loadbang;
#X msg 209 74 1;
#X obj 139 198 outlet;
#X connect 0 0 1 0;
#X connect 1 0 5 0;
#X connect 2 0 1 0;
#X connect 3 0 4 0;
#X connect 4 0 2 0;
#X restore -573 1189 pd snapshot;
#X floatatom -573 1210 5 0 0 0 - - -, f 5;
#N canvas 0 22 450 300 snapshot 0;
#X obj 139 48 inlet~;
#X obj 140 163 snapshot~;
#X obj 208 101 metro 5;
#X obj 208 44 loadbang;
#X msg 209 74 1;
#X obj 139 198 outlet;
#X connect 0 0 1 0;
#X connect 1 0 5 0;
#X connect 2 0 1 0;
#X connect 3 0 4 0;
#X connect 4 0 2 0;
#X restore -497 1189 pd snapshot;
#X floatatom -497 1210 5 0 0 0 - - -, f 5;
#N canvas 0 22 450 300 snapshot 0;
#X obj 139 48 inlet~;
#X obj 140 163 snapshot~;
#X obj 208 101 metro 5;
#X obj 208 44 loadbang;
#X msg 209 74 1;
#X obj 139 198 outlet;
#X connect 0 0 1 0;
#X connect 1 0 5 0;
#X connect 2 0 1 0;
#X connect 3 0 4 0;
#X connect 4 0 2 0;
#X restore -421 1189 pd snapshot;
#X floatatom -421 1210 5 0 0 0 - - -, f 5;
#N canvas 0 22 450 300 snapshot 0;
#X obj 139 48 inlet~;
#X obj 140 163 snapshot~;
#X obj 208 101 metro 5;
#X obj 208 44 loadbang;
#X msg 209 74 1;
#X obj 139 198 outlet;
#X connect 0 0 1 0;
#X connect 1 0 5 0;
#X connect 2 0 1 0;
#X connect 3 0 4 0;
#X connect 4 0 2 0;
#X restore -343 1189 pd snapshot;
#X floatatom -343 1210 5 0 0 0 - - -, f 5;
#X text -828 1169 A;
#X text -741 1169 B;
#X text -668 1169 C;
#X text -586 1169 D;
#X text -507 1169 E;
#X text -437 1169 F;
#X text -358 1170 G;
#X text -289 1169 H;
#X text -208 1169 I;
#X text -134 1169 J;
#X text -694 1209 K;
#N canvas 0 22 450 300 snapshot 0;
#X obj 139 48 inlet~;
#X obj 140 163 snapshot~;
#X obj 208 101 metro 5;
#X obj 208 44 loadbang;
#X msg 209 74 1;
#X obj 139 198 outlet;
#X connect 0 0 1 0;
#X connect 1 0 5 0;
#X connect 2 0 1 0;
#X connect 3 0 4 0;
#X connect 4 0 2 0;
#X restore -265 1189 pd snapshot;
#X floatatom -265 1210 5 0 0 0 - - -, f 5;
#N canvas 0 22 450 300 snapshot 0;
#X obj 139 48 inlet~;
#X obj 140 163 snapshot~;
#X obj 208 101 metro 5;
#X obj 208 44 loadbang;
#X msg 209 74 1;
#X obj 139 198 outlet;
#X connect 0 0 1 0;
#X connect 1 0 5 0;
#X connect 2 0 1 0;
#X connect 3 0 4 0;
#X connect 4 0 2 0;
#X restore -191 1189 pd snapshot;
#X floatatom -191 1210 5 0 0 0 - - -, f 5;
#N canvas 0 22 450 300 snapshot 0;
#X obj 139 48 inlet~;
#X obj 140 163 snapshot~;
#X obj 208 101 metro 5;
#X obj 208 44 loadbang;
#X msg 209 74 1;
#X obj 139 198 outlet;
#X connect 0 0 1 0;
#X connect 1 0 5 0;
#X connect 2 0 1 0;
#X connect 3 0 4 0;
#X connect 4 0 2 0;
#X restore -113 1189 pd snapshot;
#X floatatom -113 1210 5 0 0 0 - - -, f 5;
#N canvas 0 22 450 300 snapshot 0;
#X obj 139 48 inlet~;
#X obj 140 163 snapshot~;
#X obj 208 101 metro 5;
#X obj 208 44 loadbang;
#X msg 209 74 1;
#X obj 139 198 outlet;
#X connect 0 0 1 0;
#X connect 1 0 5 0;
#X connect 2 0 1 0;
#X connect 3 0 4 0;
#X connect 4 0 2 0;
#X restore -35 1189 pd snapshot;
#X floatatom -35 1210 5 0 0 0 - - -, f 5;
#X text -219 1210 Q;
#X text -147 1210 R;
#X text -68 1210 S;
#X text 5 1210 T;
#N canvas 0 22 450 300 snapshot 0;
#X obj 139 48 inlet~;
#X obj 140 163 snapshot~;
#X obj 208 101 metro 5;
#X obj 208 44 loadbang;
#X msg 209 74 1;
#X obj 139 198 outlet;
#X connect 0 0 1 0;
#X connect 1 0 5 0;
#X connect 2 0 1 0;
#X connect 3 0 4 0;
#X connect 4 0 2 0;
#X restore -573 1228 pd snapshot;
#X floatatom -573 1249 5 0 0 0 - - -, f 5;
#N canvas 0 22 450 300 snapshot 0;
#X obj 139 48 inlet~;
#X obj 140 163 snapshot~;
#X obj 208 101 metro 5;
#X obj 208 44 loadbang;
#X msg 209 74 1;
#X obj 139 198 outlet;
#X connect 0 0 1 0;
#X connect 1 0 5 0;
#X connect 2 0 1 0;
#X connect 3 0 4 0;
#X connect 4 0 2 0;
#X restore -491 1228 pd snapshot;
#X floatatom -491 1249 5 0 0 0 - - -, f 5;
#N canvas 0 22 450 300 snapshot 0;
#X obj 139 48 inlet~;
#X obj 140 163 snapshot~;
#X obj 208 101 metro 5;
#X obj 208 44 loadbang;
#X msg 209 74 1;
#X obj 139 198 outlet;
#X connect 0 0 1 0;
#X connect 1 0 5 0;
#X connect 2 0 1 0;
#X connect 3 0 4 0;
#X connect 4 0 2 0;
#X restore -414 1228 pd snapshot;
#X floatatom -414 1249 5 0 0 0 - - -, f 5;
#N canvas 0 22 450 300 snapshot 0;
#X obj 139 48 inlet~;
#X obj 140 163 snapshot~;
#X obj 208 101 metro 5;
#X obj 208 44 loadbang;
#X msg 209 74 1;
#X obj 139 198 outlet;
#X connect 0 0 1 0;
#X connect 1 0 5 0;
#X connect 2 0 1 0;
#X connect 3 0 4 0;
#X connect 4 0 2 0;
#X restore -338 1228 pd snapshot;
#X floatatom -338 1249 5 0 0 0 - - -, f 5;
#N canvas 0 22 450 300 snapshot 0;
#X obj 139 48 inlet~;
#X obj 140 163 snapshot~;
#X obj 208 101 metro 5;
#X obj 208 44 loadbang;
#X msg 209 74 1;
#X obj 139 198 outlet;
#X connect 0 0 1 0;
#X connect 1 0 5 0;
#X connect 2 0 1 0;
#X connect 3 0 4 0;
#X connect 4 0 2 0;
#X restore -258 1228 pd snapshot;
#X floatatom -258 1249 5 0 0 0 - - -, f 5;
#N canvas 0 22 450 300 snapshot 0;
#X obj 139 48 inlet~;
#X obj 140 163 snapshot~;
#X obj 208 101 metro 5;
#X obj 208 44 loadbang;
#X msg 209 74 1;
#X obj 139 198 outlet;
#X connect 0 0 1 0;
#X connect 1 0 5 0;
#X connect 2 0 1 0;
#X connect 3 0 4 0;
#X connect 4 0 2 0;
#X restore -182 1228 pd snapshot;
#X floatatom -182 1249 5 0 0 0 - - -, f 5;
#X text -532 1251 U;
#X text -452 1251 V;
#X text -374 1251 W;
#X text -300 1251 X;
#X text -219 1251 Y;
#X text -141 1251 Z;
#N canvas 0 22 450 300 snapshot 0;
#X obj 139 48 inlet~;
#X obj 140 163 snapshot~;
#X obj 208 101 metro 5;
#X obj 208 44 loadbang;
#X msg 209 74 1;
#X obj 139 198 outlet;
#X connect 0 0 1 0;
#X connect 1 0 5 0;
#X connect 2 0 1 0;
#X connect 3 0 4 0;
#X connect 4 0 2 0;
#X restore -434 1274 pd snapshot;
#X floatatom -434 1295 5 0 0 0 - - -, f 5;
#N canvas 0 22 450 300 snapshot 0;
#X obj 139 48 inlet~;
#X obj 140 163 snapshot~;
#X obj 208 101 metro 5;
#X obj 208 44 loadbang;
#X msg 209 74 1;
#X obj 139 198 outlet;
#X connect 0 0 1 0;
#X connect 1 0 5 0;
#X connect 2 0 1 0;
#X connect 3 0 4 0;
#X connect 4 0 2 0;
#X restore -354 1279 pd snapshot;
#X floatatom -354 1300 5 0 0 0 - - -, f 5;
#N canvas 0 22 450 300 snapshot 0;
#X obj 139 48 inlet~;
#X obj 140 163 snapshot~;
#X obj 208 101 metro 5;
#X obj 208 44 loadbang;
#X msg 209 74 1;
#X obj 139 198 outlet;
#X connect 0 0 1 0;
#X connect 1 0 5 0;
#X connect 2 0 1 0;
#X connect 3 0 4 0;
#X connect 4 0 2 0;
#X restore -270 1283 pd snapshot;
#X floatatom -270 1304 5 0 0 0 - - -, f 5;
#N canvas 0 22 450 300 snapshot 0;
#X obj 139 48 inlet~;
#X obj 140 163 snapshot~;
#X obj 208 101 metro 5;
#X obj 208 44 loadbang;
#X msg 209 74 1;
#X obj 139 198 outlet;
#X connect 0 0 1 0;
#X connect 1 0 5 0;
#X connect 2 0 1 0;
#X connect 3 0 4 0;
#X connect 4 0 2 0;
#X restore 52 1076 pd snapshot;
#X floatatom 52 1097 5 0 0 0 - - -, f 5;
#N canvas 0 22 450 300 snapshot 0;
#X obj 139 48 inlet~;
#X obj 140 163 snapshot~;
#X obj 208 101 metro 5;
#X obj 208 44 loadbang;
#X msg 209 74 1;
#X obj 139 198 outlet;
#X connect 0 0 1 0;
#X connect 1 0 5 0;
#X connect 2 0 1 0;
#X connect 3 0 4 0;
#X connect 4 0 2 0;
#X restore -106 1229 pd snapshot;
#X floatatom -106 1250 5 0 0 0 - - -, f 5;
#N canvas 0 22 450 300 snapshot 0;
#X obj 139 48 inlet~;
#X obj 140 163 snapshot~;
#X obj 208 101 metro 5;
#X obj 208 44 loadbang;
#X msg 209 74 1;
#X obj 139 198 outlet;
#X connect 0 0 1 0;
#X connect 1 0 5 0;
#X connect 2 0 1 0;
#X connect 3 0 4 0;
#X connect 4 0 2 0;
#X restore -33 1229 pd snapshot;
#X floatatom -33 1250 5 0 0 0 - - -, f 5;
#N canvas 0 22 450 300 snapshot 0;
#X obj 139 48 inlet~;
#X obj 140 163 snapshot~;
#X obj 208 101 metro 5;
#X obj 208 44 loadbang;
#X msg 209 74 1;
#X obj 139 198 outlet;
#X connect 0 0 1 0;
#X connect 1 0 5 0;
#X connect 2 0 1 0;
#X connect 3 0 4 0;
#X connect 4 0 2 0;
#X restore 45 1230 pd snapshot;
#X floatatom 45 1251 5 0 0 0 - - -, f 5;
#N canvas 0 22 450 300 snapshot 0;
#X obj 139 48 inlet~;
#X obj 140 163 snapshot~;
#X obj 208 101 metro 5;
#X obj 208 44 loadbang;
#X msg 209 74 1;
#X obj 139 198 outlet;
#X connect 0 0 1 0;
#X connect 1 0 5 0;
#X connect 2 0 1 0;
#X connect 3 0 4 0;
#X connect 4 0 2 0;
#X restore -530 1274 pd snapshot;
#X floatatom -530 1295 5 0 0 0 - - -, f 5;
#X text -66 1252 AA;
#X text 5 1252 BB;
#X text 84 1253 CC;
#X text -489 1297 DD;
#X text -393 1300 EE;
#X text -315 1305 FF;
#X text -230 1309 GG;
#X text 90 1102 HH;
#X obj -40 121 bng 15 250 50 0 empty empty empty 17 7 0 10 -262144
-1 -1;
#X msg -939 214 1;
#X obj -939 238 sig~;
#X obj -908 238 sig~;
#X obj -878 238 sig~;
#X obj -848 238 sig~;
#X obj -817 238 sig~;
#X obj -786 238 sig~;
#X obj -755 238 sig~;
#X obj -725 238 sig~;
#X obj -694 238 sig~;
#X obj -664 238 sig~;
#X msg -908 214 2;
#X msg -878 214 3;
#X msg -848 214 4;
#X msg -817 214 5;
#X msg -786 214 6;
#X msg -755 214 7;
#X msg -725 214 8;
#X msg -694 214 9;
#X msg -664 214 10;
#X obj -40 93 loadbang;
#X text -764 272 2;
#X text -739 272 3;
#X text -715 272 4;
#X text -692 272 5;
#X text -668 272 6;
#X text -643 272 7;
#X text -620 272 8, f 2;
#X text -600 272 9;
#X text -575 272 10;
#X text -549 272 11;
#X text -527 272 12;
#X text -504 272 13;
#X text -483 272 14;
#X text -460 272 15;
#X text -433 272 16;
#X text -408 272 17;
#X text -383 272 18;
#X text -361 272 19;
#X text -338 272 20;
#X text -786 272 1;
#X obj -634 238 sig~;
#X obj -604 238 sig~;
#X obj -574 238 sig~;
#X obj -544 238 sig~;
#X obj -513 238 sig~;
#X obj -482 238 sig~;
#X obj -451 238 sig~;
#X obj -421 238 sig~;
#X obj -390 238 sig~;
#X obj -360 238 sig~;
#X msg -634 214 11;
#X msg -604 214 12;
#X msg -574 214 13;
#X msg -544 214 14;
#X msg -513 214 15;
#X msg -482 214 16;
#X msg -451 214 17;
#X msg -421 214 18;
#X msg -390 214 19;
#X msg -360 214 20;
#X obj -330 238 sig~;
#X obj -299 238 sig~;
#X obj -269 238 sig~;
#X obj -238 238 sig~;
#X obj -207 238 sig~;
#X obj -176 238 sig~;
#X msg -330 214 21;
#X msg -299 214 22;
#X msg -269 214 23;
#X msg -238 214 24;
#X msg -207 214 25;
#X msg -176 214 26;
#X text -310 272 21;
#X text -283 272 22;
#X text -258 272 23;
#X text -233 272 24;
#X text -211 272 25;
#X text -188 272 26;
#X obj -145 238 sig~;
#X obj -115 238 sig~;
#X obj -85 238 sig~;
#X obj -54 238 sig~;
#X obj -24 238 sig~;
#X obj 7 238 sig~;
#X obj 38 238 sig~;
#X obj 69 238 sig~;
#X text 34 296 A;
#X text 34 320 B;
#X text 34 344 C;
#X text 34 370 D;
#X text 34 394 E;
#X text 34 418 F;
#X text 34 442 G;
#X text 34 466 H;
#X text 34 491 I;
#X text 34 514 J;
#X text 34 540 K;
#X text 34 564 L;
#X text 33 587 M;
#X text 34 613 N;
#X text 34 637 O;
#X text 34 661 P;
#X text 34 683 Q;
#X text 34 710 R;
#X text 35 733 S;
#X text 34 757 T;
#X text 34 781 U;
#X text 34 804 V;
#X text 34 828 W;
#X text 34 852 X;
#X text 35 876 Y;
#X text 35 902 Z;
#X text 35 936 AA;
#X text 35 960 BB;
#X text 35 983 CC;
#X text 35 1006 DD;
#X text 35 1030 EE;
#X text 35 1054 FF;
#X text 36 1078 GG;
#X text 35 1104 HH;
#X msg -145 214 27;
#X msg -115 214 28;
#X msg -85 214 29;
#X msg -54 214 30;
#X msg -24 214 31;
#X msg 7 214 32;
#X msg 38 214 33;
#X msg 69 214 34;
#X text -155 272 27;
#X text -132 272 28;
#X text -109 272 29;
#X text -82 272 30;
#X text -57 272 31;
#X text -32 272 32;
#X text -10 272 33;
#X text 13 272 34;
#X obj -795 294 tdh.util.34x34.audio.routing.matrix~v0.1;
#X connect 0 0 1 0;
#X connect 0 0 12 0;
#X connect 0 0 13 0;
#X connect 0 0 14 0;
#X connect 0 0 15 0;
#X connect 0 0 16 0;
#X connect 0 0 17 0;
#X connect 0 0 18 0;
#X connect 0 0 19 0;
#X connect 0 0 20 0;
#X connect 0 0 52 0;
#X connect 0 0 53 0;
#X connect 0 0 54 0;
#X connect 0 0 55 0;
#X connect 0 0 56 0;
#X connect 0 0 57 0;
#X connect 0 0 58 0;
#X connect 0 0 59 0;
#X connect 0 0 60 0;
#X connect 0 0 61 0;
#X connect 0 0 131 0;
#X connect 0 0 132 0;
#X connect 0 0 133 0;
#X connect 0 0 134 0;
#X connect 0 0 135 0;
#X connect 0 0 136 0;
#X connect 1 0 2 0;
#X connect 2 0 187 0;
#X connect 3 0 187 1;
#X connect 4 0 187 2;
#X connect 5 0 187 3;
#X connect 6 0 187 4;
#X connect 7 0 187 5;
#X connect 8 0 187 6;
#X connect 9 0 187 7;
#X connect 10 0 187 8;
#X connect 11 0 187 9;
#X connect 12 0 3 0;
#X connect 13 0 4 0;
#X connect 14 0 5 0;
#X connect 15 0 6 0;
#X connect 16 0 7 0;
#X connect 17 0 8 0;
#X connect 18 0 9 0;
#X connect 19 0 10 0;
#X connect 20 0 11 0;
#X connect 21 0 0 0;
#X connect 42 0 187 10;
#X connect 43 0 187 11;
#X connect 44 0 187 12;
#X connect 45 0 187 13;
#X connect 46 0 187 14;
#X connect 47 0 187 15;
#X connect 48 0 187 16;
#X connect 49 0 187 17;
#X connect 50 0 187 18;
#X connect 51 0 187 19;
#X connect 52 0 42 0;
#X connect 53 0 43 0;
#X connect 54 0 44 0;
#X connect 55 0 45 0;
#X connect 56 0 46 0;
#X connect 57 0 47 0;
#X connect 58 0 48 0;
#X connect 59 0 49 0;
#X connect 60 0 50 0;
#X connect 61 0 51 0;
#X connect 67 0 68 0;
#X connect 69 0 70 0;
#X connect 71 0 72 0;
#X connect 73 0 74 0;
#X connect 75 0 76 0;
#X connect 77 0 78 0;
#X connect 79 0 80 0;
#X connect 81 0 82 0;
#X connect 83 0 84 0;
#X connect 85 0 86 0;
#X connect 87 0 88 0;
#X connect 89 0 90 0;
#X connect 91 0 92 0;
#X connect 93 0 94 0;
#X connect 95 0 96 0;
#X connect 97 0 98 0;
#X connect 110 0 111 0;
#X connect 112 0 113 0;
#X connect 114 0 115 0;
#X connect 116 0 117 0;
#X connect 125 0 187 20;
#X connect 126 0 187 21;
#X connect 127 0 187 22;
#X connect 128 0 187 23;
#X connect 129 0 187 24;
#X connect 130 0 187 25;
#X connect 131 0 125 0;
#X connect 132 0 126 0;
#X connect 133 0 127 0;
#X connect 134 0 128 0;
#X connect 135 0 129 0;
#X connect 136 0 130 0;
#X connect 169 0 170 0;
#X connect 171 0 172 0;
#X connect 173 0 174 0;
#X connect 175 0 176 0;
#X connect 177 0 178 0;
#X connect 179 0 180 0;
#X connect 187 0 67 0;
#X connect 187 1 69 0;
#X connect 187 2 71 0;
#X connect 187 3 73 0;
#X connect 187 4 75 0;
#X connect 187 5 77 0;
#X connect 187 6 79 0;
#X connect 187 7 81 0;
#X connect 187 8 83 0;
#X connect 187 9 85 0;
#X connect 187 10 87 0;
#X connect 187 11 89 0;
#X connect 187 12 91 0;
#X connect 187 13 93 0;
#X connect 187 14 95 0;
#X connect 187 15 97 0;
#X connect 187 16 110 0;
#X connect 187 17 112 0;
#X connect 187 18 114 0;
#X connect 187 19 116 0;
#X connect 187 20 169 0;
#X connect 187 21 171 0;
#X connect 187 22 173 0;
#X connect 187 23 175 0;
#X connect 187 24 177 0;
#X connect 187 25 179 0;
#X connect 195 0 196 0;
#X connect 197 0 198 0;
#X connect 199 0 200 0;
#X connect 201 0 202 0;
#X connect 203 0 204 0;
#X connect 205 0 206 0;
#X connect 207 0 208 0;
#X connect 209 0 210 0;
#X connect 211 0 212 0;
#X connect 213 0 214 0;
#X connect 215 0 216 0;
#X connect 217 0 218 0;
#X connect 219 0 220 0;
#X connect 221 0 222 0;
#X connect 223 0 224 0;
#X connect 225 0 226 0;
#X connect 238 0 239 0;
#X connect 240 0 241 0;
#X connect 242 0 243 0;
#X connect 244 0 245 0;
#X connect 250 0 251 0;
#X connect 252 0 253 0;
#X connect 254 0 255 0;
#X connect 256 0 257 0;
#X connect 258 0 259 0;
#X connect 260 0 261 0;
#X connect 268 0 269 0;
#X connect 270 0 271 0;
#X connect 272 0 273 0;
#X connect 274 0 275 0;
#X connect 276 0 277 0;
#X connect 278 0 279 0;
#X connect 280 0 281 0;
#X connect 282 0 283 0;
#X connect 292 0 293 0;
#X connect 292 0 304 0;
#X connect 292 0 305 0;
#X connect 292 0 306 0;
#X connect 292 0 307 0;
#X connect 292 0 308 0;
#X connect 292 0 309 0;
#X connect 292 0 310 0;
#X connect 292 0 311 0;
#X connect 292 0 312 0;
#X connect 292 0 344 0;
#X connect 292 0 345 0;
#X connect 292 0 346 0;
#X connect 292 0 347 0;
#X connect 292 0 348 0;
#X connect 292 0 349 0;
#X connect 292 0 350 0;
#X connect 292 0 351 0;
#X connect 292 0 352 0;
#X connect 292 0 353 0;
#X connect 292 0 360 0;
#X connect 292 0 361 0;
#X connect 292 0 362 0;
#X connect 292 0 363 0;
#X connect 292 0 364 0;
#X connect 292 0 365 0;
#X connect 292 0 414 0;
#X connect 292 0 415 0;
#X connect 292 0 416 0;
#X connect 292 0 417 0;
#X connect 292 0 418 0;
#X connect 292 0 419 0;
#X connect 292 0 420 0;
#X connect 292 0 421 0;
#X connect 293 0 294 0;
#X connect 294 0 430 0;
#X connect 295 0 430 1;
#X connect 296 0 430 2;
#X connect 297 0 430 3;
#X connect 298 0 430 4;
#X connect 299 0 430 5;
#X connect 300 0 430 6;
#X connect 301 0 430 7;
#X connect 302 0 430 8;
#X connect 303 0 430 9;
#X connect 304 0 295 0;
#X connect 305 0 296 0;
#X connect 306 0 297 0;
#X connect 307 0 298 0;
#X connect 308 0 299 0;
#X connect 309 0 300 0;
#X connect 310 0 301 0;
#X connect 311 0 302 0;
#X connect 312 0 303 0;
#X connect 313 0 292 0;
#X connect 334 0 430 10;
#X connect 335 0 430 11;
#X connect 336 0 430 12;
#X connect 337 0 430 13;
#X connect 338 0 430 14;
#X connect 339 0 430 15;
#X connect 340 0 430 16;
#X connect 341 0 430 17;
#X connect 342 0 430 18;
#X connect 343 0 430 19;
#X connect 344 0 334 0;
#X connect 345 0 335 0;
#X connect 346 0 336 0;
#X connect 347 0 337 0;
#X connect 348 0 338 0;
#X connect 349 0 339 0;
#X connect 350 0 340 0;
#X connect 351 0 341 0;
#X connect 352 0 342 0;
#X connect 353 0 343 0;
#X connect 354 0 430 20;
#X connect 355 0 430 21;
#X connect 356 0 430 22;
#X connect 357 0 430 23;
#X connect 358 0 430 24;
#X connect 359 0 430 25;
#X connect 360 0 354 0;
#X connect 361 0 355 0;
#X connect 362 0 356 0;
#X connect 363 0 357 0;
#X connect 364 0 358 0;
#X connect 365 0 359 0;
#X connect 372 0 430 26;
#X connect 373 0 430 27;
#X connect 374 0 430 28;
#X connect 375 0 430 29;
#X connect 376 0 430 30;
#X connect 377 0 430 31;
#X connect 378 0 430 32;
#X connect 379 0 430 33;
#X connect 414 0 372 0;
#X connect 415 0 373 0;
#X connect 416 0 374 0;
#X connect 417 0 375 0;
#X connect 418 0 376 0;
#X connect 419 0 377 0;
#X connect 420 0 378 0;
#X connect 421 0 379 0;
#X connect 430 0 195 0;
#X connect 430 1 197 0;
#X connect 430 2 199 0;
#X connect 430 3 201 0;
#X connect 430 4 203 0;
#X connect 430 5 205 0;
#X connect 430 6 207 0;
#X connect 430 7 209 0;
#X connect 430 8 211 0;
#X connect 430 9 213 0;
#X connect 430 10 215 0;
#X connect 430 11 217 0;
#X connect 430 12 219 0;
#X connect 430 13 221 0;
#X connect 430 14 223 0;
#X connect 430 15 225 0;
#X connect 430 16 238 0;
#X connect 430 17 240 0;
#X connect 430 18 242 0;
#X connect 430 19 244 0;
#X connect 430 20 250 0;
#X connect 430 21 252 0;
#X connect 430 22 254 0;
#X connect 430 23 256 0;
#X connect 430 24 258 0;
#X connect 430 25 260 0;
#X connect 430 26 276 0;
#X connect 430 27 278 0;
#X connect 430 28 280 0;
#X connect 430 29 282 0;
#X connect 430 30 268 0;
#X connect 430 31 270 0;
#X connect 430 32 272 0;
#X connect 430 33 274 0;
