#N canvas 1440 -209 1920 1035 10;
#X obj 189 338 soundfiler;
#N canvas 0 22 450 278 (subpatch) 0;
#X array sound1 88245 float 2;
#X coords 0 1 88245 -1 200 140 1 0 0;
#X restore 461 79 graph;
#X msg 189 312 read -resize ../SoundLibrary/celloA3.aiff sound1;
#N canvas 0 0 450 300 (subpatch) 0;
#X array spectrum1 1024 float 0;
#X coords 0 1000 1023 -40 500 130 1 0 0;
#X restore 1048 511 graph;
#X text 1141 489 SPECTRUM;
#N canvas 2510 353 579 378 fft 1;
#X obj 21 46 inlet~;
#X obj 85 214 inlet;
#X obj 21 69 rfft~;
#X obj 19 125 *~;
#X obj 50 125 *~;
#X obj 19 155 sqrt~;
#X obj 332 92 block~ 4096 1;
#X obj 103 180 biquad~ 0 0 0 0 1;
#X text 83 81 Fourier series;
#X text 88 154 magnitude;
#X text 83 101 calculate;
#X text 21 3 This subpatch computes the spectrum of the incoming signal
with a (rectangular windowed) FFT. FFTs aren't properly introduced
until much later.;
#X text 83 61 signal to analyze;
#X text 182 154 delay two samples;
#X text 182 174 for better graphing;
#X text 135 213 "bang" into this inlet to graph it;
#X obj 85 237 tabwrite~ spectrum1;
#X text 103 -25 NOTE: THIS SUBPATCH IS TAKEN FROM THE PD TUTORIAL 30
;
#X connect 0 0 2 0;
#X connect 1 0 16 0;
#X connect 2 0 3 0;
#X connect 2 0 3 1;
#X connect 2 1 4 0;
#X connect 2 1 4 1;
#X connect 3 0 5 0;
#X connect 4 0 5 0;
#X connect 5 0 7 0;
#X connect 5 0 16 0;
#X restore 226 886 pd fft;
#X obj 83 827 dac~ 1 2;
#X floatatom 188 479 5 0 0 0 - - -, f 5;
#X obj 188 498 * 1000;
#X floatatom 188 522 5 0 0 0 - - -, f 5;
#X obj 172 750 line~;
#X text 248 460 <-- sample rate (samples per second);
#X text 249 482 <-- array duration in seconds;
#X text 246 502 <-- convert to millseconds;
#X text 248 524 <-- array duration in ms;
#X obj 179 792 tabread4~ sound1;
#X floatatom 189 359 5 0 0 0 - - -, f 5;
#X obj 227 416 samplerate~;
#X obj 188 458 / 48000;
#X floatatom 280 441 5 0 0 0 - - -, f 5;
#X obj 172 694 pack 0 0;
#X obj 190 247 loadbang;
#X obj 190 268 t b b;
#X msg 172 728 0 \, \$2 \$1;
#X obj 95 393 s array-len-\$0;
#X obj 231 613 r array-len-\$0;
#X obj 216 640 f;
#X obj 172 643 f;
#X obj 133 587 t b b;
#X obj 133 543 bng 15 250 50 0 empty empty empty 17 7 0 10 -262144
-1 -1;
#X obj 310 841 metro 5;
#X obj 310 799 loadbang;
#X msg 310 820 1;
#X obj 255 247 bng 15 250 50 0 empty empty empty 17 7 0 10 -262144
-1 -1;
#X obj 386 874 bng 15 250 50 0 empty empty empty 17 7 0 10 -262144
-1 -1;
#X obj 450 937 osc~ 440;
#X floatatom 449 917 5 0 0 0 - - -, f 5;
#X text 229 360 <-- array length;
#X text 272 248 <-- click here to simulate loadbang;
#X text 362 817 subpatch outputs spectrum when it receives a bang at
inlet 2 \, so this metro constantly tells it to output the spectrum
;
#X obj 674 925 line;
#X msg 672 881 0 \, 40000 10000;
#X text 1042 654 20;
#X text 1068 653 500;
#X text 1083 667 1000;
#X text 1124 652 2000;
#X text 1214 652 4000;
#X text 1053 667 250;
#X text 1044 639 |;
#X text 1058 639 |;
#X text 1068 639 |;
#X text 1088 639 |;
#X text 1133 639 |;
#X text 1224 639 |;
#X text 1314 639 |;
#X text 1305 652 6000;
#X text 1407 639 |;
#X text 1396 652 8000;
#X text 1497 639 |;
#X text 1486 652 10000;
#X text 1543 639 |;
#X text 1532 652 11000;
#X connect 0 0 16 0;
#X connect 2 0 0 0;
#X connect 7 0 8 0;
#X connect 8 0 9 0;
#X connect 9 0 27 1;
#X connect 10 0 15 0;
#X connect 15 0 6 0;
#X connect 15 0 6 1;
#X connect 15 0 5 0;
#X connect 16 0 18 0;
#X connect 16 0 24 0;
#X connect 17 0 19 0;
#X connect 17 0 18 1;
#X connect 18 0 7 0;
#X connect 20 0 23 0;
#X connect 21 0 22 0;
#X connect 22 0 2 0;
#X connect 22 1 17 0;
#X connect 23 0 10 0;
#X connect 25 0 26 1;
#X connect 26 0 20 1;
#X connect 27 0 20 0;
#X connect 28 0 27 0;
#X connect 28 1 26 0;
#X connect 29 0 28 0;
#X connect 30 0 5 1;
#X connect 31 0 32 0;
#X connect 32 0 30 0;
#X connect 33 0 22 0;
#X connect 33 0 32 0;
#X connect 34 0 5 1;
#X connect 35 0 5 0;
#X connect 36 0 35 0;
#X connect 41 0 40 0;
