#N canvas 1440 -209 1920 1035 10;
#X obj 189 338 soundfiler;
#N canvas 0 22 450 278 (subpatch) 0;
#X array sound1 88245 float 2;
#X coords 0 1 88245 -1 200 140 1 0 0;
#X restore 461 79 graph;
#X obj 13 397 dac~ 1 2;
#X msg 189 312 read -resize ../SoundLibrary/celloA3.aiff sound1;
#X obj 15 272 bng 15 250 50 0 empty empty empty 17 7 0 10 -262144 -1
-1;
#N canvas 0 0 450 300 (subpatch) 0;
#X array spectrum1 128 float 0;
#X coords 0 2200 127 -40 257 130 1 0 0;
#X restore 1059 279 graph;
#X text 1152 257 SPECTRUM;
#X text 1319 397 0;
#X text 1317 276 1;
#X text 1318 335 0.5;
#N canvas 2246 197 579 378 fft 0;
#X obj 21 46 inlet~;
#X obj 85 214 inlet;
#X obj 21 69 rfft~;
#X obj 19 125 *~;
#X obj 50 125 *~;
#X obj 19 155 sqrt~;
#X obj 332 92 block~ 4096 1;
#X obj 19 181 biquad~ 0 0 0 0 1;
#X text 83 81 Fourier series;
#X text 88 154 magnitude;
#X text 83 101 calculate;
#X text 21 3 This subpatch computes the spectrum of the incoming signal
with a (rectangular windowed) FFT. FFTs aren't properly introduced
until much later.;
#X text 83 61 signal to analyze;
#X text 182 154 delay two samples;
#X text 182 174 for better graphing;
#X text 135 213 "bang" into this inlet to graph it;
#X obj 85 237 tabwrite~ spectrum1;
#X text 103 -25 NOTE: THIS SUBPATCH IS TAKEN FROM THE PD TUTORIAL 30
;
#X connect 0 0 2 0;
#X connect 1 0 16 0;
#X connect 2 0 3 0;
#X connect 2 0 3 1;
#X connect 2 1 4 0;
#X connect 2 1 4 1;
#X connect 3 0 5 0;
#X connect 4 0 5 0;
#X connect 5 0 7 0;
#X connect 7 0 16 0;
#X restore 226 886 pd fft;
#X obj 14 319 tabplay~ sound1;
#X obj 83 827 dac~ 1 2;
#X floatatom 188 479 5 0 0 0 - - -, f 5;
#X obj 188 498 * 1000;
#X floatatom 188 522 5 0 0 0 - - -, f 5;
#X obj 172 750 line~;
#X text 248 460 <-- sample rate (samples per second);
#X text 249 482 <-- array duration in seconds;
#X text 246 502 <-- convert to millseconds;
#X text 248 524 <-- array duration in ms;
#X text 305 387 <-- array length (change this to your array size);
#X obj 172 774 tabread4~ sound1;
#X floatatom 189 359 5 0 0 0 - - -, f 5;
#X obj 227 416 samplerate~;
#X obj 188 458 / 48000;
#X floatatom 280 441 5 0 0 0 - - -, f 5;
#X obj 172 694 pack 0 0;
#X obj 190 247 loadbang;
#X obj 190 268 t b b;
#X msg 172 728 0 \, \$2 \$1;
#X obj 95 393 s array-len-\$0;
#X obj 231 613 r array-len-\$0;
#X obj 216 640 f;
#X obj 172 643 f;
#X obj 133 587 t b b;
#X obj 133 543 bng 15 250 50 0 empty empty empty 17 7 0 10 -262144
-1 -1;
#X obj 722 833 sel;
#X obj 722 788 snapshot~;
#X obj 329 743 metro 5;
#X obj 329 701 loadbang;
#X msg 329 722 1;
#X obj 742 814 r array-len-\$0;
#X obj 740 871 bng 15 250 50 0 empty empty empty 17 7 0 10 -262144
-1 -1;
#X text 315 671 Sends BANG at the end of the sample playback (to graph
fft);
#X obj 196 198 bng 15 250 50 0 empty empty empty 17 7 0 10 -262144
-1 -1;
#X obj 386 874 bng 15 250 50 0 empty empty empty 17 7 0 10 -262144
-1 -1;
#X obj 546 742 osc~ 440;
#X floatatom 547 710 5 0 0 0 - - -, f 5;
#X connect 0 0 23 0;
#X connect 3 0 0 0;
#X connect 4 0 11 0;
#X connect 11 0 2 0;
#X connect 11 0 2 1;
#X connect 13 0 14 0;
#X connect 14 0 15 0;
#X connect 15 0 34 1;
#X connect 16 0 22 0;
#X connect 22 0 12 0;
#X connect 22 0 12 1;
#X connect 22 0 10 0;
#X connect 23 0 25 0;
#X connect 23 0 31 0;
#X connect 24 0 26 0;
#X connect 24 0 25 1;
#X connect 25 0 13 0;
#X connect 27 0 30 0;
#X connect 28 0 29 0;
#X connect 29 0 3 0;
#X connect 29 1 24 0;
#X connect 30 0 16 0;
#X connect 32 0 33 1;
#X connect 33 0 27 1;
#X connect 34 0 27 0;
#X connect 35 0 34 0;
#X connect 35 1 33 0;
#X connect 36 0 35 0;
#X connect 37 0 43 0;
#X connect 37 0 10 1;
#X connect 38 0 37 0;
#X connect 39 0 10 1;
#X connect 40 0 41 0;
#X connect 41 0 39 0;
#X connect 42 0 37 1;
#X connect 45 0 29 0;
#X connect 46 0 10 1;
#X connect 47 0 10 0;
#X connect 48 0 47 0;
