#N canvas 56 46 1333 523 10;
#X floatatom 25 78 5 0 0 0 - - -, f 5;
#X obj 363 -5 maxlib/scale 0 255 0 5000;
#X obj 24 54 comport/comport 1 9600;
#X obj 25 97 sel 1 2 3 4 5 6 7 8, f 214;
#X msg 78 17 close;
#X obj 637 446 dac~;
#X msg 23 17 open 1;
#X obj 25 127 bng 15 250 50 0 empty empty empty 17 7 0 10 -262144 -1
-1;
#X obj 25 262 osc~;
#X obj 25 233 mtof;
#X obj 71 262 line~;
#X obj 25 302 *~;
#X msg 71 233 1 500;
#X obj 118 204 delay 500;
#X obj 25 173 t bang bang bang;
#X msg 118 233 0 500;
#X text 58 126 1;
#X msg 25 204 60;
#X obj 185 127 bng 15 250 50 0 empty empty empty 17 7 0 10 -262144
-1 -1;
#X obj 185 262 osc~;
#X obj 185 233 mtof;
#X obj 231 262 line~;
#X obj 185 302 *~;
#X msg 231 233 1 500;
#X obj 278 204 delay 500;
#X obj 185 173 t bang bang bang;
#X msg 278 233 0 500;
#X obj 345 127 bng 15 250 50 0 empty empty empty 17 7 0 10 -262144
-1 -1;
#X obj 345 262 osc~;
#X obj 345 233 mtof;
#X obj 391 262 line~;
#X obj 345 302 *~;
#X msg 391 233 1 500;
#X obj 438 204 delay 500;
#X obj 345 173 t bang bang bang;
#X msg 438 233 0 500;
#X obj 505 127 bng 15 250 50 0 empty empty empty 17 7 0 10 -262144
-1 -1;
#X obj 505 262 osc~;
#X obj 505 233 mtof;
#X obj 551 262 line~;
#X obj 505 302 *~;
#X msg 551 233 1 500;
#X obj 598 204 delay 500;
#X obj 505 173 t bang bang bang;
#X msg 598 233 0 500;
#X obj 25 127 bng 15 250 50 0 empty empty empty 17 7 0 10 -262144 -1
-1;
#X obj 25 262 osc~;
#X obj 25 233 mtof;
#X obj 71 262 line~;
#X obj 25 302 *~;
#X msg 71 233 1 500;
#X obj 118 204 delay 500;
#X obj 25 173 t bang bang bang;
#X msg 118 233 0 500;
#X text 58 126 1;
#X msg 25 204 60;
#X obj 185 127 bng 15 250 50 0 empty empty empty 17 7 0 10 -262144
-1 -1;
#X obj 185 262 osc~;
#X obj 185 233 mtof;
#X obj 231 262 line~;
#X obj 185 302 *~;
#X msg 231 233 1 500;
#X obj 278 204 delay 500;
#X obj 185 173 t bang bang bang;
#X msg 278 233 0 500;
#X msg 185 204 60;
#X obj 345 127 bng 15 250 50 0 empty empty empty 17 7 0 10 -262144
-1 -1;
#X obj 345 262 osc~;
#X obj 345 233 mtof;
#X obj 391 262 line~;
#X obj 345 302 *~;
#X msg 391 233 1 500;
#X obj 438 204 delay 500;
#X obj 345 173 t bang bang bang;
#X msg 438 233 0 500;
#X msg 345 204 60;
#X obj 505 127 bng 15 250 50 0 empty empty empty 17 7 0 10 -262144
-1 -1;
#X obj 505 262 osc~;
#X obj 505 233 mtof;
#X obj 551 262 line~;
#X obj 505 302 *~;
#X msg 551 233 1 500;
#X obj 598 204 delay 500;
#X obj 505 173 t bang bang bang;
#X msg 598 233 0 500;
#X msg 505 204 60;
#X obj 665 127 bng 15 250 50 0 empty empty empty 17 7 0 10 -262144
-1 -1;
#X obj 665 262 osc~;
#X obj 665 233 mtof;
#X obj 711 262 line~;
#X obj 665 302 *~;
#X msg 711 233 1 500;
#X obj 758 204 delay 500;
#X obj 665 173 t bang bang bang;
#X msg 758 233 0 500;
#X obj 825 127 bng 15 250 50 0 empty empty empty 17 7 0 10 -262144
-1 -1;
#X obj 825 262 osc~;
#X obj 825 233 mtof;
#X obj 871 262 line~;
#X obj 825 302 *~;
#X msg 871 233 1 500;
#X obj 918 204 delay 500;
#X obj 825 173 t bang bang bang;
#X msg 918 233 0 500;
#X obj 985 127 bng 15 250 50 0 empty empty empty 17 7 0 10 -262144
-1 -1;
#X obj 985 262 osc~;
#X obj 985 233 mtof;
#X obj 1031 262 line~;
#X obj 985 302 *~;
#X msg 1031 233 1 500;
#X obj 1078 204 delay 500;
#X obj 985 173 t bang bang bang;
#X msg 1078 233 0 500;
#X obj 1145 127 bng 15 250 50 0 empty empty empty 17 7 0 10 -262144
-1 -1;
#X obj 1145 262 osc~;
#X obj 1145 233 mtof;
#X obj 1194 262 line~;
#X obj 1145 302 *~;
#X msg 1194 233 1 500;
#X obj 1241 204 delay 500;
#X obj 1145 173 t bang bang bang;
#X msg 1241 233 0 500;
#X text 218 126 2;
#X text 378 126 3;
#X text 538 126 4;
#X text 698 126 5;
#X text 858 126 6;
#X text 1018 126 7;
#X text 1178 126 8;
#X text 538 126;
#X text 378 126;
#X text 218 126;
#X msg 185 204 62;
#X msg 345 204 64;
#X msg 505 204 65;
#X msg 665 204 67;
#X msg 825 204 69;
#X msg 985 204 71;
#X msg 1145 204 72;
#X connect 0 0 3 0;
#X connect 2 0 0 0;
#X connect 3 0 7 0;
#X connect 3 1 18 0;
#X connect 3 2 27 0;
#X connect 3 3 36 0;
#X connect 3 4 86 0;
#X connect 3 5 95 0;
#X connect 3 6 104 0;
#X connect 3 7 113 0;
#X connect 4 0 2 0;
#X connect 6 0 2 0;
#X connect 7 0 14 0;
#X connect 8 0 11 0;
#X connect 9 0 8 0;
#X connect 10 0 11 1;
#X connect 11 0 5 1;
#X connect 11 0 5 0;
#X connect 12 0 10 0;
#X connect 13 0 15 0;
#X connect 14 0 13 0;
#X connect 14 1 12 0;
#X connect 14 2 17 0;
#X connect 15 0 10 0;
#X connect 17 0 9 0;
#X connect 18 0 25 0;
#X connect 19 0 22 0;
#X connect 20 0 19 0;
#X connect 21 0 22 1;
#X connect 22 0 5 1;
#X connect 22 0 5 0;
#X connect 23 0 21 0;
#X connect 24 0 26 0;
#X connect 25 0 24 0;
#X connect 25 1 23 0;
#X connect 25 2 132 0;
#X connect 26 0 21 0;
#X connect 27 0 34 0;
#X connect 28 0 31 0;
#X connect 29 0 28 0;
#X connect 30 0 31 1;
#X connect 31 0 5 1;
#X connect 31 0 5 0;
#X connect 32 0 30 0;
#X connect 33 0 35 0;
#X connect 34 0 33 0;
#X connect 34 1 32 0;
#X connect 34 2 133 0;
#X connect 35 0 30 0;
#X connect 36 0 43 0;
#X connect 37 0 40 0;
#X connect 38 0 37 0;
#X connect 39 0 40 1;
#X connect 40 0 5 1;
#X connect 40 0 5 0;
#X connect 41 0 39 0;
#X connect 42 0 44 0;
#X connect 43 0 42 0;
#X connect 43 1 41 0;
#X connect 43 2 134 0;
#X connect 44 0 39 0;
#X connect 45 0 52 0;
#X connect 46 0 49 0;
#X connect 47 0 46 0;
#X connect 48 0 49 1;
#X connect 50 0 48 0;
#X connect 51 0 53 0;
#X connect 52 0 51 0;
#X connect 52 1 50 0;
#X connect 52 2 55 0;
#X connect 53 0 48 0;
#X connect 55 0 47 0;
#X connect 56 0 63 0;
#X connect 57 0 60 0;
#X connect 58 0 57 0;
#X connect 59 0 60 1;
#X connect 61 0 59 0;
#X connect 62 0 64 0;
#X connect 63 0 62 0;
#X connect 63 1 61 0;
#X connect 63 2 65 0;
#X connect 64 0 59 0;
#X connect 65 0 58 0;
#X connect 66 0 73 0;
#X connect 67 0 70 0;
#X connect 68 0 67 0;
#X connect 69 0 70 1;
#X connect 71 0 69 0;
#X connect 72 0 74 0;
#X connect 73 0 72 0;
#X connect 73 1 71 0;
#X connect 73 2 75 0;
#X connect 74 0 69 0;
#X connect 75 0 68 0;
#X connect 76 0 83 0;
#X connect 77 0 80 0;
#X connect 78 0 77 0;
#X connect 79 0 80 1;
#X connect 81 0 79 0;
#X connect 82 0 84 0;
#X connect 83 0 82 0;
#X connect 83 1 81 0;
#X connect 83 2 85 0;
#X connect 84 0 79 0;
#X connect 85 0 78 0;
#X connect 86 0 93 0;
#X connect 87 0 90 0;
#X connect 88 0 87 0;
#X connect 89 0 90 1;
#X connect 90 0 5 1;
#X connect 90 0 5 0;
#X connect 91 0 89 0;
#X connect 92 0 94 0;
#X connect 93 0 92 0;
#X connect 93 1 91 0;
#X connect 93 2 135 0;
#X connect 94 0 89 0;
#X connect 95 0 102 0;
#X connect 96 0 99 0;
#X connect 97 0 96 0;
#X connect 98 0 99 1;
#X connect 99 0 5 1;
#X connect 99 0 5 0;
#X connect 100 0 98 0;
#X connect 101 0 103 0;
#X connect 102 0 101 0;
#X connect 102 1 100 0;
#X connect 102 2 136 0;
#X connect 103 0 98 0;
#X connect 104 0 111 0;
#X connect 105 0 108 0;
#X connect 106 0 105 0;
#X connect 107 0 108 1;
#X connect 108 0 5 1;
#X connect 108 0 5 0;
#X connect 109 0 107 0;
#X connect 110 0 112 0;
#X connect 111 0 110 0;
#X connect 111 1 109 0;
#X connect 111 2 137 0;
#X connect 112 0 107 0;
#X connect 113 0 120 0;
#X connect 114 0 117 0;
#X connect 115 0 114 0;
#X connect 116 0 117 1;
#X connect 117 0 5 1;
#X connect 117 0 5 0;
#X connect 118 0 116 0;
#X connect 119 0 121 0;
#X connect 120 0 119 0;
#X connect 120 1 118 0;
#X connect 120 2 138 0;
#X connect 121 0 116 0;
#X connect 132 0 20 0;
#X connect 133 0 29 0;
#X connect 134 0 38 0;
#X connect 135 0 88 0;
#X connect 136 0 97 0;
#X connect 137 0 106 0;
#X connect 138 0 115 0;
