#N canvas 306 519 450 300 10;
#X obj 111 162 pduino/arduino;
#X msg 126 84 open 1;
#X msg 217 94 info;
#X msg 242 128 pinMode 2 output;
#X obj 290 166 tgl 15 0 empty empty empty 17 7 0 10 -262144 -1 -1 0
1;
#X msg 290 186 digital 2 \$1;
#X connect 1 0 0 0;
#X connect 2 0 0 0;
#X connect 3 0 0 0;
#X connect 4 0 5 0;
#X connect 5 0 0 0;
