#N canvas 651 257 450 300 10;
#X obj 136 54 osc~;
#X obj 136 80 *~;
#X floatatom 169 79 5 0 1 0 - - -;
#X obj 60 222 dac~;
#X floatatom 136 32 5 0 0 0 - - -;
#X obj 17 92 osc~;
#X obj 60 183 *~;
#X obj 136 109 *~ 0.5;
#X obj 136 138 +~ 0.5;
#X floatatom 10 59 5 0 0 0 - - -;
#X obj 19 119 *~;
#X floatatom 58 91 5 0 1 0 - - -;
#X connect 0 0 1 0;
#X connect 1 0 7 0;
#X connect 2 0 1 1;
#X connect 4 0 0 0;
#X connect 5 0 10 0;
#X connect 6 0 3 0;
#X connect 6 0 3 1;
#X connect 7 0 8 0;
#X connect 8 0 6 1;
#X connect 9 0 5 0;
#X connect 10 0 6 0;
#X connect 11 0 10 1;
