#N canvas 519 163 894 631 10;
#X obj 209 124 bng 15 250 50 0 empty empty empty 17 7 0 10 -262144
-1 -1;
#X obj 209 71 tgl 15 0 empty empty empty 17 7 0 10 -262144 -1 -1 0
1;
#X obj 209 99 metro;
#X floatatom 303 72 5 0 0 0 - - -;
#X floatatom 211 296 5 0 0 0 - - -;
#X floatatom 304 297 5 0 0 0 - - -;
#X obj 211 331 mtof;
#X obj 211 362 osc~;
#X obj 211 394 *~;
#X obj 211 439 dac~;
#X msg 482 57 \; pd dsp 1;
#X floatatom 304 361 5 0 0 0 - - -;
#X obj 211 244 makenote 127 250;
#X obj 304 332 mgScaleMap 0 127 0 0.2;
#X obj 210 161 random 61;
#X floatatom 211 219 5 0 0 0 - - -;
#X obj 211 190 + 40;
#X text 349 159 random velocity;
#X text 93 156 random MIDI pitch between 40 & 100;
#X obj 303 213 * 0.7;
#X obj 277 160 random 128;
#X text 344 201 note length must be shorter than note value generation
;
#X msg 483 92 \; pd dsp 0;
#X text 81 12 RANDOM PITCH & VELOCITY SINEWAVE SYNTH 05/10/14;
#X text 467 327 Right now \, note on (vel: 127) sets amplitude to 0.2
\, note off sets amplitude to 0 Enveloping is next.;
#X connect 0 0 14 0;
#X connect 0 0 20 0;
#X connect 1 0 2 0;
#X connect 2 0 0 0;
#X connect 3 0 2 1;
#X connect 3 0 19 0;
#X connect 4 0 6 0;
#X connect 5 0 13 0;
#X connect 6 0 7 0;
#X connect 7 0 8 0;
#X connect 8 0 9 0;
#X connect 8 0 9 1;
#X connect 11 0 8 1;
#X connect 12 0 4 0;
#X connect 12 1 5 0;
#X connect 13 0 11 0;
#X connect 14 0 16 0;
#X connect 15 0 12 0;
#X connect 16 0 15 0;
#X connect 19 0 12 2;
#X connect 20 0 12 1;
