#N canvas 2011 -69 1412 855 10;
#X obj 130 110 vradio 15 0 0 8 empty empty Shape -5 -8 0 10 -262144
-1 -1 1;
#X obj 180 250 vsl 15 128 0.01 1 1 0 empty empty Gain -5 -9 0 10 -262144
-1 -1 0 1;
#X obj 130 250 vsl 15 128 24 35 0 0 empty empty Freq -5 -9 0 10 -262144
-1 -1 0 1;
#X obj 180 110 vradio 15 0 0 6 empty empty Octave -7 -8 0 10 -262144
-1 -1 1;
#X text 50 -380 Dependencies:;
#X text 50 -350 tdh: tdh.util.declick \, tdh.synth.oscil-tri~ \, tdh.synth.oscil-saw~
\, tdh.synth.oscil-pulse~;
#X text 50 -310 other: cyclone (cyclone/pink~);
#X obj 180 500 s \$0-octave1;
#X obj 130 530 s \$0-freq1;
#X obj 180 600 s \$0-gain1;
#X obj 130 480 s \$0-shape1;
#X obj 184 670 r \$0-octave1;
#X obj 157 650 r \$0-freq1;
#X obj 211 690 r \$0-gain1;
#X obj 130 630 r \$0-shape1;
#X obj 130 870 outlet~;
#X obj 5 40 loadbang;
#X obj 180 560 expr if($f1 < 0.011 \, 0 \, $f1), f 15;
#X obj 130 75 cnv 5 75 5 empty empty Osc\\\ 1 17 12 0 14 -233017 -66577
0;
#X obj 230 70 cnv 5 5 315 empty empty empty 20 12 0 14 -233017 -66577
0;
#X obj 270 110 vradio 15 0 0 8 empty empty Shape -5 -8 0 10 -262144
-1 -1 1;
#X obj 320 250 vsl 15 128 0.01 1 1 0 empty empty Gain -5 -9 0 10 -262144
-1 -1 0 1;
#X obj 270 250 vsl 15 128 24 35 0 0 empty empty Freq -5 -9 0 10 -262144
-1 -1 0 1;
#X obj 320 110 vradio 15 0 0 6 empty empty Octave -7 -8 0 10 -262144
-1 -1 1;
#X obj 320 560 expr if($f1 < 0.011 \, 0 \, $f1), f 15;
#X obj 270 75 cnv 5 75 5 empty empty Osc\\\ 2 17 12 0 14 -233017 -66577
0;
#X obj 370 70 cnv 5 5 315 empty empty empty 20 12 0 14 -233017 -66577
0;
#X obj 410 110 vradio 15 0 0 8 empty empty Shape -5 -8 0 10 -262144
-1 -1 1;
#X obj 460 250 vsl 15 128 0.01 1 1 0 empty empty Gain -5 -9 0 10 -262144
-1 -1 0 1;
#X obj 410 250 vsl 15 128 24 35 0 0 empty empty Freq -5 -9 0 10 -262144
-1 -1 0 1;
#X obj 460 110 vradio 15 0 0 6 empty empty Octave -7 -8 0 10 -262144
-1 -1 1;
#X obj 460 560 expr if($f1 < 0.011 \, 0 \, $f1), f 15;
#X obj 410 75 cnv 5 75 5 empty empty Osc\\\ 3 17 12 0 14 -233017 -66577
0;
#X text 98 433 out (sig);
#X obj 270 480 s \$0-shape2;
#X obj 320 500 s \$0-octave2;
#X obj 270 530 s \$0-freq2;
#X obj 320 600 s \$0-gain2;
#X obj 270 630 r \$0-shape2;
#X obj 297 650 r \$0-freq2;
#X obj 328 670 r \$0-octave2;
#X obj 358 690 r \$0-gain2;
#X obj 410 470 s \$0-shape3;
#X obj 460 500 s \$0-octave3;
#X obj 410 530 s \$0-freq3;
#X obj 460 600 s \$0-gain3;
#X obj 410 630 r \$0-shape3;
#X obj 437 650 r \$0-freq3;
#X obj 468 670 r \$0-octave3;
#X obj 497 690 r \$0-gain3;
#N canvas 50 32 1159 607 oscillators1 0;
#X obj 70 230 osc~;
#X obj 70 167 tdh.util.declick;
#X obj 189 167 tdh.util.declick;
#X obj 330 167 tdh.util.declick;
#X obj 460 167 tdh.util.declick;
#X obj 950 230 noise~;
#X obj 1050 230 cyclone/pink~;
#X obj 189 230 tdh.synth.oscil-tri~;
#X obj 460 230 tdh.synth.oscil-pulse~;
#X obj 330 230 tdh.synth.oscil-saw~;
#X msg 50 -60 0;
#X msg 20 -60 1;
#N canvas 0 22 450 300 on-off 0;
#X obj 124 63 inlet~;
#X obj 237 61 inlet onOff;
#X obj 130 170 *~;
#X obj 240 140 vline~;
#X msg 239 103 \$1 25;
#X obj 130 195 outlet~;
#X connect 0 0 2 0;
#X connect 1 0 4 0;
#X connect 2 0 5 0;
#X connect 3 0 2 1;
#X connect 4 0 3 0;
#X restore 70 280 pd on-off;
#N canvas 0 22 450 300 on-off 0;
#X obj 124 63 inlet~;
#X obj 237 61 inlet onOff;
#X obj 130 170 *~;
#X obj 240 140 vline~;
#X msg 239 103 \$1 25;
#X obj 130 195 outlet~;
#X connect 0 0 2 0;
#X connect 1 0 4 0;
#X connect 2 0 5 0;
#X connect 3 0 2 1;
#X connect 4 0 3 0;
#X restore 189 280 pd on-off;
#N canvas 0 22 450 300 on-off 0;
#X obj 124 63 inlet~;
#X obj 237 61 inlet onOff;
#X obj 130 170 *~;
#X obj 240 140 vline~;
#X msg 239 103 \$1 25;
#X obj 130 195 outlet~;
#X connect 0 0 2 0;
#X connect 1 0 4 0;
#X connect 2 0 5 0;
#X connect 3 0 2 1;
#X connect 4 0 3 0;
#X restore 330 280 pd on-off;
#N canvas 0 22 450 300 on-off 0;
#X obj 124 63 inlet~;
#X obj 237 61 inlet onOff;
#X obj 130 170 *~;
#X obj 240 140 vline~;
#X msg 239 103 \$1 25;
#X obj 130 195 outlet~;
#X connect 0 0 2 0;
#X connect 1 0 4 0;
#X connect 2 0 5 0;
#X connect 3 0 2 1;
#X connect 4 0 3 0;
#X restore 460 280 pd on-off;
#X obj 620 167 tdh.util.declick;
#X obj 620 230 tdh.synth.oscil-pulse~;
#X obj 780 167 tdh.util.declick;
#X obj 780 230 tdh.synth.oscil-pulse~;
#N canvas 0 22 450 300 on-off 0;
#X obj 124 63 inlet~;
#X obj 237 61 inlet onOff;
#X obj 130 170 *~;
#X obj 240 140 vline~;
#X msg 239 103 \$1 25;
#X obj 130 195 outlet~;
#X connect 0 0 2 0;
#X connect 1 0 4 0;
#X connect 2 0 5 0;
#X connect 3 0 2 1;
#X connect 4 0 3 0;
#X restore 620 280 pd on-off;
#N canvas 0 22 450 300 on-off 0;
#X obj 124 63 inlet~;
#X obj 237 61 inlet onOff;
#X obj 130 170 *~;
#X obj 240 140 vline~;
#X msg 239 103 \$1 25;
#X obj 130 195 outlet~;
#X connect 0 0 2 0;
#X connect 1 0 4 0;
#X connect 2 0 5 0;
#X connect 3 0 2 1;
#X connect 4 0 3 0;
#X restore 780 280 pd on-off;
#X obj 580 100 loadbang;
#X text 640 100 Set the pulsewidth of the pulse oscil;
#N canvas 0 22 450 300 on-off 0;
#X obj 124 63 inlet~;
#X obj 237 61 inlet onOff;
#X obj 130 170 *~;
#X obj 240 140 vline~;
#X msg 239 103 \$1 25;
#X obj 130 195 outlet~;
#X connect 0 0 2 0;
#X connect 1 0 4 0;
#X connect 2 0 5 0;
#X connect 3 0 2 1;
#X connect 4 0 3 0;
#X restore 950 280 pd on-off;
#N canvas 0 22 450 300 on-off 0;
#X obj 124 63 inlet~;
#X obj 237 61 inlet onOff;
#X obj 130 170 *~;
#X obj 240 140 vline~;
#X msg 239 103 \$1 25;
#X obj 130 195 outlet~;
#X connect 0 0 2 0;
#X connect 1 0 4 0;
#X connect 2 0 5 0;
#X connect 3 0 2 1;
#X connect 4 0 3 0;
#X restore 1050 280 pd on-off;
#X obj 20 -90 sel 0 1 2 3 4 5 6 7, f 100;
#X obj 140 280 tgl 15 0 empty empty empty 17 7 0 10 -262144 -1 -1 0
1;
#X obj 260 280 tgl 15 0 empty empty empty 17 7 0 10 -262144 -1 -1 1
1;
#X obj 409 280 tgl 15 0 empty empty empty 17 7 0 10 -262144 -1 -1 0
1;
#X obj 540 280 tgl 15 0 empty empty empty 17 7 0 10 -262144 -1 -1 0
1;
#X obj 690 280 tgl 15 0 empty empty empty 17 7 0 10 -262144 -1 -1 0
1;
#X obj 860 280 tgl 15 0 empty empty empty 17 7 0 10 -262144 -1 -1 0
1;
#X obj 1010 280 tgl 15 0 empty empty empty 17 7 0 10 -262144 -1 -1
0 1;
#X obj 1120 280 tgl 15 0 empty empty empty 17 7 0 10 -262144 -1 -1
0 1;
#X msg 124 -60 0;
#X msg 94 -60 1;
#X msg 199 -60 0;
#X msg 169 -60 1;
#X msg 273 -60 0;
#X msg 243 -60 1;
#X msg 348 -60 0;
#X msg 318 -60 1;
#X msg 423 -60 0;
#X msg 393 -60 1;
#X msg 497 -60 0;
#X msg 467 -60 1;
#X msg 572 -60 0;
#X msg 542 -60 1;
#X text 20 -160 _;
#X obj 710 -120 inlet freq;
#X obj 920 340 *~;
#X obj 933 -120 inlet gain;
#X text 110 -150 All oscillators are live \, so this code handles the
radio button input and turns on output for the oscillator that corresponds
with the radio button input \, and silences all other oscillators;
#X obj 920 430 outlet~;
#X obj 810 -120 inlet octave;
#X obj 810 -87 * 12;
#X obj 710 -30 +;
#X text 750 -30 Frequency is handled in MIDI (sort of - it is still
floating point) \, and oct# * 12 offsets a MIDI pitch to a new octave
, f 25;
#X obj 72 140 mtof;
#X obj 190 140 mtof;
#X obj 332 140 mtof;
#X obj 460 140 mtof;
#X obj 620 140 mtof;
#X obj 780 140 mtof;
#X obj 20 -120 inlet shape;
#X floatatom 730 -90 5 0 0 0 - - -;
#X floatatom 850 -90 5 0 0 0 - - -;
#X floatatom 960 -90 5 0 0 0 - - -;
#X obj 710 -62 f;
#X obj 810 -62 t b f;
#X msg 580 130 0.05;
#X msg 730 130 0.2;
#X msg 909 130 0.5;
#X obj 920 400 lop~ 15000;
#X obj 1010 -120 inlet~ fm;
#X text 1199 461 _;
#X obj 920 365 *~;
#X obj 1100 -120 inlet~ am;
#X obj 1120 -90 loadbang;
#X msg 1120 -65 1;
#X obj 1120 -40 sig~;
#X obj 20 -10 s \$0-sin1;
#X obj 90 -10 s \$0-tri1;
#X obj 170 -10 s \$0-saw1;
#X obj 240 -10 s \$0-sqr1a;
#X obj 330 -10 s \$0-sqr1b;
#X obj 410 -10 s \$0-sqr1c;
#X obj 510 -10 s \$0-noise1;
#X obj 600 -10 s \$0-pink1;
#X obj 140 250 r \$0-sin1;
#X obj 260 250 r \$0-tri1;
#X obj 409 250 r \$0-saw1;
#X obj 540 250 r \$0-sqr1a;
#X obj 690 250 r \$0-sqr1b;
#X obj 860 250 r \$0-sqr1c;
#X obj 970 250 r \$0-noise1;
#X obj 1100 250 r \$0-pink1;
#X obj 980 340 r~ \$0-am1;
#X obj 1100 10 s~ \$0-am1;
#X obj 70 200 +~;
#X obj 1030 -80 loadbang;
#X msg 1030 -55 1;
#X obj 1030 -30 sig~;
#X obj 1010 10 s~ \$0-fm1;
#X obj 960 160 r~ \$0-fm1;
#X obj 242 201 +~;
#X obj 384 204 +~;
#X obj 537 210 +~;
#X obj 692 202 +~;
#X obj 848 200 +~;
#X connect 0 0 12 0;
#X connect 1 0 100 0;
#X connect 2 0 106 0;
#X connect 2 0 7 0;
#X connect 3 0 107 0;
#X connect 3 0 9 0;
#X connect 4 0 8 0;
#X connect 5 0 24 0;
#X connect 6 0 25 0;
#X connect 7 0 13 0;
#X connect 8 0 15 0;
#X connect 9 0 14 0;
#X connect 10 0 83 0;
#X connect 10 0 84 0;
#X connect 10 0 85 0;
#X connect 10 0 86 0;
#X connect 10 0 87 0;
#X connect 10 0 88 0;
#X connect 10 0 89 0;
#X connect 11 0 82 0;
#X connect 12 0 51 0;
#X connect 13 0 51 0;
#X connect 14 0 51 0;
#X connect 15 0 51 0;
#X connect 16 0 109 0;
#X connect 16 0 17 0;
#X connect 17 0 20 0;
#X connect 18 0 110 0;
#X connect 18 0 19 0;
#X connect 19 0 21 0;
#X connect 20 0 51 0;
#X connect 21 0 51 0;
#X connect 22 0 71 0;
#X connect 22 0 72 0;
#X connect 22 0 73 0;
#X connect 24 0 51 0;
#X connect 25 0 51 0;
#X connect 26 0 11 0;
#X connect 26 0 10 0;
#X connect 26 1 36 0;
#X connect 26 1 35 0;
#X connect 26 2 38 0;
#X connect 26 2 37 0;
#X connect 26 3 40 0;
#X connect 26 3 39 0;
#X connect 26 4 42 0;
#X connect 26 4 41 0;
#X connect 26 5 44 0;
#X connect 26 5 43 0;
#X connect 26 6 46 0;
#X connect 26 6 45 0;
#X connect 26 7 48 0;
#X connect 26 7 47 0;
#X connect 35 0 82 0;
#X connect 35 0 84 0;
#X connect 35 0 85 0;
#X connect 35 0 86 0;
#X connect 35 0 87 0;
#X connect 35 0 88 0;
#X connect 35 0 89 0;
#X connect 36 0 83 0;
#X connect 37 0 82 0;
#X connect 37 0 83 0;
#X connect 37 0 85 0;
#X connect 37 0 86 0;
#X connect 37 0 87 0;
#X connect 37 0 88 0;
#X connect 37 0 89 0;
#X connect 38 0 84 0;
#X connect 39 0 82 0;
#X connect 39 0 83 0;
#X connect 39 0 84 0;
#X connect 39 0 86 0;
#X connect 39 0 87 0;
#X connect 39 0 88 0;
#X connect 39 0 89 0;
#X connect 40 0 85 0;
#X connect 41 0 82 0;
#X connect 41 0 83 0;
#X connect 41 0 84 0;
#X connect 41 0 85 0;
#X connect 41 0 87 0;
#X connect 41 0 88 0;
#X connect 41 0 89 0;
#X connect 42 0 86 0;
#X connect 43 0 82 0;
#X connect 43 0 83 0;
#X connect 43 0 84 0;
#X connect 43 0 85 0;
#X connect 43 0 86 0;
#X connect 43 0 88 0;
#X connect 43 0 89 0;
#X connect 44 0 87 0;
#X connect 45 0 82 0;
#X connect 45 0 83 0;
#X connect 45 0 84 0;
#X connect 45 0 85 0;
#X connect 45 0 86 0;
#X connect 45 0 87 0;
#X connect 45 0 89 0;
#X connect 46 0 88 0;
#X connect 47 0 82 0;
#X connect 47 0 83 0;
#X connect 47 0 84 0;
#X connect 47 0 85 0;
#X connect 47 0 86 0;
#X connect 47 0 87 0;
#X connect 47 0 88 0;
#X connect 48 0 89 0;
#X connect 50 0 66 0;
#X connect 50 0 69 0;
#X connect 51 0 77 0;
#X connect 52 0 51 1;
#X connect 52 0 68 0;
#X connect 55 0 56 0;
#X connect 55 0 67 0;
#X connect 56 0 70 0;
#X connect 57 0 59 0;
#X connect 57 0 60 0;
#X connect 57 0 61 0;
#X connect 57 0 62 0;
#X connect 57 0 63 0;
#X connect 57 0 64 0;
#X connect 59 0 1 0;
#X connect 60 0 2 0;
#X connect 61 0 3 0;
#X connect 62 0 4 0;
#X connect 63 0 16 0;
#X connect 64 0 18 0;
#X connect 65 0 26 0;
#X connect 69 0 57 0;
#X connect 70 0 69 0;
#X connect 70 1 57 1;
#X connect 71 0 8 2;
#X connect 72 0 17 2;
#X connect 73 0 19 2;
#X connect 74 0 54 0;
#X connect 75 0 104 0;
#X connect 77 0 74 0;
#X connect 78 0 99 0;
#X connect 79 0 80 0;
#X connect 80 0 81 0;
#X connect 81 0 99 0;
#X connect 90 0 27 0;
#X connect 90 0 12 1;
#X connect 91 0 28 0;
#X connect 91 0 13 1;
#X connect 92 0 29 0;
#X connect 92 0 14 1;
#X connect 93 0 30 0;
#X connect 93 0 15 1;
#X connect 94 0 31 0;
#X connect 94 0 20 1;
#X connect 95 0 32 0;
#X connect 95 0 21 1;
#X connect 96 0 24 1;
#X connect 96 0 33 0;
#X connect 97 0 34 0;
#X connect 97 0 25 1;
#X connect 98 0 77 1;
#X connect 100 0 0 0;
#X connect 101 0 102 0;
#X connect 102 0 103 0;
#X connect 103 0 104 0;
#X connect 105 0 110 1;
#X connect 105 0 109 1;
#X connect 105 0 108 1;
#X connect 105 0 107 1;
#X connect 105 0 106 1;
#X connect 105 0 100 1;
#X connect 108 0 8 1;
#X connect 109 0 17 1;
#X connect 110 0 19 1;
#X restore 130 720 pd oscillators1;
#N canvas 2574 22 1159 607 oscillators2 0;
#X obj 70 210 osc~;
#X obj 70 167 tdh.util.declick;
#X obj 189 167 tdh.util.declick;
#X obj 330 167 tdh.util.declick;
#X obj 460 167 tdh.util.declick;
#X obj 950 210 noise~;
#X obj 1030 210 cyclone/pink~;
#X obj 189 210 tdh.synth.oscil-tri~;
#X obj 460 210 tdh.synth.oscil-pulse~;
#X obj 330 210 tdh.synth.oscil-saw~;
#X msg 50 -60 0;
#X msg 20 -60 1;
#N canvas 0 22 450 300 on-off 0;
#X obj 124 63 inlet~;
#X obj 237 61 inlet onOff;
#X obj 130 170 *~;
#X obj 240 140 vline~;
#X msg 239 103 \$1 25;
#X obj 130 195 outlet~;
#X connect 0 0 2 0;
#X connect 1 0 4 0;
#X connect 2 0 5 0;
#X connect 3 0 2 1;
#X connect 4 0 3 0;
#X restore 70 260 pd on-off;
#N canvas 0 22 450 300 on-off 0;
#X obj 124 63 inlet~;
#X obj 237 61 inlet onOff;
#X obj 130 170 *~;
#X obj 240 140 vline~;
#X msg 239 103 \$1 25;
#X obj 130 195 outlet~;
#X connect 0 0 2 0;
#X connect 1 0 4 0;
#X connect 2 0 5 0;
#X connect 3 0 2 1;
#X connect 4 0 3 0;
#X restore 189 260 pd on-off;
#N canvas 0 22 450 300 on-off 0;
#X obj 124 63 inlet~;
#X obj 237 61 inlet onOff;
#X obj 130 170 *~;
#X obj 240 140 vline~;
#X msg 239 103 \$1 25;
#X obj 130 195 outlet~;
#X connect 0 0 2 0;
#X connect 1 0 4 0;
#X connect 2 0 5 0;
#X connect 3 0 2 1;
#X connect 4 0 3 0;
#X restore 330 260 pd on-off;
#N canvas 0 22 450 300 on-off 0;
#X obj 124 63 inlet~;
#X obj 237 61 inlet onOff;
#X obj 130 170 *~;
#X obj 240 140 vline~;
#X msg 239 103 \$1 25;
#X obj 130 195 outlet~;
#X connect 0 0 2 0;
#X connect 1 0 4 0;
#X connect 2 0 5 0;
#X connect 3 0 2 1;
#X connect 4 0 3 0;
#X restore 460 260 pd on-off;
#X obj 620 167 tdh.util.declick;
#X obj 620 210 tdh.synth.oscil-pulse~;
#X obj 780 167 tdh.util.declick;
#X obj 780 210 tdh.synth.oscil-pulse~;
#N canvas 0 22 450 300 on-off 0;
#X obj 124 63 inlet~;
#X obj 237 61 inlet onOff;
#X obj 130 170 *~;
#X obj 240 140 vline~;
#X msg 239 103 \$1 25;
#X obj 130 195 outlet~;
#X connect 0 0 2 0;
#X connect 1 0 4 0;
#X connect 2 0 5 0;
#X connect 3 0 2 1;
#X connect 4 0 3 0;
#X restore 620 260 pd on-off;
#N canvas 0 22 450 300 on-off 0;
#X obj 124 63 inlet~;
#X obj 237 61 inlet onOff;
#X obj 130 170 *~;
#X obj 240 140 vline~;
#X msg 239 103 \$1 25;
#X obj 130 195 outlet~;
#X connect 0 0 2 0;
#X connect 1 0 4 0;
#X connect 2 0 5 0;
#X connect 3 0 2 1;
#X connect 4 0 3 0;
#X restore 780 260 pd on-off;
#X obj 580 110 loadbang;
#X text 640 110 Set the pulsewidth of the pulse oscil;
#N canvas 0 22 450 300 on-off 0;
#X obj 124 63 inlet~;
#X obj 237 61 inlet onOff;
#X obj 130 170 *~;
#X obj 240 140 vline~;
#X msg 239 103 \$1 25;
#X obj 130 195 outlet~;
#X connect 0 0 2 0;
#X connect 1 0 4 0;
#X connect 2 0 5 0;
#X connect 3 0 2 1;
#X connect 4 0 3 0;
#X restore 950 260 pd on-off;
#N canvas 0 22 450 300 on-off 0;
#X obj 124 63 inlet~;
#X obj 237 61 inlet onOff;
#X obj 130 170 *~;
#X obj 240 140 vline~;
#X msg 239 103 \$1 25;
#X obj 130 195 outlet~;
#X connect 0 0 2 0;
#X connect 1 0 4 0;
#X connect 2 0 5 0;
#X connect 3 0 2 1;
#X connect 4 0 3 0;
#X restore 1030 260 pd on-off;
#X obj 20 -90 sel 0 1 2 3 4 5 6 7, f 100;
#X obj 140 260 tgl 15 0 empty empty empty 17 7 0 10 -262144 -1 -1 0
1;
#X obj 260 260 tgl 15 0 empty empty empty 17 7 0 10 -262144 -1 -1 1
1;
#X obj 409 260 tgl 15 0 empty empty empty 17 7 0 10 -262144 -1 -1 0
1;
#X obj 540 260 tgl 15 0 empty empty empty 17 7 0 10 -262144 -1 -1 0
1;
#X obj 690 260 tgl 15 0 empty empty empty 17 7 0 10 -262144 -1 -1 0
1;
#X obj 860 260 tgl 15 0 empty empty empty 17 7 0 10 -262144 -1 -1 0
1;
#X obj 1010 260 tgl 15 0 empty empty empty 17 7 0 10 -262144 -1 -1
0 1;
#X obj 1100 260 tgl 15 0 empty empty empty 17 7 0 10 -262144 -1 -1
0 1;
#X msg 113 -60 0;
#X msg 83 -60 1;
#X msg 173 -60 0;
#X msg 143 -60 1;
#X msg 238 -60 0;
#X msg 208 -60 1;
#X msg 307 -60 0;
#X msg 277 -60 1;
#X msg 377 -60 0;
#X msg 347 -60 1;
#X msg 445 -60 0;
#X msg 415 -60 1;
#X msg 521 -60 0;
#X msg 491 -60 1;
#X text 20 -160 _;
#X obj 710 -120 inlet freq;
#X obj 920 340 *~;
#X obj 933 -120 inlet gain;
#X text 110 -150 All oscillators are live \, so this code handles the
radio button input and turns on output for the oscillator that corresponds
with the radio button input \, and silences all other oscillators;
#X obj 920 400 outlet~;
#X obj 810 -130 inlet octave;
#X obj 810 -87 * 12;
#X obj 710 -30 +;
#X text 750 -30 Frequency is handled in MIDI (sort of - it is still
floating point) \, and oct# * 12 offsets a MIDI pitch to a new octave
, f 25;
#X obj 72 140 mtof;
#X obj 190 140 mtof;
#X obj 332 140 mtof;
#X obj 460 140 mtof;
#X obj 620 140 mtof;
#X obj 780 140 mtof;
#X obj 20 -120 inlet shape;
#X floatatom 730 -90 5 0 0 0 - - -;
#X floatatom 850 -90 5 0 0 0 - - -;
#X floatatom 960 -90 5 0 0 0 - - -;
#X obj 706 -62 f;
#X obj 810 -62 t b f;
#X msg 580 190 0.05;
#X msg 730 187 0.2;
#X msg 888 187 0.5;
#X obj 920 370 lop~ 15000;
#X obj 20 -10 s \$0-sin2;
#X obj 83 -10 s \$0-tri2;
#X obj 146 -10 s \$0-saw2;
#X obj 209 -10 s \$0-sqr2a;
#X obj 278 -10 s \$0-sqr2b;
#X obj 347 -10 s \$0-sqr2c;
#X obj 416 -10 s \$0-noise2;
#X obj 491 -10 s \$0-pink2;
#X obj 140 230 r \$0-sin2;
#X obj 260 230 r \$0-tri2;
#X obj 409 230 r \$0-saw2;
#X obj 540 230 r \$0-sqr2a;
#X obj 690 230 r \$0-sqr2b;
#X obj 860 230 r \$0-sqr2c;
#X obj 970 230 r \$0-noise2;
#X obj 1080 230 r \$0-pink2;
#X connect 0 0 12 0;
#X connect 1 0 0 0;
#X connect 2 0 7 0;
#X connect 3 0 9 0;
#X connect 4 0 8 0;
#X connect 5 0 24 0;
#X connect 6 0 25 0;
#X connect 7 0 13 0;
#X connect 8 0 15 0;
#X connect 9 0 14 0;
#X connect 10 0 76 0;
#X connect 10 0 77 0;
#X connect 10 0 78 0;
#X connect 10 0 79 0;
#X connect 10 0 80 0;
#X connect 10 0 81 0;
#X connect 10 0 82 0;
#X connect 11 0 75 0;
#X connect 12 0 51 0;
#X connect 13 0 51 0;
#X connect 14 0 51 0;
#X connect 15 0 51 0;
#X connect 16 0 17 0;
#X connect 17 0 20 0;
#X connect 18 0 19 0;
#X connect 19 0 21 0;
#X connect 20 0 51 0;
#X connect 21 0 51 0;
#X connect 22 0 71 0;
#X connect 22 0 72 0;
#X connect 22 0 73 0;
#X connect 24 0 51 0;
#X connect 25 0 51 0;
#X connect 26 0 11 0;
#X connect 26 0 10 0;
#X connect 26 1 36 0;
#X connect 26 1 35 0;
#X connect 26 2 38 0;
#X connect 26 2 37 0;
#X connect 26 3 40 0;
#X connect 26 3 39 0;
#X connect 26 4 42 0;
#X connect 26 4 41 0;
#X connect 26 5 44 0;
#X connect 26 5 43 0;
#X connect 26 6 46 0;
#X connect 26 6 45 0;
#X connect 26 7 48 0;
#X connect 26 7 47 0;
#X connect 35 0 75 0;
#X connect 35 0 77 0;
#X connect 35 0 78 0;
#X connect 35 0 79 0;
#X connect 35 0 80 0;
#X connect 35 0 81 0;
#X connect 35 0 82 0;
#X connect 36 0 76 0;
#X connect 37 0 75 0;
#X connect 37 0 76 0;
#X connect 37 0 78 0;
#X connect 37 0 79 0;
#X connect 37 0 80 0;
#X connect 37 0 81 0;
#X connect 37 0 82 0;
#X connect 38 0 77 0;
#X connect 39 0 75 0;
#X connect 39 0 76 0;
#X connect 39 0 77 0;
#X connect 39 0 79 0;
#X connect 39 0 80 0;
#X connect 39 0 81 0;
#X connect 39 0 82 0;
#X connect 40 0 78 0;
#X connect 41 0 75 0;
#X connect 41 0 76 0;
#X connect 41 0 77 0;
#X connect 41 0 78 0;
#X connect 41 0 80 0;
#X connect 41 0 81 0;
#X connect 41 0 82 0;
#X connect 42 0 79 0;
#X connect 43 0 75 0;
#X connect 43 0 76 0;
#X connect 43 0 77 0;
#X connect 43 0 78 0;
#X connect 43 0 79 0;
#X connect 43 0 81 0;
#X connect 43 0 82 0;
#X connect 44 0 80 0;
#X connect 45 0 75 0;
#X connect 45 0 76 0;
#X connect 45 0 77 0;
#X connect 45 0 78 0;
#X connect 45 0 79 0;
#X connect 45 0 80 0;
#X connect 45 0 82 0;
#X connect 46 0 81 0;
#X connect 47 0 75 0;
#X connect 47 0 76 0;
#X connect 47 0 77 0;
#X connect 47 0 78 0;
#X connect 47 0 79 0;
#X connect 47 0 80 0;
#X connect 47 0 81 0;
#X connect 48 0 82 0;
#X connect 50 0 66 0;
#X connect 50 0 69 0;
#X connect 51 0 74 0;
#X connect 52 0 51 1;
#X connect 52 0 68 0;
#X connect 55 0 56 0;
#X connect 55 0 67 0;
#X connect 56 0 70 0;
#X connect 57 0 59 0;
#X connect 57 0 60 0;
#X connect 57 0 61 0;
#X connect 57 0 62 0;
#X connect 57 0 63 0;
#X connect 57 0 64 0;
#X connect 59 0 1 0;
#X connect 60 0 2 0;
#X connect 61 0 3 0;
#X connect 62 0 4 0;
#X connect 63 0 16 0;
#X connect 64 0 18 0;
#X connect 65 0 26 0;
#X connect 69 0 57 0;
#X connect 70 0 69 0;
#X connect 70 1 57 1;
#X connect 71 0 8 2;
#X connect 72 0 17 2;
#X connect 73 0 19 2;
#X connect 74 0 54 0;
#X connect 83 0 27 0;
#X connect 83 0 12 1;
#X connect 84 0 28 0;
#X connect 84 0 13 1;
#X connect 85 0 29 0;
#X connect 85 0 14 1;
#X connect 86 0 30 0;
#X connect 86 0 15 1;
#X connect 87 0 31 0;
#X connect 87 0 20 1;
#X connect 88 0 32 0;
#X connect 88 0 21 1;
#X connect 89 0 24 1;
#X connect 89 0 33 0;
#X connect 90 0 34 0;
#X connect 90 0 25 1;
#X restore 270 730 pd oscillators2;
#X obj 83 252 spigot;
#N canvas 2577 22 1159 607 oscillators3 0;
#X obj 70 210 osc~;
#X obj 70 167 tdh.util.declick;
#X obj 189 167 tdh.util.declick;
#X obj 330 167 tdh.util.declick;
#X obj 460 167 tdh.util.declick;
#X obj 950 210 noise~;
#X obj 1030 210 cyclone/pink~;
#X obj 189 210 tdh.synth.oscil-tri~;
#X obj 460 210 tdh.synth.oscil-pulse~;
#X obj 330 210 tdh.synth.oscil-saw~;
#X msg 50 -60 0;
#X msg 20 -60 1;
#N canvas 0 22 450 300 on-off 0;
#X obj 124 63 inlet~;
#X obj 237 61 inlet onOff;
#X obj 130 170 *~;
#X obj 240 140 vline~;
#X msg 239 103 \$1 25;
#X obj 130 195 outlet~;
#X connect 0 0 2 0;
#X connect 1 0 4 0;
#X connect 2 0 5 0;
#X connect 3 0 2 1;
#X connect 4 0 3 0;
#X restore 70 260 pd on-off;
#N canvas 0 22 450 300 on-off 0;
#X obj 124 63 inlet~;
#X obj 237 61 inlet onOff;
#X obj 130 170 *~;
#X obj 240 140 vline~;
#X msg 239 103 \$1 25;
#X obj 130 195 outlet~;
#X connect 0 0 2 0;
#X connect 1 0 4 0;
#X connect 2 0 5 0;
#X connect 3 0 2 1;
#X connect 4 0 3 0;
#X restore 189 260 pd on-off;
#N canvas 0 22 450 300 on-off 0;
#X obj 124 63 inlet~;
#X obj 237 61 inlet onOff;
#X obj 130 170 *~;
#X obj 240 140 vline~;
#X msg 239 103 \$1 25;
#X obj 130 195 outlet~;
#X connect 0 0 2 0;
#X connect 1 0 4 0;
#X connect 2 0 5 0;
#X connect 3 0 2 1;
#X connect 4 0 3 0;
#X restore 330 260 pd on-off;
#N canvas 0 22 450 300 on-off 0;
#X obj 124 63 inlet~;
#X obj 237 61 inlet onOff;
#X obj 130 170 *~;
#X obj 240 140 vline~;
#X msg 239 103 \$1 25;
#X obj 130 195 outlet~;
#X connect 0 0 2 0;
#X connect 1 0 4 0;
#X connect 2 0 5 0;
#X connect 3 0 2 1;
#X connect 4 0 3 0;
#X restore 460 260 pd on-off;
#X obj 620 167 tdh.util.declick;
#X obj 620 210 tdh.synth.oscil-pulse~;
#X obj 780 167 tdh.util.declick;
#X obj 780 210 tdh.synth.oscil-pulse~;
#N canvas 0 22 450 300 on-off 0;
#X obj 124 63 inlet~;
#X obj 237 61 inlet onOff;
#X obj 130 170 *~;
#X obj 240 140 vline~;
#X msg 239 103 \$1 25;
#X obj 130 195 outlet~;
#X connect 0 0 2 0;
#X connect 1 0 4 0;
#X connect 2 0 5 0;
#X connect 3 0 2 1;
#X connect 4 0 3 0;
#X restore 620 260 pd on-off;
#N canvas 0 22 450 300 on-off 0;
#X obj 124 63 inlet~;
#X obj 237 61 inlet onOff;
#X obj 130 170 *~;
#X obj 240 140 vline~;
#X msg 239 103 \$1 25;
#X obj 130 195 outlet~;
#X connect 0 0 2 0;
#X connect 1 0 4 0;
#X connect 2 0 5 0;
#X connect 3 0 2 1;
#X connect 4 0 3 0;
#X restore 780 260 pd on-off;
#X obj 580 110 loadbang;
#X text 640 110 Set the pulsewidth of the pulse oscil;
#N canvas 0 22 450 300 on-off 0;
#X obj 124 63 inlet~;
#X obj 237 61 inlet onOff;
#X obj 130 170 *~;
#X obj 240 140 vline~;
#X msg 239 103 \$1 25;
#X obj 130 195 outlet~;
#X connect 0 0 2 0;
#X connect 1 0 4 0;
#X connect 2 0 5 0;
#X connect 3 0 2 1;
#X connect 4 0 3 0;
#X restore 950 260 pd on-off;
#N canvas 0 22 450 300 on-off 0;
#X obj 124 63 inlet~;
#X obj 237 61 inlet onOff;
#X obj 130 170 *~;
#X obj 240 140 vline~;
#X msg 239 103 \$1 25;
#X obj 130 195 outlet~;
#X connect 0 0 2 0;
#X connect 1 0 4 0;
#X connect 2 0 5 0;
#X connect 3 0 2 1;
#X connect 4 0 3 0;
#X restore 1030 260 pd on-off;
#X obj 20 -90 sel 0 1 2 3 4 5 6 7, f 100;
#X obj 140 260 tgl 15 0 empty empty empty 17 7 0 10 -262144 -1 -1 0
1;
#X obj 260 260 tgl 15 0 empty empty empty 17 7 0 10 -262144 -1 -1 1
1;
#X obj 409 260 tgl 15 0 empty empty empty 17 7 0 10 -262144 -1 -1 0
1;
#X obj 540 260 tgl 15 0 empty empty empty 17 7 0 10 -262144 -1 -1 0
1;
#X obj 690 260 tgl 15 0 empty empty empty 17 7 0 10 -262144 -1 -1 0
1;
#X obj 860 260 tgl 15 0 empty empty empty 17 7 0 10 -262144 -1 -1 0
1;
#X obj 1010 260 tgl 15 0 empty empty empty 17 7 0 10 -262144 -1 -1
0 1;
#X obj 1100 260 tgl 15 0 empty empty empty 17 7 0 10 -262144 -1 -1
0 1;
#X msg 124 -60 0;
#X msg 94 -60 1;
#X msg 199 -60 0;
#X msg 169 -60 1;
#X msg 273 -60 0;
#X msg 243 -60 1;
#X msg 348 -60 0;
#X msg 318 -60 1;
#X msg 423 -60 0;
#X msg 393 -60 1;
#X msg 497 -60 0;
#X msg 467 -60 1;
#X msg 572 -60 0;
#X msg 542 -60 1;
#X text 20 -160 _;
#X obj 710 -120 inlet freq;
#X obj 920 340 *~;
#X obj 933 -120 inlet gain;
#X text 110 -150 All oscillators are live \, so this code handles the
radio button input and turns on output for the oscillator that corresponds
with the radio button input \, and silences all other oscillators;
#X obj 920 400 outlet~;
#X obj 810 -130 inlet octave;
#X obj 810 -87 * 12;
#X obj 710 -30 +;
#X text 750 -30 Frequency is handled in MIDI (sort of - it is still
floating point) \, and oct# * 12 offsets a MIDI pitch to a new octave
, f 25;
#X obj 72 140 mtof;
#X obj 190 140 mtof;
#X obj 332 140 mtof;
#X obj 460 140 mtof;
#X obj 620 140 mtof;
#X obj 780 140 mtof;
#X obj 20 -120 inlet shape;
#X floatatom 730 -90 5 0 0 0 - - -;
#X floatatom 850 -90 5 0 0 0 - - -;
#X floatatom 960 -90 5 0 0 0 - - -;
#X obj 706 -62 f;
#X obj 810 -62 t b f;
#X msg 578 169 0.05;
#X msg 735 162 0.2;
#X msg 889 133 0.5;
#X obj 888 365 lop~ 15000;
#X obj 20 -10 s \$0-sin3;
#X obj 70 -10 s \$0-tri3;
#X obj 120 -10 s \$0-saw3;
#X obj 170 -10 s \$0-sqr3a;
#X obj 220 -10 s \$0-sqr3b;
#X obj 270 -10 s \$0-sqr3c;
#X obj 319 -10 s \$0-noise3;
#X obj 379 -10 s \$0-pink3;
#X obj 140 230 r \$0-sin3;
#X obj 260 230 r \$0-tri3;
#X obj 408 230 r \$0-saw3;
#X obj 540 230 r \$0-sqr3a;
#X obj 690 230 r \$0-sqr3b;
#X obj 860 230 r \$0-sqr3c;
#X obj 970 230 r \$0-noise3;
#X obj 1080 229 r \$0-pink3;
#X connect 0 0 12 0;
#X connect 1 0 0 0;
#X connect 2 0 7 0;
#X connect 3 0 9 0;
#X connect 4 0 8 0;
#X connect 5 0 24 0;
#X connect 6 0 25 0;
#X connect 7 0 13 0;
#X connect 8 0 15 0;
#X connect 9 0 14 0;
#X connect 10 0 76 0;
#X connect 10 0 77 0;
#X connect 10 0 78 0;
#X connect 10 0 79 0;
#X connect 10 0 80 0;
#X connect 10 0 81 0;
#X connect 10 0 82 0;
#X connect 11 0 75 0;
#X connect 12 0 51 0;
#X connect 13 0 51 0;
#X connect 14 0 51 0;
#X connect 15 0 51 0;
#X connect 16 0 17 0;
#X connect 17 0 20 0;
#X connect 18 0 19 0;
#X connect 19 0 21 0;
#X connect 20 0 51 0;
#X connect 21 0 51 0;
#X connect 22 0 71 0;
#X connect 22 0 72 0;
#X connect 22 0 73 0;
#X connect 24 0 51 0;
#X connect 25 0 51 0;
#X connect 26 0 11 0;
#X connect 26 0 10 0;
#X connect 26 1 36 0;
#X connect 26 1 35 0;
#X connect 26 2 38 0;
#X connect 26 2 37 0;
#X connect 26 3 40 0;
#X connect 26 3 39 0;
#X connect 26 4 42 0;
#X connect 26 4 41 0;
#X connect 26 5 44 0;
#X connect 26 5 43 0;
#X connect 26 6 46 0;
#X connect 26 6 45 0;
#X connect 26 7 48 0;
#X connect 26 7 47 0;
#X connect 35 0 75 0;
#X connect 35 0 77 0;
#X connect 35 0 78 0;
#X connect 35 0 79 0;
#X connect 35 0 80 0;
#X connect 35 0 81 0;
#X connect 35 0 82 0;
#X connect 36 0 76 0;
#X connect 37 0 75 0;
#X connect 37 0 76 0;
#X connect 37 0 78 0;
#X connect 37 0 79 0;
#X connect 37 0 80 0;
#X connect 37 0 81 0;
#X connect 37 0 82 0;
#X connect 38 0 77 0;
#X connect 39 0 75 0;
#X connect 39 0 76 0;
#X connect 39 0 77 0;
#X connect 39 0 79 0;
#X connect 39 0 80 0;
#X connect 39 0 81 0;
#X connect 39 0 82 0;
#X connect 40 0 78 0;
#X connect 41 0 75 0;
#X connect 41 0 76 0;
#X connect 41 0 77 0;
#X connect 41 0 78 0;
#X connect 41 0 80 0;
#X connect 41 0 81 0;
#X connect 41 0 82 0;
#X connect 42 0 79 0;
#X connect 43 0 75 0;
#X connect 43 0 76 0;
#X connect 43 0 77 0;
#X connect 43 0 78 0;
#X connect 43 0 79 0;
#X connect 43 0 81 0;
#X connect 43 0 82 0;
#X connect 44 0 80 0;
#X connect 45 0 75 0;
#X connect 45 0 76 0;
#X connect 45 0 77 0;
#X connect 45 0 78 0;
#X connect 45 0 79 0;
#X connect 45 0 80 0;
#X connect 45 0 82 0;
#X connect 46 0 81 0;
#X connect 47 0 75 0;
#X connect 47 0 76 0;
#X connect 47 0 77 0;
#X connect 47 0 78 0;
#X connect 47 0 79 0;
#X connect 47 0 80 0;
#X connect 47 0 81 0;
#X connect 48 0 82 0;
#X connect 50 0 66 0;
#X connect 50 0 69 0;
#X connect 51 0 74 0;
#X connect 52 0 51 1;
#X connect 52 0 68 0;
#X connect 55 0 56 0;
#X connect 55 0 67 0;
#X connect 56 0 70 0;
#X connect 57 0 59 0;
#X connect 57 0 60 0;
#X connect 57 0 61 0;
#X connect 57 0 62 0;
#X connect 57 0 63 0;
#X connect 57 0 64 0;
#X connect 59 0 1 0;
#X connect 60 0 2 0;
#X connect 61 0 3 0;
#X connect 62 0 4 0;
#X connect 63 0 16 0;
#X connect 64 0 18 0;
#X connect 65 0 26 0;
#X connect 69 0 57 0;
#X connect 70 0 69 0;
#X connect 70 1 57 1;
#X connect 71 0 8 2;
#X connect 72 0 17 2;
#X connect 73 0 19 2;
#X connect 74 0 54 0;
#X connect 83 0 27 0;
#X connect 83 0 12 1;
#X connect 84 0 28 0;
#X connect 84 0 13 1;
#X connect 85 0 29 0;
#X connect 85 0 14 1;
#X connect 86 0 30 0;
#X connect 86 0 15 1;
#X connect 87 0 31 0;
#X connect 87 0 20 1;
#X connect 88 0 32 0;
#X connect 88 0 21 1;
#X connect 89 0 24 1;
#X connect 89 0 33 0;
#X connect 90 0 34 0;
#X connect 90 0 25 1;
#X restore 410 720 pd oscillators3;
#X obj 98 400 cnv 15 407 29 empty empty 3\\\ Oscillator\\\ Synth\\\ Module
20 12 0 14 -233017 -66577 0;
#N canvas 197 114 1243 650 mod-maytrix 0;
#X obj 150 110 tgl 10 0 empty empty FM -1 -9 0 10 -262144 -1 -1 0 1
;
#X obj 150 129 tgl 10 0 empty empty empty 17 7 0 10 -262144 -1 -1 0
1;
#X obj 170 110 tgl 10 0 empty empty AM -1 -9 0 10 -262144 -1 -1 0 1
;
#X obj 170 129 tgl 10 0 empty empty empty 17 7 0 10 -262144 -1 -1 0
1;
#X text -150 520 _;
#X obj 150 149 tgl 10 0 empty empty empty 17 7 0 10 -262144 -1 -1 0
1;
#X obj 170 149 tgl 10 0 empty empty empty 17 7 0 10 -262144 -1 -1 0
1;
#X obj 210 110 vsl 12 44 0 127 0 0 empty empty FM -1 -9 0 10 -262144
-1 -1 0 1;
#X obj 230 110 vsl 12 44 0 127 0 0 empty empty AM -1 -9 0 10 -262144
-1 -1 0 1;
#X obj 194 84 cnv 2 2 74 empty empty empty 20 12 0 14 -233017 -66577
0;
#X text 137 80 Routing;
#X text 208 80 Amount;
#X obj 452 60 inlet~ fm;
#X obj 722 60 inlet~ am;
#X obj 452 120 *~;
#X obj 452 210 outlet~ fm-1;
#X obj 722 210 outlet~ am-1;
#X obj 150 180 s \$0-fm1;
#X obj 150 200 s \$0-fm2;
#X obj 150 221 s \$0-fm3;
#X obj 467 90 r \$0-fm1;
#X obj 210 320 s \$0-fmAmt;
#X obj 230 340 s \$0-amAmt;
#X obj 170 250 s \$0-am1;
#X obj 170 270 s \$0-am2;
#X obj 170 290 s \$0-am3;
#X obj 452 180 *~;
#X obj 722 179 *~;
#X obj 737 90 r \$0-am1;
#X obj 722 120 *~;
#X obj 467 150 r \$0-fmAmt;
#X obj 737 149 r \$0-amAmt;
#X obj 542 120 *~;
#X obj 557 90 r \$0-fm1;
#X obj 542 180 *~;
#X obj 812 179 *~;
#X obj 812 120 *~;
#X obj 557 150 r \$0-fmAmt;
#X obj 827 149 r \$0-amAmt;
#X obj 632 120 *~;
#X obj 647 90 r \$0-fm1;
#X obj 632 180 *~;
#X obj 902 179 *~;
#X obj 902 120 *~;
#X obj 647 150 r \$0-fmAmt;
#X obj 917 149 r \$0-amAmt;
#X obj 542 210 outlet~ fm-2;
#X obj 632 210 outlet~ fm-3;
#X obj 812 210 outlet~ am-2;
#X obj 902 210 outlet~ am-3;
#X obj 827 90 r \$0-am2;
#X obj 917 90 r \$0-am3;
#X obj -140 77 cnv 5 395 5 empty empty Modulation 2 10 0 14 -233017
-66577 0;
#X text 110 106 Osc 1;
#X text 110 125 Osc 2;
#X text 110 145 Osc 3;
#X obj 20 385 outlet sync;
#X connect 0 0 17 0;
#X connect 1 0 18 0;
#X connect 2 0 23 0;
#X connect 3 0 24 0;
#X connect 5 0 19 0;
#X connect 6 0 25 0;
#X connect 7 0 21 0;
#X connect 8 0 22 0;
#X connect 12 0 14 0;
#X connect 12 0 32 0;
#X connect 12 0 39 0;
#X connect 13 0 29 0;
#X connect 13 0 36 0;
#X connect 13 0 43 0;
#X connect 14 0 26 0;
#X connect 20 0 14 1;
#X connect 26 0 15 0;
#X connect 27 0 16 0;
#X connect 28 0 29 1;
#X connect 29 0 27 0;
#X connect 30 0 26 1;
#X connect 31 0 27 1;
#X connect 32 0 34 0;
#X connect 33 0 32 1;
#X connect 34 0 46 0;
#X connect 35 0 48 0;
#X connect 36 0 35 0;
#X connect 37 0 34 1;
#X connect 38 0 35 1;
#X connect 39 0 41 0;
#X connect 40 0 39 1;
#X connect 41 0 47 0;
#X connect 42 0 49 0;
#X connect 43 0 42 0;
#X connect 44 0 41 1;
#X connect 45 0 42 1;
#X connect 50 0 36 1;
#X connect 51 0 43 1;
#X coords 0 -1 1 1 401 91 2 -142 70;
#X restore -297 604 pd mod-maytrix;
#X text 50 -260 TO DO;
#X text 50 -230 Number fields for all sliders \, settable via number
fields;
#X text -10 247 For oscillator sync to OSC1, f 14;
#X obj 98 8 cnv 5 406 5 empty empty Oscillators 2 10 0 14 -233017 -66577
0;
#X obj 132 42 tgl 15 0 empty empty Osc\\\ Sync 17 7 0 10 -262144 -1
-1 0 1;
#X obj 130 -144 inlet 1-shape;
#X obj 144 -123 inlet 1-octve;
#X obj 163 -102 inlet 1-freq;
#X obj 184 -80 inlet 1-gain;
#X text 96 -41 1Shp;
#X text 127 -41 1Oct;
#X text 162 -41 1Frq;
#X text 198 -41 1Gn;
#X text 119 -41 |;
#X text 153 -41 |;
#X text 188 -41 |;
#X text 260 -41 |;
#X text 300 -41 |;
#X text 335 -41 |;
#X text 230 -41 2Shp;
#X text 221 -41 |;
#X text 271 -41 2Oct;
#X text 308 -41 2Frq;
#X text 346 -41 2Gn;
#X text 402 -41 |;
#X text 442 -41 |;
#X text 477 -41 |;
#X text 367 -41 |;
#X text 376 -41 3Shp;
#X text 414 -41 3Oct;
#X text 451 -41 3Frq;
#X text 485 -41 3Gn;
#X obj 270 -147 inlet 2-shape;
#X obj 284 -126 inlet 2-octve;
#X obj 303 -105 inlet 2-freq;
#X obj 324 -83 inlet 2-gain;
#X obj 408 -143 inlet 3-shape;
#X obj 422 -122 inlet 3-octve;
#X obj 441 -101 inlet 3-freq;
#X obj 462 -79 inlet 3-gain;
#X msg 5 70 1;
#X text 53 -207 Freq and gain inputs in Voltage;
#X text 147 110 Sin;
#X text 147 125 Tri;
#X text 147 140 Saw;
#X text 147 155 Pls1;
#X text 147 170 Pls2;
#X text 147 184 Pls3;
#X text 147 199 PnkNs;
#X text 147 214 WhtNs;
#X text 287 110 Sin;
#X text 287 125 Tri;
#X text 287 140 Saw;
#X text 287 155 Pls1;
#X text 287 171 Pls2;
#X text 287 185 Pls3;
#X text 287 200 PnkNs;
#X text 287 215 WhtNs;
#X text 427 110 Sin;
#X text 427 125 Tri;
#X text 427 140 Saw;
#X text 427 155 Pls1;
#X text 427 171 Pls2;
#X text 427 185 Pls3;
#X text 427 200 PnkNs;
#X text 427 215 WhtNs;
#X text 197 110 Lo;
#X text 197 125 32';
#X text 197 140 16';
#X text 197 155 8';
#X text 197 170 4';
#X text 197 184 2';
#X text 337 110 Lo;
#X text 337 125 32';
#X text 337 140 16';
#X text 337 155 8';
#X text 337 170 4';
#X text 337 184 2';
#X text 477 110 Lo;
#X text 477 125 32';
#X text 477 140 16';
#X text 477 155 8';
#X text 477 170 4';
#X text 477 184 2';
#X connect 0 0 10 0;
#X connect 1 0 17 0;
#X connect 2 0 8 0;
#X connect 2 0 52 0;
#X connect 3 0 7 0;
#X connect 11 0 50 2;
#X connect 12 0 50 1;
#X connect 13 0 50 3;
#X connect 14 0 50 0;
#X connect 16 0 96 0;
#X connect 17 0 9 0;
#X connect 20 0 34 0;
#X connect 21 0 24 0;
#X connect 22 0 36 0;
#X connect 23 0 35 0;
#X connect 24 0 37 0;
#X connect 27 0 42 0;
#X connect 28 0 31 0;
#X connect 29 0 44 0;
#X connect 30 0 43 0;
#X connect 31 0 45 0;
#X connect 38 0 51 0;
#X connect 39 0 51 1;
#X connect 40 0 51 2;
#X connect 41 0 51 3;
#X connect 46 0 53 0;
#X connect 47 0 53 1;
#X connect 48 0 53 2;
#X connect 49 0 53 3;
#X connect 50 0 15 0;
#X connect 51 0 15 0;
#X connect 52 0 22 0;
#X connect 52 0 29 0;
#X connect 53 0 15 0;
#X connect 55 1 50 4;
#X connect 55 2 50 5;
#X connect 60 0 52 1;
#X connect 61 0 0 0;
#X connect 62 0 3 0;
#X connect 63 0 2 0;
#X connect 64 0 1 0;
#X connect 88 0 20 0;
#X connect 89 0 23 0;
#X connect 90 0 22 0;
#X connect 91 0 21 0;
#X connect 92 0 27 0;
#X connect 93 0 30 0;
#X connect 94 0 29 0;
#X connect 95 0 28 0;
#X connect 96 0 0 0;
#X connect 96 0 3 0;
#X connect 96 0 20 0;
#X connect 96 0 23 0;
#X connect 96 0 27 0;
#X connect 96 0 30 0;
#X coords 0 -1 1 1 411 499 2 96 -45;
