#N canvas 28 23 1255 755 10;
#X obj 209 124 bng 15 250 50 0 \$0-bt1-UI \$0-bt1-code empty 17 7 0
10 #fcfcfc #000000 #000000;
#X obj 228 415 tgl 15 0 empty empty empty 17 7 0 10 #fcfcfc #000000
#000000 0 1;
#X obj 228 515 metro 250;
#X floatatom 209 143 5 0 0 0 - - #0-bt1-row1, f 5;
#X floatatom 209 171 5 0 0 0 - - #0-bt1-row2, f 5;
#X floatatom 209 199 5 0 0 0 - - #0-bt1-row3, f 5;
#X obj 248 124 bng 15 250 50 0 \$0-bt2-UI \$0-bt2-code empty 17 7 0
10 #fcfcfc #000000 #000000;
#X obj 289 124 bng 15 250 50 0 \$0-bt3-UI \$0-bt3-code empty 17 7 0
10 #fcfcfc #000000 #000000;
#X obj 330 124 bng 15 250 50 0 \$0-bt4-UI \$0-bt4-code empty 17 7 0
10 #fcfcfc #000000 #000000;
#X obj 370 124 bng 15 250 50 0 \$0-bt5-UI \$0-bt5-code empty 17 7 0
10 #fcfcfc #000000 #000000;
#X obj 411 124 bng 15 250 50 0 \$0-bt6-UI \$0-bt6-code empty 17 7 0
10 #fcfcfc #000000 #000000;
#X obj 448 124 bng 15 250 50 0 \$0-bt7-UI \$0-bt7-code empty 17 7 0
10 #fcfcfc #000000 #000000;
#X obj 487 124 bng 15 250 50 0 \$0-bt8-UI \$0-bt8-code empty 17 7 0
10 #fcfcfc #000000 #000000;
#X obj 528 124 bng 15 250 50 0 \$0-bt9-UI \$0-bt9-code empty 17 7 0
10 #fcfcfc #000000 #000000;
#X obj 569 124 bng 15 250 50 0 \$0-bt10-UI \$0-bt10-code empty 17 7
0 10 #fcfcfc #000000 #000000;
#X obj 609 124 bng 15 250 50 0 \$0-bt11-UI \$0-bt11-code empty 17 7
0 10 #fcfcfc #000000 #000000;
#X obj 650 124 bng 15 250 50 0 \$0-bt12-UI \$0-bt12-code empty 17 7
0 10 #fcfcfc #000000 #000000;
#X obj 690 124 bng 15 250 50 0 \$0-bt13-UI \$0-bt13-code empty 17 7
0 10 #fcfcfc #000000 #000000;
#X obj 730 124 bng 15 250 50 0 \$0-bt14-UI \$0-bt14-code empty 17 7
0 10 #fcfcfc #000000 #000000;
#X obj 770 124 bng 15 250 50 0 \$0-bt15-UI \$0-bt15-code empty 17 7
0 10 #fcfcfc #000000 #000000;
#X obj 811 124 bng 15 250 50 0 \$0-bt16-UI \$0-bt16-code empty 17 7
0 10 #fcfcfc #000000 #000000;
#X text 209 93 1;
#X text 248 93 2;
#X text 289 93 3;
#X text 330 93 4;
#X text 370 93 5;
#X text 411 93 6;
#X text 448 93 7;
#X text 487 93 8;
#X text 528 93 9;
#X text 569 93 10;
#X text 609 93 11;
#X text 650 93 12;
#X text 690 93 13;
#X text 730 93 14;
#X text 770 93 15;
#X text 811 93 16;
#X obj 228 661 sel 1 2 3 4 5 6 7 8 9 10 11 12 13 14 15 16, f 91;
#X obj 228 699 bng 15 250 50 0 \$0-bt1-code empty empty 17 7 0 10 #fcfcfc
#000000 #000000;
#X obj 262 699 bng 15 250 50 0 \$0-bt2-code empty empty 17 7 0 10 #fcfcfc
#000000 #000000;
#X obj 296 699 bng 15 250 50 0 \$0-bt3-code empty empty 17 7 0 10 #fcfcfc
#000000 #000000;
#X obj 330 699 bng 15 250 50 0 \$0-bt4-code empty empty 17 7 0 10 #fcfcfc
#000000 #000000;
#X obj 364 699 bng 15 250 50 0 \$0-bt5-code empty empty 17 7 0 10 #fcfcfc
#000000 #000000;
#X obj 398 699 bng 15 250 50 0 \$0-bt6-code empty empty 17 7 0 10 #fcfcfc
#000000 #000000;
#X obj 432 699 bng 15 250 50 0 \$0-bt7-code empty empty 17 7 0 10 #fcfcfc
#000000 #000000;
#X obj 466 699 bng 15 250 50 0 \$0-bt8-code empty empty 17 7 0 10 #fcfcfc
#000000 #000000;
#X obj 500 699 bng 15 250 50 0 \$0-bt9-code empty empty 17 7 0 10 #fcfcfc
#000000 #000000;
#X obj 534 699 bng 15 250 50 0 \$0-bt10-code empty empty 17 7 0 10
#fcfcfc #000000 #000000;
#X obj 568 699 bng 15 250 50 0 \$0-bt11-code empty empty 17 7 0 10
#fcfcfc #000000 #000000;
#X obj 602 699 bng 15 250 50 0 \$0-bt12-code empty empty 17 7 0 10
#fcfcfc #000000 #000000;
#X obj 636 699 bng 15 250 50 0 \$0-bt13-code empty empty 17 7 0 10
#fcfcfc #000000 #000000;
#X obj 670 699 bng 15 250 50 0 \$0-bt14-code empty empty 17 7 0 10
#fcfcfc #000000 #000000;
#X obj 704 699 bng 15 250 50 0 \$0-bt15-code empty empty 17 7 0 10
#fcfcfc #000000 #000000;
#X obj 738 699 bng 15 250 50 0 \$0-bt16-code empty empty 17 7 0 10
#fcfcfc #000000 #000000;
#X obj 114 771 bng 15 250 50 0 empty empty empty 17 7 0 10 #fcfcfc
#000000 #000000;
#X obj 306 798 bng 15 250 50 0 empty empty empty 17 7 0 10 #fcfcfc
#000000 #000000;
#X obj 444 821 bng 15 250 50 0 empty empty empty 17 7 0 10 #fcfcfc
#000000 #000000;
#X obj 596 848 bng 15 250 50 0 empty empty empty 17 7 0 10 #fcfcfc
#000000 #000000;
#X obj 764 771 bng 15 250 50 0 empty empty empty 17 7 0 10 #fcfcfc
#000000 #000000;
#X obj 906 798 bng 15 250 50 0 empty empty empty 17 7 0 10 #fcfcfc
#000000 #000000;
#X obj 1044 821 bng 15 250 50 0 empty empty empty 17 7 0 10 #fcfcfc
#000000 #000000;
#X obj 1146 848 bng 15 250 50 0 empty empty empty 17 7 0 10 #fcfcfc
#000000 #000000;
#X obj 1264 771 bng 15 250 50 0 empty empty empty 17 7 0 10 #fcfcfc
#000000 #000000;
#X obj 1366 798 bng 15 250 50 0 empty empty empty 17 7 0 10 #fcfcfc
#000000 #000000;
#X obj 1482 824 bng 15 250 50 0 empty empty empty 17 7 0 10 #fcfcfc
#000000 #000000;
#X obj 1594 856 bng 15 250 50 0 empty empty empty 17 7 0 10 #fcfcfc
#000000 #000000;
#X obj 1815 763 bng 15 250 50 0 empty empty empty 17 7 0 10 #fcfcfc
#000000 #000000;
#X obj 1939 807 bng 15 250 50 0 empty empty empty 17 7 0 10 #fcfcfc
#000000 #000000;
#X obj 2066 838 bng 15 250 50 0 empty empty empty 17 7 0 10 #fcfcfc
#000000 #000000;
#X obj 2208 840 r \$0-bt16-UI;
#X obj 2208 865 bng 15 250 50 0 empty empty empty 17 7 0 10 #fcfcfc
#000000 #000000;
#X obj 114 746 r \$0-bt1-UI;
#X obj 306 773 r \$0-bt2-UI;
#X obj 444 796 r \$0-bt3-UI;
#X obj 596 823 r \$0-bt4-UI;
#X obj 764 746 r \$0-bt5-UI;
#X obj 906 773 r \$0-bt6-UI;
#X obj 1044 796 r \$0-bt7-UI;
#X obj 1146 823 r \$0-bt8-UI;
#X obj 1264 746 r \$0-bt9-UI;
#X obj 1366 773 r \$0-bt10-UI;
#X obj 1482 799 r \$0-bt11-UI;
#X obj 1594 831 r \$0-bt12-UI;
#X obj 1813 731 r \$0-bt13-UI;
#X obj 1939 747 r \$0-bt14-UI;
#X obj 2066 813 r \$0-bt15-UI;
#X obj 114 911 f;
#X obj 306 936 f;
#X obj 444 963 f;
#X obj 597 988 f;
#X obj 764 910 f;
#X obj 906 936 f;
#X obj 1044 964 f;
#X obj 1146 988 f;
#X obj 1264 912 f;
#X obj 1366 937 f;
#X obj 1482 964 f;
#X obj 1594 998 f;
#X obj 1815 910 f;
#X obj 1939 936 f;
#X obj 2066 978 f;
#X obj 2208 1005 f;
#X obj 129 886 r \$0-bt1-row1;
#X obj 306 913 r \$0-bt2-row1;
#X obj 459 937 r \$0-bt3-row1;
#X obj 611 962 r \$0-bt4-row1;
#X obj 779 886 r \$0-bt5-row1;
#X obj 922 913 r \$0-bt6-row1;
#X obj 1059 936 r \$0-bt7-row1;
#X obj 1161 963 r \$0-bt8-row1;
#X obj 1279 886 r \$0-bt9-row1;
#X obj 1381 913 r \$0-bt10-row1;
#X obj 1496 939 r \$0-bt11-row1;
#X obj 1609 971 r \$0-bt12-row1;
#X obj 1829 885 r \$0-bt13-row1;
#X obj 1959 915 r \$0-bt14-row1;
#X obj 2080 953 r \$0-bt15-row1;
#X obj 2228 980 r \$0-bt16-row1;
#X floatatom 249 143 5 0 0 0 - - #0-bt2-row1, f 5;
#X floatatom 249 171 5 0 0 0 - - #0-bt2-row2, f 5;
#X floatatom 249 199 5 0 0 0 - - #0-bt2-row3, f 5;
#X floatatom 289 143 5 0 0 0 - - #0-bt3-row1, f 5;
#X floatatom 289 171 5 0 0 0 - - #0-bt3-row2, f 5;
#X floatatom 289 199 5 0 0 0 - - #0-bt3-row3, f 5;
#X floatatom 329 143 5 0 0 0 - - #0-bt4-row1, f 5;
#X floatatom 329 171 5 0 0 0 - - #0-bt4-row2, f 5;
#X floatatom 329 199 5 0 0 0 - - #0-bt4-row3, f 5;
#X floatatom 369 143 5 0 0 0 - - #0-bt5-row1, f 5;
#X floatatom 369 171 5 0 0 0 - - #0-bt5-row2, f 5;
#X floatatom 369 199 5 0 0 0 - - #0-bt5-row3, f 5;
#X floatatom 409 143 5 0 0 0 - - #0-bt6-row1, f 5;
#X floatatom 409 171 5 0 0 0 - - #0-bt6-row2, f 5;
#X floatatom 409 199 5 0 0 0 - - #0-bt6-row3, f 5;
#X floatatom 449 143 5 0 0 0 - - #0-bt7-row1, f 5;
#X floatatom 449 171 5 0 0 0 - - #0-bt7-row2, f 5;
#X floatatom 449 199 5 0 0 0 - - #0-bt7-row3, f 5;
#X floatatom 489 143 5 0 0 0 - - #0-bt8-row1, f 5;
#X floatatom 489 171 5 0 0 0 - - #0-bt8-row2, f 5;
#X floatatom 489 199 5 0 0 0 - - #0-bt8-row3, f 5;
#X floatatom 529 143 5 0 0 0 - - #0-bt9-row1, f 5;
#X floatatom 529 171 5 0 0 0 - - #0-bt9-row2, f 5;
#X floatatom 529 199 5 0 0 0 - - #0-bt9-row3, f 5;
#X floatatom 569 143 5 0 0 0 - - #0-bt10-row1, f 5;
#X floatatom 569 171 5 0 0 0 - - #0-bt10-row2, f 5;
#X floatatom 569 199 5 0 0 0 - - #0-bt10-row3, f 5;
#X floatatom 609 143 5 0 0 0 - - #0-bt11-row1, f 5;
#X floatatom 609 171 5 0 0 0 - - #0-bt11-row2, f 5;
#X floatatom 609 199 5 0 0 0 - - #0-bt11-row3, f 5;
#X floatatom 649 143 5 0 0 0 - - #0-bt12-row1, f 5;
#X floatatom 649 171 5 0 0 0 - - #0-bt12-row2, f 5;
#X floatatom 649 199 5 0 0 0 - - #0-bt12-row3, f 5;
#X floatatom 689 143 5 0 0 0 - - #0-bt13-row1, f 5;
#X floatatom 689 171 5 0 0 0 - - #0-bt13-row2, f 5;
#X floatatom 689 199 5 0 0 0 - - #0-bt13-row3, f 5;
#X floatatom 729 143 5 0 0 0 - - #0-bt14-row1, f 5;
#X floatatom 729 171 5 0 0 0 - - #0-bt14-row2, f 5;
#X floatatom 729 199 5 0 0 0 - - #0-bt14-row3, f 5;
#X floatatom 769 143 5 0 0 0 - - #0-bt15-row1, f 5;
#X floatatom 769 171 5 0 0 0 - - #0-bt15-row2, f 5;
#X floatatom 769 199 5 0 0 0 - - #0-bt15-row3, f 5;
#X floatatom 809 143 5 0 0 0 - - #0-bt16-row1, f 5;
#X floatatom 809 171 5 0 0 0 - - #0-bt16-row2, f 5;
#X floatatom 809 199 5 0 0 0 - - #0-bt16-row3, f 5;
#X obj 114 1091 f;
#X obj 306 1116 f;
#X obj 444 1143 f;
#X obj 597 1168 f;
#X obj 764 1090 f;
#X obj 906 1116 f;
#X obj 1044 1144 f;
#X obj 1146 1168 f;
#X obj 1264 1092 f;
#X obj 1366 1117 f;
#X obj 1482 1144 f;
#X obj 1594 1178 f;
#X obj 1815 1090 f;
#X obj 1939 1116 f;
#X obj 2066 1158 f;
#X obj 2208 1193 f;
#X text -6 893 Row 1;
#X text -7 1026 Row 2;
#X obj 114 1321 f;
#X obj 306 1346 f;
#X obj 444 1373 f;
#X obj 597 1398 f;
#X obj 764 1320 f;
#X obj 906 1346 f;
#X obj 1044 1374 f;
#X obj 1146 1398 f;
#X obj 1264 1322 f;
#X obj 1366 1347 f;
#X obj 1482 1374 f;
#X obj 1594 1408 f;
#X obj 1815 1320 f;
#X obj 1939 1346 f;
#X obj 2066 1385 f;
#X obj 2208 1423 f;
#X text 1 1307 Row 3;
#X floatatom 129 936 5 0 0 0 - - -, f 5;
#X floatatom 376 961 5 0 0 0 - - -, f 5;
#X floatatom 459 1008 5 0 0 0 - - -, f 5;
#X floatatom 637 1003 5 0 0 0 - - -, f 5;
#X floatatom 779 955 5 0 0 0 - - -, f 5;
#X floatatom 922 981 5 0 0 0 - - -, f 5;
#X floatatom 1059 989 5 0 0 0 - - -, f 5;
#X floatatom 1161 1019 5 0 0 0 - - -, f 5;
#X floatatom 1381 962 5 0 0 0 - - -, f 5;
#X floatatom 1279 937 5 0 0 0 - - -, f 5;
#X floatatom 1482 989 5 0 0 0 - - -, f 5;
#X floatatom 1609 1019 5 0 0 0 - - -, f 5;
#X floatatom 1279 1117 5 0 0 0 - - -, f 5;
#X floatatom 1829 935 5 0 0 0 - - -, f 5;
#X floatatom 1959 961 5 0 0 0 - - -, f 5;
#X floatatom 2080 1004 5 0 0 0 - - -, f 5;
#X floatatom 2228 1019 5 0 0 0 - - -, f 5;
#X floatatom 2238 1200 5 0 0 0 - - -, f 5;
#X floatatom 2080 1191 5 0 0 0 - - -, f 5;
#X floatatom 1959 1141 5 0 0 0 - - -, f 5;
#X floatatom 1829 1115 5 0 0 0 - - -, f 5;
#X floatatom 1609 1203 5 0 0 0 - - -, f 5;
#X floatatom 1496 1169 5 0 0 0 - - -, f 5;
#X floatatom 1381 1142 5 0 0 0 - - -, f 5;
#X floatatom 1161 1193 5 0 0 0 - - -, f 5;
#X floatatom 1059 1169 5 0 0 0 - - -, f 5;
#X floatatom 922 1141 5 0 0 0 - - -, f 5;
#X floatatom 779 1114 5 0 0 0 - - -, f 5;
#X floatatom 617 1193 5 0 0 0 - - -, f 5;
#X floatatom 459 1168 5 0 0 0 - - -, f 5;
#X floatatom 376 1141 5 0 0 0 - - -, f 5;
#X floatatom 129 1116 5 0 0 0 - - -, f 5;
#X floatatom 129 1346 5 0 0 0 - - -, f 5;
#X floatatom 376 1371 5 0 0 0 - - -, f 5;
#X floatatom 459 1398 5 0 0 0 - - -, f 5;
#X floatatom 617 1423 5 0 0 0 - - -, f 5;
#X floatatom 779 1345 5 0 0 0 - - -, f 5;
#X floatatom 922 1371 5 0 0 0 - - -, f 5;
#X floatatom 1059 1399 5 0 0 0 - - -, f 5;
#X floatatom 1161 1423 5 0 0 0 - - -, f 5;
#X floatatom 1279 1347 5 0 0 0 - - -, f 5;
#X floatatom 1381 1372 5 0 0 0 - - -, f 5;
#X floatatom 1496 1399 5 0 0 0 - - -, f 5;
#X floatatom 1609 1433 5 0 0 0 - - -, f 5;
#X floatatom 2228 1455 5 0 0 0 - - -, f 5;
#X floatatom 2080 1416 5 0 0 0 - - -, f 5;
#X floatatom 1959 1374 5 0 0 0 - - -, f 5;
#X floatatom 1829 1345 5 0 0 0 - - -, f 5;
#X obj 129 1066 r \$0-bt1-row2;
#X obj 306 1093 r \$0-bt2-row2;
#X obj 611 1142 r \$0-bt4-row2;
#X obj 779 1066 r \$0-bt5-row2;
#X obj 459 1117 r \$0-bt3-row2;
#X obj 922 1095 r \$0-bt6-row2;
#X obj 1059 1116 r \$0-bt7-row2;
#X obj 1161 1143 r \$0-bt8-row2;
#X obj 1279 1066 r \$0-bt9-row2;
#X obj 1381 1093 r \$0-bt10-row2;
#X obj 1496 1119 r \$0-bt11-row2;
#X obj 1609 1151 r \$0-bt12-row2;
#X obj 1829 1065 r \$0-bt13-row2;
#X obj 1959 1095 r \$0-bt14-row2;
#X obj 2080 1133 r \$0-bt15-row2;
#X obj 2228 1160 r \$0-bt16-row2;
#X obj 2228 1390 r \$0-bt16-row3;
#X obj 2080 1363 r \$0-bt15-row3;
#X obj 1959 1325 r \$0-bt14-row3;
#X obj 1829 1295 r \$0-bt13-row3;
#X obj 1609 1381 r \$0-bt12-row3;
#X obj 1496 1349 r \$0-bt11-row3;
#X obj 1381 1323 r \$0-bt10-row3;
#X obj 1279 1296 r \$0-bt9-row3;
#X obj 1161 1373 r \$0-bt8-row3;
#X obj 1059 1346 r \$0-bt7-row3;
#X obj 922 1323 r \$0-bt6-row3;
#X obj 779 1296 r \$0-bt5-row3;
#X obj 611 1372 r \$0-bt4-row3;
#X obj 459 1347 r \$0-bt3-row3;
#X obj 306 1323 r \$0-bt2-row3;
#X obj 129 1296 r \$0-bt1-row3;
#X obj 279 392 r \$0-seq-speed;
#X obj 208 35 tgl 15 0 \$0-seq-run empty Run 0 -10 0 10 #fcfcfc #000000
#000000 0 1;
#X obj 228 370 r \$0-seq-run;
#X obj 209 66 bng 15 250 50 0 \$0-seq-reset empty Reset -7 -10 0 10
#fcfcfc #000000 #000000;
#X obj 364 638 bng 15 250 50 0 empty empty empty 17 7 0 10 #fcfcfc
#000000 #000000;
#X obj 364 609 r \$0-seq-reset;
#X msg 453 552 up;
#X msg 488 552 down;
#X msg 525 552 updown;
#X obj 236 38 vradio 15 0 1 3 \$0-direction empty empty 0 -8 0 10 #fcfcfc
#000000 #000000 2;
#X obj 453 485 r \$0-direction;
#X floatatom 535 510 5 0 0 1 DEBUG - -, f 5;
#X obj 453 510 sel 0 1 2;
#X text 252 37 Forward;
#X text 252 52 Backward;
#X text 252 66 Forward/Backward;
#X text 235 20 Direction;
#X obj 121 987 s \$0-row-1-out;
#X obj 306 981 s \$0-row-1-out;
#X obj 444 1008 s \$0-row-1-out;
#X obj 597 1033 s \$0-row-1-out;
#X obj 762 977 s \$0-row-1-out;
#X obj 907 993 s \$0-row-1-out;
#X obj 1044 1009 s \$0-row-1-out;
#X obj 1146 1033 s \$0-row-1-out;
#X obj 1264 957 s \$0-row-1-out;
#X obj 1366 982 s \$0-row-1-out;
#X obj 1482 1009 s \$0-row-1-out;
#X obj 1594 1043 s \$0-row-1-out;
#X obj 1815 955 s \$0-row-1-out;
#X obj 1939 981 s \$0-row-1-out;
#X obj 2066 1023 s \$0-row-1-out;
#X obj 2208 1050 s \$0-row-1-out;
#X obj 114 1156 s \$0-row-2-out;
#X obj 306 1181 s \$0-row-2-out;
#X obj 444 1208 s \$0-row-2-out;
#X obj 597 1233 s \$0-row-2-out;
#X obj 764 1155 s \$0-row-2-out;
#X obj 906 1181 s \$0-row-2-out;
#X obj 1044 1209 s \$0-row-2-out;
#X obj 1146 1233 s \$0-row-2-out;
#X obj 1264 1157 s \$0-row-2-out;
#X obj 1366 1182 s \$0-row-2-out;
#X obj 1482 1209 s \$0-row-2-out;
#X obj 1594 1243 s \$0-row-2-out;
#X obj 1815 1155 s \$0-row-2-out;
#X obj 1939 1181 s \$0-row-2-out;
#X obj 2066 1223 s \$0-row-2-out;
#X obj 2208 1258 s \$0-row-2-out;
#X obj 114 1417 s \$0-row-3-out;
#X obj 306 1411 s \$0-row-3-out;
#X obj 444 1438 s \$0-row-3-out;
#X obj 597 1463 s \$0-row-3-out;
#X obj 764 1385 s \$0-row-3-out;
#X obj 906 1411 s \$0-row-3-out;
#X obj 1044 1439 s \$0-row-3-out;
#X obj 1146 1463 s \$0-row-3-out;
#X obj 1264 1387 s \$0-row-3-out;
#X obj 1366 1412 s \$0-row-3-out;
#X obj 1482 1439 s \$0-row-3-out;
#X obj 1594 1473 s \$0-row-3-out;
#X obj 1815 1385 s \$0-row-3-out;
#X obj 1939 1411 s \$0-row-3-out;
#X obj 2066 1450 s \$0-row-3-out;
#X obj 2208 1488 s \$0-row-3-out;
#X obj 117 1525 r \$0-row-1-out;
#X obj 263 1528 r \$0-row-2-out;
#X obj 404 1529 r \$0-row-3-out;
#X obj 117 1550 outlet;
#X obj 263 1553 outlet;
#X obj 404 1554 outlet;
#X text -4 1895 _;
#X text -164 1905 _;
#X text -126 21 _;
#X floatatom 396 29 5 0 0 1 Rate - #0-seq-speed, f 5;
#X obj 270 565 random 1;
#X obj 228 544 t b b;
#X obj 228 592 delay;
#X obj 315 528 r \$0-jitter;
#X floatatom 377 418 5 0 0 1 DEBUG - -, f 5;
#X text 461 27 (Steps/sec);
#X floatatom 303 501 5 0 0 1 DEBUG - -, f 5;
#X obj 396 -81 loadbang;
#X msg 396 -56 1;
#X obj 396 52 hsl 78 14 0 100 0 0 empty empty empty -2 -8 0 10 #fcfcfc
#000000 #000000 0 1;
#X floatatom 395 70 5 0 100 0 - - -, f 5;
#X text 482 50 Jitter;
#X floatatom 338 560 5 0 0 1 DEBUG - -, f 5;
#X obj 870 89 s \$0-jitter;
#X msg 870 43 set \$1;
#X msg 870 66 set \$1;
#X text 199 256 Row 1;
#X text 489 256 Row 2;
#X text 809 256 Row 3;
#X obj 279 477 /;
#X obj 279 417 t b f;
#X msg 255 444 1000;
#X obj 64 -44 inlet;
#X obj 365 43 bng 15 250 50 0 \$0-step empty Step -7 -10 0 10 #fcfcfc
#000000 #000000;
#X obj 157 573 r \$0-step;
#X obj 157 600 bng 15 250 50 0 empty empty empty 17 7 0 10 #fcfcfc
#000000 #000000;
#X obj 503 -18 inlet;
#X obj 228 631 cyclone/counter 1 16;
#X obj 201 221 cnv 15 641 30 empty empty Sequencer 20 12 0 14 #e0e0e0
#404040 0;
#X msg 320 -42 0;
#X connect 1 0 2 0;
#X connect 2 0 354 0;
#X connect 37 0 38 0;
#X connect 37 1 39 0;
#X connect 37 2 40 0;
#X connect 37 3 41 0;
#X connect 37 4 42 0;
#X connect 37 5 43 0;
#X connect 37 6 44 0;
#X connect 37 7 45 0;
#X connect 37 8 46 0;
#X connect 37 9 47 0;
#X connect 37 10 48 0;
#X connect 37 11 49 0;
#X connect 37 12 50 0;
#X connect 37 13 51 0;
#X connect 37 14 52 0;
#X connect 37 15 53 0;
#X connect 54 0 86 0;
#X connect 54 0 163 0;
#X connect 54 0 181 0;
#X connect 55 0 87 0;
#X connect 55 0 164 0;
#X connect 55 0 182 0;
#X connect 56 0 88 0;
#X connect 56 0 165 0;
#X connect 56 0 183 0;
#X connect 57 0 89 0;
#X connect 57 0 166 0;
#X connect 57 0 184 0;
#X connect 58 0 90 0;
#X connect 58 0 167 0;
#X connect 58 0 185 0;
#X connect 59 0 91 0;
#X connect 59 0 168 0;
#X connect 59 0 186 0;
#X connect 60 0 92 0;
#X connect 60 0 169 0;
#X connect 60 0 187 0;
#X connect 61 0 93 0;
#X connect 61 0 170 0;
#X connect 61 0 188 0;
#X connect 62 0 94 0;
#X connect 62 0 171 0;
#X connect 62 0 189 0;
#X connect 63 0 95 0;
#X connect 63 0 172 0;
#X connect 63 0 190 0;
#X connect 64 0 96 0;
#X connect 64 0 173 0;
#X connect 64 0 191 0;
#X connect 65 0 97 0;
#X connect 65 0 174 0;
#X connect 65 0 192 0;
#X connect 66 0 98 0;
#X connect 66 0 175 0;
#X connect 66 0 193 0;
#X connect 67 0 99 0;
#X connect 67 0 176 0;
#X connect 67 0 194 0;
#X connect 68 0 100 0;
#X connect 68 0 177 0;
#X connect 68 0 195 0;
#X connect 69 0 70 0;
#X connect 70 0 101 0;
#X connect 70 0 178 0;
#X connect 70 0 196 0;
#X connect 71 0 54 0;
#X connect 72 0 55 0;
#X connect 73 0 56 0;
#X connect 74 0 57 0;
#X connect 75 0 58 0;
#X connect 76 0 59 0;
#X connect 77 0 60 0;
#X connect 78 0 61 0;
#X connect 79 0 62 0;
#X connect 80 0 63 0;
#X connect 81 0 64 0;
#X connect 82 0 65 0;
#X connect 83 0 66 0;
#X connect 84 0 67 0;
#X connect 85 0 68 0;
#X connect 86 0 198 0;
#X connect 86 0 295 0;
#X connect 87 0 199 0;
#X connect 87 0 296 0;
#X connect 88 0 200 0;
#X connect 88 0 297 0;
#X connect 89 0 201 0;
#X connect 89 0 298 0;
#X connect 90 0 202 0;
#X connect 90 0 299 0;
#X connect 91 0 203 0;
#X connect 91 0 300 0;
#X connect 92 0 204 0;
#X connect 92 0 301 0;
#X connect 93 0 205 0;
#X connect 93 0 302 0;
#X connect 94 0 207 0;
#X connect 94 0 303 0;
#X connect 95 0 206 0;
#X connect 95 0 304 0;
#X connect 96 0 208 0;
#X connect 96 0 305 0;
#X connect 97 0 209 0;
#X connect 97 0 306 0;
#X connect 98 0 211 0;
#X connect 98 0 307 0;
#X connect 99 0 212 0;
#X connect 99 0 308 0;
#X connect 100 0 213 0;
#X connect 100 0 309 0;
#X connect 101 0 214 0;
#X connect 101 0 310 0;
#X connect 102 0 86 1;
#X connect 103 0 87 1;
#X connect 104 0 88 1;
#X connect 105 0 89 1;
#X connect 106 0 90 1;
#X connect 107 0 91 1;
#X connect 108 0 92 1;
#X connect 109 0 93 1;
#X connect 110 0 94 1;
#X connect 111 0 95 1;
#X connect 112 0 96 1;
#X connect 113 0 97 1;
#X connect 114 0 98 1;
#X connect 115 0 99 1;
#X connect 116 0 100 1;
#X connect 117 0 101 1;
#X connect 163 0 229 0;
#X connect 163 0 311 0;
#X connect 164 0 228 0;
#X connect 164 0 312 0;
#X connect 165 0 227 0;
#X connect 165 0 313 0;
#X connect 166 0 226 0;
#X connect 166 0 314 0;
#X connect 167 0 225 0;
#X connect 167 0 315 0;
#X connect 168 0 224 0;
#X connect 168 0 316 0;
#X connect 169 0 223 0;
#X connect 169 0 317 0;
#X connect 170 0 222 0;
#X connect 170 0 318 0;
#X connect 171 0 210 0;
#X connect 171 0 319 0;
#X connect 172 0 221 0;
#X connect 172 0 320 0;
#X connect 173 0 220 0;
#X connect 173 0 321 0;
#X connect 174 0 219 0;
#X connect 174 0 322 0;
#X connect 175 0 218 0;
#X connect 175 0 323 0;
#X connect 176 0 217 0;
#X connect 176 0 324 0;
#X connect 177 0 216 0;
#X connect 177 0 325 0;
#X connect 178 0 215 0;
#X connect 178 0 326 0;
#X connect 181 0 230 0;
#X connect 181 0 327 0;
#X connect 182 0 231 0;
#X connect 182 0 328 0;
#X connect 183 0 232 0;
#X connect 183 0 329 0;
#X connect 184 0 233 0;
#X connect 184 0 330 0;
#X connect 185 0 234 0;
#X connect 185 0 331 0;
#X connect 186 0 235 0;
#X connect 186 0 332 0;
#X connect 187 0 236 0;
#X connect 187 0 333 0;
#X connect 188 0 237 0;
#X connect 188 0 334 0;
#X connect 189 0 238 0;
#X connect 189 0 335 0;
#X connect 190 0 239 0;
#X connect 190 0 336 0;
#X connect 191 0 240 0;
#X connect 191 0 337 0;
#X connect 192 0 241 0;
#X connect 192 0 338 0;
#X connect 193 0 245 0;
#X connect 193 0 339 0;
#X connect 194 0 244 0;
#X connect 194 0 340 0;
#X connect 195 0 243 0;
#X connect 195 0 341 0;
#X connect 196 0 242 0;
#X connect 196 0 342 0;
#X connect 246 0 163 1;
#X connect 247 0 164 1;
#X connect 248 0 166 1;
#X connect 249 0 167 1;
#X connect 250 0 165 1;
#X connect 251 0 168 1;
#X connect 252 0 169 1;
#X connect 253 0 170 1;
#X connect 254 0 171 1;
#X connect 255 0 172 1;
#X connect 256 0 173 1;
#X connect 257 0 174 1;
#X connect 258 0 175 1;
#X connect 259 0 176 1;
#X connect 260 0 177 1;
#X connect 261 0 178 1;
#X connect 262 0 196 1;
#X connect 263 0 195 1;
#X connect 264 0 194 1;
#X connect 265 0 193 1;
#X connect 266 0 192 1;
#X connect 267 0 191 1;
#X connect 268 0 190 1;
#X connect 269 0 189 1;
#X connect 270 0 188 1;
#X connect 271 0 187 1;
#X connect 272 0 186 1;
#X connect 273 0 185 1;
#X connect 274 0 184 1;
#X connect 275 0 183 1;
#X connect 276 0 182 1;
#X connect 277 0 181 1;
#X connect 278 0 357 0;
#X connect 278 0 373 0;
#X connect 280 0 1 0;
#X connect 282 0 380 2;
#X connect 283 0 282 0;
#X connect 284 0 380 0;
#X connect 285 0 380 0;
#X connect 286 0 380 0;
#X connect 288 0 289 0;
#X connect 288 0 290 0;
#X connect 290 0 284 0;
#X connect 290 1 285 0;
#X connect 290 2 286 0;
#X connect 343 0 346 0;
#X connect 344 0 347 0;
#X connect 345 0 348 0;
#X connect 353 0 355 1;
#X connect 354 0 355 0;
#X connect 354 1 353 0;
#X connect 355 0 380 0;
#X connect 356 0 353 1;
#X connect 356 0 365 0;
#X connect 360 0 361 0;
#X connect 360 0 382 0;
#X connect 361 0 352 0;
#X connect 362 0 366 0;
#X connect 362 0 367 0;
#X connect 363 0 366 0;
#X connect 363 0 368 0;
#X connect 367 0 363 0;
#X connect 368 0 362 0;
#X connect 372 0 359 0;
#X connect 372 0 2 1;
#X connect 373 0 374 0;
#X connect 373 1 372 1;
#X connect 374 0 372 0;
#X connect 375 0 279 0;
#X connect 377 0 378 0;
#X connect 378 0 380 0;
#X connect 379 0 376 0;
#X connect 380 0 37 0;
#X connect 382 0 287 0;
#X coords 0 -1 1 1 649 274 2 198 3;
