#N canvas 2410 -202 943 858 12;
#X obj 192 445 tdh.util.record~;
#X obj 264 122 tdh.synth.oscil-tri~;
#X floatatom 436 292 5 0 0 0 - - -;
#X obj 691 272 vu 15 120 empty empty -1 -8 0 10 -66577 -1 1 0;
#X obj 655 213 - 100;
#X obj 212 282 tdh.util.2sigxfade~;
#X obj 289 693 tdh.util.audioout~;
#X obj 253 202 *~;
#X floatatom 314 148 5 0 0 0 - - -;
#X floatatom 261 76 5 0 0 0 - - -;
#X obj 496 289 snapshot~;
#X obj 588 374 metro 1;
#X obj 586 338 tgl 15 0 empty empty empty 17 7 0 10 -262144 -1 -1 1
1;
#X obj 472 167 tdh.synth.oscil-tri~;
#X floatatom 480 82 5 0 0 0 - - -;
#X obj 619 256 env~;
#X obj 619 280 / 100;
#X obj 472 191 /~ 2;
#X obj 479 221 +~ 0.5;
#X connect 0 0 6 0;
#X connect 0 1 6 1;
#X connect 1 0 7 0;
#X connect 4 0 3 0;
#X connect 5 0 0 0;
#X connect 5 1 0 1;
#X connect 7 0 5 0;
#X connect 7 0 5 3;
#X connect 8 0 7 1;
#X connect 9 0 1 0;
#X connect 10 0 2 0;
#X connect 10 0 5 4;
#X connect 11 0 10 0;
#X connect 12 0 11 0;
#X connect 13 0 17 0;
#X connect 14 0 13 0;
#X connect 15 0 16 0;
#X connect 16 0 10 0;
#X connect 17 0 18 0;
#X connect 18 0 10 0;
