#N canvas 1452 -331 1126 1395 12;
#X text 11 -196 (c) 2021 Travis Houldcroft / thouldcroft@gmail.com
/ houldcroftt@easternct.edu / travishouldcroft.com, f 105;
#X text 11 -176 Ver 0.3;
#X obj 1 -231 cnv 15 1097 31 empty empty SOUND\ ART\ TOOLKIT\ MODULE\ GUIDE
20 12 0 14 #e0e0e0 #404040 0;
#X obj 1 -151 cnv 8 1100 8 empty empty Input-Signals 20 15 0 14 #e0e0e0
#404040 0;
#X obj 1 466 cnv 8 1100 8 empty empty Signal\ Processors 20 15 0 14
#e0e0e0 #404040 0;
#X obj 1 733 cnv 8 1100 8 empty empty Utilities 20 15 0 14 #e0e0e0
#404040 0;
#X obj 14 -111 tdh.satk.3oscil~;
#X obj 524 80 tdh.satk.audiofile~;
#X obj 53 514 tdh.satk.mmfilt~;
#X obj 339 512 tdh.satk.delay~;
#X text 1057 1798 _;
#X obj 161 1108 tdh.satk.scope~;
#X obj 393 1108 tdh.satk.spectrograph~;
#X obj 14 1483 tdh.satk.audioout~;
#X obj 217 1422 tdh.satk.record~;
#X obj 15 781 tdh.satk.seq;
#X text 15 406 tdh.satk.3oscil~;
#X obj 721 829 tdh.satk.adsr~;
#X text 726 990 tdh.satk.adsr~;
#X text 524 400 tdh.satk.audiofile~;
#X text 15 1612 tdh.satk.audioout~;
#X obj 614 -110 tdh.satk.2opfm~;
#X obj 13 1110 tdh.satk.channelstrip~;
#X text 611 34 tdh.satk.2opfm~;
#X text 339 667 tdh.satk.delay~;
#X text 51 670 tdh.satk.mmfilt~;
#X text 214 1653 tdh.satk.record~;
#X text 165 1348 tdh.satk.scope~;
#X text 15 1062 tdh.satk.seq;
#X text 392 1359 tdh.satk.spectrograph~;
#X text 12 1417 tdh.satk.channelstrip~;
