#N canvas 25 23 1255 755 10;
#X obj 832 667 tdh.satk.audioout~;
#X obj 31 21 tdh.satk.audiofile~;
#X obj 34 338 tdh.satk.channel.strip~;
#X obj 563 12 tdh.satk.audiofile~;
#X obj 572 338 tdh.satk.channel.strip~;
#X obj 102 -265;
#X obj 34 -26 bng 15 250 50 0 empty empty empty 17 7 0 10 -262144 -1
-1;
#X msg 35 -113 1;
#X obj 571 -16 bng 15 250 50 0 empty empty empty 17 7 0 10 -262144
-1 -1;
#X msg 572 -103 1;
#X msg 79 -115 0;
#X msg 611 -102 0;
#X obj 1136 24 tdh.satk.2op.fm~;
#X obj 1174 141 tdh.satk.adsr~;
#X obj 1139 319 tdh.satk.channel.strip~;
#X obj 1154 -55 bng 15 250 50 0 empty empty empty 17 7 0 10 -262144
-1 -1;
#X msg 1154 -125 1;
#X msg 1193 -130 0;
#X obj 1154 -29 tgl 15 0 empty empty empty 17 7 0 10 -262144 -1 -1
0 1;
#X obj 1154 -80 metro 500;
#X obj 572 -58 metro 500;
#X obj 35 -68 metro 1000;
#X msg 1100 -217 1;
#X floatatom 1236 -114 5 0 0 0 - - -;
#X floatatom 660 -81 5 0 0 0 - - -;
#X floatatom 130 -115 5 0 0 0 - - -;
#X msg 1162 -217 0;
#X connect 1 0 2 0;
#X connect 2 0 0 0;
#X connect 2 1 0 1;
#X connect 3 0 4 0;
#X connect 4 0 0 0;
#X connect 4 1 0 1;
#X connect 6 0 1 0;
#X connect 7 0 21 0;
#X connect 8 0 3 0;
#X connect 9 0 20 0;
#X connect 10 0 21 0;
#X connect 11 0 20 0;
#X connect 12 0 14 0;
#X connect 13 1 14 1;
#X connect 14 0 0 0;
#X connect 14 1 0 1;
#X connect 15 0 18 0;
#X connect 16 0 19 0;
#X connect 17 0 19 0;
#X connect 18 0 13 0;
#X connect 19 0 15 0;
#X connect 20 0 8 0;
#X connect 21 0 6 0;
#X connect 22 0 19 0;
#X connect 22 0 20 0;
#X connect 22 0 21 0;
#X connect 23 0 19 1;
#X connect 24 0 20 1;
#X connect 25 0 21 1;
#X connect 26 0 19 0;
#X connect 26 0 20 0;
#X connect 26 0 21 0;
#X connect 26 0 18 0;
