#N canvas 775 23 505 743 10;
#X text 16 -6 Travis Houldcroft || travishouldcroft.com;
#X obj 0 -40 cnv 15 500 30 empty empty tdh.util.recorder~ 20 12 0 14
-233017 -66577 0;
#X obj 0 58 cnv 8 500 8 empty empty Inlets 20 15 0 14 -233017 -66577
0;
#X text 20 87 0;
#X text 42 87 -;
#X obj 0 168 cnv 8 500 8 empty empty Outlets 20 15 0 14 -233017 -66577
0;
#X text 20 197 0;
#X text 42 197 -;
#X obj 0 300 cnv 4 499 4 empty empty empty 20 12 0 14 -233017 -66577
0;
#X obj 0 248 cnv 8 500 8 empty empty Arguments 20 15 0 14 -233017 -66577
0;
#X text 20 280 None;
#X obj 0 16 cnv 4 499 4 empty empty empty 20 12 0 14 -233017 -66577
0;
#X text 16 29 A 2-channel stereo hard disk recorder;
#X text 42 104 -;
#X text 42 120 -;
#X text 42 137 -;
#X text 20 104 1;
#X text 20 120 2;
#X text 20 137 3;
#X text 64 87 (sig) Ch1 Input;
#X text 64 104 (sig) Ch2 Input;
#X text 64 121 (bang) Start Recording;
#X text 64 138 (bang) Stop Recording;
#X text 64 197 (sig) Ch1 Input Pass-Thru;
#X text 20 214 0;
#X text 42 214 -;
#X text 64 214 (sig) Ch2 Input Pass-Thru;
#N canvas 0 22 450 300 mic-input 0;
#X obj 136 207 outlet~;
#X obj 136 165 adc~ 1;
#X msg 136 145 set \$1;
#X floatatom 186 124 5 0 0 1 - - -;
#X obj 136 186 *~;
#X obj 186 144 tgl 15 0 empty empty Mute 17 7 0 10 -262144 -1 -1 1
1;
#X text 221 124 Input Channel;
#X obj 134 74 loadbang;
#X msg 136 95 1;
#X text 185 164 Out;
#X obj 184 99 cnv 2 123 2 empty empty Audio\\\ Input 1 12 0 14 -233017
-66577 0;
#X connect 1 0 4 0;
#X connect 2 0 1 0;
#X connect 3 0 2 0;
#X connect 4 0 0 0;
#X connect 5 0 4 1;
#X connect 7 0 8 0;
#X connect 8 0 3 0;
#X connect 8 0 5 0;
#X coords 0 -1 1 1 125 86 2 183 96;
#X restore 97 321 pd mic-input;
#X text 127 420 <-- Input Mic Signals;
#X obj 240 441 bng 15 250 50 0 empty empty empty 17 7 0 10 -262144
-1 -1;
#X obj 309 461 bng 15 250 50 0 empty empty empty 17 7 0 10 -262144
-1 -1;
#X text 262 441 "Bang" to start recording;
#X text 332 461 "Bang" to stop recording;
#N canvas 1898 122 450 300 audio-out 0;
#X obj -70 30 inlet~;
#X obj 50 30 inlet~;
#X obj 103 143 tgl 15 0 empty empty DSP\\\ On/Off 17 7 0 10 -262144
-1 -1 0 1;
#X text 101 101 In Ch1;
#X text 183 102 In Ch2;
#X obj 103 163 hsl 64 15 0.01 1 1 0 empty empty Volume 72 7 0 10 -262144
-1 -1 0 1;
#X obj 50 220 *~;
#X obj 102 120 cnv 2 123 2 empty empty Audio\\\ Output 1 8 0 14 -233017
-66577 0;
#X obj 183 144 tgl 15 0 empty empty Mute 17 7 0 10 -262144 -1 -1 0
1;
#X obj -70 200 *~;
#X obj -70 250 dac~ 1 2;
#X msg 103 230 \; pd dsp \$1;
#X text -100 260 _;
#X connect 0 0 9 0;
#X connect 1 0 6 0;
#X connect 2 0 11 0;
#X connect 5 0 6 1;
#X connect 5 0 9 1;
#X connect 6 0 10 1;
#X connect 8 0 6 1;
#X connect 8 0 9 1;
#X connect 9 0 10 0;
#X coords 0 -1 1 1 127 82 2 100 100;
#X restore 102 700 pd audio-out;
#X text 2 530 Start & Stop Recording, f 12;
#X text 78 534 -->;
#X text 339 515 Time in seconds of the current recording, f 21;
#X text 316 520 <--;
#X text 316 555 <--;
#X text 340 550 Each recording gets numbered for every record since
the patch containing the module was opened. Number is included in filename.
, f 21;
#X text 3 340 * TO DO *;
#X text 3 360 Create a mono file when only one signal is connected
\, or at least make a dual mono file when only one signal is connected
, f 14;
#X obj 102 487 tdh.satk.record~;
#X connect 27 0 42 0;
#X connect 27 0 42 1;
#X connect 29 0 42 2;
#X connect 30 0 42 3;
#X connect 42 0 33 0;
#X connect 42 1 33 1;
