#N canvas 28 23 1412 855 10;
#X obj -335 659 osc~;
#X obj -335 711 *~;
#X floatatom -335 286 5 0 0 1 Carr.Freq - -, f 5;
#X floatatom -128 286 5 0 0 1 Carr.Amp. - -, f 5;
#X obj 40 473 osc~;
#X floatatom 40 286 5 0 0 1 Mod.Freq. - -, f 5;
#X floatatom 210 286 5 0 0 1 Mod.Amp. - -, f 5;
#X obj -335 628 +~;
#X obj -335 812 outlet~;
#X obj 150 13 loadbang;
#X obj 26 46 f \$1;
#X text -626 66 Arguments:;
#X text -626 -17 Two-Operator FM Synth;
#X text -624 21 Travis Houldcroft;
#X text -625 34 thouldcroft@gmail.com;
#X text -625 46 travishouldcroft.com;
#X text -617 80 1: carrier freq.;
#X text -617 91 2: carrier amp.;
#X text -617 103 3: modulator freq.;
#X obj 57 46 f \$2;
#X obj 89 46 f \$3;
#X obj 120 46 f \$4;
#X text -617 115 4: modulator amp. (deviation);
#X text -626 -6 tdh.synth.2op.fm~.pd;
#X floatatom 128 129 5 0 0 1 Carr.Freq. - -, f 5;
#X floatatom 128 149 5 0 1 1 Carr.Amp. - -, f 5;
#X floatatom 230 130 5 0 0 1 Mod.Freq. - -, f 5;
#X floatatom 230 150 5 0 0 1 Mod.Amp. - -, f 5;
#X text 183 46 Args;
#X text 245 -17 Modulation inputs -----------------------------;
#X obj 381 4 inlet~ carr_amp_mod;
#X obj 507 4 inlet~ mod_freq_mod;
#X obj 246 4 inlet~ carr_freq_mod;
#X obj 635 4 inlet~ mod_amp_mod;
#X text -391 -17 Oscillator settings inputs -----------------------------
;
#X obj 381 26 s~ carr_amp_mod-\$0;
#X obj 507 26 s~ mod_freq_mod-\$0;
#X obj 635 26 s~ mod_amp_mod-\$0;
#X obj -320 447 r~ carr_freq_mod-\$0;
#X obj -112 448 r~ carr_amp_mod-\$0;
#X obj 55 344 r~ mod_freq_mod-\$0;
#X obj 225 343 r~ mod_amp_mod-\$0;
#X obj 246 26 s~ carr_freq_mod-\$0;
#X text -295 758 Gain;
#X floatatom 128 169 5 0 1 1 Gain - -, f 5;
#X obj -40 4 inlet gain;
#X obj 150 46 f \$5;
#X text -617 127 5: Voice gain;
#X obj -335 550 +~;
#X obj -128 552 *~;
#X obj -294 476 loadbang;
#X obj -294 520 sig~;
#X msg -294 498 0;
#X obj -68 476 loadbang;
#X obj -68 520 sig~;
#X msg -68 498 1;
#X obj 40 442 +~;
#X obj 83 368 loadbang;
#X obj 83 412 sig~;
#X obj 267 368 loadbang;
#X obj 267 412 sig~;
#X msg 267 390 1;
#X obj -335 355 sig~;
#X obj -128 355 sig~;
#X obj 40 313 sig~;
#X obj 210 313 sig~;
#X obj 40 573 *~;
#X msg 83 390 0;
#X obj 210 435 *~;
#X obj -335 759 *~ 0;
#X text 101 103 Cf;
#X text 125 103 Ca;
#X text 156 103 Mf;
#X text 186 103 Ma;
#X text 216 103 Ga;
#X text 241 103 CfM;
#X text 273 103 CaM;
#X text 303 103 MfM;
#X text 327 103 MaM;
#X text 100 219 Out;
#X obj -427 4 inlet carr_freq;
#X obj -325 4 inlet carr_amp;
#X obj -229 4 inlet mod_freq;
#X obj -133 4 inlet mod_amp;
#X obj -427 26 change;
#X obj -325 26 change;
#X obj -229 26 change;
#X obj -133 26 change;
#X obj -39 26 change;
#X obj 102 188 cnv 15 249 29 empty empty 2\ Operator\ FM\ Module 20
12 0 14 #e0e0e0 #404040 0;
#X connect 0 0 1 0;
#X connect 1 0 69 0;
#X connect 2 0 62 0;
#X connect 3 0 63 0;
#X connect 4 0 66 0;
#X connect 5 0 64 0;
#X connect 6 0 65 0;
#X connect 7 0 0 0;
#X connect 9 0 10 0;
#X connect 9 0 19 0;
#X connect 9 0 20 0;
#X connect 9 0 21 0;
#X connect 9 0 46 0;
#X connect 10 0 24 0;
#X connect 19 0 25 0;
#X connect 20 0 26 0;
#X connect 21 0 27 0;
#X connect 24 0 2 0;
#X connect 25 0 3 0;
#X connect 26 0 5 0;
#X connect 27 0 6 0;
#X connect 30 0 35 0;
#X connect 31 0 36 0;
#X connect 32 0 42 0;
#X connect 33 0 37 0;
#X connect 38 0 48 1;
#X connect 39 0 49 1;
#X connect 40 0 56 1;
#X connect 41 0 68 1;
#X connect 44 0 69 1;
#X connect 45 0 88 0;
#X connect 46 0 44 0;
#X connect 48 0 7 0;
#X connect 49 0 1 1;
#X connect 50 0 52 0;
#X connect 51 0 48 1;
#X connect 52 0 51 0;
#X connect 53 0 55 0;
#X connect 54 0 49 1;
#X connect 55 0 54 0;
#X connect 56 0 4 0;
#X connect 57 0 67 0;
#X connect 58 0 56 1;
#X connect 59 0 61 0;
#X connect 60 0 68 1;
#X connect 61 0 60 0;
#X connect 62 0 48 0;
#X connect 63 0 49 0;
#X connect 64 0 56 0;
#X connect 65 0 68 0;
#X connect 66 0 7 1;
#X connect 67 0 58 0;
#X connect 68 0 66 1;
#X connect 69 0 8 0;
#X connect 80 0 84 0;
#X connect 81 0 85 0;
#X connect 82 0 86 0;
#X connect 83 0 87 0;
#X connect 84 0 24 0;
#X connect 85 0 25 0;
#X connect 86 0 26 0;
#X connect 87 0 27 0;
#X connect 88 0 44 0;
#X coords 0 -1 1 1 254 139 2 100 100;
