#N canvas 26 23 1254 755 10;
#X obj 700 190 hsl 64 15 0 1 0 0 empty empty empty -2 -8 0 10 -262144
-1 -1 0 1;
#X obj 697 232 - 1;
#X obj 697 254 * -1;
#X obj 570 316 *~;
#X obj 330 320 *~;
#X text 280 320 Dry Sig;
#X obj 700 89 hsl 64 15 0 1 0 0 empty empty empty 70 7 0 10 -262144
-1 -1 0 1;
#X floatatom 772 89 5 0 0 0 - - -;
#X text 805 88 Dry/Wet;
#X obj 473 -50 change;
#X obj 430 -50 change;
#X obj 692 110 cnv 15 222 18 empty empty Reverb3 20 6 0 14 -233017
-66577 0;
#X obj 570 170 rev3~;
#X obj 700 48 hsl 64 15 20 20000 0 0 empty empty empty 70 7 0 10 -262144
-1 -1 0 1;
#X floatatom 772 48 5 20 20000 0 - - -;
#X obj 700 27 hsl 64 15 0 100 0 0 empty empty empty 70 7 0 10 -262144
-1 -1 0 1;
#X floatatom 772 27 5 0 100 0 - - -;
#X obj 700 7 hsl 64 15 0 120 0 0 empty empty empty 70 7 0 10 -262144
-1 -1 0 1;
#X floatatom 772 7 5 0 120 0 - - -;
#X text 805 26 Liveness (0-100);
#X text 805 47 Crossover Frq (Hz);
#X obj 700 68 hsl 64 15 0 100 0 0 empty empty empty 70 7 0 10 -262144
-1 -1 0 1;
#X floatatom 772 68 5 0 100 0 - - -;
#X text 805 67 HF Damping (%);
#X text 805 6 Level (dB);
#X msg 930 91 set \$1;
#X msg 984 90 set \$1;
#X msg 930 67 set \$1;
#X msg 984 66 set \$1;
#X msg 931 47 set \$1;
#X msg 985 46 set \$1;
#X msg 931 23 set \$1;
#X msg 985 22 set \$1;
#X msg 930 1 set \$1;
#X msg 984 0 set \$1;
#X obj 594 316 *~;
#X text 620 316 Wet Sig;
#X obj 380 320 *~;
#X obj 594 360 outlet~;
#X obj 330 360 outlet~;
#X text 784 188 Linear crossfade;
#X obj 430 -70 inlet;
#X obj 473 -70 inlet;
#X obj 565 -50 change;
#X obj 521 -50 change;
#X obj 521 -70 inlet;
#X obj 565 -70 inlet;
#X text 435 -100 Lvl;
#X text 473 -100 Liv;
#X text 521 -100 XOF;
#X text 565 -100 HFD;
#X obj 607 -50 change;
#X obj 607 -70 inlet;
#X text 607 -100 D/W;
#X obj 330 -70 inlet~;
#X obj 380 -70 inlet~;
#X text 330 -100 In L;
#X text 380 -100 In R;
#X text 380 360 Out L;
#X text 650 360 Out R;
#X text 693 130 Out L;
#X text 880 130 Out R;
#X text 757 -16 Lvl;
#X text 795 -16 Liv;
#X text 829 -16 XOF;
#X text 865 -16 HFD;
#X text 893 -16 D/W;
#X text 691 -16 In L;
#X text 721 -16 In R;
#X connect 0 0 1 0;
#X connect 0 0 3 1;
#X connect 0 0 35 1;
#X connect 1 0 2 0;
#X connect 2 0 4 1;
#X connect 2 0 37 1;
#X connect 3 0 39 0;
#X connect 4 0 39 0;
#X connect 6 0 0 0;
#X connect 6 0 25 0;
#X connect 7 0 26 0;
#X connect 9 0 15 0;
#X connect 10 0 17 0;
#X connect 12 0 3 0;
#X connect 12 1 35 0;
#X connect 13 0 29 0;
#X connect 13 0 12 4;
#X connect 14 0 30 0;
#X connect 14 0 12 4;
#X connect 15 0 31 0;
#X connect 15 0 12 3;
#X connect 16 0 32 0;
#X connect 16 0 12 3;
#X connect 17 0 33 0;
#X connect 17 0 12 2;
#X connect 18 0 34 0;
#X connect 18 0 12 2;
#X connect 21 0 27 0;
#X connect 21 0 12 5;
#X connect 22 0 28 0;
#X connect 22 0 12 5;
#X connect 25 0 7 0;
#X connect 26 0 6 0;
#X connect 27 0 22 0;
#X connect 28 0 21 0;
#X connect 29 0 14 0;
#X connect 30 0 13 0;
#X connect 31 0 16 0;
#X connect 32 0 15 0;
#X connect 33 0 18 0;
#X connect 34 0 17 0;
#X connect 35 0 38 0;
#X connect 37 0 38 0;
#X connect 41 0 10 0;
#X connect 42 0 9 0;
#X connect 43 0 21 0;
#X connect 44 0 13 0;
#X connect 45 0 44 0;
#X connect 46 0 43 0;
#X connect 51 0 6 0;
#X connect 52 0 51 0;
#X connect 54 0 4 0;
#X connect 54 0 12 0;
#X connect 55 0 12 1;
#X connect 55 0 37 0;
#X coords 0 -1 1 1 227 166 2 691 -18;
