#N canvas 27 23 1253 732 10;
#X obj 144 971 send~ sig4;
#X obj 19 876 *~;
#X obj 127 873 / 127;
#X obj 130 850 hsl 128 15 0 127 0 0 empty \$0-gainslider empty -2 -8
0 10 -262144 -1 -1 0 1;
#X text 267 848 gain;
#X obj 20 708 catch~ additive;
#X obj 20 918 clip~ -0.99 0.99;
#X obj 170 709 noise~;
#X obj 200 732 bng 15 250 50 0 empty \$0-idealnoise empty 17 7 0 10
-262144 -1 -1;
#X msg 200 752 0 \, 0.8 250;
#X obj 200 773 line~;
#X obj 171 806 *~;
#X obj 368 725 bng 15 250 50 0 empty \$0-harmonicspec_a empty 17 7
0 10 -262144 -1 -1;
#X obj 345 725 bng 15 250 50 0 empty \$0-harmonicspec_b empty 17 7
0 10 -262144 -1 -1;
#X obj 321 726 bng 15 250 50 0 empty \$0-sine empty 17 7 0 10 -262144
-1 -1;
#X obj 388 724 bng 15 250 50 0 empty \$0-harmonicspec_c empty 17 7
0 10 -262144 -1 -1;
#X obj 408 725 bng 15 250 50 0 empty \$0-inharmonicspec empty 17 7
0 10 -262144 -1 -1;
#X obj 430 724 bng 15 250 50 0 empty \$0-noise empty 17 7 0 10 -262144
-1 -1;
#X msg 319 763 0;
#X text 320 692 If any other preset is triggered \, silence the noise
oscillator immediately;
#X obj 287 902 catch~ \$0-dac;
#X obj 24 590 osc~ 440;
#X floatatom 39 560 5 0 0 0 - #0-amp25b -, f 5;
#X floatatom 24 537 5 0 0 0 - #0-freq25b -, f 5;
#X text 59 534 f;
#X text 75 560 a;
#X obj 24 614 *~;
#X obj 94 590 osc~ 440;
#X floatatom 109 560 5 0 0 0 - #0-amp26b -, f 5;
#X floatatom 94 537 5 0 0 0 - #0-freq26b -, f 5;
#X text 129 534 f;
#X text 145 560 a;
#X obj 94 614 *~;
#X obj 164 590 osc~ 440;
#X floatatom 179 560 5 0 0 0 - #0-amp27b -, f 5;
#X floatatom 164 537 5 0 0 0 - #0-freq27b -, f 5;
#X text 199 534 f;
#X text 215 560 a;
#X obj 165 614 *~;
#X floatatom 249 560 5 0 0 0 - #0-amp28b -, f 5;
#X floatatom 234 537 5 0 0 0 - #0-freq28b -, f 5;
#X text 269 534 f;
#X text 285 560 a;
#X obj 234 614 *~;
#X obj 235 592 osc~ 440;
#X floatatom 319 560 5 0 0 0 - #0-amp29b -, f 5;
#X floatatom 304 537 5 0 0 0 - #0-freq29b -, f 5;
#X text 339 534 f;
#X text 355 560 a;
#X obj 304 614 *~;
#X obj 305 592 osc~ 440;
#X floatatom 389 560 5 0 0 0 - #0-amp30b -, f 5;
#X floatatom 374 537 5 0 0 0 - #0-freq30b -, f 5;
#X text 409 534 f;
#X text 425 560 a;
#X obj 374 614 *~;
#X obj 375 592 osc~ 440;
#X obj 445 590 osc~ 440;
#X floatatom 460 560 5 0 0 0 - #0-amp31b -, f 5;
#X floatatom 445 537 5 0 0 0 - #0-freq31b -, f 5;
#X text 480 534 f;
#X text 496 560 a;
#X obj 445 614 *~;
#X obj 515 590 osc~ 440;
#X floatatom 530 560 5 0 0 0 - #0-amp32b -, f 5;
#X floatatom 515 537 5 0 0 0 - #0-freq32b -, f 5;
#X text 550 534 f;
#X text 566 560 a;
#X obj 515 614 *~;
#X obj 585 590 osc~ 440;
#X floatatom 600 560 5 0 0 0 - #0-amp33b -, f 5;
#X floatatom 585 537 5 0 0 0 - #0-freq33b -, f 5;
#X text 620 534 f;
#X text 636 560 a;
#X obj 586 614 *~;
#X floatatom 670 560 5 0 0 0 - #0-amp34b -, f 5;
#X floatatom 655 537 5 0 0 0 - #0-freq34b -, f 5;
#X text 690 534 f;
#X text 706 560 a;
#X obj 655 614 *~;
#X obj 656 592 osc~ 440;
#X floatatom 740 560 5 0 0 0 - #0-amp35b -, f 5;
#X floatatom 725 537 5 0 0 0 - #0-freq35b -, f 5;
#X text 760 534 f;
#X text 776 560 a;
#X obj 725 614 *~;
#X obj 726 592 osc~ 440;
#X floatatom 810 560 5 0 0 0 - #0-amp36b -, f 5;
#X floatatom 795 537 5 0 0 0 - #0-freq36b -, f 5;
#X text 830 534 f;
#X text 846 560 a;
#X obj 795 614 *~;
#X obj 796 592 osc~ 440;
#X text 856 560 a;
#X obj 874 590 osc~ 440;
#X floatatom 889 560 5 0 0 0 - #0-amp37b -, f 5;
#X floatatom 874 537 5 0 0 0 - #0-freq37b -, f 5;
#X text 909 534 f;
#X text 925 560 a;
#X obj 874 614 *~;
#X obj 944 590 osc~ 440;
#X floatatom 959 560 5 0 0 0 - #0-amp38b -, f 5;
#X floatatom 944 537 5 0 0 0 - #0-freq38b -, f 5;
#X text 979 534 f;
#X text 995 560 a;
#X obj 944 614 *~;
#X obj 1014 590 osc~ 440;
#X floatatom 1029 560 5 0 0 0 - #0-amp39b -, f 5;
#X floatatom 1014 537 5 0 0 0 - #0-freq39b -, f 5;
#X text 1049 534 f;
#X text 1065 560 a;
#X obj 1015 614 *~;
#X floatatom 1099 560 5 0 0 0 - #0-amp40b -, f 5;
#X floatatom 1084 537 5 0 0 0 - #0-freq40b -, f 5;
#X text 1119 534 f;
#X text 1135 560 a;
#X obj 1084 614 *~;
#X obj 1085 592 osc~ 440;
#X floatatom 1169 560 5 0 0 0 - #0-amp41b -, f 5;
#X floatatom 1154 537 5 0 0 0 - #0-freq41b -, f 5;
#X text 1189 534 f;
#X text 1205 560 a;
#X obj 1154 614 *~;
#X obj 1155 592 osc~ 440;
#X floatatom 1239 560 5 0 0 0 - #0-amp42b -, f 5;
#X floatatom 1224 537 5 0 0 0 - #0-freq42b -, f 5;
#X text 1259 534 f;
#X text 1275 560 a;
#X obj 1224 614 *~;
#X obj 1225 592 osc~ 440;
#X obj 1295 590 osc~ 440;
#X floatatom 1310 560 5 0 0 0 - #0-amp43b -, f 5;
#X floatatom 1295 537 5 0 0 0 - #0-freq43b -, f 5;
#X text 1330 534 f;
#X text 1346 560 a;
#X obj 1295 614 *~;
#X obj 1365 590 osc~ 440;
#X floatatom 1380 560 5 0 0 0 - #0-amp44b -, f 5;
#X floatatom 1365 537 5 0 0 0 - #0-freq44b -, f 5;
#X text 1400 534 f;
#X text 1416 560 a;
#X obj 1365 614 *~;
#X obj 1435 590 osc~ 440;
#X floatatom 1450 560 5 0 0 0 - #0-amp45b -, f 5;
#X floatatom 1435 537 5 0 0 0 - #0-freq45b -, f 5;
#X text 1470 534 f;
#X text 1486 560 a;
#X obj 1436 614 *~;
#X floatatom 1520 560 5 0 0 0 - #0-amp46b -, f 5;
#X floatatom 1505 537 5 0 0 0 - #0-freq46b -, f 5;
#X text 1540 534 f;
#X text 1556 560 a;
#X obj 1505 614 *~;
#X obj 1506 592 osc~ 440;
#X floatatom 1590 560 5 0 0 0 - #0-amp47b -, f 5;
#X floatatom 1575 537 5 0 0 0 - #0-freq47b -, f 5;
#X text 1610 534 f;
#X text 1626 560 a;
#X obj 1575 614 *~;
#X obj 1576 592 osc~ 440;
#X floatatom 1660 560 5 0 0 0 - #0-amp48b -, f 5;
#X floatatom 1645 537 5 0 0 0 - #0-freq48b -, f 5;
#X text 1680 534 f;
#X text 1696 560 a;
#X obj 1645 614 *~;
#X obj 1646 592 osc~ 440;
#X text 29 512 25;
#X text 94 512 26;
#X text 168 512 27;
#X text 231 512 28;
#X text 306 512 29;
#X text 379 512 30;
#X text 448 511 31;
#X text 513 511 32;
#X text 587 511 33;
#X text 650 511 34;
#X text 724 511 35;
#X text 798 511 36;
#X text 878 509 37;
#X text 953 509 38;
#X text 1017 509 39;
#X text 1090 509 40;
#X text 1155 509 41;
#X text 1228 509 42;
#X text 1296 509 43;
#X text 1371 509 44;
#X text 1435 509 45;
#X text 1508 509 46;
#X text 1582 509 47;
#X text 1646 509 48;
#X obj 24 641 throw~ additive;
#X obj 28 427 osc~ 440;
#X floatatom 43 397 5 0 0 0 - #0-amp1b -, f 5;
#X floatatom 28 374 5 0 0 0 - #0-freq1b -, f 5;
#X text 63 371 f;
#X text 79 397 a;
#X obj 28 451 *~;
#X obj 98 427 osc~ 440;
#X floatatom 113 397 5 0 0 0 - #0-amp2b -, f 5;
#X floatatom 98 374 5 0 0 0 - #0-freq2b -, f 5;
#X text 133 371 f;
#X text 149 397 a;
#X obj 98 451 *~;
#X obj 168 427 osc~ 440;
#X floatatom 183 397 5 0 0 0 - #0-amp3b -, f 5;
#X floatatom 168 374 5 0 0 0 - #0-freq3b -, f 5;
#X text 203 371 f;
#X text 219 397 a;
#X obj 169 451 *~;
#X floatatom 253 397 5 0 0 0 - #0-amp4b -, f 5;
#X floatatom 238 374 5 0 0 0 - #0-freq4b -, f 5;
#X text 273 371 f;
#X text 289 397 a;
#X obj 238 451 *~;
#X obj 239 429 osc~ 440;
#X floatatom 323 397 5 0 0 0 - #0-amp5b -, f 5;
#X floatatom 308 374 5 0 0 0 - #0-freq5b -, f 5;
#X text 343 371 f;
#X text 359 397 a;
#X obj 308 451 *~;
#X obj 309 429 osc~ 440;
#X floatatom 393 397 5 0 0 0 - #0-amp6b -, f 5;
#X floatatom 378 374 5 0 0 0 - #0-freq6b -, f 5;
#X text 413 371 f;
#X text 429 397 a;
#X obj 378 451 *~;
#X obj 379 429 osc~ 440;
#X obj 449 427 osc~ 440;
#X floatatom 464 397 5 0 0 0 - #0-amp7b -, f 5;
#X floatatom 449 374 5 0 0 0 - #0-freq7b -, f 5;
#X text 484 371 f;
#X text 500 397 a;
#X obj 449 451 *~;
#X obj 519 427 osc~ 440;
#X floatatom 534 397 5 0 0 0 - #0-amp8b -, f 5;
#X floatatom 519 374 5 0 0 0 - #0-freq8b -, f 5;
#X text 554 371 f;
#X text 570 397 a;
#X obj 519 451 *~;
#X obj 589 427 osc~ 440;
#X floatatom 604 397 5 0 0 0 - #0-amp9b -, f 5;
#X floatatom 589 374 5 0 0 0 - #0-freq9b -, f 5;
#X text 624 371 f;
#X text 640 397 a;
#X obj 590 451 *~;
#X floatatom 674 397 5 0 0 0 - #0-amp10b -, f 5;
#X floatatom 659 374 5 0 0 0 - #0-freq10b -, f 5;
#X text 694 371 f;
#X text 710 397 a;
#X obj 659 451 *~;
#X obj 660 429 osc~ 440;
#X floatatom 744 397 5 0 0 0 - #0-amp11b -, f 5;
#X floatatom 729 374 5 0 0 0 - #0-freq11b -, f 5;
#X text 764 371 f;
#X text 780 397 a;
#X obj 729 451 *~;
#X obj 730 429 osc~ 440;
#X floatatom 814 397 5 0 0 0 - #0-amp12b -, f 5;
#X floatatom 799 374 5 0 0 0 - #0-freq12b -, f 5;
#X text 834 371 f;
#X text 850 397 a;
#X obj 799 451 *~;
#X obj 800 429 osc~ 440;
#X text 31 346 1;
#X text 101 346 2;
#X text 171 346 3;
#X text 241 346 4;
#X text 312 346 5;
#X text 381 346 6;
#X text 451 346 7;
#X text 521 346 8;
#X text 601 346 9;
#X text 671 346 10;
#X text 741 346 11;
#X text 811 346 12;
#X obj 868 427 osc~ 440;
#X floatatom 883 397 5 0 0 0 - #0-amp13b -, f 5;
#X floatatom 868 374 5 0 0 0 - #0-freq13b -, f 5;
#X text 903 371 f;
#X text 919 397 a;
#X obj 868 451 *~;
#X obj 938 427 osc~ 440;
#X floatatom 953 397 5 0 0 0 - #0-amp14b -, f 5;
#X floatatom 938 374 5 0 0 0 - #0-freq14b -, f 5;
#X text 973 371 f;
#X text 989 397 a;
#X obj 938 451 *~;
#X obj 1008 427 osc~ 440;
#X floatatom 1023 397 5 0 0 0 - #0-amp15b -, f 5;
#X floatatom 1008 374 5 0 0 0 - #0-freq15b -, f 5;
#X text 1043 371 f;
#X text 1059 397 a;
#X obj 1009 451 *~;
#X floatatom 1093 397 5 0 0 0 - #0-amp16b -, f 5;
#X floatatom 1078 374 5 0 0 0 - #0-freq16b -, f 5;
#X text 1113 371 f;
#X text 1129 397 a;
#X obj 1078 451 *~;
#X obj 1079 429 osc~ 440;
#X floatatom 1163 397 5 0 0 0 - #0-amp17b -, f 5;
#X floatatom 1148 374 5 0 0 0 - #0-freq17b -, f 5;
#X text 1183 371 f;
#X text 1199 397 a;
#X obj 1148 451 *~;
#X obj 1149 429 osc~ 440;
#X floatatom 1233 397 5 0 0 0 - #0-amp18b -, f 5;
#X floatatom 1218 374 5 0 0 0 - #0-freq18b -, f 5;
#X text 1253 371 f;
#X text 1269 397 a;
#X obj 1218 451 *~;
#X obj 1219 429 osc~ 440;
#X obj 1289 427 osc~ 440;
#X floatatom 1304 397 5 0 0 0 - #0-amp19b -, f 5;
#X floatatom 1289 374 5 0 0 0 - #0-freq19b -, f 5;
#X text 1324 371 f;
#X text 1340 397 a;
#X obj 1289 451 *~;
#X obj 1359 427 osc~ 440;
#X floatatom 1374 397 5 0 0 0 - #0-amp20b -, f 5;
#X floatatom 1359 374 5 0 0 0 - #0-freq20b -, f 5;
#X text 1394 371 f;
#X text 1410 397 a;
#X obj 1359 451 *~;
#X obj 1429 427 osc~ 440;
#X floatatom 1444 397 5 0 0 0 - #0-amp21b -, f 5;
#X floatatom 1429 374 5 0 0 0 - #0-freq21b -, f 5;
#X text 1464 371 f;
#X text 1480 397 a;
#X obj 1430 451 *~;
#X floatatom 1514 397 5 0 0 0 - #0-amp22b -, f 5;
#X floatatom 1499 374 5 0 0 0 - #0-freq22b -, f 5;
#X text 1534 371 f;
#X text 1550 397 a;
#X obj 1499 451 *~;
#X obj 1500 429 osc~ 440;
#X floatatom 1584 397 5 0 0 0 - #0-amp23b -, f 5;
#X floatatom 1569 374 5 0 0 0 - #0-freq23b -, f 5;
#X text 1604 371 f;
#X text 1620 397 a;
#X obj 1569 451 *~;
#X obj 1570 429 osc~ 440;
#X floatatom 1654 397 5 0 0 0 - #0-amp24b -, f 5;
#X floatatom 1639 374 5 0 0 0 - #0-freq24b -, f 5;
#X text 1674 371 f;
#X text 1690 397 a;
#X obj 1639 451 *~;
#X obj 1640 429 osc~ 440;
#X text 871 346 13;
#X text 941 346 14;
#X text 1011 346 15;
#X text 1081 346 16;
#X text 1152 346 17;
#X text 1221 346 18;
#X text 1291 346 19;
#X text 1361 346 20;
#X text 1441 346 21;
#X text 1511 346 22;
#X text 1581 346 23;
#X text 1651 346 24;
#X obj 28 481 throw~ additive;
#X obj 1884 49 bng 15 250 50 0 empty \$0-harmonicspec_a empty 17 7
0 10 -262144 -1 -1;
#X obj 1882 -60 bng 15 250 50 0 empty \$0-harmonicspec_b empty 17 7
0 10 -262144 -1 -1;
#X text 1880 -337 Sine Wave preset (silences all partials other than
the first), f 62;
#X obj 1884 74 bng 15 250 50 0 empty empty empty 17 7 0 10 -262144
-1 -1;
#N canvas 25 23 1415 855 freq.calc.sawtooth 0;
#X obj 54 111 until;
#X obj 115 133 + 1;
#X obj 54 133 float 1;
#X obj 189 386 f;
#X text 226 386 the iterator is stored here as an index to be used
by the [route] object, f 72;
#X text 142 133 iterator \, increase by 1 each time [until] sends a
"bang";
#X obj 117 351 trigger b f;
#X obj 135 427 pack f f;
#X text 196 425 combine the iterator/partial number with the calculated
partial amplitude value as a pair for [route];
#X msg 295 233 1;
#X obj 295 211 sel 48;
#X text 341 207 this mechanism resets the iterator to "1" when the
max iterations have occured, f 40;
#X obj 328 233 loadbang;
#X obj 54 160 trigger f f;
#X text 131 157 send the iterator first to the loop mechanism \, then
to the [sel] object to test if the loop is over (and reset the iterator
back to 1);
#X obj 117 268 t f f, f 15;
#X obj 24 468 route 1 2 3 4 5 6 7 8 9 10 11 12 13 14 15 16 17 18 19
20 21 22 23 24 25 26 27 28 29 30 31 32 33 34 35 36 37 38 39 40 41 42
43 44 45 46 47 48, f 227;
#X obj 54 88 t f f;
#X msg 54 67 48;
#X obj 138 19 inlet;
#X text 179 18 Fundamental Frequency;
#X obj 54 20 inlet;
#X obj 24 524 send \$0-freq1a;
#X obj 123 524 send \$0-freq2a;
#X obj 220 524 send \$0-freq3a;
#X obj 317 524 send \$0-freq4a;
#X obj 414 524 send \$0-freq5a;
#X obj 511 524 send \$0-freq6a;
#X obj 610 524 send \$0-freq7a;
#X obj 707 524 send \$0-freq8a;
#X obj 804 524 send \$0-freq9a;
#X obj 901 524 send \$0-freq10a;
#X obj 997 524 send \$0-freq11a;
#X obj 1095 524 send \$0-freq12a;
#X obj 1191 524 send \$0-freq13a;
#X obj 1288 524 send \$0-freq14a;
#X obj 1386 524 send \$0-freq15a;
#X obj 1484 523 send \$0-freq16a;
#X obj 24 551 send \$0-freq17a;
#X obj 123 551 send \$0-freq18a;
#X obj 220 551 send \$0-freq19a;
#X obj 317 551 send \$0-freq20a;
#X obj 414 551 send \$0-freq21a;
#X obj 511 551 send \$0-freq22a;
#X obj 611 551 send \$0-freq23a;
#X obj 708 551 send \$0-freq24a;
#X obj 805 551 send \$0-freq25a;
#X obj 902 551 send \$0-freq26a;
#X obj 998 551 send \$0-freq27a;
#X obj 1095 551 send \$0-freq28a;
#X obj 1191 551 send \$0-freq29a;
#X obj 1288 551 send \$0-freq30a;
#X obj 1386 551 send \$0-freq31a;
#X obj 1483 551 send \$0-freq32a;
#X obj 24 578 send \$0-freq33a;
#X obj 123 578 send \$0-freq34a;
#X obj 220 578 send \$0-freq35a;
#X obj 319 578 send \$0-freq36a;
#X obj 415 578 send \$0-freq37a;
#X obj 511 578 send \$0-freq38a;
#X obj 611 578 send \$0-freq39a;
#X obj 710 578 send \$0-freq40a;
#X obj 807 578 send \$0-freq41a;
#X obj 904 578 send \$0-freq42a;
#X obj 1001 578 send \$0-freq43a;
#X obj 1097 578 send \$0-freq44a;
#X obj 1194 578 send \$0-freq45a;
#X obj 1291 578 send \$0-freq46a;
#X obj 1388 578 send \$0-freq47a;
#X obj 1485 578 send \$0-freq48a;
#X obj 117 312 * 440;
#X connect 0 0 2 0;
#X connect 1 0 2 1;
#X connect 2 0 1 0;
#X connect 2 0 13 0;
#X connect 3 0 7 0;
#X connect 6 0 3 0;
#X connect 6 1 7 1;
#X connect 7 0 16 0;
#X connect 9 0 2 1;
#X connect 10 0 9 0;
#X connect 12 0 9 0;
#X connect 13 0 10 0;
#X connect 13 1 15 0;
#X connect 15 0 70 0;
#X connect 15 1 3 1;
#X connect 16 0 22 0;
#X connect 16 1 23 0;
#X connect 16 2 24 0;
#X connect 16 3 25 0;
#X connect 16 4 26 0;
#X connect 16 5 27 0;
#X connect 16 6 28 0;
#X connect 16 7 29 0;
#X connect 16 8 30 0;
#X connect 16 9 31 0;
#X connect 16 10 32 0;
#X connect 16 11 33 0;
#X connect 16 12 34 0;
#X connect 16 13 35 0;
#X connect 16 14 36 0;
#X connect 16 15 37 0;
#X connect 16 16 38 0;
#X connect 16 17 39 0;
#X connect 16 18 40 0;
#X connect 16 19 41 0;
#X connect 16 20 42 0;
#X connect 16 21 43 0;
#X connect 16 22 44 0;
#X connect 16 23 45 0;
#X connect 16 24 46 0;
#X connect 16 25 47 0;
#X connect 16 26 48 0;
#X connect 16 27 49 0;
#X connect 16 28 50 0;
#X connect 16 29 51 0;
#X connect 16 30 52 0;
#X connect 16 31 53 0;
#X connect 16 32 54 0;
#X connect 16 33 55 0;
#X connect 16 34 56 0;
#X connect 16 35 57 0;
#X connect 16 36 58 0;
#X connect 16 37 59 0;
#X connect 16 38 60 0;
#X connect 16 39 61 0;
#X connect 16 40 62 0;
#X connect 16 41 63 0;
#X connect 16 42 64 0;
#X connect 16 43 65 0;
#X connect 16 44 66 0;
#X connect 16 45 67 0;
#X connect 16 46 68 0;
#X connect 16 47 69 0;
#X connect 17 0 0 0;
#X connect 17 1 10 1;
#X connect 18 0 17 0;
#X connect 19 0 70 1;
#X connect 21 0 18 0;
#X connect 70 0 6 0;
#X restore 1884 99 pd freq.calc.sawtooth;
#X obj 2030 69 bng 15 250 50 0 empty empty empty 17 7 0 10 -262144
-1 -1;
#N canvas 274 104 1111 673 amp.calc.sawtooth 0;
#X obj 52 91 until;
#X obj 113 113 + 1;
#X obj 52 113 float 1;
#X obj 115 298 /;
#X obj 187 386 f;
#X text 145 298 divide 1/n \, where n is the interator (and the partial
number), f 61;
#X text 224 386 the iterator is stored here as an index to be used
by the [route] object, f 72;
#X text 140 113 iterator \, increase by 1 each time [until] sends a
"bang";
#X obj 115 351 trigger b f;
#X obj 133 427 pack f f;
#X text 194 425 combine the iterator/partial number with the calculated
partial amplitude value as a pair for [route];
#X msg 293 213 1;
#X obj 293 191 sel 48;
#X text 339 187 this mechanism resets the iterator to "1" when the
max iterations have occured, f 40;
#X obj 326 213 loadbang;
#X obj 52 140 trigger f f;
#X text 129 137 send the iterator first to the loop mechanism \, then
to the [sel] object to test if the loop is over (and reset the iterator
back to 1);
#X obj 115 271 swap 1;
#X floatatom 115 325 5 0 0 0 - - -, f 5;
#X obj 115 248 t f f, f 15;
#X obj 52 68 t f f;
#X msg 52 47 48;
#X obj 24 488 route 1 2 3 4 5 6 7 8 9 10 11 12 13 14 15 16 17 18 19
20 21 22 23 24 25 26 27 28 29 30 31 32 33 34 35 36 37 38 39 40 41 42
43 44 45 46 47 48, f 227;
#X obj 24 544 send \$0-amp1a;
#X obj 123 544 send \$0-amp2a;
#X obj 220 544 send \$0-amp3a;
#X obj 317 544 send \$0-amp4a;
#X obj 414 544 send \$0-amp5a;
#X obj 511 544 send \$0-amp6a;
#X obj 610 544 send \$0-amp7a;
#X obj 707 544 send \$0-amp8a;
#X obj 804 544 send \$0-amp9a;
#X obj 901 544 send \$0-amp10a;
#X obj 997 544 send \$0-amp11a;
#X obj 1095 544 send \$0-amp12a;
#X obj 1191 544 send \$0-amp13a;
#X obj 1288 544 send \$0-amp4a;
#X obj 1386 544 send \$0-amp15a;
#X obj 1484 543 send \$0-amp16a;
#X obj 24 571 send \$0-amp17a;
#X obj 123 571 send \$0-amp18a;
#X obj 220 571 send \$0-amp19a;
#X obj 317 571 send \$0-amp20a;
#X obj 414 571 send \$0-amp21a;
#X obj 511 571 send \$0-amp22a;
#X obj 611 571 send \$0-amp23a;
#X obj 708 571 send \$0-amp24a;
#X obj 805 571 send \$0-amp25a;
#X obj 902 571 send \$0-amp26a;
#X obj 998 571 send \$0-amp27a;
#X obj 1191 571 send \$0-amp29a;
#X obj 1288 571 send \$0-amp30a;
#X obj 1386 571 send \$0-amp31a;
#X obj 1483 571 send \$0-amp32a;
#X obj 24 598 send \$0-amp33a;
#X obj 123 598 send \$0-amp34a;
#X obj 220 598 send \$0-amp35a;
#X obj 319 598 send \$0-amp36a;
#X obj 415 598 send \$0-amp37a;
#X obj 511 598 send \$0-amp38a;
#X obj 611 598 send \$0-amp39a;
#X obj 709 598 send \$0-amp40a;
#X obj 807 598 send \$0-amp41a;
#X obj 904 598 send \$0-amp42a;
#X obj 1001 598 send \$0-amp43a;
#X obj 1291 598 send \$0-amp46a;
#X obj 1388 598 send \$0-amp47a;
#X obj 1485 598 send \$0-amp48a;
#X obj 52 20 inlet;
#X obj 1095 571 send \$0-amp28a;
#X obj 1097 598 send \$0-amp44a;
#X obj 1194 598 send \$0-amp45a;
#X connect 0 0 2 0;
#X connect 1 0 2 1;
#X connect 2 0 1 0;
#X connect 2 0 15 0;
#X connect 3 0 18 0;
#X connect 4 0 9 0;
#X connect 8 0 4 0;
#X connect 8 1 9 1;
#X connect 9 0 22 0;
#X connect 11 0 2 1;
#X connect 12 0 11 0;
#X connect 14 0 11 0;
#X connect 15 0 12 0;
#X connect 15 1 19 0;
#X connect 17 0 3 0;
#X connect 17 1 3 1;
#X connect 18 0 8 0;
#X connect 19 0 17 0;
#X connect 19 1 4 1;
#X connect 20 0 0 0;
#X connect 20 1 12 1;
#X connect 21 0 20 0;
#X connect 22 0 23 0;
#X connect 22 1 24 0;
#X connect 22 2 25 0;
#X connect 22 3 26 0;
#X connect 22 4 27 0;
#X connect 22 5 28 0;
#X connect 22 6 29 0;
#X connect 22 7 30 0;
#X connect 22 8 31 0;
#X connect 22 9 32 0;
#X connect 22 10 33 0;
#X connect 22 11 34 0;
#X connect 22 12 35 0;
#X connect 22 13 36 0;
#X connect 22 14 37 0;
#X connect 22 15 38 0;
#X connect 22 16 39 0;
#X connect 22 17 40 0;
#X connect 22 18 41 0;
#X connect 22 19 42 0;
#X connect 22 20 43 0;
#X connect 22 21 44 0;
#X connect 22 22 45 0;
#X connect 22 23 46 0;
#X connect 22 24 47 0;
#X connect 22 25 48 0;
#X connect 22 26 49 0;
#X connect 22 27 69 0;
#X connect 22 28 50 0;
#X connect 22 29 51 0;
#X connect 22 30 52 0;
#X connect 22 31 53 0;
#X connect 22 32 54 0;
#X connect 22 33 55 0;
#X connect 22 34 56 0;
#X connect 22 35 57 0;
#X connect 22 36 58 0;
#X connect 22 37 59 0;
#X connect 22 38 60 0;
#X connect 22 39 61 0;
#X connect 22 40 62 0;
#X connect 22 41 63 0;
#X connect 22 42 64 0;
#X connect 22 43 70 0;
#X connect 22 44 71 0;
#X connect 22 45 65 0;
#X connect 22 46 66 0;
#X connect 22 47 67 0;
#X connect 68 0 21 0;
#X restore 2030 94 pd amp.calc.sawtooth;
#X obj 1882 -35 bng 15 250 50 0 empty empty empty 17 7 0 10 -262144
-1 -1;
#X obj 2042 -40 bng 15 250 50 0 empty empty empty 17 7 0 10 -262144
-1 -1;
#N canvas 25 23 1415 855 freq.calc.triangle 0;
#X obj 54 111 until;
#X obj 115 133 + 1;
#X obj 54 133 float 1;
#X obj 189 386 f;
#X text 226 386 the iterator is stored here as an index to be used
by the [route] object, f 72;
#X text 142 133 iterator \, increase by 1 each time [until] sends a
"bang";
#X obj 117 351 trigger b f;
#X obj 135 427 pack f f;
#X text 196 425 combine the iterator/partial number with the calculated
partial amplitude value as a pair for [route];
#X msg 295 233 1;
#X obj 295 211 sel 48;
#X text 341 207 this mechanism resets the iterator to "1" when the
max iterations have occured, f 40;
#X obj 328 233 loadbang;
#X obj 54 160 trigger f f;
#X text 131 157 send the iterator first to the loop mechanism \, then
to the [sel] object to test if the loop is over (and reset the iterator
back to 1);
#X obj 117 268 t f f, f 15;
#X obj 24 468 route 1 2 3 4 5 6 7 8 9 10 11 12 13 14 15 16 17 18 19
20 21 22 23 24 25 26 27 28 29 30 31 32 33 34 35 36 37 38 39 40 41 42
43 44 45 46 47 48, f 227;
#X obj 54 88 t f f;
#X msg 54 67 48;
#X obj 143 19 inlet;
#X text 184 18 Fundamental Frequency;
#X obj 54 20 inlet;
#X obj 24 524 send \$0-freq1a;
#X obj 220 524 send \$0-freq3a;
#X obj 414 524 send \$0-freq5a;
#X obj 610 524 send \$0-freq7a;
#X obj 804 524 send \$0-freq9a;
#X obj 997 524 send \$0-freq11a;
#X obj 1191 524 send \$0-freq13a;
#X obj 1386 524 send \$0-freq15a;
#X obj 24 551 send \$0-freq17a;
#X obj 220 551 send \$0-freq19a;
#X obj 414 551 send \$0-freq21a;
#X obj 611 551 send \$0-freq23a;
#X obj 805 551 send \$0-freq25a;
#X obj 998 551 send \$0-freq27a;
#X obj 1191 551 send \$0-freq29a;
#X obj 1386 551 send \$0-freq31a;
#X obj 24 578 send \$0-freq33a;
#X obj 220 578 send \$0-freq35a;
#X obj 415 578 send \$0-freq37a;
#X obj 611 578 send \$0-freq39a;
#X obj 807 578 send \$0-freq41a;
#X obj 1001 578 send \$0-freq43a;
#X obj 1194 578 send \$0-freq45a;
#X obj 1388 578 send \$0-freq47a;
#X obj 117 312 * 440;
#X connect 0 0 2 0;
#X connect 1 0 2 1;
#X connect 2 0 1 0;
#X connect 2 0 13 0;
#X connect 3 0 7 0;
#X connect 6 0 3 0;
#X connect 6 1 7 1;
#X connect 7 0 16 0;
#X connect 9 0 2 1;
#X connect 10 0 9 0;
#X connect 12 0 9 0;
#X connect 13 0 10 0;
#X connect 13 1 15 0;
#X connect 15 0 46 0;
#X connect 15 1 3 1;
#X connect 16 0 22 0;
#X connect 16 2 23 0;
#X connect 16 4 24 0;
#X connect 16 6 25 0;
#X connect 16 8 26 0;
#X connect 16 10 27 0;
#X connect 16 12 28 0;
#X connect 16 14 29 0;
#X connect 16 16 30 0;
#X connect 16 18 31 0;
#X connect 16 20 32 0;
#X connect 16 22 33 0;
#X connect 16 24 34 0;
#X connect 16 26 35 0;
#X connect 16 28 36 0;
#X connect 16 30 37 0;
#X connect 16 32 38 0;
#X connect 16 34 39 0;
#X connect 16 36 40 0;
#X connect 16 38 41 0;
#X connect 16 40 42 0;
#X connect 16 42 43 0;
#X connect 16 44 44 0;
#X connect 16 46 45 0;
#X connect 17 0 0 0;
#X connect 17 1 10 1;
#X connect 18 0 17 0;
#X connect 19 0 46 1;
#X connect 21 0 18 0;
#X connect 46 0 6 0;
#X restore 1882 -10 pd freq.calc.triangle;
#N canvas 26 23 1414 855 amp.calc.triangle 0;
#X obj 52 91 until;
#X obj 113 113 + 1;
#X obj 52 113 float 1;
#X obj 115 298 /;
#X obj 187 386 f;
#X text 224 386 the iterator is stored here as an index to be used
by the [route] object, f 72;
#X text 140 113 iterator \, increase by 1 each time [until] sends a
"bang";
#X obj 115 351 trigger b f;
#X obj 133 427 pack f f;
#X text 194 425 combine the iterator/partial number with the calculated
partial amplitude value as a pair for [route];
#X msg 293 213 1;
#X obj 293 191 sel 48;
#X text 339 187 this mechanism resets the iterator to "1" when the
max iterations have occured, f 40;
#X obj 326 213 loadbang;
#X obj 52 140 trigger f f;
#X text 129 137 send the iterator first to the loop mechanism \, then
to the [sel] object to test if the loop is over (and reset the iterator
back to 1);
#X obj 115 271 swap 1;
#X floatatom 115 325 5 0 0 0 - - -, f 5;
#X obj 52 68 t f f;
#X msg 52 47 48;
#X obj 24 538 route 1 2 3 4 5 6 7 8 9 10 11 12 13 14 15 16 17 18 19
20 21 22 23 24 25 26 27 28 29 30 31 32 33 34 35 36 37 38 39 40 41 42
43 44 45 46 47 48, f 227;
#X obj 24 674 send \$0-amp1a;
#X obj 123 674 send \$0-amp2a;
#X obj 220 674 send \$0-amp3a;
#X obj 317 674 send \$0-amp4a;
#X obj 414 674 send \$0-amp5a;
#X obj 511 674 send \$0-amp6a;
#X obj 610 674 send \$0-amp7a;
#X obj 707 674 send \$0-amp8a;
#X obj 804 674 send \$0-amp9a;
#X obj 901 674 send \$0-amp10a;
#X obj 997 674 send \$0-amp11a;
#X obj 1095 674 send \$0-amp12a;
#X obj 1191 674 send \$0-amp13a;
#X obj 1386 674 send \$0-amp15a;
#X obj 1484 673 send \$0-amp16a;
#X obj 24 781 send \$0-amp17a;
#X obj 123 781 send \$0-amp18a;
#X obj 220 781 send \$0-amp19a;
#X obj 317 781 send \$0-amp20a;
#X obj 414 781 send \$0-amp21a;
#X obj 511 781 send \$0-amp22a;
#X obj 611 781 send \$0-amp23a;
#X obj 708 781 send \$0-amp24a;
#X obj 805 781 send \$0-amp25a;
#X obj 902 781 send \$0-amp26a;
#X obj 998 781 send \$0-amp27a;
#X obj 1191 781 send \$0-amp29a;
#X obj 1288 781 send \$0-amp30a;
#X obj 1386 781 send \$0-amp31a;
#X obj 1483 781 send \$0-amp32a;
#X obj 24 908 send \$0-amp33a;
#X obj 123 908 send \$0-amp34a;
#X obj 220 908 send \$0-amp35a;
#X obj 319 908 send \$0-amp36a;
#X obj 415 908 send \$0-amp37a;
#X obj 511 908 send \$0-amp38a;
#X obj 611 908 send \$0-amp39a;
#X obj 709 908 send \$0-amp40a;
#X obj 807 908 send \$0-amp41a;
#X obj 904 908 send \$0-amp42a;
#X obj 1001 908 send \$0-amp43a;
#X obj 1291 908 send \$0-amp46a;
#X obj 1388 908 send \$0-amp47a;
#X obj 1485 908 send \$0-amp48a;
#X obj 52 20 inlet;
#X obj 1095 781 send \$0-amp28a;
#X obj 1097 908 send \$0-amp44a;
#X obj 1194 908 send \$0-amp45a;
#X obj 115 246 *;
#X obj 115 188 t f f f, f 15;
#X text 145 298 divide 1/n^2 \, where n is the interator (and the partial
number), f 61;
#X text 141 244 n^2;
#X obj 133 449 t l b;
#X msg 160 474 0;
#X obj 1288 674 send \$0-amp14a;
#X text 195 473 All even partials need to be zeroed;
#X connect 0 0 2 0;
#X connect 1 0 2 1;
#X connect 2 0 1 0;
#X connect 2 0 14 0;
#X connect 3 0 17 0;
#X connect 4 0 8 0;
#X connect 7 0 4 0;
#X connect 7 1 8 1;
#X connect 8 0 73 0;
#X connect 10 0 2 1;
#X connect 11 0 10 0;
#X connect 13 0 10 0;
#X connect 14 0 11 0;
#X connect 14 1 70 0;
#X connect 16 0 3 0;
#X connect 16 1 3 1;
#X connect 17 0 7 0;
#X connect 18 0 0 0;
#X connect 18 1 11 1;
#X connect 19 0 18 0;
#X connect 20 0 21 0;
#X connect 20 2 23 0;
#X connect 20 4 25 0;
#X connect 20 6 27 0;
#X connect 20 8 29 0;
#X connect 20 10 31 0;
#X connect 20 12 33 0;
#X connect 20 14 34 0;
#X connect 20 16 36 0;
#X connect 20 18 38 0;
#X connect 20 20 40 0;
#X connect 20 22 42 0;
#X connect 20 24 44 0;
#X connect 20 26 46 0;
#X connect 20 28 47 0;
#X connect 20 30 49 0;
#X connect 20 32 51 0;
#X connect 20 34 53 0;
#X connect 20 36 55 0;
#X connect 20 38 57 0;
#X connect 20 40 59 0;
#X connect 20 42 61 0;
#X connect 20 44 68 0;
#X connect 20 46 63 0;
#X connect 65 0 19 0;
#X connect 69 0 16 0;
#X connect 70 0 69 0;
#X connect 70 1 69 1;
#X connect 70 2 4 1;
#X connect 73 0 20 0;
#X connect 73 1 74 0;
#X connect 74 0 22 0;
#X connect 74 0 37 0;
#X connect 74 0 52 0;
#X connect 74 0 24 0;
#X connect 74 0 39 0;
#X connect 74 0 54 0;
#X connect 74 0 26 0;
#X connect 74 0 41 0;
#X connect 74 0 56 0;
#X connect 74 0 28 0;
#X connect 74 0 43 0;
#X connect 74 0 58 0;
#X connect 74 0 30 0;
#X connect 74 0 45 0;
#X connect 74 0 60 0;
#X connect 74 0 32 0;
#X connect 74 0 66 0;
#X connect 74 0 67 0;
#X connect 74 0 75 0;
#X connect 74 0 48 0;
#X connect 74 0 62 0;
#X connect 74 0 35 0;
#X connect 74 0 50 0;
#X connect 74 0 64 0;
#X restore 2042 -15 pd amp.calc.triangle;
#X obj 1884 -314 bng 15 250 50 0 empty \$0-sine empty 17 7 0 10 -262144
-1 -1;
#N canvas 25 23 592 344 freq.calc.sine 0;
#X obj 246 291 send, f 5;
#X obj 148 52 bng 15 250 50 0 empty empty empty 17 7 0 10 -262144 -1
-1;
#X obj 148 110 send \$0-freq1a;
#X msg 148 84 440;
#N canvas 25 23 869 484 for.loop.2-48 0;
#X obj 54 111 until;
#X obj 115 133 + 1;
#X text 142 133 iterator \, increase by 1 each time [until] sends a
"bang";
#X text 341 207 this mechanism resets the iterator to "1" when the
max iterations have occured, f 40;
#X obj 328 233 loadbang;
#X obj 54 160 trigger f f;
#X text 131 157 send the iterator first to the loop mechanism \, then
to the [sel] object to test if the loop is over (and reset the iterator
back to 1);
#X obj 54 88 t f f;
#X obj 54 20 inlet;
#X obj 117 244 outlet;
#X msg 295 233 2;
#X obj 54 133 float 2;
#X msg 54 67 47;
#X obj 295 211 sel 48;
#X connect 0 0 11 0;
#X connect 1 0 11 1;
#X connect 4 0 10 0;
#X connect 5 0 13 0;
#X connect 5 1 9 0;
#X connect 7 0 0 0;
#X connect 8 0 12 0;
#X connect 10 0 11 1;
#X connect 11 0 1 0;
#X connect 11 0 5 0;
#X connect 12 0 7 0;
#X connect 13 0 10 0;
#X restore 246 87 pd for.loop.2-48;
#X msg 246 250 0;
#X obj 246 160 float \$0;
#X obj 246 134 t b s;
#X obj 246 212 t b s;
#X obj 246 110 makefilename %%d-freq%da;
#X obj 246 186 makefilename;
#X msg 307 162 set \$1;
#X text 24 82 set first partial to the fundamental, f 18;
#X text 363 78 set the remaining partials to zero, f 18;
#X obj 145 27 inlet;
#X connect 1 0 4 0;
#X connect 1 0 3 0;
#X connect 3 0 2 0;
#X connect 4 0 9 0;
#X connect 5 0 0 0;
#X connect 6 0 10 0;
#X connect 7 0 6 0;
#X connect 7 1 11 0;
#X connect 8 0 5 0;
#X connect 8 1 0 1;
#X connect 9 0 7 0;
#X connect 10 0 8 0;
#X connect 11 0 10 0;
#X connect 14 0 1 0;
#X restore 1884 -283 pd freq.calc.sine;
#N canvas 26 23 822 657 amp.calc.sine 0;
#X obj 251 309 send, f 5;
#X obj 153 57 bng 15 250 50 0 empty empty empty 17 7 0 10 -262144 -1
-1;
#N canvas 25 23 869 484 for.loop.2-48 0;
#X obj 54 111 until;
#X obj 115 133 + 1;
#X text 142 133 iterator \, increase by 1 each time [until] sends a
"bang";
#X text 341 207 this mechanism resets the iterator to "1" when the
max iterations have occured, f 40;
#X obj 328 233 loadbang;
#X obj 54 160 trigger f f;
#X text 131 157 send the iterator first to the loop mechanism \, then
to the [sel] object to test if the loop is over (and reset the iterator
back to 1);
#X obj 54 88 t f f;
#X obj 54 20 inlet;
#X obj 117 244 outlet;
#X msg 295 233 2;
#X obj 54 133 float 2;
#X msg 54 67 47;
#X obj 295 211 sel 48;
#X connect 0 0 11 0;
#X connect 1 0 11 1;
#X connect 4 0 10 0;
#X connect 5 0 13 0;
#X connect 5 1 9 0;
#X connect 7 0 0 0;
#X connect 8 0 12 0;
#X connect 10 0 11 1;
#X connect 11 0 1 0;
#X connect 11 0 5 0;
#X connect 12 0 7 0;
#X connect 13 0 10 0;
#X restore 251 122 pd for.loop.2-48;
#X msg 251 281 0;
#X obj 251 195 float \$0;
#X obj 251 169 t b s;
#X obj 251 247 t b s;
#X obj 251 221 makefilename;
#X msg 312 197 set \$1;
#X text 368 113 set the remaining partials to zero, f 18;
#X msg 153 89 1;
#X text 185 59 set first partial amplitude to 1, f 17;
#X obj 251 145 makefilename %%d-amp%da;
#X obj 153 125 send \$0-amp1a;
#X obj 152 39 inlet;
#X connect 1 0 2 0;
#X connect 1 0 10 0;
#X connect 2 0 12 0;
#X connect 3 0 0 0;
#X connect 4 0 7 0;
#X connect 5 0 4 0;
#X connect 5 1 8 0;
#X connect 6 0 3 0;
#X connect 6 1 0 1;
#X connect 7 0 6 0;
#X connect 8 0 7 0;
#X connect 10 0 13 0;
#X connect 12 0 5 0;
#X connect 14 0 1 0;
#X restore 2004 -283 pd amp.calc.sine;
#X obj 1881 180 bng 15 250 50 0 empty \$0-harmonicspec_c empty 17 7
0 10 -262144 -1 -1;
#X obj 1881 205 bng 15 250 50 0 empty empty empty 17 7 0 10 -262144
-1 -1;
#X obj 2041 200 bng 15 250 50 0 empty empty empty 17 7 0 10 -262144
-1 -1;
#X text 1881 156 Harmonic Spectrum C (Rectangle Wave) Preset;
#N canvas 25 23 1415 855 freq.calc.rect 0;
#X obj 54 111 until;
#X obj 115 133 + 1;
#X obj 54 133 float 1;
#X obj 189 386 f;
#X text 226 386 the iterator is stored here as an index to be used
by the [route] object, f 72;
#X text 142 133 iterator \, increase by 1 each time [until] sends a
"bang";
#X obj 117 351 trigger b f;
#X obj 135 427 pack f f;
#X text 196 425 combine the iterator/partial number with the calculated
partial amplitude value as a pair for [route];
#X msg 295 233 1;
#X obj 295 211 sel 48;
#X text 341 207 this mechanism resets the iterator to "1" when the
max iterations have occured, f 40;
#X obj 328 233 loadbang;
#X obj 54 160 trigger f f;
#X text 131 157 send the iterator first to the loop mechanism \, then
to the [sel] object to test if the loop is over (and reset the iterator
back to 1);
#X obj 117 268 t f f, f 15;
#X obj 24 468 route 1 2 3 4 5 6 7 8 9 10 11 12 13 14 15 16 17 18 19
20 21 22 23 24 25 26 27 28 29 30 31 32 33 34 35 36 37 38 39 40 41 42
43 44 45 46 47 48, f 227;
#X obj 54 88 t f f;
#X msg 54 67 48;
#X obj 143 19 inlet;
#X text 184 18 Fundamental Frequency;
#X obj 54 20 inlet;
#X obj 24 524 send \$0-freq1a;
#X obj 220 524 send \$0-freq3a;
#X obj 414 524 send \$0-freq5a;
#X obj 610 524 send \$0-freq7a;
#X obj 804 524 send \$0-freq9a;
#X obj 997 524 send \$0-freq11a;
#X obj 1191 524 send \$0-freq13a;
#X obj 1386 524 send \$0-freq15a;
#X obj 24 551 send \$0-freq17a;
#X obj 220 551 send \$0-freq19a;
#X obj 414 551 send \$0-freq21a;
#X obj 611 551 send \$0-freq23a;
#X obj 805 551 send \$0-freq25a;
#X obj 998 551 send \$0-freq27a;
#X obj 1191 551 send \$0-freq29a;
#X obj 1386 551 send \$0-freq31a;
#X obj 24 578 send \$0-freq33a;
#X obj 220 578 send \$0-freq35a;
#X obj 415 578 send \$0-freq37a;
#X obj 611 578 send \$0-freq39a;
#X obj 807 578 send \$0-freq41a;
#X obj 1001 578 send \$0-freq43a;
#X obj 1194 578 send \$0-freq45a;
#X obj 1388 578 send \$0-freq47a;
#X obj 117 312 * 440;
#X connect 0 0 2 0;
#X connect 1 0 2 1;
#X connect 2 0 1 0;
#X connect 2 0 13 0;
#X connect 3 0 7 0;
#X connect 6 0 3 0;
#X connect 6 1 7 1;
#X connect 7 0 16 0;
#X connect 9 0 2 1;
#X connect 10 0 9 0;
#X connect 12 0 9 0;
#X connect 13 0 10 0;
#X connect 13 1 15 0;
#X connect 15 0 46 0;
#X connect 15 1 3 1;
#X connect 16 0 22 0;
#X connect 16 2 23 0;
#X connect 16 4 24 0;
#X connect 16 6 25 0;
#X connect 16 8 26 0;
#X connect 16 10 27 0;
#X connect 16 12 28 0;
#X connect 16 14 29 0;
#X connect 16 16 30 0;
#X connect 16 18 31 0;
#X connect 16 20 32 0;
#X connect 16 22 33 0;
#X connect 16 24 34 0;
#X connect 16 26 35 0;
#X connect 16 28 36 0;
#X connect 16 30 37 0;
#X connect 16 32 38 0;
#X connect 16 34 39 0;
#X connect 16 36 40 0;
#X connect 16 38 41 0;
#X connect 16 40 42 0;
#X connect 16 42 43 0;
#X connect 16 44 44 0;
#X connect 16 46 45 0;
#X connect 17 0 0 0;
#X connect 17 1 10 1;
#X connect 18 0 17 0;
#X connect 19 0 46 1;
#X connect 21 0 18 0;
#X connect 46 0 6 0;
#X restore 1881 230 pd freq.calc.rect;
#N canvas 25 23 1415 855 amp.calc.rect 0;
#X obj 52 91 until;
#X obj 113 113 + 1;
#X obj 52 113 float 1;
#X obj 115 298 /;
#X obj 187 386 f;
#X text 224 386 the iterator is stored here as an index to be used
by the [route] object, f 72;
#X text 140 113 iterator \, increase by 1 each time [until] sends a
"bang";
#X obj 115 351 trigger b f;
#X obj 133 427 pack f f;
#X text 194 425 combine the iterator/partial number with the calculated
partial amplitude value as a pair for [route];
#X msg 293 213 1;
#X obj 293 191 sel 48;
#X text 339 187 this mechanism resets the iterator to "1" when the
max iterations have occured, f 40;
#X obj 326 213 loadbang;
#X obj 52 140 trigger f f;
#X text 129 137 send the iterator first to the loop mechanism \, then
to the [sel] object to test if the loop is over (and reset the iterator
back to 1);
#X obj 115 271 swap 1;
#X floatatom 115 325 5 0 0 0 - - -, f 5;
#X obj 52 68 t f f;
#X msg 52 47 48;
#X obj 24 538 route 1 2 3 4 5 6 7 8 9 10 11 12 13 14 15 16 17 18 19
20 21 22 23 24 25 26 27 28 29 30 31 32 33 34 35 36 37 38 39 40 41 42
43 44 45 46 47 48, f 227;
#X obj 24 674 send \$0-amp1a;
#X obj 123 674 send \$0-amp2a;
#X obj 220 674 send \$0-amp3a;
#X obj 317 674 send \$0-amp4a;
#X obj 414 674 send \$0-amp5a;
#X obj 511 674 send \$0-amp6a;
#X obj 610 674 send \$0-amp7a;
#X obj 707 674 send \$0-amp8a;
#X obj 804 674 send \$0-amp9a;
#X obj 901 674 send \$0-amp10a;
#X obj 997 674 send \$0-amp11a;
#X obj 1095 674 send \$0-amp12a;
#X obj 1191 674 send \$0-amp13a;
#X obj 1386 674 send \$0-amp15a;
#X obj 1484 673 send \$0-amp16a;
#X obj 24 781 send \$0-amp17a;
#X obj 123 781 send \$0-amp18a;
#X obj 220 781 send \$0-amp19a;
#X obj 317 781 send \$0-amp20a;
#X obj 414 781 send \$0-amp21a;
#X obj 511 781 send \$0-amp22a;
#X obj 611 781 send \$0-amp23a;
#X obj 708 781 send \$0-amp24a;
#X obj 805 781 send \$0-amp25a;
#X obj 902 781 send \$0-amp26a;
#X obj 998 781 send \$0-amp27a;
#X obj 1191 781 send \$0-amp29a;
#X obj 1288 781 send \$0-amp30a;
#X obj 1386 781 send \$0-amp31a;
#X obj 1483 781 send \$0-amp32a;
#X obj 24 908 send \$0-amp33a;
#X obj 123 908 send \$0-amp34a;
#X obj 220 908 send \$0-amp35a;
#X obj 319 908 send \$0-amp36a;
#X obj 415 908 send \$0-amp37a;
#X obj 511 908 send \$0-amp38a;
#X obj 611 908 send \$0-amp39a;
#X obj 709 908 send \$0-amp40a;
#X obj 807 908 send \$0-amp41a;
#X obj 904 908 send \$0-amp42a;
#X obj 1001 908 send \$0-amp43a;
#X obj 1291 908 send \$0-amp46a;
#X obj 1388 908 send \$0-amp47a;
#X obj 1485 908 send \$0-amp48a;
#X obj 52 20 inlet;
#X obj 1095 781 send \$0-amp28a;
#X obj 1097 908 send \$0-amp44a;
#X obj 1194 908 send \$0-amp45a;
#X obj 133 449 t l b;
#X msg 160 474 0;
#X obj 1288 674 send \$0-amp14a;
#X text 195 473 All even partials need to be zeroed;
#X obj 115 188 t f f, f 15;
#X text 145 298 divide 1/n \, where n is the interator (and the partial
number), f 61;
#X connect 0 0 2 0;
#X connect 1 0 2 1;
#X connect 2 0 1 0;
#X connect 2 0 14 0;
#X connect 3 0 17 0;
#X connect 4 0 8 0;
#X connect 7 0 4 0;
#X connect 7 1 8 1;
#X connect 8 0 69 0;
#X connect 10 0 2 1;
#X connect 11 0 10 0;
#X connect 13 0 10 0;
#X connect 14 0 11 0;
#X connect 14 1 73 0;
#X connect 16 0 3 0;
#X connect 16 1 3 1;
#X connect 17 0 7 0;
#X connect 18 0 0 0;
#X connect 18 1 11 1;
#X connect 19 0 18 0;
#X connect 20 0 21 0;
#X connect 20 2 23 0;
#X connect 20 4 25 0;
#X connect 20 6 27 0;
#X connect 20 8 29 0;
#X connect 20 10 31 0;
#X connect 20 12 33 0;
#X connect 20 14 34 0;
#X connect 20 16 36 0;
#X connect 20 18 38 0;
#X connect 20 20 40 0;
#X connect 20 22 42 0;
#X connect 20 24 44 0;
#X connect 20 26 46 0;
#X connect 20 28 47 0;
#X connect 20 30 49 0;
#X connect 20 32 51 0;
#X connect 20 34 53 0;
#X connect 20 36 55 0;
#X connect 20 38 57 0;
#X connect 20 40 59 0;
#X connect 20 42 61 0;
#X connect 20 44 68 0;
#X connect 20 46 63 0;
#X connect 65 0 19 0;
#X connect 69 0 20 0;
#X connect 69 1 70 0;
#X connect 70 0 22 0;
#X connect 70 0 37 0;
#X connect 70 0 52 0;
#X connect 70 0 24 0;
#X connect 70 0 39 0;
#X connect 70 0 54 0;
#X connect 70 0 26 0;
#X connect 70 0 41 0;
#X connect 70 0 56 0;
#X connect 70 0 28 0;
#X connect 70 0 43 0;
#X connect 70 0 58 0;
#X connect 70 0 30 0;
#X connect 70 0 45 0;
#X connect 70 0 60 0;
#X connect 70 0 32 0;
#X connect 70 0 66 0;
#X connect 70 0 67 0;
#X connect 70 0 71 0;
#X connect 70 0 48 0;
#X connect 70 0 62 0;
#X connect 70 0 35 0;
#X connect 70 0 50 0;
#X connect 70 0 64 0;
#X connect 73 0 16 0;
#X connect 73 1 4 1;
#X restore 2041 225 pd amp.calc.rect;
#X obj 1888 299 bng 15 250 50 0 empty \$0-inharmonicspec empty 17 7
0 10 -262144 -1 -1;
#N canvas 26 23 592 344 freq.calc.inharm 0;
#X obj 246 291 send, f 5;
#X obj 244 64 bng 15 250 50 0 empty empty empty 17 7 0 10 -262144 -1
-1;
#X obj 246 160 float \$0;
#X obj 246 134 t b s;
#X obj 246 212 t b s;
#X obj 246 110 makefilename %%d-freq%da;
#X obj 246 186 makefilename;
#X msg 307 162 set \$1;
#X obj 241 39 inlet;
#N canvas 25 23 869 484 for.loop.1-48 0;
#X obj 54 111 until;
#X obj 115 133 + 1;
#X text 142 133 iterator \, increase by 1 each time [until] sends a
"bang";
#X text 341 207 this mechanism resets the iterator to "1" when the
max iterations have occured, f 40;
#X obj 328 233 loadbang;
#X obj 54 160 trigger f f;
#X text 131 157 send the iterator first to the loop mechanism \, then
to the [sel] object to test if the loop is over (and reset the iterator
back to 1);
#X obj 54 88 t f f;
#X obj 54 20 inlet;
#X obj 117 244 outlet;
#X obj 295 211 sel 48;
#X msg 54 67 48;
#X msg 295 233 1;
#X obj 54 133 float 1;
#X connect 0 0 13 0;
#X connect 1 0 13 1;
#X connect 4 0 12 0;
#X connect 5 0 10 0;
#X connect 5 1 9 0;
#X connect 7 0 0 0;
#X connect 8 0 11 0;
#X connect 10 0 12 0;
#X connect 11 0 7 0;
#X connect 12 0 13 1;
#X connect 13 0 1 0;
#X connect 13 0 5 0;
#X restore 246 87 pd for.loop.1-48;
#X obj 195 238 random 20001;
#X text 19 180 randomly choose partial frequency;
#X connect 1 0 9 0;
#X connect 2 0 6 0;
#X connect 3 0 2 0;
#X connect 3 1 7 0;
#X connect 4 0 10 0;
#X connect 4 1 0 1;
#X connect 5 0 3 0;
#X connect 6 0 4 0;
#X connect 7 0 6 0;
#X connect 8 0 1 0;
#X connect 9 0 5 0;
#X connect 10 0 0 0;
#X restore 1888 330 pd freq.calc.inharm;
#N canvas 2022 22 907 626 amp.calc.inharm 0;
#X obj 460 531 send, f 5;
#X obj 428 119 bng 15 250 50 0 empty empty empty 17 7 0 10 -262144
-1 -1;
#X obj 428 215 float \$0;
#X obj 428 189 t b s;
#X obj 428 241 makefilename;
#X msg 489 217 set \$1;
#X obj 428 94 inlet;
#N canvas 25 23 869 484 for.loop.1-48 0;
#X obj 54 111 until;
#X obj 115 133 + 1;
#X text 142 133 iterator \, increase by 1 each time [until] sends a
"bang";
#X text 341 207 this mechanism resets the iterator to "1" when the
max iterations have occured, f 40;
#X obj 328 233 loadbang;
#X obj 54 160 trigger f f;
#X text 131 157 send the iterator first to the loop mechanism \, then
to the [sel] object to test if the loop is over (and reset the iterator
back to 1);
#X obj 54 88 t f f;
#X obj 54 20 inlet;
#X obj 117 244 outlet;
#X obj 295 211 sel 48;
#X msg 54 67 48;
#X msg 295 233 1;
#X obj 54 133 float 1;
#X connect 0 0 13 0;
#X connect 1 0 13 1;
#X connect 4 0 12 0;
#X connect 5 0 10 0;
#X connect 5 1 9 0;
#X connect 7 0 0 0;
#X connect 8 0 11 0;
#X connect 10 0 12 0;
#X connect 11 0 7 0;
#X connect 12 0 13 1;
#X connect 13 0 1 0;
#X connect 13 0 5 0;
#X restore 428 142 pd for.loop.1-48;
#X text 172 266 randomly choose partial amp (weighted low so that our
signal won't be too loud), f 28;
#X obj 283 370 random 101;
#X obj 283 391 / 100;
#X obj 267 518 f;
#X obj 437 310 t b s;
#X obj 231 334 t b b;
#X obj 199 370 random 101;
#X obj 199 391 / 100;
#X obj 188 518 f;
#X obj 223 456 sel 1 0;
#X obj 223 422 <;
#X text 276 445 If left number is less \, send left number \, else
send right number;
#X text 78 508 store the two generated random values, f 17;
#X obj 745 564 print;
#X obj 737 520 pack f s;
#X obj 428 165 makefilename %%d-amp%da;
#X obj 248 573 * 0.25;
#X text 114 572 Scale all amplitudes to prevent clipping, f 20;
#X msg 626 334 0.020833;
#X connect 1 0 7 0;
#X connect 2 0 4 0;
#X connect 3 0 2 0;
#X connect 3 1 5 0;
#X connect 4 0 12 0;
#X connect 5 0 4 0;
#X connect 6 0 1 0;
#X connect 7 0 23 0;
#X connect 9 0 10 0;
#X connect 10 0 11 1;
#X connect 10 0 18 1;
#X connect 11 0 24 0;
#X connect 12 0 13 0;
#X connect 12 1 0 1;
#X connect 13 0 14 0;
#X connect 13 1 9 0;
#X connect 14 0 15 0;
#X connect 15 0 16 1;
#X connect 15 0 18 0;
#X connect 16 0 24 0;
#X connect 17 0 16 0;
#X connect 17 1 11 0;
#X connect 18 0 17 0;
#X connect 22 0 21 0;
#X connect 23 0 3 0;
#X connect 24 0 0 0;
#X restore 2030 329 pd amp.calc.inharm;
#X text 1882 -84 Harmonic Spectrum A (Triangle Wave) Preset;
#X text 1884 25 Harmonic Spectrum B (Sawtooth Wave) Preset;
#N canvas 551 178 822 657 amp.calc.sine 0;
#X obj 251 309 send, f 5;
#X obj 153 57 bng 15 250 50 0 empty empty empty 17 7 0 10 -262144 -1
-1;
#N canvas 26 23 869 484 for.loop.2-48 0;
#X obj 54 111 until;
#X obj 115 133 + 1;
#X text 142 133 iterator \, increase by 1 each time [until] sends a
"bang";
#X text 341 207 this mechanism resets the iterator to "1" when the
max iterations have occured, f 40;
#X obj 328 233 loadbang;
#X obj 54 160 trigger f f;
#X text 131 157 send the iterator first to the loop mechanism \, then
to the [sel] object to test if the loop is over (and reset the iterator
back to 1);
#X obj 54 88 t f f;
#X obj 54 20 inlet;
#X obj 117 244 outlet;
#X obj 295 211 sel 48;
#X obj 54 133 float 1;
#X msg 295 233 1;
#X msg 54 67 48;
#X connect 0 0 11 0;
#X connect 1 0 11 1;
#X connect 4 0 12 0;
#X connect 5 0 10 0;
#X connect 5 1 9 0;
#X connect 7 0 0 0;
#X connect 8 0 13 0;
#X connect 10 0 12 0;
#X connect 11 0 1 0;
#X connect 11 0 5 0;
#X connect 12 0 11 1;
#X connect 13 0 7 0;
#X restore 251 122 pd for.loop.2-48;
#X msg 251 281 0;
#X obj 251 195 float \$0;
#X obj 251 169 t b s;
#X obj 251 247 t b s;
#X obj 251 221 makefilename;
#X msg 312 197 set \$1;
#X obj 251 145 makefilename %%d-amp%da;
#X obj 152 39 inlet;
#X text 348 77 set the amp of all partials to 0;
#X connect 1 0 2 0;
#X connect 2 0 9 0;
#X connect 3 0 0 0;
#X connect 4 0 7 0;
#X connect 5 0 4 0;
#X connect 5 1 8 0;
#X connect 6 0 3 0;
#X connect 6 1 0 1;
#X connect 7 0 6 0;
#X connect 8 0 7 0;
#X connect 9 0 5 0;
#X connect 10 0 1 0;
#X restore 2004 -411 pd amp.calc.sine;
#N canvas 27 23 592 344 freq.calc.init 0;
#X obj 151 291 send, f 5;
#X obj 148 52 bng 15 250 50 0 empty empty empty 17 7 0 10 -262144 -1
-1;
#X msg 151 250 0;
#X obj 151 160 float \$0;
#X obj 151 134 t b s;
#X obj 151 212 t b s;
#X obj 151 110 makefilename %%d-freq%da;
#X obj 151 186 makefilename;
#X msg 215 161 set \$1;
#X obj 145 27 inlet;
#N canvas 26 23 869 484 for.loop.1-48 0;
#X obj 54 111 until;
#X obj 115 133 + 1;
#X text 142 133 iterator \, increase by 1 each time [until] sends a
"bang";
#X text 341 207 this mechanism resets the iterator to "1" when the
max iterations have occured, f 40;
#X obj 328 233 loadbang;
#X obj 54 160 trigger f f;
#X text 131 157 send the iterator first to the loop mechanism \, then
to the [sel] object to test if the loop is over (and reset the iterator
back to 1);
#X obj 54 88 t f f;
#X obj 54 20 inlet;
#X obj 117 244 outlet;
#X obj 295 211 sel 48;
#X obj 54 133 float 1;
#X msg 54 67 48;
#X msg 295 233 1;
#X connect 0 0 11 0;
#X connect 1 0 11 1;
#X connect 4 0 13 0;
#X connect 5 0 10 0;
#X connect 5 1 9 0;
#X connect 7 0 0 0;
#X connect 8 0 12 0;
#X connect 10 0 13 0;
#X connect 11 0 1 0;
#X connect 11 0 5 0;
#X connect 12 0 7 0;
#X connect 13 0 11 1;
#X restore 151 87 pd for.loop.1-48;
#X text 246 32 sets all partials to 0;
#X connect 1 0 10 0;
#X connect 2 0 0 0;
#X connect 3 0 7 0;
#X connect 4 0 3 0;
#X connect 4 1 8 0;
#X connect 5 0 2 0;
#X connect 5 1 0 1;
#X connect 6 0 4 0;
#X connect 7 0 5 0;
#X connect 8 0 7 0;
#X connect 9 0 1 0;
#X connect 10 0 6 0;
#X restore 1884 -411 pd freq.calc.init;
#X text 1881 -390 All topmost [bang] buttons are remotely triggered
by the button's in the UI;
#X obj 1884 -443 bng 15 250 50 0 empty \$0-idealnoise empty 17 7 0
10 -262144 -1 -1;
#X text 1880 -499 Intialize;
#X obj 1882 -473 loadbang;
#X text 1885 271 Inharmonic Spectrum;
#X obj 1888 392 bng 15 250 50 0 empty \$0-noise empty 17 7 0 10 -262144
-1 -1;
#N canvas 480 54 847 767 freq.calc.noise 0;
#X obj 286 633 send, f 5;
#X obj 282 183 bng 15 250 50 0 empty empty empty 17 7 0 10 -262144
-1 -1;
#X obj 286 502 float \$0;
#X obj 286 476 t b s;
#X obj 286 554 t b s;
#X obj 286 452 makefilename %%d-freq%da;
#X obj 286 528 makefilename;
#X msg 347 504 set \$1;
#X obj 282 161 inlet;
#N canvas 25 23 869 484 for.loop.1-48 0;
#X obj 54 111 until;
#X obj 115 133 + 1;
#X text 142 133 iterator \, increase by 1 each time [until] sends a
"bang";
#X text 341 207 this mechanism resets the iterator to "1" when the
max iterations have occured, f 40;
#X obj 328 233 loadbang;
#X obj 54 160 trigger f f;
#X text 131 157 send the iterator first to the loop mechanism \, then
to the [sel] object to test if the loop is over (and reset the iterator
back to 1);
#X obj 54 88 t f f;
#X obj 54 20 inlet;
#X obj 117 244 outlet;
#X obj 295 211 sel 48;
#X msg 54 67 48;
#X msg 295 233 1;
#X obj 54 133 float 1;
#X connect 0 0 13 0;
#X connect 1 0 13 1;
#X connect 4 0 12 0;
#X connect 5 0 10 0;
#X connect 5 1 9 0;
#X connect 7 0 0 0;
#X connect 8 0 11 0;
#X connect 10 0 12 0;
#X connect 11 0 7 0;
#X connect 12 0 13 1;
#X connect 13 0 1 0;
#X connect 13 0 5 0;
#X restore 286 429 pd for.loop.1-48;
#X obj 235 580 random 20001;
#X text 6 586 randomly choose partial frequency;
#X obj 560 178 bng 15 250 50 0 empty \$0-sine empty 17 7 0 10 -262144
-1 -1;
#X text 583 176 From Sine;
#X msg 513 346 0;
#X obj 560 204 bng 15 250 50 0 empty \$0-harmonicspec_b empty 17 7
0 10 -262144 -1 -1;
#X text 583 202 From Tri;
#X obj 560 230 bng 15 250 50 0 empty \$0-harmonicspec_a empty 17 7
0 10 -262144 -1 -1;
#X text 583 228 From Saw;
#X obj 560 256 bng 15 250 50 0 empty \$0-harmonicspec_c empty 17 7
0 10 -262144 -1 -1;
#X text 583 254 From Rect;
#X obj 560 282 bng 15 250 50 0 empty \$0-inharmonicspec empty 17 7
0 10 -262144 -1 -1;
#X text 583 280 From Inharm;
#X text 489 132 These buttons are from all the other presets \, which
will turn off the [metro] object, f 34;
#X msg 282 204 1;
#X text 301 36 The only difference between the "Inharmonic Spectrum"
and white noise is that the white noise module continuously generates
random values \, which then gives an even distribution of random (whole
number) frequencies \, thus approaching white noise. This continual
generation is provided by [metro].;
#X obj 282 387 metro 10;
#X text 267 129 When the white noise preset is triggered \, turn metro
on, f 28;
#X text 401 501 here \, the "set" command sets [makefilename] as if
its argument was the symbol output above. Then the \$0 locally generated
unique number replaces %d in the above symbol;
#X text 445 438 generates the symbol "%d-freqNa" where N is 1-48 generated
from the for loop above. the portion "%%d" from the argument is translated
to just "%d" so that we can use it as a replaceable element below;
#X obj 1101 109 bng 15 250 50 0 empty \$0-idealnoise empty 17 7 0 10
-262144 -1 -1;
#X obj 562 306 bng 15 250 50 0 empty \$0-idealnoise empty 17 7 0 10
-262144 -1 -1;
#X connect 1 0 24 0;
#X connect 2 0 6 0;
#X connect 3 0 2 0;
#X connect 3 1 7 0;
#X connect 4 0 10 0;
#X connect 4 1 0 1;
#X connect 5 0 3 0;
#X connect 6 0 4 0;
#X connect 7 0 6 0;
#X connect 8 0 1 0;
#X connect 9 0 5 0;
#X connect 10 0 0 0;
#X connect 12 0 14 0;
#X connect 14 0 26 0;
#X connect 15 0 14 0;
#X connect 17 0 14 0;
#X connect 19 0 14 0;
#X connect 21 0 14 0;
#X connect 24 0 26 0;
#X connect 26 0 9 0;
#X connect 31 0 14 0;
#X restore 1888 430 pd freq.calc.noise;
#X text 1885 371 Continuous Noise;
#N canvas 2022 22 907 626 amp.calc.noise 0;
#X obj 460 531 send, f 5;
#X obj 428 119 bng 15 250 50 0 empty empty empty 17 7 0 10 -262144
-1 -1;
#X obj 428 215 float \$0;
#X obj 428 189 t b s;
#X obj 428 241 makefilename;
#X msg 489 217 set \$1;
#X obj 428 94 inlet;
#N canvas 25 23 869 484 for.loop.1-48 0;
#X obj 54 111 until;
#X obj 115 133 + 1;
#X text 142 133 iterator \, increase by 1 each time [until] sends a
"bang";
#X text 341 207 this mechanism resets the iterator to "1" when the
max iterations have occured, f 40;
#X obj 328 233 loadbang;
#X obj 54 160 trigger f f;
#X text 131 157 send the iterator first to the loop mechanism \, then
to the [sel] object to test if the loop is over (and reset the iterator
back to 1);
#X obj 54 88 t f f;
#X obj 54 20 inlet;
#X obj 117 244 outlet;
#X obj 295 211 sel 48;
#X msg 54 67 48;
#X msg 295 233 1;
#X obj 54 133 float 1;
#X connect 0 0 13 0;
#X connect 1 0 13 1;
#X connect 4 0 12 0;
#X connect 5 0 10 0;
#X connect 5 1 9 0;
#X connect 7 0 0 0;
#X connect 8 0 11 0;
#X connect 10 0 12 0;
#X connect 11 0 7 0;
#X connect 12 0 13 1;
#X connect 13 0 1 0;
#X connect 13 0 5 0;
#X restore 428 142 pd for.loop.1-48;
#X obj 437 310 t b s;
#X obj 745 564 print;
#X obj 737 520 pack f s;
#X obj 428 165 makefilename %%d-amp%da;
#X msg 384 414 0.020833;
#X connect 1 0 7 0;
#X connect 2 0 4 0;
#X connect 3 0 2 0;
#X connect 3 1 5 0;
#X connect 4 0 8 0;
#X connect 5 0 4 0;
#X connect 6 0 1 0;
#X connect 7 0 11 0;
#X connect 8 0 12 0;
#X connect 8 1 0 1;
#X connect 10 0 9 0;
#X connect 11 0 3 0;
#X connect 12 0 0 0;
#X restore 2030 429 pd amp.calc.noise;
#X msg 2311 -462 \; pd dsp 1;
#X obj 1708 -257 receive~ sig4;
#N canvas 26 23 1018 716 scope 0;
#N canvas 0 22 450 278 (subpatch) 0;
#X array scope-\$0 250 float 1 black black;
#A 0 0 0 0 0 0 0 0 0 0 0 0 0 0 0 0 0 0 0 0 0 0 0 0 0 0 0 0 0 0 0 0
0 0 0 0 0 0 0 0 0 0 0 0 0 0 0 0 0 0 0 0 0 0 0 0 0 0 0 0 0 0 0 0 0 0
0 0 0 0 0 0 0 0 0 0 0 0 0 0 0 0 0 0 0 0 0 0 0 0 0 0 0 0 0 0 0 0 0 0
0 0 0 0 0 0 0 0 0 0 0 0 0 0 0 0 0 0 0 0 0 0 0 0 0 0 0 0 0 0 0 0 0 0
0 0 0 0 0 0 0 0 0 0 0 0 0 0 0 0 0 0 0 0 0 0 0 0 0 0 0 0 0 0 0 0 0 0
0 0 0 0 0 0 0 0 0 0 0 0 0 0 0 0 0 0 0 0 0 0 0 0 0 0 0 0 0 0 0 0 0 0
0 0 0 0 0 0 0 0 0 0 0 0 0 0 0 0 0 0 0 0 0 0 0 0 0 0 0 0 0 0 0 0 0 0
0 0 0 0 0 0 0 0 0 0 0 0 0 0 0;
#X coords 0 1 249 -1 400 280 1;
#X restore 107 122 graph;
#X obj 12 349 tgl 15 0 empty empty empty 17 7 0 10 -262144 -1 -1 1
1;
#X obj 12 373 metro 50;
#X obj 11 296 loadbang;
#X msg 11 320 1;
#X floatatom 51 348 5 0 0 0 - - -, f 5;
#X msg 53 324 250;
#X obj -47 411 tabwrite~ scope-\$0;
#X obj -46 95 inlet~;
#X text 513 253 0;
#X text 508 115 1;
#X text 509 390 -1;
#X connect 1 0 2 0;
#X connect 2 0 7 0;
#X connect 3 0 4 0;
#X connect 3 0 6 0;
#X connect 4 0 1 0;
#X connect 5 0 2 1;
#X connect 6 0 5 0;
#X connect 8 0 7 0;
#X coords 0 -1 1 1 450 325 2 100 100;
#X restore 1179 -176 pd scope;
#N canvas 27 23 1200 687 spectroscope 0;
#X obj 110 39 inlet~;
#N canvas 123 39 1142 661 spectrograph 0;
#N canvas 491 173 651 544 fft-analysis 0;
#X obj 15 164 *~;
#X obj 14 99 inlet~;
#X obj 15 218 rfft~;
#X obj 14 306 *~;
#X obj 56 306 *~;
#X obj 15 356 sqrt~;
#X obj 23 386 loadbang;
#X obj 23 449 tgl 15 0 empty empty empty 0 -6 0 8 -262144 -1 -1 1 1
;
#X obj 15 8 block~ 512;
#X text 225 131 tabreceive~ outputs array contents \,;
#X text 225 149 constantly \, every block. Here it's;
#X text 223 169 used to get the Hann window to;
#X text 225 187 multiply by the input.;
#X text 120 7 block~ object does no computation but declares this;
#X text 120 24 window to be operating at a different block size from
;
#X text 122 58 Fourier transform.;
#X text 121 40 the parent window. This determines the size of the;
#X text 76 99 The inlet~ automatically re-blocks to the new block size.
;
#X obj 15 332 +~;
#X text 94 308 Take the magnitude by squaring real and imaginary part
\, adding and taking square root.;
#X text 110 424 periodically graph the output. It appears every 512
samples (about 12 milliseconds) but we only update the graph 4 times
per second. The graph is back on the main (parent) window.;
#X text 82 215 forward real FFT. Like "fft~" \, but only one inlet
(for the real part) and only the first half of the output signals are
used. (The others are determined by symmetry: they're complex conjugates
of the first half \, in reverse order.) This takes 1/2 the CPU time
of "fft".;
#X obj 23 470 metro 250;
#X msg 23 410 1;
#X obj 35 140 tabreceive~ \$0-hann0;
#X obj 14 498 tabwrite~ \$0-timbre_spectrograph0;
#X connect 0 0 2 0;
#X connect 1 0 0 0;
#X connect 2 0 3 0;
#X connect 2 0 3 1;
#X connect 2 1 4 0;
#X connect 2 1 4 1;
#X connect 3 0 18 0;
#X connect 4 0 18 1;
#X connect 5 0 25 0;
#X connect 6 0 23 0;
#X connect 7 0 22 0;
#X connect 18 0 5 0;
#X connect 22 0 25 0;
#X connect 23 0 7 0;
#X connect 24 0 0 1;
#X restore 1094 205 pd fft-analysis;
#N canvas 26 23 450 300 (subpatch) 0;
#X array \$0-timbre_spectrograph0 256 float 0 black black;
#X coords 0 128 255 0 500 100 1;
#X restore 168 115 graph;
#N canvas 0 22 450 300 (subpatch) 0;
#X array \$0-hann0 512 float 1 black black;
#A 0 0 3.76403e-05 0.000150591 0.000338823 0.000602275 0.000940949
0.00135478 0.00184369 0.00240764 0.00304651 0.00376022 0.00454867 0.00541174
0.0063493 0.00736117 0.00844726 0.00960737 0.0108413 0.0121489 0.01353
0.0149844 0.0165118 0.018112 0.0197847 0.0215298 0.023347 0.0252359
0.0271963 0.029228 0.0313305 0.0335036 0.035747 0.0380602 0.0404431
0.0428951 0.045416 0.0480053 0.0506628 0.0533879 0.0561802 0.0590394
0.061965 0.0649565 0.0680136 0.0711357 0.0743224 0.0775732 0.0808876
0.0842652 0.0877054 0.0912076 0.0947714 0.0983962 0.102082 0.105827
0.109631 0.113495 0.117416 0.121396 0.125432 0.129524 0.133673 0.137876
0.142135 0.146447 0.150812 0.15523 0.159699 0.164221 0.168792 0.173414
0.178084 0.182803 0.18757 0.192384 0.197244 0.20215 0.207101 0.212096
0.217134 0.222215 0.227338 0.232501 0.237705 0.242949 0.248231 0.253551
0.258908 0.264302 0.269731 0.275194 0.280692 0.286222 0.291785 0.297379
0.303004 0.308658 0.314341 0.320053 0.325791 0.331555 0.337345 0.343159
0.348997 0.354858 0.36074 0.366644 0.372567 0.37851 0.384471 0.390449
0.396444 0.402455 0.40848 0.414519 0.420571 0.426635 0.43271 0.438795
0.444889 0.450991 0.457101 0.463218 0.46934 0.475466 0.481596 0.487729
0.493864 0.5 0.506136 0.512271 0.518404 0.524534 0.53066 0.536782 0.542899
0.549009 0.555111 0.561205 0.56729 0.573365 0.579429 0.585481 0.59152
0.597545 0.603556 0.609551 0.615529 0.62149 0.627433 0.633356 0.63926
0.645142 0.651003 0.656841 0.662655 0.668445 0.674209 0.679947 0.685659
0.691342 0.696996 0.702621 0.708215 0.713778 0.719308 0.724806 0.730269
0.735698 0.741092 0.746449 0.751769 0.757051 0.762295 0.767499 0.772663
0.777785 0.782866 0.787904 0.792899 0.79785 0.802756 0.807616 0.81243
0.817197 0.821916 0.826586 0.831208 0.83578 0.840301 0.84477 0.849188
0.853553 0.857865 0.862124 0.866327 0.870476 0.874568 0.878604 0.882584
0.886505 0.890369 0.894173 0.897918 0.901604 0.905229 0.908792 0.912295
0.915735 0.919112 0.922427 0.925678 0.928864 0.931986 0.935044 0.938035
0.940961 0.94382 0.946612 0.949337 0.951995 0.954584 0.957105 0.959557
0.96194 0.964253 0.966496 0.96867 0.970772 0.972804 0.974764 0.976653
0.97847 0.980215 0.981888 0.983488 0.985016 0.98647 0.987851 0.989159
0.990393 0.991553 0.992639 0.993651 0.994588 0.995451 0.99624 0.996953
0.997592 0.998156 0.998645 0.999059 0.999398 0.999661 0.999849 0.999962
1 0.999962 0.999849 0.999661 0.999398 0.999059 0.998645 0.998156 0.997592
0.996953 0.99624 0.995451 0.994588 0.993651 0.992639 0.991553 0.990393
0.989159 0.987851 0.98647 0.985016 0.983488 0.981888 0.980215 0.97847
0.976653 0.974764 0.972804 0.970772 0.968669 0.966496 0.964253 0.96194
0.959557 0.957105 0.954584 0.951995 0.949337 0.946612 0.94382 0.940961
0.938035 0.935043 0.931986 0.928864 0.925678 0.922427 0.919112 0.915735
0.912295 0.908792 0.905229 0.901604 0.897918 0.894173 0.890369 0.886505
0.882584 0.878604 0.874568 0.870476 0.866327 0.862123 0.857865 0.853553
0.849188 0.84477 0.840301 0.835779 0.831208 0.826586 0.821916 0.817197
0.81243 0.807616 0.802755 0.79785 0.792899 0.787904 0.782866 0.777785
0.772662 0.767499 0.762295 0.757051 0.751769 0.746449 0.741092 0.735698
0.730269 0.724806 0.719308 0.713777 0.708215 0.702621 0.696996 0.691342
0.685659 0.679948 0.674209 0.668445 0.662655 0.656841 0.651003 0.645142
0.63926 0.633356 0.627433 0.62149 0.615529 0.60955 0.603556 0.597545
0.59152 0.585481 0.579429 0.573365 0.56729 0.561205 0.555111 0.549008
0.542899 0.536782 0.53066 0.524534 0.518404 0.512271 0.506136 0.5 0.493864
0.487729 0.481596 0.475466 0.46934 0.463218 0.457101 0.450991 0.444889
0.438794 0.43271 0.426635 0.420571 0.414519 0.40848 0.402455 0.396444
0.390449 0.384471 0.37851 0.372567 0.366643 0.36074 0.354858 0.348997
0.343159 0.337345 0.331555 0.325791 0.320052 0.314341 0.308658 0.303004
0.297379 0.291785 0.286222 0.280692 0.275194 0.269731 0.264302 0.258908
0.253551 0.248231 0.242949 0.237705 0.232501 0.227337 0.222215 0.217134
0.212096 0.207101 0.20215 0.197244 0.192384 0.18757 0.182803 0.178084
0.173414 0.168792 0.16422 0.159699 0.15523 0.150812 0.146446 0.142134
0.137876 0.133673 0.129524 0.125432 0.121396 0.117416 0.113495 0.109631
0.105827 0.102081 0.0983962 0.0947713 0.0912075 0.0877053 0.0842652
0.0808876 0.0775732 0.0743224 0.0711357 0.0680135 0.0649565 0.0619649
0.0590393 0.0561801 0.0533878 0.0506627 0.0480053 0.0454159 0.0428951
0.0404431 0.0380602 0.035747 0.0335036 0.0313305 0.0292279 0.0271963
0.0252359 0.0233469 0.0215298 0.0197847 0.0181119 0.0165117 0.0149844
0.01353 0.0121489 0.0108413 0.00960734 0.00844723 0.00736117 0.00634927
0.00541171 0.00454867 0.00376022 0.00304648 0.00240761 0.00184369 0.00135478
0.000940949 0.000602275 0.000338793 0.000150591 3.76403e-05;
#X coords 0 1 511 0 200 120 1;
#X restore 1399 132 graph;
#X msg 1341 130 0;
#X obj 1235 179 osc~;
#X obj 1235 131 samplerate~;
#X obj 1235 202 *~ -0.5;
#X obj 1235 225 +~ 0.5;
#X text 1385 124 1;
#X text 1378 242 0;
#X text 1394 255 0;
#X obj 1235 155 / 512;
#X obj 1228 70 bng 15 250 50 0 empty empty empty 0 -6 0 8 -262144 -1
-1;
#X text 1504 109 Hann window;
#X text 1283 177 period 512;
#X text 1260 64 recalculate Hann;
#X text 1284 77 window table;
#X text 1580 258 511;
#X obj 1227 40 inlet;
#X obj 1054 232 outlet~;
#X obj 1054 28 inlet~;
#X text 1108 234 Thru;
#X obj 1330 34 loadbang;
#X text 155 226 20;
#X text 171 226 500;
#X text 186 238 1000;
#X text 200 226 2000;
#X text 244 225 4000;
#X text 164 238 250;
#X text 163 213 |;
#X text 177 213 |;
#X text 187 213 |;
#X text 209 213 |;
#X text 254 213 |;
#X text 300 213 |;
#X text 291 225 6000;
#X text 349 213 |;
#X text 338 225 8000;
#X text 391 213 |;
#X text 380 225 10000;
#X text 436 213 |;
#X text 425 225 12000;
#X text 482 213 |;
#X text 471 225 14000;
#X text 528 213 |;
#X text 517 225 16000;
#X text 574 213 |;
#X text 563 225 18000;
#X text 617 213 |;
#X text 606 225 20000;
#X text 664 213 |;
#X text 653 225 22000;
#X text 354 253 Frequency in Hz;
#X text 101 155 Magni-tude, f 6;
#X text 147 158 0.5-;
#X text 154 108 1;
#X text 154 205 0;
#X text 170 213 |;
#X obj 1227 250 tabwrite~ \$0-hann0;
#X connect 3 0 4 1;
#X connect 4 0 6 0;
#X connect 5 0 11 0;
#X connect 6 0 7 0;
#X connect 7 0 58 0;
#X connect 11 0 4 0;
#X connect 12 0 5 0;
#X connect 12 0 3 0;
#X connect 12 0 58 0;
#X connect 18 0 12 0;
#X connect 20 0 0 0;
#X connect 20 0 19 0;
#X connect 22 0 12 0;
#X coords 0 -1 1 1 590 175 2 100 100;
#X restore 109 113 pd spectrograph;
#X connect 0 0 1 0;
#X coords 0 -1 1 1 625 200 2 100 100;
#X restore 1067 -390 pd spectroscope;
#X obj 346 -326 bng 15 250 50 0 \$0-harmonicspec_a empty Harmonic_Spectrum_B_(Sawtooth_Wave)
17 7 0 12 -4032 -1 -1;
#X obj 346 -420 bng 15 250 50 0 \$0-sine empty Sine_Wave 17 7 0 12
-4032 -1 -1;
#X obj 346 -343 bng 15 250 50 0 \$0-harmonicspec_b empty Harmonic_Spectrum_A_(Triangle_Wave)
17 7 0 12 -4032 -1 -1;
#X obj 346 -309 bng 15 250 50 0 \$0-harmonicspec_c empty Harmonic_Spectrum_C_(Rectangle_Wave)
17 7 0 12 -4032 -1 -1;
#X obj 346 -292 bng 15 250 50 0 \$0-inharmonicspec empty Inharmonic_Spectrum_(different_every_time)
17 7 0 12 -4032 -1 -1;
#X obj 739 -357 vsl 15 115 0 127 0 1 \$0-gainslider empty Gain/Volume
-25 -10 0 12 -4032 -1 -1 0 1;
#X obj 346 -274 bng 15 250 50 0 \$0-noise empty Noise_(Attempt_at_generating_white_noise_manually)
17 7 0 12 -4032 -1 -1;
#X obj 346 -256 bng 15 250 50 0 \$0-idealnoise empty Idealized_Noise
17 7 0 12 -4032 -1 -1;
#X text 343 -444 Preset Timbres ------------------------------------------------
, f 64;
#X text 392 -156 Individual Partials/Harmonics:;
#X floatatom 327 -75 5 0 0 0 - #0-amp1a #0-amp1b, f 5;
#X floatatom 327 -98 5 0 0 0 - #0-freq1a #0-freq1b, f 5;
#X text 362 -101 f;
#X text 363 -75 a;
#X floatatom 381 -75 5 0 0 0 - #0-amp2a #0-amp2b, f 5;
#X floatatom 381 -98 5 0 0 0 - #0-freq2a #0-freq2b, f 5;
#X text 416 -101 f;
#X text 417 -75 a;
#X floatatom 435 -75 5 0 0 0 - #0-amp3a #0-amp3b, f 5;
#X floatatom 435 -98 5 0 0 0 - #0-freq3a #0-freq3b, f 5;
#X text 470 -101 f;
#X text 471 -75 a;
#X floatatom 488 -75 5 0 0 0 - #0-amp4a #0-amp4b, f 5;
#X floatatom 488 -98 5 0 0 0 - #0-freq4a #0-freq4b, f 5;
#X text 523 -101 f;
#X text 524 -75 a;
#X floatatom 542 -75 5 0 0 0 - #0-amp5a #0-amp5b, f 5;
#X floatatom 542 -98 5 0 0 0 - #0-freq5a #0-freq5b, f 5;
#X text 577 -101 f;
#X text 578 -75 a;
#X floatatom 596 -75 5 0 0 0 - #0-amp6a #0-amp6b, f 5;
#X floatatom 596 -98 5 0 0 0 - #0-freq6a #0-freq6b, f 5;
#X text 631 -101 f;
#X text 632 -75 a;
#X floatatom 648 -76 5 0 0 0 - #0-amp7a #0-amp7b, f 5;
#X floatatom 648 -99 5 0 0 0 - #0-freq7a #0-freq7b, f 5;
#X text 683 -102 f;
#X text 684 -76 a;
#X floatatom 702 -76 5 0 0 0 - #0-amp8a #0-amp8b, f 5;
#X floatatom 702 -99 5 0 0 0 - #0-freq8a #0-freq8b, f 5;
#X text 737 -102 f;
#X text 738 -76 a;
#X floatatom 756 -76 5 0 0 0 - #0-amp9a #0-amp9b, f 5;
#X floatatom 756 -99 5 0 0 0 - #0-freq9a #0-freq9b, f 5;
#X text 791 -102 f;
#X text 792 -76 a;
#X floatatom 809 -76 5 0 0 0 - #0-amp10a #0-amp10b, f 5;
#X floatatom 809 -99 5 0 0 0 - #0-freq10a #0-freq10b, f 5;
#X text 844 -102 f;
#X text 845 -76 a;
#X floatatom 863 -76 5 0 0 0 - #0-amp11a #0-amp11b, f 5;
#X floatatom 863 -99 5 0 0 0 - #0-freq11a #0-freq11b, f 5;
#X text 898 -102 f;
#X text 899 -76 a;
#X floatatom 917 -76 5 0 0 0 - #0-amp12a #0-amp12b, f 5;
#X floatatom 917 -99 5 0 0 0 - #0-freq12a #0-freq12b, f 5;
#X text 953 -102 f;
#X text 954 -76 a;
#X text 330 -116 1;
#X text 385 -116 2;
#X text 438 -116 3;
#X text 491 -116 4;
#X text 546 -116 5;
#X text 599 -116 6;
#X text 650 -116 7;
#X text 704 -116 8;
#X text 768 -116 9;
#X text 821 -116 10;
#X text 875 -116 11;
#X text 930 -116 12;
#X floatatom 326 -7 5 0 0 0 - #0-amp13a #0-amp13b, f 5;
#X floatatom 327 -30 5 0 0 0 - #0-freq13a #0-freq13b, f 5;
#X text 362 -33 f;
#X text 362 -7 a;
#X floatatom 381 -7 5 0 0 0 - #0-amp14a #0-amp14b, f 5;
#X floatatom 382 -30 5 0 0 0 - #0-freq14a #0-freq14b, f 5;
#X text 417 -33 f;
#X text 417 -7 a;
#X floatatom 435 -7 5 0 0 0 - #0-amp15a #0-amp15b, f 5;
#X floatatom 436 -30 5 0 0 0 - #0-freq15a #0-freq15b, f 5;
#X text 471 -33 f;
#X text 471 -7 a;
#X floatatom 488 -7 5 0 0 0 - #0-amp16a #0-amp16b, f 5;
#X floatatom 489 -30 5 0 0 0 - #0-freq16a #0-freq16b, f 5;
#X text 524 -33 f;
#X text 524 -7 a;
#X floatatom 542 -7 5 0 0 0 - #0-amp17a #0-amp17b, f 5;
#X floatatom 543 -30 5 0 0 0 - #0-freq17a #0-freq17b, f 5;
#X text 578 -33 f;
#X text 578 -7 a;
#X floatatom 596 -7 5 0 0 0 - #0-amp18a #0-amp18b, f 5;
#X floatatom 597 -30 5 0 0 0 - #0-freq18a #0-freq18b, f 5;
#X text 632 -33 f;
#X text 632 -7 a;
#X floatatom 647 -7 5 0 0 0 - #0-amp19a #0-amp19b, f 5;
#X floatatom 648 -30 5 0 0 0 - #0-freq19a #0-freq19b, f 5;
#X text 683 -33 f;
#X text 683 -7 a;
#X floatatom 701 -7 5 0 0 0 - #0-amp20a #0-amp20b, f 5;
#X floatatom 702 -30 5 0 0 0 - #0-freq20a #0-freq20b, f 5;
#X text 737 -33 f;
#X text 737 -7 a;
#X floatatom 755 -7 5 0 0 0 - #0-amp21a #0-amp21b, f 5;
#X floatatom 756 -30 5 0 0 0 - #0-freq21a #0-freq21b, f 5;
#X text 791 -33 f;
#X text 791 -7 a;
#X floatatom 808 -7 5 0 0 0 - #0-amp22a #0-amp22b, f 5;
#X floatatom 809 -30 5 0 0 0 - #0-freq22a #0-freq22b, f 5;
#X text 844 -33 f;
#X text 844 -7 a;
#X floatatom 862 -7 5 0 0 0 - #0-amp23a #0-amp23b, f 5;
#X floatatom 863 -30 5 0 0 0 - #0-freq23a #0-freq23b, f 5;
#X text 898 -33 f;
#X text 898 -7 a;
#X floatatom 916 -7 5 0 0 0 - #0-amp24a #0-amp24b, f 5;
#X floatatom 917 -30 5 0 0 0 - #0-freq24a #0-freq24b, f 5;
#X text 952 -33 f;
#X text 952 -7 a;
#X text 330 -48 13;
#X text 385 -48 14;
#X text 439 -48 15;
#X text 492 -48 16;
#X text 547 -48 17;
#X text 600 -48 18;
#X text 650 -48 19;
#X text 704 -48 20;
#X text 768 -48 21;
#X text 821 -48 22;
#X text 875 -48 23;
#X text 929 -48 24;
#X floatatom 326 62 5 0 0 0 - #0-amp25a #0-amp25b, f 5;
#X floatatom 326 39 5 0 0 0 - #0-freq25a #0-freq25b, f 5;
#X text 361 36 f;
#X text 362 62 a;
#X floatatom 381 62 5 0 0 0 - #0-amp26a #0-amp26b, f 5;
#X floatatom 381 39 5 0 0 0 - #0-freq26a #0-freq26b, f 5;
#X text 416 36 f;
#X text 417 62 a;
#X floatatom 435 62 5 0 0 0 - #0-amp27a #0-amp27b, f 5;
#X floatatom 435 39 5 0 0 0 - #0-freq27a #0-freq27b, f 5;
#X text 470 36 f;
#X text 471 62 a;
#X floatatom 488 62 5 0 0 0 - #0-amp28a #0-amp28b, f 5;
#X floatatom 488 39 5 0 0 0 - #0-freq28a #0-freq28b, f 5;
#X text 523 36 f;
#X text 524 62 a;
#X floatatom 542 62 5 0 0 0 - #0-amp29a #0-amp29b, f 5;
#X floatatom 542 39 5 0 0 0 - #0-freq29a #0-freq29b, f 5;
#X text 577 36 f;
#X text 578 62 a;
#X floatatom 596 62 5 0 0 0 - #0-amp30a #0-amp30b, f 5;
#X floatatom 596 39 5 0 0 0 - #0-freq30a #0-freq30b, f 5;
#X text 631 36 f;
#X text 632 62 a;
#X floatatom 648 61 5 0 0 0 - #0-amp31a #0-amp31b, f 5;
#X floatatom 648 38 5 0 0 0 - #0-freq31a #0-freq31b, f 5;
#X text 683 35 f;
#X text 684 61 a;
#X floatatom 702 61 5 0 0 0 - #0-amp32a #0-amp32b, f 5;
#X floatatom 702 38 5 0 0 0 - #0-freq32a #0-freq32b, f 5;
#X text 737 35 f;
#X text 738 61 a;
#X floatatom 756 61 5 0 0 0 - #0-amp33a #0-amp33b, f 5;
#X floatatom 756 38 5 0 0 0 - #0-freq33a #0-freq33b, f 5;
#X text 791 35 f;
#X text 792 61 a;
#X floatatom 809 61 5 0 0 0 - #0-amp34a #0-amp34b, f 5;
#X floatatom 809 38 5 0 0 0 - #0-freq34a #0-freq34b, f 5;
#X text 844 35 f;
#X text 845 61 a;
#X floatatom 863 61 5 0 0 0 - #0-amp35a #0-amp35b, f 5;
#X floatatom 863 38 5 0 0 0 - #0-freq35a #0-freq35b, f 5;
#X text 898 35 f;
#X text 899 61 a;
#X floatatom 917 61 5 0 0 0 - #0-amp36a #0-amp36b, f 5;
#X floatatom 917 38 5 0 0 0 - #0-freq36a #0-freq36b, f 5;
#X text 952 35 f;
#X text 953 61 a;
#X floatatom 326 130 5 0 0 0 - #0-amp37a #0-amp37b, f 5;
#X floatatom 326 107 5 0 0 0 - #0-freq37a #0-freq37b, f 5;
#X text 361 104 f;
#X text 362 130 a;
#X floatatom 381 130 5 0 0 0 - #0-amp38a #0-amp38b, f 5;
#X floatatom 381 107 5 0 0 0 - #0-freq38a #0-freq38b, f 5;
#X text 416 104 f;
#X text 417 130 a;
#X floatatom 435 130 5 0 0 0 - #0-amp39a #0-amp39b, f 5;
#X floatatom 435 107 5 0 0 0 - #0-freq39a #0-freq39b, f 5;
#X text 470 104 f;
#X text 471 130 a;
#X floatatom 488 130 5 0 0 0 - #0-amp40a #0-amp40b, f 5;
#X floatatom 488 107 5 0 0 0 - #0-freq40a #0-freq40b, f 5;
#X text 523 104 f;
#X text 524 130 a;
#X floatatom 542 130 5 0 0 0 - #0-amp41a #0-amp41b, f 5;
#X floatatom 542 107 5 0 0 0 - #0-freq41a #0-freq41b, f 5;
#X text 577 104 f;
#X text 578 130 a;
#X floatatom 596 130 5 0 0 0 - #0-amp42a #0-amp42b, f 5;
#X floatatom 596 107 5 0 0 0 - #0-freq42a #0-freq42b, f 5;
#X text 631 104 f;
#X text 632 130 a;
#X floatatom 647 130 5 0 0 0 - #0-amp43a #0-amp43b, f 5;
#X floatatom 647 107 5 0 0 0 - #0-freq43a #0-freq43b, f 5;
#X text 682 104 f;
#X text 683 130 a;
#X floatatom 701 130 5 0 0 0 - #0-amp44a #0-amp44b, f 5;
#X floatatom 701 107 5 0 0 0 - #0-freq44a #0-freq44b, f 5;
#X text 736 104 f;
#X text 737 130 a;
#X floatatom 755 130 5 0 0 0 - #0-amp45a #0-amp45b, f 5;
#X floatatom 755 107 5 0 0 0 - #0-freq45a #0-freq45b, f 5;
#X text 790 104 f;
#X text 791 130 a;
#X floatatom 808 130 5 0 0 0 - #0-amp46a #0-amp46b, f 5;
#X floatatom 808 107 5 0 0 0 - #0-freq46a #0-freq46b, f 5;
#X text 843 104 f;
#X text 844 130 a;
#X floatatom 862 130 5 0 0 0 - #0-amp47a #0-amp47b, f 5;
#X floatatom 862 107 5 0 0 0 - #0-freq47a #0-freq47b, f 5;
#X text 897 104 f;
#X text 898 130 a;
#X floatatom 916 130 5 0 0 0 - #0-amp48a #0-amp48b, f 5;
#X floatatom 916 107 5 0 0 0 - #0-freq48a #0-freq48b, f 5;
#X text 951 104 f;
#X text 952 130 a;
#X text 329 21 25;
#X text 384 21 26;
#X text 438 21 27;
#X text 491 21 28;
#X text 546 21 29;
#X text 599 21 30;
#X text 650 20 31;
#X text 704 20 32;
#X text 768 20 33;
#X text 821 20 34;
#X text 875 20 35;
#X text 929 20 36;
#X text 329 89 37;
#X text 384 89 38;
#X text 438 89 39;
#X text 491 89 40;
#X text 546 89 41;
#X text 599 89 42;
#X text 649 89 43;
#X text 703 89 44;
#X text 767 89 45;
#X text 820 89 46;
#X text 874 89 47;
#X text 928 89 48;
#X text 132 -118 All frequency and amplitude controls in the user interface
remotely receive from the preset freq and amp values to the right using
the receive symbol "\$0-freq#a" and "\$0-amp#a". All freq and amp controls
also remotely send to the number boxes below \, which actually set
the oscillators to develop the various timbre. These use the remote
send symbol "\$0-freq#b" and "\$0-amp#b". All remote send and receive
symbols can be seen in each object's properties., f 24;
#X obj 2021 -236 tgl 15 0 empty empty empty 17 7 0 10 -262144 -1 -1
0 1;
#X msg 2021 -213 \$1 100;
#X obj 2021 -188 line~;
#X obj 1921 -235 tri~ 440;
#X obj 285 960 dac~ 1 2 3 4 5 6;
#X connect 1 0 6 0;
#X connect 2 0 1 1;
#X connect 3 0 2 0;
#X connect 5 0 1 0;
#X connect 6 0 0 0;
#X connect 6 0 655 0;
#X connect 6 0 655 1;
#X connect 7 0 11 0;
#X connect 8 0 9 0;
#X connect 9 0 10 0;
#X connect 10 0 11 1;
#X connect 11 0 1 0;
#X connect 12 0 18 0;
#X connect 13 0 18 0;
#X connect 14 0 18 0;
#X connect 15 0 18 0;
#X connect 16 0 18 0;
#X connect 17 0 18 0;
#X connect 18 0 10 0;
#X connect 20 0 655 0;
#X connect 20 0 655 1;
#X connect 20 0 655 4;
#X connect 20 0 655 5;
#X connect 21 0 26 0;
#X connect 22 0 26 1;
#X connect 23 0 21 0;
#X connect 26 0 190 0;
#X connect 27 0 32 0;
#X connect 28 0 32 1;
#X connect 29 0 27 0;
#X connect 32 0 190 0;
#X connect 33 0 38 0;
#X connect 34 0 38 1;
#X connect 35 0 33 0;
#X connect 38 0 190 0;
#X connect 39 0 43 1;
#X connect 40 0 44 0;
#X connect 43 0 190 0;
#X connect 44 0 43 0;
#X connect 45 0 49 1;
#X connect 46 0 50 0;
#X connect 49 0 190 0;
#X connect 50 0 49 0;
#X connect 51 0 55 1;
#X connect 52 0 56 0;
#X connect 55 0 190 0;
#X connect 56 0 55 0;
#X connect 57 0 62 0;
#X connect 58 0 62 1;
#X connect 59 0 57 0;
#X connect 62 0 190 0;
#X connect 63 0 68 0;
#X connect 64 0 68 1;
#X connect 65 0 63 0;
#X connect 68 0 190 0;
#X connect 69 0 74 0;
#X connect 70 0 74 1;
#X connect 71 0 69 0;
#X connect 74 0 190 0;
#X connect 75 0 79 1;
#X connect 76 0 80 0;
#X connect 79 0 190 0;
#X connect 80 0 79 0;
#X connect 81 0 85 1;
#X connect 82 0 86 0;
#X connect 85 0 190 0;
#X connect 86 0 85 0;
#X connect 87 0 91 1;
#X connect 88 0 92 0;
#X connect 91 0 190 0;
#X connect 92 0 91 0;
#X connect 94 0 99 0;
#X connect 95 0 99 1;
#X connect 96 0 94 0;
#X connect 99 0 190 0;
#X connect 100 0 105 0;
#X connect 101 0 105 1;
#X connect 102 0 100 0;
#X connect 105 0 190 0;
#X connect 106 0 111 0;
#X connect 107 0 111 1;
#X connect 108 0 106 0;
#X connect 111 0 190 0;
#X connect 112 0 116 1;
#X connect 113 0 117 0;
#X connect 116 0 190 0;
#X connect 117 0 116 0;
#X connect 118 0 122 1;
#X connect 119 0 123 0;
#X connect 122 0 190 0;
#X connect 123 0 122 0;
#X connect 124 0 128 1;
#X connect 125 0 129 0;
#X connect 128 0 190 0;
#X connect 129 0 128 0;
#X connect 130 0 135 0;
#X connect 131 0 135 1;
#X connect 132 0 130 0;
#X connect 135 0 190 0;
#X connect 136 0 141 0;
#X connect 137 0 141 1;
#X connect 138 0 136 0;
#X connect 141 0 190 0;
#X connect 142 0 147 0;
#X connect 143 0 147 1;
#X connect 144 0 142 0;
#X connect 147 0 190 0;
#X connect 148 0 152 1;
#X connect 149 0 153 0;
#X connect 152 0 190 0;
#X connect 153 0 152 0;
#X connect 154 0 158 1;
#X connect 155 0 159 0;
#X connect 158 0 190 0;
#X connect 159 0 158 0;
#X connect 160 0 164 1;
#X connect 161 0 165 0;
#X connect 164 0 190 0;
#X connect 165 0 164 0;
#X connect 191 0 196 0;
#X connect 192 0 196 1;
#X connect 193 0 191 0;
#X connect 196 0 359 0;
#X connect 197 0 202 0;
#X connect 198 0 202 1;
#X connect 199 0 197 0;
#X connect 202 0 359 0;
#X connect 203 0 208 0;
#X connect 204 0 208 1;
#X connect 205 0 203 0;
#X connect 208 0 359 0;
#X connect 209 0 213 1;
#X connect 210 0 214 0;
#X connect 213 0 359 0;
#X connect 214 0 213 0;
#X connect 215 0 219 1;
#X connect 216 0 220 0;
#X connect 219 0 359 0;
#X connect 220 0 219 0;
#X connect 221 0 225 1;
#X connect 222 0 226 0;
#X connect 225 0 359 0;
#X connect 226 0 225 0;
#X connect 227 0 232 0;
#X connect 228 0 232 1;
#X connect 229 0 227 0;
#X connect 232 0 359 0;
#X connect 233 0 238 0;
#X connect 234 0 238 1;
#X connect 235 0 233 0;
#X connect 238 0 359 0;
#X connect 239 0 244 0;
#X connect 240 0 244 1;
#X connect 241 0 239 0;
#X connect 244 0 359 0;
#X connect 245 0 249 1;
#X connect 246 0 250 0;
#X connect 249 0 359 0;
#X connect 250 0 249 0;
#X connect 251 0 255 1;
#X connect 252 0 256 0;
#X connect 255 0 359 0;
#X connect 256 0 255 0;
#X connect 257 0 261 1;
#X connect 258 0 262 0;
#X connect 261 0 359 0;
#X connect 262 0 261 0;
#X connect 275 0 280 0;
#X connect 276 0 280 1;
#X connect 277 0 275 0;
#X connect 280 0 359 0;
#X connect 281 0 286 0;
#X connect 282 0 286 1;
#X connect 283 0 281 0;
#X connect 286 0 359 0;
#X connect 287 0 292 0;
#X connect 288 0 292 1;
#X connect 289 0 287 0;
#X connect 292 0 359 0;
#X connect 293 0 297 1;
#X connect 294 0 298 0;
#X connect 297 0 359 0;
#X connect 298 0 297 0;
#X connect 299 0 303 1;
#X connect 300 0 304 0;
#X connect 303 0 359 0;
#X connect 304 0 303 0;
#X connect 305 0 309 1;
#X connect 306 0 310 0;
#X connect 309 0 359 0;
#X connect 310 0 309 0;
#X connect 311 0 316 0;
#X connect 312 0 316 1;
#X connect 313 0 311 0;
#X connect 316 0 359 0;
#X connect 317 0 322 0;
#X connect 318 0 322 1;
#X connect 319 0 317 0;
#X connect 322 0 359 0;
#X connect 323 0 328 0;
#X connect 324 0 328 1;
#X connect 325 0 323 0;
#X connect 328 0 359 0;
#X connect 329 0 333 1;
#X connect 330 0 334 0;
#X connect 333 0 359 0;
#X connect 334 0 333 0;
#X connect 335 0 339 1;
#X connect 336 0 340 0;
#X connect 339 0 359 0;
#X connect 340 0 339 0;
#X connect 341 0 345 1;
#X connect 342 0 346 0;
#X connect 345 0 359 0;
#X connect 346 0 345 0;
#X connect 360 0 363 0;
#X connect 360 0 365 0;
#X connect 361 0 367 0;
#X connect 361 0 368 0;
#X connect 363 0 364 0;
#X connect 365 0 366 0;
#X connect 367 0 369 0;
#X connect 368 0 370 0;
#X connect 371 0 373 0;
#X connect 371 0 372 0;
#X connect 374 0 375 0;
#X connect 374 0 376 0;
#X connect 375 0 378 0;
#X connect 376 0 379 0;
#X connect 380 0 382 0;
#X connect 380 0 381 0;
#X connect 388 0 386 0;
#X connect 388 0 385 0;
#X connect 388 0 396 0;
#X connect 390 0 388 0;
#X connect 392 0 393 0;
#X connect 392 0 395 0;
#X connect 397 0 399 0;
#X connect 397 0 398 0;
#X connect 651 0 652 0;
#X connect 652 0 653 0;
