#N canvas 514 23 743 800 10;
#X floatatom 66 207 0 0 0 0 - - -;
#X obj 34 166 notein;
#X floatatom 307 193 0 0 0 0 - - -;
#X obj 34 355 mtof;
#X obj 34 381 phasor~;
#X obj 288 537 dac~;
#X obj 288 486 *~;
#X floatatom 92 210 5 0 0 0 - - -;
#X obj 192 216 vsl 15 128 0.1 10 0 0 empty empty Q 0 -9 0 10 -262144
-1 -1 0 1;
#X obj 138 216 vsl 15 128 0 127 0 0 empty empty F 0 -9 0 10 -262144
-1 -1 0 1;
#X obj 138 355 mtof;
#X msg 44 416 clear;
#X msg 193 402 \$1 50;
#X floatatom 137 465 5 0 0 0 - - -;
#X obj 34 470 vcf~;
#X obj 137 423 line;
#X obj 193 423 line;
#X msg 137 401 \$1 50;
#X floatatom 193 465 5 0 0 0 - - -;
#X obj 346 430 pack;
#X obj 307 215 moses 1;
#X obj 307 456 line~;
#X obj 307 430 pack;
#X obj 277 215 vsl 15 128 0 1000 0 0 empty empty A 0 -9 0 10 -262144
-1 -1 0 1;
#X obj 228 214 vsl 15 128 0 1000 0 0 empty empty D 0 -9 0 10 -262144
-1 -1 0 1;
#X obj 346 401 / 127;
#X floatatom 305 262 5 0 0 0 - - -;
#X floatatom 345 261 5 0 0 0 - - -;
#X obj 34 330 clip 0 127;
#X floatatom 42 207 0 0 0 0 - - -;
#X obj 138 161 * 127;
#X obj 138 134 r Cutoff;
#X obj 49 235 r Pitch;
#X obj 34 301 +;
#X obj 228 160 * 1000;
#X obj 192 58 r Resonance;
#X obj 277 85 * 1000;
#X obj 277 58 r Attack;
#X obj 192 104 + 0.1;
#X obj 49 257 * 24;
#X obj 192 80 * 4;
#X obj 228 133 r Release;
#X obj 49 277 - 1;
#X obj 73 532 loadbang;
#X obj 347 701 s pdpulp_p4;
#X obj 73 703 s pdpulp_p1;
#X obj 163 701 s pdpulp_p2;
#X obj 257 701 s pdpulp_p3;
#X msg 257 680 Attack 0.03;
#X msg 347 680 Decay 0.2;
#X msg 73 680 Cutoff 0.6;
#X msg 163 678 Resonance 0.8;
#X msg 441 680 - 0.5;
#X obj 441 701 s pdpulp_p5;
#X obj 73 767 s pdpulp_p6;
#X obj 163 765 s pdpulp_p7;
#X obj 257 765 s pdpulp_p8;
#X obj 347 765 s pdpulp_p9;
#X obj 441 765 s pdpulp_p10;
#X msg 73 742 - 0.5;
#X msg 163 742 - 0.5;
#X msg 257 744 - 0.5;
#X msg 347 744 - 0.5;
#X msg 441 744 - 0.5;
#X text 510 741 <-- Add additional parameter;
#X connect 1 0 29 0;
#X connect 1 0 33 0;
#X connect 1 1 0 0;
#X connect 1 1 2 0;
#X connect 1 2 7 0;
#X connect 2 0 20 0;
#X connect 3 0 4 0;
#X connect 4 0 14 0;
#X connect 6 0 5 0;
#X connect 6 0 5 1;
#X connect 8 0 12 0;
#X connect 9 0 10 0;
#X connect 10 0 17 0;
#X connect 11 0 14 0;
#X connect 12 0 16 0;
#X connect 14 0 6 0;
#X connect 15 0 13 0;
#X connect 15 0 14 1;
#X connect 16 0 14 2;
#X connect 16 0 18 0;
#X connect 17 0 15 0;
#X connect 19 0 21 0;
#X connect 20 0 26 0;
#X connect 20 1 27 0;
#X connect 21 0 6 1;
#X connect 22 0 21 0;
#X connect 23 0 19 1;
#X connect 24 0 22 1;
#X connect 25 0 19 0;
#X connect 26 0 22 0;
#X connect 27 0 25 0;
#X connect 28 0 3 0;
#X connect 30 0 9 0;
#X connect 31 0 30 0;
#X connect 32 0 39 0;
#X connect 33 0 28 0;
#X connect 34 0 24 0;
#X connect 35 0 40 0;
#X connect 36 0 23 0;
#X connect 37 0 36 0;
#X connect 38 0 8 0;
#X connect 39 0 42 0;
#X connect 40 0 38 0;
#X connect 41 0 34 0;
#X connect 42 0 33 1;
#X connect 43 0 50 0;
#X connect 43 0 49 0;
#X connect 43 0 48 0;
#X connect 43 0 51 0;
#X connect 43 0 59 0;
#X connect 43 0 60 0;
#X connect 43 0 61 0;
#X connect 43 0 62 0;
#X connect 43 0 63 0;
#X connect 43 0 52 0;
#X connect 48 0 47 0;
#X connect 49 0 44 0;
#X connect 50 0 45 0;
#X connect 51 0 46 0;
#X connect 52 0 53 0;
#X connect 59 0 54 0;
#X connect 60 0 55 0;
#X connect 61 0 56 0;
#X connect 62 0 57 0;
#X connect 63 0 58 0;
