#N canvas 1440 23 1920 1035 10;
#X obj 181 677 osc~ 440;
#X floatatom 144 212 5 0 0 0 - - -, f 5;
#X floatatom 129 189 5 0 0 0 - - -, f 5;
#X obj 357 164 tdh.util.scope~;
#X text 164 186 Freq;
#X text 180 212 Amp;
#X obj 257 584 osc~ 440;
#X obj 257 608 *~;
#X floatatom 144 324 5 0 0 0 - - -, f 5;
#X floatatom 129 301 5 0 0 0 - - -, f 5;
#X obj 181 706 *~;
#X obj 181 641 +~;
#X text 145 126 Frequency Modulation;
#X text 132 166 Wave 1 (carrier);
#X text 134 277 Wave 2 (modulator);
#X text 164 298 Freq (rate of modulation);
#X text 180 324 Amp (amount of modulation);
#X obj 181 728 outlet~;
#X connect 0 0 10 0;
#X connect 1 0 10 1;
#X connect 2 0 11 0;
#X connect 6 0 7 0;
#X connect 7 0 11 1;
#X connect 8 0 7 1;
#X connect 9 0 6 0;
#X connect 10 0 3 0;
#X connect 10 0 17 0;
#X connect 11 0 0 0;
#X coords 0 -1 1 1 725 450 2 100 100;
