#N canvas 0 23 1920 855 10;
#X obj -34 287 osc~ 440;
#X obj -35 363 *~;
#X floatatom 113 239 5 0 0 0 - - -, f 5;
#X obj 363 142 tdh.util.scope~;
#X text 127 197 Frequency;
#X text 123 117 Amplitude Envelope;
#X obj 10 406 send~ sig2;
#X obj 363 117 receive~ sig2;
#X obj 114 217 hsl 128 15 0 127 0 0 empty empty empty -2 -8 0 10 -262144
-1 -1 0 1;
#X obj -22 156 / 127;
#X obj -22 178 * 20000;
#X obj -35 435 outlet~;
#X obj 105 294 tdh.synth.adsr.lite~;
#X connect 0 0 1 0;
#X connect 1 0 6 0;
#X connect 1 0 11 0;
#X connect 2 0 0 0;
#X connect 7 0 3 0;
#X connect 8 0 9 0;
#X connect 9 0 10 0;
#X connect 10 0 2 0;
#X connect 12 0 1 1;
#X coords 0 -1 1 1 725 450 2 100 100;
