#N canvas 241 24 1416 855 10;
#X obj 162 128 vsl 15 128 0 1 0 0 empty \$0-amplitude Amplitude 0 -9
0 10 -262144 -1 -1 0 1;
#X obj 66 105 vsl 15 128 20 20000 0 0 empty \$0-frequency Frequency_Hz
0 -9 0 10 -262144 -1 -1 5010 1;
#X obj 128 301 osc~;
#X obj 127 386 dac~ 1 2;
#X obj 126 343 *~;
#X connect 0 0 4 1;
#X connect 1 0 2 0;
#X connect 2 0 4 0;
#X connect 4 0 3 0;
#X connect 4 0 3 1;
#X coords 0 -1 1 1 250 250 1 50 50;
