#N canvas 553 133 500 512 10;
#X obj 109 116 vsl 15 128 0 20000 0 0 empty \$0-frequency Frequency_Hz
0 -9 0 10 -262144 -1 -1 1100 1;
#X obj 89 396 osc~;
#X obj 86 345 line;
#X obj 91 491 dac~ 1 2;
#X obj 196 116 vsl 15 128 0 1 0 0 empty \$0-amplitude Amplitude 0 -9
0 10 -262144 -1 -1 0 1;
#X obj 98 433 *~;
#X msg 110 287 \$1 100;
#X connect 0 0 6 0;
#X connect 1 0 5 0;
#X connect 2 0 1 0;
#X connect 4 0 5 1;
#X connect 5 0 3 0;
#X connect 5 0 3 1;
#X connect 6 0 2 0;
#X coords 0 -1 1 1 250 150 1 100 100;
