#N canvas 2125 -93 1259 865 10;
#X obj 58 360 + 1;
#X obj 25 360 f 0;
#X obj 25 107 inlet;
#X obj 848 107 inlet;
#X msg 848 183 0;
#X obj 264 102 inlet;
#X obj 103 108 inlet;
#X obj 25 400 outlet;
#X obj 88 237 f;
#X obj 249 174 sel;
#X text 899 106 "bang" resets to 0;
#X text 378 101 max;
#X obj 564 106 inlet;
#X text 673 103 increment amount;
#X text 24 13 tdh.util.counter;
#X text 24 33 An incremental counter that responds to "bang";
#X text 24 53 Arguments: counter_min count_max increment_amt;
#X obj 158 143 float \$1;
#X obj 319 139 float \$2;
#X text 276 173 bang if max is reached \,;
#X text 276 186 outputs min to start counter over;
#X obj 618 135 float \$3;
#X obj 158 110 loadbang;
#X obj 319 102 loadbang;
#X obj 618 104 loadbang;
#X connect 0 0 1 1;
#X connect 0 0 9 0;
#X connect 1 0 0 0;
#X connect 1 0 7 0;
#X connect 2 0 1 0;
#X connect 3 0 4 0;
#X connect 4 0 1 1;
#X connect 5 0 9 1;
#X connect 6 0 1 1;
#X connect 6 0 8 1;
#X connect 8 0 1 1;
#X connect 9 0 8 0;
#X connect 12 0 0 1;
#X connect 17 0 8 1;
#X connect 18 0 9 1;
#X connect 21 0 0 1;
#X connect 22 0 17 0;
#X connect 23 0 18 0;
#X connect 24 0 21 0;
