#N canvas 939 234 713 326 10;
#X obj 157 157 expr ($f4 * (1 - ( ($f1-$f2) / ($f3-$f2) ) ) ) + ($f5
* ( ( $f1-$f2) / ($f3-$f4) ) );
#X obj 465 12 loadbang;
#X msg 264 99 0;
#X msg 330 99 1;
#X msg 409 99 5;
#X msg 499 99 10;
#X obj 462 41 t b b b b;
#X floatatom 140 46 5 0 1 0 - - -, f 5;
#X floatatom 173 245 5 0 0 0 - - -, f 5;
#X obj 576 26 bng 15 250 50 0 empty empty empty 17 7 0 10 -262144 -1
-1;
#X connect 0 0 8 0;
#X connect 1 0 6 0;
#X connect 2 0 0 1;
#X connect 3 0 0 2;
#X connect 4 0 0 3;
#X connect 5 0 0 4;
#X connect 6 0 2 0;
#X connect 6 1 3 0;
#X connect 6 2 4 0;
#X connect 6 3 5 0;
#X connect 7 0 0 0;
#X connect 9 0 6 0;
