#N canvas 2341 49 959 560 10;
#X obj 367 49 inlet;
#X obj 307 136 * 4;
#X obj 351 135 * 2;
#X obj 398 136 / 2;
#X obj 442 135 / 4;
#X obj 290 239 outlet;
#X obj 349 235 outlet;
#X obj 405 237 outlet;
#X obj 464 233 outlet;
#X obj 521 237 outlet;
#X connect 0 0 1 0;
#X connect 0 0 2 0;
#X connect 0 0 3 0;
#X connect 0 0 4 0;
#X connect 0 0 7 0;
#X connect 1 0 5 0;
#X connect 2 0 6 0;
#X connect 3 0 8 0;
#X connect 4 0 9 0;
