#N canvas 2816 176 901 772 10;
#X obj -436 337 *~;
#X obj -310 180 - 1;
#X obj -310 209 * -1;
#X obj -291 334 *~;
#X obj -436 445 outlet~ L;
#X obj -291 445 outlet~ R;
#X obj -436 -101 inlet~ signal;
#X obj 147 306 hsl 64 15 0 1 0 0 empty empty empty -2 -8 0 10 -262144
-1 -1 0 1;
#X text 100 100 In;
#X text 168 292 Pan;
#X text 133 305 L;
#X text 217 305 R;
#X obj -46 -101 inlet pan;
#X text -413 336 L;
#X text -265 333 R;
#X floatatom 164 324 5 0 0 0 - - -;
#X obj -436 144 *~;
#X text 241 100 Pan;
#X obj 190 142 vsl 14 118 0 2 0 0 empty empty empty 0 -9 0 10 -262144
-1 -1 0 1;
#X obj 132 142 vu 15 120 empty empty -1 -8 0 10 -66577 -1 1 0;
#X text 101 380 Out L;
#X text 229 380 Out R;
#X obj 34 -26 loadbang;
#X msg 34 34 0.5;
#X obj -404 312 sig~;
#X obj -259 305 sig~;
#X obj -421 122 line~;
#X obj -421 99 \$1 20;
#X floatatom -261 145 5 0 0 0 - - -;
#X obj -261 99 \$1 20;
#X obj -261 122 line;
#X obj -46 21 change;
#X obj -46 49 f;
#X obj 34 4 t b b;
#X msg -46 70 set \$1;
#X obj -46 -64 expr if($f1 > 0 \, $f1 \, 0);
#X obj -368 171 env~;
#X obj -368 193 - 100;
#X text 205 194 0dB;
#X floatatom 191 271 5 0 0 0 - - -;
#X text 205 179 +2dB;
#X text 205 139 +6dB;
#X text 205 208 -2dB;
#X text 205 224 -6dB;
#X text 205 249 -20dB;
#X text 184 122 Gain;
#X text -490 620 _;
#X msg 288 255 set \$1;
#X msg 290 308 set \$1;
#X obj 102 344 cnv 15 160 29 empty empty Channel_Strip 20 12 0 14 -233017
-66577 0;
#X text 121 100 G(Lin);
#X obj -250 -69 else/db2lin;
#X obj -346 -101 inlet gain-lin;
#X text 386 -203 _;
#X obj -250 -101 inlet gain-db;
#X text 163 100 G(dB);
#X obj -150 -101 inlet~ sig-gain;
#N canvas 558 57 450 300 snapshotter 0;
#X obj 80 30 inlet~;
#X obj 80 180 outlet~;
#X obj 190 210 outlet;
#X obj 190 140 snapshot~;
#X obj 190 30 loadbang;
#X msg 190 55 1;
#X obj 190 80 metro 5;
#X text 20 230 this facilitates a control-rate reading of the signal-rate
inlet for gain control \, for display purposes.;
#X obj 190 165 change;
#X connect 0 0 1 0;
#X connect 0 0 3 0;
#X connect 3 0 8 0;
#X connect 4 0 5 0;
#X connect 5 0 6 0;
#X connect 6 0 3 0;
#X connect 8 0 2 0;
#X restore -150 -67 pd snapshotter;
#X obj 289 283 cyclone/atodb;
#X text 199 100 G(sig);
#X obj 288 231 else/db2lin;
#X connect 0 0 4 0;
#X connect 1 0 2 0;
#X connect 2 0 24 0;
#X connect 3 0 5 0;
#X connect 6 0 16 0;
#X connect 7 0 15 0;
#X connect 7 0 29 0;
#X connect 12 0 35 0;
#X connect 16 0 0 0;
#X connect 16 0 3 0;
#X connect 16 0 36 0;
#X connect 18 0 27 0;
#X connect 18 0 58 0;
#X connect 22 0 33 0;
#X connect 23 0 7 0;
#X connect 24 0 0 1;
#X connect 25 0 3 1;
#X connect 26 0 16 1;
#X connect 27 0 26 0;
#X connect 28 0 1 0;
#X connect 28 0 25 0;
#X connect 29 0 30 0;
#X connect 30 0 28 0;
#X connect 31 0 32 0;
#X connect 32 0 34 0;
#X connect 33 0 23 0;
#X connect 33 1 32 0;
#X connect 34 0 7 0;
#X connect 35 0 31 0;
#X connect 36 0 37 0;
#X connect 37 0 19 0;
#X connect 39 0 60 0;
#X connect 47 0 18 0;
#X connect 48 0 39 0;
#X connect 51 0 18 0;
#X connect 52 0 18 0;
#X connect 54 0 51 0;
#X connect 56 0 57 0;
#X connect 57 0 0 1;
#X connect 57 0 3 1;
#X connect 57 1 18 0;
#X connect 58 0 48 0;
#X connect 60 0 29 0;
#X connect 60 0 27 0;
#X connect 60 0 47 0;
#X coords 0 -1 1 1 164 297 2 100 100;
