#N canvas 1847 -65 604 681 10;
#X obj 30 180 vsl 14 118 0 2 0 0 empty empty empty 0 -9 0 10 #fcfcfc
#000000 #000000 0 1;
#X text 45 177 +6dB;
#X text 45 246 -2dB;
#X text 45 262 -6dB;
#X text 45 284 -20dB;
#X floatatom 30 420 5 0 0 0 - - -, f 5;
#X obj 30 360 expr log10($f1) * 20;
#X text 50 297 inf;
#X obj 400 360 expr pow(10 \, $f1/20);
#X floatatom 400 420 5 0 0 0 - - -, f 5;
#X text 16 -126 Travis Houldcroft || travishouldcroft.com;
#X obj 0 -160 cnv 15 599 30 empty empty tdh.abstraction-name 20 12
0 14 #e0e0e0 #404040 0;
#X obj 0 -102 cnv 8 598 8 empty empty Inlets 20 15 0 14 #e0e0e0 #404040
0;
#X text 20 -73 0;
#X text 42 -73 -;
#X obj 0 -32 cnv 8 598 8 empty empty Outlets 20 15 0 14 #e0e0e0 #404040
0;
#X text 20 -3 0;
#X text 42 -3 -;
#X obj 0 28 cnv 8 599 8 empty empty Note 20 15 0 14 #e0e0e0 #404040
0;
#X text 18 60 Notes;
#X text 64 -73 (type) inlet description;
#X text 64 -3 (type) outlet description;
#X obj 0 90 cnv 4 598 4 empty empty empty 20 12 0 14 #e0e0e0 #404040
0;
#X obj 30 110 inlet;
#X text 70 110 Linear Scale Gain (0.0-2 0);
#X text 46 150 dBFS;
#X text 46 150 ____;
#X text 6 150 lin;
#X text 6 150 ___;
#X text 11 177 2;
#X floatatom 30 330 5 0 0 0 - - -, f 5;
#X text 12 232 1;
#X text 13 298 0;
#X text 7 262 0.5;
#X text 2 285 0.09;
#X text 7 246 0.7;
#X text 46 207 +3dB;
#X text 6 206 1.5;
#X text 70 420 Gain dBFS;
#X text 70 330 Gain Linear;
#X text 166 360 d = log10(l) * 20;
#X text 215 388 d = gain in dBFS;
#X text 215 408 l = gain in linear scale;
#X text 309 360 l = 10^(d/20);
#X obj 400 110 inlet;
#X text 441 110 Gain in dBFS;
#X obj 400 170 vu 15 120 empty empty -1 -8 0 10 #404040 #000000 1 0
;
#X text 45 232 -0dB;
#X obj 30 470 outlet;
#X obj 400 464 outlet;
#X text 437 420 Gain in linear;
#X connect 0 0 30 0;
#X connect 5 0 48 0;
#X connect 6 0 5 0;
#X connect 8 0 9 0;
#X connect 9 0 49 0;
#X connect 23 0 0 0;
#X connect 30 0 6 0;
#X connect 44 0 46 0;
#X connect 46 0 8 0;
