#N canvas 516 94 1262 865 10;
#X obj -333 -42 inlet~;
#X obj -43 -42 inlet offset;
#X obj -203 -42 inlet drive;
#X obj -113 140 clip 0 1;
#X msg -113 189 10 \$1;
#X obj -112 214 pow;
#X obj -113 166 * 2;
#X obj -225 345 *~;
#X obj -240 367 *~;
#X obj -255 412 -~;
#X obj -240 389 /~ 3;
#X obj -255 436 hip~ 5;
#X obj -333 885 outlet~;
#X obj -255 305 clip~ -1 1;
#X obj -255 456 hip~ 5;
#X obj -255 526 lop~;
#X obj -173 463 samplerate~;
#X obj -255 148 +~ 0.25;
#X obj -173 438 loadbang;
#X obj -255 277 *~ 1;
#X obj 156 -42 block~ 64 1 2;
#X obj -174 485 * 0.5;
#X text -645 -40 tdh.sigproc.overdrive~.pd;
#X text -644 -52 Soft Clipping Overdrive;
#X obj -162 746 hsl 64 15 0 1 0 0 empty empty empty -2 -8 0 10 -262144
-1 -1 0 1;
#X obj -333 826 *~;
#X obj -165 765 - 1;
#X obj -165 787 * -1;
#X obj -255 826 *~;
#X obj 239 139 hsl 64 15 0 1 0 0 empty empty empty 70 7 0 10 -262144
-1 -1 0 1;
#X text -385 825 Dry Sig;
#X text -306 825 Wet Sig;
#X floatatom 273 156 5 0 0 0 - - -, f 5;
#X text 304 138 Dry/Wet;
#X floatatom 132 139 5 0 0 1 Drive - -, f 5;
#X floatatom 132 156 5 0.08 0.1 1 Offset - -, f 5;
#X floatatom -216 122 5 0 0 0 - - -, f 5;
#X floatatom -113 121 5 0 0 0 - - -, f 5;
#X text -182 121 Drive;
#X text -79 120 Offset;
#X obj 249 -71 loadbang;
#X msg 284 74 0.08;
#X text -632 48 http://steffen.menneske.dk/;
#X text -642 34 99% of this code is by Pulsed:;
#X text -632 59 http://www.pdpatchrepo.info/hurleur/overdrive.pd;
#X text -637 -11 Drive (0. - 1.);
#X text -637 2 Offset (keep at 0.08-0.1);
#X text 152 824 slp@2009;
#X text 152 840 TDH rev. 2014;
#X text 117 118 Soft-Clipping Overdrive;
#X obj 249 -43 f \$1;
#X obj 284 -42 f \$2;
#X obj 284 26 expr if ($f1 == 0 \, $f1 \, 0);
#X obj 284 50 sel 0;
#X obj 284 1 t f f;
#X text 328 44 If the offset argument is set to 0 (or not at all) \,
then set Offset to 0.08 (the recommended setting), f 31;
#X text -643 -24 Arguments/Parameters:;
#X text 174 100 Drv;
#X text 246 100 Offst;
#X text 100 185 Out;
#X text 100 100 Sig;
#X obj -203 -20 change;
#X obj -43 -20 change;
#X obj 135 173 hsl 64 15 0 1 0 0 empty empty Tone 68 8 0 10 -262144
-1 -1 0 1;
#X obj -255 688 lop~;
#N canvas 0 22 450 300 tone_control 0;
#X obj 117 33 inlet;
#X obj 117 55 * 19960;
#X obj 117 77 + 40;
#X obj 117 143 outlet;
#X msg 117 99 \$1 10;
#X obj 117 121 line 20 10;
#X connect 0 0 1 0;
#X connect 1 0 2 0;
#X connect 2 0 4 0;
#X connect 4 0 5 0;
#X connect 5 0 3 0;
#X restore -234 664 pd tone_control;
#X text -92 744 Dry/Wet;
#X text -644 79 GUI \, Dry/Wet Mix \, Tone Control by TDH!;
#X obj 324 -42 f \$3;
#X obj 47 -20 change;
#X obj 47 -42 inlet tone;
#X msg 47 2 set \$1;
#X text 322 100 Tone;
#X obj 502 -48 inlet dry_wet;
#X connect 0 0 17 0;
#X connect 0 0 25 0;
#X connect 1 0 62 0;
#X connect 2 0 61 0;
#X connect 3 0 6 0;
#X connect 4 0 5 0;
#X connect 5 0 19 1;
#X connect 6 0 4 0;
#X connect 7 0 8 1;
#X connect 8 0 10 0;
#X connect 9 0 11 0;
#X connect 10 0 9 1;
#X connect 11 0 14 0;
#X connect 13 0 7 0;
#X connect 13 0 7 1;
#X connect 13 0 8 0;
#X connect 13 0 9 0;
#X connect 14 0 15 0;
#X connect 15 0 64 0;
#X connect 16 0 21 0;
#X connect 17 0 19 0;
#X connect 18 0 16 0;
#X connect 19 0 13 0;
#X connect 21 0 15 1;
#X connect 24 0 26 0;
#X connect 24 0 28 1;
#X connect 25 0 12 0;
#X connect 26 0 27 0;
#X connect 27 0 25 1;
#X connect 28 0 12 0;
#X connect 29 0 24 0;
#X connect 29 0 32 0;
#X connect 34 0 37 0;
#X connect 35 0 36 0;
#X connect 36 0 17 1;
#X connect 37 0 3 0;
#X connect 40 0 50 0;
#X connect 40 0 51 0;
#X connect 41 0 35 0;
#X connect 50 0 34 0;
#X connect 51 0 54 0;
#X connect 52 0 53 0;
#X connect 53 0 41 0;
#X connect 54 0 52 0;
#X connect 54 1 35 0;
#X connect 61 0 34 0;
#X connect 62 0 35 0;
#X connect 63 0 65 0;
#X connect 64 0 28 0;
#X connect 65 0 64 1;
#X connect 69 0 71 0;
#X connect 70 0 69 0;
#X connect 71 0 63 0;
#X connect 73 0 29 0;
#X coords 0 -1 1 1 250 100 2 100 100;
