#N canvas 25 23 1254 755 10;
#X obj -335 659 osc~;
#X obj -335 711 *~;
#X floatatom -335 286 5 0 0 1 Carr.Freq - -;
#X floatatom -128 286 5 0 0 1 Carr.Amp. - -;
#X obj 40 473 osc~;
#X floatatom 40 286 5 0 0 1 Mod.Freq. - -;
#X floatatom 210 286 5 0 0 1 Mod.Amp. - -;
#X obj -335 628 +~;
#X obj -335 812 outlet~;
#X obj 137 35 loadbang;
#X obj 137 64 f \$1;
#X text -626 66 Arguments:;
#X text -626 -17 Two-Operator FM Synth;
#X text -624 21 Travis Houldcroft;
#X text -625 34 thouldcroft@gmail.com;
#X text -625 46 travishouldcroft.com;
#X text -617 80 1: carrier freq.;
#X text -617 91 2: carrier amp.;
#X text -617 103 3: modulator freq.;
#X obj 168 64 f \$2;
#X obj 200 64 f \$3;
#X obj 231 64 f \$4;
#X text -617 115 4: modulator amp. (deviation);
#X text -626 -6 tdh.synth.2op.fm~.pd;
#X floatatom 138 127 5 0 0 1 Carr.Freq. - -;
#X floatatom 138 147 5 0 1 1 Carr.Amp. - -;
#X floatatom 240 128 5 0 0 1 Mod.Freq. - -;
#X floatatom 240 148 5 0 0 1 Mod.Amp. - -;
#X text 245 -17 Modulation inputs -----------------------------;
#X obj 381 4 inlet~ carr_amp_mod;
#X obj 507 4 inlet~ mod_freq_mod;
#X obj 246 4 inlet~ carr_freq_mod;
#X obj 635 4 inlet~ mod_amp_mod;
#X text -391 -17 Oscillator settings inputs -----------------------------
;
#X obj 381 26 s~ carr_amp_mod-\$0;
#X obj 507 26 s~ mod_freq_mod-\$0;
#X obj 635 26 s~ mod_amp_mod-\$0;
#X obj -320 447 r~ carr_freq_mod-\$0;
#X obj -112 448 r~ carr_amp_mod-\$0;
#X obj 55 344 r~ mod_freq_mod-\$0;
#X obj 225 343 r~ mod_amp_mod-\$0;
#X obj 246 26 s~ carr_freq_mod-\$0;
#X obj -40 4 inlet gain;
#X obj 261 64 f \$5;
#X text -617 127 5: Voice gain;
#X obj -335 550 +~;
#X obj -128 552 *~;
#X obj -294 476 loadbang;
#X obj -294 520 sig~;
#X msg -294 498 0;
#X obj -68 476 loadbang;
#X obj -68 520 sig~;
#X msg -68 498 1;
#X obj 40 442 +~;
#X obj 83 368 loadbang;
#X obj 83 412 sig~;
#X obj 267 368 loadbang;
#X obj 267 412 sig~;
#X msg 267 390 1;
#X obj -335 355 sig~;
#X obj -128 355 sig~;
#X obj 40 313 sig~;
#X obj 210 313 sig~;
#X obj 40 573 *~;
#X msg 83 390 0;
#X obj 210 435 *~;
#X text 101 103 Cf;
#X text 125 103 Ca;
#X text 156 103 Mf;
#X text 186 103 Ma;
#X text 216 103 Ga;
#X text 241 103 CfM;
#X text 273 103 CaM;
#X text 303 103 MfM;
#X text 327 103 MaM;
#X text 100 192 Out;
#X obj -427 4 inlet carr_freq;
#X obj -325 4 inlet carr_amp;
#X obj -229 4 inlet mod_freq;
#X obj -133 4 inlet mod_amp;
#X obj -427 26 change;
#X obj -325 26 change;
#X obj -229 26 change;
#X obj -133 26 change;
#X obj -39 26 change;
#X obj -335 741 lop~ 15000;
#X obj 100 167 cnv 15 248 23 empty empty 2\\\ Operator\\\ FM\\\ Synth\\\ Module
20 12 0 14 -233017 -66577 0;
#X text 294 64 Args: Carrier Freq \, Carrier Amp \, Modulator Freq
\, Modulator Amp, f 33;
#X connect 0 0 1 0;
#X connect 1 0 85 0;
#X connect 2 0 59 0;
#X connect 3 0 60 0;
#X connect 4 0 63 0;
#X connect 5 0 61 0;
#X connect 6 0 62 0;
#X connect 7 0 0 0;
#X connect 9 0 10 0;
#X connect 9 0 19 0;
#X connect 9 0 20 0;
#X connect 9 0 21 0;
#X connect 9 0 43 0;
#X connect 10 0 24 0;
#X connect 19 0 25 0;
#X connect 20 0 26 0;
#X connect 21 0 27 0;
#X connect 24 0 2 0;
#X connect 25 0 3 0;
#X connect 26 0 5 0;
#X connect 27 0 6 0;
#X connect 29 0 34 0;
#X connect 30 0 35 0;
#X connect 31 0 41 0;
#X connect 32 0 36 0;
#X connect 37 0 45 1;
#X connect 38 0 46 1;
#X connect 39 0 53 1;
#X connect 40 0 65 1;
#X connect 42 0 84 0;
#X connect 45 0 7 0;
#X connect 46 0 1 1;
#X connect 47 0 49 0;
#X connect 48 0 45 1;
#X connect 49 0 48 0;
#X connect 50 0 52 0;
#X connect 51 0 46 1;
#X connect 52 0 51 0;
#X connect 53 0 4 0;
#X connect 54 0 64 0;
#X connect 55 0 53 1;
#X connect 56 0 58 0;
#X connect 57 0 65 1;
#X connect 58 0 57 0;
#X connect 59 0 45 0;
#X connect 60 0 46 0;
#X connect 61 0 53 0;
#X connect 62 0 65 0;
#X connect 63 0 7 1;
#X connect 64 0 55 0;
#X connect 65 0 63 1;
#X connect 76 0 80 0;
#X connect 77 0 81 0;
#X connect 78 0 82 0;
#X connect 79 0 83 0;
#X connect 80 0 24 0;
#X connect 81 0 25 0;
#X connect 82 0 26 0;
#X connect 83 0 27 0;
#X connect 85 0 8 0;
#X coords 0 -1 1 1 250 111 2 100 100;
