#N canvas 612 255 834 506 10;
#X obj -48 78 inlet freq;
#X obj -204 78 inlet~ signal;
#X obj 31 78 inlet amp;
#X obj -31 334 hsl 64 15 0 1 0 0 empty empty empty -2 -8 0 10 -262144
-1 -1 0 1;
#X obj -204 427 *~;
#X obj -34 362 - 1;
#X obj -34 384 * -1;
#X obj -119 430 *~;
#X obj 133 174 hsl 64 15 0 1 0 0 empty empty empty 70 7 0 10 -262144
-1 -1 0 1;
#X text -181 428 Dry Sig;
#X obj -117 332 *~;
#X text -93 430 Wet Sig;
#X obj -102 252 osc~;
#X floatatom -102 221 5 0 0 0 - - -, f 5;
#X floatatom 130 140 5 0 0 1 Freq - -, f 5;
#X obj -102 288 *~;
#X floatatom -63 251 5 0 0 0 - - -, f 5;
#X floatatom 130 157 5 0 0 1 Amp - -, f 5;
#X obj -204 477 outlet~ signal;
#X text -414 150 Arguments:;
#X text -412 105 Travis Houldcroft;
#X text -413 118 thouldcroft@gmail.com;
#X text -413 130 travishouldcroft.com;
#X text -414 67 Ring Modulation;
#X text -414 78 tdh.sigproc.ringmod~.pd;
#X floatatom 202 174 5 0 0 0 - - -, f 5;
#X text 234 173 Dry/Wet;
#X text 117 115 Ring Modulator;
#X obj 130 56 loadbang;
#X obj 130 78 f \$1;
#X obj 166 78 f \$2;
#X text 198 79 Args;
#X text 100 101 Sig;
#X text 210 101 Freq;
#X text 328 101 Amp;
#X text 100 184 Out;
#X text -395 164 1: Modulator Frequency;
#X text -395 175 2: Modulator Amplitude;
#X obj -48 100 change;
#X obj 31 100 change;
#X obj 305 62 inlet drywet;
#X connect 0 0 38 0;
#X connect 1 0 4 0;
#X connect 1 0 10 0;
#X connect 2 0 39 0;
#X connect 3 0 5 0;
#X connect 3 0 7 1;
#X connect 4 0 18 0;
#X connect 5 0 6 0;
#X connect 6 0 4 1;
#X connect 7 0 18 0;
#X connect 8 0 3 0;
#X connect 10 0 7 0;
#X connect 12 0 15 0;
#X connect 13 0 12 0;
#X connect 14 0 13 0;
#X connect 15 0 10 1;
#X connect 16 0 15 1;
#X connect 17 0 16 0;
#X connect 28 0 29 0;
#X connect 28 0 30 0;
#X connect 29 0 14 0;
#X connect 30 0 17 0;
#X connect 38 0 14 0;
#X connect 39 0 17 0;
#X connect 40 0 8 0;
#X coords 0 -1 1 1 250 100 2 100 100;
