#N canvas 3065 410 658 446 10;
#X obj 93 131 + 1;
#X obj 56 130 f 0;
#X obj 55 35 inlet;
#X obj 275 35 inlet;
#X msg 275 59 0;
#X obj 75 172 %;
#X obj 188 34 inlet;
#X obj 118 35 inlet;
#X obj 56 238 outlet;
#X obj 117 73 f;
#X obj 119 198 sel;
#X text 151 196 bang if max is reached \, outputs min to start counter
over;
#X text 387 40 WORK IN PROGRESS;
#X connect 0 0 1 1;
#X connect 1 0 5 0;
#X connect 2 0 1 0;
#X connect 3 0 4 0;
#X connect 4 0 1 1;
#X connect 5 0 0 0;
#X connect 5 0 8 0;
#X connect 5 0 10 0;
#X connect 6 0 5 1;
#X connect 6 0 10 1;
#X connect 7 0 1 1;
#X connect 7 0 9 1;
#X connect 10 0 9 0;
