#N canvas 873 501 754 502 10;
#X obj -28 306 rev3~, f 19;
#N canvas 0 22 450 300 scale120 0;
#X obj 235 75 inlet;
#X obj 235 107 * 120;
#X obj 235 129 outlet;
#X connect 0 0 1 0;
#X connect 1 0 2 0;
#X restore 16 251 pd scale120;
#X obj -169 20 inlet~ in1;
#X obj -83 20 inlet~ in2;
#X obj 133 20 inlet level;
#X obj 210 20 inlet liveness;
#X obj 302 20 inlet freq;
#X obj 369 20 inlet damp;
#X obj 133 42 change;
#X obj 210 42 change;
#X obj 302 42 change;
#X obj 369 42 change;
#X obj -165 420 outlet~ out1;
#X obj -78 420 outlet~ out2;
#X text 100 219 Out 1;
#X text 390 220 Out 2;
#X text 100 101 In 1;
#X text 146 101 In 2;
#X text 300 101 DmpFrq;
#X obj 146 138 hsl 128 15 0 1 0 0 empty empty empty -2 -8 0 10 -262144
-1 -1 0 1;
#X floatatom 282 138 5 0 0 1 RevLevel(Lin) - -, f 5;
#X obj 146 155 hsl 128 15 0 100 0 0 empty empty empty -2 -8 0 10 -262144
-1 -1 0 1;
#X floatatom 282 155 5 0 0 1 Liveness(%) - -, f 5;
#X obj 146 172 hsl 128 15 0 20000 0 0 empty empty empty -2 -8 0 10
-262144 -1 -1 0 1;
#X floatatom 282 172 5 0 0 1 DampFreq(Hz) - -, f 5;
#X obj 146 189 hsl 128 15 0 100 0 0 empty empty empty -2 -8 0 10 -262144
-1 -1 0 1;
#X floatatom 282 189 5 0 0 1 HFDamp(%) - -, f 5;
#X text 250 101 Lvnss;
#X text 196 101 Level;
#X text 348 101 Dmp %;
#X obj 455 18 inlet dry_wet;
#X text 403 101 D/W;
#X obj 146 206 hsl 128 15 0 1 0 0 empty empty empty -2 -8 0 10 -262144
-1 -1 0 1;
#X floatatom 282 206 5 0 0 1 Dry/Wet - -, f 5;
#N canvas 0 22 450 300 dry_wet 0;
#X obj -328 292 outlet~;
#X obj -76 133 hsl 64 15 0 1 0 0 empty empty empty -2 -8 0 10 -262144
-1 -1 0 1;
#X floatatom -63 162 5 0 0 0 - - -, f 5;
#X obj -359 253 *~;
#X obj -78 181 - 1;
#X floatatom -61 228 5 0 0 0 - - -, f 5;
#X obj -78 203 * -1;
#X obj -281 253 *~;
#X text -411 252 Dry Sig;
#X text -332 252 Wet Sig;
#X obj -79 46 inlet dry_wet_ctrl;
#X obj -359 39 inlet~ dry;
#X obj -281 39 inlet~ wet;
#X connect 1 0 2 0;
#X connect 1 0 4 0;
#X connect 1 0 7 1;
#X connect 3 0 0 0;
#X connect 4 0 6 0;
#X connect 6 0 5 0;
#X connect 6 0 3 1;
#X connect 7 0 0 0;
#X connect 10 0 1 0;
#X connect 11 0 3 0;
#X connect 12 0 7 0;
#X restore -78 358 pd dry_wet;
#N canvas 0 22 450 300 dry_wet 0;
#X obj -328 292 outlet~;
#X obj -76 133 hsl 64 15 0 1 0 0 empty empty empty -2 -8 0 10 -262144
-1 -1 0 1;
#X floatatom -63 162 5 0 0 0 - - -, f 5;
#X obj -359 253 *~;
#X obj -78 181 - 1;
#X floatatom -61 228 5 0 0 0 - - -, f 5;
#X obj -78 203 * -1;
#X obj -281 253 *~;
#X text -411 252 Dry Sig;
#X text -332 252 Wet Sig;
#X obj -79 46 inlet dry_wet_ctrl;
#X obj -359 39 inlet~ dry;
#X obj -281 39 inlet~ wet;
#X connect 1 0 2 0;
#X connect 1 0 4 0;
#X connect 1 0 7 1;
#X connect 3 0 0 0;
#X connect 4 0 6 0;
#X connect 6 0 5 0;
#X connect 6 0 3 1;
#X connect 7 0 0 0;
#X connect 10 0 1 0;
#X connect 11 0 3 0;
#X connect 12 0 7 0;
#X restore -165 359 pd dry_wet;
#X text 124 117 Reverb;
#X connect 0 0 35 1;
#X connect 0 1 34 1;
#X connect 1 0 0 2;
#X connect 2 0 0 0;
#X connect 2 0 35 0;
#X connect 3 0 0 1;
#X connect 3 0 34 0;
#X connect 4 0 8 0;
#X connect 5 0 9 0;
#X connect 6 0 10 0;
#X connect 7 0 11 0;
#X connect 8 0 19 0;
#X connect 9 0 21 0;
#X connect 10 0 23 0;
#X connect 11 0 25 0;
#X connect 19 0 20 0;
#X connect 20 0 1 0;
#X connect 21 0 22 0;
#X connect 22 0 0 3;
#X connect 23 0 24 0;
#X connect 24 0 0 4;
#X connect 25 0 26 0;
#X connect 26 0 0 5;
#X connect 30 0 32 0;
#X connect 32 0 33 0;
#X connect 33 0 34 2;
#X connect 33 0 35 2;
#X connect 34 0 13 0;
#X connect 35 0 12 0;
#X coords 0 -1 1 1 325 135 2 100 100;
