#N canvas 619 101 450 300 10;
#X obj 130 60 inlet;
#X obj 136 137 pack f f;
#X obj 202 85 loadbang;
#X obj 183 53 inlet;
#X msg 133 193 \$1 \$2;
#X msg 202 110 100;
#X obj 130 220 line;
#X obj 120 250 outlet;
#X connect 0 0 1 0;
#X connect 1 0 4 0;
#X connect 2 0 5 0;
#X connect 3 0 1 1;
#X connect 4 0 6 0;
#X connect 5 0 1 1;
#X connect 6 0 7 0;
