#N canvas 75 97 1807 952 10;
#X obj -1649 421 bng 15 250 50 0 empty empty empty 17 7 0 10 -262144
-1 -1;
#N canvas 0 22 450 300 counter 0;
#X obj 173 130 float 0;
#X obj 203 152 + 1;
#X obj 173 92 inlet;
#X obj 173 232 outlet;
#X obj 203 174 expr if($f1==8 \, 0 \, $f1);
#X connect 0 0 1 0;
#X connect 0 0 3 0;
#X connect 1 0 4 0;
#X connect 2 0 0 0;
#X connect 4 0 0 1;
#X restore -1649 444 pd counter;
#X obj -1649 375 tgl 15 0 empty empty empty 17 7 0 10 -262144 -1 -1
0 1;
#X obj -1649 400 metro 500;
#X obj -1619 506 vsl 15 128 0 127 0 0 empty empty empty 0 -9 0 10 -262144
-1 -1 0 1;
#N canvas 0 22 1232 468 num2pitch 0;
#X obj 8 11 inlet;
#X obj 8 111 mod 12;
#X obj 8 133 sel 0 1 2 3 4 5 6 7 8 9 10 11, f 136;
#X obj 917 118 / 12;
#X obj 917 140 int;
#X floatatom 947 162 5 0 0 1 DEBUG - -, f 5;
#X floatatom 28 53 5 0 0 1 DEBUG - -, f 5;
#X obj 8 319 outlet pitch;
#X msg 8 288 set \$1;
#X msg 8 155 symbol C;
#X msg 75 155 symbol C#;
#X msg 142 154 symbol D;
#X msg 209 154 symbol D#;
#X msg 278 154 symbol E;
#X msg 411 155 symbol F#;
#X msg 344 155 symbol F;
#X msg 482 155 symbol G;
#X msg 551 155 symbol G#;
#X msg 621 155 symbol A;
#X msg 691 155 symbol A#;
#X msg 771 155 symbol B;
#X obj 917 304 outlet octave;
#X msg 917 262 set \$1;
#X connect 0 0 1 0;
#X connect 0 0 6 0;
#X connect 0 0 3 0;
#X connect 1 0 2 0;
#X connect 2 0 9 0;
#X connect 2 1 10 0;
#X connect 2 2 11 0;
#X connect 2 3 12 0;
#X connect 2 4 13 0;
#X connect 2 5 15 0;
#X connect 2 6 14 0;
#X connect 2 7 16 0;
#X connect 2 8 17 0;
#X connect 2 9 18 0;
#X connect 2 10 19 0;
#X connect 2 11 20 0;
#X connect 3 0 4 0;
#X connect 4 0 5 0;
#X connect 4 0 22 0;
#X connect 8 0 7 0;
#X connect 9 0 8 0;
#X connect 10 0 8 0;
#X connect 11 0 8 0;
#X connect 12 0 8 0;
#X connect 13 0 8 0;
#X connect 14 0 8 0;
#X connect 15 0 8 0;
#X connect 16 0 8 0;
#X connect 17 0 8 0;
#X connect 18 0 8 0;
#X connect 19 0 8 0;
#X connect 20 0 8 0;
#X connect 22 0 21 0;
#X restore -1619 658 pd num2pitch;
#X msg -1608 680 C;
#X msg -1539 680 7;
#X obj -1649 658 f;
#X obj -1649 466 sel 0 1 2 3 4 5 6 7, f 208;
#X obj -1449 506 vsl 15 128 0 127 0 0 empty empty empty 0 -9 0 10 -262144
-1 -1 0 1;
#N canvas 0 22 1232 468 num2pitch 0;
#X obj 8 11 inlet;
#X obj 8 111 mod 12;
#X obj 8 133 sel 0 1 2 3 4 5 6 7 8 9 10 11, f 136;
#X obj 917 118 / 12;
#X obj 917 140 int;
#X floatatom 947 162 5 0 0 1 DEBUG - -, f 5;
#X floatatom 28 53 5 0 0 1 DEBUG - -, f 5;
#X obj 8 319 outlet pitch;
#X msg 8 288 set \$1;
#X msg 8 155 symbol C;
#X msg 75 155 symbol C#;
#X msg 142 154 symbol D;
#X msg 209 154 symbol D#;
#X msg 278 154 symbol E;
#X msg 411 155 symbol F#;
#X msg 344 155 symbol F;
#X msg 482 155 symbol G;
#X msg 551 155 symbol G#;
#X msg 621 155 symbol A;
#X msg 691 155 symbol A#;
#X msg 771 155 symbol B;
#X obj 917 304 outlet octave;
#X msg 917 262 set \$1;
#X connect 0 0 1 0;
#X connect 0 0 6 0;
#X connect 0 0 3 0;
#X connect 1 0 2 0;
#X connect 2 0 9 0;
#X connect 2 1 10 0;
#X connect 2 2 11 0;
#X connect 2 3 12 0;
#X connect 2 4 13 0;
#X connect 2 5 15 0;
#X connect 2 6 14 0;
#X connect 2 7 16 0;
#X connect 2 8 17 0;
#X connect 2 9 18 0;
#X connect 2 10 19 0;
#X connect 2 11 20 0;
#X connect 3 0 4 0;
#X connect 4 0 5 0;
#X connect 4 0 22 0;
#X connect 8 0 7 0;
#X connect 9 0 8 0;
#X connect 10 0 8 0;
#X connect 11 0 8 0;
#X connect 12 0 8 0;
#X connect 13 0 8 0;
#X connect 14 0 8 0;
#X connect 15 0 8 0;
#X connect 16 0 8 0;
#X connect 17 0 8 0;
#X connect 18 0 8 0;
#X connect 19 0 8 0;
#X connect 20 0 8 0;
#X connect 22 0 21 0;
#X restore -1449 658 pd num2pitch;
#X msg -1429 680 C;
#X msg -1360 680 2;
#X obj -1479 658 f;
#X obj -1279 506 vsl 15 128 0 127 0 0 empty empty empty 0 -9 0 10 -262144
-1 -1 0 1;
#N canvas 0 22 1232 468 num2pitch 0;
#X obj 8 11 inlet;
#X obj 8 111 mod 12;
#X obj 8 133 sel 0 1 2 3 4 5 6 7 8 9 10 11, f 136;
#X obj 917 118 / 12;
#X obj 917 140 int;
#X floatatom 947 162 5 0 0 1 DEBUG - -, f 5;
#X floatatom 28 53 5 0 0 1 DEBUG - -, f 5;
#X obj 8 319 outlet pitch;
#X msg 8 288 set \$1;
#X msg 8 155 symbol C;
#X msg 75 155 symbol C#;
#X msg 142 154 symbol D;
#X msg 209 154 symbol D#;
#X msg 278 154 symbol E;
#X msg 411 155 symbol F#;
#X msg 344 155 symbol F;
#X msg 482 155 symbol G;
#X msg 551 155 symbol G#;
#X msg 621 155 symbol A;
#X msg 691 155 symbol A#;
#X msg 771 155 symbol B;
#X obj 917 304 outlet octave;
#X msg 917 262 set \$1;
#X connect 0 0 1 0;
#X connect 0 0 6 0;
#X connect 0 0 3 0;
#X connect 1 0 2 0;
#X connect 2 0 9 0;
#X connect 2 1 10 0;
#X connect 2 2 11 0;
#X connect 2 3 12 0;
#X connect 2 4 13 0;
#X connect 2 5 15 0;
#X connect 2 6 14 0;
#X connect 2 7 16 0;
#X connect 2 8 17 0;
#X connect 2 9 18 0;
#X connect 2 10 19 0;
#X connect 2 11 20 0;
#X connect 3 0 4 0;
#X connect 4 0 5 0;
#X connect 4 0 22 0;
#X connect 8 0 7 0;
#X connect 9 0 8 0;
#X connect 10 0 8 0;
#X connect 11 0 8 0;
#X connect 12 0 8 0;
#X connect 13 0 8 0;
#X connect 14 0 8 0;
#X connect 15 0 8 0;
#X connect 16 0 8 0;
#X connect 17 0 8 0;
#X connect 18 0 8 0;
#X connect 19 0 8 0;
#X connect 20 0 8 0;
#X connect 22 0 21 0;
#X restore -1279 658 pd num2pitch;
#X msg -1259 680 D#;
#X msg -1190 680 7;
#X obj -1309 658 f;
#X obj -1109 506 vsl 15 128 0 127 0 0 empty empty empty 0 -9 0 10 -262144
-1 -1 0 1;
#N canvas 0 22 1232 468 num2pitch 0;
#X obj 8 11 inlet;
#X obj 8 111 mod 12;
#X obj 8 133 sel 0 1 2 3 4 5 6 7 8 9 10 11, f 136;
#X obj 917 118 / 12;
#X obj 917 140 int;
#X floatatom 947 162 5 0 0 1 DEBUG - -, f 5;
#X floatatom 28 53 5 0 0 1 DEBUG - -, f 5;
#X obj 8 319 outlet pitch;
#X msg 8 288 set \$1;
#X msg 8 155 symbol C;
#X msg 75 155 symbol C#;
#X msg 142 154 symbol D;
#X msg 209 154 symbol D#;
#X msg 278 154 symbol E;
#X msg 411 155 symbol F#;
#X msg 344 155 symbol F;
#X msg 482 155 symbol G;
#X msg 551 155 symbol G#;
#X msg 621 155 symbol A;
#X msg 691 155 symbol A#;
#X msg 771 155 symbol B;
#X obj 917 304 outlet octave;
#X msg 917 262 set \$1;
#X connect 0 0 1 0;
#X connect 0 0 6 0;
#X connect 0 0 3 0;
#X connect 1 0 2 0;
#X connect 2 0 9 0;
#X connect 2 1 10 0;
#X connect 2 2 11 0;
#X connect 2 3 12 0;
#X connect 2 4 13 0;
#X connect 2 5 15 0;
#X connect 2 6 14 0;
#X connect 2 7 16 0;
#X connect 2 8 17 0;
#X connect 2 9 18 0;
#X connect 2 10 19 0;
#X connect 2 11 20 0;
#X connect 3 0 4 0;
#X connect 4 0 5 0;
#X connect 4 0 22 0;
#X connect 8 0 7 0;
#X connect 9 0 8 0;
#X connect 10 0 8 0;
#X connect 11 0 8 0;
#X connect 12 0 8 0;
#X connect 13 0 8 0;
#X connect 14 0 8 0;
#X connect 15 0 8 0;
#X connect 16 0 8 0;
#X connect 17 0 8 0;
#X connect 18 0 8 0;
#X connect 19 0 8 0;
#X connect 20 0 8 0;
#X connect 22 0 21 0;
#X restore -1109 658 pd num2pitch;
#X msg -1089 680 G#;
#X msg -1020 680 8;
#X obj -1139 658 f;
#X obj -939 506 vsl 15 128 0 127 0 0 empty empty empty 0 -9 0 10 -262144
-1 -1 0 1;
#N canvas 0 22 1232 468 num2pitch 0;
#X obj 8 11 inlet;
#X obj 8 111 mod 12;
#X obj 8 133 sel 0 1 2 3 4 5 6 7 8 9 10 11, f 136;
#X obj 917 118 / 12;
#X obj 917 140 int;
#X floatatom 947 162 5 0 0 1 DEBUG - -, f 5;
#X floatatom 28 53 5 0 0 1 DEBUG - -, f 5;
#X obj 8 319 outlet pitch;
#X msg 8 288 set \$1;
#X msg 8 155 symbol C;
#X msg 75 155 symbol C#;
#X msg 142 154 symbol D;
#X msg 209 154 symbol D#;
#X msg 278 154 symbol E;
#X msg 411 155 symbol F#;
#X msg 344 155 symbol F;
#X msg 482 155 symbol G;
#X msg 551 155 symbol G#;
#X msg 621 155 symbol A;
#X msg 691 155 symbol A#;
#X msg 771 155 symbol B;
#X obj 917 304 outlet octave;
#X msg 917 262 set \$1;
#X connect 0 0 1 0;
#X connect 0 0 6 0;
#X connect 0 0 3 0;
#X connect 1 0 2 0;
#X connect 2 0 9 0;
#X connect 2 1 10 0;
#X connect 2 2 11 0;
#X connect 2 3 12 0;
#X connect 2 4 13 0;
#X connect 2 5 15 0;
#X connect 2 6 14 0;
#X connect 2 7 16 0;
#X connect 2 8 17 0;
#X connect 2 9 18 0;
#X connect 2 10 19 0;
#X connect 2 11 20 0;
#X connect 3 0 4 0;
#X connect 4 0 5 0;
#X connect 4 0 22 0;
#X connect 8 0 7 0;
#X connect 9 0 8 0;
#X connect 10 0 8 0;
#X connect 11 0 8 0;
#X connect 12 0 8 0;
#X connect 13 0 8 0;
#X connect 14 0 8 0;
#X connect 15 0 8 0;
#X connect 16 0 8 0;
#X connect 17 0 8 0;
#X connect 18 0 8 0;
#X connect 19 0 8 0;
#X connect 20 0 8 0;
#X connect 22 0 21 0;
#X restore -939 658 pd num2pitch;
#X msg -919 680 F#;
#X msg -850 680 4;
#X obj -969 658 f;
#X obj -769 506 vsl 15 128 0 127 0 0 empty empty empty 0 -9 0 10 -262144
-1 -1 0 1;
#N canvas 0 22 1232 468 num2pitch 0;
#X obj 8 11 inlet;
#X obj 8 111 mod 12;
#X obj 8 133 sel 0 1 2 3 4 5 6 7 8 9 10 11, f 136;
#X obj 917 118 / 12;
#X obj 917 140 int;
#X floatatom 947 162 5 0 0 1 DEBUG - -, f 5;
#X floatatom 28 53 5 0 0 1 DEBUG - -, f 5;
#X obj 8 319 outlet pitch;
#X msg 8 288 set \$1;
#X msg 8 155 symbol C;
#X msg 75 155 symbol C#;
#X msg 142 154 symbol D;
#X msg 209 154 symbol D#;
#X msg 278 154 symbol E;
#X msg 411 155 symbol F#;
#X msg 344 155 symbol F;
#X msg 482 155 symbol G;
#X msg 551 155 symbol G#;
#X msg 621 155 symbol A;
#X msg 691 155 symbol A#;
#X msg 771 155 symbol B;
#X obj 917 304 outlet octave;
#X msg 917 262 set \$1;
#X connect 0 0 1 0;
#X connect 0 0 6 0;
#X connect 0 0 3 0;
#X connect 1 0 2 0;
#X connect 2 0 9 0;
#X connect 2 1 10 0;
#X connect 2 2 11 0;
#X connect 2 3 12 0;
#X connect 2 4 13 0;
#X connect 2 5 15 0;
#X connect 2 6 14 0;
#X connect 2 7 16 0;
#X connect 2 8 17 0;
#X connect 2 9 18 0;
#X connect 2 10 19 0;
#X connect 2 11 20 0;
#X connect 3 0 4 0;
#X connect 4 0 5 0;
#X connect 4 0 22 0;
#X connect 8 0 7 0;
#X connect 9 0 8 0;
#X connect 10 0 8 0;
#X connect 11 0 8 0;
#X connect 12 0 8 0;
#X connect 13 0 8 0;
#X connect 14 0 8 0;
#X connect 15 0 8 0;
#X connect 16 0 8 0;
#X connect 17 0 8 0;
#X connect 18 0 8 0;
#X connect 19 0 8 0;
#X connect 20 0 8 0;
#X connect 22 0 21 0;
#X restore -769 658 pd num2pitch;
#X msg -749 680 D;
#X msg -680 680 6;
#X obj -799 658 f;
#X obj -599 506 vsl 15 128 0 127 0 0 empty empty empty 0 -9 0 10 -262144
-1 -1 0 1;
#N canvas 0 22 1232 468 num2pitch 0;
#X obj 8 11 inlet;
#X obj 8 111 mod 12;
#X obj 8 133 sel 0 1 2 3 4 5 6 7 8 9 10 11, f 136;
#X obj 917 118 / 12;
#X obj 917 140 int;
#X floatatom 947 162 5 0 0 1 DEBUG - -, f 5;
#X floatatom 28 53 5 0 0 1 DEBUG - -, f 5;
#X obj 8 319 outlet pitch;
#X msg 8 288 set \$1;
#X msg 8 155 symbol C;
#X msg 75 155 symbol C#;
#X msg 142 154 symbol D;
#X msg 209 154 symbol D#;
#X msg 278 154 symbol E;
#X msg 411 155 symbol F#;
#X msg 344 155 symbol F;
#X msg 482 155 symbol G;
#X msg 551 155 symbol G#;
#X msg 621 155 symbol A;
#X msg 691 155 symbol A#;
#X msg 771 155 symbol B;
#X obj 917 304 outlet octave;
#X msg 917 262 set \$1;
#X connect 0 0 1 0;
#X connect 0 0 6 0;
#X connect 0 0 3 0;
#X connect 1 0 2 0;
#X connect 2 0 9 0;
#X connect 2 1 10 0;
#X connect 2 2 11 0;
#X connect 2 3 12 0;
#X connect 2 4 13 0;
#X connect 2 5 15 0;
#X connect 2 6 14 0;
#X connect 2 7 16 0;
#X connect 2 8 17 0;
#X connect 2 9 18 0;
#X connect 2 10 19 0;
#X connect 2 11 20 0;
#X connect 3 0 4 0;
#X connect 4 0 5 0;
#X connect 4 0 22 0;
#X connect 8 0 7 0;
#X connect 9 0 8 0;
#X connect 10 0 8 0;
#X connect 11 0 8 0;
#X connect 12 0 8 0;
#X connect 13 0 8 0;
#X connect 14 0 8 0;
#X connect 15 0 8 0;
#X connect 16 0 8 0;
#X connect 17 0 8 0;
#X connect 18 0 8 0;
#X connect 19 0 8 0;
#X connect 20 0 8 0;
#X connect 22 0 21 0;
#X restore -599 658 pd num2pitch;
#X msg -579 680 C#;
#X msg -510 680 9;
#X obj -629 658 f;
#X obj -429 506 vsl 15 128 0 127 0 0 empty empty empty 0 -9 0 10 -262144
-1 -1 0 1;
#N canvas 0 22 1232 468 num2pitch 0;
#X obj 8 11 inlet;
#X obj 8 111 mod 12;
#X obj 8 133 sel 0 1 2 3 4 5 6 7 8 9 10 11, f 136;
#X obj 917 118 / 12;
#X obj 917 140 int;
#X floatatom 947 162 5 0 0 1 DEBUG - -, f 5;
#X floatatom 28 53 5 0 0 1 DEBUG - -, f 5;
#X obj 8 319 outlet pitch;
#X msg 8 288 set \$1;
#X msg 8 155 symbol C;
#X msg 75 155 symbol C#;
#X msg 142 154 symbol D;
#X msg 209 154 symbol D#;
#X msg 278 154 symbol E;
#X msg 411 155 symbol F#;
#X msg 344 155 symbol F;
#X msg 482 155 symbol G;
#X msg 551 155 symbol G#;
#X msg 621 155 symbol A;
#X msg 691 155 symbol A#;
#X msg 771 155 symbol B;
#X obj 917 304 outlet octave;
#X msg 917 262 set \$1;
#X connect 0 0 1 0;
#X connect 0 0 6 0;
#X connect 0 0 3 0;
#X connect 1 0 2 0;
#X connect 2 0 9 0;
#X connect 2 1 10 0;
#X connect 2 2 11 0;
#X connect 2 3 12 0;
#X connect 2 4 13 0;
#X connect 2 5 15 0;
#X connect 2 6 14 0;
#X connect 2 7 16 0;
#X connect 2 8 17 0;
#X connect 2 9 18 0;
#X connect 2 10 19 0;
#X connect 2 11 20 0;
#X connect 3 0 4 0;
#X connect 4 0 5 0;
#X connect 4 0 22 0;
#X connect 8 0 7 0;
#X connect 9 0 8 0;
#X connect 10 0 8 0;
#X connect 11 0 8 0;
#X connect 12 0 8 0;
#X connect 13 0 8 0;
#X connect 14 0 8 0;
#X connect 15 0 8 0;
#X connect 16 0 8 0;
#X connect 17 0 8 0;
#X connect 18 0 8 0;
#X connect 19 0 8 0;
#X connect 20 0 8 0;
#X connect 22 0 21 0;
#X restore -429 658 pd num2pitch;
#X msg -409 680 A;
#X msg -340 680 8;
#X obj -459 658 f;
#X obj -1641 683 bng 15 250 50 0 empty empty empty 17 7 0 10 -262144
-1 -1;
#X obj -1471 683 bng 15 250 50 0 empty empty empty 17 7 0 10 -262144
-1 -1;
#X obj -1301 683 bng 15 250 50 0 empty empty empty 17 7 0 10 -262144
-1 -1;
#X obj -1131 683 bng 15 250 50 0 empty empty empty 17 7 0 10 -262144
-1 -1;
#X obj -961 683 bng 15 250 50 0 empty empty empty 17 7 0 10 -262144
-1 -1;
#X obj -791 683 bng 15 250 50 0 empty empty empty 17 7 0 10 -262144
-1 -1;
#X obj -621 683 bng 15 250 50 0 empty empty empty 17 7 0 10 -262144
-1 -1;
#X obj -451 683 bng 15 250 50 0 empty empty empty 17 7 0 10 -262144
-1 -1;
#X obj -1816 770 mtof;
#X obj -1898 23 inlet~ sig;
#X obj -825 23 inlet clock_on;
#X obj -604 23 inlet step1;
#X obj -604 46 change;
#X obj -825 46 change;
#X obj -665 23 inlet q;
#X obj -665 46 change;
#X obj -524 46 change;
#X obj -444 23 inlet step1;
#X obj -444 46 change;
#X obj -364 23 inlet step1;
#X obj -364 46 change;
#X obj -284 23 inlet step1;
#X obj -284 46 change;
#X obj -204 23 inlet step1;
#X obj -204 46 change;
#X obj -124 23 inlet step1;
#X obj -124 46 change;
#X obj -44 23 inlet step1;
#X obj -44 46 change;
#X obj -1841 968 outlet~;
#X obj 124 125 tgl 15 0 empty empty empty 17 7 0 10 -262144 -1 -1 0
1;
#X obj -735 46 change;
#X obj -735 23 inlet rate;
#X floatatom 124 144 5 0 0 0 - - -, f 5;
#X text 162 145 Rate;
#X obj -1619 968 outlet s1pch;
#X obj -1534 968 outlet s1oct;
#X obj -1349 968 outlet s1pch;
#X obj -1264 968 outlet s1oct;
#X obj -1079 968 outlet s1pch;
#X obj -994 968 outlet s1oct;
#X obj -809 968 outlet s1pch;
#X obj -724 968 outlet s1oct;
#X obj -539 968 outlet s1pch;
#X obj -454 968 outlet s1oct;
#X obj -269 968 outlet s1pch;
#X obj -184 968 outlet s1oct;
#X obj 1 968 outlet s1pch;
#X obj 86 968 outlet s1oct;
#X obj 271 968 outlet s1pch;
#X obj 356 968 outlet s1oct;
#X floatatom 124 164 5 0 0 0 - - -, f 5;
#X text 162 165 Q;
#X text 162 126 Clock On/Off;
#X obj 136 207 vsl 25 128 0 127 0 0 empty empty empty 0 -9 0 10 -262144
-1 -1 0 1;
#X obj 176 207 vsl 25 128 0 127 0 0 empty empty empty 0 -9 0 10 -262144
-1 -1 0 1;
#X obj 216 207 vsl 25 128 0 127 0 0 empty empty empty 0 -9 0 10 -262144
-1 -1 0 1;
#X obj 256 207 vsl 25 128 0 127 0 0 empty empty empty 0 -9 0 10 -262144
-1 -1 0 1;
#X obj 296 207 vsl 25 128 0 127 0 0 empty empty empty 0 -9 0 10 -262144
-1 -1 0 1;
#X obj 336 207 vsl 25 128 0 127 0 0 empty empty empty 0 -9 0 10 -262144
-1 -1 0 1;
#X obj 376 207 vsl 25 128 0 127 0 0 empty empty empty 0 -9 0 10 -262144
-1 -1 0 1;
#X obj 416 207 vsl 25 128 0 127 0 0 empty empty empty 0 -9 0 10 -262144
-1 -1 0 1;
#X msg 180 819 C;
#X msg 180 837 7;
#X msg 220 819 C;
#X msg 220 837 2;
#X msg 260 819 D#;
#X msg 260 837 7;
#X msg 300 819 G#;
#X msg 300 837 8;
#X msg 340 819 F#;
#X msg 340 837 4;
#X msg 380 819 D;
#X msg 380 837 6;
#X msg 420 819 C#;
#X msg 420 837 9;
#X msg 460 819 A;
#X msg 460 837 8;
#X text 100 100 In;
#X text 165 100 Rate;
#X text 208 100 Q;
#X text 243 100 S1;
#X text 280 100 S2;
#X text 317 100 S3;
#X text 354 100 S4;
#X text 392 100 S5;
#X text 428 100 S6;
#X text 465 100 S7;
#X text 500 100 S8;
#X obj -524 23 inlet step2;
#X text 124 100 On/Off;
#X obj 486 207 vsl 25 128 0 1 0 0 empty empty empty 0 -9 0 10 -262144
-1 -1 0 1;
#X obj 36 46 change;
#X obj 36 23 inlet dry_wet;
#N canvas 0 22 450 300 dry_wet 0;
#X obj -328 292 outlet~;
#X obj -76 133 hsl 64 15 0 1 0 0 empty empty empty -2 -8 0 10 -262144
-1 -1 0 1;
#X floatatom -63 162 5 0 0 0 - - -, f 5;
#X obj -359 253 *~;
#X obj -78 181 - 1;
#X floatatom -61 228 5 0 0 0 - - -, f 5;
#X obj -78 203 * -1;
#X obj -281 253 *~;
#X text -411 252 Dry Sig;
#X text -332 252 Wet Sig;
#X obj -79 46 inlet dry_wet_ctrl;
#X obj -359 39 inlet~ dry;
#X obj -281 39 inlet~ wet;
#X connect 1 0 2 0;
#X connect 1 0 4 0;
#X connect 1 0 7 1;
#X connect 3 0 0 0;
#X connect 4 0 6 0;
#X connect 6 0 5 0;
#X connect 6 0 3 1;
#X connect 7 0 0 0;
#X connect 10 0 1 0;
#X connect 11 0 3 0;
#X connect 12 0 7 0;
#X restore -1898 885 pd dry_wet;
#X text 527 100 D/W;
#X text 141 188 1;
#X text 181 188 2;
#X text 221 188 3;
#X text 261 188 4;
#X text 301 188 5;
#X text 341 188 6;
#X text 381 188 7;
#X text 421 188 8;
#X text 477 188 Dry/Wet;
#X obj -1841 796 vcf~, f 9;
#X obj -1454 969 outlet s1bng;
#X obj -1184 969 outlet s1bng;
#X obj -914 969 outlet s1bng;
#X obj -644 969 outlet s1bng;
#X obj -374 969 outlet s1bng;
#X obj -104 969 outlet s1bng;
#X obj 166 969 outlet s1bng;
#X obj 436 969 outlet s1bng;
#X text 118 385 1;
#X text 134 385 1;
#X text 154 385 1;
#X text 174 385 2;
#X text 190 385 2;
#X text 210 385 2;
#X text 228 385 3;
#X text 244 385 3;
#X text 264 385 3;
#X text 283 385 4;
#X text 299 385 4;
#X text 319 385 4;
#X text 338 385 5;
#X text 354 385 5;
#X text 374 385 5;
#X text 394 385 6;
#X text 411 385 6;
#X text 430 385 6;
#X text 450 385 7;
#X text 467 385 7;
#X text 486 385 7;
#X text 503 385 8;
#X text 520 385 8;
#X text 539 385 8;
#X text 100 385 Ou;
#X obj 141 344 bng 15 250 50 0 empty empty empty 17 7 0 10 -262144
-1 -1;
#X obj 181 344 bng 15 250 50 0 empty empty empty 17 7 0 10 -262144
-1 -1;
#X obj 221 344 bng 15 250 50 0 empty empty empty 17 7 0 10 -262144
-1 -1;
#X obj 261 344 bng 15 250 50 0 empty empty empty 17 7 0 10 -262144
-1 -1;
#X obj 301 344 bng 15 250 50 0 empty empty empty 17 7 0 10 -262144
-1 -1;
#X obj 341 344 bng 15 250 50 0 empty empty empty 17 7 0 10 -262144
-1 -1;
#X obj 381 344 bng 15 250 50 0 empty empty empty 17 7 0 10 -262144
-1 -1;
#X obj 421 344 bng 15 250 50 0 empty empty empty 17 7 0 10 -262144
-1 -1;
#X connect 0 0 1 0;
#X connect 1 0 9 0;
#X connect 2 0 3 0;
#X connect 3 0 0 0;
#X connect 4 0 5 0;
#X connect 4 0 8 1;
#X connect 5 0 6 0;
#X connect 5 0 80 0;
#X connect 5 0 107 0;
#X connect 5 1 7 0;
#X connect 5 1 81 0;
#X connect 5 1 108 0;
#X connect 8 0 45 0;
#X connect 8 0 53 0;
#X connect 9 0 8 0;
#X connect 9 1 14 0;
#X connect 9 2 19 0;
#X connect 9 3 24 0;
#X connect 9 4 29 0;
#X connect 9 5 34 0;
#X connect 9 6 39 0;
#X connect 9 7 44 0;
#X connect 10 0 11 0;
#X connect 10 0 14 1;
#X connect 11 0 12 0;
#X connect 11 0 82 0;
#X connect 11 0 109 0;
#X connect 11 1 13 0;
#X connect 11 1 83 0;
#X connect 11 1 110 0;
#X connect 14 0 46 0;
#X connect 14 0 53 0;
#X connect 15 0 16 0;
#X connect 15 0 19 1;
#X connect 16 0 17 0;
#X connect 16 0 84 0;
#X connect 16 0 111 0;
#X connect 16 1 18 0;
#X connect 16 1 85 0;
#X connect 16 1 112 0;
#X connect 19 0 47 0;
#X connect 19 0 53 0;
#X connect 20 0 21 0;
#X connect 20 0 24 1;
#X connect 21 0 22 0;
#X connect 21 0 86 0;
#X connect 21 0 113 0;
#X connect 21 1 23 0;
#X connect 21 1 87 0;
#X connect 21 1 114 0;
#X connect 24 0 48 0;
#X connect 24 0 53 0;
#X connect 25 0 26 0;
#X connect 25 0 29 1;
#X connect 26 0 27 0;
#X connect 26 0 88 0;
#X connect 26 0 115 0;
#X connect 26 1 28 0;
#X connect 26 1 89 0;
#X connect 26 1 116 0;
#X connect 29 0 49 0;
#X connect 29 0 53 0;
#X connect 30 0 31 0;
#X connect 30 0 34 1;
#X connect 31 0 32 0;
#X connect 31 0 90 0;
#X connect 31 0 117 0;
#X connect 31 1 33 0;
#X connect 31 1 91 0;
#X connect 31 1 118 0;
#X connect 34 0 50 0;
#X connect 34 0 53 0;
#X connect 35 0 36 0;
#X connect 35 0 39 1;
#X connect 36 0 37 0;
#X connect 36 0 92 0;
#X connect 36 0 119 0;
#X connect 36 1 38 0;
#X connect 36 1 93 0;
#X connect 36 1 120 0;
#X connect 39 0 51 0;
#X connect 39 0 53 0;
#X connect 40 0 41 0;
#X connect 40 0 44 1;
#X connect 41 0 42 0;
#X connect 41 0 94 0;
#X connect 41 0 121 0;
#X connect 41 1 43 0;
#X connect 41 1 95 0;
#X connect 41 1 122 0;
#X connect 44 0 52 0;
#X connect 44 0 53 0;
#X connect 45 0 151 0;
#X connect 45 0 184 0;
#X connect 46 0 185 0;
#X connect 47 0 186 0;
#X connect 48 0 187 0;
#X connect 49 0 188 0;
#X connect 50 0 189 0;
#X connect 51 0 190 0;
#X connect 52 0 191 0;
#X connect 53 0 150 1;
#X connect 54 0 139 0;
#X connect 54 0 150 0;
#X connect 55 0 58 0;
#X connect 56 0 57 0;
#X connect 57 0 99 0;
#X connect 58 0 75 0;
#X connect 59 0 60 0;
#X connect 60 0 96 0;
#X connect 61 0 100 0;
#X connect 62 0 63 0;
#X connect 63 0 101 0;
#X connect 64 0 65 0;
#X connect 65 0 102 0;
#X connect 66 0 67 0;
#X connect 67 0 103 0;
#X connect 68 0 69 0;
#X connect 69 0 104 0;
#X connect 70 0 71 0;
#X connect 71 0 105 0;
#X connect 72 0 73 0;
#X connect 73 0 106 0;
#X connect 75 0 2 0;
#X connect 76 0 78 0;
#X connect 77 0 76 0;
#X connect 78 0 3 1;
#X connect 96 0 150 2;
#X connect 99 0 4 0;
#X connect 100 0 10 0;
#X connect 101 0 15 0;
#X connect 102 0 20 0;
#X connect 103 0 25 0;
#X connect 104 0 30 0;
#X connect 105 0 35 0;
#X connect 106 0 40 0;
#X connect 134 0 61 0;
#X connect 136 0 139 2;
#X connect 137 0 136 0;
#X connect 138 0 137 0;
#X connect 139 0 74 0;
#X connect 150 0 139 1;
#X coords 0 -1 1 1 450 300 2 100 100;
