#N canvas 25 23 1255 755 10;
#X obj 75 646 vline~;
#X floatatom 264 455 5 0 0 1 A - -;
#X floatatom 264 475 5 0 0 1 D - -;
#X floatatom 264 495 5 0 0 1 S - -;
#X floatatom 264 515 5 0 0 1 R - -;
#X obj 70 310 tgl 15 0 empty empty empty 17 7 0 10 -262144 -1 -1 0
1;
#X obj 70 360 sel 1;
#X obj 75 592 pack f f f;
#X obj 75 565 f;
#X obj 75 388 t b b b b;
#X floatatom 319 220 5 0 0 1 Attack_(ms) - -;
#X floatatom 319 237 5 0 0 1 Decay_(ms) - -;
#X floatatom 319 254 5 0 0 1 Sustain_(amp) - -;
#X floatatom 319 271 5 0 0 1 Release_(ms) - -;
#X obj 182 250 tgl 15 0 empty empty Gate 17 7 0 10 -262144 -1 -1 0
1;
#X obj 197 366 sel 0;
#X msg 196 627 \$1 10 \, 0 \$2;
#X obj 196 565 f;
#X obj 196 592 pack f f;
#X obj 196 388 t b b b;
#X obj 165 73 inlet attack;
#X obj 165 95 s attack;
#X obj 265 73 inlet decay;
#X obj 265 95 s decay;
#X obj 359 73 inlet sustain;
#X obj 359 95 s sustain;
#X obj 465 73 inlet release;
#X obj 465 95 s release;
#X obj 432 215 r attack;
#X obj 432 235 r decay;
#X obj 432 255 r sustain;
#X obj 432 275 r release;
#X obj 75 908 outlet~ envelope_sig;
#N canvas 164 190 450 300 snapshot 0;
#X obj 120 111 snapshot~;
#X obj 120 23 inlet~;
#X obj 120 153 outlet;
#X obj 186 82 metro 10;
#X obj 186 38 loadbang;
#X msg 186 60 1;
#X connect 0 0 2 0;
#X connect 1 0 0 0;
#X connect 3 0 0 0;
#X connect 4 0 5 0;
#X connect 5 0 3 0;
#X restore 218 695 pd snapshot;
#X obj 218 908 outlet envelope_data;
#X text -425 31 ADSR Envelope;
#X msg 75 619 1 \$1 \, \$3 \$2 \$1;
#X obj 0 70 inlet gate;
#X obj 678 88 loadbang;
#X obj 678 110 f \$1;
#X obj 708 110 f \$2;
#X obj 738 110 f \$3;
#X obj 768 110 f \$4;
#X text -86 349 '1' triggers envelope A \, D & S stages \, '0' ramps
to S (if necessary) \, and proceeds with R stage., f 25;
#X text 802 110 Arguments: A \, D \, S \, R;
#X text -425 88 Arguments:;
#X text -399 98 1: Attack time (ms);
#X text -399 109 2: Decay time (ms);
#X text -399 121 3: Sustain level (0-1);
#X text -399 132 4: Release time (ms);
#X text 192 221 ADSR Envelope;
#X text 234 202 Att;
#X text 293 202 Dec;
#X text 354 202 Sus;
#X text 403 202 Rel;
#X text 180 333 Out (Sig);
#X text 363 332 Out (Data);
#X text -425 3 //// SOUND ART TOOLKIT /////////////////////////////////////////////////////////////////////////////////////////////////////////////////////////////////////////////////////////////////////////
, f 192;
#X text -425 47 tdh.synth.adsr~.pd / tdh.satk.adsr~.pd;
#X text -425 68 Travis Houldcroft / thouldcroft@gmail.com / travishouldcroft.com
, f 65;
#X text -425 174 INTERNAL DEVELOPER'S NOTE: This module is an exact
copy of the abstraction "tdh.synth.adsr~" from tdh.pd.lib \, and so
any functional changes should be made to the original abstraction.
;
#X text -425 235 EXTERNAL DEVELOPER'S NOTE: You may edit and adapt
this code AS LONG AS any distribution of the modified code is done
with a new \, unique title AND some small attribution to the original
author(s) is made.;
#X text -442 745 _;
#X floatatom 678 207 5 0 0 1 Range_Hi - #0-range-hi;
#X floatatom 680 179 5 0 0 1 Range_Lo - #0-range-lo;
#X obj 218 720 t f b b, f 11;
#X obj 218 765 *;
#X obj 296 718 r \$0-range-hi;
#X obj 281 766 f 1;
#X obj 218 866 + 0;
#X obj 296 812 r \$0-range-lo;
#X floatatom 326 742 5 0 0 0 - - -;
#X floatatom 320 833 5 0 0 0 - - -;
#X obj 250 835 f 0;
#X floatatom 254 884 5 0 0 0 - - -;
#X obj 777 179 loadbang;
#X msg 777 204 1;
#X obj 281 791 -;
#X text 180 202 G (1-0);
#X text -293 771 Need to implment the range setting for the signal
output--->;
#X text -425 305 TO DO: help file \, range setting for signal output
;
#X obj 310 180 f 250;
#X obj 270 180 f 500;
#X obj 350 180 f 0.5;
#X obj 390 180 f 500;
#X obj 270 160 loadbang;
#X obj 182 299 cnv 15 245 20 empty empty ADSR 20 8 0 14 -233017 -66577
0;
#X text 430 180 <-- Default values;
#X text 675 55 TO BE COMPLETED!! ---------------------;
#X text 1051 681 _;
#X text 677 142 Envelope Range (currently it is only suitable for VCA
by default);
#X text 682 254 Relative envelope display (like found in Reaktor);
#N canvas 0 22 450 300 adsr-disp 0;
#X restore 694 293 pd adsr-disp;
#X floatatom 90 523 5 0 0 0 - - -;
#X floatatom 90 340 5 0 0 0 - - -;
#X obj 0 100 t f f;
#X obj 77 152 * 0.0078;
#X obj 0 140 > 0;
#X text 127 132 convert MIDI vel to linear amp for sus, f 11;
#X obj 76 129 spigot;
#X obj 182 273 tgl 15 0 empty empty Use_MIDI_Vel-Sustain 17 7 0 10
-262144 -1 -1 0 1;
#X obj 109 104 tgl 15 0 empty empty empty 17 7 0 10 -262144 -1 -1 0
1;
#X connect 0 0 33 0;
#X connect 0 0 32 0;
#X connect 1 0 8 1;
#X connect 1 0 93 0;
#X connect 2 0 7 1;
#X connect 3 0 7 2;
#X connect 3 0 17 1;
#X connect 4 0 18 1;
#X connect 5 0 6 0;
#X connect 5 0 15 0;
#X connect 5 0 94 0;
#X connect 6 0 9 0;
#X connect 7 0 36 0;
#X connect 8 0 7 0;
#X connect 9 0 8 0;
#X connect 9 1 3 0;
#X connect 9 2 2 0;
#X connect 9 3 1 0;
#X connect 10 0 1 0;
#X connect 11 0 2 0;
#X connect 12 0 3 0;
#X connect 13 0 4 0;
#X connect 14 0 5 0;
#X connect 15 0 19 0;
#X connect 16 0 0 0;
#X connect 17 0 18 0;
#X connect 18 0 16 0;
#X connect 19 0 17 0;
#X connect 19 1 4 0;
#X connect 19 2 3 0;
#X connect 20 0 21 0;
#X connect 22 0 23 0;
#X connect 24 0 25 0;
#X connect 26 0 27 0;
#X connect 28 0 10 0;
#X connect 29 0 11 0;
#X connect 30 0 12 0;
#X connect 31 0 13 0;
#X connect 33 0 65 0;
#X connect 36 0 0 0;
#X connect 37 0 95 0;
#X connect 38 0 39 0;
#X connect 65 0 66 0;
#X connect 65 1 73 0;
#X connect 65 2 68 0;
#X connect 66 0 69 0;
#X connect 67 0 68 1;
#X connect 67 0 71 0;
#X connect 68 0 77 0;
#X connect 69 0 74 0;
#X connect 69 0 34 0;
#X connect 70 0 72 0;
#X connect 70 0 73 1;
#X connect 73 0 69 1;
#X connect 73 0 77 1;
#X connect 75 0 76 0;
#X connect 76 0 63 0;
#X connect 77 0 66 1;
#X connect 81 0 11 0;
#X connect 82 0 10 0;
#X connect 83 0 12 0;
#X connect 84 0 13 0;
#X connect 85 0 82 0;
#X connect 85 0 81 0;
#X connect 85 0 83 0;
#X connect 85 0 84 0;
#X connect 95 0 97 0;
#X connect 95 1 99 0;
#X connect 96 0 12 0;
#X connect 97 0 14 0;
#X connect 99 0 96 0;
#X connect 100 0 101 0;
#X connect 101 0 99 1;
#X coords 0 -1 1 1 250 150 2 179 201;
