#N canvas 227 174 1202 689 10;
#X floatatom -136 191 5 0 0 0 - - -, f 5;
#X obj -70 271 *~ 0.01;
#X floatatom -31 251 5 0 0 0 - - -, f 5;
#X obj -317 162 delwrite~ mydelay-\$0 176400;
#X obj -136 210 delread~ mydelay-\$0 500;
#X floatatom 139 138 5 0 0 0 - - -, f 5;
#X floatatom 139 156 5 0 0 0 - - -, f 5;
#X text -605 125 Arguments:;
#X text -603 80 Travis Houldcroft;
#X text -604 93 thouldcroft@gmail.com;
#X text -604 105 travishouldcroft.com;
#X text 1 250 fb;
#X text -103 189 time;
#X obj 235 78 f \$1;
#X obj 235 49 loadbang;
#X text -605 42 Signal Delay;
#X text -605 53 tdh.sigproc.delay~.pd;
#X text -596 139 1: Delay time (MS);
#X text -596 150 2: Feedback (0.0-1.0);
#X obj -85 378 hsl 64 15 0 1 0 0 empty empty empty -2 -8 0 10 #fcfcfc
#000000 #000000 0 1;
#X floatatom -63 401 5 0 0 0 - - -, f 5;
#X obj -88 420 - 1;
#X floatatom -88 467 5 0 0 0 - - -, f 5;
#X obj -88 442 * -1;
#X obj -131 508 *~;
#X text -180 508 Wet Sig;
#X text 173 137 Delay Time (MS);
#X text 174 155 Feed-back (0. to 1.);
#X obj -341 508 *~;
#X text -390 508 Dry Sig;
#X obj 139 174 hsl 64 15 0 1 0 0 empty empty empty 70 7 0 10 #fcfcfc
#000000 #000000 0 1;
#X floatatom 211 174 5 0 0 0 - - -, f 5;
#X text 244 173 Dry/Wet;
#X obj 268 77 f \$2;
#X obj -136 68 inlet del_time;
#X obj -1 68 inlet fb;
#X obj -341 580 outlet~ signal;
#X obj -344 70 inlet~ signal;
#X text 296 78 Args;
#X text 100 101 Sig;
#X text 210 101 Time;
#X text 334 101 Fb;
#X text 100 226 Out;
#X obj -1 90 change;
#X obj -136 90 change;
#X text -25 399 DEBUG;
#X obj 103 195 cnv 15 248 27 empty empty Delay 20 12 0 14 #e0e0e0 #404040
0;
#X connect 0 0 4 0;
#X connect 1 0 3 0;
#X connect 2 0 1 1;
#X connect 4 0 1 0;
#X connect 4 0 24 0;
#X connect 5 0 0 0;
#X connect 6 0 2 0;
#X connect 13 0 5 0;
#X connect 14 0 13 0;
#X connect 14 0 33 0;
#X connect 19 0 20 0;
#X connect 19 0 21 0;
#X connect 19 0 24 1;
#X connect 21 0 23 0;
#X connect 23 0 22 0;
#X connect 23 0 28 1;
#X connect 24 0 36 0;
#X connect 28 0 36 0;
#X connect 30 0 19 0;
#X connect 30 0 31 0;
#X connect 33 0 6 0;
#X connect 34 0 44 0;
#X connect 35 0 43 0;
#X connect 37 0 3 0;
#X connect 37 0 28 0;
#X connect 43 0 6 0;
#X connect 44 0 5 0;
#X coords 0 -1 1 1 254 146 2 100 100;
