#N canvas 1280 -209 918 1035 10;
#X declare -path dependencies;
#X obj -326 417 *~;
#X obj -196 340 - 1;
#X obj -196 359 * -1;
#X obj -181 414 *~;
#X obj -326 525 outlet~ L;
#X obj -181 525 outlet~ R;
#X obj 115 295 hsl 90 15 0 1 0 0 empty empty Pan 38 -8 0 10 #fcfcfc
#000000 #000000 4428 1;
#X text 102 294 L;
#X text 213 294 R;
#X obj 44 -1 inlet pan;
#X text -303 416 L;
#X text -155 413 R;
#X floatatom 150 313 5 0 0 0 - - -, f 5;
#X obj -326 224 *~;
#X obj -141 -1 inlet gain;
#X text 203 100 Pan;
#X obj 176 145 vsl 14 118 0 2 0 0 empty empty empty 0 -9 0 10 #fcfcfc
#000000 #000000 7000 1;
#X obj 107 145 vu 15 120 empty empty -1 -8 0 10 #404040 #000000 0 0
;
#X text 101 379 Out L;
#X text 189 379 Out R;
#X obj 203 -3 loadbang;
#X msg 203 47 0.5;
#X obj -311 392 sig~;
#X obj -166 385 sig~;
#X obj -311 202 line~;
#X obj -311 179 \$1 20;
#X floatatom -166 321 5 0 0 0 - - -, f 5;
#X obj -166 285 \$1 20;
#X obj -166 303 line;
#X obj 44 61 change;
#X obj 44 85 f;
#X obj 203 22 t b b;
#X msg 44 109 set \$1;
#X obj 44 23 expr if($f1 > 0 \, $f1 \, 0);
#X obj -288 225 env~;
#X obj -288 247 - 100;
#X obj 476 54 declare -path dependencies;
#X floatatom 176 269 5 0 0 0 - - -, f 5;
#X text 191 182 +2dB;
#X text 191 142 +6dB;
#X text 191 211 -2dB;
#X text 191 227 -6dB;
#X text 191 252 -20dB;
#X text 170 125 Gain;
#X text 103 359 // CHANNEL STRIP //;
#X text -323 -162 Travis Houldcroft / thouldcroft@gmail.com / travishouldcroft.com
, f 65;
#X text -323 -105 EXTERNAL DEVELOPER'S NOTE: You may edit and adapt
this code AS LONG AS any distribution of the modified code is done
with a new \, unique title AND some small attribution to the original
author(s) is made.;
#X text -323 -35 TO DO: Comments \, help file;
#X text -323 -227 //// SOUND ART TOOLKIT /////////////////////////////////////////////////////////////////
, f 89;
#X text -323 -199 Channel Strip;
#X text -323 -183 tdh.satk.channelstrip~.pd;
#X obj 239 237 else/lin2db;
#X obj 239 279 else/db2lin;
#X msg 239 258 set \$1;
#X text 191 197 -0dB;
#X obj -326 -1 inlet~ sigL;
#X obj -227 -1 inlet~ sigR;
#X obj -226 224 *~;
#X obj -211 202 line~;
#X obj -211 179 \$1 20;
#X obj -188 225 env~;
#X obj -188 247 - 100;
#X obj 126 148 vu 15 120 empty empty -1 -8 0 10 #404040 #000000 1 0
;
#X obj 44 160 loadbang;
#X msg 44 181 scale 0;
#X text -21 159 hide scale for left vu~, f 10;
#X text -380 649 _;
#X text 100 101 In1;
#X text 130 101 In2;
#X obj -87 458 tgl 15 0 empty empty empty 17 7 0 10 #fcfcfc #000000
#000000 0 1;
#X text -66 458 Mono to Stereo;
#X text 175 100 Gn;
#X obj -86 483 send \$0-mono2stereo;
#X obj -306 130 *~;
#X obj -291 104 r \$0-mono2stereo;
#X text -91 433 Work in progress...;
#X connect 0 0 4 0;
#X connect 1 0 2 0;
#X connect 2 0 22 0;
#X connect 3 0 5 0;
#X connect 6 0 12 0;
#X connect 6 0 27 0;
#X connect 9 0 33 0;
#X connect 13 0 0 0;
#X connect 13 0 34 0;
#X connect 14 0 16 0;
#X connect 16 0 25 0;
#X connect 16 0 51 0;
#X connect 16 0 59 0;
#X connect 20 0 31 0;
#X connect 21 0 6 0;
#X connect 22 0 0 1;
#X connect 23 0 3 1;
#X connect 24 0 13 1;
#X connect 25 0 24 0;
#X connect 26 0 1 0;
#X connect 26 0 23 0;
#X connect 27 0 28 0;
#X connect 28 0 26 0;
#X connect 29 0 30 0;
#X connect 30 0 32 0;
#X connect 31 0 21 0;
#X connect 31 1 30 0;
#X connect 32 0 6 0;
#X connect 33 0 29 0;
#X connect 34 0 35 0;
#X connect 35 0 17 0;
#X connect 37 0 52 0;
#X connect 51 0 53 0;
#X connect 52 0 16 0;
#X connect 53 0 37 0;
#X connect 55 0 13 0;
#X connect 55 0 73 0;
#X connect 56 0 57 0;
#X connect 57 0 60 0;
#X connect 57 0 3 0;
#X connect 58 0 57 1;
#X connect 59 0 58 0;
#X connect 60 0 61 0;
#X connect 61 0 62 0;
#X connect 63 0 64 0;
#X connect 64 0 17 0;
#X connect 69 0 72 0;
#X connect 73 0 57 0;
#X connect 74 0 73 1;
#X coords 0 -1 1 1 126 296 2 100 100;
