#N canvas 2311 261 889 565 12;
#X obj 103 122 tgl 15 0 empty empty empty 17 7 0 10 -262144 -1 -1 0
1;
#X msg 18 101 \; pd dsp \$1;
#X text 121 122 DSP On/Off;
#X text 11 -191 Travis Houldcroft / thouldcroft@gmail.com / travishouldcroft.com
, f 65;
#X text 100 100 Ch1 In;
#X text 149 100 Ch2 In;
#X obj 372 189 dac~ 1 2;
#X obj 106 154 hsl 110 17 0 1 0 0 empty empty Gain -2 -8 0 12 -262144
-1 -1 0 1;
#X msg 44 152 set \$1;
#X floatatom 224 154 5 0 0 0 - - -;
#X obj 372 150 *~;
#X obj 425 150 *~;
#X text 11 -228 OUTPUT - A DAC output plus DSP toggle and gain in a
single module, f 84;
#X text 203 100 DSP;
#X text 232 100 Gain;
#X obj 102 175 cnv 15 160 22 empty empty AudioOut 14 10 0 16 -233017
-66577 0;
#X obj 337 -120 inlet;
#X obj 430 -120 inlet;
#X obj 41 -120 cnv 15 19 19 empty empty 0 2 10 0 14 -1 -262144 0;
#X obj 176 -120 cnv 15 19 19 empty empty 1 2 10 0 14 -1 -262144 0;
#X obj 317 -120 cnv 15 19 19 empty empty 2 2 10 0 14 -1 -262144 0;
#X obj 410 -120 cnv 15 19 19 empty empty 3 2 10 0 14 -1 -262144 0;
#X obj 61 -120 inlet~;
#X obj 41 -94 cnv 15 19 19 empty empty empty 2 10 0 14 -261234 -66577
0;
#X obj 176 -94 cnv 15 19 19 empty empty empty 2 10 0 14 -261682 -66577
0;
#X obj 85 63 cnv 15 19 19 empty empty empty 2 10 0 14 -204786 -66577
0;
#X obj 411 -94 cnv 15 19 19 empty empty empty 2 10 0 14 -204800 -66577
0;
#X obj 205 208 cnv 15 19 19 empty empty empty 2 10 0 14 -203904 -66577
0;
#X obj 61 -94 send~ \$0-ch1-in;
#X obj 352 31 cnv 15 19 19 empty empty empty 2 10 0 14 -261234 -66577
0;
#X obj 405 72 cnv 15 19 19 empty empty empty 2 10 0 14 -261682 -66577
0;
#X obj 425 71 receive~ \$0-ch2-in;
#X obj 337 -94 s \$0-dsp;
#X obj 103 63 r \$0-dsp;
#X obj 430 -94 s \$0-gain;
#X obj 316 -94 cnv 15 19 19 empty empty empty 2 10 0 14 -204786 -66577
0;
#X obj 205 63 cnv 15 19 19 empty empty empty 2 10 0 14 -204800 -66577
0;
#X obj 224 63 r \$0-gain;
#X obj 224 208 s \$0-gainUI;
#X obj 469 101 cnv 15 19 19 empty empty empty 2 10 0 14 -203904 -66577
0;
#X obj 488 101 r \$0-gainUI;
#X obj 196 -120 inlet~;
#X obj 196 -94 send~ \$0-ch2-in;
#X obj 372 31 receive~ \$0-ch1-in;
#X text 11 -212 tdh.satk.audioout~.pd;
#X obj 18 12 r pd;
#X obj 18 33 route dsp;
#X msg 18 54 set \$1;
#X connect 0 0 1 0;
#X connect 7 0 9 0;
#X connect 8 0 7 0;
#X connect 9 0 8 0;
#X connect 9 0 38 0;
#X connect 10 0 6 0;
#X connect 11 0 6 1;
#X connect 16 0 32 0;
#X connect 17 0 34 0;
#X connect 22 0 28 0;
#X connect 31 0 11 0;
#X connect 33 0 0 0;
#X connect 37 0 9 0;
#X connect 40 0 10 1;
#X connect 40 0 11 1;
#X connect 41 0 42 0;
#X connect 43 0 10 0;
#X connect 45 0 46 0;
#X connect 46 0 47 0;
#X connect 47 0 0 0;
#X coords 0 -1 1 1 164 99 2 100 100;
