#N canvas 39 86 1386 529 10;
#X floatatom 207 152 5 0 0 0 - - -, f 5;
#X obj 206 128 comport/comport 1 9600;
#X msg 260 91 close;
#X obj 637 666 dac~;
#X msg 205 91 open 1;
#X obj 25 482 osc~;
#X obj 25 453 mtof;
#X obj 71 482 line~;
#X obj 25 522 *~;
#X msg 71 453 1 500;
#X obj 118 424 delay 500;
#X obj 25 393 t bang bang bang;
#X msg 118 453 0 500;
#X msg 25 424 60;
#X obj 185 482 osc~;
#X obj 185 453 mtof;
#X obj 231 482 line~;
#X obj 185 522 *~;
#X msg 231 453 1 500;
#X obj 278 424 delay 500;
#X obj 185 393 t bang bang bang;
#X msg 278 453 0 500;
#X obj 345 482 osc~;
#X obj 345 453 mtof;
#X obj 391 482 line~;
#X obj 345 522 *~;
#X msg 391 453 1 500;
#X obj 438 424 delay 500;
#X obj 345 393 t bang bang bang;
#X msg 438 453 0 500;
#X obj 505 453 mtof;
#X obj 25 482 osc~;
#X obj 25 453 mtof;
#X obj 71 482 line~;
#X obj 25 522 *~;
#X msg 71 453 1 500;
#X obj 118 424 delay 500;
#X obj 25 393 t bang bang bang;
#X msg 118 453 0 500;
#X msg 25 424 60;
#X obj 185 482 osc~;
#X obj 185 453 mtof;
#X obj 231 482 line~;
#X obj 185 522 *~;
#X msg 231 453 1 500;
#X obj 278 424 delay 500;
#X obj 185 393 t bang bang bang;
#X msg 278 453 0 500;
#X msg 185 424 60;
#X obj 345 482 osc~;
#X obj 345 453 mtof;
#X obj 391 482 line~;
#X obj 345 522 *~;
#X msg 391 453 1 500;
#X obj 438 424 delay 500;
#X obj 345 393 t bang bang bang;
#X msg 438 453 0 500;
#X msg 345 424 60;
#X obj 505 482 osc~;
#X obj 505 453 mtof;
#X obj 551 482 line~;
#X obj 505 522 *~;
#X msg 551 453 1 500;
#X obj 598 424 delay 500;
#X obj 505 393 t bang bang bang;
#X msg 598 453 0 500;
#X msg 505 424 60;
#X obj 665 482 osc~;
#X obj 665 453 mtof;
#X obj 711 482 line~;
#X obj 665 522 *~;
#X msg 711 453 1 500;
#X obj 758 424 delay 500;
#X obj 665 393 t bang bang bang;
#X msg 758 453 0 500;
#X obj 825 482 osc~;
#X obj 825 453 mtof;
#X obj 871 482 line~;
#X obj 825 522 *~;
#X msg 871 453 1 500;
#X obj 918 424 delay 500;
#X obj 825 393 t bang bang bang;
#X msg 918 453 0 500;
#X obj 985 482 osc~;
#X obj 985 453 mtof;
#X obj 1031 482 line~;
#X obj 985 522 *~;
#X msg 1031 453 1 500;
#X obj 1078 424 delay 500;
#X obj 985 393 t bang bang bang;
#X msg 1078 453 0 500;
#X obj 1145 482 osc~;
#X obj 1145 453 mtof;
#X obj 1194 482 line~;
#X obj 1145 522 *~;
#X msg 1194 453 1 500;
#X obj 1241 424 delay 500;
#X obj 1145 393 t bang bang bang;
#X msg 1241 453 0 500;
#X text 218 346 2;
#X text 378 346 3;
#X text 538 346 4;
#X text 698 346 5;
#X text 858 346 6;
#X text 1018 346 7;
#X text 1178 346 8;
#X msg 185 424 62;
#X msg 345 424 64;
#X msg 505 424 65;
#X msg 665 424 67;
#X msg 825 424 69;
#X msg 985 424 71;
#X msg 1145 424 72;
#X obj 25 267 change;
#X obj 185 267 change;
#X obj 345 267 change;
#X obj 505 267 change;
#X obj 665 267 change;
#X obj 825 267 change;
#X obj 985 267 change;
#X obj 1145 267 change;
#X obj 25 242 sel 48 49 50 51 52 53 54 55 57, f 216;
#X obj 1285 267 change;
#X obj 1285 289 bng 15 250 50 0 empty empty empty 17 7 0 10 -262144
-1 -1;
#X obj 25 289 bng 15 250 50 0 empty empty empty 17 7 0 10 -262144 -1
-1;
#X obj 185 289 bng 15 250 50 0 empty empty empty 17 7 0 10 -262144
-1 -1;
#X obj 345 289 bng 15 250 50 0 empty empty empty 17 7 0 10 -262144
-1 -1;
#X obj 505 289 bng 15 250 50 0 empty empty empty 17 7 0 10 -262144
-1 -1;
#X obj 665 289 bng 15 250 50 0 empty empty empty 17 7 0 10 -262144
-1 -1;
#X obj 825 289 bng 15 250 50 0 empty empty empty 17 7 0 10 -262144
-1 -1;
#X obj 985 289 bng 15 250 50 0 empty empty empty 17 7 0 10 -262144
-1 -1;
#X obj 1145 289 bng 15 250 50 0 empty empty empty 17 7 0 10 -262144
-1 -1;
#X text 38 346 1;
#X obj 207 171 change;
#X obj 207 193 print;
#X connect 0 0 133 0;
#X connect 1 0 0 0;
#X connect 2 0 1 0;
#X connect 4 0 1 0;
#X connect 5 0 8 0;
#X connect 6 0 5 0;
#X connect 7 0 8 1;
#X connect 8 0 3 1;
#X connect 8 0 3 0;
#X connect 9 0 7 0;
#X connect 10 0 12 0;
#X connect 11 0 10 0;
#X connect 11 1 9 0;
#X connect 11 2 13 0;
#X connect 12 0 7 0;
#X connect 13 0 6 0;
#X connect 14 0 17 0;
#X connect 15 0 14 0;
#X connect 16 0 17 1;
#X connect 17 0 3 1;
#X connect 17 0 3 0;
#X connect 18 0 16 0;
#X connect 19 0 21 0;
#X connect 20 0 19 0;
#X connect 20 1 18 0;
#X connect 20 2 106 0;
#X connect 21 0 16 0;
#X connect 22 0 25 0;
#X connect 23 0 22 0;
#X connect 24 0 25 1;
#X connect 25 0 3 1;
#X connect 25 0 3 0;
#X connect 26 0 24 0;
#X connect 27 0 29 0;
#X connect 28 0 27 0;
#X connect 28 1 26 0;
#X connect 28 2 107 0;
#X connect 29 0 24 0;
#X connect 31 0 34 0;
#X connect 32 0 31 0;
#X connect 33 0 34 1;
#X connect 35 0 33 0;
#X connect 36 0 38 0;
#X connect 37 0 36 0;
#X connect 37 1 35 0;
#X connect 37 2 39 0;
#X connect 38 0 33 0;
#X connect 39 0 32 0;
#X connect 40 0 43 0;
#X connect 41 0 40 0;
#X connect 42 0 43 1;
#X connect 44 0 42 0;
#X connect 45 0 47 0;
#X connect 46 0 45 0;
#X connect 46 1 44 0;
#X connect 46 2 48 0;
#X connect 47 0 42 0;
#X connect 48 0 41 0;
#X connect 49 0 52 0;
#X connect 50 0 49 0;
#X connect 51 0 52 1;
#X connect 53 0 51 0;
#X connect 54 0 56 0;
#X connect 55 0 54 0;
#X connect 55 1 53 0;
#X connect 55 2 57 0;
#X connect 56 0 51 0;
#X connect 57 0 50 0;
#X connect 58 0 61 0;
#X connect 59 0 58 0;
#X connect 60 0 61 1;
#X connect 62 0 60 0;
#X connect 63 0 65 0;
#X connect 64 0 63 0;
#X connect 64 1 62 0;
#X connect 64 2 66 0;
#X connect 65 0 60 0;
#X connect 66 0 59 0;
#X connect 67 0 70 0;
#X connect 68 0 67 0;
#X connect 69 0 70 1;
#X connect 70 0 3 1;
#X connect 70 0 3 0;
#X connect 71 0 69 0;
#X connect 72 0 74 0;
#X connect 73 0 72 0;
#X connect 73 1 71 0;
#X connect 73 2 109 0;
#X connect 74 0 69 0;
#X connect 75 0 78 0;
#X connect 76 0 75 0;
#X connect 77 0 78 1;
#X connect 78 0 3 1;
#X connect 78 0 3 0;
#X connect 79 0 77 0;
#X connect 80 0 82 0;
#X connect 81 0 80 0;
#X connect 81 1 79 0;
#X connect 81 2 110 0;
#X connect 82 0 77 0;
#X connect 83 0 86 0;
#X connect 84 0 83 0;
#X connect 85 0 86 1;
#X connect 86 0 3 1;
#X connect 86 0 3 0;
#X connect 87 0 85 0;
#X connect 88 0 90 0;
#X connect 89 0 88 0;
#X connect 89 1 87 0;
#X connect 89 2 111 0;
#X connect 90 0 85 0;
#X connect 91 0 94 0;
#X connect 92 0 91 0;
#X connect 93 0 94 1;
#X connect 94 0 3 1;
#X connect 94 0 3 0;
#X connect 95 0 93 0;
#X connect 96 0 98 0;
#X connect 97 0 96 0;
#X connect 97 1 95 0;
#X connect 97 2 112 0;
#X connect 98 0 93 0;
#X connect 106 0 15 0;
#X connect 107 0 23 0;
#X connect 108 0 30 0;
#X connect 109 0 68 0;
#X connect 110 0 76 0;
#X connect 111 0 84 0;
#X connect 112 0 92 0;
#X connect 113 0 124 0;
#X connect 114 0 125 0;
#X connect 115 0 126 0;
#X connect 116 0 127 0;
#X connect 117 0 128 0;
#X connect 118 0 129 0;
#X connect 119 0 130 0;
#X connect 120 0 131 0;
#X connect 121 0 113 0;
#X connect 121 1 114 0;
#X connect 121 2 115 0;
#X connect 121 3 116 0;
#X connect 121 4 117 0;
#X connect 121 5 118 0;
#X connect 121 6 119 0;
#X connect 121 7 120 0;
#X connect 121 8 122 0;
#X connect 122 0 123 0;
#X connect 124 0 11 0;
#X connect 125 0 20 0;
#X connect 126 0 28 0;
#X connect 127 0 64 0;
#X connect 128 0 73 0;
#X connect 129 0 81 0;
#X connect 130 0 89 0;
#X connect 131 0 97 0;
#X connect 133 0 134 0;
