#N canvas 25 23 1255 755 10;
#X declare -path dependencies;
#X obj 452 1225 *~;
#X floatatom 314 263 5 0.01 0.99 0 - - -, f 5;
#X obj 314 116 vsl 15 128 0.01 1 1 0 empty empty empty 0 -9 0 10 #fcfcfc
#000000 #000000 2200 1;
#X obj 10 1210 *~;
#X floatatom 255 263 9 0.01 0.99 0 - - -, f 9;
#X obj 280 120 vsl 15 128 20 20000 1 0 empty empty empty 0 -9 0 10
#fcfcfc #000000 #000000 4450 1;
#X floatatom 174 263 5 0.01 0.99 0 - - -, f 5;
#X obj 170 110 vsl 15 128 0.01 1 1 0 empty empty empty 0 -9 0 10 #fcfcfc
#000000 #000000 0 1;
#X floatatom 113 300 9 0.01 0.99 0 - - -, f 9;
#X obj 113 116 vsl 15 128 20 20000 1 0 empty empty empty 0 -9 0 10
#fcfcfc #000000 #000000 0 1;
#X floatatom 51 263 5 0.01 0.99 0 - - -, f 5;
#X obj 51 116 vsl 15 128 0.01 1 1 0 empty empty empty 0 -9 0 10 #fcfcfc
#000000 #000000 0 1;
#X floatatom -8 263 9 0.01 0.99 0 - - -, f 9;
#X obj -8 116 vsl 15 128 20 20000 1 0 empty empty empty 0 -9 0 10 #fcfcfc
#000000 #000000 0 1;
#X obj -312 1225 +~;
#X floatatom -610 980 8 0 0 1 DEBUG - -, f 8;
#X obj -565 1171 *~;
#X obj -561 1039 osc~;
#X obj -44 1268 +~;
#X obj 233 1319 +~;
#X obj 902 1523 outlet~;
#X floatatom -80 263 5 0.01 0.99 0 - - -, f 5;
#X obj -80 116 vsl 15 128 0.01 1 1 0 empty empty empty 0 -9 0 10 #fcfcfc
#000000 #000000 0 1;
#X floatatom -144 263 9 0.01 0.99 0 - - -, f 9;
#X obj -144 116 vsl 15 128 20 20000 1 0 empty empty empty 0 -9 0 10
#fcfcfc #000000 #000000 0 1;
#X obj -144 18 inlet;
#X obj -80 18 inlet;
#X obj -8 18 inlet;
#X obj 51 18 inlet;
#X obj 113 18 inlet;
#X obj 174 18 inlet;
#X obj 255 18 inlet;
#X obj 314 18 inlet;
#X obj 363 18 inlet;
#X text -734 -72 _;
#X text -161 49 sin f;
#X text -99 49 sin a;
#X text -28 49 tri f;
#X text 40 49 tri a;
#X text 118 49 saw f;
#X text 182 49 saw a;
#X text 254 49 sqr f;
#X text 332 49 sqr a;
#X text 403 49 sqr pw;
#X text -763 1057 The sliders above send data to the receive objects
here -------------------------->, f 28;
#X text -161 313 out-sig;
#X floatatom -470 865 8 0 0 0 - - -, f 8;
#X text -418 865 DEBUG;
#X floatatom 150 1080 8 0 0 0 - - -, f 8;
#X text 202 1081 DEBUG;
#X floatatom 290 1150 8 0 0 0 - - -, f 8;
#X floatatom 424 1116 8 0 0 0 - - -, f 8;
#X text 476 1117 DEBUG;
#X floatatom 643 1162 8 0 0 0 - - -, f 8;
#X text 695 1163 DEBUG;
#X obj 497 -37 declare -path dependencies;
#X obj -627 956 tdh.util.declick;
#X obj -487 841 tdh.util.declick;
#X obj 264 1129 tdh.util.declick;
#X obj 380 1140 tdh.util.declick;
#X obj -239 41 loadbang;
#X msg -239 246 0;
#X msg -193 84 0.5;
#X msg -192 186 20;
#X floatatom 926 1122 8 0 0 0 - - -, f 8;
#X text 978 1123 DEBUG;
#X obj 898 1099 tdh.util.declick;
#X obj 836 1071 noise~;
#X obj 836 1119 *~;
#X obj 629 1394 +~;
#X floatatom 1171 1119 8 0 0 0 - - -, f 8;
#X text 1223 1120 DEBUG;
#X obj 1143 1096 tdh.util.declick;
#X obj 1081 1116 *~;
#X obj 902 1466 +~;
#X floatatom 437 263 5 0.01 0.99 0 - - -, f 5;
#X obj 437 116 vsl 15 128 0.01 0.99 1 0 empty empty empty 0 -9 0 10
#fcfcfc #000000 #000000 0 1;
#X text 417 81 White Noise Amp, f 9;
#X floatatom 504 263 5 0.01 0.99 0 - - -, f 5;
#X obj 504 116 vsl 15 128 0.01 0.99 1 0 empty empty empty 0 -9 0 10
#fcfcfc #000000 #000000 0 1;
#X msg 504 375 set \$1;
#X msg 504 348 set \$1;
#X text 484 81 Pink Noise Amp, f 9;
#X text -37 80 |||||||||||||||, f 1;
#X text 94 80 |||||||||||||||, f 1;
#X text 228 80 |||||||||||||||, f 1;
#X text -678 56 //OSCILLATORS//;
#X obj -80 509 expr if($f1 <= 0.02 \, 0 \, $f1), f 11;
#X obj 174 509 expr if($f1 <= 0.02 \, 0 \, $f1), f 11;
#X obj 314 509 expr if($f1 <= 0.02 \, 0 \, $f1), f 11;
#X obj 437 450 expr if($f1 <= 0.02 \, 0 \, $f1), f 11;
#X obj 504 410 expr if($f1 <= 0.02 \, 0 \, $f1), f 11;
#X obj 51 509 expr if($f1 <= 0.02 \, 0 \, $f1), f 11;
#X floatatom 361 263 5 0.01 0.99 0 - - -, f 5;
#X obj 361 116 vsl 15 128 0.01 0.99 0 0 empty empty empty 0 -9 0 10
#fcfcfc #000000 #000000 3300 1;
#X floatatom -3 1022 8 0 0 0 - - -, f 8;
#X text 49 1023 DEBUG;
#X obj -24 998 tdh.util.declick;
#X obj 509 667 noise~;
#X obj 509 715 *~;
#X obj 561 720 *~;
#X obj 561 672 pink~;
#X text -326 342 The code here ("set"s) facillitate setting values
with the numberbox OR the slider. The [expr] equation makes it so anything
0.2 or lower is evaluated as "0" -------------------------->, f 28
;
#X text 398 80 |||||||||||||||, f 1;
#X text -736 -49 ALL code that creates waveforms was taken from Alexandros
Drymonitis' paper "Making Voltage Controlled Oscillators in Pure Data"
which can be found at http://drymonitis.me;
#X obj -145 455 s \$0-sin-freq;
#X obj -80 555 s \$0-sin-amp;
#X obj -8 455 s \$0-tri-freq;
#X obj 51 555 s \$0-tri-amp;
#X obj 113 455 s \$0-saw-freq;
#X obj 180 560 s \$0-saw-amp;
#X obj 255 455 s \$0-sqr-freq;
#X obj 314 555 s \$0-sqr-amp;
#X obj 361 485 s \$0-sqr-pw;
#X obj 437 496 s \$0-whtnoise_amp;
#X obj 504 456 s \$0-pnknoise_amp;
#X obj 433 17 inlet;
#X obj 516 10 inlet;
#X text 467 49 whtn a;
#X text 525 49 pnkn a;
#X text -148 81 Sin Freq, f 4;
#X text -85 81 Sin Amp, f 4;
#X text -13 81 Tri Freq, f 4;
#X text 47 81 Tri Amp, f 4;
#X text 108 81 Saw Freq, f 4;
#X text 169 81 Saw Amp, f 4;
#X text 250 81 Sqr Freq, f 6;
#X text 309 81 Sqr Amp, f 6;
#X text 355 81 Sqr PW, f 4;
#X obj -627 930 r \$0-sin-freq;
#X obj -487 812 r \$0-tri-freq;
#X obj 560 1159 r \$0-sqr-amp;
#X msg -90 1090;
#X obj -480 895 tdh.synth.oscil-tri~;
#X obj -360 855 r \$0-tri-amp;
#X obj -440 980 *~;
#X obj -23 1062 tdh.synth.oscil-saw~;
#X obj -340 890 tdh.util.declick~;
#X obj -550 1120 tdh.util.declick~;
#X obj -550 1090 r \$0-sin-amp;
#X obj 51 1121 tdh.util.declick~;
#X obj 270 1170 tdh.synth.oscil-pulse~;
#X obj 560 1190 tdh.util.declick~;
#X obj 1020 990 cyclone/pink~;
#X floatatom 110 970 8 0 0 0 - - -, f 8;
#X text 162 971 DEBUG;
#X obj -50 860 r \$0-saw-freq;
#X obj 380 1090 r \$0-pulse-width;
#X obj 898 1068 r \$0-whtnoise_amp;
#X obj 1143 1065 r \$0-pnknoise_amp;
#X obj 170 1010 r \$0-saw-amp;
#X obj 590 1450 tdh.util.audioout~;
#X msg 113 350 set \$1;
#X msg 113 370 set \$1;
#X obj 264 1099 r \$0-sqr-freq;
#X connect 0 0 19 1;
#X connect 1 0 89 0;
#X connect 2 0 89 0;
#X connect 3 0 18 1;
#X connect 5 0 111 0;
#X connect 7 0 88 0;
#X connect 7 0 6 0;
#X connect 8 0 109 0;
#X connect 8 0 153 0;
#X connect 9 0 109 0;
#X connect 9 0 152 0;
#X connect 10 0 92 0;
#X connect 11 0 92 0;
#X connect 12 0 107 0;
#X connect 13 0 107 0;
#X connect 14 0 18 0;
#X connect 16 0 14 0;
#X connect 17 0 16 0;
#X connect 18 0 19 0;
#X connect 19 0 69 0;
#X connect 21 0 87 0;
#X connect 22 0 87 0;
#X connect 23 0 105 0;
#X connect 24 0 105 0;
#X connect 25 0 24 0;
#X connect 26 0 22 0;
#X connect 27 0 13 0;
#X connect 28 0 11 0;
#X connect 29 0 9 0;
#X connect 30 0 7 0;
#X connect 31 0 5 0;
#X connect 32 0 2 0;
#X connect 33 0 94 0;
#X connect 56 0 17 0;
#X connect 57 0 133 0;
#X connect 58 0 141 0;
#X connect 58 0 50 0;
#X connect 59 0 141 1;
#X connect 60 0 61 0;
#X connect 60 0 62 0;
#X connect 60 0 63 0;
#X connect 61 0 21 0;
#X connect 61 0 10 0;
#X connect 61 0 6 0;
#X connect 61 0 1 0;
#X connect 63 0 23 0;
#X connect 63 0 12 0;
#X connect 63 0 8 0;
#X connect 63 0 4 0;
#X connect 66 0 68 1;
#X connect 67 0 68 0;
#X connect 68 0 69 1;
#X connect 69 0 74 0;
#X connect 72 0 73 1;
#X connect 73 0 74 1;
#X connect 74 0 20 0;
#X connect 74 0 151 0;
#X connect 74 0 151 1;
#X connect 75 0 90 0;
#X connect 76 0 90 0;
#X connect 78 0 80 0;
#X connect 78 0 91 0;
#X connect 79 0 81 0;
#X connect 79 0 91 0;
#X connect 80 0 79 0;
#X connect 81 0 78 0;
#X connect 87 0 106 0;
#X connect 88 0 110 0;
#X connect 89 0 112 0;
#X connect 90 0 114 0;
#X connect 91 0 80 0;
#X connect 91 0 115 0;
#X connect 92 0 108 0;
#X connect 93 0 113 0;
#X connect 94 0 113 0;
#X connect 97 0 136 0;
#X connect 97 0 95 0;
#X connect 98 0 99 0;
#X connect 101 0 100 0;
#X connect 129 0 56 0;
#X connect 130 0 57 0;
#X connect 131 0 142 0;
#X connect 131 0 53 0;
#X connect 133 0 135 0;
#X connect 134 0 137 0;
#X connect 135 0 14 1;
#X connect 136 0 3 0;
#X connect 137 0 135 1;
#X connect 138 0 16 1;
#X connect 139 0 138 0;
#X connect 140 0 3 1;
#X connect 141 0 0 0;
#X connect 142 0 0 1;
#X connect 143 0 73 0;
#X connect 146 0 97 0;
#X connect 146 0 144 0;
#X connect 147 0 51 0;
#X connect 147 0 59 0;
#X connect 148 0 66 0;
#X connect 149 0 72 0;
#X connect 150 0 48 0;
#X connect 150 0 140 0;
#X connect 152 0 8 0;
#X connect 153 0 9 0;
#X connect 154 0 58 0;
#X coords 0 -1 1 1 728 283 2 -162 48;
