#N canvas 559 84 450 300 12;
#X obj -70 30 inlet~;
#X obj 50 30 inlet~;
#X obj 103 143 tgl 15 0 empty empty DSP\\\ On/Off 17 7 0 10 -262144
-1 -1 0 1;
#X text 101 101 In Ch1;
#X text 181 100 In Ch2;
#X obj 103 163 hsl 64 15 0.01 1 1 0 empty empty Volume 72 7 0 10 -262144
-1 -1 0 1;
#X obj 50 220 *~;
#X obj 102 120 cnv 2 123 2 empty empty Audio\\\ Output 1 8 0 14 -233017
-66577 0;
#X obj 183 144 tgl 15 0 empty empty Mute 17 7 0 10 -262144 -1 -1 0
1;
#X obj -70 200 *~;
#X obj -70 250 dac~ 1 2;
#X msg 103 230 \; pd dsp \$1;
#X text -100 260 _;
#X obj 103 63 r \$0-dsp-ctrl;
#X obj 203 63 r \$0-gain-ctrl;
#X connect 0 0 9 0;
#X connect 1 0 6 0;
#X connect 2 0 11 0;
#X connect 5 0 6 1;
#X connect 5 0 9 1;
#X connect 6 0 10 1;
#X connect 8 0 6 1;
#X connect 8 0 9 1;
#X connect 9 0 10 0;
#X connect 13 0 2 0;
#X connect 14 0 5 0;
#X coords 0 -1 1 1 127 82 1 100 100;
