#N canvas 416 106 500 536 10;
#X text 16 34 Travis Houldcroft || travishouldcroft.com;
#X text 18 220 All waveform generating code is an implementation of
code discussed in "Making Voltage Controlled Oscillators in Pure Data"
by Alexandros Drymonitis (drymonitis.me).;
#X obj 21 273 inlet;
#X obj 21 318 phasor~;
#X obj 21 390 -~ 1;
#X obj 21 485 outlet~;
#X text 61 274 Frequency;
#X obj 0 0 cnv 15 500 30 empty empty tdh.synth.oscil-saw~ 20 12 0 14
#e0e0e0 #404040 0;
#X obj 0 58 cnv 15 500 8 empty empty Inlets 20 15 0 14 #e0e0e0 #404040
0;
#X text 20 87 0;
#X text 42 87 -;
#X obj 0 128 cnv 15 500 8 empty empty Outlets 20 15 0 14 #e0e0e0 #404040
0;
#X text 20 157 0;
#X text 42 157 -;
#X text 64 157 (sig) waveform;
#X text 64 87 (float) oscillator frequency;
#X obj 0 188 cnv 15 500 8 empty empty Note 20 15 0 14 #e0e0e0 #404040
0;
#X text 67 348 <-- Produces phasor from 0 to 2;
#X text 58 389 <-- Produces a from -1 to 1;
#X obj 278 327 tgl 15 0 empty empty empty 17 7 0 10 #fcfcfc #000000
#000000 0 1;
#N canvas 0 22 450 300 (subpatch) 0;
#X array \$0-scope 240 float 0 black black;
#X coords 0 1 239 -1 200 140 1;
#X restore 277 371 graph;
#N canvas 0 22 450 300 scope 0;
#X obj 13 94 tabwrite~ \$0-scope;
#X obj 14 50 metro 256;
#X obj 13 26 inlet;
#X obj 106 28 receive~ \$0-toScope;
#X connect 1 0 0 0;
#X connect 2 0 1 0;
#X connect 3 0 0 0;
#X restore 278 348 pd scope;
#X obj 256 298 cnv 15 231 8 empty empty Oscilloscope 20 15 0 14 #e0e0e0
#404040 0;
#X text 299 327 On/Off;
#X obj 75 485 send~ \$0-toScope;
#X floatatom 21 296 5 0 0 0 - - -, f 5;
#X obj 21 349 *~ 2;
#X text 99 420 <-- anti-aliasing filter;
#X obj 20 420 lop~ 15000;
#X obj 160 270 inlet~;
#X connect 2 0 25 0;
#X connect 3 0 26 0;
#X connect 4 0 28 0;
#X connect 19 0 21 0;
#X connect 25 0 3 0;
#X connect 26 0 4 0;
#X connect 28 0 5 0;
#X connect 28 0 24 0;
