#N canvas 2486 77 860 726 10;
#X floatatom 193 100 5 0 0 0 - - -, f 5;
#X text 201 74 Subtract by x_min to get range to 0:x_size (x_size =
x_max-x_min), f 65;
#X floatatom 191 275 5 0 0 0 - - -, f 5;
#X text 202 397 Multiply by y_size to get range 0:y_size;
#X floatatom 197 489 5 0 0 0 - - -, f 5;
#X text 202 467 Add y_min offset to get to the range y_min:ymax;
#X obj 163 76 - \$1;
#X obj 163 469 + \$3;
#X obj 193 157 loadbang;
#X obj 193 199 - \$1;
#X obj 193 178 f \$2;
#X obj 163 247 /;
#X text 201 247 Divide by x_size to get range 0:1;
#X obj 163 398 *;
#X obj 193 327 loadbang;
#X obj 193 348 f \$4;
#X obj 193 369 - \$3;
#X obj 163 32 inlet;
#X obj 163 550 outlet;
#X connect 6 0 0 0;
#X connect 6 0 11 0;
#X connect 7 0 4 0;
#X connect 7 0 18 0;
#X connect 8 0 10 0;
#X connect 9 0 11 1;
#X connect 10 0 9 0;
#X connect 11 0 2 0;
#X connect 11 0 13 0;
#X connect 13 0 7 0;
#X connect 14 0 15 0;
#X connect 15 0 16 0;
#X connect 16 0 13 1;
#X connect 17 0 6 0;
