#N canvas 172 23 1002 755 10;
#X declare -path satk.dependencies;
#X obj 89 -169 bng 15 250 50 0 \$0-load-file empty Load 17 7 0 10 -262144
-1 -1;
#X obj 89 -111 nbx 10 14 -1e+37 1e+37 0 0 empty \$0-file-dur File\\\ Duration(ms)
0 -8 0 10 -262144 -1 -1 0 256;
#X obj -110 472 line~;
#X obj 89 -57 nbx 10 14 -1e+37 1e+37 0 0 \$0-play-start empty empty
0 -8 0 10 -262144 -1 -1 0 256;
#X obj 89 -3 nbx 10 14 -1e+37 1e+37 0 0 empty empty empty 0 -8 0 10
-262144 -1 -1 0 256;
#X obj -83 230 r \$0-play-start;
#X obj 53 230 r \$0-play-end;
#X obj 264 -20 hsl 128 15 0 500 0 0 empty empty Playback_Speed 0 -8
0 10 -262144 -1 -1 2540 1;
#X msg 18 52 set \$1;
#X floatatom 264 -1 5 0 0 0 - - -;
#X msg 18 80 set \$1;
#X obj 264 92 s \$0-play-rate;
#X obj 175 325 r \$0-play-rate;
#X floatatom 202 368 5 0 0 1 DEBUG - -;
#X obj 150 428 *;
#X obj -110 425 pack f f f;
#X text 179 427 Rate% * length-of-playback-portion = how-fast-to-read-portion
, f 34;
#X msg -110 450 \$1 \, \$2 \$3;
#X obj -110 496 tabread4~ \$0-sound1;
#X obj 26 325 float;
#X obj -110 325 float;
#X obj -110 180 r \$0-play;
#X obj -110 203 t b b b;
#N canvas 0 22 450 300 (subpatch) 0;
#X array \$0-sound1 334519 float 0;
#X coords 0 1 334518 -1 324 149 1;
#X restore 263 -191 graph;
#X obj 89 -207 bng 15 250 50 0 \$0-play empty Play 17 7 0 10 -262144
-1 -1;
#X obj -44 181 bng 15 250 50 0 empty empty DEBUG 17 7 0 10 -262144
-1 -1;
#X floatatom 71 325 5 0 0 1 DEBUG - -;
#X floatatom -71 325 5 0 0 1 DEBUG - -;
#X floatatom 150 460 8 0 0 1 DEBUG - -;
#X obj 89 -147 bng 15 250 50 0 \$0-normalize-file empty Normalize 17
7 0 10 -262144 -1 -1;
#X obj 89 -252 inlet;
#X text 127 -252 Play;
#X text 349 -35 (0.1% - 500%);
#X text 261 -207 (all files converted to mono \, currently);
#X obj -1 -162 r \$0-file-dur;
#X obj 283 325 float;
#X obj 349 325 float;
#X obj 320 370 -;
#X text 322 325 End;
#X obj 150 368 float;
#X text 383 325 start;
#X obj 150 230 t b b b;
#X text 350 370 <-- produces the duration, f 14;
#X obj 264 -303 loadbang;
#X msg 264 -278 100;
#X floatatom 320 400 5 0 0 1 DEBUG - -;
#X text 86 59 out (sig);
#X obj 26 368 tdh.util.ms2samp~;
#X floatatom 71 396 5 0 0 1 DEBUG - -;
#X obj -110 368 tdh.util.ms2samp~;
#X floatatom -65 396 5 0 0 1 DEBUG - -;
#X obj 150 393 / 100;
#X obj 89 -75 hsl 128 15 0 1 0 0 empty empty Playback\\\ Start\\\ (ms)
1 -8 0 10 -262144 -1 -1 0 1;
#X msg 18 -95 set \$1;
#X msg 18 -124 set \$1;
#X obj 213 -252 inlet;
#X obj 385 -251 inlet;
#X obj 528 -254 inlet;
#X text 250 -252 start;
#X text 422 -251 end;
#X text 304 -224 start (ms);
#X text 453 -226 end (ms);
#X obj 89 -22 hsl 128 15 0 1 0 0 empty empty Playback\\\ End\\\ (ms)
1 -8 0 10 -262144 -1 -1 0 1;
#X obj -1 -43 r \$0-file-dur;
#X msg 18 18 set \$1;
#X msg 18 -8 set \$1;
#X obj -106 -72 s \$0-play-start;
#X obj -106 46 s \$0-play-end;
#X obj 89 -297 loadbang;
#X msg 89 -276 0;
#X text 89 -225 play (bang);
#X obj -110 522 outlet~;
#X obj 433 -38 bng 15 250 50 0 empty empty 100% 17 7 0 10 -262144 -1
-1;
#X obj 433 -38 bng 15 250 50 0 empty empty 100% 17 7 0 10 -262144 -1
-1;
#X obj 433 -20 bng 15 250 50 0 empty empty 50% 17 7 0 10 -262144 -1
-1;
#X obj 433 -2 bng 15 250 50 0 empty empty 150% 17 7 0 10 -262144 -1
-1;
#X msg 428 90 100;
#X msg 428 110 50;
#X msg 428 130 150;
#X text 480 -39 100% = normal speed;
#X text 480 -1 > 100% = slower;
#X text 480 -20 < 100% = faster;
#X text -103 -624 Travis Houldcroft || travishouldcroft.com;
#X obj -120 -660 cnv 15 1002 27 empty empty tdh.util.audiofile~ 20
12 0 14 -233017 -66577 0;
#X obj -119 -600 cnv 15 1000 8 empty empty Inlets 20 15 0 14 -233017
-66577 0;
#X text -99 -571 0;
#X text -77 -571 -;
#X obj -120 -470 cnv 15 1000 8 empty empty Outlets 20 15 0 14 -233017
-66577 0;
#X text -99 -441 0;
#X text -75 -441 -;
#X obj -120 -380 cnv 15 1001 10 empty empty Note 20 15 0 14 -233017
-66577 0;
#X text -55 -571 (bang) plays audio file stored in arry;
#X text -77 -551 -;
#X text -99 -551 1;
#X text -55 -551 (float) file playback start point in ms;
#X text -77 -531 -;
#X text -99 -531 2;
#X text -55 -531 (float) file playback end point in ms;
#X text -77 -511 -;
#X text -99 -511 3;
#X text -55 -511 (float) timestretch playback factor 0.1-500;
#X text -53 -441 (sig) signal;
#X text -101 -348 Dependencies: tdh.util.ms2samp~;
#N canvas 664 104 450 300 calc-for-slider 0;
#X obj 40 80 t f b;
#X obj 64 101 float;
#X obj 40 121 /;
#X obj 13 26 inlet;
#X obj 63 26 inlet;
#X obj 13 191 outlet;
#X connect 0 0 2 0;
#X connect 0 1 1 0;
#X connect 1 0 2 1;
#X connect 2 0 5 0;
#X connect 3 0 0 0;
#X connect 4 0 1 1;
#X restore -106 -124 pd calc-for-slider;
#N canvas 0 22 450 300 calc-for-numbox 0;
#X obj 40 121 *;
#X obj 40 80 t f b;
#X obj 67 101 float;
#X obj 13 26 inlet;
#X obj 63 26 inlet;
#X obj 13 191 outlet;
#X connect 0 0 5 0;
#X connect 1 0 0 0;
#X connect 1 1 2 0;
#X connect 2 0 0 1;
#X connect 3 0 1 0;
#X connect 4 0 2 1;
#X restore -106 -98 pd calc-for-numbox;
#N canvas 0 22 450 300 calc-for-slider 0;
#X obj 40 80 t f b;
#X obj 64 101 float;
#X obj 40 121 /;
#X obj 13 26 inlet;
#X obj 63 26 inlet;
#X obj 13 191 outlet;
#X connect 0 0 2 0;
#X connect 0 1 1 0;
#X connect 1 0 2 1;
#X connect 2 0 5 0;
#X connect 3 0 0 0;
#X connect 4 0 1 1;
#X restore -106 -6 pd calc-for-slider;
#N canvas 0 22 450 300 calc-for-numbox 0;
#X obj 40 121 *;
#X obj 40 80 t f b;
#X obj 66 103 float;
#X obj 13 26 inlet;
#X obj 63 26 inlet;
#X obj 13 191 outlet;
#X connect 0 0 5 0;
#X connect 1 0 0 0;
#X connect 1 1 2 0;
#X connect 2 0 0 1;
#X connect 3 0 1 0;
#X connect 4 0 2 1;
#X restore -106 20 pd calc-for-numbox;
#X text -110 150 Playback ---------------------------------------------------------------------------------
, f 91;
#X text 565 -254 playback speed;
#X text 552 -225 speed (float), f 7;
#X obj 615 268 samplerate~;
#X floatatom 600 428 5 0 0 0 - - -;
#X obj 600 447 * 1000;
#X obj 600 407 /;
#X floatatom 615 288 5 0 0 0 - - -;
#X text 653 289 <-- sample rate (samples per second), f 13;
#X text 648 427 <-- array duration in seconds, f 12;
#X text 698 469 <-- array duration in ms, f 9;
#X obj 444 305 openpanel;
#X obj 444 394 soundfiler;
#X obj 444 236 trigger bang bang;
#X obj 444 418 nbx 7 14 -1e+37 1e+37 0 0 empty empty empty 0 -8 0 11
-262144 -1 -1 0 256;
#X obj 600 470 nbx 10 14 -1e+37 1e+37 0 0 empty empty empty 0 -8 0
10 -262144 -1 -1 0 256;
#X obj 444 178 r \$0-load-file;
#X obj 600 492 s \$0-file-dur;
#X obj 746 178 r \$0-normalize-file;
#X obj 789 199 bng 15 250 50 0 empty empty DEBUG 17 7 0 10 -262144
-1 -1;
#X obj 746 221 list append \$0;
#X msg 746 247 \; \$1-sound1 normalize;
#X obj 444 326 list append \$0;
#X msg 444 355 read -resize \$1 \$2-sound1;
#X text 523 418 <-- array length in samp, f 8;
#X text 746 148 Normalize ---------;
#X obj 461 201 bng 15 250 50 0 empty empty DEBUG 17 7 0 10 -262144
-1 -1;
#X obj 440 510 outlet;
#X text 480 510 file duration;
#X text 510 59 file dur (ms);
#X text -75 -420 -;
#X text -100 -420 1;
#X text -53 -420 (float) file duration in ms;
#X obj -120 -317 cnv 15 1001 2 empty empty empty 20 15 0 14 -233017
-66577 0;
#X text 444 148 Read/Load ---------------------------------------;
#X obj 430 -310 declare -path satk.dependencies;
#X obj 87 30 cnv 15 516 22 empty empty AudioFilePlayer 20 8 0 14 -233017
-66577 0;
#X obj 89 -188 bng 15 250 50 0 \$0-stop empty Stop 17 7 0 10 -262144
-1 -1;
#X obj 15 445 r \$0-stop;
#X msg 15 470 stop;
#X obj 172 -280 inlet;
#X text 180 -225 stop (bang);
#X connect 2 0 18 0;
#X connect 3 0 66 0;
#X connect 3 0 103 0;
#X connect 4 0 67 0;
#X connect 4 0 105 0;
#X connect 5 0 20 1;
#X connect 5 0 27 0;
#X connect 5 0 36 1;
#X connect 6 0 19 1;
#X connect 6 0 26 0;
#X connect 6 0 35 1;
#X connect 7 0 8 0;
#X connect 7 0 11 0;
#X connect 8 0 9 0;
#X connect 9 0 10 0;
#X connect 9 0 11 0;
#X connect 10 0 7 0;
#X connect 12 0 13 0;
#X connect 12 0 39 1;
#X connect 14 0 28 0;
#X connect 14 0 15 2;
#X connect 15 0 17 0;
#X connect 17 0 2 0;
#X connect 18 0 71 0;
#X connect 19 0 47 0;
#X connect 20 0 49 0;
#X connect 21 0 25 0;
#X connect 21 0 22 0;
#X connect 22 0 20 0;
#X connect 22 1 19 0;
#X connect 22 2 41 0;
#X connect 30 0 24 0;
#X connect 34 0 103 1;
#X connect 34 0 104 1;
#X connect 35 0 37 0;
#X connect 36 0 37 1;
#X connect 37 0 14 1;
#X connect 37 0 45 0;
#X connect 39 0 51 0;
#X connect 41 0 39 0;
#X connect 41 1 35 0;
#X connect 41 2 36 0;
#X connect 43 0 44 0;
#X connect 44 0 9 0;
#X connect 47 0 48 0;
#X connect 47 0 15 1;
#X connect 49 0 50 0;
#X connect 49 0 15 0;
#X connect 51 0 14 0;
#X connect 52 0 104 0;
#X connect 53 0 3 0;
#X connect 54 0 52 0;
#X connect 55 0 3 0;
#X connect 56 0 4 0;
#X connect 57 0 9 0;
#X connect 62 0 106 0;
#X connect 63 0 4 0;
#X connect 63 0 105 1;
#X connect 63 0 106 1;
#X connect 64 0 4 0;
#X connect 65 0 62 0;
#X connect 68 0 69 0;
#X connect 69 0 52 0;
#X connect 73 0 76 0;
#X connect 74 0 77 0;
#X connect 75 0 78 0;
#X connect 76 0 7 0;
#X connect 77 0 7 0;
#X connect 78 0 7 0;
#X connect 103 0 54 0;
#X connect 104 0 53 0;
#X connect 104 0 66 0;
#X connect 105 0 65 0;
#X connect 106 0 64 0;
#X connect 106 0 67 0;
#X connect 110 0 114 0;
#X connect 111 0 112 0;
#X connect 112 0 122 0;
#X connect 113 0 111 0;
#X connect 114 0 113 1;
#X connect 118 0 129 0;
#X connect 119 0 121 0;
#X connect 120 0 118 0;
#X connect 120 1 110 0;
#X connect 121 0 113 0;
#X connect 122 0 124 0;
#X connect 122 0 134 0;
#X connect 123 0 133 0;
#X connect 123 0 120 0;
#X connect 125 0 126 0;
#X connect 125 0 127 0;
#X connect 127 0 128 0;
#X connect 129 0 130 0;
#X connect 130 0 119 0;
#X connect 145 0 146 0;
#X connect 146 0 2 0;
#X connect 147 0 144 0;
#X coords 0 -1 1 1 516 300 2 84 -226;
